<?xml version="1.0" standalone="no"?><!DOCTYPE svg PUBLIC "-//W3C//DTD SVG 1.1//EN" "http://www.w3.org/Graphics/SVG/1.1/DTD/svg11.dtd"><svg width="100%" height="100%" viewBox="0 0 432 225" version="1.1" xmlns="http://www.w3.org/2000/svg" xmlns:xlink="http://www.w3.org/1999/xlink" xml:space="preserve" class="figure-1 figure"><g id="graph">

<rect x="223.817" y="42.64" width="208.183" height="37" fill="#02191e" class="energy"/>

<rect x="129.375" y="42.64" width="94.442" height="37" fill="#0a323a" class="water"/>

<rect x="66.636" y="42.64" width="62.74" height="37" fill="#10505d" class="health"/>

<rect x="31.492" y="42.64" width="35.333" height="37" fill="#1c6a79" class="sanitation"/>

<rect x="7.522" y="42.64" width="23.97" height="37" fill="#2e7d8d" class="solid-waste"/>

<rect x="0" y="42.64" width="3.816" height="37" fill="#5eabbc" class="telecom"/>

<rect x="3.755" y="42.64" width="3.816" height="37" fill="#3f91a1" class="education"/>

<rect x="188.275" y="155.671" width="243.725" height="37" fill="#32070f" class="africa"/>

<rect x="106.069" y="155.671" width="82.206" height="37" fill="#4c121d" class="south-asia"/>

<rect x="62.727" y="155.671" width="43.343" height="37" fill="#7d1629" class="east-asia"/>

<rect x="31.779" y="155.671" width="30.948" height="37" fill="#9f162f" class="middle-east"/>

<rect x="3.651" y="155.671" width="28.128" height="37" fill="#d01839" class="latin-america"/>

<rect x="0" y="155.671" width="3.69" height="37" fill="#f3385a" class="europe" />

<path d="M2.716,40.309l0.535,-0.411l-0.785,2.262l-0.786,-2.262l0.536,0.411l0,-13.508l0.5,0l0,13.508Z" fill="#60abbb" class="education line" />

<path d="M2.313,153.155l0.536,-0.411l-0.786,2.263l-0.785,-2.263l0.535,0.411l0,-14.414l0.5,0l0,14.414Z" fill="#ef3a5a" class="europe line"/>

<path d="M47.503,153.155l0.535,-0.411l-0.785,2.263l-0.786,-2.263l0.536,0.411l0,-3.087l0.008,-0.065c0.009,-0.02 0.015,-0.041 0.025,-0.06c0.033,-0.057 0.089,-0.099 0.152,-0.116c0.021,-0.006 0.043,-0.006 0.065,-0.009l47.299,0.015l0,-11.257l0.5,0l0,11.507l-0.009,0.065c-0.008,0.02 -0.014,0.042 -0.025,0.06c-0.033,0.057 -0.088,0.1 -0.151,0.117c-0.021,0.006 -0.044,0.006 -0.065,0.008l-47.299,-0.015l0,2.837Z" fill="#a11c30" class="latin-america line"/>

<path d="M6.094,81.785l0,13.858c-0.166,0 -0.333,0 -0.5,0l0,-13.858l-0.535,0.411l0.785,-2.262l0.786,2.262l-0.536,-0.411Z" fill="#4192a2" class="telecom line"/>

<path d="M17.965,195.222l0,14.84c-0.167,0 -0.333,0 -0.5,0l0,-14.84l-0.536,0.411l0.786,-2.263l0.785,2.263l-0.535,-0.411Z" fill="#d41f3a" class="middle-east line"/>

<path d="M84.648,195.222l0,3.583l54.956,0.048l0.064,0.008c0.02,0.009 0.042,0.015 0.061,0.025c0.057,0.033 0.099,0.089 0.116,0.152c0.006,0.021 0.006,0.043 0.008,0.065l0,11.11c-0.166,0 -0.333,0 -0.5,0l0,-10.86l-54.955,-0.049c-0.022,-0.002 -0.044,-0.002 -0.065,-0.008c-0.085,-0.023 -0.154,-0.091 -0.177,-0.177c-0.005,-0.021 -0.005,-0.043 -0.008,-0.065l0,-3.832l-0.536,0.411l0.786,-2.263l0.785,2.263l-0.535,-0.411Z" fill="#7e1329" class="east-asia line"/>

<path d="M20.305,40.309l0.536,-0.411l-0.786,2.262l-0.785,-2.262l0.535,0.411l0,-3.096l0.006,-0.055c0.007,-0.018 0.011,-0.036 0.019,-0.053c0.033,-0.068 0.096,-0.119 0.17,-0.135c0.018,-0.005 0.037,-0.005 0.055,-0.007l38.247,0l0,-10.162l0.5,0l0,10.412l-0.006,0.056c-0.006,0.018 -0.01,0.036 -0.018,0.053c-0.033,0.068 -0.096,0.118 -0.17,0.135c-0.018,0.004 -0.037,0.004 -0.056,0.006l-38.247,0l0,2.846Z" fill="#337d8c" class="solid-waste line"/>

<path d="M49.49,81.898l0,2.365l7.166,0l0.036,0.003c0.031,0.007 0.039,0.007 0.068,0.02c0.066,0.03 0.116,0.088 0.136,0.157c0.009,0.03 0.008,0.039 0.01,0.07l0,11.13c-0.166,0 -0.333,0 -0.5,0l0,-10.88l-7.166,0c-0.031,-0.002 -0.04,-0.001 -0.07,-0.01c-0.081,-0.024 -0.146,-0.088 -0.17,-0.169c-0.009,-0.031 -0.008,-0.039 -0.01,-0.071l0,-2.615l-0.535,0.411l0.785,-2.262l0.786,2.262l-0.536,-0.411Z" fill="#1e6a79" class="sanitation line"/>

<rect x="3.566" y="42.64" width="0.5" height="37" fill="#ffffff" class="border line"/>

<rect x="7.468" y="42.64" width="0.5" height="37" fill="#ffffff" class="border line"/>

<rect x="31.319" y="42.64" width="0.5" height="37" fill="#ffffff" class="border line"/>

<rect x="66.62" y="42.64" width="0.5" height="37" fill="#ffffff" class="border line"/>

<rect x="129.161" y="42.64" width="0.5" height="37" fill="#ffffff" class="border line"/>

<rect x="223.596" y="42.64" width="0.5" height="37" fill="#ffffff" class="border line"/>

<rect x="3.651" y="155.671" width="0.5" height="37" fill="#ffffff" class="border line"/>

<rect x="31.719" y="155.671" width="0.5" height="37" fill="#ffffff" class="border line"/>

<rect x="62.533" y="155.671" width="0.5" height="37" fill="#ffffff" class="border line"/>

<rect x="105.851" y="155.671" width="0.5" height="37" fill="#ffffff" class="border line"/>

<rect x="188.045" y="155.671" width="0.5" height="37" fill="#ffffff" class="border line"/></g>

<g id="type"><g transform="matrix(0.24,0,0,0.24,-56.4693,7.42917)">

<text x="1208.26px" y="236.14px" class="text light">4<tspan x="1224.69px 1241.12px " y="236.14px 236.14px ">3%</tspan></text>

<text x="1268.52px" y="236.14px" class="text light"> <tspan x="1274.09px 1290.49px 1307.56px 1322.92px 1332.99px 1348.49px " y="236.14px 236.14px 236.14px 236.14px 236.14px 236.14px ">Energy</tspan></text></g><g transform="matrix(0.24,0,0,0.24,-152.146,7.64517)">

<text x="1208.26px" y="236.14px" class="text light">2<tspan x="1224.69px 1241.12px " y="236.14px 236.14px ">4%</tspan></text>

<text x="1268.52px" y="236.14px" class="text light"> <tspan x="1274.09px 1298.59px 1314.49px 1324.26px 1339.62px " y="236.14px 236.14px 236.14px 236.14px 236.14px ">Water</tspan></text></g><g transform="matrix(0.24,0,0,0.24,-216.592,7.64517)">

<text x="1208.26px" y="236.14px" class="text light">1<tspan x="1224.69px 1241.12px " y="236.14px 236.14px ">6%</tspan></text>

<text x="1268.52px" y="236.14px" class="text light"> <tspan x="1274.09px 1294.65px 1309.56px 1325.45px 1332.79px 1342.89px " y="236.14px 236.14px 236.14px 236.14px 236.14px 236.14px ">Health</tspan></text></g><g transform="matrix(0.24,0,0,0.24,-229.382,38.055)">

<text x="1208.26px" y="236.14px" class="text dark">9</text>

<text x="1228.82px" y="236.14px" class="text dark">%</text>

<text x="1257.89px" y="236.14px" class="text dark"> <tspan x="1265.99px 1283.36px 1299.49px 1316.86px 1323.69px 1333.59px 1349.72px 1359.62px 1366.45px 1385.06px " y="236.14px 236.14px 236.14px 236.14px 236.14px 236.14px 236.14px 236.14px 236.14px 236.14px ">Sanitation</tspan></text></g><g transform="matrix(0.24,0,0,0.24,-227.984,-23.8246)">

<text x="1208.26px" y="236.14px" class="text dark">6<tspan x="1224.69px " y="236.14px ">%</tspan></text>

<text x="1252.09px" y="236.14px" class="text dark"> <tspan x="1257.65px 1274.29px 1291.19px 1298.52px 1305.56px 1322.89px 1328.45px 1352.95px 1368.86px 1381.65px 1391.42px 1406.79px 1412.36px 1435.42px 1451.32px 1468.39px 1484.29px 1499.45px 1514.82px 1541.29px 1556.65px 1573.72px " y="236.14px 236.14px 236.14px 236.14px 236.14px 236.14px 236.14px 236.14px 236.14px 236.14px 236.14px 236.14px 236.14px 236.14px 236.14px 236.14px 236.14px 236.14px 236.14px 236.14px 236.14px 236.14px ">Solid Waste Management</tspan></text></g><g transform="matrix(0.24,0,0,0.24,-281.626,38.055)">

<text x="1208.26px" y="236.14px" class="text dark">1<tspan x="1224.69px " y="236.14px ">%</tspan></text>

<text x="1252.09px" y="236.14px" class="text dark"> <tspan x="1257.65px 1272.15px 1287.52px 1294.86px 1310.22px 1323.56px 1340.45px " y="236.14px 236.14px 236.14px 236.14px 236.14px 236.14px 236.14px ">Telecom</tspan></text></g><g transform="matrix(0.24,0,0,0.24,-284.827,-23.8246)">

<text x="1208.26px" y="236.14px" class="text dark">1<tspan x="1224.69px " y="236.14px ">%</tspan></text>

<text x="1252.09px" y="236.14px" class="text dark"> <tspan x="1257.65px 1274.06px 1291.39px 1308.36px 1322.06px 1337.95px 1348.06px 1355.09px 1371.99px " y="236.14px 236.14px 236.14px 236.14px 236.14px 236.14px 236.14px 236.14px 236.14px ">Education</tspan></text></g><g transform="matrix(0.24,0,0,0.235259,-52.4668,0.0808913)">

<text x="218.612px" y="59.165px" class="text title">B<tspan x="239.738px " y="59.165px ">Y</tspan></text>

<text x="262.053px" y="59.165px" class="text title"> <tspan x="268.302px 289.64px " y="59.165px 59.165px ">SE</tspan></text>

<text x="311.148px" y="59.165px" class="text title">C</text>

<text x="338.777px" y="59.165px" class="text title">T</text>

<text x="355.823px" y="59.165px" class="text title">O<tspan x="387.192px " y="59.165px ">R</tspan></text></g><g transform="matrix(0.24,0,0,0.235259,-52.4668,109.991)">

<text x="218.612px" y="59.165px" class="text title">B<tspan x="239.738px 262.053px " y="59.165px 59.165px ">Y </tspan></text>

<text x="268.387px" y="59.165px" class="text title">R<tspan x="291.765px 313.274px 342.773px 352.89px 384.259px " y="59.165px 59.165px 59.165px 59.165px 59.165px ">EGION</tspan></text></g><g transform="matrix(0.24,0,0,0.24,-147.266,152.793)">

<text x="1208.26px" y="236.14px" class="text dark">1<tspan x="1224.69px 1241.12px " y="236.14px 236.14px ">1%</tspan></text>

<text x="1268.52px" y="236.14px" class="text dark"> <tspan x="1274.09px 1290.49px 1306.39px 1319.19px 1329.29px 1334.86px 1351.82px 1364.62px 1371.65px 1387.56px 1393.12px 1412.26px 1417.82px 1427.92px 1444.89px 1460.26px 1465.82px 1482.42px 1498.32px 1512.36px 1519.39px 1527.95px 1534.99px " y="236.14px 236.14px 236.14px 236.14px 236.14px 236.14px 236.14px 236.14px 236.14px 236.14px 236.14px 236.14px 236.14px 236.14px 236.14px 236.14px 236.14px 236.14px 236.14px 236.14px 236.14px 236.14px 236.14px ">East Asia &amp; the Pacific</tspan></text></g><g transform="matrix(0.24,0,0,0.24,-176.176,119.298)">

<text x="1208.26px" y="236.14px" class="text light">2<tspan x="1224.69px 1241.12px " y="236.14px 236.14px ">1%</tspan></text></g><g transform="matrix(0.24,0,0,0.24,-157.888,115.714)">

<text x="1208.26px" y="236.14px" class="text light">S<tspan x="1224.89px 1241.79px 1258.76px 1268.86px 1285.82px 1291.39px 1308.36px 1321.15px 1328.19px 1345.26px 1350.82px " y="236.14px 236.14px 236.14px 236.14px 236.14px 236.14px 236.14px 236.14px 236.14px 236.14px 236.14px ">outh Asia  </tspan></text>

<text x="1208.26px" y="269.474px" class="text light">R<tspan x="1226.12px 1241.15px 1256.79px 1263.82px 1280.72px " y="269.474px 269.474px 269.474px 269.474px 269.474px ">egion</tspan></text></g><g transform="matrix(0.24,0,0,0.24,-91.6773,119.714)">

<text x="1208.26px" y="236.14px" class="text light">5<tspan x="1224.69px 1241.12px " y="236.14px 236.14px ">2%</tspan></text>

<text x="1268.52px" y="236.14px" class="text light"> <tspan x="1274.09px 1290.72px 1299.29px 1309.69px 1316.72px 1330.42px " y="236.14px 236.14px 236.14px 236.14px 236.14px 236.14px ">Africa</tspan></text></g><g transform="matrix(0.24,0,0,0.24,-268.85,152.793)">

<text x="1208.26px" y="236.14px" class="text dark">7</text>

<text x="1226.69px" y="236.14px" class="text dark">%</text>

<text x="1254.09px" y="236.14px" class="text dark"> <tspan x="1259.65px 1274.69px 1290.59px 1300.69px 1307.72px 1324.79px 1330.36px 1347.32px 1373.79px 1389.15px 1399.56px 1406.59px 1420.29px 1436.19px 1441.76px 1460.89px 1466.45px 1476.56px 1493.52px 1508.89px 1514.45px 1532.32px 1548.22px 1558.62px 1565.65px 1582.99px 1600.32px 1615.22px 1631.12px " y="236.14px 236.14px 236.14px 236.14px 236.14px 236.14px 236.14px 236.14px 236.14px 236.14px 236.14px 236.14px 236.14px 236.14px 236.14px 236.14px 236.14px 236.14px 236.14px 236.14px 236.14px 236.14px 236.14px 236.14px 236.14px 236.14px 236.14px 236.14px 236.14px ">Latin America &amp; the Caribbean</tspan></text></g><g transform="matrix(0.24,0,0,0.24,-285.949,88.0621)">

<text x="1208.26px" y="236.14px" class="text dark">1<tspan x="1224.69px " y="236.14px ">%</tspan></text>

<text x="1252.09px" y="236.14px" class="text dark"> <tspan x="1257.65px 1274.06px 1291.02px 1301.09px 1317.99px 1335.32px 1350.69px 1356.26px 1375.39px 1380.95px 1398.82px 1414.19px 1431.26px 1441.36px 1450.92px 1466.82px 1474.15px 1479.72px 1496.69px 1509.49px 1516.52px " y="236.14px 236.14px 236.14px 236.14px 236.14px 236.14px 236.14px 236.14px 236.14px 236.14px 236.14px 236.14px 236.14px 236.14px 236.14px 236.14px 236.14px 236.14px 236.14px 236.14px 236.14px ">Europe &amp; Central Asia</tspan></text></g><g transform="matrix(0.24,0,0,0.24,-192.397,88.0621)">

<text x="1208.26px" y="236.14px" class="text dark">8</text>

<text x="1225.69px" y="236.14px" class="text dark">%</text>

<text x="1253.09px" y="236.14px" class="text dark"> <tspan x="1258.65px 1281.72px 1288.76px 1306.09px 1323.42px 1330.76px 1346.12px 1351.69px 1368.09px 1383.99px 1396.79px 1406.89px 1412.45px 1431.59px 1437.15px 1457.56px 1474.45px 1484.86px 1494.95px 1511.92px 1517.49px 1534.12px 1542.69px 1553.09px 1560.12px 1573.82px " y="236.14px 236.14px 236.14px 236.14px 236.14px 236.14px 236.14px 236.14px 236.14px 236.14px 236.14px 236.14px 236.14px 236.14px 236.14px 236.14px 236.14px 236.14px 236.14px 236.14px 236.14px 236.14px 236.14px 236.14px 236.14px 236.14px ">Middle East &amp; North Africa</tspan></text></g></g></svg>