<?xml version="1.0" standalone="no"?><!DOCTYPE svg PUBLIC "-//W3C//DTD SVG 1.1//EN" "http://www.w3.org/Graphics/SVG/1.1/DTD/svg11.dtd"><svg width="100%" height="100%" viewBox="0 0 433 100" version="1.1" xmlns="http://www.w3.org/2000/svg" xmlns:xlink="http://www.w3.org/1999/xlink" xml:space="preserve" class="figure-4 figure"><g id="graph"><g id="graph1">

<rect x="119.41" y="28.303" width="152.995" height="42" fill="#145954" class="government"/>

<rect x="16.986" y="28.303" width="42.719" height="42" fill="#3d9791" class="ngo"/>

<rect x="0" y="28.303" width="16.986" height="42" fill="#5dc0ba" class="financial-institution" /><g transform="matrix(0.24,0,0,0.24,-159.563,-4.60054)">

<text x="1208.26px" y="236.14px" class="text light">1<tspan x="1228.8px 1249.34px " y="236.14px 236.14px ">8 </tspan></text>

<text x="1256.55px" y="236.14px" class="text light">G<tspan x="1280.8px 1301.76px 1319.59px 1338.8px 1351.8px 1373.13px 1406.21px 1425.42px 1446.76px " y="236.14px 236.14px 236.14px 236.14px 236.14px 236.14px 236.14px 236.14px 236.14px ">overnment</tspan></text></g><g transform="matrix(0.24,0,0,0.24,-181.449,-41.1355)">

<text x="1208.26px" y="236.14px" class="text dark">7</text>

<text x="1231.3px" y="236.14px" class="text dark"> </text>

<text x="1238.51px" y="236.14px" class="text dark">P<tspan x="1261.05px 1282.26px 1303.92px 1313.09px 1321.88px 1339.42px 1346.38px 1367.17px 1386.38px 1403.92px 1416.13px 1437.26px " y="236.14px 236.14px 236.14px 236.14px 236.14px 236.14px 236.14px 236.14px 236.14px 236.14px 236.14px 236.14px ">ublic Sector</tspan></text></g><g transform="matrix(0.24,0,0,0.24,100.25,-40.4555)">

<text x="1208.26px" y="236.14px" class="text dark">T<tspan x="1226.38px 1247.51px 1259.38px 1279.26px 1288.42px 1297.34px " y="236.14px 236.14px 236.14px 236.14px 236.14px 236.14px ">otal: </tspan></text>

<text x="1304.3px" y="236.14px" class="text dark">5<tspan x="1324.84px " y="236.14px ">1</tspan></text></g><g transform="matrix(0.24,0,0,0.24,-278.288,-41.1355)">

<text x="1208.26px" y="236.14px" class="text dark">2</text>

<text x="1228.8px" y="236.14px" class="text dark"> <tspan x="1235.76px 1254.88px 1263.67px 1285.01px 1304.88px 1326.21px 1343.76px 1352.55px 1372.42px 1381.59px 1388.55px 1398.05px 1419.38px 1435.38px 1448.01px 1456.8px 1469.17px 1490.38px 1503.01px 1511.8px 1532.92px " y="236.14px 236.14px 236.14px 236.14px 236.14px 236.14px 236.14px 236.14px 236.14px 236.14px 236.14px 236.14px 236.14px 236.14px 236.14px 236.14px 236.14px 236.14px 236.14px 236.14px 236.14px ">Financial Institution</tspan></text></g><g transform="matrix(0.24,0,0,0.24,-249.258,32.87)">

<text x="1208.26px" y="236.14px" class="text dark">5</text>

<text x="1228.8px" y="236.14px" class="text dark"> <tspan x="1235.76px 1261.26px 1282.38px 1303.71px 1315.21px 1339.46px 1360.42px 1378.26px 1397.46px 1410.46px 1431.8px 1464.88px 1484.09px 1505.42px 1517.3px 1537.17px 1546.34px 1553.3px 1579.51px 1592.09px 1610.96px 1630.84px 1652.17px 1660.96px 1676.26px 1696.13px 1708.76px 1717.55px 1738.67px " y="236.14px 236.14px 236.14px 236.14px 236.14px 236.14px 236.14px 236.14px 236.14px 236.14px 236.14px 236.14px 236.14px 236.14px 236.14px 236.14px 236.14px 236.14px 236.14px 236.14px 236.14px 236.14px 236.14px 236.14px 236.14px 236.14px 236.14px 236.14px 236.14px ">Non-Governmental Organization</tspan></text></g>

<path d="M37.81,72.833l0,17.858c-0.167,0 -0.333,0 -0.5,0l0,-17.858l-0.535,0.411l0.785,-2.262l0.786,2.262l-0.536,-0.411Z" fill="#3f9890" class="ngo line"/>

<path d="M8.956,25.787l0.535,-0.411l-0.785,2.263l-0.786,-2.263l0.536,0.411l0,-17.809l0.5,0l0,17.809Z" fill="#5dc0ba" class="financial-institution line"/>

<path d="M106.049,25.787l0.535,-0.411l-0.785,2.263l-0.786,-2.263l0.536,0.411l0,-17.809l0.5,0l0,17.809Z" fill="#287872" class="public-sector line"/>

<rect x="59.705" y="28.303" width="59.705" height="42" fill="#277872" class="public-sector"/>

<rect x="272.405" y="28.303" width="160.595" height="42" fill="#072a27" class="private-sector"/>

<rect x="16.788" y="28.303" width="0.5" height="42" fill="#ffffff" class="border line"/>

<rect x="59.441" y="28.303" width="0.5" height="42" fill="#ffffff" class="border line"/>

<rect x="119.288" y="28.303" width="0.5" height="42" fill="#ffffff" class="border line"/>

<rect x="272.405" y="28.303" width="0.435" height="42" fill="#ffffff" class="border line"/></g></g><g id="type"><g transform="matrix(0.24,0,0,0.24,-7.53495,-4.60054)">

<text x="1208.26px" y="236.14px" class="text light">1<tspan x="1228.8px " y="236.14px ">9</tspan></text>

<text x="1249.34px" y="236.14px" class="text light"> <tspan x="1256.3px 1278.84px 1291.84px 1300.63px 1317.8px 1337.67px 1349.88px 1369.09px 1376.05px 1396.84px 1416.05px 1433.59px 1445.8px 1466.92px " y="236.14px 236.14px 236.14px 236.14px 236.14px 236.14px 236.14px 236.14px 236.14px 236.14px 236.14px 236.14px 236.14px 236.14px ">Private Sector</tspan></text></g></g></svg>