<?xml version="1.0" encoding="UTF-8" standalone="no"?>
<svg width="1200px" height="600px" viewBox="0 0 1200 600" version="1.1" xmlns="http://www.w3.org/2000/svg" xmlns:xlink="http://www.w3.org/1999/xlink" xmlns:sketch="http://www.bohemiancoding.com/sketch/ns">
    <!-- Generator: Sketch 3.3.3 (12072) - http://www.bohemiancoding.com/sketch -->
    <title>Ethiopia</title>
    <desc>Created with Sketch.</desc>
    <defs></defs>
    <g id="Page-1" stroke="none" stroke-width="1" fill="none" fill-rule="evenodd" sketch:type="MSPage">
        <g id="Ethiopia" sketch:type="MSLayerGroup">
            <path d="M0,600 L1200,600 L1200,0 L0,0 L0,600 Z" id="Fill-1" fill="#C7242A" sketch:type="MSShapeGroup"></path>
            <path d="M0,400 L1200,400 L1200,0 L0,0 L0,400 Z" id="Fill-2" fill="#F9DB20" sketch:type="MSShapeGroup"></path>
            <path d="M0,200 L1200,200 L1200,0 L0,0 L0,200 Z" id="Fill-3" fill="#168041" sketch:type="MSShapeGroup"></path>
            <path d="M600,100 C710.456667,100 800,189.543333 800,300 C800,410.456667 710.456667,500 600,500 C489.543333,500 400,410.456667 400,300 C400,189.543333 489.543333,100 600,100" id="Fill-4" fill="#274489" sketch:type="MSShapeGroup"></path>
            <path d="M600,140 L592.99,161.573333 L621.903333,250.556667 L583.355,250.556667 L579.021667,263.89 L702.626667,263.89 L720.978333,250.556667 L635.921667,250.556667 L600,140" id="Fill-5" fill="#F9DB20" sketch:type="MSShapeGroup"></path>
            <path d="M645.801667,242.631667 L640.406667,238.713333 L691.348333,168.598333 L696.743333,172.516667 C679.761667,195.888333 662.781667,219.26 645.801667,242.631667" id="Fill-6" fill="#F9DB20" sketch:type="MSShapeGroup"></path>
            <path d="M752.168333,250.556667 L729.485,250.556667 L653.79,305.551667 L641.878333,268.89 L627.858333,268.89 L666.055,386.445 L684.406667,399.778333 L658.123333,318.885 L752.168333,250.556667" id="Fill-7" fill="#F9DB20" sketch:type="MSShapeGroup"></path>
            <path d="M751.138333,352.613333 L668.713333,325.831667 L670.775,319.491667 L753.2,346.273333 C752.511667,348.386667 751.825,350.5 751.138333,352.613333" id="Fill-8" fill="#F9DB20" sketch:type="MSShapeGroup"></path>
            <path d="M694.045,429.443333 L687.035,407.87 L611.341667,352.875 L642.528333,330.216667 L638.195,316.883333 L538.196667,389.536667 L531.186667,411.11 L600,361.115 L694.045,429.443333" id="Fill-9" fill="#F9DB20" sketch:type="MSShapeGroup"></path>
            <path d="M596.666667,460 L596.666667,373.333333 L603.333333,373.333333 L603.333333,460 L596.666667,460" id="Fill-10" fill="#F9DB20" sketch:type="MSShapeGroup"></path>
            <path d="M505.955,429.443333 L524.306667,416.11 L553.22,327.126667 L584.405,349.785 L595.746667,341.543333 L495.75,268.891667 L473.065,268.891667 L541.876667,318.886667 L505.955,429.443333" id="Fill-11" fill="#F9DB20" sketch:type="MSShapeGroup"></path>
            <path d="M448.861667,352.613333 L446.8,346.273333 L529.225,319.491667 L531.286667,325.831667 C503.811667,334.758333 476.336667,343.686667 448.861667,352.613333" id="Fill-12" fill="#F9DB20" sketch:type="MSShapeGroup"></path>
            <path d="M447.831667,250.556667 L466.183333,263.89 L559.746667,263.89 L547.833333,300.551667 L559.176667,308.791667 L597.371667,191.236667 L590.361667,169.663333 L564.078333,250.556667 L447.831667,250.556667" id="Fill-13" fill="#F9DB20" sketch:type="MSShapeGroup"></path>
            <path d="M554.198333,242.631667 L503.256667,172.516667 L508.651667,168.598333 L559.593333,238.713333 C557.795,240.018333 555.996667,241.325 554.198333,242.631667" id="Fill-14" fill="#F9DB20" sketch:type="MSShapeGroup"></path>
            <path d="M643.105,240.671667 L694.046667,170.556667" id="Fill-15" fill="#0A0A08" sketch:type="MSShapeGroup"></path>
            <path d="M669.743333,322.661667 L752.168333,349.443333" id="Fill-16" fill="#0A0A08" sketch:type="MSShapeGroup"></path>
            <path d="M530.256667,322.661667 L447.831667,349.443333" id="Fill-17" fill="#0A0A08" sketch:type="MSShapeGroup"></path>
            <path d="M556.895,240.671667 L505.953333,170.556667" id="Fill-18" fill="#0A0A08" sketch:type="MSShapeGroup"></path>
        </g>
    </g>
</svg>