<svg width="1200" height="600" viewBox="0 0 1200 600" xmlns="http://www.w3.org/2000/svg"><title>Ethiopia</title><g fill="none" fill-rule="evenodd"><path d="M0 600h1200V0H0v600z" fill="#C7242A"/><path d="M0 400h1200V0H0v400z" fill="#F9DB20"/><path d="M0 200h1200V0H0v200z" fill="#168041"/><path d="M600 100c110.457 0 200 89.543 200 200s-89.543 200-200 200-200-89.543-200-200 89.543-200 200-200" fill="#274489"/><path d="M600 140l-7.01 21.573 28.913 88.984h-38.548l-4.333 13.333h123.605l18.35-13.333h-85.055L600 140" fill="#F9DB20"/><path d="M645.802 242.632l-5.395-3.92 50.94-70.114 5.396 3.92-50.94 70.114M752.168 250.557h-22.683l-75.695 54.995-11.912-36.662h-14.02l38.197 117.555 18.352 13.333-26.284-80.893 94.045-68.328" fill="#F9DB20"/><path d="M751.138 352.613l-82.425-26.78 2.062-6.34 82.425 26.78-2.062 6.34M694.045 429.443l-7.01-21.573-75.693-54.995 31.186-22.658-4.333-13.334-99.998 72.654-7.01 21.573L600 361.115l94.045 68.328" fill="#F9DB20"/><path d="M596.667 460v-86.667h6.666V460h-6.666M505.955 429.443l18.352-13.333 28.913-88.983 31.185 22.658 11.342-8.242-99.997-72.65h-22.685l68.812 49.994-35.922 110.556" fill="#F9DB20"/><path d="M448.862 352.613l-2.062-6.34 82.425-26.78 2.062 6.34c-27.475 8.925-54.95 17.854-82.425 26.78M447.832 250.557l18.35 13.333h93.565l-11.914 36.662 11.344 8.24 38.195-117.555-7.01-21.574-26.284 80.894H447.832" fill="#F9DB20"/><path d="M554.198 242.632l-50.94-70.115 5.394-3.92 50.94 70.116-5.394 3.92" fill="#F9DB20"/><path d="M643.105 240.672l50.942-70.115M669.743 322.662l82.425 26.78M530.257 322.662l-82.425 26.78M556.895 240.672l-50.942-70.115" fill="#0A0A08"/></g></svg>