<svg viewBox="0 0 3000 1500" xmlns="http://www.w3.org/2000/svg" fill-rule="evenodd" clip-rule="evenodd" stroke-linejoin="round" stroke-miterlimit="1.414"><path fill="#DB1F27" fill-rule="nonzero" d="M0 0h3000.002v1500H0z"/><path fill="#FADD08" fill-rule="nonzero" d="M0 0h3000.002v1000H0z"/><path fill="#0B8943" fill-rule="nonzero" d="M0 0h3000.002v500H0z"/><path d="M1500 250c276.143 0 500.002 223.86 500.002 500 0 276.142-223.86 500-500 500-276.143 0-500-223.858-500-500 0-276.14 223.857-500 500-500" fill="#224DA1" fill-rule="nonzero"/><path d="M1500 350l-17.524 53.934 72.284 222.458h-96.37l-10.835 33.334h309.013l45.88-33.334h-212.643L1500 350z" fill="#FADD08" fill-rule="nonzero"/><path d="M1614.5 606.58l-13.48-9.798 127.35-175.287 13.49 9.796c-42.46 58.43-84.91 116.86-127.36 175.29zM1880.422 626.392h-56.708L1634.476 763.88l-29.78-91.654h-35.05l95.493 293.887 45.878 33.334-65.708-202.234 235.112-170.82z" fill="#FADD08" fill-rule="nonzero"/><path d="M1877.852 881.534l-206.06-66.955 5.15-15.852L1883 865.683c-1.72 5.283-3.44 10.567-5.15 15.85zM1735.114 1073.61l-17.525-53.934-189.235-137.488 77.967-56.646-10.833-33.333-249.997 181.632-17.525 53.934L1500 902.788l235.114 170.82z" fill="#FADD08" fill-rule="nonzero"/><path fill="#FADD08" fill-rule="nonzero" d="M1491.67 933.334h16.668V1150h-16.667zM1264.89 1073.61l45.878-33.334 72.283-222.46 77.964 56.647 28.354-20.604-249.992-181.63h-56.713l172.03 124.987-89.804 276.392z"/><path d="M1122.15 881.534l-5.15-15.85 206.06-66.955 5.15 15.85c-68.68 22.318-137.37 44.636-206.06 66.954zM1119.58 626.392l45.88 33.334h233.908l-29.784 91.654 28.36 20.6 95.486-293.888-17.525-53.933-65.708 202.232H1119.58z" fill="#FADD08" fill-rule="nonzero"/><path d="M1385.5 606.578L1258.14 431.29l13.49-9.796 127.35 175.288c-4.49 3.265-8.99 6.53-13.48 9.796z" fill="#FADD08" fill-rule="nonzero"/><path d="M1607.764 601.68l127.354-175.288M1674.364 806.655l206.063 66.954M1325.643 806.655L1119.58 873.61M1392.243 601.68L1264.89 426.392" fill="#030404" fill-rule="nonzero"/></svg>