<svg viewBox="0 0 4167 2084" xmlns="http://www.w3.org/2000/svg" fill-rule="evenodd" clip-rule="evenodd" stroke-linejoin="round" stroke-miterlimit="1.414"><path fill="#2672B9" fill-rule="nonzero" d="M0 0h4166.67v2083.335H0z"/><path fill="#fff" fill-rule="nonzero" d="M0 694.442h4166.67v694.447H0z"/><path d="M2015.302 1135.3l25.99-79.97-68.03-49.43h84.09l25.98-79.973 25.99 79.974h84.09l-68.03 49.43 25.98 79.97-68.03-49.42-68.03 49.42zM2594.012 950.12l25.98-79.977-68.03-49.427h84.09l25.99-79.974 25.98 79.974h84.09l-68.03 49.427 25.99 79.976-68.03-49.426-68.03 49.425zM2594.012 1297.34l25.98-79.98-68.03-49.42h84.09l25.99-79.98 25.98 79.98h84.09l-68.03 49.42 25.99 79.98-68.03-49.43-68.03 49.43zM1436.6 950.12l25.99-79.977-68.04-49.427h84.09l25.99-79.974 25.99 79.974h84.09l-68.04 49.427 25.99 79.976-68.03-49.426-68.03 49.425zM1436.6 1297.34l25.99-79.98-68.04-49.42h84.09l25.99-79.98 25.99 79.98h84.09l-68.04 49.42 25.99 79.98-68.03-49.43-68.03 49.43z" fill="#2672B9"/></svg>