<svg width="1200" height="600" viewBox="0 0 1200 600" xmlns="http://www.w3.org/2000/svg"><title>Honduras</title><g fill="none" fill-rule="evenodd"><path d="M0 600h1200V0H0v600z" fill="#3167A3"/><path d="M0 400h1200V200H0v200z" fill="#FFF"/><path d="M580.408 326.968l7.483-23.034L568.3 289.7h24.218L600 266.665l7.484 23.033h24.218l-19.593 14.235 7.482 23.033L600 312.733l-19.592 14.235M747.073 273.634l7.485-23.033-19.593-14.234h24.217l7.485-23.032 7.484 23.032h24.218L778.775 250.6l7.484 23.034-19.593-14.235-19.594 14.234M747.073 373.634l7.485-23.034-19.593-14.234h24.217l7.485-23.033 7.484 23.033h24.218L778.775 350.6l7.484 23.034-19.593-14.234-19.594 14.234M413.74 273.634l7.485-23.033-19.593-14.234h24.217l7.483-23.032 7.485 23.032h24.217L445.442 250.6l7.484 23.034-19.593-14.235-19.592 14.234M413.74 373.634l7.485-23.034-19.593-14.234h24.217l7.483-23.033 7.485 23.033h24.217L445.442 350.6l7.484 23.034-19.593-14.234-19.592 14.234" fill="#3167A3"/></g></svg>