<?xml version="1.0" encoding="UTF-8" standalone="no"?>
<svg width="1200px" height="600px" viewBox="0 0 1200 600" version="1.1" xmlns="http://www.w3.org/2000/svg" xmlns:xlink="http://www.w3.org/1999/xlink" xmlns:sketch="http://www.bohemiancoding.com/sketch/ns">
    <!-- Generator: Sketch 3.3.3 (12072) - http://www.bohemiancoding.com/sketch -->
    <title>Honduras</title>
    <desc>Created with Sketch.</desc>
    <defs></defs>
    <g id="Page-1" stroke="none" stroke-width="1" fill="none" fill-rule="evenodd" sketch:type="MSPage">
        <g id="Honduras" sketch:type="MSLayerGroup">
            <path d="M0,600 L1200,600 L1200,0 L0,0 L0,600 Z" id="Fill-1" fill="#3167A3" sketch:type="MSShapeGroup"></path>
            <path d="M0,399.9996 L1200,399.9996 L1200,199.9992 L0,199.9992 L0,399.9996 Z" id="Fill-2" fill="#FFFFFF" sketch:type="MSShapeGroup"></path>
            <path d="M580.4076,326.9676 L587.8908,303.9336 L568.2984,289.6992 L592.5156,289.6992 L600,266.6664 L607.4844,289.6992 L631.7016,289.6992 L612.1092,303.9348 L619.5924,326.9676 L600,312.7332 L580.4076,326.9676" id="Fill-3" fill="#3167A3" sketch:type="MSShapeGroup"></path>
            <path d="M747.0732,273.6336 L754.5576,250.6008 L734.9652,236.3664 L759.1824,236.3664 L766.6668,213.3336 L774.1512,236.3664 L798.3684,236.3664 L778.7748,250.6008 L786.2592,273.6336 L766.6668,259.3992 L747.0732,273.6336" id="Fill-4" fill="#3167A3" sketch:type="MSShapeGroup"></path>
            <path d="M747.0732,373.6344 L754.5576,350.6004 L734.9652,336.366 L759.1824,336.366 L766.6668,313.3332 L774.1512,336.366 L798.3684,336.366 L778.7748,350.6004 L786.2592,373.6344 L766.6668,359.4 L747.0732,373.6344" id="Fill-5" fill="#3167A3" sketch:type="MSShapeGroup"></path>
            <path d="M413.7408,273.6336 L421.2252,250.6008 L401.6316,236.3664 L425.8488,236.3664 L433.3332,213.3336 L440.8176,236.3664 L465.0348,236.3664 L445.4424,250.6008 L452.9256,273.6336 L433.3332,259.3992 L413.7408,273.6336" id="Fill-6" fill="#3167A3" sketch:type="MSShapeGroup"></path>
            <path d="M413.7408,373.6344 L421.2252,350.6004 L401.6316,336.366 L425.8488,336.366 L433.3332,313.3332 L440.8176,336.366 L465.0348,336.366 L445.4424,350.6004 L452.9256,373.6344 L433.3332,359.4 L413.7408,373.6344" id="Fill-7" fill="#3167A3" sketch:type="MSShapeGroup"></path>
        </g>
    </g>
</svg>