<svg viewBox="0 0 5625 3750" xmlns="http://www.w3.org/2000/svg" fill-rule="evenodd" clip-rule="evenodd" stroke-linejoin="round" stroke-miterlimit="1.414"><path fill="#F89938" fill-rule="nonzero" d="M0 0h5625.005v3750.003H0z"/><path fill="#fff" fill-rule="nonzero" d="M0 1250h5625.005v1250.004H0z"/><path fill="#138943" fill-rule="nonzero" d="M0 2500.002h5625.005v1250H0z"/><path d="M2816.992 1962.392l10.51 87.61-15 262.5-15-262.5 10.51-87.61c-4.7-.24-9.31-.85-13.8-1.8l-12.51 87.33-82.43 249.67 53.45-257.44 32.82-81.88c-4.45-1.44-8.75-3.23-12.85-5.33l-34.7 81.11-144.24 219.84 118.26-234.84 52.91-70.61c-3.91-2.53-7.6-5.37-11.04-8.48l-54.52 69.39-196.22 175.01 175.01-196.22 69.39-54.52c-3.11-3.44-5.95-7.13-8.48-11.04l-70.61 52.91-234.84 118.26 219.84-144.24 81.11-34.7c-2.1-4.1-3.89-8.4-5.33-12.85l-81.88 32.82-257.44 53.45 249.67-82.43 87.33-12.51c-.95-4.49-1.56-9.1-1.8-13.8l-87.61 10.51-262.5-15 262.5-15 87.61 10.51c.24-4.7.85-9.31 1.8-13.8l-87.33-12.51-249.67-82.43 257.44 53.45 81.88 32.82c1.44-4.45 3.23-8.75 5.33-12.85l-81.11-34.7-219.84-144.24 234.84 118.26 70.61 52.91c2.53-3.91 5.37-7.6 8.48-11.04l-69.39-54.52-175.01-196.22 196.22 175.01 54.52 69.39c3.44-3.11 7.13-5.95 11.04-8.48l-52.91-70.61-118.26-234.84 144.24 219.84 34.7 81.11c4.1-2.1 8.4-3.89 12.85-5.33l-32.82-81.88-53.45-257.44 82.43 249.67 12.51 87.33c4.49-.95 9.1-1.56 13.8-1.8l-10.51-87.61 15-262.5 15 262.5-10.51 87.61c4.7.24 9.31.85 13.8 1.8l12.51-87.33 82.43-249.67-53.45 257.44-32.82 81.88c4.45 1.44 8.75 3.23 12.85 5.33l34.7-81.11 144.24-219.84-118.26 234.84-52.91 70.61c3.91 2.53 7.6 5.37 11.04 8.48l54.52-69.39 196.22-175.01-175.01 196.22-69.39 54.52c3.11 3.44 5.95 7.13 8.48 11.04l70.61-52.91 234.84-118.26-219.84 144.24-81.11 34.7c2.1 4.1 3.89 8.4 5.33 12.85l81.89-32.82 257.43-53.45-249.67 82.43-87.33 12.51c.95 4.49 1.56 9.1 1.8 13.8l87.61-10.51 262.5 15-262.5 15-87.61-10.51c-.24 4.7-.85 9.31-1.8 13.8l87.33 12.51 249.67 82.43-257.43-53.45-81.89-32.82c-1.44 4.45-3.23 8.75-5.33 12.85l81.11 34.7 219.84 144.24-234.84-118.26-70.61-52.91c-2.53 3.91-5.37 7.6-8.48 11.04l69.39 54.52 175.01 196.22-196.22-175.01-54.52-69.39c-3.44 3.11-7.13 5.95-11.04 8.48l52.91 70.61 118.26 234.84-144.24-219.84-34.7-81.11c-4.1 2.1-8.4 3.89-12.85 5.33l32.82 81.88 53.45 257.44-82.43-249.67-12.51-87.33c-4.49.95-9.1 1.56-13.8 1.8z" fill="#292B79"/><path d="M2812.502 1375c276.14 0 500 223.86 500 500 0 276.142-223.86 500.002-500 500.002s-500-223.86-500-500 223.86-500 500-500zm-35.36 936.092c11.67.94 23.46 1.41 35.36 1.41 11.9 0 23.69-.47 35.36-1.41-1.27-11.77 7.09-22.47 18.89-24.02 11.82-1.56 22.68 6.63 24.48 18.37 23.48-4.27 46.31-10.41 68.32-18.27-4.33-11.06.97-23.62 12-28.18 11.03-4.57 23.64.54 28.41 11.43 21.42-10.18 41.88-22.04 61.22-35.42-7-9.56-5.11-23.01 4.34-30.26 9.44-7.25 22.91-5.6 30.34 3.61 17.97-15.29 34.7-32.02 49.99-49.99-9.21-7.43-10.86-20.9-3.61-30.34 7.25-9.45 20.7-11.34 30.26-4.34 13.38-19.34 25.24-39.8 35.42-61.22-10.89-4.76-16-17.38-11.43-28.41 4.57-11.02 17.11-16.33 28.18-12 7.86-22.01 14-44.84 18.27-68.32-11.73-1.8-19.93-12.65-18.37-24.48 1.55-11.81 12.25-20.16 24.02-18.89.94-11.67 1.41-23.46 1.41-35.36 0-11.9-.47-23.69-1.41-35.36-11.77 1.27-22.47-7.09-24.02-18.89-1.56-11.82 6.63-22.68 18.37-24.48-4.27-23.48-10.41-46.31-18.27-68.32-11.07 4.33-23.61-.97-28.18-12.01-4.57-11.02.54-23.63 11.43-28.4-10.18-21.42-22.04-41.88-35.42-61.21-9.56 6.99-23.01 5.1-30.26-4.35-7.25-9.44-5.6-22.91 3.61-30.34-15.29-17.97-32.02-34.7-50-49.99-7.42 9.21-20.89 10.86-30.33 3.61-9.45-7.25-11.34-20.7-4.35-30.26-19.33-13.38-39.79-25.24-61.21-35.42-4.76 10.88-17.38 16-28.41 11.43-11.02-4.57-16.33-17.11-12-28.18-22.01-7.86-44.84-14-68.32-18.27-1.8 11.73-12.66 19.93-24.48 18.37-11.8-1.55-20.16-12.25-18.89-24.02-11.67-.93-23.46-1.41-35.36-1.41-11.9 0-23.69.48-35.36 1.41 1.27 11.77-7.09 22.47-18.89 24.02-11.82 1.56-22.68-6.63-24.48-18.37-23.48 4.27-46.31 10.41-68.32 18.27 4.33 11.07-.97 23.61-12 28.18s-23.65-.55-28.41-11.43c-21.42 10.18-41.88 22.04-61.21 35.42 6.99 9.56 5.1 23.01-4.35 30.26-9.44 7.25-22.91 5.6-30.34-3.61-17.97 15.29-34.7 32.02-49.99 49.99 9.21 7.44 10.86 20.9 3.61 30.34-7.25 9.45-20.7 11.34-30.26 4.35-13.38 19.33-25.24 39.79-35.42 61.21 10.89 4.77 16 17.38 11.43 28.41-4.56 11.03-17.11 16.34-28.18 12-7.86 22.01-14 44.84-18.27 68.32 11.73 1.8 19.93 12.65 18.37 24.48-1.55 11.81-12.25 20.16-24.02 18.89-.94 11.67-1.41 23.46-1.41 35.36 0 11.9.47 23.69 1.41 35.36 11.77-1.27 22.47 7.09 24.02 18.89 1.56 11.82-6.63 22.68-18.37 24.48 4.27 23.48 10.41 46.31 18.27 68.32 11.07-4.33 23.62.97 28.18 12.01 4.57 11.02-.54 23.64-11.43 28.4 10.18 21.42 22.04 41.88 35.42 61.22 9.56-7 23.01-5.11 30.26 4.34 7.25 9.44 5.6 22.91-3.61 30.34 15.29 17.97 32.02 34.7 50 49.99 7.43-9.21 20.89-10.86 30.33-3.61 9.45 7.25 11.34 20.7 4.35 30.26 19.33 13.38 39.79 25.24 61.21 35.42 4.76-10.89 17.38-16 28.41-11.43 11.02 4.56 16.33 17.11 12 28.18 22.01 7.86 44.84 14 68.32 18.27 1.8-11.73 12.66-19.93 24.48-18.37 11.8 1.55 20.16 12.25 18.89 24.02z" fill="#292B79"/></svg>