<?xml version="1.0" standalone="no"?>
<!DOCTYPE svg PUBLIC "-//W3C//DTD SVG 1.1//EN" "http://www.w3.org/Graphics/SVG/1.1/DTD/svg11.dtd">
<svg width="100%" height="100%" viewBox="0 0 5625 3750" version="1.1" xmlns="http://www.w3.org/2000/svg" xmlns:xlink="http://www.w3.org/1999/xlink" xml:space="preserve" style="fill-rule:evenodd;clip-rule:evenodd;stroke-linejoin:round;stroke-miterlimit:1.41421;">
    <g id="Layer 1" transform="matrix(4.16667,0,0,4.16667,0,0)">
        <rect x="0" y="0" width="1350" height="900" style="fill:rgb(248,153,56);fill-rule:nonzero;"/>
        <g transform="matrix(1,0,0,1,4.33431e-13,0.0005)">
            <rect x="0" y="299.999" width="1350" height="300.001" style="fill:white;fill-rule:nonzero;"/>
        </g>
        <rect x="0" y="600" width="1350" height="300" style="fill:rgb(19,137,67);fill-rule:nonzero;"/>
        <g>
            <g transform="matrix(0.24,0,0,0.24,0,0)">
                <path d="M2816.99,1962.39L2827.5,2050L2812.5,2312.5L2797.5,2050L2808.01,1962.39C2803.31,1962.15 2798.7,1961.54 2794.21,1960.59L2781.7,2047.92L2699.27,2297.59L2752.72,2040.15L2785.54,1958.27C2781.09,1956.83 2776.79,1955.04 2772.69,1952.94L2737.99,2034.05L2593.75,2253.89L2712.01,2019.05L2764.92,1948.44C2761.01,1945.91 2757.32,1943.07 2753.88,1939.96L2699.36,2009.35L2503.14,2184.36L2678.15,1988.14L2747.54,1933.62C2744.43,1930.18 2741.59,1926.49 2739.06,1922.58L2668.45,1975.49L2433.61,2093.75L2653.45,1949.51L2734.56,1914.81C2732.46,1910.71 2730.67,1906.41 2729.23,1901.96L2647.35,1934.78L2389.91,1988.23L2639.58,1905.8L2726.91,1893.29C2725.96,1888.8 2725.35,1884.19 2725.11,1879.49L2637.5,1890L2375,1875L2637.5,1860L2725.11,1870.51C2725.35,1865.81 2725.96,1861.2 2726.91,1856.71L2639.58,1844.2L2389.91,1761.77L2647.35,1815.22L2729.23,1848.04C2730.67,1843.59 2732.46,1839.29 2734.56,1835.19L2653.45,1800.49L2433.61,1656.25L2668.45,1774.51L2739.06,1827.42C2741.59,1823.51 2744.43,1819.82 2747.54,1816.38L2678.15,1761.86L2503.14,1565.64L2699.36,1740.65L2753.88,1810.04C2757.32,1806.93 2761.01,1804.09 2764.92,1801.56L2712.01,1730.95L2593.75,1496.11L2737.99,1715.95L2772.69,1797.06C2776.79,1794.96 2781.09,1793.17 2785.54,1791.73L2752.72,1709.85L2699.27,1452.41L2781.7,1702.08L2794.21,1789.41C2798.7,1788.46 2803.31,1787.85 2808.01,1787.61L2797.5,1700L2812.5,1437.5L2827.5,1700L2816.99,1787.61C2821.69,1787.85 2826.3,1788.46 2830.79,1789.41L2843.3,1702.08L2925.73,1452.41L2872.28,1709.85L2839.46,1791.73C2843.91,1793.17 2848.21,1794.96 2852.31,1797.06L2887.01,1715.95L3031.25,1496.11L2912.99,1730.95L2860.08,1801.56C2863.99,1804.09 2867.68,1806.93 2871.12,1810.04L2925.64,1740.65L3121.86,1565.64L2946.85,1761.86L2877.46,1816.38C2880.57,1819.82 2883.41,1823.51 2885.94,1827.42L2956.55,1774.51L3191.39,1656.25L2971.55,1800.49L2890.44,1835.19C2892.54,1839.29 2894.33,1843.59 2895.77,1848.04L2977.66,1815.22L3235.09,1761.77L2985.42,1844.2L2898.09,1856.71C2899.04,1861.2 2899.65,1865.81 2899.89,1870.51L2987.5,1860L3250,1875L2987.5,1890L2899.89,1879.49C2899.65,1884.19 2899.04,1888.8 2898.09,1893.29L2985.42,1905.8L3235.09,1988.23L2977.66,1934.78L2895.77,1901.96C2894.33,1906.41 2892.54,1910.71 2890.44,1914.81L2971.55,1949.51L3191.39,2093.75L2956.55,1975.49L2885.94,1922.58C2883.41,1926.49 2880.57,1930.18 2877.46,1933.62L2946.85,1988.14L3121.86,2184.36L2925.64,2009.35L2871.12,1939.96C2867.68,1943.07 2863.99,1945.91 2860.08,1948.44L2912.99,2019.05L3031.25,2253.89L2887.01,2034.05L2852.31,1952.94C2848.21,1955.04 2843.91,1956.83 2839.46,1958.27L2872.28,2040.15L2925.73,2297.59L2843.3,2047.92L2830.79,1960.59C2826.3,1961.54 2821.69,1962.15 2816.99,1962.39Z" style="fill:rgb(41,43,121);"/>
            </g>
            <g transform="matrix(0.24,0,0,0.24,0,0)">
                <path d="M2812.5,1375C3088.64,1375 3312.5,1598.86 3312.5,1875C3312.5,2151.14 3088.64,2375 2812.5,2375C2536.36,2375 2312.5,2151.14 2312.5,1875C2312.5,1598.86 2536.36,1375 2812.5,1375ZM2777.14,2311.09C2788.81,2312.03 2800.6,2312.5 2812.5,2312.5C2824.4,2312.5 2836.19,2312.03 2847.86,2311.09C2846.59,2299.32 2854.95,2288.62 2866.75,2287.07C2878.57,2285.51 2889.43,2293.7 2891.23,2305.44C2914.71,2301.17 2937.54,2295.03 2959.55,2287.17C2955.22,2276.11 2960.52,2263.55 2971.55,2258.99C2982.58,2254.42 2995.19,2259.53 2999.96,2270.42C3021.38,2260.24 3041.84,2248.38 3061.18,2235C3054.18,2225.44 3056.07,2211.99 3065.52,2204.74C3074.96,2197.49 3088.43,2199.14 3095.86,2208.35C3113.83,2193.06 3130.56,2176.33 3145.85,2158.36C3136.64,2150.93 3134.99,2137.46 3142.24,2128.02C3149.49,2118.57 3162.94,2116.68 3172.5,2123.68C3185.88,2104.34 3197.74,2083.88 3207.92,2062.46C3197.03,2057.7 3191.92,2045.08 3196.49,2034.05C3201.06,2023.03 3213.6,2017.72 3224.67,2022.05C3232.53,2000.04 3238.67,1977.21 3242.94,1953.73C3231.21,1951.93 3223.01,1941.08 3224.57,1929.25C3226.12,1917.44 3236.82,1909.09 3248.59,1910.36C3249.53,1898.69 3250,1886.9 3250,1875C3250,1863.1 3249.53,1851.31 3248.59,1839.64C3236.82,1840.91 3226.12,1832.55 3224.57,1820.75C3223.01,1808.93 3231.2,1798.07 3242.94,1796.27C3238.67,1772.79 3232.53,1749.96 3224.67,1727.95C3213.6,1732.28 3201.06,1726.98 3196.49,1715.94C3191.92,1704.92 3197.03,1692.31 3207.92,1687.54C3197.74,1666.12 3185.88,1645.66 3172.5,1626.33C3162.94,1633.32 3149.49,1631.43 3142.24,1621.98C3134.99,1612.54 3136.64,1599.07 3145.85,1591.64C3130.56,1573.67 3113.83,1556.94 3095.85,1541.65C3088.43,1550.86 3074.96,1552.51 3065.52,1545.26C3056.07,1538.01 3054.18,1524.56 3061.17,1515C3041.84,1501.62 3021.38,1489.76 2999.96,1479.58C2995.2,1490.46 2982.58,1495.58 2971.55,1491.01C2960.53,1486.44 2955.22,1473.9 2959.55,1462.83C2937.54,1454.97 2914.71,1448.83 2891.23,1444.56C2889.43,1456.29 2878.57,1464.49 2866.75,1462.93C2854.95,1461.38 2846.59,1450.68 2847.86,1438.91C2836.19,1437.98 2824.4,1437.5 2812.5,1437.5C2800.6,1437.5 2788.81,1437.98 2777.14,1438.91C2778.41,1450.68 2770.05,1461.38 2758.25,1462.93C2746.43,1464.49 2735.57,1456.3 2733.77,1444.56C2710.29,1448.83 2687.46,1454.97 2665.45,1462.83C2669.78,1473.9 2664.48,1486.44 2653.45,1491.01C2642.42,1495.58 2629.8,1490.46 2625.04,1479.58C2603.62,1489.76 2583.16,1501.62 2563.83,1515C2570.82,1524.56 2568.93,1538.01 2559.48,1545.26C2550.04,1552.51 2536.57,1550.86 2529.14,1541.65C2511.17,1556.94 2494.44,1573.67 2479.15,1591.64C2488.36,1599.08 2490.01,1612.54 2482.76,1621.98C2475.51,1631.43 2462.06,1633.32 2452.5,1626.33C2439.12,1645.66 2427.26,1666.12 2417.08,1687.54C2427.97,1692.31 2433.08,1704.92 2428.51,1715.95C2423.95,1726.98 2411.4,1732.29 2400.33,1727.95C2392.47,1749.96 2386.33,1772.79 2382.06,1796.27C2393.79,1798.07 2401.99,1808.92 2400.43,1820.75C2398.88,1832.56 2388.18,1840.91 2376.41,1839.64C2375.47,1851.31 2375,1863.1 2375,1875C2375,1886.9 2375.47,1898.69 2376.41,1910.36C2388.18,1909.09 2398.88,1917.45 2400.43,1929.25C2401.99,1941.07 2393.8,1951.93 2382.06,1953.73C2386.33,1977.21 2392.47,2000.04 2400.33,2022.05C2411.4,2017.72 2423.95,2023.02 2428.51,2034.06C2433.08,2045.08 2427.97,2057.7 2417.08,2062.46C2427.26,2083.88 2439.12,2104.34 2452.5,2123.68C2462.06,2116.68 2475.51,2118.57 2482.76,2128.02C2490.01,2137.46 2488.36,2150.93 2479.15,2158.36C2494.44,2176.33 2511.17,2193.06 2529.15,2208.35C2536.58,2199.14 2550.04,2197.49 2559.48,2204.74C2568.93,2211.99 2570.82,2225.44 2563.83,2235C2583.16,2248.38 2603.62,2260.24 2625.04,2270.42C2629.8,2259.53 2642.42,2254.42 2653.45,2258.99C2664.47,2263.55 2669.78,2276.1 2665.45,2287.17C2687.46,2295.03 2710.29,2301.17 2733.77,2305.44C2735.57,2293.71 2746.43,2285.51 2758.25,2287.07C2770.05,2288.62 2778.41,2299.32 2777.14,2311.09Z" style="fill:rgb(41,43,121);"/>
            </g>
        </g>
    </g>
</svg>
