<?xml version="1.0" encoding="utf-8"?>
<!-- Generator: Adobe Illustrator 19.1.0, SVG Export Plug-In . SVG Version: 6.00 Build 0)  -->
<svg version="1.1" id="Layer_1" xmlns="http://www.w3.org/2000/svg" xmlns:xlink="http://www.w3.org/1999/xlink" x="0px" y="0px"
	 viewBox="369 -54 1350 900" style="enable-background:new 369 -54 1350 900;" xml:space="preserve">
<style type="text/css">
	.st0{fill:#F89838;}
	.st1{fill:#FFFFFF;}
	.st2{fill:#1A8943;}
	.st3{fill:#2A2B79;}
</style>
<rect x="369" y="-54" class="st0" width="1350" height="900"/>
<rect x="369" y="246" class="st1" width="1350" height="300"/>
<rect x="369" y="546" class="st2" width="1350" height="300"/>
<g>
	<circle class="st3" cx="931.5" cy="321" r="120"/>
	<circle class="st1" cx="931.5" cy="321" r="105"/>
	<circle class="st3" cx="931.5" cy="321" r="21"/>
	<g>
		<g>
			<g id="b">
				<g id="a">
					<circle class="st3" cx="1035.6" cy="334.7" r="5.2"/>
					<path class="st3" d="M931.5,426l3.6-63l-3.6-30l-3.6,30L931.5,426z"/>
				</g>
				<g transform="rotate(15)">
					<g id="a_1_">
						<circle class="st3" cx="1028.5" cy="361.2" r="5.2"/>
						<path class="st3" d="M904.3,422.4l19.8-59.9l4.3-29.9l-11.2,28L904.3,422.4z"/>
					</g>
				</g>
			</g>
			<g id="c">
				<g id="b_1_">
					<g id="a_2_">
						<circle class="st3" cx="1014.8" cy="384.9" r="5.2"/>
						<path class="st3" d="M879,411.9l34.6-52.8l11.9-27.8l-18.1,24.2L879,411.9z"/>
					</g>
					<g transform="rotate(30)">
						<g id="a_3_">
							<circle class="st3" cx="995.4" cy="404.3" r="5.2"/>
							<path class="st3" d="M857.3,395.2l47.1-42l18.7-23.8l-23.8,18.7L857.3,395.2z"/>
						</g>
					</g>
				</g>
			</g>
			<g>
				<g id="d">
					<g id="b_2_">
						<g id="a_4_">
							<circle class="st3" cx="971.7" cy="418" r="5.2"/>
							<path class="st3" d="M840.6,373.5l56.4-28.4l24.2-18.1l-27.8,11.9L840.6,373.5z"/>
						</g>
						<g transform="rotate(15)">
							<g id="a_5_">
								<circle class="st3" cx="945.2" cy="425.1" r="5.2"/>
								<path class="st3" d="M830.1,348.2l61.8-12.8l28-11.2l-29.9,4.3L830.1,348.2z"/>
							</g>
						</g>
					</g>
					<g id="c_1_">
						<g id="b_3_">
							<g id="a_6_">
								<circle class="st3" cx="917.8" cy="425.1" r="5.2"/>
								<path class="st3" d="M826.5,321l63,3.6l30-3.6l-30-3.6L826.5,321z"/>
							</g>
							<g transform="rotate(60)">
								<g id="a_7_">
									<circle class="st3" cx="891.3" cy="418" r="5.2"/>
									<path class="st3" d="M830.1,293.8l59.9,19.8l29.9,4.3l-28-11.2L830.1,293.8z"/>
								</g>
							</g>
						</g>
					</g>
				</g>
				<g>
					<g>
						<g>
							<g id="b_4_">
								<g id="a_8_">
									<circle class="st3" cx="867.6" cy="404.3" r="5.2"/>
									<path class="st3" d="M840.6,268.5l52.8,34.6l27.8,11.9l-24.2-18.1L840.6,268.5z"/>
								</g>
								<g transform="rotate(15)">
									<g id="a_9_">
										<circle class="st3" cx="848.2" cy="384.9" r="5.2"/>
										<path class="st3" d="M857.3,246.8l42,47.1l23.8,18.7l-18.7-23.8L857.3,246.8z"/>
									</g>
								</g>
							</g>
							<g id="c_2_">
								<g id="b_5_">
									<g id="a_10_">
										<circle class="st3" cx="834.5" cy="361.2" r="5.2"/>
										<path class="st3" d="M879,230.1l28.4,56.4l18.1,24.2l-11.9-27.8L879,230.1z"/>
									</g>
									<g transform="rotate(30)">
										<g id="a_11_">
											<circle class="st3" cx="827.4" cy="334.7" r="5.2"/>
											<path class="st3" d="M904.3,219.6l12.8,61.8l11.2,28l-4.3-29.9L904.3,219.6z"/>
										</g>
									</g>
								</g>
							</g>
							<g>
								<g id="d_1_">
									<g id="b_6_">
										<g id="a_12_">
											<circle class="st3" cx="827.4" cy="307.3" r="5.2"/>
											<path class="st3" d="M931.5,216l-3.6,63l3.6,30l3.6-30L931.5,216z"/>
										</g>
										<g transform="rotate(15)">
											<g id="a_13_">
												<circle class="st3" cx="834.5" cy="280.8" r="5.2"/>
												<path class="st3" d="M958.7,219.6l-19.8,59.9l-4.3,29.9l11.2-28L958.7,219.6z"/>
											</g>
										</g>
									</g>
									<g id="c_3_">
										<g id="b_7_">
											<g id="a_14_">
												<circle class="st3" cx="848.2" cy="257.1" r="5.2"/>
												<path class="st3" d="M984,230.1l-34.6,52.8l-11.9,27.8l18.1-24.2L984,230.1z"/>
											</g>
											<g transform="rotate(120)">
												<g id="a_15_">
													<circle class="st3" cx="867.6" cy="237.7" r="5.2"/>
													<path class="st3" d="M1005.7,246.8l-47.1,42L940,312.5l23.8-18.7L1005.7,246.8z"/>
												</g>
											</g>
										</g>
									</g>
								</g>
								<g>
									<g>
										<g>
											<g id="b_8_">
												<g id="a_16_">
													<circle class="st3" cx="891.3" cy="224" r="5.2"/>
													<path class="st3" d="M1022.4,268.5l-56.4,28.4L941.9,315l27.8-11.9L1022.4,268.5z"/>
												</g>
												<g transform="rotate(15)">
													<g id="a_17_">
														<circle class="st3" cx="917.8" cy="216.9" r="5.2"/>
														<path class="st3" d="M1032.9,293.8l-61.8,12.8l-28,11.2l29.9-4.3L1032.9,293.8z"/>
													</g>
												</g>
											</g>
											<g id="c_4_">
												<g id="b_9_">
													<g id="a_18_">
														<circle class="st3" cx="945.2" cy="216.9" r="5.2"/>
														<path class="st3" d="M1036.5,321l-63-3.6l-30,3.6l30,3.6L1036.5,321z"/>
													</g>
													<g transform="rotate(30)">
														<g id="a_19_">
															<circle class="st3" cx="971.7" cy="224" r="5.2"/>
															<path class="st3" d="M1032.9,348.2L973,328.4l-29.9-4.3l28,11.2L1032.9,348.2z"/>
														</g>
													</g>
												</g>
											</g>
											<g transform="translate(112.5,75)">
												<g id="d_2_">
													<g id="b_10_">
														<g id="a_20_">
															<circle class="st3" cx="995.4" cy="237.7" r="5.2"/>
															<path class="st3" d="M1022.4,373.5l-52.8-34.6L941.9,327l24.2,18.1L1022.4,373.5z"/>
														</g>
														<g transform="rotate(15)">
															<g id="a_21_">
																<circle class="st3" cx="1014.8" cy="257.1" r="5.2"/>
																<path class="st3" d="M1005.7,395.2l-42-47.1L940,329.5l18.7,23.8L1005.7,395.2z"/>
															</g>
														</g>
													</g>
													<g id="c_5_">
														<g id="b_11_">
															<g id="a_22_">
																<circle class="st3" cx="1028.5" cy="280.8" r="5.2"/>
																<path class="st3" d="M984,411.9l-28.4-56.4l-18.1-24.2l11.9,27.8L984,411.9z"/>
															</g>
															<g transform="rotate(-120)">
																<g id="a_23_">
																	<circle class="st3" cx="1035.6" cy="307.3" r="5.2"/>
																	<path class="st3" d="M958.7,422.4l-12.8-61.8l-11.2-28l4.3,29.9L958.7,422.4z"/>
																</g>
															</g>
														</g>
													</g>
												</g>
											</g>
										</g>
									</g>
								</g>
							</g>
						</g>
					</g>
				</g>
			</g>
		</g>
	</g>
</g>
</svg>
