<?xml version="1.0" standalone="no"?>
<!DOCTYPE svg PUBLIC "-//W3C//DTD SVG 1.1//EN" "http://www.w3.org/Graphics/SVG/1.1/DTD/svg11.dtd">
<svg width="100%" height="100%" viewBox="0 0 3750 2500" version="1.1" xmlns="http://www.w3.org/2000/svg" xmlns:xlink="http://www.w3.org/1999/xlink" xml:space="preserve" style="fill-rule:evenodd;clip-rule:evenodd;stroke-miterlimit:10;">
    <g id="Layer 1" transform="matrix(4.16667,0,0,4.16667,0,0)">
        <g transform="matrix(1,0,0,1,120,80)">
            <rect x="0" y="0" width="780" height="520" style="fill:white;fill-rule:nonzero;"/>
        </g>
        <g transform="matrix(1.15385,0,0,1,-2.84217e-14,80)">
            <rect x="0" y="340" width="780" height="180" style="fill:rgb(20,103,52);fill-rule:nonzero;"/>
        </g>
        <g transform="matrix(1.15385,0,0,1,-2.84217e-14,-340.036)">
            <rect x="0" y="340" width="780" height="180" style="fill:rgb(3,4,4);fill-rule:nonzero;"/>
        </g>
        <g transform="matrix(1,0,0,1,120,80)">
            <path d="M222.829,398.125L229.324,401.875L404.497,98.466C414.742,95.721 420.367,85.978 425.992,76.236C429.742,69.74 444.742,43.76 451.243,10C425.257,32.51 410.257,58.49 406.507,64.986C400.882,74.728 395.257,84.471 398.002,94.716L222.829,398.125Z" style="fill:rgb(3,4,4);fill-rule:nonzero;stroke-width:1px;stroke:rgb(3,4,4);"/>
        </g>
        <g transform="matrix(1,0,0,1,120,80)">
            <path d="M437.171,398.125L430.676,401.875L255.503,98.466C245.258,95.721 239.633,85.978 234.008,76.236C230.258,69.74 215.258,43.76 208.757,10C234.743,32.51 249.743,58.49 253.493,64.986C259.118,74.728 264.743,84.471 261.998,94.716L437.171,398.125Z" style="fill:rgb(3,4,4);fill-rule:nonzero;stroke-width:1px;stroke:rgb(3,4,4);"/>
        </g>
        <g>
            <g transform="matrix(1,0,0,1,120,80)">
                <path d="M222.829,398.125L229.324,401.875L404.497,98.466C414.742,95.721 420.367,85.978 425.992,76.236C429.742,69.74 444.742,43.76 451.243,10C425.257,32.51 410.257,58.49 406.507,64.986C400.882,74.728 395.257,84.471 398.002,94.716L222.829,398.125Z" style="fill:white;fill-rule:nonzero;"/>
            </g>
            <g transform="matrix(1,0,0,1,120,80)">
                <path d="M437.171,398.125L430.676,401.875L255.503,98.466C245.258,95.721 239.633,85.978 234.008,76.236C230.258,69.74 215.258,43.76 208.757,10C234.743,32.51 249.743,58.49 253.493,64.986C259.118,74.728 264.743,84.471 261.998,94.716L437.171,398.125Z" style="fill:white;fill-rule:nonzero;"/>
            </g>
        </g>
        <g transform="matrix(1,0,0,1,120,80)">
            <path d="M-120,130L-120,310L258.75,310C270,340 307.5,400 330,400C352.5,400 390,340 401.25,310L780,310L780,130L401.25,130C390,100 352.5,40 330,40C307.5,40 270,100 258.75,130L-120,130Z" style="fill:rgb(186,31,37);fill-rule:nonzero;"/>
        </g>
        <g>
            <g transform="matrix(1,0,0,1,120,80)">
                <path d="M401.25,310C412.5,280 420,250 420,220C420,190 412.5,160 401.25,130C390,160 382.5,190 382.5,220C382.5,250 390,280 401.25,310" style="fill:rgb(3,4,4);fill-rule:nonzero;"/>
            </g>
            <g transform="matrix(1,0,0,1,120,80)">
                <path d="M258.75,310C247.5,280 240,250 240,220C240,190 247.5,160 258.75,130C270,160 277.5,190 277.5,220C277.5,250 270,280 258.75,310" style="fill:rgb(3,4,4);fill-rule:nonzero;"/>
            </g>
            <g transform="matrix(1,0,0,1,120,80)">
                <path d="M330,197.5C338.284,197.5 345,207.574 345,220C345,232.426 338.284,242.5 330,242.5C321.716,242.5 315,232.426 315,220C315,207.574 321.716,197.5 330,197.5" style="fill:white;fill-rule:nonzero;"/>
            </g>
            <g transform="matrix(1,0,0,1,120,80)">
                <path d="M333.75,241.938C333.75,241.938 348.75,271.938 348.75,320.688C348.75,369.438 333.75,399.438 333.75,399.438L333.75,241.938Z" style="fill:white;fill-rule:nonzero;"/>
            </g>
            <g transform="matrix(1,0,0,1,120,80)">
                <path d="M326.25,198.063C326.25,198.063 311.25,168.063 311.25,119.313C311.25,70.563 326.25,40.563 326.25,40.563L326.25,198.063Z" style="fill:white;fill-rule:nonzero;"/>
            </g>
            <g transform="matrix(1,0,0,1,120,80)">
                <path d="M326.25,241.938C326.25,241.938 311.25,271.938 311.25,320.688C311.25,369.438 326.25,399.438 326.25,399.438L326.25,241.938Z" style="fill:white;fill-rule:nonzero;"/>
            </g>
            <g transform="matrix(1,0,0,1,120,80)">
                <path d="M333.75,198.063C333.75,198.063 348.75,168.063 348.75,119.313C348.75,70.563 333.75,40.563 333.75,40.563L333.75,198.063Z" style="fill:white;fill-rule:nonzero;"/>
            </g>
        </g>
    </g>
</svg>
