<svg viewBox="0 0 3750 2500" xmlns="http://www.w3.org/2000/svg" fill-rule="evenodd" clip-rule="evenodd" stroke-miterlimit="10"><path fill="#fff" fill-rule="nonzero" d="M500 333.334h3250.003v2166.668H500z"/><path fill="#146734" fill-rule="nonzero" d="M0 1750h3750.016v750.002H0z"/><path fill="#030404" fill-rule="nonzero" d="M0-.15h3750.016v750H0z"/><path d="M1428.455 1992.19l27.063 15.624L2185.406 743.61c42.687-11.44 66.125-52.034 89.562-92.626 15.625-27.067 78.126-135.317 105.213-275.984-108.274 93.792-170.774 202.042-186.4 229.11-23.437 40.59-46.874 81.186-35.437 123.874L1428.455 1992.19z" fill="#030404" fill-rule="nonzero" stroke="#030404" stroke-width="4.16667"/><path d="M2321.548 1992.19l-27.063 15.624L1564.597 743.61c-42.687-11.44-66.125-52.034-89.562-92.626-15.625-27.067-78.126-135.317-105.213-275.984 108.275 93.792 170.775 202.042 186.4 229.11 23.438 40.59 46.875 81.186 35.438 123.874l729.888 1264.205z" fill="#030404" fill-rule="nonzero" stroke="#030404" stroke-width="4.16667"/><path d="M1428.455 1992.19l27.063 15.624L2185.406 743.61c42.687-11.44 66.125-52.034 89.562-92.626 15.625-27.067 78.126-135.317 105.213-275.984-108.274 93.792-170.774 202.042-186.4 229.11-23.437 40.59-46.874 81.186-35.437 123.874L1428.455 1992.19z" fill="#fff" fill-rule="nonzero"/><path d="M2321.548 1992.19l-27.063 15.624L1564.597 743.61c-42.687-11.44-66.125-52.034-89.562-92.626-15.625-27.067-78.126-135.317-105.213-275.984 108.275 93.792 170.775 202.042 186.4 229.11 23.438 40.59 46.875 81.186 35.438 123.874l729.888 1264.205z" fill="#fff" fill-rule="nonzero"/><path d="M0 875v750h1578.126C1625 1750 1781.25 2000.003 1875 2000.003c93.752 0 250.002-250 296.877-375h1578.126V875H2171.877C2125.002 750 1968.752 500 1875 500c-93.75 0-250 250-296.874 375H0z" fill="#BA1F25" fill-rule="nonzero"/><g><path d="M2171.877 1625c46.875-125 78.125-250 78.125-375s-31.25-250-78.125-375c-46.875 125-78.125 250-78.125 375s31.25 250 78.125 375M1578.126 1625C1531.25 1500 1500 1375 1500 1250s31.25-250 78.126-375c46.875 125 78.125 250 78.125 375s-31.25 250-78.124 375" fill="#030404" fill-rule="nonzero"/><path d="M1875 1156.25c34.518 0 62.502 41.976 62.502 93.75 0 51.776-27.984 93.75-62.5 93.75-34.517 0-62.5-41.974-62.5-93.75 0-51.774 27.983-93.75 62.5-93.75" fill="#fff" fill-rule="nonzero"/><path d="M1890.627 1341.41s62.5 125 62.5 328.125-62.5 328.125-62.5 328.125v-656.25zM1859.376 1158.597s-62.5-125-62.5-328.126c0-203.124 62.5-328.124 62.5-328.124v656.25zM1859.376 1341.41s-62.5 125-62.5 328.125 62.5 328.125 62.5 328.125v-656.25zM1890.627 1158.597s62.5-125 62.5-328.126c0-203.124-62.5-328.124-62.5-328.124v656.25z" fill="#fff" fill-rule="nonzero"/></g></svg>