<svg width="900" height="601" viewBox="0 0 900 601" xmlns="http://www.w3.org/2000/svg"><title>Kenya</title><g fill="none" fill-rule="evenodd"><path d="M120 601h780V81H120v520z" fill="#FFF"/><path d="M0 601h900V421H0v180z" fill="#1C5C31"/><path d="M0 180.964h900v-180H0v180z" fill="#0A0A08"/><path d="M342.83 479.125l6.494 3.75 175.173-303.41c10.245-2.744 15.87-12.487 21.495-22.23 3.75-6.495 18.75-32.475 25.25-66.235-25.985 22.51-40.985 48.49-44.735 54.986-5.625 9.742-11.25 19.485-8.505 29.73L342.83 479.126z" fill="#0A0A08"/><path d="M342.83 479.125l6.494 3.75 175.173-303.41c10.245-2.744 15.87-12.487 21.495-22.23 3.75-6.495 18.75-32.475 25.25-66.235-25.985 22.51-40.985 48.49-44.735 54.986-5.625 9.742-11.25 19.485-8.505 29.73L342.83 479.126z" stroke="#0A0A08"/><path d="M557.17 479.125l-6.494 3.75-175.173-303.41c-10.245-2.744-15.87-12.487-21.495-22.23-3.75-6.495-18.75-32.475-25.25-66.235 25.985 22.51 40.985 48.49 44.735 54.986 5.625 9.742 11.25 19.485 8.505 29.73l175.173 303.41z" fill="#0A0A08"/><path d="M557.17 479.125l-6.494 3.75-175.173-303.41c-10.245-2.744-15.87-12.487-21.495-22.23-3.75-6.495-18.75-32.475-25.25-66.235 25.985 22.51 40.985 48.49 44.735 54.986 5.625 9.742 11.25 19.485 8.505 29.73l175.173 303.41z" stroke="#0A0A08"/><path d="M342.83 479.125l6.494 3.75 175.173-303.41c10.245-2.744 15.87-12.487 21.495-22.23 3.75-6.495 18.75-32.475 25.25-66.235-25.985 22.51-40.985 48.49-44.735 54.986-5.625 9.742-11.25 19.485-8.505 29.73L342.83 479.126" fill="#FFF"/><path d="M557.17 479.125l-6.494 3.75-175.173-303.41c-10.245-2.744-15.87-12.487-21.495-22.23-3.75-6.495-18.75-32.475-25.25-66.235 25.985 22.51 40.985 48.49 44.735 54.986 5.625 9.742 11.25 19.485 8.505 29.73l175.173 303.41" fill="#FFF"/><path d="M0 211v180h378.75C390 421 427.5 481 450 481s60-60 71.25-90H900V211H521.25C510 181 472.5 121 450 121s-60 60-71.25 90H0" fill="#A82529"/><path d="M521.25 391C532.5 361 540 331 540 301s-7.5-60-18.75-90c-11.25 30-18.75 60-18.75 90s7.5 60 18.75 90M378.75 391C367.5 361 360 331 360 301s7.5-60 18.75-90c11.25 30 18.75 60 18.75 90s-7.5 60-18.75 90" fill="#0A0A08"/><path d="M450 278.5c8.284 0 15 10.074 15 22.5s-6.716 22.5-15 22.5c-8.284 0-15-10.074-15-22.5s6.716-22.5 15-22.5" fill="#FFF"/><path d="M453.75 322.937s15 30 15 78.75-15 78.75-15 78.75v-157.5M446.25 279.062s-15-30-15-78.75 15-78.75 15-78.75v157.5M446.25 322.937s-15 30-15 78.75 15 78.75 15 78.75v-157.5M453.75 279.062s15-30 15-78.75-15-78.75-15-78.75v157.5" fill="#FFF"/></g></svg>