<?xml version="1.0" encoding="utf-8"?>
<!-- Generator: Adobe Illustrator 19.1.0, SVG Export Plug-In . SVG Version: 6.00 Build 0)  -->
<svg version="1.1" id="Layer_1" xmlns="http://www.w3.org/2000/svg" xmlns:xlink="http://www.w3.org/1999/xlink" x="0px" y="0px"
	 viewBox="144 97 900 600" style="enable-background:new 144 97 900 600;" xml:space="preserve">
<style type="text/css">
	.st0{fill:#009548;}
	.st1{fill:#FFFFFF;}
	.st2{fill:#283890;}
	.st3{stroke:#000000;}
	.st4{fill:none;stroke:#000000;stroke-width:5;}
</style>
<rect x="144" y="97" class="st0" width="900" height="600"/>
<rect x="144" y="97" class="st1" width="900" height="420"/>
<rect x="144" y="97" class="st2" width="900" height="180"/>
<g>
	<path class="st3" d="M593.5,288.1c-3.4,0.1-6.8,3.9-6.8,3.9l0.3,40.5l-12.8,13.4h10.3l-0.1,23.2l-61.2,82.4l-9-3.1L498.5,482
		c0,0,39.1,24.5,95.9,23.8c62.3-0.7,96.1-24.9,96.1-24.9l-16.3-33.3l-8,3.5l-62-82l-0.1-23.9h10.3L600.4,332l0.1-40.3
		C600.4,291.7,596.9,288.1,593.5,288.1L593.5,288.1z"/>
	<path class="st4" d="M614.9,385h-42.3c0,0-15.4-32.4-12.9-55c2.5-23,15.7-33.9,33.2-34.1c20.7-0.2,31.5,10.1,34.8,33.2
		C630.9,352,614.9,385,614.9,385L614.9,385z"/>
	<path class="st1" d="M519.6,462.1c-0.7,0.9-5.8,11.1-5.8,11.1l8.8-1.8L519.6,462.1L519.6,462.1z"/>
	<path class="st1" d="M524.6,475.3l-9.2,3l11.1,4.4L524.6,475.3L524.6,475.3z"/>
	<path class="st1" d="M528.8,462.4l4.6,13.6l11.3-3.2l-3-6.5L528.8,462.4z"/>
	<path class="st1" d="M535.9,480.8l1.6,5.5l15,3.7l-6-12.7L535.9,480.8L535.9,480.8z"/>
	<path class="st1" d="M552.5,469.3l5.3,12.7l11.3-4.4l-3.7-5.5L552.5,469.3z"/>
	<path class="st1" d="M559.9,486.6l1.8,4.8l17.5,2.5l-7.4-11.5L559.9,486.6L559.9,486.6z"/>
	<path class="st1" d="M576.7,473l6.5,11.3l16.4-6l-1.8-4.4L576.7,473L576.7,473z"/>
	<path class="st1" d="M586.2,488.4l3.5,6l20.3-0.7l-7.6-11.3L586.2,488.4L586.2,488.4z"/>
	<path class="st1" d="M607.6,473.4l5.5,9.5l12.9-6.2l-3.5-5.1L607.6,473.4L607.6,473.4z"/>
	<path class="st1" d="M628.8,480.6l-12.9,6.5l3.5,5.5l17.3-2.8L628.8,480.6L628.8,480.6z"/>
	<path class="st1" d="M633,470.7l6.7,8.3l10.8-8.5l-3.7-3.9L633,470.7L633,470.7z"/>
	<path class="st1" d="M652.8,475l-10.4,7.8l2.8,4.8l14.3-3.7L652.8,475L652.8,475z"/>
	<path class="st1" d="M667.1,458.7l2.5,3.7l-7.1,10.6l-7.4-9.5L667.1,458.7L667.1,458.7z"/>
	<path class="st1" d="M672,467.9l4.4,8.8l-8.8,3l-0.7-4.1L672,467.9L672,467.9z"/>
</g>
</svg>
