<svg viewBox="0 0 3750 2500" xmlns="http://www.w3.org/2000/svg" fill-rule="evenodd" clip-rule="evenodd" stroke-linejoin="round" stroke-miterlimit="1.414"><path fill="#0B9648" fill-rule="nonzero" d="M0 0h3750.003v2500.002H0z"/><path fill="#fff" fill-rule="nonzero" d="M0 0h3750.003v1750H0z"/><path fill="#283891" fill-rule="nonzero" d="M0 0h3750.003v750H0z"/><path d="M1842.5 1630.92l14.41 24.97 84.522-2.88-31.69-47.07-67.24 24.98zm-109.5-7.67l7.68 20.17 73 10.57-30.73-48.03-49.95 17.29zm287.172-25l-53.79 26.9 14.4 23.05 72.04-11.53-32.65-38.42zm-387.09 1l6.73 23.05 62.43 15.37-24.97-52.83-44.19 14.41zm487-24.08l-43.22 32.66 11.53 20.17 59.55-15.37-27.86-37.46zm-317-8.59l26.9 47.07 68.19-24.98-7.68-18.25-87.41-3.84zm128.75 1.92l23.06 39.38 53.78-25.93-14.4-21.13-62.44 7.68zm-345.83 7.67l-38.42 12.48 46.1 18.25-7.68-30.73zm116.25-25l22.09 52.83 47.07-18.25-15.37-23.06-53.79-11.52zm497.58-5.75l18.25 36.5-36.5 12.48-2.88-17.29 21.13-31.69zm-162.33 11.5l27.85 34.58 45.15-35.55-15.37-16.33-57.63 17.3zm-434.17-34.59l19.22 56.67 47.06-13.44-12.49-26.9-53.79-16.33zm-38.41-.91c-2.89 3.84-24.02 46.1-24.02 46.1l36.5-7.68-12.48-38.42zm614.75-14.42l10.56 15.37-29.78 44.18-30.73-39.38 49.95-20.17zm-207.51-304.12l204.12 269.97 33.66-14.63 69.72 142.08c-.63.44-1.25.89-1.88 1.32-2.32 1.61-4.69 3.14-7.08 4.64-3.27 2.05-6.58 4.04-9.91 5.98-8.36 4.86-16.88 9.42-25.51 13.76-11.31 5.68-22.82 10.97-34.46 15.93-12.89 5.49-25.94 10.56-39.13 15.26-19.39 6.9-39.06 12.99-58.94 18.33-21.66 5.81-43.57 10.73-65.62 14.8-35.54 6.56-71.48 10.92-107.54 13.28-11.16.73-22.34 1.26-33.51 1.61-8.38.26-16.75.42-25.13.47-1.38 0-2.76.01-4.14.01-2.28 0-4.57-.01-6.86-.03-4.53-.04-9.07-.12-13.6-.23-14.98-.38-29.94-1.17-44.88-2.38-41.36-3.33-82.47-9.8-122.88-19.25-29.72-6.95-59.07-15.51-87.86-25.67-8.25-2.92-16.46-5.96-24.61-9.14-4.14-1.62-8.26-3.26-12.36-4.95-11.33-4.65-22.55-9.55-33.63-14.76-8.53-4.01-16.98-8.2-25.32-12.6-3.46-1.83-6.91-3.7-10.32-5.62-2.6-1.47-5.19-2.95-7.74-4.5l-.27-.17-.36-.22-1.7-1.05 67.45-143.88 38.02 13.13 197.91-266.5c-.59-1.25-1.19-2.51-1.78-3.76-1.84-3.95-3.6-7.93-5.33-11.93-2.34-5.4-4.61-10.83-6.81-16.28-5.49-13.59-10.61-27.33-15.33-41.21-5.29-15.54-10.07-31.26-14.19-47.15-2.04-7.85-3.91-15.74-5.59-23.67-1.56-7.41-2.96-14.85-4.14-22.33-2.05-12.96-3.48-26.03-3.97-39.14-.31-8.273-.24-16.566.33-24.826.14-1.972.31-3.943.5-5.91.2-1.94.42-3.88.66-5.814.57-4.512 1.23-9.01 2.02-13.49.51-2.89 1.07-5.77 1.68-8.64 3.67-17.212 9.24-34.093 17.37-49.732 1.07-2.062 2.18-4.1 3.34-6.113 1.52-2.634 3.12-5.223 4.79-7.762 2.04-3.105 4.21-6.133 6.48-9.07 2.85-3.675 5.89-7.21 9.09-10.575 4.99-5.238 10.41-10.068 16.2-14.41 5.6-4.198 11.53-7.936 17.73-11.178 6.08-3.184 12.41-5.888 18.91-8.116 6.18-2.122 12.52-3.81 18.93-5.094 1.38-.275 2.75-.532 4.14-.77l-.07-9.185c.24-.265.47-.53.71-.794.94-1.028 1.93-2.02 2.94-2.98 1.07-1.01 2.16-1.99 3.29-2.934 2.76-2.317 5.7-4.438 8.84-6.213 2.03-1.15 4.16-2.153 6.36-2.923 1.84-.64 3.74-1.12 5.67-1.365.73-.093 1.47-.15 2.2-.174l2.31-.06v.128c.21.015.42.034.63.054.73.074 1.45.175 2.17.308 1.79.33 3.54.838 5.25 1.47 2.06.765 4.05 1.712 5.98 2.778.9.5 1.78 1.024 2.65 1.573 2.46 1.55 4.8 3.276 7.04 5.13.85.708 1.69 1.435 2.51 2.182.68.616 1.34 1.244 1.98 1.895l.64.657-.02 10.086c8.94 1.286 17.77 3.233 26.37 6.012 1.95.63 3.88 1.303 5.8 2.02 8.28 3.09 16.25 7.01 23.68 11.784 3.54 2.273 6.96 4.737 10.23 7.38 3.72 3.003 7.26 6.237 10.59 9.67 2.67 2.76 5.21 5.65 7.62 8.648 1.72 2.143 3.37 4.342 4.95 6.59 1.18 1.678 2.32 3.384 3.43 5.115 7.83 12.264 13.73 25.683 18.25 39.494.78 2.408 1.53 4.83 2.23 7.262.93 3.168 1.78 6.355 2.57 9.556 1 4.015 1.91 8.052 2.73 12.106.97 4.78 1.82 9.584 2.57 14.403.37 2.314.71 4.63 1.02 6.95.21 1.595.4 3.192.56 4.792.73 6.91 1.06 13.855 1.1 20.8.03 7.32-.26 14.64-.83 21.94-.54 6.99-1.32 13.97-2.3 20.91-1.19 8.46-2.68 16.88-4.4 25.25-1.57 7.67-3.34 15.3-5.27 22.89-2.32 9.14-4.88 18.21-7.63 27.23-2.8 9.14-5.79 18.22-8.96 27.23-2.71 7.7-5.55 15.35-8.5 22.95-3.68 9.46-7.55 18.85-11.61 28.16h.66l-6.61 13.21zm-180.2-14.07l41.53-55.94.36-93.91h-45.87l56.01-58.68-1.01-138.222c-8.15 1.62-16.16 3.995-23.82 7.213-4.56 1.916-9 4.127-13.27 6.63-4.16 2.435-8.15 5.146-11.95 8.112-6.17 4.82-11.8 10.31-16.83 16.308-1.77 2.112-3.47 4.286-5.08 6.515-1.29 1.763-2.52 3.56-3.71 5.39-1 1.538-1.97 3.098-2.9 4.676-7.11 12.008-12.32 25.076-16.08 38.495-2.46 8.77-4.3 17.71-5.65 26.716-.36 2.456-.7 4.915-.99 7.38-.24 1.938-.45 3.88-.63 5.825-.29 3.2-.49 6.41-.61 9.624-.31 8.226-.11 16.47.44 24.68.63 9.2 1.71 18.37 3.12 27.48 1.94 12.47 4.49 24.85 7.47 37.11 3.29 13.57 7.12 27.01 11.36 40.32 4.31 13.58 9.04 27.02 14.13 40.32 4.32 11.28 8.89 22.46 13.78 33.51l.2.45zm165.9-4.86c2.85-6.44 5.6-12.94 8.26-19.47 2.74-6.73 5.37-13.51 7.91-20.32 2.94-7.88 5.74-15.81 8.39-23.79 3.03-9.11 5.87-18.28 8.47-27.51 2.19-7.73 4.21-15.51 6.04-23.32 1.76-7.53 3.34-15.09 4.71-22.7 1.28-7.15 2.37-14.34 3.21-21.55.76-6.46 1.32-12.95 1.64-19.44.45-9.197.41-18.427-.35-27.605-.19-2.323-.42-4.642-.71-6.954-.2-1.603-.43-3.203-.67-4.802-.32-2.14-.65-4.276-1.01-6.41-1.3-7.685-2.87-15.327-4.81-22.877-.82-3.203-1.71-6.39-2.68-9.555-.75-2.46-1.54-4.905-2.38-7.333-.68-1.934-1.38-3.857-2.12-5.767-4.28-11.09-9.71-21.796-16.72-31.422-1-1.37-2.03-2.718-3.09-4.04-1.56-1.944-3.19-3.833-4.88-5.66-4.49-4.83-9.46-9.21-14.84-13.03-4.65-3.308-9.61-6.192-14.76-8.646-4.98-2.367-10.14-4.337-15.4-5.95-5.96-1.825-12.05-3.197-18.2-4.2l-.28 136.783 61.82 58.05h-46.27l.36 96.79 38.36 50.73z" fill="#030404"/></svg>