<svg width="900" height="600" viewBox="0 0 900 600" xmlns="http://www.w3.org/2000/svg"><title>Lesotho</title><g fill="none" fill-rule="evenodd"><path d="M0 600h900V0H0v600z" fill="#0C8B44"/><path d="M0 420h900V0H0v420z" fill="#FFF"/><path d="M0 180h900V0H0v180z" fill="#273279"/><path d="M442.2 391.42l3.458 5.994 20.286-.692-7.607-11.296-16.137 5.994zm-26.28-1.84l1.844 4.84 17.52 2.537-7.377-11.527-11.987 4.15zm68.92-6l-12.91 6.455 3.458 5.532 17.29-2.766-7.838-9.22zm-92.9.24l1.614 5.533 14.984 3.688-5.994-12.678-10.604 3.458zm116.88-5.78l-10.374 7.838 2.767 4.84 14.292-3.687-6.685-8.99zm-76.08-2.06l6.455 11.296 16.367-5.994-1.844-4.38-20.978-.922zm30.9.46l5.533 9.452 12.91-6.225-3.46-5.07-14.983 1.843zm-83 1.84l-9.22 2.997 11.064 4.38-1.844-7.377zm27.9-6l5.302 12.68 11.296-4.38-3.688-5.534-12.91-2.766zm119.42-1.38l4.38 8.76-8.76 2.997-.692-4.15 5.072-7.607zM489 373.66l6.685 8.3 10.835-8.53-3.688-3.92L489 373.66zm-104.2-8.3l4.61 13.6 11.296-3.226-2.996-6.455-12.91-3.92zm-9.22-.22c-.692.922-5.763 11.065-5.763 11.065l8.76-1.844-2.997-9.22zm147.54-3.46l2.536 3.688-7.147 10.605-7.377-9.452 11.987-4.84zm-49.8-72.99l48.988 64.795 8.077-3.512 16.732 34.1-.45.317c-.556.385-1.125.752-1.698 1.112-.786.493-1.58.97-2.38 1.436-2.006 1.166-4.05 2.26-6.123 3.302-2.715 1.363-5.476 2.634-8.27 3.824-3.093 1.317-6.226 2.534-9.39 3.662-4.655 1.657-9.377 3.118-14.147 4.398-5.2 1.396-10.456 2.576-15.75 3.553-8.53 1.574-17.154 2.62-25.81 3.186-2.678.175-5.36.304-8.042.388-2.01.063-4.02.102-6.03.113l-.993.003c-.55 0-1.098-.003-1.647-.008-1.088-.01-2.176-.028-3.264-.055-3.594-.09-7.187-.282-10.77-.57-9.93-.8-19.795-2.352-29.493-4.62-7.132-1.67-14.176-3.724-21.084-6.162-1.98-.7-3.95-1.43-5.91-2.194-.99-.387-1.98-.782-2.965-1.186-2.717-1.116-5.41-2.293-8.07-3.543-2.047-.963-4.075-1.967-6.075-3.024-.83-.44-1.658-.89-2.478-1.35-.624-.35-1.244-.708-1.856-1.08l-.064-.038-.087-.054-.408-.252 16.187-34.532 9.123 3.154 47.5-63.96c-.144-.302-.286-.603-.427-.904-.442-.947-.866-1.903-1.28-2.862-.562-1.296-1.106-2.6-1.635-3.908-1.317-3.262-2.546-6.56-3.68-9.89-1.267-3.73-2.416-7.502-3.405-11.316-.488-1.884-.938-3.778-1.34-5.682-.375-1.778-.71-3.564-.993-5.36-.492-3.11-.835-6.245-.953-9.392-.076-1.986-.06-3.976.078-5.958.033-.474.073-.947.12-1.42.047-.465.1-.93.16-1.394.134-1.083.294-2.163.484-3.238.122-.693.256-1.385.402-2.073.88-4.13 2.217-8.183 4.168-11.936.257-.495.525-.984.803-1.467.365-.632.747-1.254 1.148-1.863.49-.745 1.01-1.472 1.557-2.177.684-.882 1.412-1.73 2.182-2.538 1.198-1.257 2.498-2.416 3.887-3.458 1.342-1.008 2.766-1.905 4.253-2.683 1.46-.763 2.98-1.412 4.54-1.947 1.483-.51 3.003-.915 4.543-1.222.33-.065.66-.127.993-.184l-.017-2.205.17-.19c.226-.246.463-.484.706-.715.255-.242.518-.477.788-.704.662-.555 1.368-1.064 2.12-1.49.49-.276 1-.517 1.53-.702.44-.153.896-.268 1.36-.327.174-.02.35-.035.527-.04l.555-.015v.03l.15.013c.175.018.35.042.52.074.43.08.852.2 1.26.353.496.184.974.41 1.436.667.216.12.428.246.637.377.59.37 1.152.785 1.69 1.23.204.17.405.345.602.524.162.148.32.298.475.455l.153.156-.005 2.42c2.145.31 4.266.777 6.33 1.444.466.15.93.312 1.39.484 1.988.742 3.9 1.683 5.685 2.83.85.544 1.67 1.136 2.456 1.77.89.72 1.74 1.497 2.538 2.32.642.663 1.252 1.357 1.83 2.076.412.515.808 1.042 1.187 1.582.284.403.558.812.823 1.227 1.88 2.943 3.296 6.164 4.38 9.478.19.578.368 1.16.537 1.743.22.76.426 1.526.617 2.295.24.963.456 1.932.654 2.905.232 1.147.437 2.3.618 3.457.087.555.17 1.11.244 1.668.05.382.095.766.135 1.15.173 1.658.255 3.325.263 4.992.01 1.757-.063 3.514-.198 5.266-.13 1.678-.318 3.35-.553 5.018-.287 2.03-.643 4.052-1.055 6.06-.377 1.842-.8 3.673-1.265 5.494-.557 2.192-1.17 4.37-1.833 6.534-.67 2.194-1.39 4.373-2.15 6.537-.65 1.847-1.33 3.683-2.04 5.508-.883 2.27-1.81 4.524-2.787 6.757h.16l-1.586 3.17zm-43.25-3.376l9.97-13.424.083-22.54h-11.008l13.442-14.083-.24-33.173c-1.958.388-3.88.958-5.72 1.73-1.094.46-2.16.99-3.184 1.59-.998.586-1.956 1.237-2.868 1.95-1.48 1.155-2.832 2.473-4.04 3.913-.424.506-.83 1.028-1.22 1.563-.307.423-.603.855-.888 1.294-.24.37-.472.743-.697 1.122-1.706 2.882-2.957 6.018-3.86 9.24-.588 2.104-1.03 4.25-1.354 6.41-.088.59-.168 1.18-.24 1.77-.055.467-.106.932-.148 1.4-.07.768-.118 1.538-.148 2.31-.074 1.974-.027 3.952.107 5.923.15 2.207.41 4.407.75 6.594.463 2.994 1.074 5.963 1.79 8.907.79 3.258 1.71 6.483 2.726 9.677 1.035 3.258 2.17 6.484 3.393 9.677 1.036 2.707 2.133 5.39 3.305 8.04l.05.11zm39.815-1.165c.686-1.548 1.346-3.107 1.984-4.676.655-1.615 1.288-3.24 1.897-4.875.705-1.892 1.378-3.796 2.015-5.712.726-2.185 1.407-4.386 2.032-6.603.524-1.854 1.01-3.72 1.45-5.597.42-1.805.8-3.62 1.13-5.446.306-1.716.568-3.44.77-5.173.183-1.55.318-3.107.394-4.667.107-2.207.098-4.422-.083-6.625-.046-.557-.103-1.113-.172-1.668-.048-.385-.103-.77-.16-1.153-.076-.514-.157-1.026-.244-1.538-.31-1.846-.69-3.68-1.154-5.492-.198-.77-.412-1.534-.643-2.293-.18-.59-.37-1.178-.573-1.76-.16-.465-.33-.926-.507-1.385-1.028-2.66-2.332-5.23-4.014-7.54-.24-.33-.488-.653-.742-.97-.375-.467-.765-.92-1.172-1.358-1.077-1.16-2.27-2.21-3.56-3.128-1.118-.794-2.307-1.486-3.544-2.075-1.194-.57-2.432-1.042-3.696-1.43-1.43-.437-2.892-.766-4.368-1.007l-.068 32.828 14.838 13.934h-11.103l.084 23.23 9.205 12.175z" fill="#0A0A08"/></g></svg>