<?xml version="1.0" encoding="utf-8"?>
<!-- Generator: Adobe Illustrator 19.1.0, SVG Export Plug-In . SVG Version: 6.00 Build 0)  -->
<svg version="1.1" id="Layer_1" xmlns="http://www.w3.org/2000/svg" xmlns:xlink="http://www.w3.org/1999/xlink" x="0px" y="0px"
	 viewBox="264 97 1140 600" style="enable-background:new 264 97 1140 600;" xml:space="preserve">
<style type="text/css">
	.st0{fill:#BF2033;}
	.st1{stroke:#FFFFFF;stroke-width:10;}
	.st2{fill:#212F64;}
	.st3{fill:#FFFFFF;}
</style>
<rect x="264" y="97" class="st0" width="1140" height="600"/>
<path class="st1" d="M264,178.8h1140 M264,287.9h1140 M264,397h1140 M264,506.1h1140 M264,615.2h1140"/>
<rect x="264" y="97" class="st2" width="272.7" height="272.7"/>
<g>
	<g id="B">
		<polygon id="A" class="st3" points="25,8.4 23.3,13.6 25.9,14.5 		"/>
		<g transform="scale(-1,1)">
			<polygon id="A_1_" class="st3" points="25,8.4 26.7,13.6 24.1,14.5 			"/>
		</g>
	</g>
	<g>
		<g id="B_1_">
			<polygon id="A_2_" class="st3" points="30.2,12.2 24.8,12.2 24.8,14.9 			"/>
			<g transform="rotate(72)">
				<polygon id="A_3_" class="st3" points="30.2,12.2 25.8,15.4 24.2,13.2 				"/>
			</g>
		</g>
		<g>
			<g id="B_2_">
				<polygon id="A_4_" class="st3" points="19.8,12.2 24.2,15.4 25.9,13.2 				"/>
				<g transform="rotate(-72)">
					<polygon id="A_5_" class="st3" points="19.8,12.2 25.3,12.2 25.3,14.9 					"/>
				</g>
			</g>
			<g>
				<g id="B_3_">
					<polygon id="A_6_" class="st3" points="28.2,18.3 26.5,13.1 24,14 					"/>
					<g transform="rotate(144)">
						<polygon id="A_7_" class="st3" points="28.2,18.3 23.8,15.1 25.4,12.9 						"/>
					</g>
				</g>
				<g transform="translate(25,25) scale(15)">
					<g id="B_4_">
						<polygon id="A_8_" class="st3" points="21.8,18.3 26.2,15.1 24.6,12.9 						"/>
						<g transform="rotate(-144)">
							<polygon id="A_9_" class="st3" points="21.8,18.3 23.5,13.1 26.1,14 							"/>
						</g>
					</g>
				</g>
			</g>
		</g>
	</g>
</g>
</svg>
