<svg viewBox="0 0 4750 2500" xmlns="http://www.w3.org/2000/svg" fill-rule="evenodd" clip-rule="evenodd" stroke-linejoin="round" stroke-miterlimit="1.414"><path fill="#BF1F33" fill-rule="nonzero" d="M0 0h4750.004v2500.002H0z"/><path d="M0 340.91h4750.004H0zm0 454.55h4750.004H0zM0 1250h4750.004H0zm0 454.547h4750.004H0zm0 454.546h4750.004H0z" fill="#030404" fill-rule="nonzero"/><path d="M0 2179.922v-41.66h4750.004v41.66H0zm0-454.54v-41.67h4750.004v41.67H0zm0-454.55v-41.66h4750.004v41.66H0zm0-454.544V774.62h4750.004v41.668H0zM0 361.74v-41.666h4750.004v41.667H0z" fill="#fff" fill-rule="nonzero"/><path fill="#202F64" fill-rule="nonzero" d="M0 0h1136.363v1136.368H0z"/><path d="M367.8 843.984l76.538-235.562-200.38-145.587h247.686l76.538-235.562 76.54 235.562h247.685l-200.38 145.587 76.537 235.562-200.382-145.588L367.8 843.984z" fill="#fff"/></svg>