<?xml version="1.0" standalone="no"?><!DOCTYPE svg PUBLIC "-//W3C//DTD SVG 1.1//EN" "http://www.w3.org/Graphics/SVG/1.1/DTD/svg11.dtd"><svg width="100%" height="100%" viewBox="0 0 209 110" version="1.1" xmlns="http://www.w3.org/2000/svg" xmlns:xlink="http://www.w3.org/1999/xlink" xml:space="preserve" style="fill-rule:evenodd;clip-rule:evenodd;stroke-linejoin:round;stroke-miterlimit:1.41421;"><rect x="0" y="0" width="209" height="110" style="fill:#bf0a30;"/><path d="M0,100l0,-10l209,0l0,10c-69.667,0 -139.333,0 -209,0ZM0,80l0,-10l209,0l0,10c-69.667,0 -139.333,0 -209,0ZM0,60l0,-10l209,0l0,10c-69.667,0 -139.333,0 -209,0ZM0,40l0,-10l209,0l0,10c-69.667,0 -139.333,0 -209,0ZM0,20l0,-10l209,0l0,10c-69.667,0 -139.333,0 -209,0Z" style="fill:#fff;fill-rule:nonzero;"/><rect x="0" y="0" width="50" height="50" style="fill:#002868;"/><g><path id="star" d="M16.183,37.135l3.368,-10.365l-8.817,-6.405l10.898,0l3.368,-10.365l3.368,10.365l10.898,0l-8.817,6.405l3.368,10.365l-8.817,-6.406l-8.817,6.406" style="fill:#fff;"/></g></svg>