<svg width="1200" height="600" viewBox="0 0 1200 600" xmlns="http://www.w3.org/2000/svg"><title>Mongolia</title><g fill="none" fill-rule="evenodd"><path fill="#C4262F" d="M0 0h1200v600H0z"/><path fill="#055297" d="M400 0h400v600H400z"/><path d="M254.992 204.036c.005.32.008.642.008.964 0 30.376-24.624 55-55 55s-55-24.624-55-55c0-.322.003-.644.008-.964C154.275 225.208 175.41 240 200 240c24.59 0 45.725-14.792 54.992-35.964z" fill="#F8CF0A"/><path d="M200 150c22.09 0 40 17.91 40 40s-17.91 40-40 40-40-17.91-40-40 17.91-40 40-40M175 115c0 13.807 11.193 25 25 25s25-11.193 25-25c0-10-6.25-11.25-6.25-15s3.75-8.75-3.75-15c3.75 6.25-2.5 7.5-2.5 13.75S215 105 215 110c0 2.76-2.238 5-5 5s-5-2.24-5-5c0-5 5-10 5-17.5s-1.25-10-5-16.25S195 65 200 60c-7.5 2.5-3.75 12.5-3.75 18.75s-5 10-5 17.5S195 105 195 110c0 2.76-2.238 5-5 5s-5-2.24-5-5c0-5 2.5-5 2.5-11.25s-6.25-7.5-2.5-13.75c-7.5 6.25-3.75 11.25-3.75 15s-6.25 5-6.25 15M150 480h100l-50 30-50-30zm0-210h100l-50 30-50-30zm0 200h100v-20H150v20zm0-140h100v-20H150v20zm110 180h50V270h-50v240zm-170 0h50V270H90v240zM223.738 345.983c1.314.71 2.595 1.48 3.84 2.303 2.567 1.7 4.977 3.64 7.19 5.78 2.048 1.984 3.93 4.14 5.613 6.443.83 1.133 1.613 2.302 2.344 3.5.892 1.464 1.71 2.973 2.445 4.52.5 1.052.965 2.122 1.39 3.208.495 1.26.938 2.538 1.328 3.834.738 2.456 1.286 4.97 1.638 7.51.328 2.37.485 4.766.474 7.16-.008 1.443-.075 2.885-.205 4.32-.163 1.802-.423 3.593-.78 5.365-.43 2.144-1.005 4.26-1.715 6.328-.84 2.445-1.872 4.824-3.083 7.11-1.14 2.152-2.438 4.222-3.88 6.187-1.776 2.42-3.77 4.68-5.95 6.745-.652.62-1.322 1.22-2.01 1.805-1.334 1.136-2.728 2.2-4.175 3.19-1.016.697-2.057 1.354-3.12 1.972-1.55.9-3.147 1.717-4.784 2.445-1.72.764-3.485 1.432-5.28 1.997-.76.238-1.526.46-2.296.66-1.353.356-2.72.653-4.098.892-1.87.324-3.756.542-5.65.653-.667.04-1.336.065-2.005.078-.323.007-.647.01-.97.01h-.076c-.114 0-.228 0-.342-.004-.315-.005-.63-.017-.944-.035-.83-.046-1.656-.137-2.475-.27-.77-.128-1.532-.292-2.284-.494-.617-.166-1.225-.357-1.825-.573-.55-.197-1.093-.415-1.626-.654-.49-.218-.97-.453-1.442-.704-.45-.24-.89-.492-1.323-.76-1.142-.704-2.224-1.51-3.23-2.398-1.064-.943-2.045-1.982-2.924-3.1-.275-.353-.542-.712-.798-1.08-.588-.842-1.12-1.724-1.594-2.636-.504-.973-.94-1.982-1.302-3.016-.356-1.015-.64-2.054-.853-3.108-.168-.833-.29-1.675-.366-2.522-.065-.713-.097-1.43-.097-2.146 0-1.038.067-2.077.203-3.107.142-1.076.36-2.142.65-3.19.344-1.244.794-2.46 1.34-3.632.516-1.103 1.118-2.166 1.798-3.177.876-1.298 1.88-2.51 2.993-3.61.937-.925 1.952-1.774 3.03-2.53 1.298-.912 2.69-1.692 4.144-2.323.845-.367 1.713-.684 2.595-.948.885-.264 1.785-.476 2.694-.634.816-.142 1.64-.24 2.466-.295.264-.018.528-.03.792-.04.163-.005.327-.01.492-.01.05-.002.1-.002.152-.002h.295c.08 0 .16 0 .238-.002.285-.004.568-.012.852-.023.874-.036 1.747-.11 2.614-.224.718-.093 1.432-.212 2.14-.358.628-.13 1.25-.28 1.868-.45 1.51-.416 2.986-.953 4.41-1.605 1.634-.748 3.2-1.646 4.67-2.68 1.328-.93 2.58-1.973 3.737-3.11 1.18-1.158 2.26-2.414 3.23-3.752.862-1.188 1.635-2.44 2.31-3.744.696-1.343 1.288-2.74 1.768-4.175.43-1.284.77-2.598 1.02-3.93.173-.928.302-1.864.386-2.805.08-.925.12-1.854.115-2.783-.007-1.315-.1-2.63-.28-3.933-.207-1.5-.53-2.985-.967-4.435-.437-1.454-.987-2.873-1.644-4.24-.805-1.675-1.768-3.273-2.872-4.767zm-47.476 88.034c-1.534-.83-3.025-1.74-4.464-2.724-2.272-1.554-4.416-3.297-6.403-5.203-1.932-1.853-3.715-3.86-5.328-5.996-1.665-2.205-3.147-4.548-4.425-6.998-1.21-2.316-2.235-4.727-3.064-7.204-.687-2.05-1.24-4.148-1.653-6.27-.347-1.777-.596-3.572-.747-5.375-.114-1.36-.173-2.722-.178-4.085-.007-2.42.157-4.84.496-7.236.352-2.488.892-4.95 1.617-7.354.747-2.485 1.69-4.91 2.816-7.248.612-1.27 1.278-2.516 1.997-3.73.78-1.32 1.62-2.6 2.515-3.842 1.773-2.454 3.768-4.747 5.953-6.842 2.168-2.08 4.523-3.964 7.027-5.624 2.67-1.77 5.51-3.28 8.468-4.505 1.34-.554 2.708-1.05 4.094-1.487.76-.238 1.524-.46 2.294-.66 1.05-.276 2.11-.517 3.177-.724 3.158-.61 6.376-.913 9.592-.91h.028c.114 0 .23 0 .343.004.315.005.63.017.944.035.83.046 1.656.137 2.475.27.686.114 1.366.257 2.04.43.243.063.488.13.73.2.29.086.577.176.863.27.442.15.88.31 1.313.485.265.107.528.22.788.335.316.14.628.29.936.443.508.254 1.007.527 1.495.818 1.125.67 2.193 1.433 3.19 2.28 1.14.965 2.186 2.04 3.124 3.202.984 1.222 1.846 2.543 2.568 3.937.476.92.892 1.87 1.242 2.845.38 1.057.682 2.14.906 3.24.144.712.255 1.43.333 2.15.09.85.137 1.702.137 2.555 0 1.04-.067 2.078-.203 3.107-.1.752-.235 1.5-.407 2.24-.123.53-.265 1.054-.425 1.574-.32 1.04-.712 2.057-1.174 3.042-.58 1.242-1.273 2.432-2.063 3.553-.806 1.145-1.714 2.217-2.71 3.2-.937.927-1.952 1.776-3.03 2.532-1.298.912-2.688 1.692-4.143 2.323-.89.386-1.804.717-2.735.99-.84.244-1.694.442-2.555.592-.817.142-1.64.24-2.468.295-.263.018-.526.03-.79.04-.164.005-.33.01-.492.01-.05.002-.102.002-.153.002h-.295c-.08 0-.158 0-.238.002-.284.004-.57.012-.853.023-.873.036-1.746.11-2.613.224-.718.093-1.432.212-2.14.358-.628.13-1.25.28-1.868.45-1.51.416-2.986.953-4.41 1.605-1.46.668-2.864 1.455-4.195 2.352-1.394.94-2.71 2-3.926 3.162-.65.62-1.27 1.272-1.862 1.95-.377.434-.742.878-1.095 1.332-1.097 1.417-2.065 2.936-2.887 4.53-.653 1.263-1.214 2.575-1.676 3.92-.454 1.324-.814 2.68-1.075 4.054-.34 1.777-.51 3.584-.52 5.393-.006 1.41.087 2.822.28 4.22.207 1.5.53 2.983.967 4.434.437 1.454.988 2.873 1.645 4.24.7 1.46 1.52 2.86 2.45 4.184.137.196.278.39.42.583z" fill="#F8CF0A"/><path d="M200 353.5c5.523 0 10 4.478 10 10s-4.477 10-10 10-10-4.478-10-10 4.477-10 10-10M200 406.5c5.523 0 10 4.478 10 10s-4.477 10-10 10-10-4.478-10-10 4.477-10 10-10" fill="#C4262F"/></g></svg>