<?xml version="1.0" encoding="UTF-8" standalone="no"?>
<svg width="1200px" height="600px" viewBox="0 0 1200 600" version="1.1" xmlns="http://www.w3.org/2000/svg" xmlns:xlink="http://www.w3.org/1999/xlink" xmlns:sketch="http://www.bohemiancoding.com/sketch/ns">
    <!-- Generator: Sketch 3.3.3 (12072) - http://www.bohemiancoding.com/sketch -->
    <title>Mongolia</title>
    <desc>Created with Sketch.</desc>
    <defs></defs>
    <g id="Page-1" stroke="none" stroke-width="1" fill="none" fill-rule="evenodd" sketch:type="MSPage">
        <g id="Mongolia" sketch:type="MSLayerGroup">
            <rect id="Rectangle-path" fill="#C4262F" sketch:type="MSShapeGroup" x="0" y="0" width="1200" height="600"></rect>
            <rect id="Rectangle-path" fill="#055297" sketch:type="MSShapeGroup" x="400" y="0" width="400" height="600"></rect>
            <g id="Group" transform="translate(144.960000, 204.000000)" fill="#F8CF0A" sketch:type="MSShapeGroup">
                <path d="M110.0316,0.036 C110.037,0.3564 110.04,0.678 110.04,1.0002 C110.04,31.3758 85.416,55.9998 55.0398,55.9998 C24.6642,55.9998 0.0402,31.3758 0.0402,1.0002 C0.0402,0.678 0.0426,0.3564 0.048,0.036 C9.315,21.2076 30.45,36 55.0398,36 C79.6296,36 100.7646,21.2076 110.0316,0.036 L110.0316,0.036 Z" id="Shape"></path>
            </g>
            <path d="M200,150 C222.0915,150 240,167.9085 240,190 C240,212.0915 222.0915,230 200,230 C177.9085,230 160,212.0915 160,190 C160,167.9085 177.9085,150 200,150" id="Shape" fill="#F8CF0A" sketch:type="MSShapeGroup"></path>
            <path d="M175,115 C175,128.80725 186.19275,140 200,140 C213.80725,140 225,128.80725 225,115 C225,105 218.75,103.75 218.75,100 C218.75,96.25 222.5,91.25 215,85 C218.75,91.25 212.5,92.5 212.5,98.75 C212.5,105 215,105 215,110 C215,112.7615 212.7615,115 210,115 C207.2385,115 205,112.7615 205,110 C205,105 210,100 210,92.5 C210,85 208.75,82.5 205,76.25 C201.25,70 195,65 200,60 C192.5,62.5 196.25,72.5 196.25,78.75 C196.25,85 191.25,88.75 191.25,96.25 C191.25,103.75 195,105 195,110 C195,112.7615 192.7615,115 190,115 C187.2385,115 185,112.7615 185,110 C185,105 187.5,105 187.5,98.75 C187.5,92.5 181.25,91.25 185,85 C177.5,91.25 181.25,96.25 181.25,100 C181.25,103.75 175,105 175,115" id="Shape" fill="#F8CF0A" sketch:type="MSShapeGroup"></path>
            <path d="M150,480 L250,480 L200,510 L150,480 L150,480 Z M150,270 L250,270 L200,300 L150,270 L150,270 Z M150,470 L250,470 L250,450 L150,450 L150,470 L150,470 Z M150,330 L250,330 L250,310 L150,310 L150,330 L150,330 Z M260,510 L310,510 L310,270 L260,270 L260,510 L260,510 Z M90,510 L140,510 L140,270 L90,270 L90,510 L90,510 Z" id="Shape" fill="#F8CF0A" sketch:type="MSShapeGroup"></path>
            <g id="Group" transform="translate(149.940000, 339.960000)" fill="#F8CF0A" sketch:type="MSShapeGroup">
                <path d="M73.7982,6.0228 C75.1116,6.7326 76.3932,7.5018 77.6382,8.3262 C80.205,10.0272 82.6146,11.9646 84.8268,14.106 C86.8764,16.0896 88.7574,18.2466 90.441,20.5488 C91.2708,21.6828 92.0526,22.8516 92.784,24.051 C93.6756,25.5138 94.4928,27.0228 95.229,28.5696 C95.7306,29.622 96.195,30.6924 96.621,31.7778 C97.1148,33.0366 97.5576,34.3164 97.9476,35.6118 C98.6862,38.0676 99.234,40.581 99.5856,43.1214 C99.9138,45.4932 100.071,47.8884 100.0596,50.283 C100.0524,51.7248 99.9846,53.1666 99.855,54.603 C99.6918,56.4036 99.432,58.1952 99.075,59.967 C98.6436,62.1114 98.07,64.2264 97.3596,66.2946 C96.5196,68.7402 95.4876,71.1192 94.2774,73.404 C93.1368,75.5574 91.839,77.6274 90.3966,79.5918 C88.6206,82.0116 86.6274,84.2718 84.4482,86.337 C83.7948,86.9562 83.1246,87.558 82.4382,88.1418 C81.1032,89.2776 79.7088,90.3432 78.2622,91.3332 C77.2464,92.0286 76.2054,92.6856 75.1416,93.3042 C73.5924,94.2042 71.9952,95.0208 70.3584,95.7492 C68.6376,96.5142 66.873,97.182 65.0766,97.7466 C64.317,97.9854 63.552,98.2056 62.7822,98.4078 C61.4292,98.763 60.0612,99.06 58.6836,99.2994 C56.8152,99.624 54.9282,99.8424 53.0346,99.9528 C52.3668,99.9924 51.6984,100.0182 51.0294,100.0308 C50.7066,100.0368 50.3832,100.0398 50.0598,100.0398 L49.9842,100.0398 C49.8702,100.0392 49.7556,100.0386 49.6416,100.0362 C49.3272,100.0308 49.0128,100.0194 48.6984,100.0014 C47.8692,99.954 47.0424,99.8634 46.2228,99.729 C45.4536,99.6024 44.691,99.438 43.9386,99.2358 C43.323,99.0702 42.7146,98.8788 42.1146,98.6634 C41.5644,98.466 41.022,98.2482 40.4886,98.0094 C40.0008,97.7916 39.5202,97.557 39.048,97.3062 C38.5992,97.0674 38.1576,96.8142 37.725,96.5466 C36.5826,95.8416 35.5014,95.037 34.4958,94.1478 C33.4308,93.2052 32.4498,92.166 31.5714,91.0476 C31.2948,90.6954 31.0278,90.336 30.7722,89.9688 C30.1836,89.1258 29.6508,88.2444 29.178,87.3318 C28.674,86.3586 28.2384,85.35 27.876,84.3156 C27.5202,83.301 27.2352,82.2618 27.0228,81.2076 C26.8554,80.3748 26.733,79.533 26.6568,78.6864 C26.592,77.973 26.5602,77.2566 26.5602,76.5402 C26.5602,75.5016 26.6274,74.463 26.763,73.4334 C26.9052,72.357 27.1218,71.2908 27.4122,70.2444 C27.7572,68.9988 28.2066,67.782 28.7532,66.6114 C29.2692,65.5074 29.871,64.4436 30.5514,63.4326 C31.4262,62.1348 32.4294,60.924 33.543,59.8242 C34.4802,58.8978 35.4948,58.0494 36.5736,57.2928 C37.8714,56.3814 39.2616,55.6014 40.7166,54.9702 C41.562,54.603 42.4296,54.2862 43.3122,54.0222 C44.1966,53.7576 45.0966,53.5464 46.0056,53.388 C46.8216,53.2458 47.646,53.1474 48.4722,53.0928 C48.7356,53.0754 48.9996,53.0622 49.2636,53.0532 C49.4274,53.0478 49.5912,53.0442 49.7556,53.0418 C49.8066,53.0412 49.857,53.0406 49.908,53.0406 C50.0064,53.04 50.1048,53.04 50.2032,53.0394 C50.2824,53.0394 50.3616,53.0388 50.4408,53.0376 C50.7246,53.034 51.0084,53.0262 51.2922,53.0148 C52.1664,52.9788 53.0388,52.9044 53.9064,52.791 C54.624,52.6974 55.338,52.578 56.0472,52.4316 C56.6742,52.302 57.297,52.152 57.9144,51.9822 C59.424,51.5664 60.9,51.0288 62.3238,50.3772 C63.9582,49.629 65.523,48.7308 66.9942,47.6982 C68.322,46.7658 69.5736,45.7236 70.731,44.5866 C71.9094,43.4292 72.9912,42.1728 73.9608,40.8354 C74.8218,39.6468 75.5946,38.3946 76.2696,37.0914 C76.9656,35.7474 77.5578,34.35 78.0384,32.9154 C78.4686,31.6308 78.8094,30.3168 79.0578,28.9854 C79.2312,28.0572 79.3596,27.1206 79.4436,26.1804 C79.5252,25.2546 79.5642,24.3258 79.5594,23.397 C79.5534,22.0818 79.4604,20.7672 79.2804,19.464 C79.0728,17.964 78.7494,16.479 78.3126,15.0288 C77.8758,13.5762 77.3256,12.1572 76.6686,10.7892 C75.8652,9.1146 74.9022,7.5168 73.7982,6.0228 L73.7982,6.0228 Z M26.322,94.0572 C24.7878,93.228 23.2968,92.3184 21.858,91.3332 C19.5858,89.7786 17.442,88.0362 15.4548,86.13 C13.5234,84.2772 11.7396,82.2708 10.1274,80.1342 C8.4624,77.9292 6.9804,75.5862 5.7018,73.1364 C4.4934,70.8204 3.4674,68.409 2.6376,65.9316 C1.9506,63.8808 1.398,61.7844 0.9846,59.6616 C0.6378,57.885 0.3894,56.0898 0.2376,54.2868 C0.1236,52.9284 0.0648,51.5652 0.06,50.202 C0.0528,47.7822 0.2172,45.3618 0.5562,42.966 C0.9084,40.4784 1.4484,38.0172 2.1726,35.6118 C2.9202,33.1272 3.8628,30.702 4.989,28.3644 C5.6016,27.093 6.2682,25.848 6.987,24.633 C7.7658,23.3148 8.6058,22.0332 9.5022,20.7918 C11.2746,18.3378 13.2702,16.0452 15.4548,13.95 C17.6232,11.8704 19.9776,9.9858 22.482,8.3262 C25.1514,6.5574 27.9906,5.046 30.9498,3.8214 C32.2914,3.2658 33.6582,2.769 35.0436,2.3334 C35.8026,2.0946 36.5682,1.8744 37.338,1.6722 C38.3886,1.3968 39.4482,1.1556 40.515,0.9492 C43.6734,0.339 46.8906,0.0366 50.1072,0.0402 L50.1354,0.0402 C50.2494,0.0408 50.364,0.0414 50.478,0.0438 C50.793,0.0492 51.1074,0.0606 51.4218,0.0786 C52.251,0.126 53.0778,0.2166 53.8974,0.351 C54.5826,0.4638 55.263,0.6066 55.9356,0.7794 C56.1804,0.843 56.4246,0.9096 56.6682,0.981 C56.9568,1.0656 57.2442,1.1556 57.5298,1.251 C57.972,1.3992 58.41,1.5612 58.8432,1.7352 C59.1078,1.842 59.3706,1.9536 59.631,2.07 C59.946,2.211 60.258,2.3586 60.5664,2.5128 C61.074,2.7672 61.5732,3.0402 62.061,3.3306 C63.1848,3.9996 64.2528,4.7628 65.2506,5.6088 C66.3894,6.5748 67.4364,7.6488 68.3736,8.8122 C69.3576,10.0344 70.2204,11.355 70.9416,12.7488 C71.418,13.6686 71.8338,14.6196 72.1836,15.5946 C72.5634,16.6518 72.8664,17.736 73.0896,18.8364 C73.2342,19.5474 73.3452,20.265 73.4232,20.9862 C73.5144,21.834 73.56,22.6872 73.56,23.5398 C73.56,24.579 73.4928,25.6176 73.3566,26.6472 C73.2576,27.399 73.122,28.1466 72.9498,28.8858 C72.8268,29.4156 72.6852,29.9406 72.525,30.4608 C72.2058,31.5 71.8128,32.517 71.3508,33.5016 C70.7694,34.7436 70.077,35.934 69.2874,37.0554 C68.481,38.1996 67.5732,39.2724 66.5772,40.2564 C65.64,41.1822 64.6254,42.0306 63.5466,42.7872 C62.2488,43.6986 60.8586,44.4786 59.4036,45.1098 C58.5138,45.4962 57.6,45.8268 56.6688,46.0986 C55.8294,46.344 54.9762,46.542 54.1146,46.692 C53.298,46.8342 52.4742,46.9326 51.6474,46.9872 C51.384,47.0046 51.1206,47.0178 50.8566,47.0268 C50.6928,47.0322 50.5284,47.0358 50.3646,47.0382 C50.3136,47.0388 50.2626,47.0394 50.2122,47.0394 C50.1138,47.04 50.0154,47.04 49.917,47.0406 C49.8378,47.0406 49.7586,47.0412 49.6794,47.0424 C49.3956,47.046 49.1112,47.0538 48.8274,47.0652 C47.9538,47.1012 47.0808,47.1756 46.2138,47.289 C45.4962,47.3826 44.7816,47.502 44.073,47.6484 C43.446,47.778 42.8232,47.928 42.2058,48.0978 C40.6962,48.5136 39.2202,49.0512 37.7964,49.7028 C36.3366,50.3706 34.932,51.1584 33.6006,52.0554 C32.2056,52.995 30.8904,54.054 29.6742,55.2168 C29.0244,55.8384 28.4034,56.4888 27.8124,57.1668 C27.435,57.6006 27.0696,58.0446 26.7174,58.4994 C25.62,59.9172 24.6522,61.4358 23.8296,63.0288 C23.1774,64.293 22.6164,65.6052 22.1544,66.951 C21.6996,68.274 21.3402,69.6294 21.0792,71.004 C20.7414,72.7806 20.5692,74.5884 20.5602,76.3968 C20.5536,77.8074 20.6466,79.2186 20.8398,80.616 C21.0468,82.116 21.3708,83.6004 21.807,85.0506 C22.2444,86.5038 22.7946,87.9234 23.4516,89.2914 C24.1518,90.7494 24.972,92.1504 25.902,93.474 C26.0394,93.6702 26.1798,93.8646 26.322,94.0572 L26.322,94.0572 Z" id="Shape"></path>
            </g>
            <path d="M200,353.5 C205.52275,353.5 210,357.9775 210,363.5 C210,369.0225 205.52275,373.5 200,373.5 C194.47725,373.5 190,369.0225 190,363.5 C190,357.9775 194.47725,353.5 200,353.5" id="Shape" fill="#C4262F" sketch:type="MSShapeGroup"></path>
            <path d="M200,406.5 C205.52275,406.5 210,410.9775 210,416.5 C210,422.0225 205.52275,426.5 200,426.5 C194.47725,426.5 190,422.0225 190,416.5 C190,410.9775 194.47725,406.5 200,406.5" id="Shape" fill="#C4262F" sketch:type="MSShapeGroup"></path>
        </g>
    </g>
</svg>