<?xml version="1.0" standalone="no"?>
<!DOCTYPE svg PUBLIC "-//W3C//DTD SVG 1.1//EN" "http://www.w3.org/Graphics/SVG/1.1/DTD/svg11.dtd">
<svg width="100%" height="100%" viewBox="0 0 20000 10000" version="1.1" xmlns="http://www.w3.org/2000/svg" xmlns:xlink="http://www.w3.org/1999/xlink" xml:space="preserve" style="fill-rule:evenodd;clip-rule:evenodd;stroke-linejoin:round;stroke-miterlimit:1.41421;">
    <g id="Layer 1" transform="matrix(4.16667,0,0,4.16667,0,0)">
        <rect x="0" y="0" width="4800" height="2400" style="fill:rgb(196,38,47);fill-rule:nonzero;"/>
        <rect x="1600" y="0" width="1600" height="2400" style="fill:rgb(5,82,151);fill-rule:nonzero;"/>
        <g transform="matrix(0.24,0,0,0.24,0,0)">
            <path d="M4249.86,3400.6C4249.95,3405.94 4250,3411.3 4250,3416.67C4250,3922.93 3839.6,4333.33 3333.33,4333.33C2827.07,4333.33 2416.67,3922.93 2416.67,3416.67C2416.67,3411.3 2416.71,3405.94 2416.8,3400.6C2571.25,3753.46 2923.5,4000 3333.33,4000C3743.16,4000 4095.41,3753.46 4249.86,3400.6Z" style="fill:rgb(248,207,10);"/>
        </g>
        <path d="M800,600C888.366,600 960,671.634 960,760C960,848.366 888.366,920 800,920C711.634,920 640,848.366 640,760C640,671.634 711.634,600 800,600" style="fill:rgb(248,207,10);fill-rule:nonzero;"/>
        <path d="M700,460C700,515.229 744.771,560 800,560C855.229,560 900,515.229 900,460C900,420 875,415 875,400C875,385 890,365 860,340C875,365 850,370 850,395C850,420 860,420 860,440C860,451.046 851.046,460 840,460C828.954,460 820,451.046 820,440C820,420 840,400 840,370C840,340 835,330 820,305C805,280 780,260 800,240C770,250 785,290 785,315C785,340 765,355 765,385C765,415 780,420 780,440C780,451.046 771.046,460 760,460C748.954,460 740,451.046 740,440C740,420 750,420 750,395C750,370 725,365 740,340C710,365 725,385 725,400C725,415 700,420 700,460" style="fill:rgb(248,207,10);fill-rule:nonzero;"/>
        <path d="M600,1920L1000,1920L800,2040L600,1920ZM600,1080L1000,1080L800,1200L600,1080ZM600,1880L1000,1880L1000,1800L600,1800L600,1880ZM600,1320L1000,1320L1000,1240L600,1240L600,1320ZM1040,2040L1240,2040L1240,1080L1040,1080L1040,2040ZM360,2040L560,2040L560,1080L360,1080L360,2040Z" style="fill:rgb(248,207,10);fill-rule:nonzero;"/>
        <g transform="matrix(0.24,0,0,0.24,0,0)">
            <path d="M3728.97,5766.38C3750.86,5778.21 3772.22,5791.03 3792.97,5804.77C3835.75,5833.12 3875.91,5865.41 3912.78,5901.1C3946.94,5934.16 3978.29,5970.11 4006.35,6008.48C4020.18,6027.38 4033.21,6046.86 4045.4,6066.85C4060.26,6091.23 4073.88,6116.38 4086.15,6142.16C4094.51,6159.7 4102.25,6177.54 4109.35,6195.63C4117.58,6216.61 4124.96,6237.94 4131.46,6259.53C4143.77,6300.46 4152.9,6342.35 4158.76,6384.69C4164.23,6424.22 4166.85,6464.14 4166.66,6504.05C4166.54,6528.08 4165.41,6552.11 4163.25,6576.05C4160.53,6606.06 4156.2,6635.92 4150.25,6665.45C4143.06,6701.19 4133.5,6736.44 4121.66,6770.91C4107.66,6811.67 4090.46,6851.32 4070.29,6889.4C4051.28,6925.29 4029.65,6959.79 4005.61,6992.53C3976.01,7032.86 3942.79,7070.53 3906.47,7104.95C3895.58,7115.27 3884.41,7125.3 3872.97,7135.03C3850.72,7153.96 3827.48,7171.72 3803.37,7188.22C3786.44,7199.81 3769.09,7210.76 3751.36,7221.07C3725.54,7236.07 3698.92,7249.68 3671.64,7261.82C3642.96,7274.57 3613.55,7285.7 3583.61,7295.11C3570.95,7299.09 3558.2,7302.76 3545.37,7306.13C3522.82,7312.05 3500.02,7317 3477.06,7320.99C3445.92,7326.4 3414.47,7330.04 3382.91,7331.88C3371.78,7332.54 3360.64,7332.97 3349.49,7333.18C3344.11,7333.28 3338.72,7333.33 3333.33,7333.33L3332.07,7333.33C3330.17,7333.32 3328.26,7333.31 3326.36,7333.27C3321.12,7333.18 3315.88,7332.99 3310.64,7332.69C3296.82,7331.9 3283.04,7330.39 3269.38,7328.15C3256.56,7326.04 3243.85,7323.3 3231.31,7319.93C3221.05,7317.17 3210.91,7313.98 3200.91,7310.39C3191.74,7307.1 3182.7,7303.47 3173.81,7299.49C3165.68,7295.86 3157.67,7291.95 3149.8,7287.77C3142.32,7283.79 3134.96,7279.57 3127.75,7275.11C3108.71,7263.36 3090.69,7249.95 3073.93,7235.13C3056.18,7219.42 3039.83,7202.1 3025.19,7183.46C3020.58,7177.59 3016.13,7171.6 3011.87,7165.48C3002.06,7151.43 2993.18,7136.74 2985.3,7121.53C2976.9,7105.31 2969.64,7088.5 2963.6,7071.26C2957.67,7054.35 2952.92,7037.03 2949.38,7019.46C2946.59,7005.58 2944.55,6991.55 2943.28,6977.44C2942.2,6965.55 2941.67,6953.61 2941.67,6941.67C2941.67,6924.36 2942.79,6907.05 2945.05,6889.89C2947.42,6871.95 2951.03,6854.18 2955.87,6836.74C2961.62,6815.98 2969.11,6795.7 2978.22,6776.19C2986.82,6757.79 2996.85,6740.06 3008.19,6723.21C3022.77,6701.58 3039.49,6681.4 3058.05,6663.07C3073.67,6647.63 3090.58,6633.49 3108.56,6620.88C3130.19,6605.69 3153.36,6592.69 3177.61,6582.17C3191.7,6576.05 3206.16,6570.77 3220.87,6566.37C3235.61,6561.96 3250.61,6558.44 3265.76,6555.8C3279.36,6553.43 3293.1,6551.79 3306.87,6550.88C3311.26,6550.59 3315.66,6550.37 3320.06,6550.22C3322.79,6550.13 3325.52,6550.07 3328.26,6550.03C3329.11,6550.02 3329.95,6550.01 3330.8,6550.01C3332.44,6550 3334.08,6550 3335.72,6549.99C3337.04,6549.99 3338.36,6549.98 3339.68,6549.96C3344.41,6549.9 3349.14,6549.77 3353.87,6549.58C3368.44,6548.98 3382.98,6547.74 3397.44,6545.85C3409.4,6544.29 3421.3,6542.3 3433.12,6539.86C3443.57,6537.7 3453.95,6535.2 3464.24,6532.37C3489.4,6525.44 3514,6516.48 3537.73,6505.62C3564.97,6493.15 3591.05,6478.18 3615.57,6460.97C3637.7,6445.43 3658.56,6428.06 3677.85,6409.11C3697.49,6389.82 3715.52,6368.88 3731.68,6346.59C3746.03,6326.78 3758.91,6305.91 3770.16,6284.19C3781.76,6261.79 3791.63,6238.5 3799.64,6214.59C3806.81,6193.18 3812.49,6171.28 3816.63,6149.09C3819.52,6133.62 3821.66,6118.01 3823.06,6102.34C3824.42,6086.91 3825.07,6071.43 3824.99,6055.95C3824.89,6034.03 3823.34,6012.12 3820.34,5990.4C3816.88,5965.4 3811.49,5940.65 3804.21,5916.48C3796.93,5892.27 3787.76,5868.62 3776.81,5845.82C3763.42,5817.91 3747.37,5791.28 3728.97,5766.38ZM2937.7,7233.62C2912.13,7219.8 2887.28,7204.64 2863.3,7188.22C2825.43,7162.31 2789.7,7133.27 2756.58,7101.5C2724.39,7070.62 2694.66,7037.18 2667.79,7001.57C2640.04,6964.82 2615.34,6925.77 2594.03,6884.94C2573.89,6846.34 2556.79,6806.15 2542.96,6764.86C2531.51,6730.68 2522.3,6695.74 2515.41,6660.36C2509.63,6630.75 2505.49,6600.83 2502.96,6570.78C2501.06,6548.14 2500.08,6525.42 2500,6502.7C2499.88,6462.37 2502.62,6422.03 2508.27,6382.1C2514.14,6340.64 2523.14,6299.62 2535.21,6259.53C2547.67,6218.12 2563.38,6177.7 2582.15,6138.74C2592.36,6117.55 2603.47,6096.8 2615.45,6076.55C2628.43,6054.58 2642.43,6033.22 2657.37,6012.53C2686.91,5971.63 2720.17,5933.42 2756.58,5898.5C2792.72,5863.84 2831.96,5832.43 2873.7,5804.77C2918.19,5775.29 2965.51,5750.1 3014.83,5729.69C3037.19,5720.43 3059.97,5712.15 3083.06,5704.89C3095.71,5700.91 3108.47,5697.24 3121.3,5693.87C3138.81,5689.28 3156.47,5685.26 3174.25,5681.82C3226.89,5671.65 3280.51,5666.61 3334.12,5666.67L3334.59,5666.67C3336.49,5666.68 3338.4,5666.69 3340.3,5666.73C3345.55,5666.82 3350.79,5667.01 3356.03,5667.31C3369.85,5668.1 3383.63,5669.61 3397.29,5671.85C3408.71,5673.73 3420.05,5676.11 3431.26,5678.99C3435.34,5680.05 3439.41,5681.16 3443.47,5682.35C3448.28,5683.76 3453.07,5685.26 3457.83,5686.85C3465.2,5689.32 3472.5,5692.02 3479.72,5694.92C3484.13,5696.7 3488.51,5698.56 3492.85,5700.5C3498.1,5702.85 3503.3,5705.31 3508.44,5707.88C3516.9,5712.12 3525.22,5716.67 3533.35,5721.51C3552.08,5732.66 3569.88,5745.38 3586.51,5759.48C3605.49,5775.58 3622.94,5793.48 3638.56,5812.87C3654.96,5833.24 3669.34,5855.25 3681.36,5878.48C3689.3,5893.81 3696.23,5909.66 3702.06,5925.91C3708.39,5943.53 3713.44,5961.6 3717.16,5979.94C3719.57,5991.79 3721.42,6003.75 3722.72,6015.77C3724.24,6029.9 3725,6044.12 3725,6058.33C3725,6075.65 3723.88,6092.96 3721.61,6110.12C3719.96,6122.65 3717.7,6135.11 3714.83,6147.43C3712.78,6156.26 3710.42,6165.01 3707.75,6173.68C3702.43,6191 3695.88,6207.95 3688.18,6224.36C3678.49,6245.06 3666.95,6264.9 3653.79,6283.59C3640.35,6302.66 3625.22,6320.54 3608.62,6336.94C3593,6352.37 3576.09,6366.51 3558.11,6379.12C3536.48,6394.31 3513.31,6407.31 3489.06,6417.83C3474.23,6424.27 3459,6429.78 3443.48,6434.31C3429.49,6438.4 3415.27,6441.7 3400.91,6444.2C3387.3,6446.57 3373.57,6448.21 3359.79,6449.12C3355.4,6449.41 3351.01,6449.63 3346.61,6449.78C3343.88,6449.87 3341.14,6449.93 3338.41,6449.97C3337.56,6449.98 3336.71,6449.99 3335.87,6449.99C3334.23,6450 3332.59,6450 3330.95,6450.01C3329.63,6450.01 3328.31,6450.02 3326.99,6450.04C3322.26,6450.1 3317.52,6450.23 3312.79,6450.42C3298.23,6451.02 3283.68,6452.26 3269.23,6454.15C3257.27,6455.71 3245.36,6457.7 3233.55,6460.14C3223.1,6462.3 3212.72,6464.8 3202.43,6467.63C3177.27,6474.56 3152.67,6483.52 3128.94,6494.38C3104.61,6505.51 3081.2,6518.64 3059.01,6533.59C3035.76,6549.25 3013.84,6566.9 2993.57,6586.28C2982.74,6596.64 2972.39,6607.48 2962.54,6618.78C2956.25,6626.01 2950.16,6633.41 2944.29,6640.99C2926,6664.62 2909.87,6689.93 2896.16,6716.48C2885.29,6737.55 2875.94,6759.42 2868.24,6781.85C2860.66,6803.9 2854.67,6826.49 2850.32,6849.4C2844.69,6879.01 2841.82,6909.14 2841.67,6939.28C2841.56,6962.79 2843.11,6986.31 2846.33,7009.6C2849.78,7034.6 2855.18,7059.34 2862.45,7083.51C2869.74,7107.73 2878.91,7131.39 2889.86,7154.19C2901.53,7178.49 2915.2,7201.84 2930.7,7223.9C2932.99,7227.17 2935.33,7230.41 2937.7,7233.62Z" style="fill:rgb(248,207,10);"/>
        </g>
        <path d="M800,1414C822.091,1414 840,1431.91 840,1454C840,1476.09 822.091,1494 800,1494C777.909,1494 760,1476.09 760,1454C760,1431.91 777.909,1414 800,1414" style="fill:rgb(196,38,47);fill-rule:nonzero;"/>
        <path d="M800,1626C822.091,1626 840,1643.91 840,1666C840,1688.09 822.091,1706 800,1706C777.909,1706 760,1688.09 760,1666C760,1643.91 777.909,1626 800,1626" style="fill:rgb(196,38,47);fill-rule:nonzero;"/>
    </g>
</svg>
