<?xml version="1.0" encoding="utf-8"?>
<!-- Generator: Adobe Illustrator 19.1.0, SVG Export Plug-In . SVG Version: 6.00 Build 0)  -->
<svg version="1.1" id="Layer_1" xmlns="http://www.w3.org/2000/svg" xmlns:xlink="http://www.w3.org/1999/xlink" x="0px" y="0px"
	 viewBox="2094 -804 4800 2400" style="enable-background:new 2094 -804 4800 2400;" xml:space="preserve">
<style type="text/css">
	.st0{fill:#C4272F;}
	.st1{fill:#005296;}
	.st2{fill:#F9CF0C;}
	.st3{fill:#F9CF0C;stroke:#C4272F;stroke-width:24;}
	.st4{fill:none;stroke:#C4272F;stroke-width:24;}
</style>
<g>
	<g transform="scale(5)">
		<rect x="418.8" y="-160.8" class="st0" width="960" height="480"/>
		<rect x="738.8" y="-160.8" class="st1" width="320" height="480"/>
		<circle class="st2" cx="578.8" cy="3.2" r="44"/>
		<circle class="st0" cx="578.8" cy="-16.8" r="48"/>
		<circle class="st2" cx="578.8" cy="-8.8" r="32"/>
		<path class="st2" d="M558.8-68.8c0,11,9,20,20,20s20-9,20-20c0-8-5-9-5-12s3-7-3-12c3,5-2,6-2,11s2,5,2,9c0,2.2-1.8,4-4,4
			c-2.2,0-4-1.8-4-4c0-4,4-8,4-14s-1-8-4-13s-8-9-4-13c-6,2-3,10-3,15s-4,8-4,14s3,7,3,11c0,2.2-1.8,4-4,4c-2.2,0-4-1.8-4-4
			c0-4,2-4,2-9s-5-6-2-11c-6,5-3,9-3,12S558.8-76.8,558.8-68.8z"/>
		<path class="st2" d="M490.8,55.2v192h40v-192H490.8z M626.8,55.2v192h40v-192H626.8z M538.8,87.2v16h80v-16H538.8z M538.8,199.2
			v16h80v-16H538.8z M538.8,55.2h80l-40,24L538.8,55.2z M538.8,223.2h80l-40,24L538.8,223.2z"/>
	</g>
	<g>
		<circle class="st3" cx="2894" cy="756" r="212"/>
		<path class="st4" d="M2894,544c58.5,0,106,47.5,106,106s-47.5,106-106,106s-106,47.5-106,106s47.5,106,106,106"/>
	</g>
</g>
<g>
	<circle class="st0" cx="2894" cy="650" r="40"/>
	<circle class="st0" cx="2894" cy="862" r="40"/>
</g>
</svg>
