<?xml version="1.0" encoding="UTF-8" standalone="no"?>
<svg width="900px" height="600px" viewBox="0 0 900 600" version="1.1" xmlns="http://www.w3.org/2000/svg" xmlns:xlink="http://www.w3.org/1999/xlink" xmlns:sketch="http://www.bohemiancoding.com/sketch/ns">
    <!-- Generator: Sketch 3.3.3 (12072) - http://www.bohemiancoding.com/sketch -->
    <title>Mozambique</title>
    <desc>Created with Sketch.</desc>
    <defs></defs>
    <g id="Page-1" stroke="none" stroke-width="1" fill="none" fill-rule="evenodd" sketch:type="MSPage">
        <g id="Mozambique" sketch:type="MSLayerGroup" transform="translate(0.000000, -1.000000)">
            <path d="M0,601 L900,601 L900,1 L0,1 L0,601 Z" id="Fill-1" fill="#0A0A08" sketch:type="MSShapeGroup"></path>
            <path d="M0,207.25 L900,207.25 L900,1 L0,1 L0,207.25 Z" id="Fill-2" fill="#FFFFFF" sketch:type="MSShapeGroup"></path>
            <path d="M0,188.5 L900,188.5 L900,0.999 L0,0.999 L0,188.5 Z" id="Fill-3" fill="#13675D" sketch:type="MSShapeGroup"></path>
            <path d="M0,601 L900,601 L900,394.5 L0,394.5 L0,601 Z" id="Fill-4" fill="#FFFFFF" sketch:type="MSShapeGroup"></path>
            <path d="M0,601 L900,601 L900,413.5 L0,413.5 L0,601 Z" id="Fill-5" fill="#FAE01B" sketch:type="MSShapeGroup"></path>
            <path d="M0,1 L0,601 L393.75,301.001 L0,1" id="Fill-6" fill="#C02537" sketch:type="MSShapeGroup"></path>
            <path d="M204.37,413.485 L131.216,359.925 L58.161,413.5 L86.493,327.376 L12.965,274.452 L103.63,274.784 L131.242,188.5 L158.943,274.83 L249.537,274.427 L175.992,327.45 L204.37,413.485" id="Fill-7" fill="#FAE01B" sketch:type="MSShapeGroup"></path>
            <path d="M67.724,353.427 L120.423,353.427 C124.663,358.184 134.124,360.124 143.134,353.37 C159.652,344.326 191.607,353.427 191.607,353.427 L197.899,346.742 L182.561,296.402 L177.055,290.503 C177.055,290.503 165.257,283.424 142.84,285.784 C120.423,288.143 112.557,284.998 112.557,284.998 C112.557,284.998 92.894,287.357 87.388,290.11 C86.783,290.6 81.095,296.402 81.095,296.402 L67.724,353.427" id="Fill-8" fill="#FFFFFF" sketch:type="MSShapeGroup"></path>
            <path d="M121.204,353.348 C121.262,353.407 121.32,353.466 121.38,353.524 C121.588,353.727 121.804,353.921 122.027,354.107 C122.711,354.674 123.462,355.16 124.253,355.565 C125.382,356.141 126.592,356.552 127.832,356.806 C128.175,356.876 128.52,356.934 128.866,356.981 C129.282,357.036 129.699,357.075 130.117,357.097 C130.331,357.108 130.545,357.114 130.759,357.118 C130.82,357.118 130.882,357.119 130.944,357.119 C131.225,357.119 131.506,357.113 131.787,357.099 C132.333,357.072 132.877,357.017 133.418,356.938 C135.149,356.683 136.837,356.167 138.431,355.449 C139.468,354.982 140.465,354.429 141.418,353.809 C141.709,353.62 141.995,353.424 142.277,353.222 C142.057,352.952 141.829,352.687 141.594,352.429 C139.76,350.406 137.54,348.762 135.17,347.42 C134.731,347.171 134.286,346.932 133.836,346.702 C133.329,346.444 132.816,346.197 132.298,345.961 L132.267,346.008 L132.063,346.142 C131.983,346.157 131.903,346.172 131.823,346.188 C131.692,346.161 131.633,346.148 131.572,346.119 C131.1,346.351 130.631,346.589 130.167,346.835 C129.162,347.367 128.176,347.935 127.215,348.541 C126.298,349.119 125.403,349.732 124.538,350.385 C123.816,350.931 123.114,351.506 122.445,352.116 C122.187,352.351 121.934,352.591 121.688,352.838 C121.523,353.005 121.361,353.174 121.204,353.348 L121.204,353.348 Z M87.005,291.334 C86.615,291.717 86.228,292.103 85.842,292.489 C84.483,293.849 83.134,295.219 81.787,296.59 L81.664,296.715 L68.512,352.802 L120.018,352.802 C120.229,352.555 120.45,352.317 120.677,352.084 C120.976,351.778 121.286,351.481 121.602,351.192 C121.99,350.838 122.389,350.496 122.796,350.164 C123.738,349.396 124.723,348.68 125.736,348.009 C126.834,347.28 127.967,346.604 129.125,345.975 C129.589,345.723 130.057,345.479 130.528,345.242 L130.57,345.22 C130.077,345.022 129.58,344.831 129.081,344.649 C127.59,344.105 126.073,343.633 124.541,343.217 C122.687,342.713 120.811,342.293 118.923,341.937 C116.777,341.533 114.615,341.212 112.447,340.957 C110.014,340.67 107.572,340.466 105.127,340.327 C102.583,340.182 100.036,340.109 97.488,340.095 C94.713,340.08 91.938,340.136 89.166,340.255 C87.031,340.347 84.899,340.477 82.769,340.648 C81.958,340.713 81.148,340.785 80.339,340.864 C79.71,340.925 79.082,340.991 78.454,341.066 L78.419,341.07 C78.177,341.052 78.174,341.051 77.958,340.942 L77.799,340.758 L77.722,340.526 L77.74,340.283 L77.85,340.065 L78.035,339.906 C78.112,339.88 78.189,339.853 78.266,339.829 C78.278,339.826 78.291,339.826 78.304,339.825 C78.341,339.82 78.377,339.816 78.414,339.812 C78.557,339.795 78.7,339.779 78.842,339.763 C79.144,339.729 79.445,339.697 79.747,339.667 C80.72,339.568 81.694,339.481 82.669,339.402 C84.391,339.264 86.116,339.152 87.842,339.066 C89.452,338.985 91.063,338.925 92.675,338.888 C96.624,338.798 100.577,338.838 104.522,339.042 C106.349,339.137 108.174,339.267 109.995,339.44 C111.906,339.621 113.813,339.848 115.712,340.13 C118.514,340.547 121.3,341.085 124.044,341.792 C126.156,342.337 128.243,342.982 130.28,343.763 C130.592,343.883 130.903,344.006 131.213,344.133 L131.597,290.106 L131.646,289.867 L131.783,289.666 L131.987,289.531 L132.226,289.486 C132.464,289.535 132.467,289.536 132.667,289.672 L132.801,289.876 L132.847,290.115 L132.462,344.318 C133.227,343.972 133.999,343.642 134.778,343.33 C136.599,342.6 138.457,341.962 140.339,341.407 C142.695,340.712 145.09,340.146 147.505,339.695 C150.581,339.121 153.691,338.732 156.811,338.499 C160.707,338.209 164.62,338.162 168.524,338.313 C171.475,338.427 174.42,338.653 177.355,338.977 C178.177,339.067 178.998,339.165 179.819,339.271 C180.069,339.303 180.319,339.336 180.569,339.369 C180.576,339.37 181.066,339.436 181.072,339.438 C181.151,339.456 181.226,339.491 181.303,339.517 L181.485,339.679 L181.592,339.898 L181.607,340.141 C181.538,340.341 181.544,340.419 181.366,340.555 C181.301,340.604 181.219,340.626 181.146,340.661 L180.903,340.676 C180.654,340.642 180.404,340.608 180.155,340.575 C179.99,340.553 179.825,340.532 179.66,340.511 C179.169,340.448 178.679,340.387 178.188,340.329 C177.072,340.198 175.955,340.081 174.836,339.979 C170.825,339.611 166.796,339.433 162.768,339.489 C159.068,339.541 155.369,339.792 151.702,340.288 C148.742,340.688 145.802,341.246 142.91,341.993 C140.504,342.614 138.131,343.365 135.815,344.264 C135.07,344.554 134.331,344.859 133.598,345.18 L133.587,345.185 C133.671,345.225 133.754,345.265 133.837,345.305 C133.932,345.352 134.026,345.399 134.121,345.446 C134.637,345.705 135.147,345.974 135.65,346.256 C136.678,346.832 137.677,347.46 138.633,348.149 C139.842,349.018 140.983,349.984 142.019,351.054 C142.392,351.44 142.752,351.839 143.097,352.251 C143.18,352.35 143.262,352.451 143.343,352.552 C143.374,352.535 143.405,352.519 143.437,352.503 C143.81,352.312 144.189,352.131 144.572,351.959 C146.514,351.085 148.557,350.446 150.631,349.973 C152.114,349.634 153.616,349.381 155.125,349.193 C156.88,348.975 158.646,348.846 160.413,348.784 C163.197,348.687 165.986,348.756 168.765,348.943 C171.701,349.14 174.628,349.468 177.538,349.897 C180.274,350.3 182.996,350.792 185.7,351.366 C186.781,351.596 187.859,351.838 188.933,352.096 C189.76,352.295 190.586,352.502 191.408,352.724 L191.41,352.725 L197.196,346.578 L182.005,296.723 L178.03,292.464 L187.105,334.813 L187.109,335.056 L187.019,335.283 L186.849,335.458 L186.625,335.555 C186.544,335.556 186.462,335.557 186.381,335.558 L186.154,335.468 L185.979,335.298 L185.883,335.075 L176.444,291.028 L176.442,290.877 C175.889,290.581 175.32,290.316 174.746,290.065 C174.045,289.76 173.333,289.479 172.613,289.218 C171.622,288.858 170.616,288.536 169.602,288.245 C168.489,287.926 167.365,287.645 166.233,287.399 C163.644,286.835 161.017,286.45 158.378,286.215 C155.302,285.94 152.209,285.87 149.123,285.972 C147.65,286.021 146.177,286.109 144.708,286.234 C144.28,286.271 143.853,286.31 143.425,286.353 C142.99,286.396 142.556,286.443 142.121,286.487 C141.863,286.513 141.606,286.538 141.348,286.563 C140.518,286.643 139.688,286.719 138.857,286.787 C136.158,287.01 133.453,287.17 130.746,287.243 C129.288,287.283 127.83,287.297 126.372,287.279 C125.087,287.264 123.801,287.225 122.517,287.154 C121.457,287.096 120.398,287.016 119.342,286.909 C118.377,286.812 117.415,286.692 116.458,286.54 C115.704,286.42 114.953,286.281 114.208,286.111 C113.947,286.052 113.686,285.988 113.426,285.919 C113.115,285.837 112.805,285.746 112.5,285.643 L112.484,285.637 C111.483,285.76 110.483,285.892 109.483,286.029 C108.049,286.226 106.615,286.433 105.184,286.652 C103.727,286.876 102.272,287.111 100.82,287.363 C99.488,287.594 98.159,287.838 96.834,288.104 C95.814,288.308 94.797,288.524 93.785,288.759 C92.903,288.964 92.024,289.183 91.153,289.428 C90.444,289.627 89.739,289.842 89.047,290.092 C88.869,290.157 88.693,290.223 88.518,290.293 C88.517,290.309 88.516,290.327 88.516,290.345 L83.278,313.06 C83.179,313.281 83.177,313.284 83,313.45 C82.924,313.478 82.848,313.507 82.772,313.536 L82.528,313.529 L82.306,313.429 C82.25,313.369 82.182,313.32 82.139,313.251 C82.02,313.061 82.053,312.99 82.06,312.779 L87.005,291.334 L87.005,291.334 Z M143.77,353.738 L143.761,353.763 C143.703,353.824 143.648,353.888 143.586,353.944 C143.557,353.97 143.521,353.988 143.489,354.01 C143.424,354.054 143.359,354.098 143.293,354.142 C143.1,354.272 142.905,354.4 142.709,354.527 C142.079,354.934 141.436,355.322 140.779,355.685 C138.713,356.83 136.498,357.744 134.172,358.193 C133.556,358.312 132.934,358.398 132.31,358.448 C131.97,358.475 131.629,358.491 131.288,358.497 C131.195,358.498 131.103,358.499 131.01,358.499 C130.824,358.499 130.639,358.496 130.454,358.489 C130.145,358.478 129.836,358.458 129.528,358.429 C128.687,358.349 127.853,358.201 127.035,357.991 C126.155,357.765 125.293,357.468 124.457,357.112 C123.535,356.721 122.645,356.258 121.786,355.744 C121.25,355.423 120.727,355.082 120.215,354.724 C120.06,354.615 119.906,354.505 119.752,354.393 C119.653,354.321 119.575,354.272 119.502,354.158 C119.481,354.124 119.463,354.089 119.449,354.052 L67.724,354.052 L67.504,354.012 C67.44,353.974 67.368,353.946 67.312,353.897 C67.198,353.797 67.124,353.659 67.104,353.508 C67.095,353.434 67.112,353.359 67.116,353.285 L80.487,296.26 C80.547,296.101 80.548,296.101 80.649,295.965 C80.948,295.66 81.248,295.355 81.548,295.05 C82.681,293.899 83.816,292.748 84.958,291.606 C85.352,291.211 85.747,290.817 86.145,290.427 C86.292,290.282 86.44,290.138 86.589,289.996 C86.707,289.883 86.826,289.77 86.949,289.663 L86.972,289.643 L86.99,289.628 L87.111,289.55 C87.687,289.265 88.287,289.031 88.895,288.82 C89.599,288.575 90.315,288.362 91.034,288.163 C91.893,287.927 92.758,287.713 93.626,287.513 C94.61,287.286 95.598,287.076 96.588,286.878 C97.924,286.611 99.264,286.364 100.606,286.131 C102.067,285.878 103.53,285.641 104.994,285.417 C106.309,285.215 107.626,285.024 108.943,284.842 C110.103,284.681 111.263,284.527 112.425,284.385 L112.482,284.378 C112.533,284.378 112.584,284.372 112.634,284.378 C112.715,284.388 112.785,284.417 112.86,284.444 C112.908,284.461 112.955,284.477 113.003,284.493 C113.275,284.582 113.55,284.66 113.827,284.732 C114.119,284.808 114.412,284.877 114.706,284.942 C115.463,285.108 116.227,285.242 116.993,285.358 C117.852,285.488 118.715,285.591 119.579,285.677 C120.814,285.799 122.052,285.884 123.291,285.941 C125.634,286.05 127.981,286.06 130.325,286.004 C133.058,285.938 135.789,285.782 138.514,285.561 C139.504,285.481 140.493,285.392 141.482,285.294 C141.826,285.261 142.17,285.226 142.513,285.19 C142.776,285.163 143.039,285.135 143.302,285.109 C143.519,285.087 143.737,285.067 143.955,285.046 C145.339,284.92 146.725,284.823 148.114,284.761 C151.506,284.609 154.908,284.66 158.291,284.952 C161.448,285.225 164.59,285.707 167.672,286.446 C168.801,286.717 169.922,287.022 171.03,287.367 C172.013,287.673 172.987,288.01 173.946,288.384 C174.632,288.652 175.311,288.938 175.978,289.25 C176.252,289.378 176.523,289.51 176.791,289.648 C176.984,289.748 177.176,289.85 177.363,289.959 L177.373,289.965 L177.512,290.077 L183.018,295.976 C183.102,296.09 183.102,296.09 183.159,296.22 L198.497,346.56 C198.52,346.748 198.552,346.806 198.473,346.989 C198.445,347.055 198.394,347.11 198.354,347.171 L192.062,353.856 C192.001,353.9 191.948,353.957 191.88,353.99 C191.812,354.023 191.737,354.043 191.662,354.05 C191.536,354.061 191.455,354.034 191.348,354.004 C191.259,353.979 191.17,353.955 191.081,353.931 C190.935,353.891 190.79,353.853 190.644,353.814 C189.649,353.553 188.649,353.309 187.646,353.077 C186.525,352.818 185.401,352.575 184.274,352.346 C181.687,351.822 179.085,351.372 176.471,351.007 C173.722,350.622 170.96,350.33 168.189,350.158 C165.616,349.999 163.034,349.943 160.457,350.033 C158.727,350.094 156.998,350.22 155.28,350.434 C153.812,350.616 152.351,350.862 150.909,351.191 C148.915,351.646 146.952,352.259 145.085,353.098 C144.721,353.262 144.361,353.435 144.005,353.616 C143.927,353.657 143.848,353.697 143.77,353.738 L143.77,353.738 Z" id="Fill-9" fill="#0A0A08" sketch:type="MSShapeGroup"></path>
            <path d="M144.858,329.05 L144.9,329.054 C144.882,329.05 144.87,329.046 144.859,329.043 L144.858,329.05 L144.858,329.05 Z M47.941,375.251 C47.662,375.25 47.385,375.221 47.113,375.163 C46.762,375.087 46.421,374.966 46.096,374.814 C45.917,374.729 45.742,374.635 45.571,374.534 L45.414,374.402 L33.021,359.871 L32.903,359.66 C32.877,359.453 32.838,359.387 32.937,359.188 C32.972,359.116 33.034,359.061 33.083,358.997 L52.823,341.569 C52.844,341.553 52.864,341.536 52.884,341.521 C52.903,341.507 52.923,341.495 52.942,341.481 C52.982,341.454 53.022,341.428 53.062,341.401 C53.141,341.349 53.221,341.298 53.301,341.248 C53.613,341.052 53.935,340.872 54.265,340.709 C54.699,340.493 55.148,340.306 55.607,340.147 C56.114,339.97 56.632,339.828 57.157,339.713 C58.3,339.462 59.467,339.339 60.631,339.235 L60.671,339.231 L71.53,328.37 L71.733,328.235 L71.972,328.187 L74.673,328.187 L94.332,310.713 L94.513,310.601 C94.694,310.562 94.747,310.526 94.932,310.583 C95,310.604 95.058,310.648 95.122,310.68 L96.191,311.481 L98.231,309.733 L98.548,308.458 C98.617,308.291 98.617,308.29 98.731,308.15 C99.318,307.609 99.905,307.068 100.492,306.528 C103.086,304.143 105.683,301.762 108.295,299.398 C109.188,298.59 110.083,297.784 110.983,296.983 C111.373,296.637 111.763,296.292 112.157,295.95 C112.458,295.688 112.76,295.428 113.07,295.175 L113.131,295.126 L113.162,295.101 C113.138,295.061 113.114,295.021 113.089,294.982 C113.063,294.94 113.036,294.898 113.009,294.856 L112.985,294.82 L96.974,307.627 L96.788,307.73 C96.605,307.76 96.55,307.793 96.368,307.726 C96.301,307.701 96.245,307.655 96.184,307.619 L95.005,306.637 L95.005,307.874 L94.945,308.14 L94.778,308.356 L73.472,325.989 C73.401,326.027 73.336,326.08 73.258,326.104 C73.181,326.128 73.097,326.137 73.017,326.13 C72.852,326.114 72.7,326.035 72.594,325.908 C72.542,325.846 72.502,325.772 72.478,325.695 C72.453,325.617 72.46,325.534 72.451,325.453 L73.186,317.004 C73.204,316.936 73.211,316.864 73.24,316.8 C73.299,316.669 73.401,316.563 73.529,316.499 C73.592,316.468 73.664,316.458 73.731,316.438 L76.488,316.093 L108.871,289.168 L109.196,287.547 C109.271,287.352 109.272,287.35 109.409,287.19 L120.429,278.006 C120.499,277.968 120.563,277.915 120.639,277.891 C120.715,277.866 120.798,277.857 120.878,277.863 C120.957,277.869 121.037,277.892 121.109,277.928 C121.255,278.001 121.366,278.128 121.42,278.282 C121.446,278.358 121.444,278.44 121.453,278.52 C121.454,278.532 121.452,278.545 121.451,278.558 C121.449,278.593 121.448,278.629 121.446,278.665 C121.445,278.711 121.444,278.758 121.444,278.805 C121.443,278.943 121.447,279.08 121.456,279.216 C121.473,279.467 121.508,279.716 121.561,279.961 C121.608,280.176 121.669,280.389 121.743,280.597 C121.949,281.172 122.256,281.705 122.624,282.191 C123.016,282.706 123.474,283.169 123.962,283.593 C124.103,283.715 124.246,283.834 124.391,283.951 C124.576,284.099 124.763,284.242 124.954,284.382 C125.205,284.567 125.46,284.745 125.718,284.919 L125.777,284.959 L125.822,284.99 C125.856,284.97 125.89,284.949 125.924,284.929 C126.13,284.803 126.333,284.673 126.532,284.537 C126.775,284.371 127.014,284.198 127.251,284.024 C127.514,283.83 127.775,283.634 128.038,283.439 C128.264,283.273 128.492,283.108 128.723,282.948 C128.915,282.816 129.109,282.689 129.306,282.565 L129.325,282.553 C129.14,282.288 128.957,282.02 128.773,281.754 L128.734,281.698 C128.498,281.865 128.265,282.037 128.034,282.21 C127.73,282.436 127.427,282.665 127.123,282.891 C127.021,282.967 126.918,283.043 126.815,283.118 C126.538,283.319 126.259,283.517 125.975,283.707 L125.772,283.795 C125.58,283.806 125.518,283.835 125.339,283.741 C125.216,283.677 125.15,283.59 125.061,283.492 C124.964,283.384 124.865,283.276 124.767,283.168 C124.643,283.032 124.519,282.896 124.395,282.761 C123.984,282.314 123.571,281.87 123.159,281.425 C123.005,281.257 122.851,281.09 122.698,280.922 C122.566,280.777 122.435,280.633 122.303,280.488 L122.201,280.374 C122.16,280.306 122.105,280.244 122.078,280.17 C122.022,280.018 122.028,279.851 122.093,279.703 C122.125,279.631 122.183,279.573 122.228,279.508 L125.062,276.744 L106.184,255.674 C106.134,255.695 106.085,255.716 106.036,255.737 C105.807,255.831 105.574,255.917 105.338,255.992 C104.895,256.133 104.442,256.238 103.983,256.311 C103.024,256.464 102.048,256.475 101.081,256.409 C100.749,256.387 100.419,256.356 100.089,256.319 C99.979,256.306 99.868,256.293 99.758,256.279 C99.64,256.264 99.552,256.259 99.436,256.199 C99.371,256.164 99.319,256.107 99.261,256.062 L93.293,249.388 L92.432,259.804 L92.39,259.981 L92.299,260.139 L59.237,302.016 C59.182,302.065 59.135,302.125 59.072,302.163 C58.943,302.241 58.792,302.27 58.644,302.246 C58.571,302.233 58.499,302.208 58.435,302.171 C58.371,302.134 58.322,302.076 58.266,302.028 L42.103,282.559 L41.979,282.319 L41.969,282.049 L42.073,281.8 L71.094,240.657 C71.259,240.497 71.262,240.495 71.474,240.406 L76.616,239.304 C76.701,239.304 76.786,239.302 76.871,239.303 C76.88,239.303 76.889,239.306 76.897,239.308 C76.923,239.313 76.949,239.318 76.975,239.323 C77.044,239.337 77.112,239.35 77.181,239.363 C77.283,239.383 77.385,239.401 77.487,239.42 C78.216,239.552 78.949,239.668 79.684,239.766 C80.237,239.839 80.791,239.903 81.347,239.953 C81.885,240.001 82.424,240.037 82.964,240.053 C83.455,240.068 83.948,240.068 84.439,240.038 C84.757,240.019 85.076,239.988 85.391,239.935 C85.647,239.892 85.903,239.834 86.148,239.747 C86.3,239.693 86.449,239.628 86.583,239.538 C86.665,239.484 86.743,239.419 86.799,239.339 C86.811,239.259 86.824,239.181 86.837,239.102 C86.888,238.798 86.945,238.495 87.009,238.194 C87.281,236.928 87.688,235.681 88.305,234.539 C88.722,233.765 89.238,233.043 89.858,232.419 C90.26,232.014 90.705,231.653 91.185,231.344 C91.524,231.127 91.879,230.936 92.247,230.774 C92.5,230.661 92.76,230.562 93.024,230.476 C93.219,230.412 93.417,230.355 93.617,230.306 C95.003,229.96 96.457,229.951 97.866,230.151 C98.122,230.187 98.377,230.23 98.63,230.28 C98.961,230.345 99.289,230.42 99.615,230.506 C100.005,230.609 100.391,230.727 100.773,230.856 L100.828,230.875 C100.966,230.943 100.967,230.943 101.085,231.043 L113.574,244.635 C113.612,244.694 113.66,244.747 113.688,244.811 C113.763,244.986 113.735,245.041 113.717,245.222 L112.705,248.938 C118.122,255.06 123.54,261.181 128.959,267.302 C129.97,268.444 130.981,269.586 131.993,270.727 L132.078,270.823 C132.108,270.803 132.138,270.783 132.168,270.763 C132.345,270.64 132.515,270.507 132.682,270.372 C132.889,270.205 133.092,270.032 133.292,269.857 C133.779,269.431 134.254,268.991 134.724,268.547 C135.457,267.855 136.179,267.15 136.897,266.442 C137.399,265.948 137.898,265.452 138.401,264.958 C138.501,264.859 138.602,264.761 138.703,264.663 C138.807,264.563 138.91,264.463 139.015,264.366 C139.086,264.3 139.158,264.235 139.235,264.176 L139.466,264.067 L139.722,264.06 L139.959,264.156 L140.138,264.338 L141.22,266.028 L141.909,263.963 L141.973,263.827 L142.067,263.711 L153.823,252.323 L154.036,252.188 L154.286,252.148 L162.105,252.504 L172.383,242.934 L172.778,236.42 L172.852,236.16 L173.03,235.956 L173.277,235.846 L173.548,235.851 L173.791,235.97 L173.962,236.18 C173.974,236.205 173.986,236.229 173.999,236.254 C174.188,236.604 174.452,236.91 174.737,237.186 C174.926,237.368 175.127,237.539 175.334,237.701 C175.57,237.883 175.813,238.055 176.062,238.218 C176.461,238.479 176.874,238.719 177.295,238.943 C177.724,239.172 178.162,239.384 178.605,239.582 C178.964,239.743 179.327,239.895 179.695,240.036 C179.979,240.145 180.265,240.249 180.556,240.339 L180.568,240.342 C180.631,240.278 180.694,240.212 180.756,240.146 C180.852,240.042 180.949,239.939 181.046,239.835 C181.09,239.789 181.134,239.743 181.178,239.697 C181.311,239.56 181.445,239.424 181.583,239.293 C181.703,239.178 181.826,239.066 181.953,238.958 C182.055,238.871 182.159,238.788 182.265,238.708 C182.342,238.65 182.42,238.594 182.5,238.54 C182.9,238.273 183.352,238.057 183.835,238.007 C183.898,238.001 183.96,237.997 184.023,237.997 C184.206,237.995 184.389,238.02 184.565,238.071 C184.739,238.122 184.905,238.2 185.058,238.297 C185.251,238.421 185.421,238.577 185.57,238.751 C185.632,238.823 185.684,238.902 185.736,238.981 C185.825,239.114 185.91,239.25 185.988,239.39 C186.206,239.782 186.377,240.211 186.409,240.663 C186.415,240.744 186.416,240.827 186.412,240.909 C186.407,241.036 186.389,241.163 186.36,241.287 C186.327,241.43 186.278,241.57 186.219,241.705 C186.134,241.9 186.026,242.084 185.925,242.272 C185.906,242.309 185.886,242.346 185.868,242.383 C185.837,242.447 185.809,242.511 185.787,242.577 L186.594,243.183 L228.077,213.884 L228.321,213.78 L228.586,213.787 L228.825,213.903 L228.993,214.108 L229.062,214.364 L229.019,214.625 L228.871,214.845 L190.468,251.706 L190.33,251.806 C190.205,251.873 190.077,251.931 189.944,251.98 C189.621,252.099 189.279,252.161 188.935,252.179 C188.517,252.2 188.095,252.156 187.687,252.063 C187.542,252.029 187.398,251.99 187.256,251.944 C186.94,251.841 186.634,251.707 186.348,251.536 L186.323,251.52 L163.477,270.881 L163.247,271.004 L162.987,271.023 L162.742,270.934 C162.679,270.874 162.614,270.816 162.554,270.753 C162.541,270.74 162.534,270.722 162.523,270.707 C162.513,270.692 162.503,270.677 162.493,270.662 C162.462,270.617 162.431,270.572 162.4,270.527 C162.349,270.454 162.297,270.38 162.244,270.307 C161.988,269.953 161.717,269.609 161.426,269.283 C161.041,268.852 160.622,268.451 160.167,268.094 C159.743,267.76 159.289,267.466 158.812,267.213 C158.451,267.022 158.077,266.856 157.696,266.71 L149.736,273.631 C149.734,273.712 149.734,273.712 149.731,273.793 C149.728,273.878 149.728,273.878 149.723,273.962 C149.717,274.082 149.708,274.202 149.696,274.321 C149.671,274.573 149.632,274.824 149.571,275.07 C149.489,275.399 149.366,275.716 149.201,276.013 C148.947,276.469 148.606,276.87 148.264,277.262 L148.214,277.319 L148.108,277.439 L142.978,282.91 C164.625,307.765 186.271,332.62 207.923,357.471 C209.875,359.712 211.827,361.952 213.78,364.191 C214.049,364.5 214.317,364.808 214.587,365.116 L214.601,365.131 L214.726,365.345 L214.758,365.591 C214.712,366.247 214.65,366.903 214.529,367.549 C214.445,367.998 214.332,368.442 214.167,368.868 C214.067,369.127 213.947,369.38 213.806,369.619 C213.672,369.845 213.52,370.06 213.35,370.26 C213.003,370.668 212.587,371.012 212.142,371.307 C211.706,371.595 211.243,371.84 210.772,372.065 C210.445,372.222 210.112,372.369 209.778,372.51 C209.657,372.561 209.535,372.612 209.414,372.662 C209.412,372.662 209.228,372.738 209.226,372.738 C209.143,372.758 209.058,372.769 208.974,372.784 L208.725,372.725 L208.521,372.571 L135.459,289.28 L123.438,299.534 L123.22,299.655 L122.972,299.68 L122.733,299.607 L122.542,299.445 L117.788,293.423 L117.469,294.538 L120.608,299.07 L120.707,299.308 L120.703,299.565 L120.596,299.799 L120.403,299.969 C120.321,299.995 120.24,300.023 120.158,300.048 C120.152,300.05 120.145,300.049 120.139,300.05 C120.131,300.051 120.124,300.052 120.116,300.052 C120.084,300.056 120.075,300.057 120.041,300.062 C119.98,300.07 119.919,300.079 119.858,300.088 C119.472,300.148 119.089,300.23 118.711,300.33 C118.436,300.402 118.165,300.485 117.897,300.578 C117.697,300.648 117.498,300.724 117.303,300.806 C117.153,300.868 117.006,300.935 116.86,301.006 C116.067,301.39 115.32,301.9 114.749,302.578 C114.67,302.672 114.594,302.769 114.523,302.869 C114.432,302.995 114.348,303.126 114.272,303.261 C114.153,303.471 114.052,303.689 113.97,303.915 C113.844,304.26 113.763,304.619 113.723,304.983 C113.687,305.3 113.681,305.62 113.7,305.938 C113.705,306.025 113.712,306.111 113.72,306.198 C113.729,306.293 113.739,306.387 113.761,306.48 C113.8,306.645 113.868,306.802 113.954,306.948 C114.068,307.143 114.212,307.321 114.368,307.484 C114.574,307.701 114.805,307.896 115.045,308.075 C115.398,308.339 115.774,308.571 116.159,308.785 C116.574,309.016 117.001,309.225 117.433,309.42 C118.181,309.757 118.948,310.053 119.721,310.325 C120.62,310.641 121.531,310.925 122.447,311.188 C123.376,311.454 124.311,311.699 125.25,311.929 C126.471,312.229 127.699,312.502 128.931,312.757 C130.406,313.063 131.886,313.343 133.37,313.603 C135.076,313.902 136.786,314.175 138.5,314.427 C139.865,314.628 141.231,314.816 142.599,314.99 C143.118,315.056 143.637,315.12 144.156,315.181 C144.606,315.235 145.056,315.287 145.507,315.335 L145.729,315.402 C145.887,315.526 145.957,315.545 146.029,315.745 C146.055,315.818 146.053,315.898 146.066,315.974 C146.053,316.399 146.04,316.825 146.027,317.25 C145.968,319.125 145.904,321 145.829,322.874 C145.799,323.615 145.768,324.356 145.733,325.097 C145.702,325.765 145.669,326.433 145.63,327.101 C145.615,327.348 145.6,327.594 145.584,327.84 C145.572,328.022 145.559,328.203 145.545,328.384 C145.533,328.541 145.52,328.697 145.506,328.853 C145.486,329.067 145.465,329.281 145.431,329.492 C145.416,329.59 145.398,329.689 145.368,329.783 C145.351,329.839 145.329,329.895 145.299,329.946 C145.29,329.96 145.265,330.003 145.251,330.021 C145.228,330.051 145.21,330.072 145.183,330.099 C145.166,330.116 145.125,330.148 145.113,330.158 C145.094,330.173 145.073,330.184 145.053,330.197 C145.029,330.212 145.002,330.222 144.977,330.234 L144.975,330.235 L144.947,330.244 C144.89,330.268 144.89,330.268 144.832,330.292 C144.58,330.396 144.324,330.491 144.064,330.574 C143.36,330.798 142.633,330.946 141.9,331.037 C141.051,331.142 140.194,331.171 139.339,331.149 C138.034,331.115 136.735,330.962 135.45,330.739 C133.936,330.476 132.439,330.115 130.962,329.695 C129.809,329.367 128.667,329.002 127.534,328.61 C126.41,328.221 125.296,327.805 124.19,327.368 C121.764,326.409 119.378,325.352 117.024,324.23 C114.288,322.926 111.595,321.534 108.94,320.075 C107.873,319.49 106.813,318.893 105.76,318.285 C104.723,317.686 103.692,317.077 102.67,316.452 L102.619,316.42 L101.018,318.555 L104.089,323.332 L104.183,323.588 L104.16,323.859 L104.023,324.094 L95.443,333.388 L99.39,347.377 L99.408,347.632 L99.323,347.872 L99.149,348.058 L92.903,352.467 L92.696,352.562 C92.62,352.567 92.544,352.586 92.468,352.577 C92.315,352.558 92.173,352.483 92.072,352.367 C92.022,352.31 91.994,352.236 91.956,352.17 L86.934,338.401 L83.68,335.527 L83.525,335.317 L83.469,335.062 L83.522,334.806 L83.674,334.595 L91.389,327.615 C91.583,327.496 91.585,327.495 91.809,327.453 L95.662,327.453 C95.756,327.365 95.845,327.272 95.932,327.178 C96.037,327.065 96.139,326.95 96.241,326.835 C96.493,326.546 96.74,326.252 96.984,325.956 C97.689,325.102 98.375,324.233 99.055,323.359 L99.099,323.303 L97.209,320.874 L94.471,323.004 C94.387,323.127 94.309,323.256 94.25,323.393 C94.216,323.471 94.188,323.553 94.174,323.637 C94.163,323.696 94.16,323.757 94.172,323.817 C94.193,323.922 94.266,324.008 94.345,324.077 C94.361,324.091 94.378,324.105 94.395,324.118 C94.419,324.137 94.444,324.155 94.469,324.171 C94.596,324.256 94.735,324.323 94.877,324.381 C95.086,324.467 95.303,324.531 95.521,324.589 L95.755,324.707 L95.919,324.911 L95.986,325.164 L95.943,325.422 L95.799,325.64 L95.577,325.78 L95.318,325.817 C95.136,325.804 94.954,325.79 94.773,325.774 C94.576,325.756 94.38,325.736 94.184,325.715 C93.85,325.679 93.516,325.64 93.182,325.604 C92.937,325.578 92.693,325.555 92.447,325.535 L78.121,338.265 C78.123,338.32 78.124,338.376 78.124,338.431 C78.124,338.481 78.124,338.531 78.123,338.581 C78.115,338.914 78.084,339.245 78.028,339.573 C77.923,340.176 77.733,340.762 77.467,341.313 C77.301,341.656 77.106,341.984 76.887,342.296 C76.771,342.459 76.649,342.618 76.521,342.772 L76.495,342.802 L68.781,352.353 L50.411,374.396 C50.361,374.44 50.313,374.484 50.262,374.526 C50.26,374.528 50.196,374.567 50.195,374.567 C50.162,374.588 50.128,374.608 50.094,374.628 C49.97,374.7 49.844,374.767 49.716,374.829 C49.387,374.986 49.04,375.107 48.682,375.178 C48.462,375.222 48.239,375.245 48.015,375.251 L47.941,375.251 L47.941,375.251 Z M136.866,276.515 C137.141,276.307 137.41,276.089 137.677,275.871 C138.09,275.533 138.498,275.191 138.905,274.846 C139.905,274 140.895,273.141 141.882,272.278 L142.095,272.091 L141.345,270.591 L141.275,270.908 C141.205,271.086 141.204,271.088 141.083,271.237 L136.166,275.666 C136.244,275.757 136.323,275.847 136.401,275.938 C136.443,275.987 136.484,276.036 136.526,276.085 C136.599,276.173 136.671,276.261 136.741,276.351 C136.784,276.405 136.826,276.46 136.866,276.515 L136.866,276.515 Z M132.402,271.216 C132.383,271.179 132.359,271.145 132.332,271.114 C132.355,271.148 132.379,271.182 132.402,271.216 L132.402,271.216 Z" id="Fill-10" fill="#0A0A08" sketch:type="MSShapeGroup"></path>
        </g>
    </g>
</svg>