<svg width="900" height="600" viewBox="0 0 900 600" xmlns="http://www.w3.org/2000/svg"><title>Mozambique</title><g fill="none" fill-rule="evenodd"><path d="M0 600h900V0H0v600z" fill="#0A0A08"/><path d="M0 206.25h900V0H0v206.25z" fill="#FFF"/><path d="M0 187.5h900V0H0v187.5z" fill="#13675D"/><path d="M0 600h900V393.5H0V600z" fill="#FFF"/><path d="M0 600h900V412.5H0V600z" fill="#FAE01B"/><path d="M0 0v600l393.75-300L0 0" fill="#C02537"/><path d="M204.37 412.485l-73.154-53.56L58.16 412.5l28.333-86.124-73.528-52.924 90.665.332 27.612-86.284 27.7 86.33 90.595-.403-73.545 53.023 28.378 86.035" fill="#FAE01B"/><path d="M67.724 352.427h52.7c4.24 4.757 13.7 6.697 22.71-.057 16.518-9.044 48.473.057 48.473.057l6.292-6.685-15.34-50.34-5.505-5.9s-11.798-7.078-34.215-4.718c-22.417 2.36-30.283-.786-30.283-.786s-19.663 2.36-25.17 5.112c-.604.49-6.292 6.292-6.292 6.292l-13.37 57.025" fill="#FFF"/><path d="M121.204 352.348c.058.06.116.118.176.176.208.203.424.397.647.583.684.567 1.435 1.053 2.226 1.458 1.13.576 2.34.987 3.58 1.24.342.07.687.13 1.033.176.416.056.833.095 1.25.117.215.01.43.017.643.02l.184.002c.28 0 .562-.007.843-.02.546-.028 1.09-.083 1.63-.162 1.732-.255 3.42-.77 5.014-1.49 1.038-.466 2.035-1.02 2.988-1.64.29-.188.577-.384.86-.586-.22-.27-.45-.535-.684-.793-1.834-2.024-4.054-3.668-6.424-5.01-.44-.25-.884-.488-1.334-.718-.507-.258-1.02-.505-1.538-.74l-.03.046-.205.134-.24.046c-.13-.027-.19-.04-.25-.07-.473.233-.942.47-1.406.717-1.005.532-1.99 1.1-2.952 1.706-.917.58-1.812 1.192-2.677 1.845-.722.546-1.424 1.12-2.093 1.73-.258.236-.51.476-.757.723-.165.167-.327.336-.484.51zm-34.2-62.014c-.39.383-.776.77-1.162 1.155-1.36 1.36-2.708 2.73-4.055 4.1l-.123.125-13.152 56.087h51.506c.21-.247.432-.485.66-.718.298-.306.608-.603.924-.892.388-.354.787-.696 1.194-1.028.942-.768 1.927-1.484 2.94-2.155 1.098-.73 2.23-1.406 3.39-2.035.463-.252.93-.496 1.402-.733l.042-.022c-.493-.198-.99-.39-1.49-.57-1.49-.545-3.007-1.017-4.54-1.433-1.853-.504-3.73-.924-5.617-1.28-2.146-.404-4.308-.725-6.476-.98-2.433-.287-4.875-.49-7.32-.63-2.544-.145-5.09-.218-7.64-.232-2.774-.015-5.55.04-8.32.16-2.136.092-4.268.222-6.398.393-.812.065-1.622.137-2.43.216-.63.06-1.258.127-1.886.202l-.035.004c-.243-.018-.246-.02-.462-.128l-.16-.184-.076-.232.018-.243.11-.218.185-.16c.077-.025.154-.052.23-.076.013-.004.026-.004.04-.005.036-.005.072-.01.11-.013l.427-.05c.302-.033.603-.065.905-.095.973-.1 1.947-.186 2.922-.265 1.72-.138 3.446-.25 5.172-.336 1.61-.08 3.22-.14 4.833-.178 3.95-.09 7.902-.05 11.847.154 1.827.095 3.652.225 5.473.398 1.91.18 3.818.408 5.717.69 2.802.417 5.588.955 8.332 1.662 2.112.545 4.2 1.19 6.236 1.97.312.12.623.244.933.37l.384-54.026.05-.24.136-.2.204-.135.24-.044c.237.05.24.05.44.186l.134.204.047.24-.385 54.202c.765-.346 1.537-.676 2.316-.988 1.82-.73 3.68-1.368 5.56-1.923 2.357-.695 4.752-1.26 7.167-1.712 3.076-.574 6.186-.963 9.306-1.196 3.897-.29 7.81-.338 11.714-.187 2.95.114 5.896.34 8.83.664.823.09 1.644.188 2.465.294l.75.1c.006 0 .496.066.502.068.08.018.154.053.23.08l.183.16.107.22.015.243c-.07.2-.063.28-.24.415-.066.05-.148.07-.22.106l-.244.016c-.25-.034-.5-.068-.748-.1-.165-.023-.33-.044-.495-.065-.49-.062-.98-.123-1.472-.18-1.116-.132-2.233-.25-3.352-.35-4.01-.37-8.04-.547-12.068-.49-3.7.05-7.4.302-11.066.798-2.96.4-5.9.958-8.792 1.705-2.406.62-4.78 1.372-7.095 2.27-.745.29-1.484.596-2.217.917l-.01.005.25.12.283.14c.517.26 1.027.53 1.53.81 1.028.577 2.027 1.205 2.983 1.894 1.21.868 2.35 1.834 3.386 2.904.372.386.732.785 1.077 1.197.083.1.165.2.246.302l.094-.05c.373-.19.752-.37 1.135-.543 1.942-.875 3.985-1.514 6.06-1.987 1.482-.34 2.984-.592 4.493-.78 1.755-.218 3.52-.347 5.288-.41 2.784-.096 5.573-.027 8.352.16 2.936.197 5.863.525 8.773.954 2.736.403 5.458.895 8.162 1.47 1.08.23 2.16.47 3.233.73.827.198 1.653.405 2.475.627h.002l5.786-6.146-15.19-49.855-3.976-4.26 9.075 42.35.004.243-.09.227-.17.175-.225.097-.244.003-.226-.09-.175-.17-.097-.223-9.44-44.047v-.15c-.554-.297-1.123-.562-1.697-.813-.7-.305-1.413-.586-2.133-.847-.99-.36-1.997-.682-3.01-.973-1.114-.32-2.238-.6-3.37-.846-2.59-.565-5.216-.95-7.855-1.185-3.076-.275-6.17-.345-9.255-.243-1.473.05-2.946.137-4.415.262-.428.037-.855.076-1.283.12-.435.042-.87.09-1.304.133l-.772.076c-.83.08-1.66.156-2.49.224-2.7.223-5.405.383-8.112.456-1.458.04-2.916.054-4.374.036-1.285-.016-2.57-.055-3.855-.126-1.06-.058-2.12-.138-3.175-.245-.965-.098-1.927-.218-2.884-.37-.754-.12-1.505-.26-2.25-.43-.26-.058-.522-.122-.782-.19-.31-.083-.62-.174-.926-.277l-.016-.006c-1 .123-2 .255-3 .392-1.435.196-2.87.403-4.3.622-1.457.224-2.912.46-4.364.71-1.332.232-2.66.476-3.986.742-1.02.204-2.037.42-3.05.655-.88.204-1.76.423-2.63.668-.71.2-1.415.414-2.107.664-.178.065-.354.13-.53.2v.053l-5.24 22.715c-.098.22-.1.224-.277.39l-.228.086-.244-.007-.222-.1c-.056-.06-.124-.11-.167-.18-.12-.19-.087-.26-.08-.47l4.945-21.446zm56.766 62.404l-.01.025c-.057.06-.112.125-.174.18-.03.027-.065.045-.097.067l-.197.132c-.193.13-.388.258-.584.385-.63.407-1.274.795-1.93 1.158-2.067 1.145-4.282 2.06-6.608 2.508-.616.12-1.238.205-1.862.255-.34.027-.68.043-1.022.05h-.278c-.186 0-.37-.002-.556-.01-.31-.01-.618-.03-.926-.06-.84-.08-1.675-.227-2.493-.437-.88-.225-1.742-.522-2.578-.878-.922-.39-1.812-.854-2.67-1.368-.537-.32-1.06-.662-1.572-1.02l-.463-.33c-.1-.073-.177-.122-.25-.236-.02-.034-.04-.07-.053-.106H67.723l-.22-.04c-.064-.038-.136-.066-.192-.115-.114-.1-.188-.238-.208-.39-.01-.073.008-.148.012-.222l13.37-57.025c.06-.16.062-.16.163-.295l.898-.915c1.133-1.15 2.268-2.302 3.41-3.444.394-.395.79-.79 1.187-1.18.147-.144.295-.288.444-.43.117-.113.236-.226.36-.333l.022-.02.018-.015.12-.078c.577-.285 1.177-.52 1.785-.73.704-.245 1.42-.458 2.14-.657.858-.236 1.723-.45 2.59-.65.985-.227 1.973-.437 2.963-.635 1.336-.267 2.676-.514 4.018-.747 1.46-.252 2.924-.49 4.388-.713 1.315-.202 2.632-.393 3.95-.575 1.16-.16 2.32-.315 3.48-.457l.058-.007c.05 0 .102-.006.152 0 .08.01.15.04.226.066l.143.05c.272.088.547.166.824.238.292.076.585.145.88.21.756.166 1.52.3 2.286.416.86.13 1.722.233 2.586.32 1.234.12 2.472.206 3.71.263 2.344.11 4.69.12 7.035.064 2.733-.066 5.464-.222 8.19-.443.99-.08 1.978-.168 2.967-.266.344-.033.688-.068 1.03-.104.264-.027.527-.055.79-.08.217-.023.435-.043.653-.064 1.384-.126 2.77-.223 4.16-.285 3.39-.15 6.793-.1 10.176.192 3.158.273 6.3.755 9.382 1.494 1.13.27 2.25.576 3.358.92.983.307 1.957.644 2.916 1.018.686.268 1.365.554 2.032.866.274.128.545.26.813.398.194.1.386.202.573.31l.01.007.14.112 5.505 5.9c.084.113.084.113.14.243l15.34 50.34c.022.188.054.246-.025.43-.028.065-.08.12-.12.18l-6.29 6.686c-.062.044-.115.1-.183.134-.068.033-.143.053-.218.06-.126.01-.207-.016-.314-.046-.09-.025-.178-.05-.267-.073-.145-.04-.29-.077-.436-.116-.995-.26-1.995-.505-2.998-.737-1.12-.26-2.245-.502-3.372-.73-2.587-.525-5.19-.975-7.803-1.34-2.748-.385-5.51-.677-8.28-.85-2.574-.158-5.156-.214-7.733-.124-1.73.06-3.46.187-5.177.4-1.468.183-2.93.43-4.37.758-1.995.456-3.958 1.07-5.825 1.908-.364.164-.724.337-1.08.518-.078.04-.157.08-.235.122z" fill="#0A0A08"/><path d="M144.858 328.05l.042.004-.04-.01-.002.006zm-96.917 46.2c-.278 0-.555-.03-.827-.087-.35-.076-.692-.197-1.017-.35-.18-.084-.354-.178-.525-.28l-.156-.13L33.02 358.87l-.117-.21c-.026-.207-.065-.273.034-.472.035-.072.097-.127.146-.19l19.74-17.43.06-.047c.02-.013.04-.025.06-.04.04-.026.08-.052.12-.08l.238-.152c.313-.196.635-.376.965-.54.434-.215.883-.402 1.342-.56.507-.178 1.025-.32 1.55-.435 1.143-.25 2.31-.374 3.474-.478l.04-.004 10.86-10.86.203-.135.24-.048h2.7l19.66-17.474.18-.112c.18-.038.234-.074.42-.017.067.02.125.065.19.097l1.068.8 2.04-1.747.318-1.275c.07-.167.07-.168.183-.308l1.762-1.622c2.594-2.385 5.19-4.766 7.803-7.13.893-.808 1.788-1.614 2.688-2.415.39-.346.78-.69 1.174-1.033.3-.262.603-.522.913-.775l.06-.05.032-.024c-.024-.04-.048-.08-.073-.118l-.08-.126-.025-.036-16.01 12.807-.187.103c-.183.03-.238.063-.42-.004-.067-.025-.123-.07-.184-.107l-1.18-.983v1.237l-.06.266-.166.216-21.306 17.633c-.07.037-.136.09-.214.114-.077.024-.16.033-.24.026-.166-.016-.318-.095-.424-.222-.052-.062-.092-.136-.116-.213-.025-.078-.018-.16-.027-.242l.736-8.45c.018-.067.025-.14.054-.203.06-.13.16-.237.29-.3.062-.032.134-.042.2-.062l2.758-.345 32.383-26.925.326-1.62c.075-.196.076-.198.213-.358l11.02-9.184c.07-.038.133-.09.21-.115.075-.024.158-.033.238-.027.08.006.16.03.23.065.147.073.258.2.312.354.026.076.024.158.033.238 0 .012 0 .025-.002.038 0 .035-.002.07-.004.107l-.002.14c0 .138.003.275.012.41.017.252.052.5.105.746.048.216.11.43.183.637.206.575.513 1.108.88 1.594.393.516.85.98 1.34 1.403.14.122.283.24.428.358.186.15.373.292.564.432.25.185.506.363.764.537l.06.04.044.03.102-.06c.206-.127.41-.257.608-.393.243-.166.482-.34.72-.513l.786-.585c.226-.167.454-.332.685-.492.192-.132.386-.26.583-.383l.02-.012c-.186-.265-.37-.533-.553-.8l-.04-.055c-.235.167-.468.34-.7.512-.303.226-.606.455-.91.68-.102.077-.205.153-.308.228-.277.2-.556.4-.84.59l-.203.087c-.192.01-.254.04-.433-.054-.124-.063-.19-.15-.28-.248-.096-.108-.195-.216-.293-.324l-.372-.407c-.41-.446-.824-.89-1.236-1.335-.155-.168-.31-.335-.462-.503l-.395-.434-.102-.114c-.04-.068-.095-.13-.122-.204-.056-.152-.05-.32.015-.467.032-.072.09-.13.135-.195l2.834-2.764-18.878-21.07c-.05.02-.1.042-.148.063-.23.094-.462.18-.698.255-.443.14-.896.246-1.355.32-.96.152-1.935.163-2.902.097-.33-.023-.66-.054-.99-.09l-.332-.04c-.118-.016-.206-.02-.322-.08-.065-.036-.117-.093-.175-.138l-5.967-6.674-.86 10.416-.043.177-.09.16-33.063 41.876c-.055.05-.102.11-.165.147-.13.078-.28.107-.428.083-.073-.013-.145-.038-.21-.075-.063-.036-.112-.094-.168-.142l-16.163-19.47-.124-.24-.01-.27.103-.248 29.02-41.143c.166-.16.17-.162.38-.25l5.143-1.103c.085 0 .17-.002.255 0 .01 0 .02.002.027.004l.078.015.206.04.307.057c.73.132 1.462.248 2.197.346.553.073 1.107.137 1.663.187.538.048 1.077.084 1.617.1.49.015.984.015 1.475-.015.317-.02.636-.05.95-.103.257-.043.513-.1.758-.188.152-.054.3-.12.435-.21.082-.053.16-.118.216-.198.01-.08.024-.16.037-.238.05-.304.108-.607.172-.908.27-1.266.678-2.513 1.295-3.655.417-.775.933-1.497 1.553-2.12.402-.406.847-.767 1.327-1.076.34-.217.694-.408 1.062-.57.253-.113.513-.212.777-.298.195-.064.393-.12.593-.17 1.386-.346 2.84-.355 4.25-.155.255.037.51.08.763.13.33.065.66.14.985.226.39.103.776.22 1.158.35l.055.02c.138.067.14.067.257.167l12.49 13.592c.037.06.085.112.113.176.075.176.047.23.03.412l-1.013 3.716c5.417 6.122 10.835 12.243 16.254 18.364 1.01 1.142 2.02 2.284 3.033 3.425l.085.096.09-.06c.177-.123.347-.256.514-.39.207-.168.41-.34.61-.516.487-.426.962-.866 1.432-1.31.733-.692 1.455-1.397 2.173-2.105.502-.494 1-.99 1.504-1.484.1-.1.202-.197.303-.295.104-.1.207-.2.312-.297.07-.066.143-.13.22-.19l.23-.11.257-.006.237.096.178.182 1.082 1.69.69-2.065.063-.136.094-.116 11.756-11.387.213-.135.25-.04 7.82.356 10.277-9.57.395-6.514.074-.26.178-.204.247-.11.27.005.244.12.172.21.037.074c.188.35.452.656.737.932.19.182.39.353.597.515.236.183.48.355.728.518.4.26.812.5 1.233.725.43.23.867.44 1.31.64.36.16.722.312 1.09.453.284.11.57.213.86.303l.013.002c.063-.064.126-.13.188-.196l.29-.31.132-.14c.133-.136.267-.272.405-.403.12-.115.243-.227.37-.335.102-.087.206-.17.312-.25.077-.058.155-.114.235-.168.4-.267.852-.483 1.335-.533.063-.006.125-.01.188-.01.183-.002.366.023.542.074.174.052.34.13.493.227.193.124.363.28.512.454.062.073.114.152.166.23.09.134.174.27.252.41.218.392.39.82.42 1.273.007.08.008.164.004.246-.005.126-.023.253-.052.377-.033.143-.082.283-.14.418-.086.195-.194.38-.295.567-.02.037-.04.074-.057.11-.03.065-.06.13-.08.195l.806.606 41.483-29.3.244-.103.266.007.24.116.167.205.07.256-.044.26-.15.22-38.402 36.862-.138.1c-.125.067-.253.125-.386.174-.323.12-.665.18-1.01.2-.417.02-.84-.024-1.247-.117-.145-.034-.29-.073-.43-.12-.317-.102-.623-.236-.91-.407l-.024-.016-22.846 19.36-.23.124-.26.02-.245-.09c-.063-.06-.128-.118-.188-.18-.013-.014-.02-.032-.03-.047l-.03-.045-.094-.135c-.05-.073-.103-.147-.156-.22-.256-.354-.527-.698-.818-1.024-.385-.43-.804-.832-1.26-1.19-.423-.333-.877-.627-1.354-.88-.36-.19-.735-.357-1.116-.503l-7.96 6.92-.005.163c-.002.085-.002.085-.007.17-.006.12-.015.24-.027.358-.025.253-.064.504-.125.75-.08.33-.204.646-.37.943-.253.456-.594.857-.936 1.25l-.05.056-.106.12-5.13 5.47c21.647 24.855 43.293 49.71 64.945 74.56 1.952 2.242 3.904 4.482 5.857 6.72.27.31.537.618.807.926l.014.015.126.215.032.246c-.046.657-.108 1.313-.23 1.96-.083.448-.196.892-.36 1.318-.1.26-.22.512-.362.75-.134.227-.286.442-.456.642-.347.408-.763.752-1.208 1.047-.436.288-.9.533-1.37.758-.327.157-.66.304-.994.445l-.364.152-.188.076c-.083.02-.168.03-.252.046l-.25-.06-.203-.153-73.06-83.29-12.022 10.254-.218.12-.248.026-.24-.073-.19-.162-4.754-6.022-.32 1.115 3.14 4.532.1.238-.005.257-.107.234-.193.17c-.082.025-.163.053-.245.078-.006.002-.013 0-.02.002l-.022.002-.075.01-.182.026c-.386.06-.77.142-1.147.242-.274.072-.545.155-.813.248-.2.07-.4.146-.594.228-.15.062-.297.13-.443.2-.793.384-1.54.894-2.11 1.572-.08.094-.156.19-.227.29-.09.127-.175.258-.25.393-.12.21-.22.43-.303.655-.126.345-.207.704-.247 1.068-.036.317-.042.637-.023.955.005.087.012.173.02.26.01.095.02.19.04.282.04.165.108.322.194.468.114.195.258.373.414.536.206.217.437.412.677.59.353.265.73.497 1.114.71.414.232.84.44 1.273.636.748.337 1.515.633 2.288.905.9.316 1.81.6 2.727.863.93.266 1.864.51 2.803.74 1.22.3 2.45.574 3.68.83 1.476.305 2.956.585 4.44.845 1.706.3 3.416.572 5.13.824 1.365.2 2.73.39 4.1.563.518.066 1.037.13 1.556.19.45.055.9.107 1.35.155l.223.067c.157.124.227.143.3.343.025.073.023.153.036.23l-.04 1.275c-.058 1.875-.122 3.75-.197 5.624-.03.74-.062 1.482-.097 2.223-.03.668-.064 1.336-.103 2.004l-.046.74c-.012.182-.025.363-.04.544-.01.157-.024.313-.038.47-.02.213-.04.427-.075.638-.014.098-.032.197-.062.29-.017.057-.04.113-.07.164-.008.014-.033.057-.047.075-.022.03-.04.052-.067.08-.017.016-.058.048-.07.058-.02.015-.04.026-.06.04-.024.014-.05.024-.076.036h-.002l-.028.01-.115.048c-.252.104-.508.2-.768.282-.704.224-1.43.372-2.164.463-.85.105-1.706.134-2.56.112-1.306-.035-2.605-.188-3.89-.41-1.514-.264-3.01-.625-4.488-1.045-1.153-.328-2.295-.693-3.428-1.085-1.124-.39-2.238-.805-3.344-1.242-2.426-.96-4.812-2.016-7.166-3.138-2.736-1.304-5.43-2.696-8.084-4.155-1.067-.585-2.127-1.182-3.18-1.79-1.037-.6-2.068-1.208-3.09-1.833l-.05-.032-1.602 2.135 3.07 4.777.095.256-.023.27-.137.236-8.58 9.294 3.947 13.99.018.254-.085.24-.174.186-6.247 4.41-.207.094c-.076.005-.152.024-.228.015-.153-.02-.295-.094-.396-.21-.05-.057-.078-.13-.116-.197l-5.022-13.77-3.254-2.873-.155-.21-.056-.255.052-.256.152-.21 7.715-6.98c.193-.12.195-.12.42-.163h3.852c.094-.088.183-.18.27-.275.105-.113.207-.228.31-.343.25-.29.498-.583.742-.88.705-.853 1.39-1.722 2.07-2.596l.045-.057-1.89-2.43-2.74 2.13c-.083.124-.16.253-.22.39-.034.078-.062.16-.076.244-.01.06-.014.12-.002.18.02.105.094.19.173.26.016.014.033.028.05.04.024.02.05.038.074.054.126.086.265.153.407.21.21.087.426.15.644.21l.235.117.164.204.066.254-.043.258-.144.218-.223.14-.26.037c-.18-.013-.363-.027-.544-.043-.197-.018-.393-.038-.59-.06-.333-.035-.667-.074-1-.11-.246-.026-.49-.05-.736-.07l-14.326 12.73c.003.056.004.112.004.167v.15c-.01.334-.04.665-.096.993-.105.603-.295 1.19-.56 1.74-.167.343-.362.67-.58.983-.117.163-.24.322-.367.476l-.025.03-7.714 9.55-18.37 22.044c-.05.044-.097.088-.148.13l-.067.04c-.033.022-.067.042-.1.062-.125.072-.25.14-.38.2-.328.158-.675.28-1.033.35-.22.044-.443.067-.667.073h-.074zm88.926-98.735c.275-.208.544-.426.81-.644.414-.337.822-.68 1.23-1.024 1-.846 1.99-1.705 2.976-2.568l.213-.187-.75-1.5-.07.318c-.07.178-.07.18-.192.33l-4.917 4.428c.078.09.157.18.235.272l.126.147c.073.088.145.176.215.266.044.055.086.11.126.165zm-4.464-5.3c-.02-.036-.043-.07-.07-.1l.07.1z" fill="#0A0A08"/></g></svg>