<?xml version="1.0" encoding="utf-8"?>
<!-- Generator: Adobe Illustrator 19.1.0, SVG Export Plug-In . SVG Version: 6.00 Build 0)  -->
<svg version="1.1" id="Layer_1" xmlns="http://www.w3.org/2000/svg" xmlns:xlink="http://www.w3.org/1999/xlink" x="0px" y="0px"
	 viewBox="144 97 900 600" style="enable-background:new 144 97 900 600;" xml:space="preserve">
<style type="text/css">
	.st0{fill:#FFFFFF;}
	.st1{fill:#007168;}
	.st2{fill:#FBE100;}
	.st3{fill:#D21F36;}
	.st4{fill:#FFFFFF;stroke:#000000;stroke-width:1.25;stroke-linecap:round;stroke-linejoin:round;}
	.st5{fill:none;stroke:#000000;stroke-width:1.25;stroke-linecap:round;stroke-linejoin:round;}
	.st6{stroke:#000000;stroke-width:1.25;stroke-linecap:round;stroke-linejoin:round;}
</style>
<rect x="144" y="97" width="900" height="600"/>
<rect x="144" y="97" class="st0" width="900" height="206.2"/>
<rect x="144" y="97" class="st1" width="900" height="187.5"/>
<rect x="144" y="490.5" class="st0" width="900" height="206.5"/>
<rect x="144" y="509.5" class="st2" width="900" height="187.5"/>
<path class="st3" d="M144,97v600l393.8-300L144,97z"/>
<path class="st2" d="M348.4,509.5l-73.2-53.6l-73.1,53.6l28.3-86.1L157,370.5l90.7,0.3l27.6-86.3l27.7,86.3l90.6-0.4l-73.5,53
	L348.4,509.5z"/>
<path class="st4" d="M211.7,449.4h52.7c4.2,4.8,13.7,6.7,22.7-0.1c16.5-9,48.5,0.1,48.5,0.1l6.3-6.7l-15.3-50.3l-5.5-5.9
	c0,0-11.8-7.1-34.2-4.7c-22.4,2.4-30.3-0.8-30.3-0.8s-19.7,2.4-25.2,5.1c-0.6,0.5-6.3,6.3-6.3,6.3L211.7,449.4z"/>
<path class="st5" d="M222.3,436.4c0,0,50.3-6.3,64.9,13c-8.2,5.6-15.5,6.1-23.2,0.4c1.2-2.1,18.1-19.7,61-13.8"/>
<path class="st6" d="M276.2,386.1l-0.4,55.5 M321.1,386.9l9.4,44 M231.9,386.2l-5.2,22.7"/>
<path class="st6" d="M177.5,455.5l12.4,14.5c1.5,0.9,2.7,0.8,4,0l18.4-22l7.7-9.6c1.2-1.4,1.6-3,1.5-4.4l14.7-13.1
	c1.2,0.1,1.9,0.2,3.1,0.3c-1.4-0.4-2.5-1.1-1.3-2.6l3.3-2.6l2.6,3.3c0,0-3.7,4.8-4,4.8s-4,0-4,0l-7.7,7l3.4,3l5.1,13.9l6.2-4.4
	l-4-14.3l8.8-9.6l-3.3-5.1l2.2-2.9c0,0,30.5,19.2,42.3,14.1c0.3,0.1,0.7-13.7,0.7-13.7s-31.6-3.3-32.3-9.6c-0.7-6.2,7-7,7-7
	l-3.3-4.8l0.7-2.6l5.5,7l12.5-10.7l73.5,83.8c4-1.6,4.9-2.6,5.1-6.6c-0.1-0.1-72-82.7-72-82.7l5.5-5.9c1.1-1.2,1.5-1.7,1.5-3.7
	l8.4-7.3c2.5,0.9,4.2,2.4,5.5,4.4l23.2-19.7c0.6,0.6,2.5,1.2,3.7,0.5l38.4-36.9L330.6,340l-1.5-1.1c0-1.2,1.5-1.5,0-3.7
	c-1.6-2-4,1.8-4.4,1.8c-0.4,0-6.1-2-7.3-4.6l-0.4,6.8l-10.7,9.9l-8.1-0.4l-11.8,11.4l-1.5,4.4l1.8,3.7c0,0-6.2,5.5-6.2,5.1
	c0-0.4-1.3-1.6-1.3-1.8l5.4-4.8l0.7-3.3l-1.8-2.8c-0.5,0.4-7.4,7.6-7.8,6.8c-0.6-0.7-19.8-22.4-19.8-22.4l1.1-4l-12.5-13.6
	c-4.6-1.6-11.8-1.8-13.2,8.1c-1.1,2.3-10.7,0.4-10.7,0.4l-5.1,1.1l-29,41.1l16.2,19.5l33.1-41.9l1-11.9l6.9,7.8
	c2.3,0.3,4.5,0.3,6.6-0.7l19.6,21.9l-3.3,3.2c1.1,1.2,1.9,2,3,3.2c1.1-0.7,2.2-1.6,3.3-2.4c0.4,0.5,1,1.4,1.3,1.9
	c-1.6,0.9-2.8,2.1-4.4,3c-2.6-1.7-5.2-3.8-5-7.2l-11,9.2l-0.4,1.8l-32.7,27.2l-2.9,0.4l-0.7,8.4l21.3-17.6v-2.6l2.2,1.8l16.5-13.2
	c0,0,1.1,1.5,0.7,1.5c-0.4,0-14.7,13.2-14.7,13.2l-0.4,1.5l-2.6,2.2l-1.5-1.1l-19.8,17.6H216l-11,11c-2.8,0.2-5.3,0.5-7.7,2.2
	L177.5,455.5z"/>
</svg>
