<svg id="Layer_1" xmlns="http://www.w3.org/2000/svg" viewBox="144 97 900 600"><style>.st0{fill:#FFFFFF;} .st1{fill:#007168;} .st2{fill:#FBE100;} .st3{fill:#D21F36;} .st4{fill:#FFFFFF;stroke:#000000;stroke-width:1.25;stroke-linecap:round;stroke-linejoin:round;} .st5{fill:none;stroke:#000000;stroke-width:1.25;stroke-linecap:round;stroke-linejoin:round;} .st6{stroke:#000000;stroke-width:1.25;stroke-linecap:round;stroke-linejoin:round;}</style><path d="M144 97h900v600H144z"/><path class="st0" d="M144 97h900v206.2H144z"/><path class="st1" d="M144 97h900v187.5H144z"/><path class="st0" d="M144 490.5h900V697H144z"/><path class="st2" d="M144 509.5h900V697H144z"/><path class="st3" d="M144 97v600l393.8-300L144 97z"/><path class="st2" d="M348.4 509.5l-73.2-53.6-73.1 53.6 28.3-86.1-73.4-52.9 90.7.3 27.6-86.3 27.7 86.3 90.6-.4-73.5 53 28.3 86.1z"/><path class="st4" d="M211.7 449.4h52.7c4.2 4.8 13.7 6.7 22.7-.1 16.5-9 48.5.1 48.5.1l6.3-6.7-15.3-50.3-5.5-5.9s-11.8-7.1-34.2-4.7c-22.4 2.4-30.3-.8-30.3-.8s-19.7 2.4-25.2 5.1c-.6.5-6.3 6.3-6.3 6.3l-13.4 57z"/><path class="st5" d="M222.3 436.4s50.3-6.3 64.9 13c-8.2 5.6-15.5 6.1-23.2.4 1.2-2.1 18.1-19.7 61-13.8"/><path class="st6" d="M276.2 386.1l-.4 55.5m45.3-54.7l9.4 44m-98.6-44.7l-5.2 22.7M177.5 455.5l12.4 14.5c1.5.9 2.7.8 4 0l18.4-22 7.7-9.6c1.2-1.4 1.6-3 1.5-4.4l14.7-13.1c1.2.1 1.9.2 3.1.3-1.4-.4-2.5-1.1-1.3-2.6l3.3-2.6 2.6 3.3s-3.7 4.8-4 4.8h-4l-7.7 7 3.4 3 5.1 13.9 6.2-4.4-4-14.3 8.8-9.6-3.3-5.1 2.2-2.9s30.5 19.2 42.3 14.1c.3.1.7-13.7.7-13.7s-31.6-3.3-32.3-9.6c-.7-6.2 7-7 7-7l-3.3-4.8.7-2.6 5.5 7 12.5-10.7 73.5 83.8c4-1.6 4.9-2.6 5.1-6.6-.1-.1-72-82.7-72-82.7l5.5-5.9c1.1-1.2 1.5-1.7 1.5-3.7l8.4-7.3c2.5.9 4.2 2.4 5.5 4.4l23.2-19.7c.6.6 2.5 1.2 3.7.5l38.4-36.9-41.9 29.7-1.5-1.1c0-1.2 1.5-1.5 0-3.7-1.6-2-4 1.8-4.4 1.8-.4 0-6.1-2-7.3-4.6l-.4 6.8-10.7 9.9-8.1-.4-11.8 11.4-1.5 4.4 1.8 3.7s-6.2 5.5-6.2 5.1c0-.4-1.3-1.6-1.3-1.8l5.4-4.8.7-3.3-1.8-2.8c-.5.4-7.4 7.6-7.8 6.8-.6-.7-19.8-22.4-19.8-22.4l1.1-4-12.5-13.6c-4.6-1.6-11.8-1.8-13.2 8.1-1.1 2.3-10.7.4-10.7.4l-5.1 1.1-29 41.1 16.2 19.5 33.1-41.9 1-11.9 6.9 7.8c2.3.3 4.5.3 6.6-.7l19.6 21.9-3.3 3.2c1.1 1.2 1.9 2 3 3.2 1.1-.7 2.2-1.6 3.3-2.4.4.5 1 1.4 1.3 1.9-1.6.9-2.8 2.1-4.4 3-2.6-1.7-5.2-3.8-5-7.2l-11 9.2-.4 1.8-32.7 27.2-2.9.4-.7 8.4 21.3-17.6v-2.6l2.2 1.8 16.5-13.2s1.1 1.5.7 1.5c-.4 0-14.7 13.2-14.7 13.2l-.4 1.5-2.6 2.2-1.5-1.1-19.8 17.6H216l-11 11c-2.8.2-5.3.5-7.7 2.2l-19.8 17.5z"/></svg>