<?xml version="1.0" encoding="utf-8"?>
<!-- Generator: Adobe Illustrator 19.1.0, SVG Export Plug-In . SVG Version: 6.00 Build 0)  -->
<svg version="1.1"
	 id="svg2315" xmlns:svg="http://www.w3.org/2000/svg" xmlns:dc="http://purl.org/dc/elements/1.1/" xmlns:rdf="http://www.w3.org/1999/02/22-rdf-syntax-ns#" xmlns:cc="http://web.resource.org/cc/" inkscape:output_extension="org.inkscape.output.svg.inkscape" sodipodi:version="0.32" sodipodi:modified="true" sodipodi:docbase="C:\Wikipedia" sodipodi:docname="Flag_of_Nepal.svg" inkscape:version="0.45" xmlns:inkscape="http://www.inkscape.org/namespaces/inkscape" xmlns:sodipodi="http://sodipodi.sourceforge.net/DTD/sodipodi-0.dtd"
	 xmlns="http://www.w3.org/2000/svg" xmlns:xlink="http://www.w3.org/1999/xlink" x="0px" y="0px" viewBox="207 12 1026 770"
	 style="enable-background:new 207 12 1026 770;" xml:space="preserve">
<style type="text/css">
	.st0{stroke:#22408C;stroke-width:5.1647;}
	.st1{fill:#CE2028;}
	.st2{clip-path:url(#SVGID_2_);fill:#FFFFFF;}
	.st3{clip-path:url(#SVGID_4_);fill:#CE2028;}
	.st4{fill:#FFFFFF;}
</style>
<sodipodi:namedview  id="base" inkscape:window-height="744" inkscape:pageshadow="2" inkscape:window-y="-4" inkscape:pageopacity="0.0" inkscape:current-layer="svg2315" inkscape:window-width="1280" inkscape:window-x="-4" borderopacity="1.0" objecttolerance="10.0" inkscape:zoom="0.48961039" pagecolor="#ffffff" inkscape:cy="330.46015" gridtolerance="10.0" guidetolerance="10.0" inkscape:cx="315" bordercolor="#666666">
	</sodipodi:namedview>
<path id="path2325" class="st0" d="M215.3,50.8v700h525L369,379.5h371.2L215.3,50.8z"/>
<path id="path2327" class="st1" d="M215.3,50.8v700h525L369,379.5h371.2L215.3,50.8z"/>
<g>
	<g>
		<defs>
			<rect id="SVGID_1_" x="194.1" y="234.5" width="437.5" height="262.5"/>
		</defs>
		<clipPath id="SVGID_2_">
			<use xlink:href="#SVGID_1_"  style="overflow:visible;"/>
		</clipPath>
		
			<circle id="circle2331" sodipodi:cy="23.483496" sodipodi:rx="11.950277" sodipodi:ry="11.950277" sodipodi:cx="0" class="st2" cx="369.1" cy="256.2" r="104.6">
		</circle>
	</g>
	<g>
		<defs>
			<rect id="SVGID_3_" x="194.1" y="225.8" width="437.5" height="262.5"/>
		</defs>
		<clipPath id="SVGID_4_">
			<use xlink:href="#SVGID_3_"  style="overflow:visible;"/>
		</clipPath>
		
			<circle id="circle2333" sodipodi:cy="18.786797" sodipodi:rx="12.840097" sodipodi:ry="12.840097" sodipodi:cx="0" class="st3" cx="369.1" cy="215.1" r="112.4">
		</circle>
	</g>
	<g>
		
			<circle id="circle2337" sodipodi:cy="0" sodipodi:rx="1" sodipodi:ry="1" sodipodi:cx="0" class="st4" cx="66.4" cy="49.6" r="8.8">
		</circle>
		<g>
			<g id="_x33_jags">
				<path id="jag" class="st4" d="M69.7,41.5l-1-3.8l-2.4,3.2"/>
				<g id="use2342" transform="matrix(0.9238795,0.3826834,-0.3826834,0.9238795,0,0)">
					<path id="jag_1_" class="st4" d="M72.6,43.4l0.6-3.9l-3.4,2"/>
				</g>
				<g id="use2344" transform="matrix(0.7071068,0.7071068,-0.7071068,0.7071068,0,0)">
					<path id="jag_2_" class="st4" d="M74.5,46.3l2-3.4l-3.9,0.6"/>
				</g>
			</g>
			<g id="_x36_jags">
				<g id="_x33_jags_1_">
					<path id="jag_3_" class="st4" d="M75.1,49.6l3.2-2.4l-3.8-1"/>
					<g id="use2342_1_" transform="matrix(0.9238795,0.3826834,-0.3826834,0.9238795,0,0)">
						<path id="jag_4_" class="st4" d="M74.5,53l3.8-1l-3.2-2.4"/>
					</g>
					<g id="use2346" transform="matrix(0.3826834,0.9238795,-0.9238795,0.3826834,0,0)">
						<path id="jag_5_" class="st4" d="M72.6,55.8l3.9,0.6l-2-3.4"/>
					</g>
				</g>
			</g>
			<g>
				<g id="g2335" transform="matrix(5.5610606,0,0,5.5610606,0,29.044556)">
					<g id="_x33_jags_2_">
						<path id="jag_6_" class="st4" d="M63,41.5l1-3.8l2.4,3.2"/>
						<g id="use2342_2_" transform="matrix(0.9238795,0.3826834,-0.3826834,0.9238795,0,0)">
							<path id="jag_7_" class="st4" d="M60.2,43.4l-0.6-3.9l3.4,2"/>
						</g>
						<g id="use2344_1_" transform="matrix(0.7071068,0.7071068,-0.7071068,0.7071068,0,0)">
							<path id="jag_8_" class="st4" d="M58.3,46.3l-2-3.4l3.9,0.6"/>
						</g>
					</g>
					<g id="_x36_jags_1_">
						<g id="_x33_jags_3_">
							<path id="jag_9_" class="st4" d="M57.6,49.6l-3.2-2.4l3.8-1"/>
							<g id="use2342_3_" transform="matrix(0.9238795,0.3826834,-0.3826834,0.9238795,0,0)">
								<path id="jag_10_" class="st4" d="M58.3,53l-3.8-1l3.2-2.4"/>
							</g>
							<g id="use2348" transform="scale(-1,1)">
								<path id="jag_11_" class="st4" d="M60.2,55.8l-3.9,0.6l2-3.4"/>
							</g>
						</g>
					</g>
				</g>
				<g>
					
						<circle id="circle2352" sodipodi:cy="0" sodipodi:rx="1" sodipodi:ry="1" sodipodi:cx="0" class="st4" cx="8.2" cy="4.6" r="1.6">
					</circle>
					<g>
						<g id="_x32_rays">
							<path id="ray" class="st4" d="M8.6,6.1l-0.4,1l-0.4-1"/>
							<g id="use2357" transform="scale(-1,-1)">
								<path id="ray_1_" class="st4" d="M7.7,3.1l0.4-1l0.4,1"/>
							</g>
						</g>
						<g id="_x34_rays">
							<g id="_x32_rays_1_">
								<path id="ray_2_" class="st4" d="M6.6,5l-1-0.4l1-0.4"/>
								<g id="use2359" transform="matrix(0,1,-1,0,0,0)">
									<path id="ray_3_" class="st4" d="M9.7,4.2l1,0.4L9.7,5"/>
								</g>
							</g>
						</g>
						<g>
							<g>
								<g id="_x32_rays_2_">
									<path id="ray_4_" class="st4" d="M7.7,6.1L6.9,6.8l0.1-1"/>
									<g id="use2357_1_" transform="scale(-1,-1)">
										<path id="ray_5_" class="st4" d="M8.6,3.1l0.8-0.6l-0.1,1"/>
									</g>
								</g>
								<g id="_x34_rays_1_">
									<g id="_x32_rays_3_">
										<path id="ray_6_" class="st4" d="M6.6,4.2L6,3.4l1,0.1"/>
										<g id="use2361" transform="matrix(0.8660254,0.5,-0.5,0.8660254,0,0)">
											<path id="ray_7_" class="st4" d="M9.7,5l0.6,0.8l-1-0.1"/>
										</g>
									</g>
								</g>
								<g id="g2329" transform="translate(-22.628547,0)">
									<g id="g2350" transform="matrix(8.1433983,0,0,8.1433983,0,58.786797)">
										<g id="_x32_rays_4_">
											<path id="ray_8_" class="st4" d="M7,5.7L6,5.9L6.6,5"/>
											<g id="use2357_2_" transform="scale(-1,-1)">
												<path id="ray_9_" class="st4" d="M9.3,3.5l1-0.1L9.7,4.2"/>
											</g>
										</g>
										<g id="_x34_rays_2_">
											<g id="_x32_rays_5_">
												<path id="ray_10_" class="st4" d="M7,3.5l-0.1-1l0.8,0.6"/>
												<g id="use2363" transform="matrix(0.5,0.8660254,-0.8660254,0.5,0,0)">
													<path id="ray_11_" class="st4" d="M9.3,5.7l0.1,1L8.6,6.1"/>
												</g>
											</g>
										</g>
									</g>
								</g>
							</g>
						</g>
					</g>
				</g>
			</g>
		</g>
	</g>
</g>
</svg>
