<svg width="419" height="552" viewBox="0 0 419 552" xmlns="http://www.w3.org/2000/svg"><title>Nepal</title><g fill="none" fill-rule="evenodd"><path d="M2.532 3.7v545.456h409.09l-289.27-289.27h289.27L2.533 3.7" fill="#0A0A08"/><path d="M.52 551.168V.068l418.11 261.83H127.21l289.272 289.27H.522zm406.246-4.025l-289.27-289.27h287.123L4.544 7.336v539.807h402.22z" fill="#263875"/><path d="M2.532 3.7v545.456h409.09l-289.27-289.27h289.27L2.533 3.7" fill="#BC242C"/><path d="M149.71 206.962c16.483-9.868 29.45-25.004 36.574-43.082-.035 44.97-36.5 81.416-81.48 81.416-44.977 0-81.443-36.445-81.478-81.416 7.125 18.078 20.092 33.214 36.575 43.082l6.99-5.23v.002-.003.002L53.16 191.46l16.604-4.234.005-.014-8.748-14.735 16.973 2.445-2.445-16.972 14.734 8.746.014-.006 4.234-16.603 10.273 13.73 10.273-13.73 4.234 16.603.014.006 14.734-8.746-2.443 16.97v.002l16.972-2.445-8.748 14.735.006.014 16.602 4.233-13.73 10.272v.002l.002-.002 6.988 5.23M104.805 492.066l-14.363-33.9h-.01l-.01-.004-29.39 22.175 4.512-36.556v.002l-36.555 4.512 22.174-29.39-.003-.01-.003-.01L17.26 404.52l33.898-14.363.006-.02-22.176-29.39 36.556 4.512-4.512-36.557 29.39 22.175.02-.005 14.363-33.898 14.364 33.898.01.003.01.002 29.388-22.175-4.512 36.557 36.557-4.513-22.175 29.39.002.01.003.01 33.898 14.363-33.897 14.364-.003.01-.002.01 22.175 29.39-36.557-4.512 4.513 36.555-29.39-22.175-.01.003-.01.002-14.365 33.9" fill="#FFF"/></g></svg>