<?xml version="1.0" standalone="no"?>
<!DOCTYPE svg PUBLIC "-//W3C//DTD SVG 1.1//EN" "http://www.w3.org/Graphics/SVG/1.1/DTD/svg11.dtd">
<svg width="100%" height="100%" viewBox="0 0 4275 3209" version="1.1" xmlns="http://www.w3.org/2000/svg" xmlns:xlink="http://www.w3.org/1999/xlink" xml:space="preserve" style="fill-rule:evenodd;clip-rule:evenodd;stroke-linejoin:round;stroke-miterlimit:1.41421;">
    <g id="svg2315" transform="matrix(4.16667,0,0,4.16667,0,0)">
        <g>
            <path d="M8.25,38.75L8.25,738.75L533.25,738.75L162.019,367.519L533.25,367.519L8.25,38.75Z" style="fill:rgb(3,4,4);fill-rule:nonzero;"/>
            <path d="M5.668,741.332L5.668,34.086L542.24,370.102L168.254,370.102L539.485,741.332L5.668,741.332ZM527.016,736.167L155.785,364.937L524.261,364.937L10.833,43.414L10.833,736.167L527.016,736.167Z" style="fill:rgb(33,64,141);"/>
        </g>
        <path d="M8.25,38.75L8.25,738.75L533.25,738.75L162.019,367.519L533.25,367.519L8.25,38.75Z" style="fill:rgb(207,32,40);fill-rule:nonzero;"/>
        <g transform="matrix(0.24,0,0,0.24,0,0)">
            <path d="M821.365,1248.34C909.503,1195.57 978.84,1114.64 1016.94,1017.97C1016.75,1258.44 821.761,1453.32 581.251,1453.32C340.741,1453.32 145.75,1258.44 145.564,1017.97C183.661,1114.64 252.999,1195.57 341.137,1248.34L378.504,1220.38L378.505,1220.38L378.505,1220.37L378.505,1220.37L378.504,1220.38L305.091,1165.44L393.873,1142.8L393.904,1142.73L347.133,1063.94L437.886,1077.01L437.887,1077.01L424.816,986.256L503.606,1033.03L503.679,1033L526.317,944.215L581.25,1017.63L581.25,1017.63L581.251,1017.63L581.251,1017.63L636.185,944.215L658.822,1033L658.896,1033.03L737.685,986.256L724.615,1077.01L724.616,1077.01L815.369,1063.94L768.598,1142.73L768.628,1142.8L857.41,1165.44L783.998,1220.38L783.997,1220.37L783.997,1220.37L783.997,1220.38L783.998,1220.38L821.365,1248.34Z" style="fill:white;"/>
        </g>
        <g transform="matrix(0.24,0,0,0.24,0,0)">
            <path d="M581.251,2772.86L504.445,2591.59L504.389,2591.57L504.336,2591.56L347.188,2710.14L371.313,2514.66L371.317,2514.67L371.314,2514.66L175.84,2538.79L294.415,2381.64L294.401,2381.59L294.385,2381.53L113.122,2304.73L294.385,2227.92L294.401,2227.87L294.416,2227.81L175.839,2070.66L371.314,2094.79L371.312,2094.79L371.314,2094.79L371.315,2094.79L347.185,1899.32L504.335,2017.89L504.389,2017.88L504.445,2017.86L581.25,1836.6L658.056,2017.86L658.113,2017.88L658.168,2017.89L815.314,1899.32L791.189,2094.79L791.185,2094.79L791.188,2094.79L986.662,2070.66L868.086,2227.81L868.101,2227.87L868.116,2227.92L1049.38,2304.73L868.117,2381.53L868.101,2381.59L868.086,2381.64L986.663,2538.79L791.188,2514.66L791.19,2514.66L791.188,2514.66L791.187,2514.66L815.316,2710.14L658.165,2591.56L658.113,2591.57L658.057,2591.59L581.251,2772.86Z" style="fill:white;"/>
        </g>
    </g>
</svg>
