<svg viewBox="0 0 4275 3209" xmlns="http://www.w3.org/2000/svg" fill-rule="evenodd" clip-rule="evenodd" stroke-linejoin="round" stroke-miterlimit="1.414"><path d="M34.375 161.458v2916.67h2187.502L675.08 1531.33h1546.797L34.375 161.458z" fill="#030404" fill-rule="nonzero"/><path d="M23.617 3088.886V142.026l2235.718 1400.067H701.06l1546.796 1546.793H23.616zm2172.285-21.52L649.105 1520.57h1535.318L45.138 180.892v2886.473h2150.764z" fill="#21408D"/><path d="M34.375 161.458v2916.67h2187.502L675.08 1531.33h1546.797L34.375 161.458z" fill="#CF2028" fill-rule="nonzero"/><path d="M821.366 1248.34c88.138-52.77 157.475-133.7 195.575-230.37-.19 240.47-195.178 435.35-435.69 435.35-240.51 0-435.5-194.88-435.686-435.35 38.097 96.67 107.435 177.6 195.573 230.37l37.367-27.96v-.01.01l-73.413-54.94 88.783-22.64.03-.07-46.77-78.79 90.753 13.07-13.07-90.753 78.79 46.774.073-.03 22.637-88.784 54.933 73.415 54.936-73.414L658.823 1033l.074.03 78.79-46.773-13.07 90.754 90.753-13.07-46.77 78.79.03.07 88.78 22.64-73.41 54.94-.002-.01v.01l37.368 27.96z" fill="#fff"/><g><path d="M581.25 2772.862l-76.805-181.27-.056-.02-.054-.01-157.148 118.58 24.125-195.48.004.01-.003-.01-195.474 24.13 118.575-157.15-.014-.05-.015-.06-181.263-76.8 181.263-76.81.016-.05.016-.06-118.577-157.15 195.474 24.13h-.002.002l-24.13-195.47 157.15 118.57.055-.01.055-.02 76.805-181.26 76.807 181.26.057.02.055.01 157.145-118.57-24.125 195.47h-.004.003l195.473-24.13-118.576 157.15.015.06.015.05 181.264 76.81-181.262 76.8-.016.06-.015.05 118.577 157.15-195.475-24.13h-.002l24.13 195.48-157.152-118.58-.052.01-.056.02-76.807 181.27z" fill="#fff"/></g></svg>