<svg viewBox="0 0 3750 1875" xmlns="http://www.w3.org/2000/svg" fill-rule="evenodd" clip-rule="evenodd" stroke-linejoin="round" stroke-miterlimit="1.414"><path fill="#1D429B" fill-rule="nonzero" d="M0 0h3750.003v1875H0z"/><path fill="#CF2028" fill-rule="nonzero" d="M0 937.5h3750.003V1875H0z"/><path d="M0 0v1875l1623.8-937.5L0 0z" fill="#fff" fill-rule="nonzero"/><path d="M595.598 1124.61l12.085 184.37-24.35 24.35-24.35-24.35 12.086-184.37c-4.11-.27-8.182-.67-12.214-1.19l-22.15 168.25-19.87-19.87 29.91-150.37c-24.603-4.86-47.474-14.54-67.593-28.01L393.97 1220.9h-28.1l103.314-134.64c-3.245-2.49-6.407-5.09-9.48-7.79L337.87 1217.4h-34.433v-34.44l138.924-121.83c-2.696-3.07-5.294-6.24-7.788-9.48L299.93 1154.96v-28.1l127.486-85.18c-13.47-20.12-23.148-42.99-28.015-67.59L249.04 1004l-19.87-19.872 168.25-22.15c-.527-4.032-.925-8.104-1.19-12.213L211.85 961.85 187.5 937.5l24.35-24.35 184.378 12.087c.265-4.11.663-8.18 1.19-12.213l-168.25-22.15 19.87-19.87L399.4 900.91c4.868-24.6 14.546-47.473 28.016-67.59L299.93 748.137v-28.1l134.642 103.314c2.494-3.246 5.093-6.407 7.79-9.48L303.436 692.038v-34.433h34.433L459.704 796.53c3.073-2.698 6.235-5.296 9.48-7.79L365.87 654.097h28.1l85.183 127.487c20.12-13.47 42.99-23.15 67.592-28.015l-29.91-150.366 19.87-19.87 22.15 168.25c4.033-.525 8.106-.923 12.214-1.188l-12.087-184.38 24.35-24.35 24.35 24.35-12.085 184.38c4.108.265 8.18.663 12.213 1.188l22.15-168.25 19.872 19.87-29.91 150.365c24.603 4.865 47.474 14.544 67.593 28.014l85.183-127.487h28.1L697.483 788.74c3.246 2.494 6.408 5.092 9.48 7.79l121.834-138.925h34.434v34.433L724.307 813.872c2.697 3.073 5.295 6.234 7.79 9.48l134.642-103.314v28.1L739.25 833.32c13.47 20.12 23.15 42.99 28.016 67.592l150.364-29.91 19.87 19.872-168.25 22.15c.527 4.032.924 8.104 1.19 12.213l184.378-12.086 24.35 24.35-24.35 24.35-184.38-12.085c-.264 4.11-.66 8.18-1.187 12.213l168.25 22.15L917.63 1004l-150.364-29.91c-4.866 24.6-14.545 47.47-28.015 67.59l127.488 85.18v28.1l-134.643-103.31c-2.494 3.24-5.092 6.41-7.79 9.48l138.926 121.83v34.44h-34.433l-121.833-138.93c-3.073 2.7-6.235 5.3-9.48 7.79l103.314 134.64h-28.1l-85.183-127.48c-20.12 13.47-42.99 23.15-67.593 28.01l29.91 150.37-19.87 19.87-22.15-168.25c-4.033.52-8.106.92-12.214 1.19zM1436.3 937.5l-70.46 24.493-1.52 74.578-45.06-59.44-71.4 21.6 42.6-61.23-42.6-61.228 71.4 21.6 45.06-59.438 1.52 74.575 70.46 24.49zM93.75 1712.62l14.02-73.26-63.828-38.61 74.012-9.31 16.992-72.63 31.72 67.52 74.33-6.29-54.408 51.03 28.945 68.75-65.345-35.97-56.438 48.77zM93.75 162.38l56.438 48.77 65.345-35.97-28.945 68.75 54.408 51.03-74.33-6.285-31.72 67.513-16.992-72.633-74.012-9.31 63.83-38.603L93.75 162.38z" fill="#FBD113"/></svg>