<?xml version="1.0" standalone="no"?>
<!DOCTYPE svg PUBLIC "-//W3C//DTD SVG 1.1//EN" "http://www.w3.org/Graphics/SVG/1.1/DTD/svg11.dtd">
<svg width="100%" height="100%" viewBox="0 0 3750 1875" version="1.1" xmlns="http://www.w3.org/2000/svg" xmlns:xlink="http://www.w3.org/1999/xlink" xml:space="preserve" style="fill-rule:evenodd;clip-rule:evenodd;stroke-linejoin:round;stroke-miterlimit:1.41421;">
    <g id="Layer 1" transform="matrix(4.16667,0,0,4.16667,0,0)">
        <rect x="0" y="0" width="900" height="450" style="fill:rgb(29,66,155);fill-rule:nonzero;"/>
        <rect x="0" y="225" width="900" height="225" style="fill:rgb(207,32,40);fill-rule:nonzero;"/>
        <path d="M0,0L0,450L389.712,225L0,0Z" style="fill:white;fill-rule:nonzero;"/>
        <g transform="matrix(0.24,0,0,0.24,0,0)">
            <path d="M595.598,1124.61L607.683,1308.98L583.333,1333.33L558.983,1308.98L571.069,1124.61C566.96,1124.34 562.888,1123.94 558.856,1123.42L536.706,1291.67L516.835,1271.8L546.745,1121.43C522.143,1116.57 499.272,1106.89 479.153,1093.42L393.97,1220.9L365.87,1220.9L469.184,1086.26C465.939,1083.77 462.777,1081.17 459.704,1078.47L337.87,1217.4L303.437,1217.4L303.437,1182.96L442.361,1061.13C439.664,1058.06 437.066,1054.89 434.572,1051.65L299.93,1154.96L299.93,1126.86L427.416,1041.68C413.946,1021.56 404.268,998.69 399.401,974.089L249.038,1004L229.167,984.127L397.417,961.977C396.891,957.945 396.493,953.873 396.228,949.764L211.85,961.85L187.5,937.5L211.85,913.15L396.228,925.236C396.493,921.127 396.891,917.055 397.417,913.023L229.167,890.873L249.038,871.002L399.401,900.911C404.268,876.31 413.946,853.438 427.416,833.32L299.93,748.137L299.93,720.037L434.572,823.351C437.066,820.105 439.665,816.944 442.361,813.871L303.437,692.037L303.437,657.604L337.87,657.604L459.704,796.528C462.777,793.831 465.939,791.233 469.184,788.739L365.87,654.096L393.97,654.096L479.153,781.583C499.272,768.113 522.143,758.434 546.745,753.568L516.835,603.204L536.706,583.333L558.856,751.583C562.888,751.058 566.961,750.66 571.069,750.395L558.983,566.017L583.333,541.667L607.683,566.017L595.598,750.395C599.706,750.66 603.779,751.058 607.811,751.583L629.96,583.333L649.831,603.204L619.922,753.568C644.524,758.434 667.395,768.113 687.514,781.583L772.697,654.096L800.797,654.096L697.482,788.739C700.728,791.233 703.89,793.831 706.963,796.528L828.796,657.604L863.23,657.604L863.23,692.037L724.305,813.871C727.002,816.944 729.6,820.105 732.094,823.351L866.737,720.037L866.737,748.137L739.25,833.32C752.72,853.439 762.399,876.31 767.265,900.911L917.629,871.002L937.5,890.873L769.25,913.023C769.776,917.055 770.173,921.127 770.438,925.236L954.817,913.15L979.167,937.5L954.817,961.85L770.438,949.764C770.173,953.873 769.776,957.945 769.25,961.977L937.5,984.127L917.629,1004L767.265,974.089C762.399,998.69 752.72,1021.56 739.25,1041.68L866.737,1126.86L866.737,1154.96L732.094,1051.65C729.6,1054.89 727.002,1058.06 724.305,1061.13L863.23,1182.96L863.23,1217.4L828.796,1217.4L706.963,1078.47C703.89,1081.17 700.728,1083.77 697.482,1086.26L800.797,1220.9L772.697,1220.9L687.514,1093.42C667.395,1106.89 644.524,1116.57 619.922,1121.43L649.831,1271.8L629.96,1291.67L607.811,1123.42C603.779,1123.94 599.706,1124.34 595.598,1124.61Z" style="fill:rgb(251,209,19);"/>
        </g>
        <g transform="matrix(0.24,0,0,0.24,0,0)">
            <path d="M1436.3,937.5L1365.84,961.992L1364.32,1036.57L1319.26,977.129L1247.86,998.729L1290.46,937.5L1247.86,876.271L1319.26,897.871L1364.32,838.433L1365.84,913.008L1436.3,937.5Z" style="fill:rgb(251,209,19);"/>
        </g>
        <g transform="matrix(0.24,0,0,0.24,0,0)">
            <path d="M93.75,1712.62L107.771,1639.36L43.942,1600.75L117.954,1591.44L134.946,1518.81L166.667,1586.33L240.996,1580.04L186.588,1631.07L215.533,1699.82L150.188,1663.85L93.75,1712.62Z" style="fill:rgb(251,209,19);"/>
        </g>
        <g transform="matrix(0.24,0,0,0.24,0,0)">
            <path d="M93.75,162.38L150.188,211.15L215.533,175.18L186.588,243.93L240.996,294.959L166.667,288.675L134.946,356.188L117.954,283.555L43.942,274.246L107.771,235.642L93.75,162.38Z" style="fill:rgb(251,209,19);"/>
        </g>
    </g>
</svg>
