<svg width="1200" height="600" viewBox="0 0 1200 600" xmlns="http://www.w3.org/2000/svg"><title>Philippines</title><g fill="none" fill-rule="evenodd"><path d="M0 600h1200V0H0v600z" fill="#223A82"/><path d="M0 600h1200V300H0v300z" fill="#BC242C"/><path d="M0 0v600l519.616-300L0 0" fill="#FFF"/><path d="M190.59 359.873l3.87 59.002-7.793 7.792-7.792-7.792 3.868-59.002c-1.315-.084-2.62-.212-3.91-.38l-7.088 53.84-6.358-6.358 9.572-48.116c-7.875-1.56-15.193-4.656-21.63-8.967l-27.26 40.796h-8.99l33.06-43.086c-1.04-.8-2.052-1.63-3.035-2.493l-38.986 44.457H97.1v-11.02l44.456-38.986c-.864-.98-1.695-1.993-2.493-3.032l-43.086 33.06v-8.992l40.796-27.26c-4.31-6.436-7.408-13.755-8.965-21.628l-48.116 9.57-6.36-6.358 53.84-7.087c-.167-1.29-.295-2.594-.38-3.91l-59 3.87L60 300l7.792-7.792 59 3.868c.085-1.315.213-2.62.38-3.91l-53.84-7.086 6.36-6.36 48.116 9.572c1.557-7.873 4.655-15.192 8.965-21.63l-40.796-27.258v-8.992l43.086 33.06c.798-1.04 1.63-2.05 2.493-3.033L97.1 221.45v-11.02h11.02l38.985 44.457c.983-.865 1.995-1.695 3.034-2.494l-33.06-43.085h8.99l27.26 40.797c6.437-4.31 13.755-7.408 21.63-8.966l-9.573-48.115 6.358-6.358 7.088 53.84c1.29-.168 2.595-.296 3.91-.38l-3.868-59.002 7.792-7.792 7.792 7.792-3.87 59.002c1.315.084 2.62.212 3.91.38l7.087-53.84 6.358 6.358-9.57 48.116c7.873 1.56 15.192 4.656 21.63 8.967l27.258-40.796h8.992l-33.06 43.086c1.038.8 2.05 1.63 3.033 2.493l38.987-44.457h11.018v11.02l-44.456 38.986c.864.98 1.695 1.993 2.494 3.032l43.086-33.06v8.992l-40.796 27.26c4.31 6.436 7.408 13.755 8.965 21.628l48.116-9.572 6.36 6.36-53.84 7.087c.168 1.29.296 2.594.38 3.91l59-3.87 7.793 7.793-7.792 7.792-59-3.868c-.084 1.315-.212 2.62-.38 3.91L300 314.92l-6.36 6.36-48.115-9.572c-1.557 7.873-4.654 15.192-8.965 21.63l40.796 27.258v8.992l-43.085-33.06c-.798 1.04-1.63 2.05-2.493 3.033l44.456 38.988v11.02h-11.018l-38.987-44.457c-.983.865-1.995 1.695-3.033 2.494l33.06 43.085h-8.992l-27.26-40.797c-6.436 4.31-13.755 7.408-21.628 8.966l9.57 48.115-6.358 6.358-7.087-53.84c-1.29.168-2.595.296-3.91.38M459.615 300l-22.547 7.837-.487 23.864-14.42-19.02-22.845 6.913L412.948 300l-13.633-19.593 22.846 6.912 14.42-19.02.488 23.863L459.615 300M30 548.04l4.487-23.445L14.06 512.24l23.685-2.977 5.438-23.243 10.15 21.604 23.786-2.01-17.412 16.33 9.263 22-20.91-11.512L30 548.04M30 51.96L48.06 67.57l20.91-11.51-9.262 22 17.41 16.33-23.785-2.012-10.15 21.604-5.438-23.243L14.06 87.76l20.427-12.355L30 51.96" fill="#F7CD2B"/></g></svg>