<?xml version="1.0" encoding="utf-8"?>
<!-- Generator: Adobe Illustrator 19.1.0, SVG Export Plug-In . SVG Version: 6.00 Build 0)  -->
<svg version="1.1" id="Layer_1" xmlns="http://www.w3.org/2000/svg" xmlns:xlink="http://www.w3.org/1999/xlink" x="0px" y="0px"
	 viewBox="144 172 900 450" style="enable-background:new 144 172 900 450;" xml:space="preserve">
<style type="text/css">
	.st0{fill:#1F429B;}
	.st1{fill:#CE2028;}
	.st2{fill:#FFFFFF;}
	.st3{fill:#FBD116;}
</style>
<title>Flag of the Philippines</title>
<desc>
	Coding according to the official &quot;description and specification of the FILIPINO flag&quot; in Executive Order No. 23 from 1936
	</desc>
<rect x="144" y="172" class="st0" width="900" height="450"/>
<rect x="144" y="397" class="st1" width="900" height="225"/>
<path class="st2" d="M533.7,397L144,622V172"/>
<g>
	<circle class="st3" cx="256" cy="352" r="45"/>
	<g>
		<g>
			<g id="h">
				<path class="st3" d="M161,352l5.8,5.8L256,352l-89.2-5.8L161,352z"/>
				<path id="g" class="st3" d="M171,363.2l4.8,4.8l80.2-16L171,363.2z"/>
				<g transform="scale(1,-1)">
					<path id="g_1_" class="st3" d="M171,340.8l4.8-4.8l80.2,16L171,340.8z"/>
				</g>
			</g>
			<g id="i">
				<g id="h_1_">
					<path class="st3" d="M188.8,284.8v8.3L256,352l-58.9-67.2H188.8z"/>
					<path id="g_2_" class="st3" d="M188,299.8v6.7l68,45.4L188,299.8z"/>
					<g transform="rotate(45)">
						<path id="g_3_" class="st3" d="M203.8,284h6.7l45.4,68L203.8,284z"/>
					</g>
				</g>
			</g>
			<g>
				<g id="j">
					<g id="h_2_">
						<path class="st3" d="M256,257l-5.8,5.8L256,352l5.8-89.2L256,257z"/>
						<path id="g_4_" class="st3" d="M244.8,267l-4.8,4.8l16,80.2L244.8,267z"/>
						<g transform="scale(1,-1)">
							<path id="g_5_" class="st3" d="M267.2,267l4.8,4.8L256,352L267.2,267z"/>
						</g>
					</g>
					<g id="i_1_">
						<g id="h_3_">
							<path class="st3" d="M323.2,284.8h-8.3L256,352l67.2-58.9V284.8z"/>
							<path id="g_6_" class="st3" d="M308.2,284h-6.7L256,352L308.2,284z"/>
							<g transform="rotate(90)">
								<path id="g_7_" class="st3" d="M324,299.8v6.7L256,352L324,299.8z"/>
							</g>
						</g>
					</g>
				</g>
				<g>
					<g>
						<g>
							<g id="h_4_">
								<path class="st3" d="M351,352l-5.8-5.8L256,352l89.2,5.8L351,352z"/>
								<path id="g_8_" class="st3" d="M341,340.8l-4.8-4.8L256,352L341,340.8z"/>
								<g transform="scale(1,-1)">
									<path id="g_9_" class="st3" d="M341,363.2l-4.8,4.8L256,352L341,363.2z"/>
								</g>
							</g>
							<g id="i_2_">
								<g id="h_5_">
									<path class="st3" d="M323.2,419.2v-8.3L256,352l58.9,67.2H323.2z"/>
									<path id="g_10_" class="st3" d="M324,404.2v-6.7L256,352L324,404.2z"/>
									<g transform="rotate(45)">
										<path id="g_11_" class="st3" d="M308.2,420h-6.7L256,352L308.2,420z"/>
									</g>
								</g>
							</g>
							<g>
								<g id="j_1_">
									<g id="h_6_">
										<path class="st3" d="M256,447l5.8-5.8L256,352l-5.8,89.2L256,447z"/>
										<path id="g_12_" class="st3" d="M267.2,437l4.8-4.8L256,352L267.2,437z"/>
										<g transform="scale(1,-1)">
											<path id="g_13_" class="st3" d="M244.8,437l-4.8-4.8l16-80.2L244.8,437z"/>
										</g>
									</g>
									<g id="i_3_">
										<g id="h_7_">
											<path class="st3" d="M188.8,419.2h8.3L256,352l-67.2,58.9V419.2z"/>
											<path id="g_14_" class="st3" d="M203.8,420h6.7l45.4-68L203.8,420z"/>
											<g transform="rotate(180)">
												<path id="g_15_" class="st3" d="M188,404.2v-6.7l68-45.4L188,404.2z"/>
											</g>
										</g>
									</g>
								</g>
								<g>
									<g id="s" transform="translate(37.961524,0)">
										<path id="t" class="st3" d="M424.8,352l-16.9,5.9l-0.4,17.9l-10.8-14.3l-17.1,5.2l10.2-14.7H424.8z"/>
										<g transform="scale(1,-1)">
											<path id="t_1_" class="st3" d="M424.8,352l-16.9-5.9l-0.4-17.9l-10.8,14.3l-17.1-5.2l10.2,14.7H424.8z"/>
										</g>
									</g>
									<g transform="translate(28,45)">
										<g id="s_1_" transform="translate(37.961524,0)">
											<path id="t_2_" class="st3" d="M102.6,538l3.4-17.6l-15.3-9.3l17.8-2.2l4.1-17.4l7.6,16.2L102.6,538z"/>
											<g transform="rotate(120)">
												<path id="t_3_" class="st3" d="M102.6,538l13.5-11.7l15.7,8.6l-6.9-16.5l13.1-12.2l-17.8,1.5L102.6,538z"/>
											</g>
										</g>
										<g transform="translate(-2.019238)">
											<g id="s_2_" transform="translate(37.961524,0)">
												<path id="t_4_" class="st3" d="M102.6,166l13.5,11.7l15.7-8.6l-6.9,16.5l13.1,12.2l-17.8-1.5L102.6,166z"/>
												<g transform="rotate(-120)">
													<path id="t_5_" class="st3" d="M102.6,166l3.4,17.6l-15.3,9.3l17.8,2.2l4.1,17.4l7.6-16.2L102.6,166z"/>
												</g>
											</g>
										</g>
									</g>
								</g>
							</g>
						</g>
					</g>
				</g>
			</g>
		</g>
	</g>
</g>
</svg>
