<?xml version="1.0" encoding="utf-8"?>
<!-- Generator: Adobe Illustrator 19.1.0, SVG Export Plug-In . SVG Version: 6.00 Build 0)  -->
<svg version="1.1" id="Layer_1" xmlns="http://www.w3.org/2000/svg" xmlns:xlink="http://www.w3.org/1999/xlink" x="0px" y="0px"
	 viewBox="144 97 900 600" style="enable-background:new 144 97 900 600;" xml:space="preserve">
<style type="text/css">
	.st0{fill:#038543;}
	.st1{fill:#FBEF45;}
	.st2{fill:#E21F26;}
</style>
<rect x="144" y="97" class="st0" width="300" height="600"/>
<rect x="444" y="97" class="st1" width="300" height="600"/>
<rect x="744" y="97" class="st2" width="300" height="600"/>
<g>
	<g id="c">
		<path id="t" class="st0" d="M144-3l-30.9,95.1l47.6,15.5L144-3z"/>
		<g transform="scale(-1,1)">
			<path id="t_1_" class="st0" d="M144-3l30.9,95.1l-47.6,15.5L144-3z"/>
		</g>
	</g>
	<g>
		<g id="c_1_">
			<path id="t_2_" class="st0" d="M239.1,66.1h-100v50L239.1,66.1z"/>
			<g transform="rotate(72)">
				<path id="t_3_" class="st0" d="M239.1,66.1l-80.9,58.8l-29.4-40.5L239.1,66.1z"/>
			</g>
		</g>
		<g>
			<g id="c_2_">
				<path id="t_4_" class="st0" d="M202.8,177.9l-30.9-95.1l-47.6,15.5L202.8,177.9z"/>
				<g transform="rotate(144)">
					<path id="t_5_" class="st0" d="M202.8,177.9l-80.9-58.8l29.4-40.5L202.8,177.9z"/>
				</g>
			</g>
			<g>
				<g id="c_3_">
					<path id="t_6_" class="st0" d="M85.2,177.9l80.9-58.8l-29.4-40.5L85.2,177.9z"/>
					<g transform="rotate(216)">
						<path id="t_7_" class="st0" d="M85.2,177.9l30.9-95.1l47.6,15.5L85.2,177.9z"/>
					</g>
				</g>
				<g transform="translate(450,300)">
					<g id="c_4_">
						<path id="t_8_" class="st0" d="M48.9,66.1l80.9,58.8l29.4-40.5L48.9,66.1z"/>
						<g transform="rotate(288)">
							<path id="t_9_" class="st0" d="M48.9,66.1h100v50L48.9,66.1z"/>
						</g>
					</g>
				</g>
			</g>
		</g>
	</g>
</g>
</svg>
