<?xml version="1.0" standalone="no"?>
<!DOCTYPE svg PUBLIC "-//W3C//DTD SVG 1.1//EN" "http://www.w3.org/Graphics/SVG/1.1/DTD/svg11.dtd">
<svg width="100%" height="100%" viewBox="0 0 3750 2500" version="1.1" xmlns="http://www.w3.org/2000/svg" xmlns:xlink="http://www.w3.org/1999/xlink" xml:space="preserve" style="fill-rule:evenodd;clip-rule:evenodd;stroke-linejoin:round;stroke-miterlimit:1.41421;">
    <g id="Layer 1" transform="matrix(4.16667,0,0,4.16667,0,0)">
        <rect x="0" y="0" width="900" height="600" style="fill:rgb(3,4,4);fill-rule:nonzero;"/>
        <rect x="0" y="99.999" width="900" height="100.001" style="fill:rgb(250,220,6);fill-rule:nonzero;"/>
        <rect x="0" y="200" width="900" height="100" style="fill:rgb(217,31,38);fill-rule:nonzero;"/>
        <rect x="0" y="400" width="900" height="100" style="fill:rgb(250,220,6);fill-rule:nonzero;"/>
        <rect x="0" y="500" width="900" height="100" style="fill:rgb(217,31,38);fill-rule:nonzero;"/>
        <path d="M450,206.5C501.639,206.5 543.5,248.361 543.5,300C543.5,351.639 501.639,393.5 450,393.5C398.361,393.5 356.5,351.639 356.5,300C356.5,248.361 398.361,206.5 450,206.5" style="fill:white;fill-rule:nonzero;"/>
        <g>
            <path d="M433.52,228.391L427.456,217.221C429.796,214.881 433.733,213.072 440.009,213.072C440.009,213.497 439.371,225.306 439.371,225.306L433.52,228.391Z" style="fill:rgb(217,31,38);fill-rule:nonzero;"/>
            <g transform="matrix(0.24,0,0,0.24,0,0)">
                <path d="M1805.49,954.43L1778.49,904.707L1779.84,903.374C1780.33,902.894 1780.82,902.422 1781.33,901.962C1782.47,900.931 1783.66,899.953 1784.89,899.031C1785.98,898.214 1787.1,897.44 1788.25,896.709C1795.22,892.273 1803.13,889.464 1811.2,887.804C1812.36,887.564 1813.53,887.349 1814.7,887.155C1816.27,886.895 1817.85,886.674 1819.43,886.489C1821.47,886.25 1823.52,886.072 1825.58,885.947C1827.97,885.801 1830.36,885.733 1832.75,885.716L1835.49,885.711C1835.48,886.462 1835.47,887.213 1835.45,887.965C1835.45,888.227 1835.43,888.49 1835.42,888.752C1835.38,889.78 1835.33,890.808 1835.28,891.836C1834.99,897.684 1834.68,903.53 1834.37,909.377C1833.89,918.508 1833.4,927.638 1832.91,936.768L1832.73,940.065C1823.65,944.854 1814.57,949.642 1805.49,954.43ZM1807.18,948.825L1828.7,937.481C1829.12,929.601 1829.54,921.72 1829.96,913.839C1830.38,906.026 1830.8,898.213 1831.18,890.397L1831.2,889.9C1828.86,889.937 1826.51,890.041 1824.17,890.219C1822.23,890.366 1820.3,890.564 1818.37,890.82C1816.88,891.017 1815.4,891.249 1813.93,891.518C1812.68,891.746 1811.44,892.001 1810.2,892.284C1803.16,893.902 1796.28,896.483 1790.19,900.414C1789.42,900.91 1788.67,901.427 1787.93,901.966C1786.95,902.676 1786,903.424 1785.09,904.208C1784.6,904.621 1784.13,905.046 1783.66,905.478L1783.65,905.484C1791.5,919.931 1799.34,934.378 1807.18,948.825Z" style="fill:rgb(3,4,4);fill-rule:nonzero;"/>
            </g>
            <path d="M439.371,225.412L440.222,213.071C440.222,213.071 452.776,212.327 459.584,220.518C459.691,220.412 452.882,230.092 452.882,230.092L439.371,225.412Z" style="fill:rgb(250,220,6);fill-rule:nonzero;"/>
            <g transform="matrix(0.24,0,0,0.24,0,0)">
                <path d="M1886.21,956.234C1891.5,948.717 1896.78,941.196 1902.06,933.671C1905.43,928.862 1908.8,924.056 1912.15,919.228L1912.32,918.972C1910.5,916.879 1908.55,914.896 1906.49,913.035C1905.06,911.747 1903.58,910.516 1902.05,909.346C1900.93,908.481 1899.78,907.648 1898.6,906.847C1890.56,901.365 1881.54,897.429 1872.21,894.716C1870.89,894.33 1869.55,893.969 1868.21,893.631C1866.28,893.144 1864.34,892.707 1862.39,892.316C1859.86,891.81 1857.31,891.382 1854.76,891.029C1851.47,890.573 1848.16,890.242 1844.85,890.037C1842.01,889.861 1839.17,889.777 1836.32,889.816L1836.21,889.818L1832.9,937.77C1850.67,943.925 1868.44,950.08 1886.21,956.234ZM1887.81,961.199L1828.53,940.664L1832.31,885.811C1833.04,885.773 1833.77,885.729 1834.51,885.698C1835.09,885.674 1835.67,885.659 1836.26,885.65C1839.21,885.605 1842.16,885.696 1845.1,885.878C1848.64,886.097 1852.18,886.456 1855.69,886.951C1858.34,887.325 1860.98,887.776 1863.6,888.31C1865.48,888.694 1867.36,889.12 1869.23,889.59C1880.14,892.339 1890.74,896.612 1900.13,902.852C1901.37,903.679 1902.59,904.539 1903.79,905.434C1905.35,906.596 1906.86,907.815 1908.32,909.091C1910.01,910.566 1911.64,912.116 1913.19,913.738C1913.92,914.501 1914.63,915.281 1915.32,916.073L1915.5,916.274L1915.65,916.451L1915.9,916.379L1917.21,918.561L1916.87,919.626C1916.83,919.697 1916.8,919.767 1916.76,919.837C1916.7,919.954 1916.62,920.064 1916.55,920.175C1916.39,920.414 1916.23,920.651 1916.06,920.889C1915.7,921.421 1915.33,921.952 1914.96,922.483C1913.79,924.163 1912.62,925.84 1911.45,927.518C1906.87,934.076 1902.27,940.626 1897.67,947.176C1894.38,951.851 1891.1,956.525 1887.81,961.199Z" style="fill:rgb(3,4,4);fill-rule:nonzero;"/>
            </g>
            <path d="M453.095,229.986L459.265,220.412C463.414,224.774 465.116,227.859 465.754,232.54C465.861,232.646 455.967,234.986 455.967,234.88C455.967,234.774 453.201,230.092 453.095,229.986Z" style="fill:rgb(217,31,38);fill-rule:nonzero;"/>
            <g transform="matrix(0.24,0,0,0.24,0,0)">
                <path d="M1899.97,980.765C1899.87,980.764 1899.77,980.765 1899.67,980.753C1899.45,980.728 1899.14,980.669 1898.96,980.576C1898.74,980.463 1898.52,980.336 1898.35,980.159C1898.15,979.951 1898.03,979.68 1897.87,979.441L1897.85,979.254C1897.62,978.817 1897.38,978.39 1897.14,977.962C1896.71,977.191 1896.27,976.423 1895.83,975.657C1894.64,973.607 1893.45,971.566 1892.25,969.527C1891.04,967.479 1889.83,965.434 1888.61,963.395C1888.2,962.718 1887.8,962.041 1887.38,961.366C1887.03,960.779 1886.67,960.19 1886.3,959.616L1886.28,959.594L1885.29,958.473L1913.29,915.025C1914.43,916.232 1915.58,917.434 1916.72,918.65C1917.99,920.014 1919.25,921.394 1920.48,922.793C1925.46,928.444 1930.12,934.436 1933.81,941.018C1934.52,942.275 1935.19,943.552 1935.82,944.849C1936.75,946.762 1937.59,948.717 1938.34,950.708C1939.14,952.839 1939.84,955.01 1940.44,957.208C1941.09,959.623 1941.63,962.069 1942.07,964.532C1942.28,965.741 1942.47,966.954 1942.64,968.17L1942.66,968.33L1942.7,968.413L1942.74,969.098C1942.62,969.652 1942.66,969.73 1942.32,970.196C1942.24,970.314 1942.12,970.409 1942.02,970.506C1941.96,970.564 1941.88,970.612 1941.82,970.662C1941.55,970.85 1941.24,970.968 1940.94,971.073C1940.35,971.276 1939.75,971.441 1939.15,971.608C1938.82,971.699 1938.47,971.794 1938.14,971.882C1937.54,972.043 1936.94,972.2 1936.34,972.355C1935.64,972.536 1934.94,972.715 1934.24,972.893C1933.46,973.091 1932.67,973.288 1931.88,973.484C1928.87,974.235 1925.85,974.967 1922.82,975.691C1919.08,976.587 1915.33,977.469 1911.58,978.331C1909.29,978.856 1907,979.376 1904.71,979.873C1903.82,980.066 1902.93,980.257 1902.04,980.435C1901.45,980.553 1900.86,980.675 1900.26,980.745C1900.12,980.758 1900.12,980.758 1899.97,980.765ZM1897.81,979.034L1897.8,978.922C1897.8,978.979 1897.8,978.979 1897.81,979.034ZM1901.03,976.387C1901.97,976.203 1902.9,976.003 1903.83,975.801C1905.27,975.489 1906.7,975.168 1908.13,974.843C1911.43,974.096 1914.73,973.328 1918.02,972.55C1921.75,971.669 1925.48,970.774 1929.2,969.857C1930.78,969.466 1932.36,969.072 1933.94,968.669C1935.31,968.321 1936.67,967.967 1938.03,967.593L1938.33,967.508C1937.74,963.606 1936.9,959.736 1935.74,955.963C1934.79,952.906 1933.62,949.919 1932.25,947.032C1931.72,945.932 1931.16,944.848 1930.58,943.778C1928.56,940.083 1926.21,936.576 1923.67,933.223C1921.45,930.299 1919.09,927.488 1916.65,924.751C1915.79,923.794 1914.93,922.848 1914.06,921.906L1913.91,921.751L1890.38,958.273C1890.57,958.581 1890.76,958.89 1890.94,959.2C1892.41,961.615 1893.85,964.044 1895.29,966.478C1896.83,969.084 1898.36,971.696 1899.86,974.32C1900.26,975.008 1900.65,975.695 1901.03,976.387Z" style="fill:rgb(3,4,4);fill-rule:nonzero;"/>
            </g>
            <g transform="matrix(0.24,0,0,0.24,0,0)">
                <path d="M1896.32,1372.73L1897.65,1422.38C1897.65,1422.38 1914.93,1425.48 1922.91,1422.38C1930.89,1419.27 1922.47,1387.8 1896.32,1372.73ZM1818.86,1620.5C1818.34,1619.61 1817.8,1618.73 1817.28,1617.83C1817.2,1617.69 1817.12,1617.55 1817.04,1617.4C1816.63,1616.62 1816.28,1615.8 1816.02,1614.96C1815.35,1612.84 1815.2,1610.6 1815.41,1608.41C1815.62,1606.22 1816.19,1604.09 1816.94,1602.03C1817.17,1601.4 1817.42,1600.78 1817.69,1600.16C1818.03,1599.38 1818.39,1598.61 1818.78,1597.85C1819.25,1596.93 1819.74,1596.02 1820.27,1595.13C1820.92,1594 1821.62,1592.9 1822.35,1591.82C1823.31,1590.39 1824.32,1589 1825.37,1587.63C1826.75,1585.83 1828.21,1584.08 1829.71,1582.37C1831.61,1580.22 1833.59,1578.15 1835.63,1576.14L1835.64,1576.13C1834.33,1575.91 1833.01,1575.73 1831.69,1575.56C1830.11,1575.36 1828.53,1575.18 1826.94,1575.04C1823.21,1574.68 1819.47,1574.45 1815.72,1574.3C1807.93,1574 1800.12,1574.07 1792.33,1574.39C1790.38,1574.47 1788.44,1574.57 1786.49,1574.68L1782.77,1574.89L1783.51,1572.02C1783.55,1571.9 1783.58,1571.78 1783.62,1571.66C1783.74,1571.26 1783.89,1570.87 1784.07,1570.48C1784.57,1569.39 1785.27,1568.39 1786.07,1567.49C1787.2,1566.21 1788.54,1565.12 1789.94,1564.16C1790.45,1563.81 1790.98,1563.47 1791.51,1563.15C1792.26,1562.7 1793.03,1562.27 1793.8,1561.87C1794.84,1561.33 1795.9,1560.83 1796.97,1560.36C1798.35,1559.76 1799.75,1559.21 1801.17,1558.69C1802.82,1558.09 1804.48,1557.54 1806.16,1557.03C1809.08,1556.15 1812.04,1555.38 1815.01,1554.7C1818.18,1553.98 1821.38,1553.36 1824.58,1552.81C1828.54,1552.14 1832.51,1551.6 1836.49,1551.16C1839.84,1550.79 1843.2,1550.51 1846.57,1550.3C1852.2,1549.96 1857.85,1549.84 1863.49,1550.06C1865.57,1550.13 1867.66,1550.26 1869.74,1550.45C1872.47,1550.69 1875.19,1551.04 1877.89,1551.56C1877.92,1551.36 1877.92,1551.36 1877.94,1551.16C1878.05,1550.09 1878.11,1549.03 1878.14,1547.96C1878.17,1546.8 1878.18,1545.65 1878.18,1544.49C1878.16,1541.41 1878.06,1538.34 1877.91,1535.27C1877.73,1531.32 1877.49,1527.37 1877.21,1523.43C1876.93,1519.41 1876.62,1515.4 1876.28,1511.39C1875.44,1501.26 1874.47,1491.14 1873.44,1481.03C1872.15,1468.32 1870.76,1455.62 1869.29,1442.93L1869.21,1442.26C1868.62,1442.28 1868.04,1442.3 1867.45,1442.31C1866.89,1442.32 1866.33,1442.33 1865.76,1442.34C1859.06,1442.44 1852.36,1442.34 1845.67,1442.09C1837.89,1441.8 1830.11,1441.31 1822.35,1440.63C1819.08,1440.34 1815.81,1440.02 1812.54,1439.66C1811.41,1439.54 1810.27,1439.41 1809.14,1439.28C1808.43,1439.19 1807.72,1439.11 1807.01,1439.03C1806.74,1439 1806.47,1438.97 1806.21,1438.95C1805.31,1438.87 1804.41,1438.83 1803.51,1438.83C1801.76,1438.82 1800.01,1438.97 1798.29,1439.29C1796.68,1439.6 1795.1,1440.07 1793.59,1440.69C1792.62,1441.1 1791.67,1441.57 1790.76,1442.1C1790.17,1442.45 1789.58,1442.83 1789.02,1443.23C1785.41,1445.77 1782.54,1449.23 1780.23,1452.96C1779.91,1453.48 1779.6,1454.01 1779.29,1454.54C1778.89,1455.25 1778.5,1455.97 1778.12,1456.7C1777.61,1457.7 1777.13,1458.71 1776.67,1459.74C1776.13,1460.93 1775.63,1462.13 1775.14,1463.35C1774.51,1464.96 1773.91,1466.6 1773.34,1468.24C1772.6,1470.36 1771.91,1472.5 1771.2,1474.62C1771.05,1475.06 1770.9,1475.49 1770.75,1475.93C1770.54,1476.53 1770.33,1477.13 1770.1,1477.73C1769.94,1478.15 1769.78,1478.58 1769.6,1478.99C1769.47,1479.33 1769.32,1479.66 1769.17,1479.98C1769.07,1480.19 1768.97,1480.39 1768.86,1480.59C1768.79,1480.74 1768.71,1480.88 1768.63,1481.03C1768.11,1481.93 1767.45,1482.8 1766.51,1483.3C1766.39,1483.36 1766.28,1483.41 1766.15,1483.46C1766,1483.52 1765.84,1483.57 1765.67,1483.6C1765.43,1483.65 1765.18,1483.68 1764.94,1483.68C1764.59,1483.67 1764.25,1483.61 1763.92,1483.49C1763.48,1483.34 1763.09,1483.1 1762.72,1482.82C1762.16,1482.39 1761.67,1481.87 1761.24,1481.31C1760.56,1480.44 1760.02,1479.48 1759.54,1478.48C1758.86,1477.05 1758.31,1475.55 1757.84,1474.03C1757.27,1472.22 1756.8,1470.38 1756.38,1468.53C1755.95,1466.61 1755.58,1464.67 1755.25,1462.74C1754.76,1459.88 1754.36,1457.01 1754.01,1454.13L1753.99,1453.98C1753.25,1455.66 1752.57,1457.36 1751.95,1459.09C1751.21,1461.16 1750.55,1463.26 1749.98,1465.39C1748.37,1471.35 1747.41,1477.5 1747.15,1483.67C1747.03,1486.48 1747.05,1489.29 1747.2,1492.1L1747.22,1492.41L1747.56,1497.76L1743.65,1494.3C1743.09,1493.79 1742.56,1493.25 1742.06,1492.68C1740.84,1491.28 1739.84,1489.71 1738.98,1488.06C1737.71,1485.61 1736.79,1482.98 1736.07,1480.31C1735.8,1479.29 1735.56,1478.26 1735.34,1477.23C1735.05,1475.83 1734.81,1474.43 1734.61,1473.02C1734.33,1471.12 1734.13,1469.21 1733.99,1467.29L1733.96,1466.97C1728.93,1478.53 1723.93,1490.11 1718.93,1501.68C1718.52,1499 1718.11,1496.33 1717.71,1493.65C1717.22,1490.29 1716.8,1486.92 1716.52,1483.54C1716.29,1480.86 1716.14,1478.16 1716.08,1475.46C1716.03,1473.44 1716.04,1471.42 1716.11,1469.4C1716.17,1467.83 1716.26,1466.26 1716.4,1464.69C1716.5,1463.51 1716.63,1462.33 1716.79,1461.15C1717.58,1455.16 1719.08,1449.22 1721.71,1443.76C1722.08,1442.98 1722.48,1442.21 1722.9,1441.45C1723.38,1440.6 1723.88,1439.76 1724.41,1438.95C1725.17,1437.79 1725.99,1436.66 1726.87,1435.58C1728.09,1434.09 1729.43,1432.68 1730.87,1431.39C1733.09,1429.39 1735.56,1427.66 1738.18,1426.22C1740.59,1424.89 1743.12,1423.8 1745.72,1422.9C1747.54,1422.28 1749.4,1421.75 1751.28,1421.28C1752.95,1420.87 1754.64,1420.52 1756.34,1420.19C1757.77,1419.92 1759.2,1419.67 1760.63,1419.4C1760.88,1419.35 1761.12,1419.3 1761.37,1419.25C1761.96,1419.13 1762.56,1419.01 1763.14,1418.86C1763.33,1418.82 1763.51,1418.77 1763.69,1418.72C1763.79,1418.69 1763.9,1418.66 1764,1418.63C1764.1,1418.59 1764.21,1418.56 1764.31,1418.52C1764.51,1418.45 1764.51,1418.45 1764.71,1418.39C1765.81,1418.06 1766.93,1417.83 1768.06,1417.64C1769.17,1417.45 1770.28,1417.3 1771.39,1417.17C1774.31,1416.84 1777.24,1416.63 1780.17,1416.47C1783.94,1416.27 1787.7,1416.15 1791.47,1416.07C1796.09,1415.97 1800.71,1415.95 1805.34,1415.96C1812.11,1415.98 1818.89,1416.09 1825.66,1416.27C1832.12,1416.44 1838.57,1416.68 1845.02,1416.99C1850.08,1417.24 1855.13,1417.53 1860.17,1417.92C1862,1418.07 1863.83,1418.23 1865.65,1418.41C1867.25,1418.58 1868.84,1418.77 1870.42,1419.03L1870.62,1419.06L1870.74,1419.08C1870.78,1418.96 1870.82,1418.85 1870.86,1418.73C1871.28,1417.39 1871.55,1416 1871.75,1414.61C1871.98,1413.07 1872.13,1411.52 1872.23,1409.97C1872.38,1407.85 1872.45,1405.73 1872.49,1403.61C1872.52,1401.38 1872.5,1399.16 1872.46,1396.93C1872.34,1391.13 1872.02,1385.34 1871.6,1379.55C1871.12,1372.86 1870.5,1366.18 1869.77,1359.52L1869.7,1358.93L1869.59,1357.96C1869.45,1357.86 1869.32,1357.76 1869.19,1357.66C1868.48,1357.12 1867.8,1356.53 1867.12,1355.94C1866.24,1355.16 1865.37,1354.36 1864.5,1353.55C1862.16,1351.36 1859.87,1349.13 1857.58,1346.88C1855.18,1344.51 1852.79,1342.12 1850.41,1339.73C1846.86,1336.15 1843.34,1332.55 1839.82,1328.94C1839.57,1328.88 1839.33,1328.81 1839.08,1328.74C1837.48,1328.29 1835.9,1327.79 1834.34,1327.23C1830,1325.68 1825.79,1323.76 1821.73,1321.59C1816.95,1319.03 1812.35,1316.12 1807.92,1312.99C1804.47,1310.55 1801.12,1307.97 1797.86,1305.29C1794.49,1302.53 1791.22,1299.65 1788.04,1296.68C1785.52,1294.34 1783.05,1291.93 1780.64,1289.48C1777.4,1286.18 1774.26,1282.79 1771.23,1279.31L1771.16,1279.22C1771.06,1279.37 1770.96,1279.51 1770.86,1279.66C1770.75,1279.83 1770.63,1280 1770.5,1280.17C1770.27,1280.5 1770.02,1280.83 1769.74,1281.12C1769.56,1281.32 1769.37,1281.51 1769.16,1281.67C1769.04,1281.75 1768.92,1281.83 1768.79,1281.9L1767.36,1282.66C1766.71,1281.99 1766.06,1281.33 1765.42,1280.65C1764.76,1279.97 1764.11,1279.28 1763.46,1278.58C1761.05,1275.98 1758.72,1273.29 1756.49,1270.53C1753.15,1266.4 1750.03,1262.09 1747.19,1257.61C1744.06,1252.66 1741.26,1247.51 1738.87,1242.17C1735.78,1235.28 1733.37,1228.08 1731.73,1220.71C1730.57,1215.49 1729.79,1210.19 1729.4,1204.87C1729.12,1201.05 1729.03,1197.21 1729.13,1193.39C1729.21,1190.49 1729.39,1187.59 1729.67,1184.7C1729.88,1182.6 1730.14,1180.5 1730.45,1178.41C1732.51,1164.53 1736.81,1151.05 1742.52,1138.25C1743.4,1136.27 1744.32,1134.31 1745.27,1132.36C1746.51,1129.8 1747.82,1127.27 1749.17,1124.77C1750.89,1121.57 1752.7,1118.42 1754.58,1115.31C1757.06,1111.22 1759.66,1107.21 1762.37,1103.28C1765.92,1098.14 1769.65,1093.12 1773.56,1088.24C1777.56,1083.24 1781.74,1078.37 1786.09,1073.66C1787.71,1071.91 1789.36,1070.18 1791.03,1068.48C1792.49,1067 1793.97,1065.53 1795.48,1064.11L1795.51,1064.08L1801.22,1022.87C1800.45,1022.99 1799.68,1023.12 1798.91,1023.25C1794,1024.04 1789.09,1024.77 1784.16,1025.44C1780.48,1025.93 1776.79,1026.39 1773.1,1026.79C1770.6,1027.06 1768.09,1027.31 1765.58,1027.51C1763.19,1027.71 1760.79,1027.87 1758.39,1027.98C1756.94,1028.05 1755.5,1028.09 1754.05,1028.1C1752.83,1028.12 1751.61,1028.11 1750.38,1028.06C1749.46,1028.03 1748.54,1027.97 1747.62,1027.89C1746.95,1027.83 1746.29,1027.76 1745.62,1027.66C1745.17,1027.59 1744.71,1027.51 1744.26,1027.41C1743.9,1027.34 1743.55,1027.25 1743.2,1027.16C1743,1027.1 1742.8,1027.04 1742.61,1026.97C1742.44,1026.92 1742.29,1026.86 1742.13,1026.8C1741.05,1026.39 1739.99,1025.78 1739.31,1024.81C1739.18,1024.63 1739.07,1024.45 1738.98,1024.25C1738.86,1024.02 1738.77,1023.77 1738.71,1023.52C1738.62,1023.16 1738.58,1022.78 1738.6,1022.41C1738.62,1021.88 1738.74,1021.37 1738.93,1020.89C1739.22,1020.16 1739.64,1019.5 1740.14,1018.9C1740.9,1017.97 1741.82,1017.18 1742.77,1016.45C1743.54,1015.87 1744.35,1015.32 1745.18,1014.81C1745.94,1014.34 1746.71,1013.89 1747.5,1013.46C1748.79,1012.75 1750.11,1012.09 1751.44,1011.45C1753,1010.71 1754.57,1010.01 1756.16,1009.33C1759.8,1007.78 1763.5,1006.37 1767.22,1005.03C1771.57,1003.46 1775.97,1001.99 1780.38,1000.58C1785.3,999.014 1790.25,997.529 1795.22,996.117L1795.64,995.999C1795.56,995.844 1795.48,995.688 1795.41,995.532C1795.31,995.324 1795.21,995.116 1795.11,994.907C1794.66,993.908 1794.26,992.891 1793.9,991.853C1792.76,988.485 1792.16,984.94 1792.09,981.387C1792.03,978.236 1792.38,975.081 1793.1,972.013C1794.29,966.943 1796.46,962.143 1799.21,957.736C1800.25,956.072 1801.38,954.461 1802.57,952.901C1802.97,952.383 1803.37,951.87 1803.78,951.362C1803.86,951.268 1804.35,950.659 1804.38,950.626C1804.4,950.61 1804.86,950.201 1804.93,950.135C1805.3,949.815 1805.66,949.499 1806.03,949.187C1807.19,948.207 1808.38,947.268 1809.6,946.373C1811.95,944.652 1814.43,943.097 1817.01,941.736C1819.71,940.311 1822.52,939.096 1825.4,938.115C1829.14,936.845 1833.01,935.965 1836.93,935.486C1839.05,935.228 1841.18,935.085 1843.31,935.058C1853.78,934.922 1864.23,937.551 1873.48,942.42C1877.44,944.507 1881.19,947.006 1884.62,949.888C1890.27,954.627 1895.08,960.43 1898.35,967.054C1898.8,967.968 1899.22,968.898 1899.61,969.84C1900.05,970.915 1900.45,972.007 1900.81,973.113C1901.41,974.981 1901.88,976.888 1902.23,978.821L1902.26,979.036C1902.3,979.102 1902.3,979.103 1902.34,979.176C1902.39,979.271 1902.39,979.27 1902.44,979.366C1902.6,979.745 1902.71,980.142 1902.8,980.546C1902.88,980.939 1902.94,981.336 1902.99,981.735C1903.14,982.918 1903.18,984.114 1903.18,985.306C1903.18,987.332 1903.02,989.357 1902.77,991.367C1902.44,993.968 1901.94,996.546 1901.29,999.087C1900.68,1001.49 1899.95,1003.85 1899.1,1006.18C1895.51,1016.05 1889.93,1025.12 1883.16,1033.12C1879.95,1036.92 1876.47,1040.49 1872.79,1043.84C1871.4,1045.1 1869.97,1046.33 1868.52,1047.54C1868.32,1047.77 1868.12,1048.01 1867.92,1048.25C1866.8,1049.57 1865.75,1050.94 1864.75,1052.36C1861.89,1056.45 1859.54,1060.89 1857.62,1065.5C1855.38,1070.87 1853.72,1076.46 1852.48,1082.14C1852.06,1084.03 1851.7,1085.92 1851.37,1087.83C1850.31,1094.06 1849.69,1100.36 1849.4,1106.67C1849.07,1113.93 1849.16,1121.22 1849.59,1128.48C1849.92,1134.05 1850.45,1139.6 1851.18,1145.13C1851.45,1147.2 1851.74,1149.26 1852.07,1151.32C1852.37,1153.17 1852.69,1155.01 1853.05,1156.85L2012.79,1361.39C2010.69,1360.93 2008.6,1360.46 2006.51,1360C2005.92,1359.87 2005.33,1359.75 2004.75,1359.62C2000.4,1358.71 1996.03,1357.86 1991.66,1357.09C1987.22,1356.3 1982.77,1355.58 1978.31,1354.96C1974.56,1354.43 1970.8,1353.98 1967.03,1353.64C1963.84,1353.35 1960.63,1353.14 1957.43,1353.09C1955.43,1353.06 1953.42,1353.08 1951.42,1353.23C1950.6,1353.29 1949.78,1353.37 1948.96,1353.49C1948.18,1353.59 1947.41,1353.73 1946.64,1353.91C1946.34,1353.98 1946.04,1354.06 1945.74,1354.15C1945.17,1354.32 1944.61,1354.53 1944.08,1354.8C1943.7,1354.99 1943.33,1355.22 1943.02,1355.52C1942.75,1355.77 1942.54,1356.07 1942.37,1356.38C1941.99,1357.09 1941.81,1357.89 1941.71,1358.68C1941.64,1359.29 1941.63,1359.9 1941.65,1360.51C1941.67,1361.24 1941.74,1361.95 1941.84,1362.67C1941.98,1363.72 1942.19,1364.77 1942.44,1365.8C1942.68,1366.79 1942.95,1367.77 1943.26,1368.75C1944.02,1371.23 1944.94,1373.65 1945.95,1376.04C1946.88,1378.26 1947.9,1380.46 1948.96,1382.63C1950.19,1385.16 1951.5,1387.66 1952.85,1390.13C1954.93,1393.92 1957.13,1397.65 1959.44,1401.31C1960.4,1402.82 1961.37,1404.32 1962.37,1405.8C1963.29,1407.16 1964.22,1408.51 1965.19,1409.83C1965.54,1410.32 1965.9,1410.8 1966.27,1411.27C1966.47,1411.54 1966.68,1411.8 1966.88,1412.06C1966.99,1412.2 1966.99,1412.2 1967.1,1412.35C1967.34,1412.69 1967.57,1413.03 1967.78,1413.38C1968.2,1414.07 1968.57,1414.79 1968.89,1415.53C1969.17,1416.2 1969.41,1416.89 1969.6,1417.59C1969.75,1418.12 1969.87,1418.66 1969.96,1419.2C1970.56,1422.68 1970.1,1426.27 1968.98,1429.6C1968.8,1430.14 1968.6,1430.67 1968.39,1431.2C1968.06,1431.99 1967.7,1432.78 1967.3,1433.54C1966.75,1434.57 1966.14,1435.57 1965.46,1436.52C1965.12,1437.01 1964.75,1437.48 1964.36,1437.94C1964.05,1438.32 1963.72,1438.68 1963.38,1439.04C1962.43,1440.01 1961.38,1440.9 1960.2,1441.57C1959.44,1442.01 1958.61,1442.35 1957.75,1442.52C1957.49,1442.57 1957.22,1442.61 1956.95,1442.62C1956.8,1442.63 1956.64,1442.63 1956.49,1442.64C1955.77,1442.55 1955.05,1442.47 1954.33,1442.38C1947.97,1441.67 1941.61,1441.09 1935.23,1440.65C1932.17,1440.44 1929.11,1440.26 1926.04,1440.13C1923.2,1440.02 1920.35,1439.94 1917.51,1439.94C1915.43,1439.93 1913.35,1439.96 1911.27,1440.06C1909.45,1440.14 1907.63,1440.27 1905.82,1440.49C1904.61,1440.63 1903.4,1440.82 1902.21,1441.09C1901.27,1441.3 1900.32,1441.57 1899.44,1441.98C1899.42,1442 1899.39,1442.01 1899.37,1442.03C1899.18,1442.18 1899.04,1442.39 1898.92,1442.59C1898.68,1442.99 1898.5,1443.42 1898.34,1443.85C1898.08,1444.56 1897.88,1445.28 1897.72,1446.01C1897.5,1446.95 1897.34,1447.9 1897.2,1448.85C1897.02,1450.13 1896.89,1451.4 1896.78,1452.69C1896.65,1454.32 1896.56,1455.96 1896.5,1457.61C1896.36,1461.28 1896.36,1464.97 1896.43,1468.64C1896.53,1474.73 1896.82,1480.81 1897.19,1486.88C1897.59,1493.32 1898.09,1499.74 1898.65,1506.16C1899.28,1513.37 1899.99,1520.58 1900.76,1527.78C1901.56,1535.26 1902.43,1542.74 1903.36,1550.22L1903.46,1550.99C1903.86,1550.98 1904.26,1550.98 1904.66,1550.97C1905.09,1550.97 1905.52,1550.97 1905.94,1550.97C1909.64,1550.97 1913.33,1551.13 1917.01,1551.44C1919.79,1551.68 1922.57,1552 1925.33,1552.43C1927.57,1552.79 1929.81,1553.2 1932.02,1553.7C1933.65,1554.07 1935.28,1554.49 1936.89,1554.95C1938.19,1555.32 1939.48,1555.73 1940.76,1556.18C1941.83,1556.55 1942.89,1556.95 1943.94,1557.37C1944.77,1557.72 1945.61,1558.07 1946.43,1558.45C1949.18,1559.73 1951.84,1561.22 1954.3,1563C1956.74,1564.76 1958.98,1566.81 1960.89,1569.14C1961.68,1570.1 1962.4,1571.11 1963.07,1572.15L1963.16,1572.3L1965.54,1576.15C1963.74,1575.92 1961.93,1575.69 1960.12,1575.47C1958.33,1575.25 1956.54,1575.05 1954.74,1574.88C1951.27,1574.54 1947.79,1574.29 1944.3,1574.13C1935.14,1573.71 1925.95,1573.92 1916.83,1574.83C1907.15,1575.79 1897.54,1577.54 1888.15,1580.1C1875.68,1583.51 1863.61,1588.37 1852.3,1594.62C1848.15,1596.92 1844.11,1599.4 1840.19,1602.08C1837.24,1604.09 1834.37,1606.2 1831.58,1608.43C1829.42,1610.16 1827.3,1611.96 1825.27,1613.85C1823.75,1615.25 1822.27,1616.68 1820.88,1618.21C1820.2,1618.97 1819.53,1619.74 1818.86,1620.5Z" style="fill:rgb(3,4,4);"/>
            </g>
            <path d="M440.191,251.66C440.191,251.66 418.052,276.062 427.603,294.735C428.112,292.131 427.89,290.495 428.209,290.602C427.677,290.282 430.955,292.848 430.705,292.349C430.775,290.999 429.707,288.106 429.707,288.106C430.705,288.355 431.704,288.605 432.703,288.854C432.12,287.773 431.537,286.691 430.955,285.609C432.37,285.776 433.784,285.942 435.199,286.108C435.199,286.108 433.701,282.114 434.201,282.114C434.699,282.114 437.695,282.364 437.695,282.364C431.399,271.065 437.338,261.682 440.191,251.66Z" style="fill:rgb(156,166,156);fill-rule:nonzero;"/>
            <g transform="matrix(0.24,0,0,0.24,0,0)">
                <path d="M1782.57,1234.42L1779.59,1228.55C1779.43,1228.24 1779.28,1227.92 1779.12,1227.61C1778.37,1226.06 1777.65,1224.49 1776.98,1222.9C1775.6,1219.63 1774.42,1216.28 1773.43,1212.86C1772.46,1209.51 1771.69,1206.11 1771.1,1202.67C1770.68,1200.24 1770.35,1197.79 1770.12,1195.33C1769.94,1193.54 1769.82,1191.74 1769.74,1189.93C1769.22,1178.29 1770.61,1166.61 1773.25,1155.27C1773.62,1153.67 1774.02,1152.07 1774.44,1150.48C1774.99,1148.42 1775.58,1146.37 1776.2,1144.32C1777.07,1141.5 1778,1138.7 1778.99,1135.93C1780.25,1132.4 1781.61,1128.92 1783.05,1125.47C1784.91,1121.05 1786.9,1116.69 1789.02,1112.39C1791.73,1106.89 1794.63,1101.49 1797.7,1096.18C1801.71,1089.23 1806.01,1082.44 1810.54,1075.82C1814.6,1069.88 1818.85,1064.07 1823.28,1058.41C1825.04,1056.17 1826.82,1053.96 1828.64,1051.77C1829.91,1050.25 1831.19,1048.74 1832.51,1047.27L1837.99,1041.2L1838.35,1041.4C1837.52,1044.31 1836.69,1047.23 1835.85,1050.14C1835.13,1052.61 1834.38,1055.06 1833.6,1057.51C1832.29,1061.58 1830.9,1065.62 1829.49,1069.66C1828.37,1072.87 1827.23,1076.08 1826.11,1079.3C1825.43,1081.21 1824.77,1083.13 1824.11,1085.06C1823.52,1086.81 1822.93,1088.57 1822.36,1090.33C1818.93,1100.85 1816,1111.59 1814.79,1122.61C1814.36,1126.51 1814.15,1130.44 1814.21,1134.37C1814.26,1138.12 1814.56,1141.87 1815.11,1145.58C1815.95,1151.26 1817.4,1156.84 1819.4,1162.22C1820.39,1164.91 1821.52,1167.55 1822.76,1170.13C1823.59,1171.86 1824.48,1173.56 1825.4,1175.23L1827.44,1178.92C1825.16,1178.73 1822.89,1178.54 1820.61,1178.35C1819.43,1178.26 1818.25,1178.17 1817.07,1178.08C1815.27,1177.94 1813.46,1177.8 1811.65,1177.68L1811.16,1177.65L1810.98,1177.64C1811.02,1177.84 1811.06,1178.05 1811.1,1178.25C1811.33,1179.27 1811.6,1180.28 1811.89,1181.28C1812.15,1182.17 1812.42,1183.06 1812.7,1183.94C1813.48,1186.38 1814.33,1188.8 1815.22,1191.21L1816.47,1194.59C1810.92,1193.93 1805.38,1193.28 1799.83,1192.63L1799.38,1192.58C1801.92,1197.29 1804.46,1202.01 1807,1206.72C1803.4,1205.82 1799.79,1204.92 1796.18,1204.02L1793.66,1203.39C1793.78,1203.78 1793.9,1204.17 1794.02,1204.55C1794.77,1206.95 1795.45,1209.37 1795.97,1211.83C1796.17,1212.76 1796.34,1213.69 1796.47,1214.63C1796.62,1215.66 1796.71,1216.7 1796.7,1217.74L1796.7,1217.85L1796.71,1217.88L1796.73,1218.04C1796.75,1218.2 1796.75,1218.26 1796.75,1218.42C1796.73,1218.69 1796.67,1218.94 1796.57,1219.18C1796.43,1219.48 1796.24,1219.74 1796,1219.95C1795.85,1220.08 1795.67,1220.19 1795.5,1220.27C1795.36,1220.34 1795.2,1220.39 1795.06,1220.42C1794.92,1220.45 1794.82,1220.46 1794.68,1220.47C1793.95,1220.52 1793.27,1220.18 1792.65,1219.83C1792.51,1219.75 1792.36,1219.66 1792.22,1219.58C1791.99,1219.43 1791.76,1219.29 1791.54,1219.14C1791.29,1218.98 1791.04,1218.81 1790.79,1218.64C1790.33,1218.33 1789.88,1218.01 1789.43,1217.69C1788.86,1217.28 1788.29,1216.86 1787.72,1216.43C1786.98,1215.88 1786.25,1215.32 1785.52,1214.75L1785.37,1214.64C1785.31,1215.49 1785.25,1216.35 1785.19,1217.21C1785.15,1217.68 1785.12,1218.14 1785.08,1218.61C1784.95,1220.12 1784.79,1221.62 1784.6,1223.12C1784.4,1224.65 1784.15,1226.17 1783.87,1227.69C1783.45,1229.93 1783.01,1232.18 1782.57,1234.42ZM1780.67,1220.92C1780.82,1219.58 1780.94,1218.24 1781.04,1216.9C1781.12,1215.78 1781.19,1214.65 1781.27,1213.52C1781.29,1213.3 1781.31,1213.07 1781.33,1212.84C1781.37,1212.38 1781.42,1211.92 1781.5,1211.46C1781.57,1211.04 1781.68,1210.61 1781.86,1210.22C1781.91,1210.11 1781.97,1210.01 1782.04,1209.9L1782.12,1209.63L1782.8,1208.95L1783.48,1208.68C1783.65,1208.66 1783.83,1208.63 1784,1208.63C1784.12,1208.63 1784.24,1208.65 1784.36,1208.67C1784.66,1208.73 1784.94,1208.86 1785.2,1209.01L1791.96,1213.01C1791.52,1210.9 1790.96,1208.81 1790.34,1206.75C1789.8,1204.97 1789.22,1203.2 1788.6,1201.45L1788.54,1201.29L1787.15,1197.47L1797.19,1199.98L1798.86,1200.4C1797.78,1198.4 1796.71,1196.4 1795.63,1194.41L1791.92,1187.5C1796.19,1188.01 1800.46,1188.51 1804.73,1189.01L1810.23,1189.66C1810.02,1189.07 1809.82,1188.48 1809.62,1187.89C1809.27,1186.87 1808.93,1185.84 1808.61,1184.82C1808.36,1184.03 1808.12,1183.24 1807.89,1182.44C1807.7,1181.81 1807.53,1181.18 1807.37,1180.54C1807.26,1180.13 1807.16,1179.71 1807.07,1179.3C1806.99,1178.96 1806.93,1178.63 1806.87,1178.3C1806.83,1178.09 1806.8,1177.88 1806.77,1177.68C1806.75,1177.53 1806.73,1177.38 1806.71,1177.23C1806.62,1176.36 1806.62,1175.42 1807.06,1174.64C1807.13,1174.52 1807.2,1174.41 1807.29,1174.3C1807.38,1174.18 1807.49,1174.07 1807.61,1173.97C1807.78,1173.82 1807.98,1173.69 1808.18,1173.6C1808.4,1173.51 1808.62,1173.44 1808.85,1173.41C1808.99,1173.39 1809.02,1173.4 1809.15,1173.39C1809.3,1173.39 1809.44,1173.4 1809.6,1173.4C1810.2,1173.42 1810.81,1173.46 1811.41,1173.49C1812.15,1173.54 1812.88,1173.59 1813.62,1173.64C1815.69,1173.79 1817.76,1173.95 1819.84,1174.11L1820.1,1174.13C1819.91,1173.77 1819.73,1173.41 1819.55,1173.05C1819.37,1172.68 1819.19,1172.31 1819.01,1171.94C1818.44,1170.75 1817.89,1169.55 1817.36,1168.34C1816.16,1165.56 1815.1,1162.73 1814.17,1159.85C1812.58,1154.88 1811.44,1149.78 1810.77,1144.61C1810.28,1140.89 1810.04,1137.14 1810.03,1133.39C1810.02,1129.47 1810.26,1125.55 1810.7,1121.65C1810.88,1120.13 1811.08,1118.62 1811.32,1117.11C1813.08,1105.71 1816.46,1094.62 1820.17,1083.72C1820.83,1081.78 1821.5,1079.85 1822.17,1077.92C1823.3,1074.71 1824.43,1071.5 1825.56,1068.28C1826.34,1066.04 1827.12,1063.79 1827.88,1061.54C1828.31,1060.28 1828.73,1059.01 1829.14,1057.74C1828.7,1058.29 1828.26,1058.84 1827.82,1059.39C1821.54,1067.3 1815.63,1075.5 1810.11,1083.96C1806.08,1090.13 1802.25,1096.44 1798.68,1102.89C1795.94,1107.85 1793.35,1112.89 1790.93,1118.02C1789.05,1122.01 1787.28,1126.06 1785.63,1130.17C1784.32,1133.43 1783.1,1136.72 1781.96,1140.05C1781.14,1142.48 1780.36,1144.92 1779.64,1147.38C1779.1,1149.23 1778.59,1151.09 1778.11,1152.95C1777.67,1154.65 1777.27,1156.37 1776.89,1158.09C1774.41,1169.39 1773.23,1181.02 1774.07,1192.58C1774.21,1194.62 1774.42,1196.66 1774.7,1198.69C1775.08,1201.51 1775.59,1204.31 1776.23,1207.09C1776.88,1209.88 1777.66,1212.65 1778.58,1215.38C1779.1,1216.91 1779.66,1218.42 1780.26,1219.93C1780.4,1220.26 1780.53,1220.59 1780.67,1220.92ZM1792.25,1214.58C1792.2,1214.3 1792.15,1214.01 1792.1,1213.73L1792.08,1213.63L1791.81,1214.26C1791.95,1214.37 1792.1,1214.47 1792.25,1214.58Z" style="fill:rgb(156,166,156);fill-rule:nonzero;"/>
            </g>
            <path d="M447.882,230.731C447.882,230.731 449.052,239.136 444.478,241.582C443.733,242.114 440.861,243.072 441.286,244.774C441.818,247.114 443.094,246.689 444.903,246.263C449.69,245.412 455.222,235.199 447.882,230.731Z" style="fill:rgb(156,166,156);fill-rule:nonzero;"/>
            <g transform="matrix(0.24,0,0,0.24,0,0)">
                <path d="M1846,1029.57C1845.69,1029.57 1845.37,1029.56 1845.05,1029.53C1844.41,1029.48 1843.78,1029.37 1843.16,1029.19C1842.63,1029.03 1842.12,1028.82 1841.64,1028.55C1841.3,1028.36 1840.96,1028.13 1840.65,1027.89C1840.42,1027.71 1840.21,1027.52 1840,1027.31C1838.7,1026.03 1837.87,1024.35 1837.29,1022.63C1837.2,1022.35 1837.11,1022.06 1837.02,1021.76C1836.91,1021.38 1836.81,1020.99 1836.72,1020.6C1836.67,1020.42 1836.63,1020.24 1836.6,1020.07C1836.54,1019.77 1836.49,1019.48 1836.46,1019.19C1836.4,1018.48 1836.43,1017.75 1836.57,1017.05C1836.72,1016.28 1836.98,1015.54 1837.34,1014.85C1838.19,1013.21 1839.5,1011.87 1840.93,1010.73C1842.64,1009.36 1844.56,1008.26 1846.5,1007.23C1847.33,1006.79 1848.17,1006.36 1849,1005.92C1849.23,1005.8 1849.46,1005.68 1849.68,1005.56C1850,1005.38 1850.31,1005.2 1850.62,1005.01C1850.67,1004.97 1850.67,1004.97 1850.73,1004.93L1850.89,1004.82C1851.07,1004.72 1851.24,1004.63 1851.41,1004.53C1852.31,1004.02 1853.17,1003.44 1853.98,1002.78C1854.5,1002.37 1854.99,1001.93 1855.45,1001.47C1858.18,998.771 1860.1,995.353 1861.44,991.782C1861.63,991.271 1861.81,990.756 1861.98,990.237C1862.23,989.491 1862.45,988.739 1862.66,987.981C1862.9,987.068 1863.12,986.148 1863.31,985.223C1863.57,983.998 1863.78,982.765 1863.95,981.526C1864.18,979.95 1864.34,978.367 1864.45,976.78C1864.6,974.719 1864.66,972.653 1864.65,970.587C1864.64,968.932 1864.58,967.276 1864.48,965.624C1864.4,964.367 1864.29,963.111 1864.14,961.861L1864.12,961.747L1863.53,957.32C1864.9,958.156 1866.27,958.985 1867.63,959.829C1868.66,960.472 1869.66,961.155 1870.62,961.888C1872.47,963.293 1874.18,964.875 1875.7,966.629C1877.19,968.349 1878.49,970.233 1879.56,972.245C1880.3,973.652 1880.93,975.119 1881.44,976.628C1881.81,977.726 1882.12,978.845 1882.36,979.979C1882.54,980.822 1882.69,981.673 1882.8,982.528C1883.53,988.066 1882.84,993.729 1881.21,999.052C1880.94,999.934 1880.64,1000.81 1880.32,1001.67C1879.92,1002.75 1879.48,1003.82 1879.01,1004.87C1878.39,1006.23 1877.72,1007.56 1876.99,1008.86C1876,1010.62 1874.9,1012.34 1873.7,1013.98C1872.04,1016.26 1870.18,1018.4 1868.14,1020.34C1866.58,1021.81 1864.91,1023.17 1863.12,1024.35C1860.95,1025.78 1858.6,1026.97 1856.1,1027.69C1855.54,1027.85 1854.97,1027.98 1854.39,1028.1L1854.26,1028.12L1854.19,1028.13C1853.41,1028.32 1852.62,1028.51 1851.84,1028.69C1850.13,1029.09 1848.4,1029.46 1846.64,1029.55C1846.43,1029.56 1846.22,1029.57 1846,1029.57ZM1845.99,1025.4C1847.02,1025.39 1848.04,1025.23 1849.05,1025.04C1850.23,1024.8 1851.41,1024.51 1852.58,1024.23L1853.34,1024.06C1853.49,1024.03 1853.65,1024 1853.81,1023.97C1853.98,1023.93 1854.15,1023.89 1854.32,1023.85C1856.9,1023.21 1859.3,1021.96 1861.47,1020.44C1863.13,1019.28 1864.66,1017.95 1866.09,1016.51C1867.63,1014.96 1869.05,1013.29 1870.34,1011.52C1871.5,1009.93 1872.56,1008.26 1873.51,1006.54C1874.23,1005.25 1874.88,1003.93 1875.47,1002.57C1875.93,1001.51 1876.36,1000.43 1876.74,999.332C1877.01,998.538 1877.27,997.735 1877.49,996.925C1878.95,991.773 1879.42,986.268 1878.32,981C1878.16,980.217 1877.96,979.441 1877.73,978.675C1877.4,977.616 1877.01,976.577 1876.55,975.568C1875.89,974.106 1875.08,972.709 1874.16,971.399C1873.17,970.003 1872.04,968.708 1870.81,967.521C1870.13,966.866 1869.41,966.246 1868.68,965.655L1868.65,965.634C1868.67,965.951 1868.69,966.269 1868.7,966.587C1868.72,966.921 1868.74,967.255 1868.75,967.589C1868.84,969.99 1868.84,972.393 1868.74,974.793C1868.66,976.667 1868.52,978.539 1868.3,980.402C1868.14,981.801 1867.93,983.195 1867.68,984.581C1867.5,985.582 1867.29,986.579 1867.06,987.57C1866.86,988.404 1866.64,989.233 1866.4,990.056C1865.07,994.612 1863.05,999.04 1859.98,1002.7C1859.53,1003.23 1859.06,1003.75 1858.57,1004.25C1857.88,1004.94 1857.16,1005.59 1856.39,1006.19C1855.36,1007.01 1854.25,1007.74 1853.09,1008.37L1853.1,1008.36C1853,1008.42 1852.9,1008.49 1852.8,1008.56C1852.66,1008.65 1852.52,1008.73 1852.37,1008.82C1851.99,1009.05 1851.59,1009.26 1851.2,1009.47C1850.38,1009.9 1849.56,1010.33 1848.74,1010.75C1847.65,1011.33 1846.57,1011.92 1845.53,1012.58C1844.79,1013.05 1844.08,1013.54 1843.4,1014.09C1842.91,1014.49 1842.45,1014.91 1842.03,1015.38C1841.66,1015.79 1841.33,1016.23 1841.07,1016.71C1840.76,1017.3 1840.58,1017.94 1840.6,1018.6C1840.61,1018.77 1840.62,1018.94 1840.65,1019.11C1840.69,1019.29 1840.73,1019.46 1840.77,1019.64C1840.86,1020.02 1840.97,1020.41 1841.08,1020.79C1841.16,1021.07 1841.25,1021.35 1841.36,1021.63C1841.43,1021.83 1841.5,1022.02 1841.59,1022.22C1841.66,1022.39 1841.74,1022.57 1841.82,1022.74C1842.22,1023.55 1842.76,1024.35 1843.54,1024.83C1843.69,1024.92 1843.84,1025 1844,1025.07C1844.53,1025.29 1845.11,1025.37 1845.68,1025.4C1845.79,1025.4 1845.89,1025.4 1845.99,1025.4Z" style="fill:rgb(156,166,156);fill-rule:nonzero;"/>
            </g>
            <path d="M438,236.2C438.994,236.2 439.8,237.006 439.8,238C439.8,238.994 438.994,239.8 438,239.8C437.006,239.8 436.2,238.994 436.2,238C436.2,237.006 437.006,236.2 438,236.2" style="fill:white;fill-rule:nonzero;"/>
            <path d="M432.563,244.986C431.393,245.944 425.223,252.327 431.286,254.667C437.563,252.965 435.861,251.795 437.244,250.412C437.28,247.54 434.123,246.795 432.563,244.986Z" style="fill:rgb(217,31,38);fill-rule:nonzero;"/>
            <g transform="matrix(0.24,0,0,0.24,0,0)">
                <path d="M1796.91,1063.3C1796.49,1063.14 1796.07,1062.98 1795.65,1062.81C1795.2,1062.62 1794.76,1062.43 1794.32,1062.23C1792.69,1061.47 1791.13,1060.56 1789.72,1059.44C1788.56,1058.53 1787.51,1057.47 1786.64,1056.27C1786.07,1055.47 1785.58,1054.62 1785.18,1053.73C1784.89,1053.07 1784.65,1052.39 1784.47,1051.69C1784.33,1051.16 1784.22,1050.61 1784.14,1050.06C1783.69,1046.88 1784.3,1043.64 1785.37,1040.65C1785.54,1040.15 1785.74,1039.65 1785.94,1039.16C1786.17,1038.6 1786.42,1038.04 1786.69,1037.49C1787.05,1036.73 1787.44,1035.99 1787.85,1035.25C1788.37,1034.32 1788.93,1033.4 1789.51,1032.5C1790.28,1031.31 1791.09,1030.15 1791.94,1029.02C1793.1,1027.48 1794.32,1026 1795.6,1024.56C1796.51,1023.54 1797.45,1022.54 1798.42,1021.57C1799.17,1020.82 1799.94,1020.09 1800.75,1019.39L1800.89,1019.27L1802.58,1017.88L1804.06,1019.57C1804.39,1019.94 1804.73,1020.3 1805.09,1020.64C1806.23,1021.76 1807.5,1022.75 1808.79,1023.69C1810.18,1024.71 1811.61,1025.68 1813.02,1026.67C1813.36,1026.91 1813.71,1027.16 1814.05,1027.4C1815.91,1028.76 1817.73,1030.19 1819.3,1031.88C1820.32,1032.96 1821.22,1034.14 1821.95,1035.44C1822.67,1036.72 1823.21,1038.1 1823.54,1039.53C1823.81,1040.75 1823.93,1042 1823.93,1043.25L1823.92,1044.25C1823.67,1044.51 1823.41,1044.76 1823.16,1045.02C1823.11,1045.08 1823.06,1045.13 1823.01,1045.18C1822.66,1045.58 1822.34,1046 1822.06,1046.45C1821.74,1046.99 1821.49,1047.55 1821.25,1048.12C1821.04,1048.64 1820.84,1049.16 1820.62,1049.68C1820.39,1050.23 1820.15,1050.77 1819.86,1051.3C1819.5,1051.97 1819.08,1052.6 1818.6,1053.19C1817.59,1054.43 1816.35,1055.46 1815.02,1056.34C1813.46,1057.37 1811.78,1058.21 1810.06,1058.95C1809.17,1059.34 1808.27,1059.7 1807.36,1060.04C1806.15,1060.5 1804.93,1060.92 1803.7,1061.31C1802.07,1061.84 1800.43,1062.32 1798.79,1062.79C1798.16,1062.96 1797.54,1063.13 1796.91,1063.3ZM1797.15,1058.92C1799.38,1058.3 1801.61,1057.64 1803.8,1056.89C1805.57,1056.28 1807.33,1055.62 1809.04,1054.85C1810.28,1054.29 1811.49,1053.66 1812.63,1052.92C1813.6,1052.29 1814.53,1051.56 1815.27,1050.67C1815.68,1050.19 1816.02,1049.66 1816.31,1049.1C1816.56,1048.61 1816.77,1048.1 1816.97,1047.59C1817.11,1047.24 1817.25,1046.89 1817.39,1046.54C1817.47,1046.35 1817.55,1046.16 1817.64,1045.97C1817.92,1045.34 1818.23,1044.73 1818.59,1044.14C1818.94,1043.59 1819.33,1043.07 1819.75,1042.58C1819.75,1042.44 1819.74,1042.31 1819.73,1042.18C1819.66,1041.33 1819.51,1040.48 1819.26,1039.67C1819.12,1039.22 1818.96,1038.79 1818.77,1038.36C1817.76,1036.14 1816.04,1034.33 1814.19,1032.78C1813.9,1032.53 1813.6,1032.29 1813.3,1032.06C1812.87,1031.72 1812.43,1031.38 1811.99,1031.06C1811.4,1030.63 1810.81,1030.21 1810.22,1029.79C1809.4,1029.22 1808.58,1028.65 1807.77,1028.08C1807.42,1027.84 1807.08,1027.6 1806.74,1027.35C1805.77,1026.65 1804.82,1025.94 1803.91,1025.18C1803.33,1024.69 1802.77,1024.19 1802.23,1023.68C1802.07,1023.83 1801.91,1023.98 1801.75,1024.14C1800.26,1025.6 1798.84,1027.14 1797.5,1028.73C1796.51,1029.9 1795.56,1031.11 1794.66,1032.35C1793.92,1033.37 1793.22,1034.41 1792.56,1035.47C1792.04,1036.3 1791.55,1037.14 1791.1,1038.01C1790.74,1038.67 1790.41,1039.34 1790.11,1040.03C1789.86,1040.57 1789.63,1041.13 1789.42,1041.68C1789.27,1042.11 1789.12,1042.53 1788.98,1042.96C1788.87,1043.32 1788.77,1043.68 1788.68,1044.05C1788.28,1045.61 1788.07,1047.23 1788.2,1048.84C1788.24,1049.32 1788.31,1049.79 1788.41,1050.26C1788.47,1050.54 1788.55,1050.82 1788.63,1051.09C1788.76,1051.49 1788.91,1051.88 1789.09,1052.26C1789.38,1052.86 1789.72,1053.43 1790.12,1053.96C1790.76,1054.82 1791.54,1055.58 1792.39,1056.24C1793.83,1057.37 1795.46,1058.22 1797.15,1058.92Z" style="fill:rgb(3,4,4);fill-rule:nonzero;"/>
            </g>
            <path d="M445.967,305.307C445.648,306.69 444.265,311.796 446.18,315.732C451.499,313.499 453.946,314.136 455.755,315.307C451.394,311.796 449.691,310.307 445.967,305.307Z" style="fill:rgb(156,166,156);fill-rule:nonzero;"/>
            <g transform="matrix(0.24,0,0,0.24,0,0)">
                <path d="M1904.78,1319.98C1902.36,1318.42 1899.94,1316.86 1897.51,1315.31C1897.34,1315.21 1897.17,1315.1 1897,1315C1896.32,1314.59 1895.62,1314.2 1894.9,1313.85C1893.77,1313.29 1892.6,1312.83 1891.4,1312.47C1889.51,1311.89 1887.54,1311.57 1885.55,1311.46C1883.16,1311.34 1880.75,1311.51 1878.38,1311.86C1875.72,1312.25 1873.09,1312.88 1870.51,1313.63C1868.09,1314.34 1865.71,1315.17 1863.36,1316.07C1862.37,1316.45 1861.38,1316.85 1860.4,1317.26L1858.06,1318.23C1857.71,1317.5 1857.36,1316.78 1857.01,1316.05C1856.92,1315.85 1856.82,1315.64 1856.73,1315.43C1856.18,1314.21 1855.69,1312.95 1855.27,1311.68C1853.62,1306.68 1852.93,1301.4 1852.86,1296.14C1852.85,1295.18 1852.86,1294.23 1852.88,1293.27C1852.92,1291.94 1852.99,1290.62 1853.1,1289.3C1853.22,1287.8 1853.38,1286.31 1853.58,1284.82C1853.83,1282.94 1854.14,1281.07 1854.49,1279.21C1854.73,1277.94 1855,1276.68 1855.28,1275.41C1855.52,1274.35 1855.78,1273.28 1856.03,1272.22L1856.1,1271.92L1857.18,1267.27C1858.55,1269.11 1859.91,1270.94 1861.29,1272.77C1864.95,1277.63 1868.71,1282.43 1872.72,1287.01C1874.59,1289.14 1876.52,1291.23 1878.51,1293.24C1880.16,1294.91 1881.86,1296.54 1883.59,1298.12C1886.05,1300.37 1888.57,1302.55 1891.13,1304.69C1893.61,1306.75 1896.11,1308.78 1898.62,1310.81L1906.69,1317.32C1906.06,1318.21 1905.42,1319.09 1904.78,1319.98ZM1860.15,1312.86C1860.56,1312.69 1860.96,1312.54 1861.36,1312.38C1861.7,1312.25 1862.03,1312.12 1862.36,1311.99C1863.01,1311.75 1863.66,1311.51 1864.31,1311.28C1866.53,1310.48 1868.78,1309.76 1871.06,1309.15C1872.9,1308.66 1874.77,1308.24 1876.65,1307.91C1880.39,1307.27 1884.23,1307.03 1888.01,1307.51C1887.7,1307.25 1887.4,1306.99 1887.1,1306.74C1884.85,1304.84 1882.63,1302.91 1880.47,1300.92C1878.1,1298.73 1875.79,1296.47 1873.57,1294.13C1868.48,1288.76 1863.84,1282.99 1859.35,1277.11L1859.22,1276.93C1858.95,1278.14 1858.7,1279.36 1858.47,1280.58C1857.94,1283.45 1857.53,1286.35 1857.28,1289.26C1857.06,1291.92 1856.97,1294.59 1857.05,1297.26C1857.18,1301.23 1857.71,1305.21 1858.82,1309.03C1859.11,1310.06 1859.45,1311.07 1859.84,1312.07C1859.94,1312.33 1860.04,1312.59 1860.15,1312.86Z" style="fill:rgb(156,166,156);fill-rule:nonzero;"/>
            </g>
            <path d="M485.223,330.945C485.223,330.945 477.563,312.434 457.989,307.753C438.414,303.072 440.967,282.221 442.563,280.944C443.414,279.135 444.052,276.37 449.69,279.03C455.329,281.689 481.287,294.774 485.01,295.412C488.734,296.051 485.542,331.371 485.223,330.945Z" style="fill:rgb(156,166,156);fill-rule:nonzero;"/>
            <g transform="matrix(0.24,0,0,0.24,0,0)">
                <path d="M2021.72,1381.05C2021.41,1381 2021.16,1380.99 2020.88,1380.85C2020.52,1380.67 2020.21,1380.41 2019.98,1380.08C2019.9,1379.96 2019.87,1379.82 2019.82,1379.69C2019.75,1379.53 2019.72,1379.45 2019.64,1379.28C2019.52,1379 2019.39,1378.72 2019.27,1378.45C2018.29,1376.3 2017.23,1374.18 2016.13,1372.08C2014.89,1369.71 2013.58,1367.38 2012.22,1365.07C2008.48,1358.71 2004.37,1352.58 1999.92,1346.7C1991.37,1335.39 1981.57,1324.99 1970.63,1315.96C1965.59,1311.8 1960.31,1307.92 1954.81,1304.39C1949.07,1300.71 1943.09,1297.4 1936.91,1294.51C1930.61,1291.55 1924.1,1289.03 1917.46,1286.98C1915.19,1286.27 1912.91,1285.62 1910.61,1285.03C1909.36,1284.7 1908.09,1284.4 1906.83,1284.09C1906.51,1284.01 1906.19,1283.93 1905.87,1283.85C1904.77,1283.57 1903.67,1283.27 1902.58,1282.96C1900.02,1282.22 1897.49,1281.4 1895,1280.48C1888.57,1278.11 1882.38,1275.11 1876.62,1271.4C1871.16,1267.89 1866.11,1263.76 1861.63,1259.07C1858.94,1256.24 1856.45,1253.21 1854.2,1250.03C1852.88,1248.17 1851.64,1246.25 1850.48,1244.28C1844.43,1234.05 1840.61,1222.58 1838.76,1210.86C1838.42,1208.72 1838.15,1206.57 1837.94,1204.41C1837.49,1199.66 1837.35,1194.89 1837.55,1190.13C1837.63,1188.22 1837.76,1186.32 1837.97,1184.42C1838.16,1182.64 1838.4,1180.86 1838.73,1179.1C1838.93,1178.02 1839.16,1176.95 1839.43,1175.89C1839.68,1174.9 1839.96,1173.93 1840.31,1172.97C1840.52,1172.39 1840.76,1171.82 1841.03,1171.26C1841.36,1170.59 1841.75,1169.95 1842.25,1169.4L1842.29,1169.36C1842.68,1168.5 1843.06,1167.64 1843.44,1166.78C1843.59,1166.45 1843.74,1166.12 1843.9,1165.8C1844.29,1164.98 1844.69,1164.17 1845.15,1163.39C1845.83,1162.21 1846.61,1161.1 1847.53,1160.1C1848.23,1159.36 1849.01,1158.69 1849.86,1158.13C1850.42,1157.76 1851.01,1157.43 1851.63,1157.15C1852.06,1156.96 1852.5,1156.79 1852.95,1156.65C1855.48,1155.84 1858.19,1155.81 1860.8,1156.17C1861.19,1156.23 1861.59,1156.29 1861.97,1156.36C1862.52,1156.46 1863.07,1156.58 1863.61,1156.7C1864.26,1156.86 1864.91,1157.03 1865.55,1157.21C1866.41,1157.46 1867.26,1157.74 1868.09,1158.04C1869.28,1158.45 1870.45,1158.91 1871.6,1159.4C1872.33,1159.71 1873.05,1160.02 1873.76,1160.35C1874.43,1160.66 1875.1,1160.98 1875.76,1161.29C1877.71,1162.22 1879.65,1163.16 1881.59,1164.1C1884.08,1165.31 1886.57,1166.52 1889.06,1167.74C1892.83,1169.58 1896.58,1171.42 1900.34,1173.26C1905.58,1175.83 1910.81,1178.4 1916.04,1180.96C1918.87,1182.34 1921.7,1183.72 1924.53,1185.11C1935.88,1190.64 1947.24,1196.16 1958.63,1201.6C1967.98,1206.07 1977.35,1210.5 1986.78,1214.81C1990.45,1216.49 1994.13,1218.16 1997.82,1219.79C2001.14,1221.25 2004.47,1222.69 2007.82,1224.08C2010.17,1225.06 2012.54,1226.01 2014.93,1226.89C2015.91,1227.25 2016.89,1227.6 2017.88,1227.92C2018.69,1228.19 2019.52,1228.44 2020.35,1228.64C2020.54,1228.69 2020.72,1228.73 2020.91,1228.77C2021.07,1228.8 2021.23,1228.83 2021.39,1228.86C2021.48,1228.88 2021.56,1228.9 2021.64,1228.92C2021.9,1228.99 2022.16,1229.09 2022.42,1229.2C2022.57,1229.27 2022.71,1229.35 2022.85,1229.43C2024.05,1230.14 2024.91,1231.29 2025.57,1232.49C2025.68,1232.7 2025.78,1232.9 2025.88,1233.11C2026.26,1233.9 2026.57,1234.72 2026.85,1235.55C2027.16,1236.49 2027.42,1237.45 2027.65,1238.42C2027.95,1239.67 2028.2,1240.94 2028.42,1242.22C2028.6,1243.28 2028.76,1244.35 2028.9,1245.42C2029.1,1246.98 2029.27,1248.54 2029.42,1250.11C2029.6,1252.05 2029.75,1253.99 2029.87,1255.93C2030.03,1258.52 2030.14,1261.12 2030.22,1263.72C2030.34,1267.31 2030.39,1270.91 2030.41,1274.51C2030.44,1281.77 2030.31,1289.02 2030.09,1296.27C2029.83,1304.9 2029.44,1313.51 2028.95,1322.12C2028.47,1330.6 2027.9,1339.08 2027.23,1347.54C2026.86,1352.36 2026.45,1357.17 2026,1361.99C2025.66,1365.56 2025.31,1369.13 2024.9,1372.69C2024.82,1373.4 2024.73,1374.11 2024.64,1374.82C2024.58,1375.32 2024.51,1375.81 2024.44,1376.31C2024.4,1376.64 2024.35,1376.98 2024.3,1377.31C2024.26,1377.59 2024.21,1377.86 2024.16,1378.14C2024.13,1378.31 2024.1,1378.48 2024.06,1378.65C2023.96,1379.18 2023.83,1379.73 2023.5,1380.17C2023.44,1380.25 2023.38,1380.33 2023.31,1380.4C2023.21,1380.5 2023.11,1380.59 2023,1380.67C2022.61,1380.93 2022.56,1380.91 2022.13,1381.02C2021.99,1381.03 2021.85,1381.04 2021.72,1381.05ZM2020.78,1372.01C2021.18,1368.54 2021.53,1365.07 2021.85,1361.6C2022.21,1357.76 2022.54,1353.91 2022.85,1350.06C2023.66,1340.12 2024.33,1330.16 2024.88,1320.2C2025.45,1309.92 2025.89,1299.63 2026.11,1289.33C2026.2,1284.66 2026.26,1279.99 2026.25,1275.33C2026.24,1271.5 2026.18,1267.67 2026.06,1263.85C2025.98,1261.52 2025.88,1259.18 2025.75,1256.85C2025.65,1255.13 2025.53,1253.42 2025.38,1251.71C2025.14,1248.85 2024.82,1245.99 2024.35,1243.16C2024.16,1242.03 2023.95,1240.91 2023.69,1239.79C2023.47,1238.8 2023.21,1237.82 2022.89,1236.86C2022.72,1236.32 2022.52,1235.79 2022.29,1235.28C2022.1,1234.84 2021.88,1234.41 2021.63,1234.01C2021.47,1233.76 2021.29,1233.52 2021.08,1233.3C2020.96,1233.18 2020.81,1233.05 2020.65,1232.98C2020.54,1232.93 2020.42,1232.92 2020.3,1232.9C2020.07,1232.85 2020.07,1232.85 2019.85,1232.8C2018.52,1232.51 2017.23,1232.1 2015.94,1231.67C2014.6,1231.22 2013.27,1230.73 2011.95,1230.22C2008.49,1228.9 2005.08,1227.47 2001.68,1226.02C1996.97,1223.99 1992.29,1221.9 1987.62,1219.78C1982.66,1217.52 1977.73,1215.23 1972.8,1212.92C1961.96,1207.84 1951.17,1202.67 1940.39,1197.45C1923.34,1189.2 1906.34,1180.84 1889.33,1172.51C1887.32,1171.53 1885.32,1170.55 1883.31,1169.57C1881.09,1168.49 1878.87,1167.41 1876.65,1166.34C1875.76,1165.91 1874.87,1165.48 1873.98,1165.06C1873.41,1164.79 1872.85,1164.52 1872.28,1164.26C1871.05,1163.69 1869.8,1163.14 1868.53,1162.65C1867.58,1162.27 1866.61,1161.92 1865.63,1161.6C1864.89,1161.36 1864.15,1161.14 1863.41,1160.95C1862.86,1160.8 1862.31,1160.67 1861.75,1160.56C1861.3,1160.47 1860.85,1160.39 1860.4,1160.33C1860.03,1160.27 1859.66,1160.23 1859.3,1160.19C1857.35,1160.01 1855.32,1160.12 1853.5,1160.88C1853.22,1161 1852.95,1161.13 1852.68,1161.28C1852.23,1161.54 1851.8,1161.84 1851.39,1162.17C1850.31,1163.09 1849.46,1164.25 1848.75,1165.48C1848.19,1166.45 1847.7,1167.47 1847.24,1168.5C1846.9,1169.24 1846.58,1169.99 1846.24,1170.74C1846.15,1170.93 1846.07,1171.12 1845.98,1171.3L1845.7,1171.91C1845.57,1172.02 1845.43,1172.11 1845.31,1172.23C1845.21,1172.33 1845.14,1172.45 1845.07,1172.56C1844.97,1172.71 1844.88,1172.87 1844.8,1173.04C1844.55,1173.54 1844.34,1174.06 1844.16,1174.59C1843.86,1175.44 1843.62,1176.31 1843.4,1177.19C1843.13,1178.29 1842.9,1179.4 1842.71,1180.51C1842.46,1181.95 1842.27,1183.41 1842.11,1184.86C1841.9,1186.82 1841.77,1188.78 1841.69,1190.75C1841.51,1195.53 1841.69,1200.32 1842.2,1205.07C1842.41,1207.07 1842.68,1209.06 1843.01,1211.04C1844.82,1221.95 1848.43,1232.62 1854.06,1242.16C1855.17,1244.03 1856.35,1245.85 1857.6,1247.62C1859.8,1250.74 1862.24,1253.69 1864.89,1256.44C1869.17,1260.88 1873.99,1264.79 1879.19,1268.11C1884.61,1271.55 1890.42,1274.35 1896.44,1276.57C1898.84,1277.45 1901.27,1278.25 1903.73,1278.95C1904.94,1279.3 1906.15,1279.62 1907.37,1279.93C1908.32,1280.17 1909.27,1280.4 1910.22,1280.63C1911.81,1281.03 1913.39,1281.45 1914.97,1281.89C1917.9,1282.72 1920.81,1283.64 1923.68,1284.63C1931.04,1287.19 1938.19,1290.29 1945.08,1293.91C1950.54,1296.78 1955.83,1299.97 1960.92,1303.44C1965.62,1306.65 1970.15,1310.1 1974.5,1313.76C1984.24,1321.95 1993.07,1331.19 2000.93,1341.19C2004.45,1345.66 2007.78,1350.29 2010.9,1355.05C2013.3,1358.71 2015.57,1362.45 2017.71,1366.26C2018.43,1367.55 2019.13,1368.84 2019.82,1370.14C2020.14,1370.76 2020.47,1371.38 2020.78,1372.01Z" style="fill:rgb(3,4,4);fill-rule:nonzero;"/>
            </g>
            <path d="M466.606,307.647C466.287,307.86 492.776,323.285 484.797,336.583C492.352,331.583 489.904,322.86 489.904,322.86C489.904,322.86 496.074,338.924 481.074,346.797C482.67,348.18 483.734,347.86 483.734,347.86L481.18,350.414C481.18,350.414 480.01,352.328 490.117,347.434C487.35,349.669 487.138,351.264 487.138,351.264C487.138,351.264 487.882,353.392 494.479,347.647C489.159,353.392 487.989,356.371 487.989,356.264C502.351,354.987 533.628,308.285 478.096,294.455C481.075,297.541 480.648,297.115 480.648,297.115L466.606,307.647Z" style="fill:rgb(217,31,38);fill-rule:nonzero;"/>
            <g transform="matrix(0.24,0,0,0.24,0,0)">
                <path d="M2032.69,1486.56L2031.63,1485.83L2031.26,1485.01L2030.95,1482.55L2031.99,1482.46C2032.13,1482.19 2032.27,1481.92 2032.41,1481.65C2032.58,1481.36 2032.74,1481.07 2032.9,1480.77C2034.52,1477.88 2036.31,1475.08 2038.19,1472.35C2040.49,1469.01 2042.93,1465.76 2045.46,1462.58L2045.58,1462.43C2045.27,1462.62 2044.95,1462.81 2044.64,1463C2044.38,1463.16 2044.12,1463.31 2043.86,1463.46C2042.97,1463.97 2042.07,1464.46 2041.16,1464.91C2040.43,1465.28 2039.69,1465.62 2038.93,1465.92C2038.33,1466.17 2037.72,1466.39 2037.1,1466.59C2036.67,1466.72 2036.25,1466.84 2035.82,1466.94C2035.5,1467.01 2035.19,1467.08 2034.87,1467.13C2033.4,1467.37 2031.84,1467.38 2030.44,1466.83C2030.25,1466.75 2030.07,1466.67 2029.9,1466.58C2029.66,1466.45 2029.43,1466.31 2029.21,1466.14C2028.96,1465.96 2028.73,1465.75 2028.53,1465.52C2028.24,1465.19 2028,1464.82 2027.83,1464.42L2027.6,1463.85C2027.63,1463.61 2027.66,1463.38 2027.7,1463.14C2027.73,1463 2027.76,1462.86 2027.8,1462.72C2027.96,1462.06 2028.19,1461.42 2028.45,1460.79C2028.72,1460.14 2029.02,1459.51 2029.36,1458.89C2030.15,1457.41 2031.1,1456.02 2032.12,1454.7L2032.16,1454.65C2031.46,1454.97 2030.75,1455.29 2030.05,1455.6C2029.56,1455.82 2029.07,1456.04 2028.58,1456.26C2026.82,1457.03 2025.05,1457.8 2023.27,1458.54C2021.79,1459.15 2020.3,1459.75 2018.81,1460.32C2017.59,1460.79 2016.36,1461.24 2015.12,1461.67C2014.24,1461.97 2013.35,1462.26 2012.46,1462.53C2011.73,1462.74 2011,1462.95 2010.27,1463.12C2009.75,1463.25 2009.23,1463.36 2008.71,1463.45C2008.41,1463.51 2008.11,1463.55 2007.81,1463.59C2007.61,1463.61 2007.4,1463.63 2007.2,1463.65C2007.01,1463.66 2006.82,1463.67 2006.63,1463.67C2005.7,1463.69 2004.72,1463.56 2003.93,1463.03C2003.81,1462.95 2003.69,1462.85 2003.58,1462.75C2003.42,1462.61 2003.27,1462.44 2003.15,1462.26C2003,1462.04 2002.88,1461.8 2002.8,1461.55C2002.69,1461.22 2002.65,1460.87 2002.66,1460.52C2002.68,1460.01 2002.84,1459.52 2003.08,1459.07L2003.24,1458.78L2010.91,1451.11C2010.77,1451.07 2010.62,1451.02 2010.47,1450.97C2009.94,1450.8 2009.41,1450.59 2008.9,1450.37C2007.42,1449.71 2006.04,1448.85 2004.74,1447.88C2004.24,1447.5 2003.75,1447.11 2003.28,1446.7L2000.8,1444.57C2001.94,1443.97 2003.08,1443.37 2004.22,1442.76C2004.57,1442.57 2004.92,1442.38 2005.27,1442.19C2007.84,1440.77 2010.35,1439.25 2012.78,1437.59C2016.6,1434.99 2020.21,1432.08 2023.52,1428.86C2026.99,1425.47 2030.11,1421.74 2032.79,1417.71C2035.54,1413.58 2037.82,1409.14 2039.58,1404.5C2041.37,1399.81 2042.63,1394.92 2043.42,1389.96C2044.18,1385.1 2044.49,1380.17 2044.4,1375.26C2044.37,1373.23 2044.26,1371.2 2044.1,1369.18L2044.09,1369.1C2044.04,1369.41 2043.99,1369.73 2043.93,1370.04C2043.87,1370.34 2043.81,1370.63 2043.76,1370.93C2043.57,1371.84 2043.37,1372.74 2043.14,1373.64C2042.72,1375.3 2042.22,1376.94 2041.63,1378.55C2040.34,1382.14 2038.65,1385.59 2036.58,1388.79C2034.37,1392.2 2031.74,1395.34 2028.79,1398.13C2027.29,1399.54 2025.71,1400.86 2024.07,1402.1C2023.29,1402.68 2022.5,1403.24 2021.7,1403.79L2021.52,1403.91L2021.33,1404.04L2014.41,1408.63L2014.07,1408.3L2018.38,1401.05C2018.98,1400.03 2019.54,1398.99 2020.06,1397.93C2021.09,1395.82 2021.94,1393.63 2022.6,1391.37C2023.22,1389.22 2023.66,1387.01 2023.9,1384.79C2024.07,1383.32 2024.15,1381.85 2024.15,1380.38C2024.15,1379.33 2024.11,1378.28 2024.03,1377.23C2023.52,1370.31 2021.36,1363.6 2018.38,1357.36C2017.88,1356.31 2017.36,1355.27 2016.81,1354.24C2016.14,1352.99 2015.44,1351.75 2014.71,1350.53C2013.72,1348.86 2012.67,1347.23 2011.59,1345.63C2010.27,1343.68 2008.89,1341.78 2007.47,1339.92C2005.63,1337.52 2003.71,1335.18 2001.72,1332.9C1999.14,1329.93 1996.44,1327.05 1993.66,1324.26C1990.13,1320.69 1986.47,1317.27 1982.71,1313.94C1977.67,1309.48 1972.45,1305.21 1967.12,1301.1C1963.03,1297.95 1958.87,1294.89 1954.66,1291.9C1953.19,1290.87 1951.72,1289.83 1950.24,1288.81C1948.76,1287.78 1947.27,1286.76 1945.78,1285.73C1945.39,1285.45 1944.99,1285.17 1944.6,1284.89C1944.38,1284.74 1944.17,1284.59 1943.95,1284.43C1943.82,1284.33 1943.69,1284.24 1943.55,1284.13C1943.4,1284.02 1943.25,1283.9 1943.11,1283.78C1942.81,1283.52 1942.52,1283.24 1942.34,1282.89C1942.3,1282.81 1942.27,1282.74 1942.24,1282.66C1942.19,1282.55 1942.15,1282.43 1942.13,1282.31C1942.1,1282.15 1942.07,1281.98 1942.08,1281.82C1942.09,1281.61 1942.11,1281.39 1942.18,1281.19C1942.38,1280.62 1942.49,1280.59 1942.86,1280.25L1999.59,1237.71C1997.92,1235.97 1996.25,1234.24 1994.59,1232.51C1991.57,1229.37 1988.54,1226.24 1985.52,1223.11C1988.32,1223.81 1991.12,1224.51 1993.93,1225.21C1996.16,1225.78 1998.38,1226.36 2000.6,1226.97C2005.69,1228.36 2010.76,1229.86 2015.79,1231.48C2021.46,1233.32 2027.08,1235.32 2032.63,1237.5C2036.74,1239.12 2040.82,1240.85 2044.84,1242.68C2048,1244.12 2051.12,1245.63 2054.2,1247.22C2056.38,1248.34 2058.53,1249.5 2060.67,1250.7C2062.59,1251.79 2064.49,1252.9 2066.37,1254.04C2078.67,1261.54 2090.14,1270.56 2099.69,1281.38C2101.38,1283.29 2103,1285.25 2104.56,1287.26C2106.61,1289.93 2108.55,1292.68 2110.35,1295.52C2112.81,1299.4 2115.02,1303.44 2116.94,1307.61C2119.44,1313.02 2121.45,1318.65 2122.96,1324.42C2124.01,1328.47 2124.82,1332.58 2125.38,1336.73C2125.76,1339.58 2126.03,1342.44 2126.19,1345.31C2126.6,1352.74 2126.25,1360.2 2125.27,1367.57C2124.56,1372.89 2123.52,1378.16 2122.19,1383.37C2121.37,1386.58 2120.44,1389.76 2119.4,1392.9C2118.62,1395.29 2117.78,1397.65 2116.88,1399.99C2115.83,1402.75 2114.7,1405.49 2113.5,1408.19C2111.85,1411.9 2110.06,1415.55 2108.16,1419.14C2105.55,1424.05 2102.71,1428.83 2099.66,1433.47C2095.68,1439.55 2091.32,1445.39 2086.62,1450.93C2084.12,1453.87 2081.52,1456.73 2078.82,1459.49C2076.25,1462.11 2073.58,1464.64 2070.82,1467.06C2068.22,1469.33 2065.53,1471.51 2062.74,1473.55C2060.55,1475.15 2058.29,1476.68 2055.97,1478.1C2052.35,1480.31 2048.57,1482.27 2044.6,1483.79C2041.98,1484.79 2039.28,1485.6 2036.51,1486.1C2035.69,1486.24 2034.86,1486.36 2034.03,1486.45L2033.88,1486.47L2033.8,1486.5C2033.43,1486.52 2033.06,1486.54 2032.69,1486.56ZM2037.16,1481.72C2040.67,1480.93 2044.05,1479.64 2047.3,1478.09C2050.97,1476.33 2054.48,1474.23 2057.84,1471.92C2060.08,1470.38 2062.26,1468.74 2064.38,1467.03C2066.92,1464.97 2069.38,1462.81 2071.77,1460.57C2077.07,1455.56 2082,1450.15 2086.55,1444.45C2090.91,1439.01 2094.94,1433.3 2098.61,1427.38C2101.26,1423.11 2103.72,1418.74 2105.99,1414.26C2107.69,1410.92 2109.28,1407.51 2110.75,1404.06C2111.88,1401.4 2112.94,1398.72 2113.92,1396.01C2114.64,1394.03 2115.32,1392.03 2115.95,1390.02C2119.52,1378.73 2121.75,1366.98 2122.13,1355.14C2122.2,1353.04 2122.21,1350.94 2122.16,1348.85C2122.1,1346.53 2121.97,1344.21 2121.77,1341.9C2121.49,1338.81 2121.07,1335.73 2120.52,1332.67C2119.73,1328.37 2118.66,1324.11 2117.31,1319.95C2115.33,1313.87 2112.75,1307.99 2109.62,1302.42C2107.89,1299.33 2105.99,1296.34 2103.95,1293.45C2102.42,1291.28 2100.8,1289.16 2099.11,1287.11C2097.86,1285.59 2096.57,1284.11 2095.25,1282.66C2086.67,1273.29 2076.61,1265.35 2065.86,1258.62C2064.33,1257.67 2062.79,1256.74 2061.24,1255.83C2059.2,1254.64 2057.13,1253.49 2055.05,1252.37C2052.1,1250.8 2049.11,1249.29 2046.08,1247.86C2042.22,1246.02 2038.29,1244.3 2034.33,1242.68C2029.17,1240.56 2023.94,1238.62 2018.66,1236.83C2014.23,1235.32 2009.76,1233.92 2005.27,1232.61C2003.13,1231.99 2001,1231.39 1998.85,1230.81L1998.69,1230.77C1999.93,1232.05 2001.16,1233.33 2002.39,1234.61C2002.89,1235.14 2003.39,1235.66 2003.9,1236.19C2004.02,1236.33 2004.15,1236.46 2004.27,1236.59L2004.34,1236.66C2004.51,1236.88 2004.5,1236.88 2004.66,1237.11L2006.79,1243.48L2002.71,1240.57L1947.6,1281.91C1948.64,1282.64 1949.68,1283.36 1950.73,1284.08C1951.59,1284.67 1952.44,1285.27 1953.3,1285.86C1954.03,1286.37 1954.76,1286.88 1955.49,1287.39C1958.09,1289.22 1960.67,1291.07 1963.23,1292.95C1967.19,1295.88 1971.11,1298.88 1974.95,1301.97C1979.9,1305.94 1984.73,1310.07 1989.4,1314.37C1992.91,1317.6 1996.32,1320.94 1999.61,1324.39C2002.12,1327.03 2004.55,1329.75 2006.89,1332.54C2008.71,1334.72 2010.48,1336.95 2012.16,1339.23C2013.45,1340.97 2014.69,1342.75 2015.88,1344.56C2016.85,1346.03 2017.78,1347.52 2018.67,1349.04C2019.36,1350.21 2020.02,1351.4 2020.66,1352.61C2024.1,1359.13 2026.74,1366.15 2027.81,1373.47C2027.96,1374.5 2028.08,1375.54 2028.16,1376.57C2028.27,1377.96 2028.32,1379.34 2028.31,1380.73C2028.3,1382.71 2028.15,1384.68 2027.87,1386.63C2027.59,1388.63 2027.16,1390.6 2026.6,1392.53C2026.33,1393.46 2026.03,1394.38 2025.7,1395.3L2025.69,1395.31C2028.5,1392.7 2031,1389.75 2033.08,1386.53C2035.63,1382.59 2037.54,1378.26 2038.8,1373.74C2040.28,1368.44 2040.88,1362.92 2040.74,1357.43C2040.68,1355.23 2040.51,1353.03 2040.21,1350.85C2040.1,1350.01 2039.97,1349.17 2039.81,1348.33C2039.67,1347.55 2039.5,1346.77 2039.31,1346L2039.28,1345.89L2037.11,1337.83L2040.31,1336.8C2041.3,1339.44 2042.31,1342.08 2043.29,1344.73C2043.39,1344.99 2043.49,1345.26 2043.58,1345.53C2044.48,1348.18 2045.22,1350.89 2045.86,1353.61C2046.71,1357.24 2047.36,1360.92 2047.82,1364.62C2048.8,1372.55 2048.88,1380.61 2047.83,1388.54C2047.23,1393.09 2046.26,1397.6 2044.87,1401.97C2043.44,1406.5 2041.58,1410.88 2039.29,1415.04C2037.16,1418.88 2034.68,1422.52 2031.89,1425.91C2028.05,1430.57 2023.63,1434.73 2018.82,1438.38C2016.68,1440.01 2014.46,1441.53 2012.18,1442.96C2010.92,1443.75 2009.65,1444.51 2008.37,1445.24L2008.29,1445.28C2009.68,1446.19 2011.2,1446.96 2012.84,1447.3C2013.27,1447.39 2013.7,1447.45 2014.13,1447.46C2014.42,1447.47 2014.72,1447.46 2015,1447.41L2015,1447.41L2022.71,1445.2L2008.71,1459.2C2009.57,1459.02 2010.42,1458.79 2011.27,1458.53C2012.24,1458.24 2013.21,1457.92 2014.17,1457.59C2016.7,1456.71 2019.19,1455.72 2021.67,1454.69C2024.16,1453.65 2026.63,1452.57 2029.1,1451.46C2032.85,1449.77 2036.56,1448.02 2040.27,1446.24L2048.58,1442.22L2049.79,1444.12C2047.51,1445.98 2045.22,1447.82 2042.94,1449.68C2041.23,1451.1 2039.58,1452.59 2038.05,1454.2C2037.08,1455.22 2036.15,1456.28 2035.29,1457.4C2034.65,1458.25 2034.04,1459.13 2033.49,1460.05C2032.93,1460.98 2032.44,1461.95 2032.07,1462.97L2032.07,1462.99C2032.4,1463.1 2032.77,1463.12 2033.12,1463.12C2033.65,1463.12 2034.17,1463.04 2034.69,1462.92C2035.47,1462.75 2036.24,1462.5 2036.99,1462.21C2037.99,1461.82 2038.97,1461.36 2039.93,1460.87C2041.26,1460.17 2042.56,1459.41 2043.83,1458.6C2045.39,1457.61 2046.91,1456.56 2048.4,1455.47C2051.83,1452.97 2055.11,1450.28 2058.32,1447.51L2058.64,1447.23L2065.17,1441.56L2067.44,1443.9C2065.24,1446.28 2063.03,1448.66 2060.84,1451.05C2060.34,1451.59 2059.85,1452.13 2059.35,1452.68C2054.99,1457.51 2050.76,1462.47 2046.79,1467.64C2045.41,1469.43 2044.05,1471.26 2042.74,1473.11C2041.41,1474.99 2040.12,1476.9 2038.89,1478.86C2038.51,1479.45 2038.15,1480.05 2037.78,1480.65C2037.57,1481.01 2037.36,1481.36 2037.16,1481.72Z" style="fill:rgb(3,4,4);fill-rule:nonzero;"/>
            </g>
            <path d="M467.776,303.072C471.393,305.625 472.669,306.476 473.095,307.753C469.797,307.009 466.818,307.221 466.818,307.221C466.818,307.221 459.691,300.413 458.414,299.881C457.456,299.881 451.925,296.37 451.925,296.37C449.159,294.987 446.606,285.413 456.819,288.178C467.35,293.178 468.839,293.604 468.839,293.604C473.024,294.916 477.208,296.229 481.393,297.54C483.804,300.236 486.215,302.931 488.627,305.626C488.627,305.626 475.755,299.242 474.159,299.136C477.669,302.008 479.691,305.944 479.691,305.944C475.613,304.774 472.067,303.71 467.776,303.072Z" style="fill:white;fill-rule:nonzero;"/>
            <g transform="matrix(0.24,0,0,0.24,0,0)">
                <path d="M1974.39,1285.15C1972.98,1284.83 1971.56,1284.51 1970.14,1284.2C1969.83,1284.13 1969.52,1284.06 1969.21,1284C1968.08,1283.77 1966.95,1283.56 1965.82,1283.37C1962.17,1282.77 1958.48,1282.39 1954.78,1282.2C1953.09,1282.11 1951.41,1282.06 1949.72,1282.06C1948.32,1282.05 1946.91,1282.08 1945.51,1282.15L1945.34,1282.16L1944.3,1282.23C1943.42,1281.39 1942.55,1280.56 1941.67,1279.73C1937.94,1276.2 1934.19,1272.69 1930.4,1269.22C1927.41,1266.47 1924.4,1263.75 1921.35,1261.06C1920.06,1259.92 1918.75,1258.78 1917.43,1257.66C1916.38,1256.76 1915.32,1255.88 1914.25,1255.01C1913.38,1254.31 1912.51,1253.61 1911.61,1252.95C1911.26,1252.69 1910.91,1252.44 1910.56,1252.2C1910.23,1251.98 1909.9,1251.76 1909.55,1251.57L1909.51,1251.55C1909.43,1251.54 1909.35,1251.53 1909.28,1251.52C1909.18,1251.5 1909.09,1251.48 1909,1251.46C1908.31,1251.31 1907.64,1251.07 1906.99,1250.81C1906.22,1250.51 1905.47,1250.17 1904.73,1249.82C1903.86,1249.41 1903,1248.98 1902.14,1248.53C1901,1247.94 1899.87,1247.32 1898.74,1246.7C1895.98,1245.16 1893.25,1243.57 1890.54,1241.94C1887.73,1240.26 1884.94,1238.55 1882.17,1236.8L1881.99,1236.69C1881.87,1236.63 1881.87,1236.62 1881.75,1236.56C1881.58,1236.47 1881.59,1236.47 1881.42,1236.37C1881.14,1236.21 1880.87,1236.03 1880.61,1235.85C1879.56,1235.1 1878.62,1234.21 1877.77,1233.25C1876.6,1231.91 1875.6,1230.42 1874.73,1228.87C1874.03,1227.63 1873.42,1226.33 1872.9,1225.01C1872.48,1223.94 1872.11,1222.86 1871.8,1221.76C1871.56,1220.89 1871.35,1220.01 1871.18,1219.12C1871.06,1218.47 1870.96,1217.82 1870.88,1217.17C1870.61,1214.9 1870.6,1212.59 1870.98,1210.33C1871.36,1208.06 1872.15,1205.84 1873.42,1203.91C1873.85,1203.25 1874.34,1202.62 1874.87,1202.04C1875.63,1201.22 1876.48,1200.48 1877.4,1199.85C1877.81,1199.57 1878.24,1199.31 1878.67,1199.08C1881.68,1197.41 1885.14,1196.74 1888.56,1196.61C1889.18,1196.58 1889.8,1196.58 1890.41,1196.59C1891.13,1196.6 1891.85,1196.63 1892.57,1196.68C1893.54,1196.75 1894.51,1196.85 1895.48,1196.98C1896.68,1197.14 1897.88,1197.34 1899.07,1197.58C1900.54,1197.87 1902,1198.21 1903.45,1198.6L1903.7,1198.66L1904.13,1198.78C1906.17,1199.74 1908.2,1200.7 1910.23,1201.66C1919.27,1205.93 1928.33,1210.17 1937.44,1214.27C1940.8,1215.79 1944.17,1217.29 1947.56,1218.73C1948.76,1219.24 1949.96,1219.75 1951.16,1220.24C1952.09,1220.61 1953.02,1220.99 1953.97,1221.31C1958.36,1222.76 1962.79,1224.08 1967.2,1225.46C1975.91,1228.2 1984.63,1230.93 1993.35,1233.66L2006.98,1237.93C2014.64,1246.5 2022.3,1255.07 2029.96,1263.63L2042.89,1278.08L2042.27,1278.89C2039.41,1277.48 2036.55,1276.06 2033.69,1274.65C2032.48,1274.05 2031.26,1273.45 2030.04,1272.86C2021.63,1268.74 2013.21,1264.68 2004.74,1260.72C2001.25,1259.08 1997.75,1257.47 1994.23,1255.88C1990.97,1254.42 1987.7,1252.98 1984.4,1251.6L1984.27,1251.55C1984.53,1251.81 1984.78,1252.07 1985.02,1252.34C1985.31,1252.65 1985.6,1252.95 1985.88,1253.27C1986.8,1254.28 1987.71,1255.3 1988.58,1256.34C1990.97,1259.17 1993.2,1262.12 1995.28,1265.18C1996.16,1266.47 1997.02,1267.78 1997.84,1269.11C1998.71,1270.5 1999.54,1271.92 2000.33,1273.36L2000.45,1273.6L2000.53,1273.75L2002.79,1278.11C1998.63,1276.91 1994.48,1275.71 1990.32,1274.52C1988.79,1274.09 1987.26,1273.65 1985.74,1273.22C1980.74,1271.81 1975.74,1270.45 1970.7,1269.22C1967.92,1268.54 1965.13,1267.9 1962.33,1267.31C1960.8,1266.99 1959.28,1266.68 1957.75,1266.39C1958.45,1266.89 1959.16,1267.39 1959.86,1267.9C1961.22,1268.88 1962.57,1269.87 1963.9,1270.9C1964.65,1271.47 1965.4,1272.06 1966.13,1272.67C1967.22,1273.57 1968.28,1274.5 1969.27,1275.51C1970.25,1276.52 1971.16,1277.62 1971.89,1278.82C1972.22,1279.36 1972.51,1279.92 1972.76,1280.49C1972.89,1280.78 1973,1281.06 1973.11,1281.35C1973.55,1282.61 1973.96,1283.88 1974.39,1285.15ZM1967.15,1279.37C1966.14,1278.19 1964.99,1277.14 1963.8,1276.14C1962.61,1275.15 1961.39,1274.21 1960.15,1273.28C1958.75,1272.23 1957.32,1271.2 1955.88,1270.17C1954.12,1268.91 1952.35,1267.66 1950.58,1266.42L1941.27,1259.85L1941.39,1259.54C1944.48,1260.01 1947.56,1260.46 1950.64,1260.93C1953.24,1261.34 1955.84,1261.78 1958.43,1262.28C1962.36,1263.02 1966.27,1263.87 1970.16,1264.8C1978.28,1266.74 1986.3,1269.03 1994.32,1271.34C1994.15,1271.06 1993.97,1270.78 1993.79,1270.5C1993.21,1269.58 1992.62,1268.67 1992.01,1267.77C1990.03,1264.85 1987.9,1262.03 1985.64,1259.32C1983.22,1256.42 1980.64,1253.66 1977.88,1251.1C1976.84,1250.13 1975.77,1249.19 1974.67,1248.29L1969.23,1243.8L1975.93,1244.33C1976.06,1244.35 1976.06,1244.35 1976.19,1244.36C1976.76,1244.44 1977.31,1244.58 1977.86,1244.73C1978.3,1244.86 1978.74,1244.99 1979.17,1245.14C1980.48,1245.57 1981.77,1246.06 1983.05,1246.56C1984.76,1247.23 1986.46,1247.94 1988.15,1248.66C1990.13,1249.5 1992.09,1250.36 1994.06,1251.24C1999.13,1253.5 2004.16,1255.84 2009.18,1258.2C2014.93,1260.91 2020.65,1263.66 2026.37,1266.43L2027.27,1266.87C2022.11,1261.1 2016.95,1255.33 2011.79,1249.56L2004.63,1241.57C1991.74,1237.53 1978.84,1233.48 1965.95,1229.44C1961.56,1228.06 1957.16,1226.7 1952.78,1225.31C1952.62,1225.26 1952.62,1225.26 1952.46,1225.2C1951.37,1224.81 1950.3,1224.38 1949.23,1223.95C1947.72,1223.33 1946.22,1222.69 1944.73,1222.05C1941.01,1220.44 1937.3,1218.79 1933.61,1217.11C1929.22,1215.12 1924.84,1213.1 1920.46,1211.07C1914.53,1208.3 1908.61,1205.51 1902.69,1202.7C1902.35,1202.61 1902.01,1202.53 1901.67,1202.44C1900.33,1202.1 1898.97,1201.8 1897.61,1201.54C1896.53,1201.34 1895.44,1201.17 1894.34,1201.03C1893.48,1200.93 1892.61,1200.85 1891.73,1200.8C1891.05,1200.76 1890.37,1200.74 1889.68,1200.75C1889.1,1200.75 1888.52,1200.77 1887.95,1200.81C1887.51,1200.84 1887.07,1200.88 1886.63,1200.93C1884.06,1201.24 1881.46,1202 1879.37,1203.57C1878.83,1203.97 1878.33,1204.43 1877.88,1204.93C1877.56,1205.28 1877.27,1205.65 1877,1206.04C1876.82,1206.31 1876.65,1206.59 1876.49,1206.87C1875.36,1208.91 1874.9,1211.26 1874.86,1213.58C1874.85,1213.98 1874.85,1214.39 1874.87,1214.8C1874.88,1215.28 1874.92,1215.77 1874.97,1216.25C1875.03,1216.88 1875.12,1217.51 1875.24,1218.13C1875.38,1218.91 1875.55,1219.67 1875.76,1220.43C1876.04,1221.46 1876.38,1222.48 1876.77,1223.48C1877.25,1224.69 1877.82,1225.88 1878.46,1227.01C1879.16,1228.25 1879.97,1229.43 1880.91,1230.5C1881.59,1231.28 1882.36,1232.01 1883.23,1232.59C1883.49,1232.77 1883.77,1232.92 1884.05,1233.06C1884.59,1233.4 1885.12,1233.73 1885.65,1234.07C1888.54,1235.87 1891.44,1237.64 1894.36,1239.37C1896.85,1240.85 1899.35,1242.29 1901.89,1243.68C1902.79,1244.16 1903.68,1244.64 1904.58,1245.1C1905.5,1245.57 1906.43,1246.03 1907.38,1246.45C1907.91,1246.69 1908.45,1246.92 1909,1247.12C1909.22,1247.2 1909.43,1247.27 1909.65,1247.33C1909.79,1247.37 1909.93,1247.41 1910.07,1247.42L1910.07,1247.42L1910.5,1247.43C1910.68,1247.51 1910.87,1247.59 1911.06,1247.67C1911.87,1248.05 1912.62,1248.55 1913.35,1249.07C1914.35,1249.77 1915.32,1250.53 1916.27,1251.29C1917.58,1252.33 1918.86,1253.4 1920.14,1254.49C1921.47,1255.62 1922.79,1256.77 1924.11,1257.93C1927.68,1261.08 1931.19,1264.28 1934.69,1267.5C1938.44,1270.96 1942.16,1274.45 1945.86,1277.96C1946.21,1277.94 1946.57,1277.93 1946.92,1277.92C1949.78,1277.85 1952.64,1277.9 1955.5,1278.06C1959.18,1278.27 1962.86,1278.67 1966.5,1279.26C1966.72,1279.3 1966.93,1279.34 1967.15,1279.37Z" style="fill:rgb(3,4,4);fill-rule:nonzero;"/>
            </g>
            <path d="M417.669,245.944C417.669,245.944 430.01,242.965 431.499,243.391" style="fill:rgb(3,4,4);fill-rule:nonzero;"/>
            <g transform="matrix(0.24,0,0,0.24,0,0)">
                <path d="M1740.77,1026.79L1739.8,1022.74C1740.93,1022.47 1742.07,1022.2 1743.21,1021.93C1750.06,1020.32 1756.91,1018.76 1763.79,1017.29C1769.46,1016.07 1775.13,1014.9 1780.84,1013.87C1782.89,1013.49 1784.96,1013.14 1787.02,1012.82C1788.62,1012.57 1790.22,1012.34 1791.83,1012.16C1793.09,1012.02 1794.36,1011.9 1795.63,1011.88C1796.09,1011.87 1796.54,1011.87 1797,1011.9C1797.49,1011.93 1797.98,1011.99 1798.45,1012.12L1797.37,1016.14C1797.32,1016.13 1797.28,1016.12 1797.23,1016.11C1797.15,1016.09 1797.07,1016.08 1796.99,1016.08C1796.52,1016.03 1796.05,1016.03 1795.59,1016.05C1795.06,1016.06 1794.53,1016.09 1794.01,1016.14C1792.55,1016.25 1791.09,1016.44 1789.63,1016.64C1787.9,1016.89 1786.17,1017.16 1784.45,1017.46C1782.28,1017.83 1780.12,1018.23 1777.97,1018.64C1772.68,1019.65 1767.42,1020.76 1762.16,1021.9C1755.76,1023.3 1749.37,1024.76 1742.99,1026.26C1742.25,1026.44 1741.51,1026.61 1740.77,1026.79Z" style="fill:white;fill-rule:nonzero;"/>
            </g>
        </g>
    </g>
</svg>
