<svg width="900" height="600" viewBox="0 0 900 600" xmlns="http://www.w3.org/2000/svg"><title>Uganda</title><g fill="none" fill-rule="evenodd"><path d="M0 600h900V0H0v600z" fill="#0A0A08"/><path d="M0 200h900V100H0v100z" fill="#F8D91F"/><path d="M0 300h900V200H0v100z" fill="#C5242A"/><path d="M0 500h900V400H0v100z" fill="#F8D91F"/><path d="M0 600h900V500H0v100z" fill="#C5242A"/><path d="M450 206.5c51.64 0 93.5 41.86 93.5 93.5s-41.86 93.5-93.5 93.5-93.5-41.86-93.5-93.5 41.86-93.5 93.5-93.5" fill="#FFF"/><path d="M433.52 228.39l-6.064-11.17c2.34-2.34 6.277-4.148 12.553-4.148 0 .425-.64 12.234-.64 12.234l-5.85 3.085" fill="#C5242A"/><path d="M433.317 229.063l-6.48-11.933.323-.32c.118-.115.237-.23.36-.34.273-.247.558-.48.853-.703.262-.196.53-.38.807-.557 1.673-1.064 3.57-1.74 5.507-2.137.28-.058.56-.11.84-.156.377-.062.756-.115 1.136-.16.49-.057.982-.1 1.475-.13.574-.035 1.148-.05 1.722-.055h.658l-.01.54c0 .063-.004.126-.006.19-.01.245-.023.492-.035.74-.07 1.402-.144 2.805-.218 4.208l-.352 6.574-.043.792-6.538 3.447zm.407-1.345l5.163-2.722.304-5.675c.1-1.874.2-3.75.292-5.625l.006-.12c-.563.01-1.125.035-1.686.077-.466.036-.93.083-1.393.145-.358.047-.714.103-1.068.167-.3.055-.597.116-.894.184-1.69.388-3.34 1.008-4.802 1.95-.185.12-.366.245-.543.374-.235.17-.462.35-.683.538-.116.1-.23.2-.34.305h-.003l5.647 10.403z" fill="#0A0A08"/><path d="M439.37 225.412l.852-12.34s12.554-.745 19.362 7.446c.107-.106-6.702 9.574-6.702 9.574l-13.51-4.68" fill="#F8D91F"/><path d="M452.69 229.496c1.27-1.804 2.537-3.61 3.803-5.415.81-1.153 1.62-2.307 2.422-3.465l.043-.062c-.438-.502-.906-.978-1.4-1.425-.344-.31-.7-.604-1.065-.885-.27-.208-.547-.408-.83-.6-1.928-1.315-4.094-2.26-6.332-2.91-.317-.094-.638-.18-.96-.262-.463-.115-.93-.22-1.397-.314-.607-.122-1.218-.224-1.83-.31-.79-.108-1.584-.188-2.38-.237-.68-.043-1.363-.064-2.045-.054h-.028l-.794 11.51 12.794 4.43zm.384 1.192l-14.228-4.93.908-13.163c.176-.01.352-.02.528-.027.14-.006.28-.01.42-.012.708-.01 1.416.01 2.123.055.85.053 1.697.14 2.54.258.636.09 1.27.198 1.898.326.453.092.904.195 1.352.308 2.618.66 5.162 1.685 7.416 3.182.3.2.593.405.88.62.373.28.736.572 1.087.878.406.354.796.726 1.168 1.115.175.183.346.37.513.56l.042.05.037.04.06-.016.314.525-.082.255-.025.05c-.016.03-.034.055-.05.082l-.118.17c-.088.13-.176.256-.264.384-.28.403-.56.806-.842 1.208-1.1 1.574-2.204 3.146-3.308 4.718l-2.366 3.366z" fill="#0A0A08"/><path d="M453.095 229.986l6.17-9.574c4.15 4.362 5.85 7.447 6.49 12.128.106.106-9.788 2.446-9.788 2.34 0-.106-2.766-4.788-2.872-4.894" fill="#C5242A"/><path d="M455.992 235.383c-.024 0-.046 0-.07-.002-.053-.005-.13-.02-.172-.042-.052-.027-.105-.057-.145-.1-.048-.05-.077-.115-.115-.172l-.007-.045c-.054-.104-.112-.206-.17-.31-.103-.184-.21-.368-.315-.552-.283-.492-.57-.982-.858-1.47-.29-.493-.58-.984-.874-1.473-.097-.163-.195-.325-.294-.487-.085-.14-.17-.282-.26-.42l-.004-.006-.238-.27 6.72-10.426c.274.29.55.578.823.87.305.327.606.66.903.994 1.195 1.356 2.313 2.795 3.2 4.374.17.302.33.61.48.92.223.46.426.928.605 1.406.194.51.36 1.032.505 1.56.157.58.285 1.167.39 1.758.052.29.097.58.14.873l.004.04.008.02.01.163c-.03.133-.02.152-.1.264-.02.028-.048.05-.074.075-.015.013-.032.025-.048.037-.064.044-.138.072-.21.097-.142.05-.287.09-.43.13-.08.02-.163.043-.242.065l-.432.113-.504.13-.566.14c-.724.18-1.45.357-2.174.53-.9.216-1.8.428-2.7.635-.548.126-1.097.25-1.647.37-.212.046-.426.092-.64.134-.14.03-.284.058-.427.075l-.07.003zm-.517-.415l-.004-.027.005.028zm.773-.635c.224-.044.448-.092.67-.14l1.034-.23c.792-.18 1.583-.364 2.373-.55.895-.212 1.79-.427 2.683-.647.38-.094.76-.19 1.138-.285.328-.083.655-.168.98-.258l.074-.02c-.142-.937-.343-1.865-.623-2.77-.227-.735-.507-1.45-.838-2.144-.127-.264-.26-.525-.4-.78-.485-.888-1.05-1.73-1.66-2.535-.53-.7-1.098-1.376-1.684-2.033-.205-.23-.413-.457-.622-.682l-.035-.038-5.65 8.765c.046.074.09.15.137.223.35.58.698 1.163 1.042 1.747.368.625.735 1.252 1.097 1.882.094.165.19.33.28.496z" fill="#0A0A08"/><path d="M455.116 329.455l.32 11.915s4.148.745 6.063 0c1.914-.745-.108-8.298-6.384-11.915zm-18.59 59.465l-.38-.64-.057-.104c-.1-.188-.183-.384-.246-.586-.16-.507-.196-1.045-.145-1.573.05-.523.185-1.037.366-1.53.056-.15.116-.3.18-.448.08-.188.168-.373.26-.555.113-.222.232-.44.358-.654.158-.27.325-.534.5-.794.23-.342.472-.677.724-1.004.333-.433.682-.853 1.043-1.262.456-.516.93-1.015 1.422-1.497v-.002c-.314-.05-.63-.096-.947-.136-.38-.048-.76-.09-1.14-.126-.894-.085-1.793-.14-2.692-.176-1.87-.073-3.743-.056-5.613.02-.468.02-.935.044-1.403.07l-.89.052.176-.69.025-.086c.03-.096.066-.19.108-.282.12-.263.29-.503.48-.72.273-.306.593-.567.93-.798.123-.085.25-.165.377-.242.18-.11.363-.21.55-.308.25-.13.502-.248.76-.36.33-.146.668-.28 1.007-.402.396-.144.795-.276 1.198-.398.7-.212 1.41-.396 2.125-.56.76-.173 1.527-.323 2.297-.453.948-.16 1.902-.292 2.858-.397.804-.088 1.61-.157 2.418-.206 1.352-.08 2.708-.11 4.06-.06.502.02 1.002.05 1.5.095.657.06 1.31.143 1.958.267.006-.048.006-.048.01-.097.028-.255.04-.51.05-.767.008-.277.01-.555.01-.832-.004-.74-.03-1.477-.065-2.214-.045-.948-.104-1.895-.17-2.84-.067-.965-.142-1.928-.222-2.89-.202-2.432-.435-4.86-.682-7.287-.31-3.05-.644-6.098-.997-9.143l-.02-.16-.422.01-.405.008c-1.608.024-3.216 0-4.822-.06-1.867-.07-3.733-.187-5.595-.35-.786-.07-1.57-.147-2.355-.233l-.817-.093-.51-.06-.194-.02c-.216-.017-.43-.028-.647-.03-.42 0-.84.035-1.254.114-.387.074-.765.186-1.128.337-.233.097-.46.21-.68.338-.142.084-.282.174-.418.27-.865.61-1.554 1.44-2.108 2.335-.078.125-.153.252-.226.38-.097.17-.19.343-.28.518-.123.24-.24.483-.35.73-.13.285-.25.574-.365.866-.154.388-.296.78-.433 1.173-.177.51-.344 1.022-.515 1.533l-.106.312c-.05.145-.1.29-.155.433-.04.102-.078.203-.12.304-.033.08-.068.158-.105.236-.023.05-.047.098-.073.146-.018.036-.037.07-.057.105-.124.216-.283.426-.508.544-.027.015-.056.028-.085.04-.038.014-.077.026-.116.035-.057.012-.116.018-.175.017-.083 0-.165-.016-.244-.044-.104-.036-.2-.094-.287-.162-.134-.103-.25-.227-.355-.36-.163-.21-.293-.442-.407-.68-.165-.344-.295-.705-.41-1.07-.136-.433-.25-.875-.35-1.32-.102-.46-.19-.924-.27-1.39-.12-.685-.214-1.374-.298-2.064l-.004-.037c-.18.402-.342.812-.49 1.227-.178.497-.336 1-.474 1.51-.386 1.433-.615 2.907-.68 4.388-.028.674-.022 1.35.015 2.023l.004.076.08 1.283-.938-.83c-.135-.123-.263-.252-.382-.39-.29-.336-.534-.713-.738-1.108-.305-.59-.527-1.22-.698-1.86-.066-.245-.124-.492-.176-.74-.07-.335-.128-.672-.177-1.01-.065-.456-.113-.916-.15-1.376l-.004-.077c-1.206 2.775-2.407 5.552-3.607 8.33-.098-.642-.197-1.284-.293-1.927-.118-.806-.217-1.614-.286-2.426-.055-.645-.09-1.29-.105-1.938-.012-.486-.01-.972.007-1.457.013-.377.036-.753.07-1.13.023-.283.054-.566.09-.848.192-1.438.553-2.864 1.183-4.175.09-.188.185-.373.286-.554.114-.204.234-.405.362-.6.183-.28.38-.55.59-.808.294-.36.615-.696.96-1.006.534-.48 1.127-.895 1.756-1.242.577-.32 1.185-.58 1.808-.795.438-.15.884-.278 1.334-.39.403-.098.81-.183 1.216-.26.343-.066.687-.127 1.03-.192.06-.01.118-.023.177-.034.14-.028.284-.058.425-.093.043-.01.086-.022.13-.034l.075-.022.074-.025.096-.03c.264-.08.533-.136.805-.182.265-.045.532-.08.8-.11.7-.082 1.403-.132 2.107-.17.903-.05 1.806-.078 2.71-.096 1.11-.023 2.22-.03 3.33-.027 1.625.005 3.25.032 4.877.075 1.548.042 3.097.098 4.645.173 1.213.06 2.426.13 3.637.224.44.034.877.072 1.315.118.382.04.765.083 1.144.146l.048.008.03.006.03-.085c.1-.322.163-.654.212-.988.055-.37.09-.742.116-1.115.036-.508.053-1.017.06-1.526.008-.534.005-1.068-.006-1.602-.03-1.392-.105-2.784-.205-4.173-.116-1.604-.265-3.206-.44-4.805l-.043-.375-.097-.07c-.17-.132-.334-.273-.495-.415-.213-.188-.422-.38-.63-.573-.56-.525-1.112-1.062-1.66-1.6-.577-.57-1.15-1.142-1.72-1.717-.853-.86-1.7-1.723-2.544-2.59-.06-.015-.118-.03-.177-.047-.384-.11-.763-.23-1.14-.363-1.04-.37-2.05-.833-3.024-1.354-1.148-.614-2.25-1.31-3.314-2.062-.83-.586-1.633-1.204-2.416-1.848-.807-.663-1.592-1.354-2.357-2.066-.606-.563-1.198-1.14-1.777-1.73-.777-.79-1.53-1.603-2.258-2.44l-.018-.02-.07.104-.086.124c-.056.078-.116.156-.182.228-.043.047-.09.09-.14.13-.028.02-.057.04-.088.057l-.343.18-.467-.48c-.158-.165-.314-.33-.47-.498-.58-.626-1.138-1.27-1.674-1.932-.8-.992-1.55-2.026-2.23-3.103-.752-1.185-1.423-2.422-1.998-3.703-.742-1.654-1.32-3.382-1.714-5.152-.278-1.252-.464-2.524-.558-3.802-.068-.917-.09-1.837-.065-2.755.02-.697.063-1.393.132-2.086.05-.504.11-1.007.186-1.508.495-3.332 1.525-6.57 2.896-9.64.212-.475.432-.947.66-1.414.3-.614.612-1.22.936-1.822.415-.767.848-1.524 1.3-2.27.594-.98 1.218-1.943 1.87-2.886.85-1.235 1.747-2.438 2.684-3.61.96-1.2 1.963-2.37 3.008-3.5.39-.42.783-.834 1.185-1.242.35-.356.705-.708 1.07-1.05l.004-.006 1.373-9.892-.555.09c-1.178.19-2.358.367-3.54.527-.883.12-1.768.228-2.654.324-.6.064-1.202.123-1.804.173-.575.047-1.15.086-1.727.112-.346.016-.693.027-1.04.03-.294.003-.587 0-.88-.01-.222-.008-.443-.02-.664-.04-.16-.015-.32-.033-.48-.057-.11-.017-.22-.036-.328-.06-.085-.017-.17-.037-.253-.06-.05-.014-.097-.03-.145-.044l-.114-.04c-.26-.1-.512-.248-.676-.48-.03-.042-.057-.087-.08-.134-.027-.056-.05-.115-.064-.176-.022-.087-.03-.177-.027-.266.005-.126.035-.25.08-.365.07-.175.172-.333.29-.478.183-.222.403-.413.63-.586.187-.142.38-.272.58-.395.182-.114.368-.22.556-.325.31-.17.627-.33.947-.482.373-.178.75-.346 1.13-.508.874-.372 1.762-.71 2.655-1.033 1.046-.377 2.1-.73 3.158-1.067 1.182-.377 2.37-.733 3.563-1.072l.1-.028c-.02-.037-.037-.075-.056-.112l-.07-.15c-.11-.24-.206-.484-.29-.733-.274-.81-.418-1.66-.435-2.512-.016-.756.07-1.514.242-2.25.286-1.217.806-2.37 1.467-3.426.25-.4.52-.786.807-1.16.095-.125.192-.248.29-.37l.145-.177.132-.118c.087-.076.174-.152.263-.227.278-.235.563-.46.857-.676.565-.413 1.16-.787 1.778-1.113.648-.342 1.322-.634 2.015-.87.897-.304 1.825-.515 2.765-.63.51-.062 1.02-.097 1.533-.103 2.51-.033 5.02.598 7.24 1.767.95.502 1.85 1.1 2.675 1.793 1.354 1.137 2.508 2.53 3.293 4.12.108.22.21.442.303.67.106.257.203.52.288.784.145.45.258.906.34 1.37l.01.052c.01.014.008.015.018.032l.023.046c.04.09.066.186.087.283.02.095.035.19.047.286.034.284.044.57.044.857 0 .487-.038.973-.1 1.455-.078.624-.2 1.243-.354 1.853-.146.577-.322 1.145-.525 1.703-.863 2.368-2.203 4.545-3.826 6.467-.77.91-1.606 1.768-2.49 2.57-.335.304-.677.6-1.024.89-.05.055-.098.112-.146.17-.267.317-.52.646-.76.987-.687.982-1.25 2.048-1.712 3.153-.536 1.29-.936 2.632-1.234 3.994-.1.453-.187.908-.265 1.365-.256 1.494-.404 3.006-.474 4.52-.08 1.744-.058 3.492.046 5.234.08 1.337.207 2.67.38 3.998.065.496.137.99.215 1.485.07.444.148.886.235 1.327l38.337 49.09c-.503-.112-1.005-.224-1.508-.334l-.423-.09c-1.045-.22-2.092-.423-3.142-.61-1.065-.19-2.132-.36-3.203-.51-.9-.126-1.803-.235-2.71-.316-.765-.07-1.533-.12-2.3-.132-.483-.008-.965-.002-1.445.033-.197.015-.393.034-.59.06-.186.027-.372.06-.556.103-.072.018-.145.037-.216.058-.137.04-.272.09-.4.155-.09.048-.18.103-.254.174-.063.06-.115.132-.156.208-.09.17-.135.36-.157.55-.016.146-.02.294-.015.44.005.174.022.347.046.52.035.252.086.502.145.75.058.238.124.474.197.708.183.594.405 1.176.646 1.75.224.533.467 1.06.722 1.582.296.607.61 1.206.935 1.8.5.91 1.027 1.804 1.58 2.682.23.363.464.723.704 1.08.218.325.443.648.675.966.085.116.17.232.26.346.048.063.098.125.147.19l.05.068c.06.08.114.163.166.248.1.165.19.337.265.515.068.16.125.326.17.494.036.13.065.258.087.388.144.834.034 1.698-.234 2.496-.043.13-.09.257-.143.383-.078.19-.166.38-.262.562-.13.247-.276.486-.44.714-.082.117-.17.232-.264.343-.075.09-.154.177-.235.262-.226.232-.478.446-.762.607-.183.104-.38.187-.588.228-.063.012-.127.02-.192.025l-.11.003-.52-.06c-1.524-.172-3.053-.312-4.583-.418-.734-.05-1.47-.093-2.204-.123-.682-.028-1.365-.046-2.05-.047-.498 0-.997.007-1.496.03-.436.02-.873.05-1.307.102-.29.035-.58.08-.866.144-.226.053-.452.117-.663.216l-.018.01c-.046.037-.08.088-.11.137-.057.094-.1.197-.14.3-.062.17-.108.345-.148.52-.052.226-.09.453-.123.682-.045.305-.077.612-.102.92-.033.393-.054.787-.07 1.18-.03.883-.03 1.767-.016 2.65.026 1.46.095 2.92.185 4.377.094 1.544.214 3.086.348 4.626.15 1.73.322 3.46.507 5.188.192 1.797.4 3.592.625 5.386l.024.186.29-.005h.307c.886 0 1.772.037 2.655.113.668.057 1.335.135 1.997.238.538.085 1.074.185 1.605.305.392.088.782.187 1.168.298.312.09.622.188.93.294.256.09.51.185.762.288.2.08.4.168.597.26.66.304 1.298.663 1.89 1.09.585.423 1.124.914 1.583 1.473.188.23.362.472.522.724l.022.034.57.925c-.433-.054-.867-.11-1.3-.163-.43-.052-.86-.1-1.292-.142-.834-.08-1.67-.14-2.507-.18-2.196-.1-4.4-.05-6.59.17-2.325.23-4.63.648-6.884 1.265-2.992.818-5.89 1.983-8.604 3.485-.996.55-1.967 1.147-2.907 1.788-.707.483-1.397.99-2.065 1.526-.52.415-1.027.847-1.516 1.3-.363.336-.72.68-1.054 1.046-.163.182-.322.367-.483.55z" fill="#0A0A08"/><path d="M440.19 251.66s-22.138 24.402-12.587 43.075c.51-2.604.287-4.24.606-4.133-.533-.32 2.745 2.246 2.495 1.747.07-1.35-.998-4.244-.998-4.244.998.25 1.997.5 2.996.748-.583-1.08-1.166-2.163-1.748-3.245l4.244.498s-1.5-3.994-1-3.994 3.495.25 3.495.25c-6.296-11.3-.357-20.682 2.496-30.704" fill="#939E91"/><path d="M427.817 296.26l-.716-1.41-.11-.223c-.18-.373-.354-.75-.515-1.13-.33-.786-.615-1.59-.85-2.41-.234-.804-.42-1.62-.562-2.445-.1-.584-.18-1.172-.235-1.762-.042-.43-.072-.863-.09-1.296-.124-2.795.21-5.598.843-8.32.09-.383.186-.766.287-1.148.13-.495.272-.988.422-1.478.206-.677.43-1.35.667-2.016.303-.845.63-1.682.976-2.51.445-1.06.924-2.106 1.43-3.138.65-1.32 1.348-2.618 2.084-3.892.964-1.668 1.995-3.297 3.082-4.887.974-1.424 1.993-2.818 3.058-4.176.42-.538.85-1.07 1.287-1.595.304-.365.612-.727.928-1.08l1.315-1.458.087.048-.6 2.1c-.173.59-.354 1.18-.542 1.767-.314.977-.647 1.947-.985 2.916l-.813 2.313c-.16.46-.32.922-.478 1.384-.143.42-.284.843-.422 1.266-.82 2.524-1.525 5.102-1.815 7.746-.103.937-.153 1.88-.14 2.822.012.9.083 1.8.216 2.69.202 1.363.55 2.703 1.03 3.995.24.645.51 1.28.807 1.9.2.413.41.82.633 1.223l.49.884-1.64-.135-.85-.067c-.432-.033-.865-.066-1.3-.094l-.118-.007-.042-.003c.008.05.018.097.03.145.052.245.117.487.187.728.062.214.128.426.195.638.188.586.39 1.167.604 1.744l.302.81c-1.332-.156-2.664-.312-3.996-.47l-.107-.012 1.83 3.396-2.596-.648-.607-.152.09.28c.177.574.34 1.155.466 1.745.047.222.088.445.12.67.035.248.057.498.055.748v.025l.002.01.006.036c.003.04.005.052.003.092-.005.063-.018.124-.044.182-.032.07-.078.134-.137.185-.035.03-.08.056-.12.076-.033.015-.07.027-.107.035-.033.01-.056.012-.09.014-.176.01-.34-.07-.487-.155-.035-.02-.07-.04-.103-.062-.055-.034-.11-.068-.164-.104-.062-.04-.12-.08-.18-.12-.11-.075-.22-.152-.326-.23-.138-.098-.275-.2-.412-.3-.177-.133-.353-.268-.528-.403l-.036-.027-.042.617c-.01.112-.018.225-.027.337-.032.36-.07.72-.117 1.08-.048.368-.106.734-.173 1.098-.1.54-.208 1.077-.313 1.616zm-.457-3.24c.037-.32.065-.642.088-.964l.057-.81.013-.165c.01-.11.022-.22.04-.33.02-.102.045-.204.09-.297.012-.026.026-.05.04-.076l.02-.067.163-.16.165-.067c.042-.004.084-.01.126-.01.03 0 .058.004.086.01.073.012.14.044.203.08l1.62.96c-.105-.508-.24-1.008-.39-1.503-.127-.428-.267-.852-.417-1.272l-.014-.038-.334-.917 2.41.602.4.1-.774-1.437-.892-1.658 3.076.363 1.32.155c-.05-.142-.1-.284-.148-.425-.083-.245-.164-.49-.242-.737-.06-.19-.118-.38-.173-.57-.044-.15-.086-.304-.125-.456-.026-.1-.05-.2-.072-.3-.018-.08-.034-.158-.048-.238-.01-.05-.017-.1-.024-.15l-.014-.107c-.02-.21-.02-.434.084-.62.016-.03.034-.057.055-.082.022-.03.048-.056.076-.08.042-.036.088-.066.138-.09.05-.02.105-.037.16-.044.033-.005.04-.005.07-.006.037 0 .073 0 .11.002.144.005.29.013.435.022.175.01.352.023.528.036.498.035.995.074 1.493.113l.063.005-.13-.26c-.044-.088-.088-.177-.13-.266-.138-.286-.27-.574-.396-.865-.287-.665-.544-1.344-.765-2.036-.382-1.192-.657-2.417-.818-3.66-.116-.89-.174-1.79-.176-2.69-.003-.942.054-1.883.16-2.82.043-.362.092-.725.148-1.087.424-2.738 1.234-5.398 2.124-8.015.158-.465.32-.928.48-1.39.27-.772.544-1.543.814-2.314.188-.54.374-1.078.557-1.62.103-.302.204-.606.304-.91-.106.13-.212.263-.317.395-1.507 1.9-2.926 3.868-4.25 5.897-.97 1.482-1.886 2.996-2.743 4.544-.658 1.19-1.28 2.4-1.86 3.63-.452.96-.878 1.93-1.273 2.916-.313.783-.607 1.573-.88 2.372-.197.583-.384 1.17-.557 1.76-.13.443-.253.888-.367 1.336-.105.41-.202.82-.293 1.233-.595 2.713-.877 5.506-.677 8.28.035.49.085.98.152 1.466.092.677.214 1.35.368 2.015.156.672.344 1.337.564 1.99.124.368.26.732.403 1.093l.097.237zm2.78-1.52c-.01-.07-.023-.137-.036-.205l-.004-.024-.067.153.107.076zM447.882 230.73s1.17 8.406-3.404 10.852c-.745.532-3.617 1.49-3.192 3.192.532 2.34 1.808 1.915 3.617 1.49 4.787-.852 10.32-11.065 2.98-15.533" fill="#939E91"/><path d="M443.04 247.097c-.075 0-.15-.003-.227-.01-.154-.01-.306-.037-.454-.082-.128-.038-.25-.09-.366-.153-.083-.046-.163-.1-.237-.16-.055-.042-.107-.088-.157-.137-.312-.308-.512-.71-.65-1.123-.023-.07-.045-.14-.065-.21-.026-.09-.05-.185-.073-.28l-.03-.126c-.014-.07-.024-.14-.03-.21-.017-.172-.008-.345.024-.513.036-.185.1-.363.186-.53.203-.392.518-.714.86-.987.413-.33.873-.594 1.337-.84.2-.107.4-.21.6-.315l.164-.086c.075-.042.15-.085.224-.132l.027-.02.04-.027.123-.067c.217-.123.424-.263.618-.42.123-.1.24-.205.353-.316.655-.647 1.114-1.467 1.436-2.324.046-.123.09-.247.13-.37.06-.18.112-.36.16-.543.06-.22.113-.44.16-.66.06-.295.11-.59.153-.89.053-.377.092-.757.12-1.138.034-.494.05-.99.046-1.486-.003-.396-.016-.794-.042-1.19-.02-.302-.044-.603-.08-.903l-.005-.028-.142-1.063c.328.2.657.4.984.602.246.153.486.317.717.493.443.337.854.717 1.22 1.138.356.414.67.866.924 1.35.18.336.33.69.452 1.05.09.264.163.533.22.805.045.202.08.407.107.612.175 1.33.008 2.688-.382 3.965-.064.212-.136.422-.213.63-.096.26-.2.515-.315.767-.147.324-.31.644-.484.955-.24.425-.502.836-.79 1.23-.398.546-.844 1.06-1.335 1.527-.374.353-.775.68-1.204.963-.52.343-1.086.627-1.687.8-.135.04-.27.07-.41.098l-.03.006-.018.002-.563.134c-.412.095-.826.184-1.25.207l-.15.004zm-.002-1c.247-.002.492-.04.734-.09.284-.054.566-.124.847-.19l.18-.044.114-.02.123-.03c.62-.153 1.195-.454 1.716-.818.397-.28.767-.598 1.11-.942.37-.372.71-.774 1.018-1.198.28-.382.534-.782.763-1.196.17-.31.328-.628.47-.952.11-.256.212-.515.304-.778.066-.19.127-.384.18-.578.35-1.236.464-2.558.2-3.822-.04-.188-.087-.374-.143-.558-.078-.254-.172-.504-.282-.746-.16-.35-.352-.686-.575-1-.237-.335-.507-.646-.803-.93-.163-.158-.334-.307-.51-.45l-.008-.004c.005.076.01.153.013.23l.01.24c.02.576.022 1.152-.003 1.728-.02.45-.053.9-.105 1.347-.04.335-.088.67-.148 1.002-.044.24-.094.48-.15.717-.048.2-.1.4-.158.596-.32 1.094-.804 2.157-1.54 3.034-.108.13-.222.253-.34.372-.164.165-.34.32-.522.466-.25.196-.514.372-.793.522l.005-.003c-.024.017-.05.033-.073.05-.034.02-.068.04-.102.062-.093.054-.187.106-.282.157l-.59.307c-.26.14-.52.282-.77.44-.178.11-.35.23-.51.36-.12.096-.23.198-.332.31-.088.1-.168.205-.23.32-.074.14-.118.296-.112.454 0 .042.006.083.013.123.008.042.018.084.028.126.022.093.047.185.074.277.02.067.04.134.065.2.017.048.036.096.056.142.018.043.037.085.058.126.096.195.224.386.412.502.035.022.072.04.11.057.128.053.266.072.404.078l.074.002z" fill="#939E91"/><path d="M438 236.2c.994 0 1.8.806 1.8 1.8s-.806 1.8-1.8 1.8-1.8-.806-1.8-1.8.806-1.8 1.8-1.8" fill="#FFF"/><path d="M432.563 244.986c-1.17.958-7.34 7.34-1.277 9.68 6.277-1.7 4.575-2.87 5.958-4.254.036-2.872-3.12-3.617-4.68-5.426" fill="#C5242A"/><path d="M431.258 255.193c-.1-.04-.202-.078-.302-.12-.107-.043-.214-.09-.32-.14-.39-.18-.765-.4-1.103-.666-.278-.22-.53-.475-.74-.763-.137-.19-.255-.395-.35-.61-.07-.157-.126-.32-.17-.487-.034-.13-.06-.26-.08-.393-.106-.763.038-1.54.295-2.258.042-.12.09-.24.137-.356.057-.136.117-.27.18-.402.087-.182.18-.362.28-.538.124-.224.257-.444.396-.66.186-.285.382-.564.586-.835.277-.37.57-.725.877-1.07.22-.246.444-.486.677-.718.18-.18.366-.357.56-.523l.034-.028.405-.336.354.407c.08.09.162.175.247.258.276.267.58.504.888.73.335.245.678.477 1.017.715.082.06.165.118.247.177.446.325.883.67 1.26 1.073.244.26.46.545.636.855.173.308.302.64.38.983.067.293.096.592.096.892l-.002.24c-.06.06-.123.122-.183.185-.014.013-.026.026-.038.04-.084.094-.16.195-.227.304-.077.126-.138.262-.195.4l-.15.372c-.056.133-.115.264-.184.39-.087.16-.188.313-.303.455-.242.297-.54.544-.858.754-.374.248-.78.45-1.19.628-.214.093-.43.18-.65.262-.29.11-.582.21-.877.305-.39.127-.784.243-1.18.354l-.45.123zm.057-1.052c.537-.148 1.07-.307 1.597-.486.426-.146.847-.306 1.257-.49.296-.135.588-.285.86-.463.234-.15.456-.325.635-.538.098-.116.18-.244.25-.38.06-.116.11-.238.16-.36.032-.085.066-.17.1-.253l.058-.137c.067-.15.14-.3.23-.44.082-.13.176-.256.278-.375 0-.03-.003-.063-.005-.095-.017-.205-.052-.407-.113-.603-.032-.107-.072-.212-.12-.314-.24-.533-.653-.966-1.096-1.34-.07-.058-.142-.116-.214-.173-.103-.08-.208-.16-.314-.24-.14-.102-.283-.203-.426-.303l-.588-.41-.247-.176c-.232-.168-.46-.34-.68-.522-.138-.115-.272-.235-.402-.36l-.116.11c-.358.352-.698.72-1.02 1.104-.238.28-.465.57-.682.868-.176.244-.346.494-.505.75-.123.198-.24.4-.35.608-.085.16-.164.32-.238.485-.058.13-.113.263-.163.397-.038.102-.074.204-.106.307-.027.087-.05.174-.074.26-.095.375-.146.765-.114 1.15.01.116.026.23.05.342.015.067.033.134.054.2.03.096.067.19.11.28.068.145.15.282.246.41.155.206.342.387.545.546.346.27.738.476 1.142.643z" fill="#0A0A08"/><path d="M445.967 305.307c-.32 1.383-1.702 6.488.213 10.425 5.32-2.233 7.766-1.596 9.575-.425-4.36-3.512-6.064-5-9.788-10" fill="#939E91"/><path d="M457.147 316.795c-.58-.374-1.16-.75-1.744-1.12l-.122-.075c-.164-.1-.332-.193-.505-.277-.27-.132-.55-.244-.838-.33-.456-.14-.93-.216-1.404-.24-.575-.033-1.153.008-1.722.093-.638.095-1.268.244-1.888.426-.58.17-1.15.368-1.716.585-.238.092-.475.187-.71.285l-.56.233c-.085-.174-.17-.348-.253-.523l-.068-.148c-.13-.294-.248-.595-.35-.9-.396-1.2-.562-2.47-.578-3.73-.003-.23 0-.46.005-.69.01-.318.027-.636.052-.953.03-.358.068-.716.115-1.073.06-.45.133-.9.218-1.346.058-.304.122-.608.19-.91.058-.257.12-.513.18-.768l.016-.072.26-1.115c.328.44.656.88.986 1.32.88 1.166 1.78 2.32 2.743 3.418.45.512.91 1.01 1.39 1.495.396.4.803.79 1.218 1.17.59.542 1.198 1.064 1.812 1.577.593.495 1.194.983 1.796 1.47l1.94 1.562c-.154.213-.308.425-.46.638zm-10.71-1.71c.097-.04.193-.077.29-.115.08-.03.16-.06.24-.092.155-.058.31-.116.467-.172.533-.19 1.073-.363 1.62-.51.443-.118.89-.22 1.342-.297.9-.154 1.82-.213 2.726-.1l-.22-.183c-.537-.456-1.07-.92-1.588-1.396-.57-.525-1.124-1.067-1.658-1.63-1.222-1.288-2.335-2.672-3.41-4.083l-.034-.043c-.064.29-.124.582-.178.875-.128.69-.226 1.384-.286 2.083-.054.638-.076 1.28-.055 1.92.03.953.156 1.908.422 2.825.072.246.154.488.246.728l.077.19zM485.223 330.945s-7.66-18.51-27.234-23.192c-19.576-4.68-17.023-25.532-15.427-26.81.85-1.808 1.49-4.573 7.127-1.913 5.64 2.66 31.597 15.744 35.32 16.382 3.724.64.532 35.96.213 35.533" fill="#939E91"/><path d="M485.212 331.452c-.073-.01-.133-.014-.202-.048-.086-.043-.16-.106-.215-.186-.02-.027-.026-.06-.038-.092l-.044-.1-.088-.198c-.235-.517-.49-1.025-.753-1.528-.3-.568-.613-1.13-.94-1.683-.896-1.526-1.884-2.998-2.95-4.41-2.054-2.714-4.404-5.21-7.03-7.376-1.21-1-2.478-1.928-3.8-2.775-1.376-.884-2.81-1.68-4.294-2.374-1.512-.707-3.073-1.312-4.668-1.806-.544-.168-1.092-.324-1.644-.467-.3-.078-.604-.15-.906-.224-.077-.02-.154-.04-.23-.058-.265-.07-.528-.14-.79-.215-.614-.177-1.222-.375-1.82-.595-1.542-.568-3.03-1.29-4.412-2.178-1.31-.842-2.52-1.835-3.596-2.962-.646-.678-1.243-1.403-1.785-2.168-.316-.447-.614-.908-.893-1.38-1.45-2.456-2.368-5.207-2.812-8.02-.08-.514-.146-1.03-.196-1.55-.108-1.137-.143-2.284-.095-3.427.02-.457.053-.914.102-1.37.046-.427.105-.853.183-1.276.048-.26.103-.516.168-.77.06-.237.128-.47.212-.7.05-.14.107-.278.172-.412.08-.16.173-.314.294-.446l.01-.01c.094-.205.184-.413.276-.62l.11-.235c.093-.195.19-.39.3-.577.162-.282.35-.55.572-.788.167-.18.354-.34.557-.474.135-.09.278-.167.426-.233.104-.046.21-.087.317-.12.608-.196 1.26-.202 1.886-.115.094.013.188.028.28.045.132.024.263.05.393.082.157.035.312.077.467.122.205.06.408.125.61.196.284.1.564.21.842.328.173.073.346.15.517.228.16.074.32.15.48.227.468.223.934.448 1.4.673.598.29 1.196.582 1.793.874l2.707 1.326 3.768 1.847 2.036.995c2.724 1.33 5.45 2.653 8.186 3.96 2.244 1.072 4.493 2.134 6.754 3.17.88.403 1.765.802 2.652 1.194.796.35 1.594.697 2.398 1.03.566.234 1.134.462 1.708.674.234.086.47.17.706.247.196.065.394.126.595.175l.133.03.116.022.06.014c.063.018.125.04.186.07.035.015.07.034.104.054.288.17.495.445.652.734l.075.15c.092.188.167.385.233.584.075.226.138.456.194.688.072.302.13.607.183.912.044.255.082.51.115.768.05.374.09.75.126 1.126.045.465.08.93.108 1.397.038.622.066 1.246.086 1.87.027.862.04 1.726.044 2.59.008 1.74-.023 3.482-.076 5.223-.062 2.07-.157 4.137-.274 6.204-.115 2.035-.253 4.068-.412 6.1-.09 1.156-.188 2.312-.296 3.467-.08.857-.165 1.714-.264 2.57-.02.17-.04.34-.062.51-.015.12-.03.238-.048.357-.01.08-.022.16-.035.24l-.03.2c-.01.04-.016.082-.025.123-.025.126-.056.26-.135.364-.015.02-.03.04-.046.056-.023.023-.047.046-.075.065-.094.064-.107.058-.21.084l-.098.008zm-.224-2.17c.095-.832.178-1.665.256-2.498.086-.923.166-1.846.24-2.77.194-2.386.356-4.775.488-7.166.136-2.468.24-4.938.293-7.41.024-1.12.037-2.24.034-3.36-.003-.918-.017-1.836-.046-2.754-.018-.56-.042-1.12-.074-1.68-.025-.412-.053-.823-.088-1.234-.06-.686-.135-1.372-.248-2.052-.045-.27-.096-.54-.157-.808-.054-.237-.117-.473-.193-.704-.042-.128-.09-.255-.144-.38-.046-.104-.098-.207-.16-.303-.038-.06-.08-.12-.13-.17-.03-.03-.065-.06-.104-.08-.027-.01-.056-.013-.084-.018l-.11-.022c-.316-.072-.627-.168-.936-.272-.322-.108-.64-.226-.96-.347-.828-.317-1.647-.66-2.462-1.01-1.132-.485-2.255-.987-3.376-1.497-1.188-.54-2.373-1.09-3.555-1.644-2.602-1.22-5.193-2.462-7.78-3.713-4.09-1.982-8.17-3.988-12.254-5.988l-1.445-.706c-.533-.26-1.066-.518-1.6-.775l-.64-.306c-.136-.065-.27-.13-.407-.192-.296-.137-.596-.267-.9-.387-.23-.09-.462-.175-.698-.252-.175-.057-.353-.11-.532-.156-.132-.034-.264-.065-.397-.092-.107-.022-.216-.04-.325-.057-.088-.013-.176-.023-.264-.032-.466-.043-.953-.018-1.39.166-.067.028-.132.06-.196.095-.11.062-.213.134-.31.214-.26.22-.464.5-.634.794-.135.234-.25.48-.362.725l-.24.538c-.02.045-.04.09-.062.134l-.068.146c-.032.026-.066.05-.094.078-.023.023-.04.05-.058.08-.023.036-.044.074-.064.113-.06.12-.11.245-.154.372-.072.204-.13.413-.182.623-.066.264-.12.53-.166.798-.06.346-.106.694-.144 1.044-.05.47-.082.94-.1 1.412-.043 1.146 0 2.296.12 3.437.052.48.117.957.196 1.432.435 2.62 1.3 5.178 2.653 7.47.265.447.548.884.85 1.31.528.747 1.113 1.455 1.748 2.115 1.027 1.067 2.185 2.005 3.434 2.8 1.3.828 2.693 1.5 4.138 2.03.576.214 1.16.404 1.75.574.29.082.582.16.874.234.227.057.455.11.682.167.382.097.762.198 1.14.305.704.198 1.402.418 2.092.657 1.765.613 3.482 1.358 5.136 2.227 1.31.688 2.578 1.453 3.8 2.286 1.128.77 2.216 1.598 3.26 2.477 2.337 1.964 4.456 4.183 6.343 6.582.845 1.074 1.643 2.184 2.393 3.327.575.878 1.122 1.775 1.635 2.69.173.31.342.62.507.933.078.148.155.297.23.446z" fill="#0A0A08"/><path d="M466.606 307.647c-.32.213 26.17 15.638 18.19 28.936 7.555-5 5.108-13.723 5.108-13.723s6.17 16.064-8.83 23.937c1.596 1.383 2.66 1.063 2.66 1.063l-2.554 2.554s-1.17 1.914 8.937-2.98c-2.767 2.235-2.98 3.83-2.98 3.83s.745 2.128 7.342-3.617c-5.32 5.745-6.492 8.724-6.492 8.617 14.363-1.277 45.64-47.98-9.892-61.81 2.98 3.087 2.55 2.66 2.55 2.66l-14.04 10.533" fill="#C5242A"/><path d="M487.845 356.774l-.254-.174-.088-.197-.074-.59.25-.023c.033-.064.067-.13.102-.193l.116-.212c.39-.694.818-1.365 1.27-2.02.552-.804 1.138-1.583 1.744-2.346l.028-.038c-.074.047-.15.093-.225.138l-.187.11c-.213.123-.428.24-.648.35-.175.086-.353.168-.534.24-.145.06-.292.114-.44.16-.102.032-.205.06-.308.085-.075.018-.15.033-.227.046-.354.06-.728.062-1.065-.072-.044-.017-.087-.037-.13-.06-.057-.03-.112-.064-.164-.103-.06-.045-.114-.096-.163-.15-.07-.08-.127-.168-.17-.264l-.054-.137c.01-.056.015-.112.026-.168.005-.035.013-.07.02-.103.04-.158.095-.312.157-.46.065-.158.14-.31.22-.46.19-.353.416-.687.662-1.005l.008-.01c-.17.075-.337.15-.506.227l-.353.157c-.424.188-.85.37-1.276.55-.355.146-.71.29-1.07.428-.293.112-.588.22-.885.323-.213.073-.426.142-.64.206-.174.052-.35.1-.526.144-.124.03-.25.056-.374.078-.072.013-.144.024-.216.033-.05.007-.098.012-.147.016-.045.003-.09.005-.136.006-.222.004-.456-.027-.646-.154-.03-.02-.06-.043-.086-.067-.038-.035-.073-.074-.102-.117-.037-.053-.065-.11-.085-.172-.025-.078-.035-.162-.03-.245.004-.122.04-.24.1-.347l.038-.07 1.84-1.84-.106-.035c-.127-.042-.253-.09-.375-.145-.355-.16-.688-.364-1-.597-.12-.09-.236-.184-.35-.28l-.596-.513c.275-.145.55-.288.822-.434.085-.045.17-.09.254-.137.616-.34 1.22-.707 1.8-1.104.918-.624 1.785-1.322 2.58-2.097.83-.812 1.58-1.707 2.224-2.675.66-.992 1.206-2.057 1.63-3.17.43-1.126.732-2.3.92-3.49.184-1.165.258-2.348.237-3.528-.008-.488-.034-.974-.073-1.46l-.002-.018c-.012.076-.026.15-.04.226l-.04.213c-.045.218-.094.435-.15.65-.1.4-.22.793-.36 1.18-.31.86-.716 1.688-1.213 2.457-.53.82-1.162 1.57-1.872 2.24-.36.34-.737.656-1.132.953-.185.14-.375.274-.567.405l-.046.03-.046.03-1.66 1.102-.082-.078 1.036-1.74c.143-.246.278-.494.402-.748.247-.507.452-1.033.61-1.575.15-.517.254-1.047.313-1.58.04-.352.058-.705.06-1.06 0-.25-.01-.504-.03-.756-.122-1.66-.64-3.27-1.355-4.767-.12-.252-.247-.502-.378-.75-.16-.3-.33-.597-.504-.89-.238-.4-.488-.79-.75-1.176-.315-.466-.645-.923-.988-1.37-.44-.576-.902-1.136-1.378-1.683-.62-.714-1.268-1.405-1.934-2.076-.848-.853-1.728-1.676-2.63-2.474-1.21-1.07-2.462-2.095-3.742-3.082-.98-.756-1.98-1.49-2.99-2.207-.352-.25-.706-.497-1.06-.743-.356-.247-.714-.492-1.07-.74-.095-.066-.19-.132-.285-.2l-.154-.11-.097-.072c-.036-.028-.073-.056-.108-.086-.07-.06-.14-.13-.183-.213-.01-.018-.018-.036-.026-.055-.01-.027-.02-.055-.026-.083-.007-.04-.013-.08-.01-.12 0-.05.006-.102.023-.15.048-.136.073-.142.164-.224l13.613-10.21c-.398-.417-.8-.832-1.2-1.248l-2.176-2.255c.673.168 1.346.335 2.018.504.535.137 1.07.277 1.602.422 1.223.333 2.44.694 3.645 1.084 1.36.44 2.71.92 4.04 1.444.99.39 1.967.803 2.933 1.244.756.346 1.505.708 2.244 1.09.523.268 1.04.547 1.554.835.462.258.918.525 1.37.8 2.95 1.8 5.703 3.964 7.996 6.56.405.46.795.93 1.168 1.413.493.64.958 1.3 1.39 1.982.59.93 1.12 1.9 1.583 2.902.6 1.3 1.082 2.65 1.443 4.034.253.972.446 1.96.58 2.954.093.684.157 1.372.195 2.06.098 1.783.016 3.573-.22 5.342-.17 1.277-.42 2.544-.74 3.792-.197.77-.42 1.534-.67 2.29-.187.57-.388 1.138-.603 1.7-.253.663-.524 1.32-.812 1.967-.397.89-.825 1.768-1.283 2.63-.625 1.176-1.306 2.324-2.037 3.438-.958 1.46-2.003 2.86-3.132 4.19-.6.707-1.224 1.392-1.872 2.054-.617.63-1.256 1.237-1.92 1.817-.624.546-1.27 1.067-1.938 1.557-.527.387-1.068.753-1.625 1.094-.868.53-1.777 1-2.728 1.365-.63.24-1.28.433-1.943.553-.197.035-.395.064-.594.086l-.038.002-.02.01-.265.012zm1.072-1.162c.843-.19 1.656-.498 2.434-.87.883-.422 1.725-.927 2.53-1.48.54-.37 1.062-.764 1.57-1.175.612-.493 1.202-1.012 1.774-1.55 1.274-1.202 2.455-2.5 3.55-3.868 1.045-1.307 2.01-2.678 2.893-4.1.635-1.023 1.227-2.073 1.772-3.147.406-.803.788-1.62 1.14-2.45.27-.636.525-1.28.76-1.93.173-.477.336-.956.488-1.44.856-2.708 1.392-5.527 1.483-8.37.018-.503.02-1.006.008-1.51-.013-.556-.044-1.112-.094-1.666-.066-.742-.166-1.482-.3-2.215-.188-1.034-.445-2.055-.77-3.054-.475-1.46-1.095-2.87-1.845-4.208-.417-.74-.872-1.458-1.362-2.152-.368-.52-.757-1.03-1.163-1.522-.3-.364-.608-.72-.926-1.067-2.058-2.252-4.473-4.156-7.054-5.77-.366-.23-.736-.453-1.11-.67-.49-.286-.984-.563-1.484-.83-.71-.38-1.426-.74-2.152-1.085-.928-.44-1.87-.854-2.82-1.243-1.24-.507-2.494-.973-3.76-1.404-1.065-.36-2.138-.697-3.216-1.012-.512-.15-1.025-.292-1.54-.432l-.038-.01.887.923c.12.126.242.252.362.38.03.03.06.063.09.095l.015.018c.043.05.04.052.08.106l.51 1.53-.98-.7-13.227 9.923.752.52c.206.14.41.284.616.426l.528.368c.623.44 1.242.883 1.856 1.335.953.7 1.892 1.42 2.814 2.162 1.188.954 2.348 1.944 3.468 2.976.842.776 1.66 1.577 2.45 2.406.603.634 1.187 1.285 1.748 1.955.437.522.86 1.057 1.265 1.606.308.418.606.844.892 1.278.23.353.455.71.668 1.075.166.28.325.567.478.857.825 1.565 1.46 3.25 1.716 5.006.036.247.064.496.084.745.027.332.04.665.037.997-.004.474-.04.948-.106 1.417-.07.48-.172.952-.306 1.416-.065.223-.138.444-.216.663l-.002.005c.674-.628 1.273-1.334 1.773-2.108.61-.946 1.07-1.986 1.372-3.07.355-1.27.498-2.595.465-3.913-.013-.528-.055-1.056-.126-1.58-.026-.202-.058-.403-.095-.604-.035-.188-.075-.375-.12-.56l-.008-.027-.52-1.933.767-.248c.24.634.48 1.267.716 1.902l.07.194c.215.636.393 1.285.546 1.94.204.87.36 1.752.47 2.64.236 1.904.256 3.84.004 5.742-.145 1.093-.38 2.173-.71 3.224-.344 1.085-.792 2.137-1.34 3.134-.51.923-1.106 1.797-1.777 2.61-.922 1.118-1.983 2.117-3.136 2.993-.514.392-1.047.758-1.594 1.1-.3.19-.607.37-.915.547l-.02.01c.335.218.7.404 1.094.486.102.02.206.035.31.038.07.003.14 0 .208-.012l1.85-.53-3.36 3.36c.208-.044.412-.1.614-.16.234-.07.466-.146.697-.227.608-.21 1.206-.448 1.8-.695.6-.248 1.192-.508 1.783-.774.9-.405 1.792-.826 2.682-1.253l1.994-.964.29.457c-.548.444-1.098.886-1.643 1.334-.41.34-.807.698-1.175 1.084-.233.245-.456.5-.66.77-.157.202-.303.413-.434.633-.134.224-.252.457-.34.702l-.002.005c.08.026.168.033.253.032.126-.002.25-.022.375-.048.188-.042.372-.102.552-.172.242-.093.476-.203.705-.322.32-.166.633-.35.937-.543.374-.238.738-.49 1.096-.752.823-.6 1.61-1.246 2.382-1.91l.076-.067 1.568-1.363.544.562c-.528.572-1.058 1.144-1.585 1.717l-.355.39c-1.047 1.16-2.062 2.352-3.015 3.59-.333.432-.657.87-.972 1.315-.32.45-.63.91-.925 1.378-.09.143-.178.287-.265.43l-.15.257z" fill="#0A0A08"/><path d="M467.776 303.072c3.617 2.553 4.893 3.404 5.32 4.68-3.3-.743-6.278-.53-6.278-.53s-7.127-6.81-8.404-7.34c-.958 0-6.49-3.512-6.49-3.512-2.765-1.383-5.318-10.957 4.895-8.192 10.53 5 12.02 5.426 12.02 5.426 4.184 1.312 8.368 2.625 12.553 3.936 2.41 2.696 4.822 5.39 7.234 8.086 0 0-12.872-6.384-14.468-6.49 3.51 2.872 5.53 6.808 5.53 6.808-4.077-1.17-7.623-2.234-11.914-2.872" fill="#FFF"/><path d="M473.854 308.435l-1.02-.228-.224-.047c-.27-.055-.54-.105-.813-.15-.877-.145-1.763-.237-2.65-.283-.405-.02-.81-.033-1.214-.034-.337 0-.675.005-1.01.023l-.04.002-.25.016-.63-.6c-.897-.845-1.798-1.687-2.706-2.52-.718-.66-1.44-1.315-2.172-1.96-.312-.274-.625-.547-.94-.816-.253-.215-.507-.427-.765-.636-.208-.17-.418-.335-.634-.494-.083-.062-.167-.122-.252-.18-.08-.053-.16-.105-.242-.15l-.01-.006-.056-.008c-.022-.004-.044-.01-.066-.013-.165-.036-.326-.093-.484-.155-.183-.072-.363-.153-.54-.238-.21-.1-.416-.203-.62-.31-.276-.142-.548-.29-.82-.44-.662-.368-1.316-.75-1.967-1.14-.675-.404-1.345-.816-2.01-1.235l-.043-.027-.057-.03-.08-.046c-.066-.04-.13-.082-.194-.127-.252-.178-.477-.393-.68-.624-.282-.322-.523-.678-.73-1.05-.17-.3-.315-.61-.44-.928-.1-.255-.19-.515-.263-.78-.06-.208-.11-.42-.15-.633-.03-.157-.053-.313-.072-.47-.065-.544-.066-1.1.025-1.64.092-.546.28-1.078.586-1.543.105-.158.22-.308.35-.447.18-.198.385-.374.607-.525.098-.067.2-.13.303-.187.724-.4 1.555-.562 2.374-.593.148-.005.297-.007.445-.004.17.003.344.01.516.023.234.017.467.04.7.072.288.04.576.087.86.144.354.07.704.15 1.052.243l.06.016.105.027 1.462.692c2.17 1.023 4.343 2.04 6.53 3.025.808.364 1.616.723 2.43 1.07.287.123.575.244.864.362.222.09.445.18.673.258 1.053.347 2.116.664 3.174.996l6.277 1.97 3.27 1.024 5.517 6.167 3.104 3.47-.15.195c-.686-.34-1.37-.68-2.058-1.018-.292-.145-.585-.288-.877-.432-2.018-.986-4.04-1.962-6.073-2.913-.838-.392-1.678-.78-2.52-1.16-.784-.352-1.57-.698-2.36-1.028l-.03-.012.18.19.205.222c.22.242.437.488.648.738.572.68 1.107 1.388 1.608 2.12.21.31.416.625.614.944.208.335.408.674.596 1.02l.03.06.02.035.542 1.045-2.994-.86c-.366-.104-.733-.21-1.1-.312-1.198-.338-2.4-.665-3.608-.96-.667-.163-1.337-.317-2.01-.46-.365-.076-.73-.15-1.098-.22.17.12.338.24.506.363.326.236.65.474.97.72.18.138.36.28.536.424.26.216.516.44.752.683.236.242.454.505.63.795.08.128.15.262.21.4.03.068.056.137.08.207.108.302.207.607.31.91zm-1.737-1.385c-.243-.284-.52-.536-.806-.776-.283-.238-.576-.464-.873-.686-.338-.253-.68-.5-1.025-.746-.423-.303-.848-.602-1.273-.902l-2.235-1.576.03-.074c.74.11 1.48.22 2.218.333.625.098 1.248.205 1.87.323.943.18 1.882.383 2.816.607 1.946.465 3.873 1.014 5.797 1.568l-.127-.2c-.14-.22-.282-.44-.43-.655-.474-.7-.983-1.38-1.526-2.028-.58-.695-1.2-1.358-1.864-1.974-.25-.232-.506-.456-.768-.674l-1.308-1.08 1.61.13.063.007c.135.02.268.05.4.088.105.03.21.063.315.098.313.103.622.22.93.34.41.162.818.332 1.224.505.474.202.946.41 1.417.62 1.217.542 2.426 1.103 3.632 1.67 1.378.65 2.752 1.31 4.123 1.975l.216.105c-1.24-1.384-2.477-2.768-3.715-4.153l-1.718-1.92-9.284-2.91c-1.054-.33-2.11-.658-3.162-.99l-.077-.027c-.26-.093-.52-.196-.775-.3-.362-.15-.72-.3-1.08-.456-.894-.385-1.782-.783-2.668-1.185-1.055-.478-2.106-.963-3.156-1.45-1.424-.664-2.845-1.334-4.265-2.008-.08-.023-.163-.044-.244-.065-.322-.08-.646-.154-.973-.215-.26-.05-.522-.09-.785-.122-.208-.025-.417-.044-.626-.056-.164-.01-.328-.013-.493-.012-.138 0-.277.005-.416.014-.106.007-.21.017-.316.03-.617.075-1.24.256-1.742.633-.13.097-.25.206-.357.326-.075.084-.145.173-.21.267-.043.065-.084.13-.12.2-.273.488-.383 1.053-.395 1.608-.002.098 0 .196.003.294.004.116.013.232.025.348.015.15.037.302.064.452.034.186.076.37.125.552.068.247.15.49.243.73.116.292.25.576.406.85.17.295.363.58.587.835.165.187.35.363.558.502.064.042.13.078.198.113l.383.24c.693.433 1.39.858 2.09 1.274.598.353 1.2.7 1.81 1.033.212.116.427.23.644.34.22.115.444.225.67.326.13.057.258.112.39.16.052.018.104.035.157.05.032.01.066.018.1.02l.103.002.134.058c.195.092.375.213.55.337.24.17.473.35.702.532.313.25.62.507.927.767.32.273.637.55.953.827.856.754 1.7 1.523 2.54 2.297.9.83 1.793 1.667 2.68 2.51l.255-.01c.687-.017 1.374-.004 2.06.035.884.05 1.765.146 2.64.288.052.01.104.018.157.027zM417.67 245.944s12.34-2.98 13.83-2.553" fill="#0A0A08"/><path d="M417.786 246.43l-.234-.972.818-.195c1.643-.386 3.29-.76 4.94-1.114 1.36-.293 2.722-.574 4.09-.822.495-.09.99-.175 1.486-.252.383-.06.767-.114 1.153-.157.302-.035.606-.063.91-.07.11-.002.22-.002.33.005.117.007.234.022.35.053l-.26.966c-.012-.004-.024-.006-.036-.008-.02-.004-.038-.006-.057-.008-.112-.01-.224-.01-.336-.007-.126.005-.252.013-.378.023-.35.028-.7.072-1.05.12-.416.06-.83.126-1.244.197-.52.09-1.04.184-1.556.284-1.268.243-2.53.508-3.792.782-1.538.335-3.072.685-4.603 1.047l-.53.127" fill="#FFF"/></g></svg>