<?xml version="1.0" encoding="UTF-8" standalone="no"?>
<svg width="900px" height="600px" viewBox="0 0 900 600" version="1.1" xmlns="http://www.w3.org/2000/svg" xmlns:xlink="http://www.w3.org/1999/xlink" xmlns:sketch="http://www.bohemiancoding.com/sketch/ns">
    <!-- Generator: Sketch 3.3.3 (12072) - http://www.bohemiancoding.com/sketch -->
    <title>Uganda</title>
    <desc>Created with Sketch.</desc>
    <defs></defs>
    <g id="Page-1" stroke="none" stroke-width="1" fill="none" fill-rule="evenodd" sketch:type="MSPage">
        <g id="Uganda" sketch:type="MSLayerGroup">
            <path d="M0,600 L900,600 L900,0 L0,0 L0,600 Z" id="Fill-1" fill="#0A0A08" sketch:type="MSShapeGroup"></path>
            <path d="M0,200 L900,200 L900,99.999 L0,99.999 L0,200 Z" id="Fill-2" fill="#F8D91F" sketch:type="MSShapeGroup"></path>
            <path d="M0,300 L900,300 L900,200 L0,200 L0,300 Z" id="Fill-3" fill="#C5242A" sketch:type="MSShapeGroup"></path>
            <path d="M0,500 L900,500 L900,400 L0,400 L0,500 Z" id="Fill-4" fill="#F8D91F" sketch:type="MSShapeGroup"></path>
            <path d="M0,600 L900,600 L900,500 L0,500 L0,600 Z" id="Fill-5" fill="#C5242A" sketch:type="MSShapeGroup"></path>
            <path d="M450,206.5 C501.639,206.5 543.5,248.361 543.5,300 C543.5,351.639 501.639,393.5 450,393.5 C398.361,393.5 356.5,351.639 356.5,300 C356.5,248.361 398.361,206.5 450,206.5" id="Fill-6" fill="#FFFFFF" sketch:type="MSShapeGroup"></path>
            <path d="M433.52,228.391 L427.456,217.221 C429.796,214.881 433.733,213.072 440.009,213.072 C440.009,213.497 439.371,225.306 439.371,225.306 L433.52,228.391" id="Fill-7" fill="#C5242A" sketch:type="MSShapeGroup"></path>
            <path d="M433.317,229.063 L426.838,217.13 L427.16,216.81 C427.278,216.695 427.397,216.581 427.519,216.471 C427.793,216.223 428.078,215.989 428.373,215.767 C428.635,215.571 428.904,215.386 429.18,215.21 C430.853,214.146 432.751,213.471 434.687,213.073 C434.966,213.015 435.246,212.964 435.527,212.917 C435.904,212.855 436.283,212.802 436.663,212.757 C437.153,212.7 437.645,212.657 438.138,212.627 C438.712,212.592 439.286,212.576 439.86,212.572 L440.518,212.571 C440.515,212.751 440.512,212.931 440.509,213.112 C440.508,213.175 440.504,213.238 440.502,213.301 C440.491,213.547 440.479,213.794 440.467,214.041 C440.397,215.444 440.323,216.847 440.249,218.25 C440.133,220.442 440.016,222.633 439.898,224.824 L439.855,225.616 C437.676,226.765 435.496,227.914 433.317,229.063 L433.317,229.063 Z M433.724,227.718 L438.887,224.996 C438.989,223.104 439.09,221.213 439.191,219.321 C439.29,217.446 439.391,215.571 439.482,213.695 L439.488,213.576 C438.925,213.585 438.363,213.61 437.802,213.652 C437.336,213.688 436.872,213.735 436.409,213.797 C436.052,213.844 435.696,213.9 435.342,213.964 C435.043,214.019 434.745,214.08 434.448,214.148 C432.758,214.536 431.107,215.156 429.646,216.099 C429.461,216.218 429.28,216.343 429.103,216.472 C428.868,216.642 428.641,216.822 428.42,217.01 C428.304,217.109 428.191,217.211 428.079,217.315 L428.077,217.316 C429.959,220.783 431.842,224.251 433.724,227.718 L433.724,227.718 Z" id="Fill-8" fill="#0A0A08" sketch:type="MSShapeGroup"></path>
            <path d="M439.371,225.412 L440.222,213.071 C440.222,213.071 452.776,212.327 459.584,220.518 C459.691,220.412 452.882,230.092 452.882,230.092 L439.371,225.412" id="Fill-9" fill="#F8D91F" sketch:type="MSShapeGroup"></path>
            <path d="M452.69,229.496 C453.959,227.692 455.227,225.887 456.493,224.081 C457.302,222.927 458.113,221.773 458.915,220.615 L458.958,220.553 C458.52,220.051 458.052,219.575 457.557,219.128 C457.214,218.819 456.859,218.524 456.493,218.243 C456.223,218.035 455.946,217.835 455.664,217.643 C453.735,216.328 451.569,215.383 449.331,214.732 C449.013,214.639 448.692,214.552 448.371,214.471 C447.907,214.355 447.441,214.25 446.973,214.156 C446.366,214.034 445.755,213.932 445.142,213.847 C444.353,213.738 443.559,213.658 442.763,213.609 C442.082,213.567 441.4,213.546 440.718,213.556 L440.69,213.556 L439.896,225.065 C444.161,226.542 448.425,228.019 452.69,229.496 L452.69,229.496 Z M453.074,230.688 L438.846,225.759 L439.754,212.595 C439.93,212.585 440.106,212.575 440.282,212.568 C440.422,212.562 440.562,212.558 440.702,212.556 C441.41,212.545 442.118,212.567 442.825,212.611 C443.675,212.663 444.522,212.749 445.365,212.868 C446.001,212.958 446.634,213.066 447.263,213.194 C447.716,213.286 448.167,213.389 448.615,213.502 C451.233,214.161 453.777,215.187 456.031,216.684 C456.329,216.883 456.623,217.089 456.91,217.304 C457.283,217.583 457.646,217.876 457.997,218.182 C458.403,218.536 458.793,218.908 459.165,219.297 C459.34,219.48 459.511,219.667 459.678,219.858 L459.72,219.906 L459.757,219.948 L459.817,219.931 L460.131,220.455 L460.048,220.71 C460.04,220.727 460.032,220.744 460.023,220.761 C460.007,220.789 459.989,220.815 459.972,220.842 C459.933,220.899 459.894,220.956 459.855,221.013 C459.767,221.141 459.679,221.268 459.591,221.396 C459.311,221.799 459.03,222.202 458.748,222.604 C457.648,224.178 456.544,225.75 455.44,227.322 C454.652,228.444 453.863,229.566 453.074,230.688 L453.074,230.688 Z" id="Fill-10" fill="#0A0A08" sketch:type="MSShapeGroup"></path>
            <path d="M453.095,229.986 L459.265,220.412 C463.414,224.774 465.116,227.859 465.754,232.54 C465.861,232.646 455.967,234.986 455.967,234.88 C455.967,234.774 453.201,230.092 453.095,229.986" id="Fill-11" fill="#C5242A" sketch:type="MSShapeGroup"></path>
            <path d="M455.992,235.383 C455.968,235.383 455.946,235.384 455.921,235.381 C455.869,235.375 455.793,235.36 455.75,235.338 C455.698,235.311 455.645,235.281 455.605,235.238 C455.557,235.188 455.528,235.123 455.49,235.066 L455.483,235.021 C455.429,234.916 455.371,234.814 455.313,234.711 C455.21,234.526 455.104,234.342 454.998,234.158 C454.715,233.666 454.428,233.176 454.14,232.687 C453.851,232.195 453.56,231.704 453.266,231.215 C453.169,231.052 453.071,230.89 452.972,230.728 C452.887,230.587 452.802,230.446 452.711,230.308 L452.708,230.302 L452.47,230.033 L459.19,219.606 C459.464,219.896 459.74,220.184 460.013,220.476 C460.318,220.803 460.619,221.135 460.916,221.47 C462.111,222.826 463.229,224.265 464.115,225.844 C464.285,226.146 464.445,226.453 464.596,226.764 C464.819,227.223 465.022,227.692 465.201,228.17 C465.394,228.681 465.561,229.202 465.705,229.73 C465.862,230.309 465.99,230.897 466.096,231.488 C466.147,231.778 466.192,232.069 466.234,232.361 L466.239,232.399 L466.248,232.419 L466.258,232.583 C466.228,232.716 466.238,232.735 466.157,232.847 C466.137,232.875 466.11,232.898 466.084,232.922 C466.069,232.935 466.052,232.947 466.036,232.959 C465.972,233.004 465.898,233.032 465.825,233.057 C465.684,233.106 465.539,233.146 465.395,233.186 C465.316,233.208 465.233,233.23 465.154,233.252 C465.01,233.29 464.866,233.328 464.722,233.365 C464.554,233.409 464.386,233.452 464.218,233.494 C464.03,233.542 463.841,233.589 463.652,233.636 C462.928,233.816 462.203,233.992 461.478,234.166 C460.579,234.381 459.679,234.593 458.778,234.8 C458.23,234.926 457.681,235.05 457.131,235.17 C456.918,235.216 456.704,235.262 456.49,235.304 C456.349,235.333 456.206,235.362 456.063,235.379 C456.028,235.382 456.028,235.382 455.992,235.383 L455.992,235.383 Z M455.475,234.968 L455.471,234.941 C455.472,234.955 455.472,234.955 455.475,234.968 L455.475,234.968 Z M456.248,234.333 C456.472,234.289 456.696,234.241 456.919,234.192 C457.264,234.117 457.608,234.04 457.952,233.962 C458.744,233.783 459.535,233.599 460.325,233.412 C461.22,233.201 462.115,232.986 463.008,232.766 C463.388,232.672 463.767,232.577 464.146,232.481 C464.474,232.397 464.801,232.312 465.127,232.222 L465.2,232.202 C465.058,231.265 464.857,230.337 464.577,229.431 C464.35,228.697 464.07,227.981 463.739,227.288 C463.613,227.024 463.479,226.763 463.339,226.507 C462.855,225.62 462.291,224.778 461.681,223.973 C461.149,223.272 460.582,222.597 459.996,221.94 C459.791,221.711 459.583,221.483 459.374,221.258 L459.339,221.22 L453.69,229.985 C453.736,230.059 453.781,230.134 453.827,230.208 C454.178,230.788 454.525,231.371 454.869,231.955 C455.238,232.58 455.605,233.207 455.967,233.837 C456.061,234.002 456.156,234.167 456.248,234.333 L456.248,234.333 Z" id="Fill-12" fill="#0A0A08" sketch:type="MSShapeGroup"></path>
            <path d="M455.116,329.455 L455.435,341.37 C455.435,341.37 459.584,342.115 461.499,341.37 C463.414,340.625 461.392,333.072 455.116,329.455 L455.116,329.455 Z M436.527,388.92 C436.4,388.706 436.272,388.494 436.147,388.28 C436.127,388.245 436.108,388.211 436.089,388.176 C435.99,387.988 435.907,387.792 435.844,387.59 C435.685,387.083 435.648,386.545 435.699,386.017 C435.75,385.494 435.885,384.98 436.066,384.487 C436.122,384.336 436.182,384.187 436.246,384.039 C436.327,383.852 436.414,383.667 436.506,383.485 C436.619,383.263 436.738,383.045 436.864,382.831 C437.022,382.561 437.189,382.296 437.363,382.036 C437.594,381.694 437.836,381.359 438.088,381.032 C438.421,380.599 438.77,380.179 439.131,379.77 C439.586,379.254 440.061,378.755 440.552,378.273 L440.553,378.271 C440.238,378.219 439.922,378.174 439.605,378.134 C439.226,378.086 438.846,378.044 438.466,378.008 C437.571,377.923 436.672,377.867 435.773,377.832 C433.903,377.759 432.03,377.776 430.16,377.853 C429.692,377.872 429.225,377.896 428.757,377.922 L427.866,377.974 L428.043,377.285 C428.051,377.256 428.059,377.227 428.068,377.198 C428.098,377.102 428.134,377.008 428.176,376.916 C428.297,376.653 428.465,376.413 428.657,376.196 C428.929,375.89 429.249,375.629 429.586,375.398 C429.709,375.313 429.835,375.233 429.963,375.156 C430.142,375.047 430.326,374.945 430.513,374.848 C430.762,374.719 431.015,374.6 431.272,374.487 C431.604,374.342 431.941,374.209 432.28,374.086 C432.676,373.942 433.075,373.81 433.478,373.688 C434.179,373.476 434.888,373.292 435.603,373.129 C436.364,372.955 437.13,372.805 437.9,372.675 C438.848,372.514 439.802,372.383 440.758,372.278 C441.562,372.19 442.369,372.121 443.176,372.072 C444.528,371.991 445.884,371.962 447.237,372.013 C447.738,372.032 448.238,372.062 448.737,372.107 C449.393,372.166 450.047,372.25 450.694,372.374 C450.7,372.326 450.7,372.326 450.705,372.277 C450.732,372.022 450.745,371.766 450.753,371.51 C450.762,371.233 450.764,370.955 450.763,370.678 C450.76,369.939 450.733,369.201 450.699,368.464 C450.655,367.516 450.596,366.569 450.53,365.623 C450.463,364.659 450.388,363.696 450.308,362.733 C450.106,360.302 449.873,357.874 449.626,355.447 C449.316,352.397 448.982,349.349 448.629,346.304 L448.61,346.143 C448.469,346.147 448.329,346.151 448.188,346.154 C448.053,346.157 447.918,346.159 447.783,346.162 C446.175,346.186 444.567,346.161 442.961,346.102 C441.093,346.032 439.227,345.915 437.365,345.751 C436.579,345.682 435.794,345.605 435.01,345.519 C434.738,345.489 434.466,345.458 434.193,345.427 C434.023,345.407 433.853,345.386 433.682,345.366 C433.618,345.36 433.554,345.353 433.489,345.348 C433.274,345.33 433.059,345.319 432.843,345.318 C432.423,345.317 432.002,345.352 431.589,345.431 C431.203,345.504 430.825,345.616 430.462,345.767 C430.229,345.864 430.002,345.977 429.783,346.105 C429.64,346.189 429.5,346.279 429.364,346.375 C428.499,346.985 427.81,347.814 427.256,348.71 C427.178,348.835 427.103,348.962 427.03,349.09 C426.933,349.26 426.84,349.433 426.75,349.608 C426.627,349.848 426.511,350.091 426.4,350.337 C426.271,350.623 426.15,350.912 426.035,351.204 C425.881,351.592 425.739,351.983 425.602,352.377 C425.425,352.886 425.258,353.399 425.087,353.91 C425.052,354.014 425.016,354.118 424.981,354.222 C424.93,354.367 424.879,354.511 424.825,354.655 C424.786,354.757 424.747,354.858 424.705,354.959 C424.672,355.039 424.637,355.118 424.6,355.196 C424.577,355.245 424.553,355.294 424.527,355.342 C424.509,355.378 424.49,355.412 424.47,355.447 C424.346,355.663 424.187,355.873 423.962,355.991 C423.935,356.005 423.906,356.018 423.877,356.03 C423.839,356.044 423.8,356.056 423.761,356.065 C423.703,356.077 423.644,356.083 423.585,356.082 C423.502,356.081 423.42,356.066 423.341,356.038 C423.236,356.002 423.141,355.944 423.053,355.876 C422.919,355.773 422.802,355.649 422.698,355.515 C422.535,355.306 422.405,355.074 422.291,354.836 C422.125,354.492 421.995,354.131 421.88,353.767 C421.744,353.333 421.631,352.891 421.531,352.447 C421.428,351.986 421.339,351.522 421.259,351.056 C421.141,350.371 421.046,349.682 420.962,348.992 L420.958,348.955 C420.779,349.357 420.616,349.767 420.468,350.182 C420.29,350.679 420.132,351.183 419.994,351.693 C419.608,353.125 419.379,354.599 419.315,356.08 C419.286,356.754 419.292,357.43 419.329,358.103 L419.334,358.179 L419.414,359.463 L418.476,358.632 C418.341,358.51 418.213,358.381 418.094,358.243 C417.803,357.907 417.56,357.53 417.356,357.135 C417.051,356.545 416.829,355.915 416.658,355.275 C416.592,355.03 416.534,354.783 416.482,354.534 C416.412,354.2 416.354,353.863 416.305,353.526 C416.24,353.069 416.192,352.609 416.156,352.149 L416.151,352.073 C414.944,354.848 413.743,357.625 412.543,360.403 C412.445,359.761 412.346,359.119 412.25,358.476 C412.132,357.67 412.033,356.862 411.964,356.05 C411.909,355.405 411.873,354.759 411.859,354.112 C411.848,353.626 411.85,353.14 411.867,352.655 C411.88,352.278 411.903,351.902 411.936,351.526 C411.96,351.242 411.991,350.959 412.028,350.677 C412.219,349.239 412.58,347.813 413.21,346.502 C413.3,346.314 413.395,346.129 413.496,345.948 C413.61,345.744 413.73,345.543 413.858,345.348 C414.041,345.068 414.238,344.798 414.449,344.54 C414.742,344.181 415.063,343.844 415.408,343.534 C415.942,343.054 416.535,342.639 417.164,342.292 C417.741,341.973 418.349,341.712 418.972,341.497 C419.41,341.346 419.856,341.219 420.306,341.108 C420.709,341.009 421.115,340.924 421.522,340.846 C421.865,340.781 422.209,340.72 422.552,340.655 C422.611,340.644 422.67,340.632 422.729,340.621 C422.871,340.592 423.014,340.562 423.155,340.527 C423.198,340.516 423.241,340.505 423.285,340.493 C423.31,340.486 423.336,340.479 423.36,340.471 C423.385,340.462 423.409,340.453 423.434,340.445 C423.482,340.429 423.482,340.429 423.53,340.414 C423.794,340.335 424.063,340.279 424.335,340.233 C424.6,340.188 424.867,340.153 425.134,340.122 C425.834,340.041 426.538,339.991 427.242,339.953 C428.145,339.904 429.048,339.875 429.952,339.857 C431.062,339.834 432.171,339.827 433.281,339.83 C434.907,339.835 436.533,339.862 438.159,339.905 C439.708,339.947 441.257,340.003 442.805,340.078 C444.018,340.138 445.231,340.207 446.442,340.302 C446.881,340.336 447.319,340.374 447.757,340.42 C448.139,340.459 448.522,340.503 448.901,340.566 L448.948,340.574 L448.978,340.58 C448.988,340.552 448.997,340.523 449.007,340.495 C449.108,340.173 449.171,339.841 449.22,339.507 C449.275,339.137 449.31,338.765 449.336,338.392 C449.372,337.884 449.389,337.375 449.397,336.866 C449.404,336.332 449.401,335.798 449.39,335.264 C449.361,333.872 449.285,332.48 449.185,331.091 C449.069,329.486 448.92,327.884 448.744,326.285 L448.702,325.91 C448.669,325.887 448.637,325.863 448.605,325.839 C448.434,325.708 448.271,325.567 448.11,325.425 C447.897,325.237 447.688,325.045 447.48,324.852 C446.919,324.327 446.368,323.79 445.82,323.251 C445.243,322.682 444.67,322.11 444.099,321.535 C443.247,320.676 442.4,319.812 441.556,318.946 C441.497,318.93 441.438,318.914 441.379,318.898 C440.996,318.789 440.617,318.669 440.241,318.535 C439.199,318.164 438.191,317.702 437.216,317.181 C436.068,316.566 434.965,315.869 433.902,315.118 C433.073,314.532 432.269,313.914 431.486,313.27 C430.679,312.607 429.894,311.916 429.129,311.204 C428.524,310.641 427.932,310.064 427.353,309.474 C426.576,308.684 425.822,307.871 425.095,307.034 L425.077,307.013 C425.054,307.048 425.031,307.083 425.007,307.118 C424.979,307.16 424.95,307.201 424.921,307.242 C424.864,307.32 424.804,307.398 424.738,307.47 C424.695,307.517 424.649,307.561 424.598,307.6 C424.57,307.621 424.541,307.639 424.51,307.657 L424.167,307.838 C424.011,307.678 423.855,307.518 423.7,307.357 C423.542,307.192 423.386,307.026 423.23,306.859 C422.651,306.234 422.092,305.59 421.556,304.928 C420.755,303.936 420.007,302.902 419.325,301.825 C418.574,300.64 417.903,299.403 417.328,298.122 C416.586,296.468 416.008,294.74 415.614,292.97 C415.336,291.718 415.15,290.446 415.056,289.168 C414.988,288.251 414.967,287.331 414.991,286.413 C415.01,285.716 415.053,285.02 415.122,284.327 C415.171,283.823 415.233,283.32 415.308,282.819 C415.803,279.488 416.833,276.251 418.204,273.181 C418.416,272.705 418.636,272.233 418.864,271.766 C419.163,271.152 419.476,270.545 419.8,269.944 C420.215,269.177 420.648,268.42 421.1,267.674 C421.694,266.694 422.318,265.731 422.969,264.788 C423.82,263.553 424.717,262.35 425.654,261.178 C426.615,259.977 427.617,258.809 428.662,257.679 C429.051,257.259 429.445,256.844 429.847,256.436 C430.197,256.08 430.552,255.728 430.916,255.386 L430.921,255.38 L432.293,245.488 C432.108,245.518 431.923,245.549 431.738,245.579 C430.56,245.769 429.38,245.945 428.198,246.105 C427.315,246.224 426.43,246.333 425.544,246.429 C424.943,246.494 424.342,246.553 423.74,246.603 C423.165,246.65 422.59,246.689 422.013,246.715 C421.667,246.731 421.32,246.742 420.973,246.745 C420.679,246.748 420.386,246.745 420.092,246.735 C419.871,246.727 419.65,246.714 419.429,246.694 C419.269,246.68 419.109,246.662 418.95,246.638 C418.84,246.621 418.73,246.602 418.622,246.579 C418.537,246.561 418.452,246.541 418.369,246.517 C418.32,246.504 418.273,246.489 418.225,246.474 C418.187,246.461 418.149,246.447 418.111,246.433 C417.851,246.334 417.598,246.186 417.434,245.955 C417.404,245.912 417.377,245.867 417.354,245.82 C417.327,245.764 417.305,245.705 417.29,245.644 C417.268,245.557 417.259,245.467 417.263,245.378 C417.268,245.252 417.298,245.129 417.344,245.013 C417.412,244.838 417.515,244.68 417.633,244.535 C417.816,244.313 418.036,244.122 418.264,243.949 C418.45,243.808 418.644,243.678 418.843,243.555 C419.025,243.441 419.211,243.334 419.399,243.23 C419.71,243.06 420.027,242.9 420.347,242.748 C420.72,242.57 421.097,242.402 421.477,242.24 C422.351,241.868 423.239,241.529 424.132,241.207 C425.178,240.83 426.232,240.477 427.29,240.14 C428.472,239.763 429.66,239.407 430.853,239.068 L430.953,239.04 C430.934,239.003 430.916,238.965 430.897,238.928 C430.873,238.878 430.85,238.828 430.827,238.778 C430.718,238.538 430.621,238.294 430.537,238.045 C430.263,237.236 430.119,236.386 430.102,235.533 C430.086,234.777 430.172,234.019 430.344,233.283 C430.63,232.066 431.15,230.914 431.811,229.857 C432.061,229.457 432.331,229.071 432.617,228.696 C432.712,228.572 432.809,228.449 432.907,228.327 C432.926,228.304 433.045,228.158 433.052,228.15 C433.056,228.146 433.166,228.048 433.184,228.032 C433.271,227.956 433.358,227.88 433.447,227.805 C433.725,227.57 434.01,227.344 434.304,227.129 C434.869,226.717 435.463,226.343 436.082,226.017 C436.73,225.675 437.404,225.383 438.097,225.148 C438.994,224.843 439.922,224.632 440.862,224.517 C441.371,224.455 441.883,224.42 442.395,224.414 C444.906,224.381 447.414,225.012 449.634,226.181 C450.586,226.682 451.486,227.281 452.31,227.973 C453.664,229.11 454.818,230.503 455.603,232.093 C455.711,232.312 455.812,232.535 455.906,232.762 C456.012,233.02 456.109,233.282 456.194,233.547 C456.339,233.996 456.452,234.453 456.534,234.917 L456.543,234.969 C456.553,234.984 456.552,234.985 456.562,235.002 C456.574,235.025 456.574,235.025 456.585,235.048 C456.625,235.139 456.651,235.234 456.672,235.331 C456.692,235.425 456.707,235.521 456.719,235.616 C456.754,235.9 456.764,236.187 456.764,236.473 C456.763,236.96 456.726,237.446 456.665,237.928 C456.586,238.552 456.465,239.171 456.31,239.781 C456.164,240.357 455.988,240.925 455.785,241.483 C454.922,243.851 453.582,246.028 451.959,247.95 C451.189,248.861 450.354,249.718 449.47,250.52 C449.135,250.824 448.793,251.12 448.446,251.409 C448.397,251.465 448.348,251.522 448.3,251.579 C448.033,251.897 447.779,252.226 447.541,252.567 C446.853,253.549 446.289,254.615 445.828,255.72 C445.292,257.009 444.892,258.352 444.594,259.714 C444.495,260.167 444.407,260.622 444.329,261.079 C444.074,262.574 443.926,264.086 443.856,265.6 C443.776,267.344 443.798,269.092 443.902,270.834 C443.982,272.171 444.109,273.505 444.282,274.832 C444.347,275.328 444.419,275.823 444.497,276.317 C444.568,276.761 444.645,277.203 444.732,277.644 L483.069,326.733 C482.567,326.622 482.065,326.51 481.562,326.4 C481.421,326.369 481.28,326.339 481.139,326.309 C480.095,326.09 479.048,325.887 477.998,325.7 C476.933,325.511 475.866,325.339 474.795,325.19 C473.894,325.064 472.992,324.955 472.086,324.874 C471.32,324.805 470.552,324.754 469.784,324.742 C469.302,324.734 468.82,324.74 468.34,324.775 C468.143,324.79 467.947,324.809 467.751,324.836 C467.564,324.862 467.378,324.895 467.194,324.938 C467.122,324.956 467.049,324.975 466.978,324.996 C466.841,325.037 466.706,325.086 466.579,325.151 C466.487,325.198 466.398,325.253 466.324,325.324 C466.261,325.384 466.209,325.456 466.168,325.532 C466.077,325.701 466.033,325.893 466.011,326.082 C465.994,326.228 465.991,326.376 465.995,326.523 C466,326.696 466.017,326.869 466.041,327.041 C466.075,327.294 466.126,327.544 466.185,327.791 C466.243,328.03 466.309,328.266 466.382,328.5 C466.565,329.094 466.787,329.676 467.028,330.249 C467.252,330.783 467.495,331.311 467.75,331.832 C468.046,332.439 468.359,333.038 468.685,333.631 C469.184,334.541 469.712,335.436 470.266,336.314 C470.496,336.677 470.729,337.037 470.969,337.393 C471.188,337.719 471.413,338.042 471.645,338.36 C471.73,338.476 471.816,338.592 471.905,338.706 C471.953,338.769 472.003,338.831 472.052,338.895 C472.077,338.929 472.077,338.929 472.103,338.964 C472.161,339.045 472.216,339.127 472.268,339.212 C472.369,339.377 472.458,339.549 472.533,339.727 C472.601,339.888 472.658,340.053 472.704,340.221 C472.739,340.349 472.768,340.478 472.79,340.608 C472.934,341.442 472.824,342.306 472.556,343.104 C472.513,343.233 472.465,343.361 472.413,343.487 C472.335,343.678 472.247,343.866 472.151,344.049 C472.02,344.297 471.874,344.536 471.711,344.764 C471.628,344.881 471.539,344.996 471.446,345.107 C471.371,345.197 471.292,345.284 471.211,345.369 C470.984,345.602 470.732,345.816 470.448,345.977 C470.265,346.081 470.067,346.164 469.86,346.205 C469.797,346.217 469.733,346.226 469.668,346.23 C469.631,346.232 469.594,346.232 469.557,346.233 C469.384,346.212 469.211,346.192 469.038,346.172 C467.514,346.001 465.985,345.861 464.455,345.755 C463.721,345.705 462.986,345.662 462.251,345.632 C461.568,345.604 460.885,345.586 460.201,345.585 C459.702,345.584 459.203,345.592 458.704,345.614 C458.268,345.634 457.831,345.664 457.397,345.717 C457.106,345.752 456.816,345.796 456.531,345.861 C456.304,345.913 456.078,345.977 455.867,346.076 C455.86,346.079 455.855,346.083 455.849,346.087 C455.804,346.123 455.77,346.174 455.74,346.223 C455.683,346.317 455.639,346.42 455.601,346.524 C455.538,346.693 455.492,346.868 455.452,347.043 C455.4,347.269 455.361,347.496 455.329,347.725 C455.285,348.03 455.253,348.337 455.228,348.645 C455.195,349.038 455.174,349.432 455.159,349.826 C455.127,350.708 455.127,351.592 455.142,352.475 C455.168,353.935 455.237,355.395 455.327,356.852 C455.421,358.396 455.541,359.938 455.675,361.478 C455.826,363.209 455.997,364.938 456.182,366.666 C456.374,368.463 456.582,370.258 456.807,372.052 L456.831,372.238 C456.927,372.236 457.023,372.235 457.12,372.233 C457.222,372.232 457.324,372.232 457.427,372.232 C458.313,372.233 459.199,372.27 460.082,372.346 C460.75,372.403 461.417,372.481 462.079,372.584 C462.618,372.669 463.154,372.769 463.685,372.889 C464.077,372.978 464.467,373.077 464.853,373.188 C465.165,373.278 465.475,373.376 465.782,373.482 C466.039,373.572 466.293,373.667 466.545,373.77 C466.746,373.851 466.945,373.938 467.142,374.029 C467.803,374.334 468.44,374.693 469.031,375.12 C469.617,375.543 470.156,376.034 470.615,376.593 C470.803,376.824 470.977,377.065 471.137,377.317 L471.159,377.351 L471.73,378.275 C471.297,378.221 470.863,378.165 470.43,378.112 C470,378.06 469.57,378.012 469.138,377.97 C468.304,377.889 467.468,377.829 466.631,377.791 C464.434,377.691 462.229,377.741 460.039,377.959 C457.715,378.189 455.409,378.608 453.156,379.225 C450.164,380.043 447.266,381.208 444.552,382.71 C443.556,383.261 442.585,383.857 441.645,384.498 C440.938,384.981 440.248,385.489 439.58,386.024 C439.06,386.439 438.553,386.871 438.064,387.323 C437.701,387.66 437.344,388.004 437.01,388.37 C436.847,388.552 436.688,388.737 436.527,388.92 L436.527,388.92 Z" id="Fill-13" fill="#0A0A08" sketch:type="MSShapeGroup"></path>
            <path d="M440.191,251.66 C440.191,251.66 418.052,276.062 427.603,294.735 C428.112,292.131 427.89,290.495 428.209,290.602 C427.677,290.282 430.955,292.848 430.705,292.349 C430.775,290.999 429.707,288.106 429.707,288.106 C430.705,288.355 431.704,288.605 432.703,288.854 C432.12,287.773 431.537,286.691 430.955,285.609 C432.37,285.776 433.784,285.942 435.199,286.108 C435.199,286.108 433.701,282.114 434.201,282.114 C434.699,282.114 437.695,282.364 437.695,282.364 C431.399,271.065 437.338,261.682 440.191,251.66" id="Fill-14" fill="#939E91" sketch:type="MSShapeGroup"></path>
            <path d="M427.817,296.261 L427.101,294.851 C427.064,294.776 427.027,294.702 426.99,294.627 C426.809,294.254 426.636,293.878 426.475,293.496 C426.145,292.711 425.86,291.906 425.624,291.087 C425.391,290.283 425.205,289.466 425.063,288.642 C424.963,288.058 424.884,287.47 424.828,286.88 C424.786,286.449 424.756,286.017 424.737,285.584 C424.614,282.789 424.947,279.986 425.581,277.265 C425.67,276.881 425.766,276.498 425.867,276.116 C425.998,275.621 426.139,275.128 426.289,274.638 C426.496,273.961 426.719,273.289 426.957,272.622 C427.26,271.777 427.586,270.94 427.933,270.113 C428.378,269.052 428.857,268.006 429.364,266.974 C430.014,265.653 430.711,264.356 431.447,263.082 C432.411,261.414 433.442,259.785 434.529,258.195 C435.504,256.771 436.523,255.377 437.588,254.019 C438.009,253.482 438.437,252.95 438.875,252.425 C439.179,252.06 439.487,251.698 439.803,251.344 L441.118,249.887 L441.205,249.935 C441.005,250.635 440.806,251.335 440.604,252.034 C440.432,252.626 440.251,253.215 440.063,253.802 C439.749,254.779 439.416,255.749 439.078,256.718 C438.808,257.489 438.535,258.26 438.265,259.031 C438.104,259.491 437.944,259.952 437.787,260.414 C437.644,260.835 437.503,261.257 437.365,261.68 C436.544,264.204 435.84,266.782 435.55,269.426 C435.447,270.363 435.397,271.305 435.41,272.248 C435.422,273.148 435.493,274.048 435.626,274.938 C435.828,276.301 436.177,277.641 436.656,278.933 C436.895,279.578 437.165,280.212 437.463,280.832 C437.662,281.246 437.874,281.654 438.096,282.056 L438.587,282.94 C438.04,282.895 437.493,282.849 436.945,282.805 C436.662,282.782 436.38,282.76 436.097,282.738 C435.664,282.705 435.231,282.672 434.797,282.644 L434.678,282.637 L434.636,282.634 C434.644,282.683 434.654,282.731 434.665,282.779 C434.718,283.025 434.783,283.267 434.853,283.508 C434.915,283.722 434.981,283.934 435.048,284.146 C435.236,284.732 435.439,285.313 435.652,285.89 L435.954,286.7 C434.622,286.544 433.29,286.388 431.958,286.231 L431.851,286.218 C432.46,287.35 433.071,288.482 433.681,289.614 C432.815,289.398 431.949,289.182 431.084,288.966 L430.477,288.814 C430.507,288.907 430.537,289 430.566,289.093 C430.744,289.668 430.908,290.249 431.033,290.839 C431.08,291.062 431.121,291.285 431.153,291.51 C431.188,291.758 431.21,292.008 431.208,292.258 L431.208,292.283 L431.21,292.292 L431.216,292.329 C431.219,292.369 431.221,292.382 431.219,292.422 C431.215,292.485 431.202,292.546 431.176,292.604 C431.144,292.675 431.098,292.738 431.039,292.789 C431.005,292.819 430.961,292.846 430.92,292.866 C430.887,292.881 430.849,292.893 430.813,292.901 C430.78,292.909 430.757,292.912 430.723,292.914 C430.547,292.924 430.384,292.843 430.236,292.759 C430.201,292.739 430.167,292.719 430.133,292.698 C430.078,292.664 430.023,292.63 429.969,292.594 C429.908,292.555 429.849,292.514 429.789,292.474 C429.68,292.399 429.571,292.322 429.464,292.245 C429.326,292.146 429.189,292.045 429.052,291.944 C428.875,291.811 428.699,291.676 428.524,291.541 L428.488,291.513 C428.474,291.718 428.461,291.924 428.446,292.13 C428.437,292.242 428.428,292.355 428.419,292.467 C428.388,292.828 428.35,293.188 428.303,293.548 C428.255,293.915 428.197,294.281 428.13,294.645 C428.029,295.184 427.922,295.722 427.817,296.261 L427.817,296.261 Z M427.36,293.02 C427.397,292.699 427.425,292.378 427.448,292.056 C427.468,291.786 427.485,291.516 427.505,291.246 C427.509,291.191 427.513,291.136 427.518,291.081 C427.529,290.97 427.54,290.86 427.559,290.75 C427.577,290.648 427.603,290.546 427.647,290.453 C427.66,290.427 427.674,290.402 427.689,290.377 L427.709,290.31 L427.871,290.149 L428.035,290.083 C428.077,290.079 428.119,290.072 428.161,290.072 C428.189,290.072 428.218,290.077 428.246,290.082 C428.319,290.095 428.385,290.127 428.449,290.163 L430.07,291.122 C429.965,290.615 429.83,290.115 429.681,289.62 C429.553,289.192 429.413,288.768 429.263,288.348 L429.249,288.31 L428.916,287.393 L431.326,287.995 L431.726,288.095 C431.468,287.616 431.21,287.137 430.952,286.658 L430.06,285 C431.085,285.121 432.11,285.242 433.136,285.363 L434.455,285.518 C434.405,285.376 434.356,285.234 434.308,285.093 C434.225,284.848 434.144,284.602 434.066,284.356 C434.006,284.167 433.948,283.977 433.893,283.786 C433.849,283.635 433.807,283.482 433.768,283.33 C433.742,283.23 433.718,283.131 433.696,283.031 C433.678,282.951 433.662,282.872 433.648,282.792 C433.639,282.742 433.631,282.692 433.624,282.642 C433.619,282.606 433.614,282.571 433.61,282.535 C433.589,282.326 433.589,282.101 433.694,281.914 C433.71,281.886 433.728,281.858 433.749,281.833 C433.772,281.804 433.798,281.777 433.826,281.752 C433.868,281.717 433.914,281.687 433.964,281.664 C434.015,281.642 434.069,281.626 434.125,281.619 C434.157,281.615 434.164,281.615 434.195,281.614 C434.231,281.615 434.267,281.615 434.303,281.616 C434.448,281.621 434.594,281.629 434.739,281.638 C434.915,281.649 435.092,281.661 435.268,281.674 C435.766,281.709 436.263,281.748 436.761,281.787 L436.823,281.792 C436.779,281.706 436.736,281.619 436.693,281.533 C436.649,281.444 436.605,281.355 436.562,281.266 C436.425,280.98 436.293,280.692 436.167,280.401 C435.88,279.735 435.623,279.056 435.402,278.364 C435.02,277.172 434.745,275.947 434.584,274.705 C434.468,273.813 434.41,272.914 434.408,272.014 C434.405,271.072 434.462,270.131 434.569,269.195 C434.611,268.832 434.66,268.469 434.716,268.107 C435.14,265.369 435.95,262.709 436.84,260.092 C436.998,259.627 437.159,259.164 437.321,258.701 C437.591,257.93 437.864,257.159 438.134,256.388 C438.322,255.849 438.508,255.31 438.691,254.769 C438.793,254.466 438.894,254.162 438.994,253.858 C438.888,253.989 438.782,254.121 438.677,254.253 C437.17,256.152 435.751,258.121 434.426,260.15 C433.458,261.632 432.541,263.146 431.684,264.694 C431.026,265.884 430.403,267.094 429.824,268.324 C429.372,269.283 428.946,270.255 428.551,271.24 C428.237,272.023 427.943,272.813 427.671,273.612 C427.473,274.195 427.286,274.781 427.113,275.372 C426.983,275.815 426.86,276.26 426.746,276.708 C426.641,277.117 426.544,277.528 426.453,277.941 C425.858,280.653 425.576,283.446 425.776,286.219 C425.811,286.71 425.861,287.199 425.928,287.686 C426.02,288.363 426.142,289.035 426.296,289.701 C426.452,290.372 426.64,291.037 426.86,291.69 C426.984,292.058 427.12,292.422 427.263,292.783 C427.295,292.862 427.327,292.941 427.36,293.02 L427.36,293.02 Z M430.14,291.499 C430.129,291.431 430.117,291.363 430.104,291.295 L430.1,291.271 L430.033,291.423 C430.069,291.449 430.104,291.474 430.14,291.499 L430.14,291.499 Z" id="Fill-15" fill="#939E91" sketch:type="MSShapeGroup"></path>
            <path d="M447.882,230.731 C447.882,230.731 449.052,239.136 444.478,241.582 C443.733,242.114 440.861,243.072 441.286,244.774 C441.818,247.114 443.094,246.689 444.903,246.263 C449.69,245.412 455.222,235.199 447.882,230.731" id="Fill-16" fill="#939E91" sketch:type="MSShapeGroup"></path>
            <path d="M443.041,247.097 C442.965,247.096 442.889,247.094 442.813,247.088 C442.659,247.076 442.507,247.05 442.359,247.005 C442.232,246.967 442.11,246.916 441.994,246.852 C441.911,246.806 441.831,246.752 441.757,246.693 C441.702,246.65 441.65,246.604 441.6,246.555 C441.288,246.247 441.088,245.844 440.95,245.432 C440.927,245.363 440.905,245.293 440.885,245.223 C440.859,245.131 440.834,245.037 440.812,244.943 C440.802,244.901 440.792,244.858 440.783,244.816 C440.768,244.746 440.758,244.676 440.751,244.605 C440.735,244.434 440.744,244.261 440.776,244.093 C440.812,243.908 440.876,243.73 440.962,243.563 C441.165,243.171 441.48,242.849 441.822,242.576 C442.235,242.247 442.695,241.982 443.159,241.735 C443.359,241.629 443.56,241.526 443.761,241.421 C443.815,241.392 443.869,241.363 443.924,241.334 C443.999,241.292 444.075,241.249 444.148,241.202 C444.162,241.193 444.162,241.193 444.175,241.183 L444.215,241.155 C444.256,241.133 444.297,241.111 444.338,241.088 C444.555,240.965 444.762,240.825 444.956,240.668 C445.079,240.569 445.197,240.463 445.309,240.352 C445.965,239.705 446.424,238.885 446.746,238.028 C446.792,237.905 446.835,237.781 446.876,237.657 C446.935,237.478 446.988,237.297 447.037,237.115 C447.096,236.896 447.149,236.676 447.195,236.454 C447.256,236.16 447.307,235.864 447.349,235.566 C447.403,235.188 447.442,234.808 447.469,234.427 C447.504,233.933 447.519,233.437 447.516,232.941 C447.513,232.544 447.5,232.146 447.474,231.75 C447.455,231.448 447.43,231.147 447.393,230.847 L447.389,230.819 L447.248,229.757 C447.576,229.957 447.905,230.156 448.232,230.359 C448.478,230.513 448.718,230.677 448.949,230.853 C449.393,231.19 449.804,231.57 450.169,231.991 C450.526,232.404 450.839,232.856 451.094,233.339 C451.273,233.676 451.424,234.029 451.546,234.391 C451.635,234.654 451.709,234.923 451.767,235.195 C451.811,235.397 451.846,235.602 451.873,235.807 C452.048,237.136 451.881,238.495 451.491,239.772 C451.426,239.984 451.354,240.194 451.277,240.402 C451.181,240.661 451.076,240.917 450.962,241.169 C450.815,241.494 450.653,241.814 450.478,242.125 C450.239,242.55 449.976,242.961 449.689,243.355 C449.29,243.901 448.844,244.416 448.353,244.882 C447.979,245.235 447.578,245.561 447.149,245.845 C446.629,246.188 446.064,246.472 445.463,246.645 C445.328,246.684 445.192,246.716 445.054,246.743 L445.022,246.749 L445.005,246.752 C444.818,246.797 444.63,246.842 444.442,246.886 C444.03,246.981 443.616,247.07 443.193,247.093 C443.143,247.095 443.092,247.096 443.041,247.097 L443.041,247.097 Z M443.038,246.097 C443.285,246.095 443.53,246.056 443.772,246.008 C444.056,245.953 444.338,245.883 444.619,245.816 L444.8,245.773 C444.838,245.766 444.876,245.759 444.914,245.752 C444.955,245.743 444.996,245.733 445.037,245.724 C445.657,245.57 446.232,245.269 446.753,244.905 C447.15,244.626 447.52,244.307 447.862,243.963 C448.232,243.591 448.572,243.189 448.881,242.765 C449.16,242.383 449.414,241.983 449.643,241.569 C449.814,241.26 449.971,240.942 450.113,240.618 C450.224,240.362 450.325,240.103 450.417,239.84 C450.483,239.649 450.544,239.456 450.598,239.262 C450.947,238.026 451.061,236.704 450.797,235.44 C450.758,235.252 450.71,235.066 450.654,234.882 C450.576,234.628 450.482,234.378 450.372,234.136 C450.213,233.786 450.02,233.45 449.797,233.136 C449.56,232.801 449.29,232.49 448.994,232.205 C448.831,232.048 448.66,231.899 448.483,231.757 L448.476,231.752 C448.481,231.828 448.485,231.905 448.489,231.981 C448.493,232.061 448.496,232.141 448.5,232.221 C448.521,232.798 448.522,233.374 448.497,233.95 C448.478,234.4 448.444,234.849 448.392,235.297 C448.353,235.632 448.304,235.967 448.244,236.299 C448.2,236.54 448.15,236.779 448.094,237.017 C448.046,237.217 447.994,237.416 447.936,237.613 C447.617,238.707 447.132,239.77 446.396,240.647 C446.288,240.776 446.174,240.9 446.056,241.019 C445.892,241.185 445.717,241.341 445.534,241.486 C445.285,241.682 445.02,241.858 444.741,242.008 L444.745,242.005 C444.721,242.022 444.696,242.038 444.672,242.054 C444.638,242.075 444.604,242.096 444.57,242.117 C444.477,242.171 444.383,242.223 444.288,242.274 C444.092,242.377 443.895,242.478 443.698,242.581 C443.437,242.719 443.177,242.862 442.927,243.02 C442.75,243.131 442.578,243.249 442.417,243.381 C442.299,243.476 442.187,243.578 442.086,243.691 C441.998,243.789 441.918,243.895 441.856,244.011 C441.782,244.151 441.738,244.306 441.744,244.464 C441.745,244.506 441.75,244.547 441.757,244.587 C441.765,244.629 441.775,244.671 441.785,244.713 C441.807,244.806 441.832,244.898 441.859,244.99 C441.879,245.057 441.901,245.124 441.925,245.191 C441.942,245.238 441.961,245.286 441.981,245.332 C441.998,245.375 442.017,245.417 442.038,245.458 C442.134,245.653 442.262,245.844 442.45,245.96 C442.485,245.982 442.522,246.001 442.56,246.017 C442.688,246.07 442.826,246.089 442.964,246.095 C442.988,246.096 443.013,246.097 443.038,246.097 L443.038,246.097 Z" id="Fill-17" fill="#939E91" sketch:type="MSShapeGroup"></path>
            <path d="M438,236.2 C438.994,236.2 439.8,237.006 439.8,238 C439.8,238.994 438.994,239.8 438,239.8 C437.006,239.8 436.2,238.994 436.2,238 C436.2,237.006 437.006,236.2 438,236.2" id="Fill-18" fill="#FFFFFF" sketch:type="MSShapeGroup"></path>
            <path d="M432.563,244.986 C431.393,245.944 425.223,252.327 431.286,254.667 C437.563,252.965 435.861,251.795 437.244,250.412 C437.28,247.54 434.123,246.795 432.563,244.986" id="Fill-19" fill="#C5242A" sketch:type="MSShapeGroup"></path>
            <path d="M431.258,255.193 C431.158,255.154 431.056,255.115 430.956,255.074 C430.849,255.03 430.742,254.984 430.636,254.934 C430.246,254.753 429.871,254.534 429.533,254.267 C429.255,254.046 429.002,253.792 428.794,253.504 C428.656,253.313 428.538,253.109 428.443,252.894 C428.374,252.737 428.317,252.573 428.273,252.407 C428.239,252.277 428.213,252.146 428.194,252.014 C428.087,251.251 428.231,250.475 428.488,249.756 C428.53,249.636 428.577,249.517 428.625,249.4 C428.682,249.264 428.742,249.131 428.805,248.998 C428.892,248.816 428.986,248.636 429.084,248.46 C429.209,248.236 429.342,248.016 429.481,247.8 C429.666,247.515 429.862,247.236 430.066,246.965 C430.343,246.596 430.637,246.24 430.943,245.895 C431.162,245.649 431.387,245.409 431.62,245.177 C431.801,244.997 431.986,244.82 432.18,244.654 L432.214,244.626 L432.619,244.29 L432.974,244.697 C433.054,244.786 433.136,244.872 433.221,244.955 C433.496,245.222 433.799,245.459 434.108,245.685 C434.443,245.93 434.786,246.162 435.125,246.4 C435.207,246.459 435.29,246.518 435.372,246.577 C435.818,246.902 436.255,247.246 436.633,247.65 C436.876,247.91 437.093,248.195 437.268,248.505 C437.441,248.813 437.57,249.144 437.648,249.488 C437.715,249.781 437.744,250.08 437.744,250.38 L437.742,250.62 C437.681,250.681 437.619,250.742 437.559,250.805 C437.546,250.818 437.534,250.831 437.522,250.844 C437.438,250.939 437.361,251.04 437.295,251.149 C437.218,251.276 437.157,251.412 437.1,251.549 C437.049,251.673 437.001,251.798 436.95,251.922 C436.894,252.055 436.835,252.186 436.766,252.312 C436.679,252.472 436.578,252.625 436.463,252.767 C436.221,253.064 435.924,253.311 435.605,253.521 C435.231,253.768 434.826,253.969 434.415,254.148 C434.201,254.241 433.984,254.328 433.766,254.41 C433.476,254.519 433.183,254.62 432.888,254.715 C432.498,254.842 432.104,254.958 431.709,255.069 C431.559,255.111 431.408,255.152 431.258,255.193 L431.258,255.193 Z M431.315,254.141 C431.852,253.992 432.385,253.833 432.912,253.654 C433.338,253.508 433.759,253.348 434.169,253.163 C434.466,253.029 434.758,252.879 435.031,252.701 C435.264,252.55 435.486,252.375 435.665,252.162 C435.763,252.046 435.846,251.918 435.915,251.783 C435.975,251.666 436.025,251.544 436.074,251.422 C436.107,251.337 436.141,251.253 436.175,251.169 C436.194,251.123 436.213,251.078 436.233,251.033 C436.3,250.882 436.374,250.734 436.462,250.594 C436.545,250.462 436.639,250.337 436.741,250.218 C436.739,250.187 436.737,250.155 436.735,250.123 C436.718,249.918 436.683,249.716 436.622,249.52 C436.59,249.413 436.55,249.308 436.503,249.206 C436.261,248.673 435.849,248.24 435.406,247.866 C435.335,247.808 435.264,247.75 435.192,247.693 C435.089,247.612 434.984,247.532 434.878,247.454 C434.737,247.351 434.595,247.25 434.452,247.15 C434.256,247.013 434.059,246.877 433.864,246.74 C433.781,246.681 433.699,246.623 433.617,246.564 C433.385,246.396 433.157,246.225 432.938,246.042 C432.799,245.927 432.665,245.807 432.535,245.682 C432.496,245.719 432.457,245.756 432.419,245.793 C432.062,246.144 431.722,246.513 431.399,246.896 C431.162,247.177 430.935,247.467 430.718,247.764 C430.542,248.008 430.372,248.258 430.213,248.513 C430.09,248.712 429.972,248.915 429.863,249.122 C429.778,249.281 429.699,249.443 429.625,249.607 C429.567,249.738 429.512,249.87 429.462,250.004 C429.424,250.106 429.388,250.208 429.356,250.311 C429.329,250.397 429.305,250.484 429.282,250.571 C429.187,250.945 429.136,251.335 429.168,251.721 C429.177,251.836 429.194,251.95 429.219,252.062 C429.233,252.129 429.251,252.196 429.272,252.261 C429.302,252.358 429.339,252.452 429.382,252.543 C429.45,252.687 429.533,252.824 429.628,252.951 C429.783,253.158 429.97,253.339 430.173,253.498 C430.519,253.768 430.911,253.974 431.315,254.141 L431.315,254.141 Z" id="Fill-20" fill="#0A0A08" sketch:type="MSShapeGroup"></path>
            <path d="M445.967,305.307 C445.648,306.69 444.265,311.795 446.18,315.732 C451.499,313.499 453.946,314.136 455.755,315.307 C451.394,311.795 449.691,310.307 445.967,305.307" id="Fill-21" fill="#939E91" sketch:type="MSShapeGroup"></path>
            <path d="M457.147,316.795 C456.566,316.421 455.986,316.045 455.403,315.675 C455.362,315.65 455.322,315.625 455.281,315.6 C455.116,315.501 454.948,315.407 454.775,315.323 C454.505,315.191 454.225,315.079 453.937,314.992 C453.481,314.854 453.008,314.777 452.533,314.752 C451.958,314.72 451.38,314.761 450.811,314.846 C450.172,314.941 449.542,315.09 448.922,315.272 C448.342,315.442 447.771,315.64 447.206,315.857 C446.968,315.949 446.731,316.044 446.495,316.142 L445.935,316.375 C445.851,316.201 445.766,316.027 445.683,315.852 C445.66,315.803 445.637,315.754 445.615,315.704 C445.484,315.41 445.367,315.109 445.265,314.803 C444.869,313.603 444.703,312.335 444.687,311.075 C444.684,310.844 444.686,310.614 444.692,310.384 C444.701,310.066 444.719,309.748 444.744,309.431 C444.773,309.072 444.812,308.714 444.859,308.357 C444.919,307.907 444.993,307.458 445.078,307.011 C445.136,306.706 445.2,306.402 445.268,306.099 C445.326,305.843 445.387,305.587 445.447,305.332 L445.464,305.26 L445.724,304.145 C446.052,304.585 446.38,305.026 446.71,305.464 C447.589,306.631 448.489,307.784 449.453,308.883 C449.902,309.395 450.364,309.894 450.843,310.378 C451.239,310.779 451.646,311.169 452.061,311.549 C452.651,312.09 453.258,312.612 453.872,313.125 C454.465,313.62 455.066,314.108 455.668,314.594 L457.607,316.157 C457.454,316.37 457.3,316.582 457.147,316.795 L457.147,316.795 Z M446.437,315.085 C446.534,315.046 446.63,315.008 446.727,314.97 C446.807,314.939 446.887,314.909 446.967,314.878 C447.122,314.82 447.277,314.762 447.434,314.706 C447.967,314.516 448.507,314.343 449.054,314.197 C449.497,314.078 449.944,313.977 450.396,313.899 C451.295,313.746 452.215,313.687 453.122,313.801 C453.049,313.74 452.976,313.678 452.903,313.617 C452.365,313.161 451.832,312.698 451.314,312.221 C450.744,311.695 450.19,311.153 449.656,310.59 C448.434,309.302 447.321,307.918 446.245,306.507 L446.212,306.464 C446.148,306.755 446.088,307.046 446.034,307.339 C445.906,308.029 445.808,308.724 445.748,309.423 C445.694,310.061 445.672,310.702 445.693,311.343 C445.724,312.296 445.849,313.251 446.115,314.168 C446.187,314.414 446.269,314.656 446.361,314.896 C446.385,314.959 446.411,315.022 446.437,315.085 L446.437,315.085 Z" id="Fill-22" fill="#939E91" sketch:type="MSShapeGroup"></path>
            <path d="M485.223,330.945 C485.223,330.945 477.563,312.434 457.989,307.753 C438.414,303.072 440.967,282.221 442.563,280.944 C443.414,279.135 444.052,276.37 449.69,279.03 C455.329,281.689 481.287,294.774 485.01,295.412 C488.734,296.051 485.542,331.371 485.223,330.945" id="Fill-23" fill="#939E91" sketch:type="MSShapeGroup"></path>
            <path d="M485.212,331.452 C485.139,331.441 485.079,331.438 485.01,331.404 C484.924,331.361 484.85,331.298 484.795,331.218 C484.776,331.191 484.769,331.157 484.757,331.126 C484.74,331.087 484.732,331.069 484.713,331.026 C484.684,330.96 484.655,330.894 484.625,330.828 C484.39,330.311 484.136,329.803 483.872,329.3 C483.573,328.732 483.259,328.171 482.933,327.617 C482.036,326.091 481.048,324.619 479.981,323.208 C477.928,320.493 475.578,317.998 472.952,315.831 C471.742,314.831 470.474,313.902 469.153,313.055 C467.776,312.171 466.341,311.376 464.858,310.681 C463.346,309.973 461.785,309.368 460.19,308.874 C459.646,308.706 459.098,308.55 458.546,308.407 C458.245,308.329 457.942,308.257 457.64,308.183 C457.563,308.163 457.486,308.144 457.41,308.125 C457.145,308.056 456.882,307.985 456.619,307.91 C456.006,307.733 455.398,307.535 454.799,307.315 C453.258,306.747 451.771,306.026 450.388,305.137 C449.079,304.295 447.867,303.302 446.792,302.175 C446.146,301.497 445.549,300.772 445.007,300.007 C444.691,299.56 444.393,299.099 444.114,298.628 C442.663,296.171 441.746,293.42 441.302,290.607 C441.221,290.093 441.156,289.576 441.106,289.058 C440.998,287.92 440.963,286.773 441.011,285.63 C441.031,285.173 441.063,284.716 441.112,284.26 C441.158,283.833 441.217,283.407 441.295,282.984 C441.343,282.725 441.398,282.468 441.463,282.213 C441.523,281.977 441.591,281.743 441.675,281.513 C441.725,281.374 441.782,281.236 441.847,281.102 C441.926,280.942 442.02,280.788 442.141,280.656 L442.15,280.646 C442.244,280.441 442.334,280.233 442.426,280.027 C442.462,279.948 442.498,279.87 442.535,279.791 C442.629,279.595 442.726,279.401 442.835,279.213 C442.998,278.931 443.186,278.663 443.408,278.425 C443.575,278.246 443.762,278.086 443.965,277.951 C444.1,277.861 444.243,277.783 444.391,277.717 C444.494,277.671 444.6,277.63 444.707,277.596 C445.315,277.401 445.966,277.395 446.593,277.482 C446.687,277.495 446.781,277.51 446.874,277.527 C447.005,277.551 447.136,277.578 447.266,277.609 C447.423,277.645 447.578,277.687 447.733,277.732 C447.938,277.791 448.141,277.857 448.342,277.928 C448.627,278.029 448.907,278.139 449.185,278.256 C449.358,278.329 449.531,278.406 449.702,278.484 C449.863,278.558 450.023,278.634 450.183,278.711 C450.65,278.933 451.116,279.158 451.581,279.383 C452.18,279.673 452.778,279.965 453.375,280.257 C454.278,280.699 455.18,281.141 456.082,281.583 C457.338,282.199 458.594,282.815 459.85,283.43 C460.529,283.762 461.207,284.094 461.886,284.425 C464.61,285.754 467.337,287.078 470.072,288.385 C472.316,289.457 474.565,290.519 476.826,291.555 C477.707,291.958 478.591,292.357 479.478,292.749 C480.274,293.101 481.072,293.447 481.876,293.78 C482.442,294.014 483.01,294.242 483.584,294.454 C483.818,294.54 484.053,294.623 484.29,294.701 C484.486,294.765 484.684,294.826 484.885,294.875 C484.929,294.885 484.974,294.896 485.018,294.905 C485.057,294.913 485.096,294.919 485.134,294.927 C485.154,294.931 485.173,294.936 485.193,294.941 C485.257,294.958 485.319,294.981 485.38,295.009 C485.415,295.025 485.45,295.044 485.484,295.064 C485.772,295.233 485.979,295.509 486.136,295.798 C486.162,295.847 486.187,295.897 486.211,295.947 C486.302,296.136 486.377,296.333 486.443,296.532 C486.518,296.758 486.581,296.988 486.637,297.22 C486.709,297.522 486.768,297.827 486.82,298.132 C486.864,298.387 486.902,298.643 486.935,298.9 C486.984,299.274 487.026,299.65 487.061,300.026 C487.105,300.491 487.139,300.957 487.168,301.423 C487.206,302.045 487.234,302.669 487.254,303.292 C487.281,304.155 487.295,305.019 487.298,305.883 C487.306,307.624 487.275,309.365 487.222,311.106 C487.16,313.175 487.065,315.243 486.948,317.31 C486.833,319.345 486.695,321.378 486.536,323.41 C486.445,324.566 486.348,325.722 486.24,326.877 C486.16,327.734 486.075,328.591 485.976,329.446 C485.956,329.616 485.935,329.787 485.914,329.957 C485.899,330.076 485.883,330.195 485.866,330.314 C485.855,330.394 485.844,330.474 485.831,330.554 C485.821,330.62 485.81,330.687 485.799,330.753 C485.791,330.794 485.784,330.836 485.775,330.877 C485.75,331.003 485.719,331.136 485.64,331.241 C485.625,331.26 485.611,331.279 485.594,331.296 C485.571,331.319 485.547,331.342 485.519,331.361 C485.426,331.424 485.413,331.418 485.311,331.444 C485.278,331.446 485.245,331.449 485.212,331.452 L485.212,331.452 Z M484.988,329.281 C485.083,328.45 485.166,327.617 485.244,326.784 C485.33,325.861 485.41,324.938 485.485,324.015 C485.678,321.628 485.84,319.239 485.972,316.848 C486.108,314.38 486.213,311.91 486.265,309.439 C486.289,308.319 486.302,307.199 486.299,306.078 C486.297,305.16 486.283,304.242 486.254,303.324 C486.236,302.764 486.212,302.204 486.18,301.644 C486.155,301.232 486.127,300.821 486.092,300.41 C486.033,299.724 485.957,299.038 485.844,298.358 C485.799,298.087 485.748,297.818 485.687,297.55 C485.633,297.313 485.57,297.077 485.494,296.846 C485.452,296.718 485.405,296.591 485.35,296.467 C485.304,296.362 485.252,296.259 485.191,296.163 C485.152,296.102 485.11,296.044 485.059,295.993 C485.029,295.962 484.995,295.932 484.956,295.914 C484.929,295.903 484.9,295.9 484.872,295.895 C484.817,295.884 484.817,295.884 484.763,295.873 C484.446,295.801 484.135,295.705 483.826,295.601 C483.504,295.492 483.185,295.374 482.867,295.253 C482.038,294.936 481.219,294.593 480.404,294.244 C479.272,293.758 478.149,293.256 477.028,292.746 C475.84,292.206 474.655,291.656 473.473,291.102 C470.871,289.883 468.28,288.64 465.694,287.389 C461.602,285.408 457.522,283.402 453.439,281.402 C452.958,281.166 452.476,280.931 451.995,280.696 C451.462,280.437 450.929,280.178 450.395,279.921 C450.182,279.818 449.968,279.715 449.754,279.614 C449.619,279.549 449.484,279.485 449.348,279.422 C449.052,279.285 448.752,279.155 448.448,279.035 C448.218,278.945 447.986,278.86 447.75,278.783 C447.575,278.726 447.397,278.674 447.218,278.627 C447.086,278.593 446.954,278.562 446.821,278.535 C446.713,278.513 446.604,278.494 446.495,278.478 C446.407,278.465 446.319,278.455 446.231,278.446 C445.764,278.403 445.277,278.428 444.84,278.612 C444.773,278.64 444.708,278.672 444.644,278.707 C444.535,278.769 444.431,278.841 444.335,278.921 C444.074,279.141 443.87,279.421 443.7,279.714 C443.565,279.948 443.449,280.193 443.338,280.439 C443.257,280.618 443.178,280.799 443.098,280.978 C443.077,281.023 443.057,281.068 443.036,281.112 L442.968,281.258 C442.936,281.284 442.902,281.307 442.874,281.336 C442.851,281.359 442.833,281.387 442.816,281.415 C442.793,281.452 442.772,281.49 442.752,281.529 C442.692,281.649 442.642,281.775 442.598,281.902 C442.526,282.106 442.468,282.315 442.416,282.525 C442.35,282.789 442.297,283.055 442.25,283.323 C442.191,283.669 442.144,284.017 442.106,284.367 C442.056,284.836 442.024,285.308 442.006,285.779 C441.963,286.926 442.006,288.076 442.127,289.217 C442.178,289.696 442.243,290.174 442.322,290.649 C442.757,293.269 443.622,295.828 444.975,298.119 C445.24,298.567 445.523,299.004 445.824,299.429 C446.353,300.177 446.938,300.885 447.573,301.545 C448.6,302.612 449.758,303.55 451.007,304.346 C452.306,305.173 453.7,305.845 455.145,306.376 C455.721,306.589 456.305,306.779 456.896,306.949 C457.185,307.032 457.477,307.11 457.769,307.184 C457.997,307.241 458.225,307.295 458.452,307.351 C458.834,307.447 459.214,307.548 459.593,307.655 C460.296,307.853 460.994,308.073 461.684,308.312 C463.449,308.925 465.166,309.67 466.82,310.539 C468.129,311.228 469.398,311.993 470.62,312.826 C471.748,313.596 472.836,314.424 473.881,315.303 C476.217,317.267 478.336,319.486 480.223,321.885 C481.068,322.959 481.866,324.069 482.616,325.212 C483.191,326.09 483.738,326.987 484.251,327.903 C484.423,328.211 484.592,328.522 484.757,328.835 C484.835,328.983 484.912,329.132 484.988,329.281 L484.988,329.281 Z" id="Fill-24" fill="#0A0A08" sketch:type="MSShapeGroup"></path>
            <path d="M466.606,307.647 C466.286,307.86 492.776,323.285 484.797,336.583 C492.351,331.583 489.904,322.86 489.904,322.86 C489.904,322.86 496.074,338.924 481.074,346.797 C482.67,348.18 483.733,347.86 483.733,347.86 L481.18,350.414 C481.18,350.414 480.01,352.328 490.117,347.434 C487.35,349.669 487.137,351.264 487.137,351.264 C487.137,351.264 487.882,353.392 494.479,347.647 C489.159,353.392 487.988,356.371 487.988,356.264 C502.351,354.987 533.628,308.285 478.096,294.455 C481.075,297.541 480.647,297.115 480.647,297.115 L466.606,307.647" id="Fill-25" fill="#C5242A" sketch:type="MSShapeGroup"></path>
            <path d="M487.845,356.774 L487.591,356.6 L487.502,356.403 L487.428,355.813 L487.677,355.79 C487.711,355.726 487.745,355.661 487.78,355.597 C487.818,355.526 487.857,355.456 487.896,355.385 C488.285,354.691 488.714,354.02 489.165,353.364 C489.718,352.561 490.304,351.782 490.91,351.019 L490.938,350.982 C490.864,351.029 490.788,351.075 490.713,351.12 C490.651,351.157 490.588,351.194 490.526,351.231 C490.313,351.353 490.098,351.471 489.878,351.58 C489.703,351.666 489.525,351.748 489.344,351.821 C489.199,351.88 489.052,351.934 488.903,351.981 C488.802,352.012 488.699,352.041 488.596,352.065 C488.521,352.083 488.445,352.098 488.369,352.111 C488.016,352.17 487.642,352.172 487.305,352.038 C487.261,352.021 487.218,352.001 487.176,351.979 C487.118,351.949 487.063,351.914 487.011,351.875 C486.951,351.83 486.896,351.779 486.847,351.724 C486.777,351.646 486.72,351.557 486.678,351.461 L486.623,351.323 C486.632,351.267 486.638,351.211 486.649,351.155 C486.655,351.12 486.663,351.086 486.671,351.052 C486.71,350.894 486.765,350.74 486.827,350.591 C486.892,350.434 486.966,350.282 487.046,350.133 C487.237,349.779 487.463,349.445 487.709,349.127 L487.718,349.116 C487.549,349.192 487.381,349.268 487.212,349.344 C487.095,349.397 486.977,349.449 486.859,349.501 C486.436,349.688 486.011,349.871 485.584,350.049 C485.229,350.196 484.873,350.34 484.514,350.478 C484.221,350.59 483.926,350.699 483.629,350.801 C483.417,350.873 483.204,350.942 482.99,351.006 C482.816,351.058 482.641,351.107 482.464,351.15 C482.34,351.179 482.215,351.206 482.09,351.228 C482.018,351.241 481.946,351.252 481.874,351.261 C481.825,351.267 481.776,351.272 481.727,351.276 C481.682,351.279 481.637,351.281 481.591,351.282 C481.368,351.286 481.134,351.255 480.944,351.128 C480.914,351.108 480.885,351.085 480.858,351.061 C480.82,351.025 480.785,350.986 480.756,350.943 C480.719,350.89 480.691,350.832 480.671,350.771 C480.645,350.692 480.635,350.608 480.639,350.525 C480.644,350.403 480.681,350.285 480.739,350.178 L480.778,350.108 L482.619,348.267 C482.584,348.256 482.548,348.245 482.512,348.233 C482.385,348.191 482.259,348.142 482.137,348.088 C481.782,347.929 481.449,347.724 481.138,347.491 C481.018,347.401 480.901,347.306 480.786,347.209 L480.191,346.697 C480.465,346.552 480.739,346.409 481.012,346.263 C481.097,346.218 481.182,346.172 481.266,346.126 C481.882,345.785 482.485,345.419 483.067,345.022 C483.984,344.398 484.851,343.7 485.645,342.925 C486.477,342.113 487.226,341.218 487.87,340.25 C488.53,339.258 489.076,338.193 489.5,337.08 C489.929,335.954 490.232,334.781 490.42,333.591 C490.604,332.425 490.678,331.242 490.657,330.062 C490.649,329.574 490.623,329.088 490.584,328.602 L490.582,328.584 C490.57,328.66 490.556,328.735 490.543,328.81 C490.529,328.881 490.515,328.952 490.501,329.023 C490.457,329.241 490.408,329.458 490.353,329.673 C490.252,330.072 490.132,330.466 489.992,330.853 C489.682,331.714 489.276,332.541 488.779,333.31 C488.249,334.129 487.618,334.881 486.908,335.55 C486.549,335.889 486.171,336.206 485.776,336.503 C485.591,336.643 485.401,336.777 485.209,336.908 L485.164,336.939 L485.118,336.969 L483.459,338.07 L483.376,337.992 L484.412,336.251 C484.555,336.006 484.69,335.758 484.814,335.504 C485.061,334.997 485.266,334.471 485.423,333.929 C485.573,333.413 485.678,332.883 485.737,332.349 C485.776,331.998 485.795,331.645 485.796,331.291 C485.796,331.039 485.786,330.786 485.767,330.534 C485.645,328.874 485.127,327.263 484.412,325.767 C484.291,325.515 484.165,325.265 484.034,325.018 C483.873,324.717 483.705,324.42 483.53,324.126 C483.292,323.727 483.042,323.336 482.781,322.951 C482.465,322.484 482.135,322.027 481.792,321.58 C481.351,321.004 480.89,320.444 480.414,319.897 C479.793,319.183 479.146,318.492 478.48,317.821 C477.632,316.967 476.752,316.144 475.851,315.346 C474.64,314.275 473.388,313.251 472.108,312.264 C471.127,311.508 470.128,310.774 469.118,310.057 C468.766,309.808 468.412,309.56 468.058,309.314 C467.702,309.067 467.344,308.822 466.988,308.575 C466.893,308.508 466.798,308.442 466.703,308.374 C466.651,308.338 466.6,308.301 466.549,308.264 C466.517,308.24 466.485,308.216 466.453,308.192 C466.417,308.164 466.38,308.136 466.345,308.106 C466.274,308.046 466.206,307.977 466.162,307.893 C466.153,307.875 466.144,307.857 466.136,307.838 C466.126,307.811 466.116,307.783 466.11,307.755 C466.103,307.716 466.097,307.676 466.099,307.636 C466.101,307.585 466.106,307.533 466.123,307.485 C466.171,307.349 466.196,307.343 466.287,307.261 L479.9,297.05 C479.502,296.633 479.101,296.218 478.7,295.802 C477.975,295.05 477.25,294.298 476.524,293.547 C477.197,293.715 477.87,293.882 478.542,294.051 C479.077,294.187 479.611,294.327 480.144,294.472 C481.367,294.805 482.583,295.166 483.789,295.556 C485.15,295.997 486.499,296.476 487.831,297 C488.819,297.389 489.797,297.803 490.763,298.244 C491.519,298.59 492.268,298.952 493.007,299.333 C493.53,299.602 494.048,299.881 494.561,300.169 C495.022,300.428 495.478,300.695 495.929,300.97 C498.881,302.77 501.633,304.934 503.926,307.531 C504.331,307.989 504.721,308.46 505.094,308.943 C505.587,309.582 506.052,310.243 506.484,310.925 C507.075,311.856 507.605,312.826 508.067,313.827 C508.666,315.126 509.149,316.477 509.51,317.861 C509.763,318.832 509.956,319.819 510.091,320.814 C510.183,321.498 510.247,322.186 510.285,322.875 C510.383,324.657 510.301,326.447 510.065,328.216 C509.895,329.493 509.644,330.76 509.325,332.008 C509.128,332.778 508.905,333.542 508.656,334.297 C508.468,334.868 508.267,335.436 508.052,335.998 C507.799,336.661 507.528,337.317 507.24,337.965 C506.843,338.856 506.415,339.733 505.957,340.594 C505.332,341.771 504.651,342.919 503.92,344.033 C502.962,345.492 501.917,346.893 500.788,348.224 C500.188,348.93 499.564,349.615 498.916,350.277 C498.299,350.906 497.66,351.514 496.996,352.094 C496.372,352.64 495.727,353.161 495.058,353.651 C494.531,354.037 493.99,354.403 493.433,354.744 C492.565,355.274 491.656,355.745 490.705,356.109 C490.075,356.349 489.426,356.543 488.762,356.663 C488.565,356.698 488.367,356.727 488.168,356.749 L488.13,356.752 L488.111,356.761 C488.023,356.765 487.934,356.77 487.845,356.774 L487.845,356.774 Z M488.917,355.612 C489.76,355.422 490.573,355.114 491.351,354.742 C492.233,354.32 493.075,353.815 493.88,353.261 C494.419,352.891 494.942,352.498 495.45,352.087 C496.062,351.594 496.652,351.075 497.224,350.536 C498.498,349.335 499.679,348.036 500.773,346.669 C501.819,345.363 502.785,343.992 503.667,342.57 C504.302,341.547 504.894,340.497 505.439,339.423 C505.846,338.62 506.228,337.803 506.58,336.974 C506.851,336.337 507.105,335.693 507.341,335.042 C507.513,334.566 507.676,334.087 507.828,333.604 C508.684,330.895 509.22,328.076 509.311,325.233 C509.328,324.73 509.33,324.227 509.318,323.724 C509.305,323.167 509.274,322.611 509.224,322.057 C509.158,321.315 509.058,320.575 508.924,319.842 C508.736,318.808 508.479,317.787 508.154,316.788 C507.679,315.329 507.059,313.918 506.309,312.58 C505.893,311.84 505.438,311.122 504.948,310.428 C504.58,309.907 504.191,309.399 503.785,308.906 C503.486,308.542 503.177,308.187 502.859,307.839 C500.802,305.588 498.387,303.684 495.806,302.069 C495.44,301.841 495.07,301.617 494.697,301.4 C494.207,301.114 493.712,300.837 493.212,300.57 C492.503,300.191 491.786,299.83 491.06,299.485 C490.132,299.045 489.191,298.631 488.24,298.242 C487.001,297.735 485.746,297.269 484.479,296.838 C483.415,296.477 482.342,296.141 481.264,295.826 C480.752,295.677 480.239,295.534 479.725,295.394 L479.686,295.384 C479.982,295.691 480.278,295.999 480.573,296.307 C480.694,296.433 480.815,296.559 480.935,296.686 C480.965,296.718 480.995,296.75 481.025,296.782 L481.04,296.8 C481.083,296.85 481.081,296.852 481.119,296.906 L481.629,298.435 L480.651,297.737 L467.423,307.659 C467.673,307.834 467.924,308.006 468.175,308.179 C468.381,308.321 468.586,308.464 468.791,308.606 C468.967,308.729 469.142,308.851 469.318,308.974 C469.941,309.413 470.56,309.857 471.174,310.309 C472.127,311.011 473.066,311.731 473.988,312.472 C475.176,313.426 476.336,314.416 477.456,315.448 C478.298,316.224 479.117,317.025 479.906,317.854 C480.509,318.488 481.093,319.139 481.654,319.809 C482.091,320.332 482.515,320.867 482.919,321.416 C483.228,321.834 483.526,322.26 483.812,322.694 C484.043,323.047 484.267,323.405 484.48,323.769 C484.646,324.051 484.805,324.337 484.958,324.627 C485.783,326.192 486.418,327.876 486.674,329.633 C486.71,329.88 486.738,330.129 486.758,330.378 C486.785,330.71 486.798,331.043 486.795,331.375 C486.791,331.849 486.756,332.323 486.689,332.792 C486.62,333.271 486.518,333.744 486.384,334.208 C486.319,334.431 486.246,334.652 486.168,334.871 L486.166,334.875 C486.84,334.247 487.439,333.541 487.939,332.767 C488.55,331.821 489.01,330.781 489.312,329.697 C489.667,328.427 489.81,327.102 489.777,325.784 C489.764,325.256 489.722,324.728 489.651,324.204 C489.624,324.002 489.592,323.801 489.555,323.6 C489.52,323.412 489.48,323.225 489.434,323.04 L489.427,323.013 L488.906,321.08 L489.674,320.832 C489.913,321.466 490.155,322.099 490.39,322.734 C490.414,322.799 490.436,322.863 490.459,322.928 C490.675,323.564 490.853,324.213 491.006,324.867 C491.21,325.738 491.367,326.62 491.476,327.508 C491.712,329.412 491.732,331.347 491.48,333.25 C491.335,334.343 491.101,335.423 490.769,336.474 C490.426,337.559 489.978,338.611 489.429,339.608 C488.92,340.531 488.324,341.405 487.653,342.218 C486.731,343.336 485.67,344.335 484.517,345.211 C484.003,345.602 483.47,345.968 482.923,346.311 C482.622,346.5 482.316,346.681 482.008,346.857 L481.989,346.867 C482.323,347.085 482.689,347.271 483.082,347.353 C483.184,347.374 483.288,347.388 483.392,347.391 C483.461,347.393 483.532,347.391 483.6,347.378 L483.601,347.378 L485.451,346.849 L482.091,350.209 C482.298,350.164 482.502,350.109 482.704,350.048 C482.938,349.978 483.17,349.902 483.401,349.821 C484.008,349.61 484.606,349.372 485.2,349.125 C485.799,348.877 486.392,348.617 486.983,348.351 C487.883,347.945 488.775,347.524 489.665,347.097 L491.659,346.133 L491.95,346.59 C491.402,347.034 490.852,347.476 490.307,347.924 C489.896,348.264 489.5,348.622 489.132,349.008 C488.899,349.253 488.676,349.508 488.471,349.777 C488.315,349.98 488.169,350.191 488.038,350.411 C487.904,350.634 487.786,350.867 487.697,351.112 L487.696,351.117 C487.777,351.143 487.864,351.15 487.949,351.149 C488.076,351.148 488.201,351.128 488.325,351.102 C488.513,351.06 488.697,351 488.877,350.93 C489.119,350.837 489.353,350.727 489.582,350.608 C489.903,350.442 490.215,350.258 490.519,350.065 C490.894,349.827 491.258,349.575 491.616,349.313 C492.439,348.713 493.227,348.067 493.998,347.402 L494.074,347.336 L495.642,345.973 L496.186,346.535 C495.658,347.107 495.128,347.679 494.601,348.252 C494.482,348.382 494.363,348.512 494.245,348.643 C493.198,349.803 492.183,350.994 491.23,352.233 C490.897,352.664 490.573,353.102 490.258,353.547 C489.938,353.998 489.628,354.457 489.333,354.925 C489.243,355.068 489.155,355.212 489.068,355.356 C489.017,355.441 488.967,355.526 488.917,355.612 L488.917,355.612 Z" id="Fill-26" fill="#0A0A08" sketch:type="MSShapeGroup"></path>
            <path d="M467.776,303.072 C471.393,305.625 472.669,306.476 473.095,307.753 C469.797,307.009 466.818,307.221 466.818,307.221 C466.818,307.221 459.691,300.413 458.414,299.881 C457.456,299.881 451.925,296.37 451.925,296.37 C449.159,294.987 446.606,285.413 456.819,288.178 C467.35,293.178 468.839,293.604 468.839,293.604 C473.024,294.916 477.208,296.229 481.393,297.54 C483.804,300.236 486.215,302.931 488.627,305.626 C488.627,305.626 475.755,299.242 474.159,299.136 C477.669,302.008 479.691,305.944 479.691,305.944 C475.613,304.774 472.067,303.71 467.776,303.072" id="Fill-27" fill="#FFFFFF" sketch:type="MSShapeGroup"></path>
            <path d="M473.854,308.435 C473.514,308.359 473.175,308.282 472.834,308.207 C472.76,308.191 472.685,308.175 472.61,308.16 C472.34,308.105 472.069,308.055 471.797,308.01 C470.92,307.865 470.034,307.773 469.146,307.727 C468.742,307.706 468.338,307.694 467.933,307.693 C467.596,307.692 467.258,307.698 466.922,307.716 L466.883,307.718 L466.632,307.734 C466.422,307.534 466.212,307.335 466.002,307.135 C465.106,306.289 464.205,305.447 463.297,304.613 C462.579,303.954 461.856,303.299 461.125,302.654 C460.813,302.38 460.5,302.107 460.184,301.838 C459.932,301.623 459.678,301.411 459.42,301.202 C459.212,301.033 459.002,300.867 458.786,300.708 C458.703,300.646 458.619,300.586 458.534,300.528 C458.455,300.475 458.375,300.423 458.292,300.377 L458.282,300.372 C458.264,300.37 458.245,300.367 458.226,300.364 C458.204,300.36 458.182,300.355 458.16,300.351 C457.995,300.314 457.834,300.257 457.676,300.195 C457.493,300.123 457.313,300.042 457.135,299.957 C456.926,299.858 456.72,299.754 456.515,299.648 C456.24,299.505 455.968,299.357 455.697,299.207 C455.034,298.839 454.38,298.456 453.729,298.066 C453.055,297.663 452.385,297.251 451.72,296.832 L451.677,296.805 C451.648,296.79 451.649,296.79 451.62,296.775 C451.58,296.752 451.58,296.752 451.541,296.729 C451.474,296.689 451.409,296.648 451.346,296.603 C451.094,296.425 450.869,296.21 450.666,295.979 C450.384,295.658 450.143,295.302 449.935,294.93 C449.767,294.631 449.621,294.32 449.495,294.002 C449.395,293.747 449.307,293.487 449.233,293.223 C449.174,293.014 449.124,292.802 449.084,292.589 C449.054,292.433 449.03,292.277 449.011,292.12 C448.945,291.576 448.944,291.021 449.035,290.48 C449.127,289.934 449.316,289.402 449.621,288.937 C449.725,288.779 449.841,288.629 449.969,288.49 C450.151,288.292 450.355,288.116 450.577,287.965 C450.675,287.898 450.776,287.835 450.88,287.778 C451.604,287.378 452.435,287.216 453.254,287.185 C453.402,287.18 453.551,287.178 453.699,287.181 C453.871,287.183 454.044,287.191 454.216,287.203 C454.45,287.22 454.683,287.244 454.916,287.275 C455.204,287.314 455.492,287.362 455.777,287.419 C456.13,287.489 456.48,287.571 456.828,287.663 L456.888,287.679 L456.993,287.707 C457.48,287.938 457.967,288.169 458.455,288.399 C460.625,289.423 462.798,290.44 464.986,291.425 C465.793,291.789 466.601,292.148 467.415,292.496 C467.702,292.618 467.99,292.739 468.279,292.857 C468.502,292.947 468.725,293.037 468.953,293.115 C470.006,293.462 471.069,293.779 472.127,294.111 C474.219,294.767 476.312,295.423 478.404,296.079 L481.674,297.104 C483.513,299.16 485.352,301.216 487.191,303.271 L490.294,306.739 L490.144,306.935 C489.458,306.595 488.773,306.255 488.086,305.917 C487.794,305.772 487.501,305.629 487.209,305.485 C485.192,304.499 483.171,303.523 481.137,302.572 C480.299,302.18 479.459,301.792 478.616,301.412 C477.833,301.06 477.048,300.714 476.256,300.384 L476.226,300.372 C476.286,300.434 476.346,300.498 476.406,300.561 C476.475,300.635 476.544,300.709 476.612,300.784 C476.833,301.026 477.049,301.272 477.26,301.522 C477.832,302.201 478.367,302.91 478.868,303.643 C479.079,303.953 479.284,304.267 479.482,304.586 C479.69,304.921 479.89,305.26 480.078,305.607 L480.109,305.665 L480.128,305.701 L480.67,306.745 C479.672,306.459 478.674,306.172 477.676,305.885 C477.31,305.781 476.943,305.676 476.577,305.573 C475.378,305.235 474.177,304.908 472.968,304.613 C472.301,304.45 471.631,304.296 470.958,304.154 C470.593,304.077 470.227,304.003 469.86,303.933 C470.029,304.053 470.198,304.174 470.366,304.296 C470.692,304.532 471.017,304.77 471.336,305.015 C471.517,305.154 471.696,305.295 471.872,305.44 C472.133,305.656 472.388,305.88 472.624,306.123 C472.86,306.365 473.078,306.628 473.254,306.918 C473.333,307.046 473.403,307.18 473.463,307.318 C473.493,307.386 473.52,307.455 473.545,307.525 C473.652,307.827 473.751,308.132 473.854,308.435 L473.854,308.435 Z M472.117,307.05 C471.874,306.766 471.596,306.514 471.311,306.274 C471.027,306.036 470.734,305.81 470.437,305.588 C470.099,305.335 469.756,305.087 469.412,304.842 C468.989,304.539 468.564,304.24 468.139,303.94 L465.905,302.364 L465.935,302.29 C466.674,302.401 467.414,302.51 468.153,302.623 C468.778,302.721 469.401,302.828 470.022,302.946 C470.966,303.125 471.905,303.329 472.839,303.553 C474.786,304.018 476.713,304.567 478.637,305.121 C478.595,305.053 478.552,304.986 478.51,304.919 C478.37,304.699 478.228,304.481 478.081,304.265 C477.606,303.565 477.097,302.886 476.554,302.237 C475.974,301.542 475.354,300.879 474.69,300.263 C474.441,300.031 474.184,299.807 473.922,299.589 L472.614,298.511 L474.224,298.64 C474.255,298.643 474.255,298.643 474.287,298.647 C474.422,298.666 474.555,298.698 474.686,298.735 C474.792,298.765 474.897,298.798 475.002,298.833 C475.315,298.936 475.624,299.053 475.931,299.174 C476.342,299.335 476.75,299.505 477.156,299.678 C477.63,299.88 478.102,300.087 478.573,300.297 C479.79,300.84 480.999,301.401 482.205,301.968 C483.583,302.618 484.957,303.277 486.328,303.943 L486.544,304.048 C485.305,302.664 484.067,301.28 482.829,299.895 L481.112,297.976 C478.017,297.006 474.923,296.036 471.828,295.065 C470.774,294.735 469.719,294.407 468.666,294.074 C468.628,294.061 468.628,294.061 468.589,294.048 C468.329,293.955 468.071,293.852 467.815,293.747 C467.453,293.599 467.094,293.447 466.735,293.292 C465.841,292.907 464.953,292.509 464.067,292.107 C463.012,291.629 461.961,291.144 460.911,290.656 C459.486,289.993 458.065,289.323 456.645,288.649 C456.564,288.627 456.482,288.606 456.401,288.585 C456.078,288.504 455.754,288.431 455.427,288.37 C455.167,288.321 454.905,288.28 454.642,288.248 C454.434,288.223 454.225,288.204 454.016,288.192 C453.852,288.183 453.688,288.179 453.523,288.18 C453.385,288.18 453.246,288.185 453.107,288.194 C453.001,288.201 452.896,288.211 452.791,288.224 C452.173,288.299 451.551,288.48 451.048,288.857 C450.919,288.954 450.799,289.063 450.691,289.183 C450.615,289.267 450.545,289.356 450.481,289.45 C450.437,289.515 450.396,289.581 450.359,289.649 C450.087,290.138 449.977,290.703 449.965,291.258 C449.963,291.356 449.964,291.454 449.968,291.552 C449.972,291.668 449.981,291.784 449.993,291.9 C450.008,292.051 450.03,292.202 450.057,292.352 C450.091,292.538 450.133,292.722 450.182,292.904 C450.25,293.151 450.331,293.395 450.425,293.634 C450.541,293.926 450.676,294.21 450.831,294.483 C451,294.779 451.193,295.063 451.417,295.319 C451.582,295.507 451.766,295.683 451.975,295.822 C452.039,295.864 452.105,295.9 452.173,295.935 C452.301,296.016 452.429,296.096 452.556,296.176 C453.249,296.608 453.945,297.033 454.647,297.449 C455.244,297.803 455.845,298.15 456.455,298.483 C456.668,298.599 456.883,298.713 457.1,298.824 C457.321,298.938 457.544,299.048 457.77,299.149 C457.899,299.207 458.028,299.262 458.16,299.309 C458.212,299.328 458.264,299.345 458.317,299.36 C458.349,299.369 458.383,299.378 458.416,299.381 L458.417,299.381 L458.52,299.382 C458.565,299.402 458.61,299.42 458.654,299.44 C458.849,299.532 459.029,299.653 459.205,299.777 C459.445,299.946 459.677,300.126 459.906,300.309 C460.219,300.56 460.527,300.817 460.833,301.077 C461.153,301.35 461.47,301.626 461.786,301.904 C462.642,302.658 463.487,303.427 464.326,304.201 C465.226,305.031 466.119,305.867 467.007,306.71 C467.091,306.707 467.176,306.704 467.261,306.701 C467.947,306.683 468.634,306.696 469.319,306.735 C470.204,306.785 471.085,306.881 471.96,307.023 C472.012,307.032 472.064,307.041 472.117,307.05 L472.117,307.05 Z" id="Fill-28" fill="#0A0A08" sketch:type="MSShapeGroup"></path>
            <path d="M417.669,245.944 C417.669,245.944 430.01,242.965 431.499,243.391" id="Fill-29" fill="#0A0A08" sketch:type="MSShapeGroup"></path>
            <path d="M417.786,246.43 L417.552,245.458 C417.825,245.392 418.097,245.328 418.37,245.263 C420.013,244.877 421.659,244.503 423.31,244.149 C424.67,243.857 426.032,243.576 427.401,243.328 C427.895,243.238 428.39,243.153 428.886,243.076 C429.269,243.017 429.653,242.962 430.039,242.919 C430.342,242.885 430.646,242.857 430.951,242.85 C431.061,242.848 431.17,242.848 431.279,242.855 C431.397,242.862 431.514,242.877 431.629,242.908 L431.369,243.874 C431.358,243.87 431.346,243.868 431.334,243.866 C431.315,243.862 431.296,243.86 431.277,243.858 C431.165,243.847 431.053,243.848 430.941,243.851 C430.814,243.855 430.688,243.863 430.562,243.873 C430.211,243.901 429.861,243.945 429.512,243.994 C429.096,244.053 428.682,244.119 428.268,244.19 C427.748,244.279 427.229,244.374 426.712,244.474 C425.444,244.717 424.181,244.982 422.92,245.256 C421.382,245.591 419.848,245.941 418.317,246.303 C418.14,246.345 417.963,246.387 417.786,246.43" id="Fill-30" fill="#FFFFFF" sketch:type="MSShapeGroup"></path>
        </g>
    </g>
</svg>