<svg viewBox="0 0 3750 2500" xmlns="http://www.w3.org/2000/svg" fill-rule="evenodd" clip-rule="evenodd" stroke-linejoin="round" stroke-miterlimit="1.414"><path fill="#030404" fill-rule="nonzero" d="M0 0h3750.003v2500.002H0z"/><path fill="#FADC06" fill-rule="nonzero" d="M0 416.663h3750.003v416.67H0z"/><path fill="#D91F26" fill-rule="nonzero" d="M0 833.334h3750.003V1250H0z"/><path fill="#FADC06" fill-rule="nonzero" d="M0 1666.668h3750.003v416.667H0z"/><path fill="#D91F26" fill-rule="nonzero" d="M0 2083.335h3750.003v416.667H0z"/><path d="M1875 860.417c215.164 0 389.585 174.42 389.585 389.584 0 215.164-174.42 389.585-389.584 389.585-215.16 0-389.582-174.42-389.582-389.584 0-215.162 174.42-389.583 389.584-389.583" fill="#fff" fill-rule="nonzero"/><path d="M1806.335 951.63l-25.267-46.542c9.75-9.75 26.154-17.287 52.304-17.287 0 1.772-2.658 50.976-2.658 50.976l-24.38 12.854z" fill="#D91F26" fill-rule="nonzero"/><path d="M1805.49 954.43l-27-49.722 1.35-1.333c.49-.48.98-.952 1.49-1.412 1.14-1.03 2.33-2.01 3.56-2.93 1.09-.818 2.21-1.592 3.36-2.323 6.97-4.436 14.88-7.245 22.95-8.905 1.16-.24 2.33-.455 3.5-.65 1.57-.26 3.15-.48 4.73-.665 2.04-.24 4.09-.417 6.15-.542 2.39-.146 4.78-.214 7.17-.23l2.74-.006c-.01.75-.02 1.502-.04 2.254 0 .262-.02.525-.03.787-.04 1.028-.09 2.056-.14 3.084-.29 5.848-.6 11.694-.91 17.54-.48 9.132-.97 18.262-1.46 27.392l-.18 3.296c-9.08 4.79-18.16 9.577-27.24 14.365zm1.69-5.604l21.52-11.344 1.26-23.642c.42-7.813.84-15.626 1.22-23.442l.02-.497c-2.34.038-4.69.142-7.03.32-1.94.147-3.87.345-5.8.6-1.49.198-2.97.43-4.44.7-1.25.227-2.49.482-3.73.765-7.04 1.618-13.92 4.2-20.01 8.13-.77.496-1.52 1.013-2.26 1.552-.98.71-1.93 1.458-2.84 2.242-.49.412-.96.837-1.43 1.27l-.01.005c7.85 14.447 15.69 28.894 23.53 43.34z" fill="#030404" fill-rule="nonzero"/><path d="M1830.714 939.217l3.546-51.42s52.308-3.1 80.675 31.03c.446-.443-27.925 39.89-27.925 39.89l-56.296-19.5z" fill="#FADC06" fill-rule="nonzero"/><path d="M1886.212 956.235c5.29-7.517 10.57-15.038 15.85-22.563 3.37-4.81 6.74-9.615 10.09-14.443l.17-.257c-1.82-2.093-3.77-4.076-5.83-5.937-1.43-1.288-2.91-2.52-4.44-3.69-1.12-.864-2.27-1.697-3.45-2.498-8.04-5.482-17.06-9.418-26.39-12.13-1.32-.387-2.66-.748-4-1.086-1.93-.487-3.87-.924-5.82-1.315-2.53-.506-5.08-.934-7.63-1.287-3.29-.456-6.6-.787-9.91-.992-2.84-.176-5.68-.26-8.53-.22h-.11l-3.31 47.953 53.31 18.465zm1.6 4.965l-59.28-20.535 3.78-54.853c.73-.038 1.46-.082 2.2-.113.58-.025 1.16-.04 1.75-.05 2.95-.044 5.9.047 8.84.23 3.54.218 7.08.577 10.59 1.072 2.65.374 5.29.825 7.91 1.36 1.88.383 3.76.81 5.63 1.28 10.91 2.748 21.51 7.02 30.9 13.26 1.24.828 2.46 1.688 3.66 2.583 1.56 1.162 3.07 2.38 4.53 3.657 1.69 1.475 3.32 3.025 4.87 4.647.73.762 1.44 1.542 2.13 2.334l.18.2.15.178.25-.072 1.31 2.182-.34 1.065c-.04.07-.07.14-.11.21-.06.118-.14.228-.21.34-.16.238-.32.475-.49.713-.36.532-.73 1.063-1.1 1.594l-3.51 5.035c-4.58 6.557-9.18 13.107-13.78 19.657-3.29 4.675-6.57 9.35-9.86 14.023z" fill="#030404" fill-rule="nonzero"/><path d="M1887.897 958.276l25.71-39.892c17.286 18.175 24.378 31.03 27.036 50.533.446.442-40.78 10.192-40.78 9.75 0-.44-11.524-19.95-11.966-20.39z" fill="#D91F26" fill-rule="nonzero"/><path d="M1899.972 980.766c-.1 0-.2 0-.3-.012-.22-.025-.53-.084-.71-.177-.22-.113-.44-.24-.61-.417-.2-.208-.32-.48-.48-.718l-.02-.187c-.23-.437-.47-.864-.71-1.292-.43-.77-.87-1.54-1.31-2.305-1.19-2.05-2.38-4.09-3.58-6.13-1.21-2.048-2.42-4.093-3.64-6.132-.41-.677-.81-1.354-1.23-2.03-.35-.586-.71-1.175-1.08-1.75l-.02-.02-.99-1.122 28-43.448c1.14 1.207 2.29 2.41 3.43 3.625 1.27 1.365 2.53 2.745 3.76 4.144 4.98 5.65 9.64 11.643 13.33 18.225.71 1.256 1.38 2.533 2.01 3.83.93 1.913 1.77 3.868 2.52 5.86.8 2.13 1.5 4.3 2.1 6.5.65 2.414 1.19 4.86 1.63 7.323.21 1.21.4 2.422.57 3.638l.02.16.04.084.04.685c-.12.553-.08.63-.42 1.097-.08.118-.2.213-.3.31-.06.058-.14.106-.2.156-.27.188-.58.306-.88.41-.59.204-1.19.37-1.79.536-.33.09-.68.185-1.01.273-.6.16-1.2.318-1.8.473-.7.18-1.4.36-2.1.538-.78.198-1.57.395-2.36.59-3.01.752-6.03 1.484-9.06 2.208-3.74.896-7.49 1.778-11.24 2.64-2.29.525-4.58 1.045-6.87 1.542-.89.193-1.78.384-2.67.562-.59.118-1.18.24-1.78.31-.14.013-.14.013-.29.02zm-2.16-1.73l-.01-.113c0 .057 0 .057.01.112zm3.22-2.648c.94-.184 1.87-.384 2.8-.586 1.44-.312 2.87-.633 4.3-.958 3.3-.747 6.6-1.515 9.89-2.293 3.73-.88 7.46-1.775 11.18-2.692 1.58-.39 3.16-.785 4.74-1.188 1.37-.348 2.73-.702 4.09-1.076l.3-.085c-.59-3.903-1.43-7.773-2.59-11.546-.95-3.057-2.12-6.044-3.49-8.93-.53-1.1-1.09-2.185-1.67-3.255-2.02-3.696-4.37-7.203-6.91-10.556-2.22-2.924-4.58-5.735-7.02-8.472-.86-.957-1.72-1.903-2.59-2.845l-.15-.155-23.53 36.522c.19.308.38.617.56.927 1.47 2.416 2.91 4.845 4.35 7.28 1.54 2.605 3.07 5.217 4.57 7.84.4.69.79 1.376 1.17 2.068z" fill="#030404" fill-rule="nonzero"/><path d="M1896.322 1372.73l1.33 49.65s17.28 3.1 25.26 0c7.98-3.11-.44-34.58-26.59-49.65zm-77.46 247.77c-.52-.89-1.06-1.77-1.58-2.67-.08-.14-.16-.28-.24-.43-.41-.78-.76-1.6-1.02-2.44-.67-2.12-.82-4.36-.61-6.55.21-2.19.78-4.32 1.53-6.38.23-.63.48-1.25.75-1.87.34-.78.7-1.55 1.09-2.31.47-.92.96-1.83 1.49-2.72.65-1.13 1.35-2.23 2.08-3.31.96-1.43 1.97-2.82 3.02-4.19 1.38-1.8 2.84-3.55 4.34-5.26 1.9-2.15 3.88-4.22 5.92-6.23l.01-.01c-1.31-.22-2.63-.4-3.95-.57-1.58-.2-3.16-.38-4.75-.52-3.73-.36-7.47-.59-11.22-.74-7.79-.3-15.6-.23-23.39.09-1.95.08-3.89.18-5.84.29l-3.72.21.74-2.87c.04-.12.07-.24.11-.36.12-.4.27-.79.45-1.18.5-1.09 1.2-2.09 2-2.99 1.13-1.28 2.47-2.37 3.87-3.33.51-.35 1.04-.69 1.57-1.01.75-.45 1.52-.88 2.29-1.28 1.04-.54 2.1-1.04 3.17-1.51 1.38-.6 2.78-1.15 4.2-1.67 1.65-.6 3.31-1.15 4.99-1.66 2.92-.88 5.88-1.65 8.85-2.33 3.17-.72 6.37-1.34 9.57-1.89 3.96-.67 7.93-1.21 11.91-1.65 3.35-.37 6.71-.65 10.08-.86 5.63-.34 11.28-.46 16.92-.24 2.08.07 4.17.2 6.25.39 2.73.24 5.45.59 8.15 1.11.03-.2.03-.2.05-.4.11-1.07.17-2.13.2-3.2.03-1.16.04-2.31.04-3.47-.02-3.08-.12-6.15-.27-9.22-.18-3.95-.42-7.9-.7-11.84-.28-4.02-.59-8.03-.93-12.04-.84-10.13-1.81-20.25-2.84-30.36-1.29-12.71-2.68-25.41-4.15-38.1l-.08-.67c-.59.02-1.17.04-1.76.05l-1.69.03c-6.7.1-13.4 0-20.09-.25-7.78-.29-15.56-.78-23.32-1.46-3.27-.29-6.54-.61-9.81-.97-1.13-.12-2.27-.25-3.4-.38-.71-.09-1.42-.17-2.13-.25-.27-.03-.54-.06-.8-.08-.9-.08-1.8-.12-2.7-.12-1.75-.01-3.5.14-5.22.46-1.61.31-3.19.78-4.7 1.4-.97.41-1.92.88-2.83 1.41-.59.35-1.18.73-1.74 1.13-3.61 2.54-6.48 6-8.79 9.73-.32.52-.63 1.05-.94 1.58-.4.71-.79 1.43-1.17 2.16-.51 1-.99 2.01-1.45 3.04-.54 1.19-1.04 2.39-1.53 3.61-.63 1.61-1.23 3.25-1.8 4.89-.74 2.12-1.43 4.26-2.14 6.38-.15.44-.3.87-.45 1.31-.21.6-.42 1.2-.65 1.8-.16.42-.32.85-.5 1.26-.13.34-.28.67-.43.99-.1.21-.2.41-.31.61-.07.15-.15.29-.23.44-.52.9-1.18 1.77-2.12 2.27-.12.06-.23.11-.36.16-.15.06-.31.11-.48.14-.24.05-.49.08-.73.08-.35-.01-.69-.07-1.02-.19-.44-.15-.83-.39-1.2-.67-.56-.43-1.05-.95-1.48-1.51-.68-.87-1.22-1.83-1.7-2.83-.68-1.43-1.23-2.93-1.7-4.45-.57-1.81-1.04-3.65-1.46-5.5-.43-1.92-.8-3.86-1.13-5.79-.49-2.86-.89-5.73-1.24-8.61l-.02-.15c-.74 1.68-1.42 3.38-2.04 5.11-.74 2.07-1.4 4.17-1.97 6.3-1.61 5.96-2.57 12.11-2.83 18.28-.12 2.81-.1 5.62.05 8.43l.02.31.34 5.35-3.91-3.46c-.56-.51-1.09-1.05-1.59-1.62-1.22-1.4-2.22-2.97-3.08-4.62-1.27-2.45-2.19-5.08-2.91-7.75-.27-1.02-.51-2.05-.73-3.08-.29-1.4-.53-2.8-.73-4.21-.28-1.9-.48-3.81-.62-5.73l-.03-.32c-5.03 11.56-10.03 23.14-15.03 34.71-.41-2.68-.82-5.35-1.22-8.03-.49-3.36-.91-6.73-1.19-10.11-.23-2.68-.38-5.38-.44-8.08-.05-2.02-.04-4.04.03-6.06.06-1.57.15-3.14.29-4.71.1-1.18.23-2.36.39-3.54.79-5.99 2.29-11.93 4.92-17.39.37-.78.77-1.55 1.19-2.31.48-.85.98-1.69 1.51-2.5.76-1.16 1.58-2.29 2.46-3.37 1.22-1.49 2.56-2.9 4-4.19 2.22-2 4.69-3.73 7.31-5.17 2.41-1.33 4.94-2.42 7.54-3.32 1.82-.62 3.68-1.15 5.56-1.62 1.67-.41 3.36-.76 5.06-1.09 1.43-.27 2.86-.52 4.29-.79l.74-.15c.59-.12 1.19-.24 1.77-.39.19-.04.37-.09.55-.14l.31-.09c.1-.04.21-.07.31-.11.2-.07.2-.07.4-.13 1.1-.33 2.22-.56 3.35-.75 1.11-.19 2.22-.34 3.33-.47 2.92-.33 5.85-.54 8.78-.7 3.77-.2 7.53-.32 11.3-.4 4.62-.1 9.24-.12 13.87-.11 6.77.02 13.55.13 20.32.31 6.46.17 12.91.41 19.36.72 5.06.25 10.11.54 15.15.93 1.83.15 3.66.31 5.48.49 1.6.17 3.19.36 4.77.62l.2.03.12.02c.04-.12.08-.23.12-.35.42-1.34.69-2.73.89-4.12.23-1.54.38-3.09.48-4.64.15-2.12.22-4.24.26-6.36.03-2.23.01-4.45-.03-6.68-.12-5.8-.44-11.59-.86-17.38-.48-6.69-1.1-13.37-1.83-20.03l-.07-.59-.11-.97c-.14-.1-.27-.2-.4-.3-.71-.54-1.39-1.13-2.07-1.72-.88-.78-1.75-1.58-2.62-2.39-2.34-2.19-4.63-4.42-6.92-6.67-2.4-2.37-4.79-4.76-7.17-7.15-3.55-3.58-7.07-7.18-10.59-10.79-.25-.06-.49-.13-.74-.2-1.6-.45-3.18-.95-4.74-1.51-4.34-1.55-8.55-3.47-12.61-5.64-4.78-2.56-9.38-5.47-13.81-8.6-3.45-2.44-6.8-5.02-10.06-7.7-3.37-2.76-6.64-5.64-9.82-8.61-2.52-2.34-4.99-4.75-7.4-7.2-3.24-3.3-6.38-6.69-9.41-10.17l-.07-.09c-.1.15-.2.29-.3.44-.11.17-.23.34-.36.51-.23.33-.48.66-.76.95-.18.2-.37.39-.58.55-.12.08-.24.16-.37.23l-1.43.76c-.65-.67-1.3-1.33-1.94-2.01-.66-.68-1.31-1.37-1.96-2.07-2.41-2.6-4.74-5.29-6.97-8.05-3.34-4.13-6.46-8.44-9.3-12.92-3.13-4.95-5.93-10.1-8.32-15.44-3.09-6.89-5.5-14.09-7.14-21.46-1.16-5.22-1.94-10.52-2.33-15.84-.28-3.82-.37-7.66-.27-11.48.08-2.9.26-5.8.54-8.69.21-2.1.47-4.2.78-6.29 2.06-13.88 6.36-27.36 12.07-40.16.88-1.98 1.8-3.94 2.75-5.89 1.24-2.56 2.55-5.09 3.9-7.59 1.72-3.2 3.53-6.35 5.41-9.46 2.48-4.09 5.08-8.1 7.79-12.03 3.55-5.14 7.28-10.16 11.19-15.04 4-5 8.18-9.87 12.53-14.58 1.62-1.75 3.27-3.48 4.94-5.18 1.46-1.48 2.94-2.95 4.45-4.37l.03-.03 5.71-41.21c-.77.12-1.54.25-2.31.38-4.91.79-9.82 1.52-14.75 2.19-3.68.49-7.37.95-11.06 1.35-2.5.27-5.01.52-7.52.72-2.39.2-4.79.36-7.19.47-1.45.07-2.89.11-4.34.12-1.22.02-2.44.01-3.67-.04-.92-.03-1.84-.09-2.76-.17-.67-.06-1.33-.13-2-.23-.45-.07-.91-.15-1.36-.25-.36-.07-.71-.16-1.06-.25-.2-.06-.4-.12-.59-.19-.17-.05-.32-.11-.48-.17-1.08-.41-2.14-1.02-2.82-1.99-.13-.18-.24-.36-.33-.56-.12-.23-.21-.48-.27-.73-.09-.36-.13-.74-.11-1.11.02-.53.14-1.04.33-1.52.29-.73.71-1.39 1.21-1.99.76-.93 1.68-1.72 2.63-2.45.77-.58 1.58-1.13 2.41-1.64.76-.47 1.53-.92 2.32-1.35 1.29-.71 2.61-1.37 3.94-2.01 1.56-.74 3.13-1.44 4.72-2.12 3.64-1.55 7.34-2.96 11.06-4.3 4.35-1.57 8.75-3.04 13.16-4.45 4.92-1.565 9.87-3.05 14.84-4.462l.42-.118c-.08-.155-.16-.31-.23-.467l-.3-.625c-.45-1-.85-2.016-1.21-3.054-1.14-3.368-1.74-6.913-1.81-10.466-.06-3.15.29-6.306 1.01-9.374 1.19-5.07 3.36-9.87 6.11-14.277 1.04-1.664 2.17-3.275 3.36-4.835.4-.518.8-1.03 1.21-1.54.08-.093.57-.702.6-.735.02-.016.48-.425.55-.49.37-.32.73-.637 1.1-.95 1.16-.98 2.35-1.918 3.57-2.813 2.35-1.72 4.83-3.276 7.41-4.637 2.7-1.425 5.51-2.64 8.39-3.62 3.74-1.27 7.61-2.15 11.53-2.63 2.12-.258 4.25-.4 6.38-.428 10.47-.137 20.92 2.492 30.17 7.36 3.96 2.088 7.71 4.587 11.14 7.47 5.65 4.738 10.46 10.54 13.73 17.165.45.914.87 1.844 1.26 2.786.44 1.076.84 2.168 1.2 3.274.6 1.868 1.07 3.775 1.42 5.708l.03.215c.04.066.04.067.08.14l.1.19c.16.38.27.776.36 1.18.08.393.14.79.19 1.19.15 1.182.19 2.378.19 3.57 0 2.026-.16 4.05-.41 6.06-.33 2.602-.83 5.18-1.48 7.72-.61 2.404-1.34 4.764-2.19 7.094-3.59 9.87-9.17 18.94-15.94 26.94-3.21 3.8-6.69 7.37-10.37 10.72-1.39 1.26-2.82 2.49-4.27 3.7-.2.23-.4.47-.6.71-1.12 1.32-2.17 2.69-3.17 4.11-2.86 4.09-5.21 8.53-7.13 13.14-2.24 5.37-3.9 10.96-5.14 16.64-.42 1.89-.78 3.78-1.11 5.69-1.06 6.23-1.68 12.53-1.97 18.84-.33 7.26-.24 14.55.19 21.81.33 5.57.86 11.12 1.59 16.65.27 2.07.56 4.13.89 6.19.3 1.85.62 3.69.98 5.53l159.74 204.54c-2.1-.46-4.19-.93-6.28-1.39-.59-.13-1.18-.25-1.76-.38-4.35-.91-8.72-1.76-13.09-2.53-4.44-.79-8.89-1.51-13.35-2.13-3.75-.53-7.51-.98-11.28-1.32-3.19-.29-6.4-.5-9.6-.55-2-.03-4.01-.01-6.01.14-.82.06-1.64.14-2.46.26-.78.1-1.55.24-2.32.42-.3.07-.6.15-.9.24-.57.17-1.13.38-1.66.65-.38.19-.75.42-1.06.72-.27.25-.48.55-.65.86-.38.71-.56 1.51-.66 2.3-.07.61-.08 1.22-.06 1.83.02.73.09 1.44.19 2.16.14 1.05.35 2.1.6 3.13.24.99.51 1.97.82 2.95.76 2.48 1.68 4.9 2.69 7.29.93 2.22 1.95 4.42 3.01 6.59 1.23 2.53 2.54 5.03 3.89 7.5 2.08 3.79 4.28 7.52 6.59 11.18.96 1.51 1.93 3.01 2.93 4.49.92 1.36 1.85 2.71 2.82 4.03.35.49.71.97 1.08 1.44.2.27.41.53.61.79.11.14.11.14.22.29.24.34.47.68.68 1.03.42.69.79 1.41 1.11 2.15.28.67.52 1.36.71 2.06.15.53.27 1.07.36 1.61.6 3.48.14 7.07-.98 10.4-.18.54-.38 1.07-.59 1.6-.33.79-.69 1.58-1.09 2.34-.55 1.03-1.16 2.03-1.84 2.98-.34.49-.71.96-1.1 1.42-.31.38-.64.74-.98 1.1-.95.97-2 1.86-3.18 2.53-.76.44-1.59.78-2.45.95-.26.05-.53.09-.8.1-.15.01-.31.01-.46.02-.72-.09-1.44-.17-2.16-.26-6.36-.71-12.72-1.29-19.1-1.73-3.06-.21-6.12-.39-9.19-.52-2.84-.11-5.69-.19-8.53-.19-2.08-.01-4.16.02-6.24.12-1.82.08-3.64.21-5.45.43-1.21.14-2.42.33-3.61.6-.94.21-1.89.48-2.77.89-.02.02-.05.03-.07.05-.19.15-.33.36-.45.56-.24.4-.42.83-.58 1.26-.26.71-.46 1.43-.62 2.16-.22.94-.38 1.89-.52 2.84-.18 1.28-.31 2.55-.42 3.84-.13 1.63-.22 3.27-.28 4.92-.14 3.67-.14 7.36-.07 11.03.1 6.09.39 12.17.76 18.24.4 6.44.9 12.86 1.46 19.28.63 7.21 1.34 14.42 2.11 21.62.8 7.48 1.67 14.96 2.6 22.44l.1.77c.4-.01.8-.01 1.2-.02h1.28c3.7 0 7.39.16 11.07.47 2.78.24 5.56.56 8.32.99 2.24.36 4.48.77 6.69 1.27 1.63.37 3.26.79 4.87 1.25 1.3.37 2.59.78 3.87 1.23 1.07.37 2.13.77 3.18 1.19.83.35 1.67.7 2.49 1.08 2.75 1.28 5.41 2.77 7.87 4.55 2.44 1.76 4.68 3.81 6.59 6.14.79.96 1.51 1.97 2.18 3.01l.09.15 2.38 3.85c-1.8-.23-3.61-.46-5.42-.68-1.79-.22-3.58-.42-5.38-.59-3.47-.34-6.95-.59-10.44-.75-9.16-.42-18.35-.21-27.47.7-9.68.96-19.29 2.71-28.68 5.27-12.47 3.41-24.54 8.27-35.85 14.52-4.15 2.3-8.19 4.78-12.11 7.46-2.95 2.01-5.82 4.12-8.61 6.35-2.16 1.73-4.28 3.53-6.31 5.42-1.52 1.4-3 2.83-4.39 4.36-.68.76-1.35 1.53-2.02 2.29z" fill="#030404"/><path d="M1834.13 1048.584s-92.245 101.675-52.45 179.48c2.12-10.85 1.196-17.667 2.526-17.22-2.217-1.335 11.44 9.357 10.4 7.278.29-5.625-4.16-17.68-4.16-17.68 4.16 1.038 8.322 2.08 12.485 3.117-2.43-4.505-4.858-9.013-7.283-13.522 5.896.696 11.788 1.388 17.684 2.08 0 0-6.24-16.642-4.158-16.642 2.075 0 14.56 1.042 14.56 1.042-26.235-47.08-1.49-86.175 10.4-127.934z" fill="#9CA69C" fill-rule="nonzero"/><path d="M1782.57 1234.42l-2.98-5.87c-.16-.31-.31-.63-.47-.94-.75-1.55-1.47-3.12-2.14-4.71-1.38-3.27-2.56-6.62-3.55-10.04-.97-3.35-1.74-6.75-2.33-10.19-.42-2.43-.75-4.88-.98-7.34-.18-1.79-.3-3.59-.38-5.4-.52-11.64.87-23.32 3.51-34.66.37-1.6.77-3.2 1.19-4.79.55-2.06 1.14-4.11 1.76-6.16.87-2.82 1.8-5.62 2.79-8.39 1.26-3.53 2.62-7.01 4.06-10.46 1.86-4.42 3.85-8.78 5.97-13.08 2.71-5.5 5.61-10.9 8.68-16.21 4.01-6.95 8.31-13.74 12.84-20.36 4.06-5.94 8.31-11.75 12.74-17.41 1.76-2.24 3.54-4.45 5.36-6.64 1.27-1.52 2.55-3.03 3.87-4.5l5.48-6.07.36.2c-.83 2.91-1.66 5.83-2.5 8.74-.72 2.47-1.47 4.92-2.25 7.37-1.31 4.07-2.7 8.11-4.11 12.15-1.12 3.21-2.26 6.42-3.38 9.64-.68 1.91-1.34 3.83-2 5.76-.59 1.75-1.18 3.51-1.75 5.27-3.43 10.52-6.36 21.26-7.57 32.28-.43 3.9-.64 7.83-.58 11.76.05 3.75.35 7.5.9 11.21.84 5.68 2.29 11.26 4.29 16.64.99 2.69 2.12 5.33 3.36 7.91.83 1.73 1.72 3.43 2.64 5.1l2.04 3.69-6.83-.57-3.54-.27c-1.8-.14-3.61-.28-5.42-.4l-.49-.03-.18-.01.12.61c.23 1.02.5 2.03.79 3.03.26.89.53 1.78.81 2.66.78 2.44 1.63 4.86 2.52 7.27l1.25 3.38c-5.55-.66-11.09-1.31-16.64-1.96l-.45-.05c2.54 4.71 5.08 9.43 7.62 14.14-3.6-.9-7.21-1.8-10.82-2.7l-2.52-.63c.12.39.24.78.36 1.16.75 2.4 1.43 4.82 1.95 7.28.2.93.37 1.86.5 2.8.15 1.03.24 2.07.23 3.11v.11l.01.03.02.16c.02.16.02.22.02.38-.02.27-.08.52-.18.76-.14.3-.33.56-.57.77-.15.13-.33.24-.5.32-.14.07-.3.12-.44.15s-.24.04-.38.05c-.73.05-1.41-.29-2.03-.64-.14-.08-.29-.17-.43-.25-.23-.15-.46-.29-.68-.44-.25-.16-.5-.33-.75-.5-.46-.31-.91-.63-1.36-.95-.57-.41-1.14-.83-1.71-1.26-.74-.55-1.47-1.11-2.2-1.68l-.15-.11-.18 2.57c-.04.47-.07.93-.11 1.4-.13 1.51-.29 3.01-.48 4.51-.2 1.53-.45 3.05-.73 4.57-.42 2.24-.86 4.49-1.3 6.73zm-1.9-13.5c.15-1.34.27-2.68.37-4.02.08-1.12.15-2.25.23-3.38l.06-.68c.04-.46.09-.92.17-1.38.07-.42.18-.85.36-1.24.05-.11.11-.21.18-.32l.08-.27.68-.68.68-.27c.17-.02.35-.05.52-.05.12 0 .24.02.36.04.3.06.58.19.84.34l6.76 4c-.44-2.11-1-4.2-1.62-6.26-.54-1.78-1.12-3.55-1.74-5.3l-.06-.16-1.39-3.82 10.04 2.51 1.67.42c-1.08-2-2.15-4-3.23-5.99l-3.71-6.91c4.27.51 8.54 1.01 12.81 1.51l5.5.65c-.21-.59-.41-1.18-.61-1.77-.35-1.02-.69-2.05-1.01-3.07-.25-.79-.49-1.58-.72-2.38-.19-.63-.36-1.26-.52-1.9-.11-.41-.21-.83-.3-1.24-.08-.34-.14-.67-.2-1-.04-.21-.07-.42-.1-.62l-.06-.45c-.09-.87-.09-1.81.35-2.59.07-.12.14-.23.23-.34.09-.12.2-.23.32-.33.17-.15.37-.28.57-.37.22-.09.44-.16.67-.19.14-.02.17-.01.3-.02.15 0 .29.01.45.01.6.02 1.21.06 1.81.09l2.21.15c2.07.15 4.14.31 6.22.47l.26.02c-.19-.36-.37-.72-.55-1.08l-.54-1.11c-.57-1.19-1.12-2.39-1.65-3.6-1.2-2.78-2.26-5.61-3.19-8.49-1.59-4.97-2.73-10.07-3.4-15.24-.49-3.72-.73-7.47-.74-11.22-.01-3.92.23-7.84.67-11.74.18-1.52.38-3.03.62-4.54 1.76-11.4 5.14-22.49 8.85-33.39.66-1.94 1.33-3.87 2-5.8 1.13-3.21 2.26-6.42 3.39-9.64.78-2.24 1.56-4.49 2.32-6.74.43-1.26.85-2.53 1.26-3.8l-1.32 1.65c-6.28 7.91-12.19 16.11-17.71 24.57-4.03 6.17-7.86 12.48-11.43 18.93-2.74 4.96-5.33 10-7.75 15.13-1.88 3.99-3.65 8.04-5.3 12.15-1.31 3.26-2.53 6.55-3.67 9.88-.82 2.43-1.6 4.87-2.32 7.33-.54 1.85-1.05 3.71-1.53 5.57-.44 1.7-.84 3.42-1.22 5.14-2.48 11.3-3.66 22.93-2.82 34.49.14 2.04.35 4.08.63 6.11.38 2.82.89 5.62 1.53 8.4.65 2.79 1.43 5.56 2.35 8.29.52 1.53 1.08 3.04 1.68 4.55.14.33.27.66.41.99zm11.58-6.34l-.15-.85-.02-.1-.27.63c.14.11.29.21.44.32zM1866.176 961.38s4.875 35.02-14.183 45.212c-3.104 2.217-15.07 6.21-13.3 13.3 2.217 9.75 7.533 7.98 15.07 6.205 19.947-3.546 42.997-46.1 12.413-64.717z" fill="#9CA69C" fill-rule="nonzero"/><path d="M1846 1029.57c-.31 0-.63-.01-.95-.04-.64-.05-1.27-.16-1.89-.34-.53-.16-1.04-.37-1.52-.64-.34-.19-.68-.42-.99-.66-.23-.18-.44-.37-.65-.58-1.3-1.28-2.13-2.96-2.71-4.68-.09-.28-.18-.57-.27-.87-.11-.38-.21-.77-.3-1.16-.05-.18-.09-.36-.12-.53-.06-.3-.11-.59-.14-.88-.06-.71-.03-1.44.11-2.14.15-.77.41-1.51.77-2.2.85-1.64 2.16-2.98 3.59-4.12 1.71-1.37 3.63-2.47 5.57-3.5.83-.44 1.67-.87 2.5-1.31.23-.12.46-.24.68-.36.32-.18.63-.36.94-.55.05-.04.05-.04.11-.08l.16-.11c.18-.1.35-.19.52-.29.9-.51 1.76-1.09 2.57-1.75.52-.41 1.01-.85 1.47-1.31 2.73-2.698 4.65-6.116 5.99-9.687.19-.51.37-1.026.54-1.545.25-.746.47-1.498.68-2.256.24-.913.46-1.833.65-2.758.26-1.225.47-2.458.64-3.697.23-1.576.39-3.16.5-4.746.15-2.06.21-4.126.2-6.192-.01-1.655-.07-3.31-.17-4.963-.08-1.257-.19-2.513-.34-3.763l-.02-.114-.59-4.427c1.37.837 2.74 1.666 4.1 2.51 1.03.643 2.03 1.326 2.99 2.06 1.85 1.404 3.56 2.986 5.082 4.74 1.49 1.72 2.79 3.604 3.86 5.616.74 1.407 1.37 2.874 1.88 4.383.37 1.097.68 2.216.92 3.35.18.843.33 1.694.44 2.55.73 5.537.04 11.2-1.59 16.523-.27.882-.57 1.758-.89 2.618-.4 1.08-.84 2.15-1.31 3.2-.62 1.36-1.29 2.69-2.02 3.99-.99 1.76-2.09 3.48-3.29 5.12-1.66 2.28-3.52 4.42-5.56 6.36-1.56 1.47-3.23 2.83-5.02 4.01-2.17 1.43-4.52 2.62-7.02 3.34-.56.16-1.13.29-1.71.41l-.13.02-.07.01c-.78.19-1.57.38-2.35.56-1.71.4-3.44.77-5.2.86-.21.01-.42.02-.64.02zm-.01-4.17c1.03-.01 2.05-.17 3.06-.36 1.18-.24 2.36-.53 3.53-.81l.76-.17c.15-.03.31-.06.47-.09l.51-.12c2.58-.64 4.98-1.89 7.15-3.41 1.66-1.16 3.19-2.49 4.62-3.93 1.54-1.55 2.96-3.22 4.25-4.99 1.16-1.59 2.22-3.26 3.17-4.98.72-1.29 1.37-2.61 1.962-3.97.46-1.06.89-2.14 1.27-3.237.27-.794.53-1.597.75-2.407 1.46-5.152 1.93-10.657.83-15.925-.16-.782-.36-1.558-.59-2.324-.33-1.06-.72-2.098-1.18-3.107-.66-1.463-1.47-2.86-2.39-4.17-.99-1.396-2.12-2.69-3.35-3.878-.68-.655-1.4-1.275-2.13-1.866l-.03-.02c.02.316.04.634.05.952.02.334.04.668.05 1.002.09 2.4.09 4.804-.01 7.204-.08 1.874-.22 3.746-.44 5.61-.16 1.398-.37 2.792-.62 4.178-.18 1-.39 1.998-.62 2.99-.2.833-.42 1.662-.66 2.485-1.33 4.556-3.35 8.984-6.42 12.644-.45.53-.92 1.05-1.41 1.55-.69.69-1.41 1.34-2.18 1.94-1.03.82-2.14 1.55-3.3 2.18l.01-.01c-.1.06-.2.13-.3.2-.14.09-.28.17-.43.26-.38.23-.78.44-1.17.65-.82.43-1.64.86-2.46 1.28-1.09.58-2.17 1.17-3.21 1.83-.74.47-1.45.96-2.13 1.51-.49.4-.95.82-1.37 1.29-.37.41-.7.85-.96 1.33-.31.59-.49 1.23-.47 1.89.01.17.02.34.05.51l.12.53c.09.38.2.77.31 1.15.08.28.17.56.28.84.07.2.14.39.23.59.07.17.15.35.23.52.4.81.94 1.61 1.72 2.09.15.09.3.17.46.24.53.22 1.11.3 1.68.33h.31z" fill="#9CA69C" fill-rule="nonzero"/><path d="M1825 984.167c4.143 0 7.5 3.36 7.5 7.5 0 4.142-3.357 7.5-7.5 7.5-4.14 0-7.5-3.358-7.5-7.5 0-4.14 3.36-7.5 7.5-7.5" fill="#fff" fill-rule="nonzero"/><path d="M1802.347 1020.776c-4.875 3.99-30.583 30.587-5.32 40.337 26.154-7.09 19.062-11.966 24.824-17.73.15-11.966-13.003-15.07-19.503-22.607z" fill="#D91F26" fill-rule="nonzero"/><path d="M1796.91 1063.3c-.42-.16-.84-.32-1.26-.49-.45-.19-.89-.38-1.33-.58-1.63-.76-3.19-1.67-4.6-2.79-1.16-.91-2.21-1.97-3.08-3.17-.57-.8-1.06-1.65-1.46-2.54-.29-.66-.53-1.34-.71-2.04-.14-.53-.25-1.08-.33-1.63-.45-3.18.16-6.42 1.23-9.41.17-.5.37-1 .57-1.49.23-.56.48-1.12.75-1.67.36-.76.75-1.5 1.16-2.24.52-.93 1.08-1.85 1.66-2.75.77-1.19 1.58-2.35 2.43-3.48 1.16-1.54 2.38-3.02 3.66-4.46.91-1.02 1.85-2.02 2.82-2.99.75-.75 1.52-1.48 2.33-2.18l.14-.12 1.69-1.39 1.48 1.69c.33.37.67.73 1.03 1.07 1.14 1.12 2.41 2.11 3.7 3.05 1.39 1.02 2.82 1.99 4.23 2.98l1.03.73c1.86 1.36 3.68 2.79 5.25 4.48 1.02 1.08 1.92 2.26 2.65 3.56.72 1.28 1.26 2.66 1.59 4.09.27 1.22.39 2.47.39 3.72l-.01 1c-.25.26-.51.51-.76.77-.05.06-.1.11-.15.16-.35.4-.67.82-.95 1.27-.32.54-.57 1.1-.81 1.67-.21.52-.41 1.04-.63 1.56-.23.55-.47 1.09-.76 1.62-.36.67-.78 1.3-1.26 1.89-1.01 1.24-2.25 2.27-3.58 3.15-1.56 1.03-3.24 1.87-4.96 2.61-.89.39-1.79.75-2.7 1.09-1.21.46-2.43.88-3.66 1.27-1.63.53-3.27 1.01-4.91 1.48l-1.88.51zm.24-4.38c2.23-.62 4.46-1.28 6.65-2.03 1.77-.61 3.53-1.27 5.24-2.04 1.24-.56 2.45-1.19 3.59-1.93.97-.63 1.9-1.36 2.64-2.25.41-.48.75-1.01 1.04-1.57.25-.49.46-1 .66-1.51l.42-1.05c.08-.19.16-.38.25-.57.28-.63.59-1.24.95-1.83.35-.55.74-1.07 1.16-1.56 0-.14-.01-.27-.02-.4-.07-.85-.22-1.7-.47-2.51-.14-.45-.3-.88-.49-1.31-1.01-2.22-2.73-4.03-4.58-5.58-.29-.25-.59-.49-.89-.72-.43-.34-.87-.68-1.31-1-.59-.43-1.18-.85-1.77-1.27-.82-.57-1.64-1.14-2.45-1.71-.35-.24-.69-.48-1.03-.73-.97-.7-1.92-1.41-2.83-2.17-.58-.49-1.14-.99-1.68-1.5-.16.15-.32.3-.48.46-1.49 1.46-2.91 3-4.25 4.59-.99 1.17-1.94 2.38-2.84 3.62-.74 1.02-1.44 2.06-2.1 3.12-.52.83-1.01 1.67-1.46 2.54-.36.66-.69 1.33-.99 2.02-.25.54-.48 1.1-.69 1.65-.15.43-.3.85-.44 1.28-.11.36-.21.72-.3 1.09-.4 1.56-.61 3.18-.48 4.79.04.48.11.95.21 1.42.06.28.14.56.22.83.13.4.28.79.46 1.17.29.6.63 1.17 1.03 1.7.64.86 1.42 1.62 2.27 2.28 1.44 1.13 3.07 1.98 4.76 2.68z" fill="#030404" fill-rule="nonzero"/><path d="M1858.197 1272.114c-1.33 5.762-7.09 27.037.888 43.437 22.162-9.303 32.358-6.65 39.896-1.77-18.17-14.63-25.266-20.833-40.783-41.666z" fill="#9CA69C" fill-rule="nonzero"/><path d="M1904.782 1319.98c-2.42-1.56-4.84-3.12-7.27-4.67-.17-.1-.34-.21-.51-.31-.68-.41-1.38-.8-2.1-1.15-1.13-.56-2.3-1.02-3.5-1.38-1.89-.58-3.86-.9-5.85-1.01-2.39-.12-4.8.05-7.17.4-2.66.39-5.29 1.02-7.87 1.77-2.42.71-4.8 1.54-7.15 2.44-.99.38-1.98.78-2.96 1.19l-2.34.97c-.35-.73-.7-1.45-1.05-2.18-.09-.2-.19-.41-.28-.62-.55-1.22-1.04-2.48-1.46-3.75-1.65-5-2.34-10.28-2.41-15.54-.01-.96 0-1.91.02-2.87.04-1.33.11-2.65.22-3.97.12-1.5.28-2.99.48-4.48.25-1.88.56-3.75.91-5.61.24-1.27.51-2.53.79-3.8.24-1.06.5-2.13.75-3.19l.07-.3 1.08-4.65c1.37 1.84 2.73 3.67 4.11 5.5 3.66 4.86 7.42 9.66 11.43 14.24 1.87 2.13 3.8 4.22 5.79 6.23 1.65 1.67 3.35 3.3 5.08 4.88 2.46 2.25 4.98 4.43 7.54 6.57 2.48 2.06 4.98 4.09 7.49 6.12l8.07 6.51c-.63.89-1.27 1.77-1.91 2.66zm-44.63-7.12c.41-.17.81-.32 1.21-.48.34-.13.67-.26 1-.39.65-.24 1.3-.48 1.95-.71 2.22-.8 4.47-1.52 6.75-2.13 1.84-.49 3.71-.91 5.59-1.24 3.74-.64 7.58-.88 11.36-.4-.31-.26-.61-.52-.91-.77-2.25-1.9-4.47-3.83-6.63-5.82-2.37-2.19-4.68-4.45-6.9-6.79-5.09-5.37-9.73-11.14-14.22-17.02l-.13-.18c-.27 1.21-.52 2.43-.75 3.65-.53 2.87-.94 5.77-1.19 8.68-.22 2.66-.31 5.33-.23 8 .13 3.97.66 7.95 1.77 11.77.29 1.03.63 2.04 1.02 3.04.1.26.2.52.31.79zM2021.764 1378.94s-31.917-77.13-113.475-96.635c-81.564-19.504-70.926-106.383-64.276-111.704 3.546-7.537 6.204-19.057 29.696-7.974 23.496 11.08 131.654 65.6 147.167 68.258 15.516 2.663 2.216 149.83.887 148.055z" fill="#9CA69C" fill-rule="nonzero"/><path d="M2021.722 1381.05c-.31-.05-.56-.06-.84-.2-.36-.18-.67-.44-.9-.77-.08-.12-.11-.26-.16-.39-.07-.16-.1-.24-.18-.41-.12-.28-.25-.56-.37-.83-.98-2.15-2.04-4.27-3.14-6.37-1.24-2.37-2.55-4.7-3.91-7.01-3.74-6.36-7.85-12.49-12.3-18.37-8.55-11.31-18.35-21.71-29.29-30.74-5.04-4.16-10.32-8.04-15.82-11.57-5.74-3.68-11.72-6.99-17.9-9.88-6.3-2.96-12.81-5.48-19.45-7.53-2.27-.71-4.55-1.36-6.85-1.95-1.25-.33-2.52-.63-3.78-.94l-.96-.24c-1.1-.28-2.2-.58-3.29-.89-2.56-.74-5.09-1.56-7.58-2.48-6.43-2.37-12.62-5.37-18.38-9.08-5.46-3.51-10.51-7.64-14.99-12.33-2.69-2.83-5.18-5.86-7.43-9.04-1.32-1.86-2.56-3.78-3.72-5.75-6.05-10.23-9.87-21.7-11.72-33.42-.34-2.14-.61-4.29-.82-6.45-.45-4.75-.59-9.52-.39-14.28.08-1.91.21-3.81.42-5.71.19-1.78.43-3.56.76-5.32.2-1.08.43-2.15.7-3.21.25-.99.53-1.96.88-2.92.21-.58.45-1.15.72-1.71.33-.67.72-1.31 1.22-1.86l.04-.04c.39-.86.77-1.72 1.15-2.58.15-.33.3-.66.46-.98.39-.82.79-1.63 1.25-2.41.68-1.18 1.46-2.29 2.38-3.29.7-.74 1.48-1.41 2.33-1.97.56-.37 1.15-.7 1.77-.98.43-.19.87-.36 1.32-.5 2.53-.81 5.24-.84 7.85-.48.39.06.79.12 1.17.19.55.1 1.1.22 1.64.34.65.16 1.3.33 1.94.51.86.25 1.71.53 2.54.83 1.19.41 2.36.87 3.51 1.36.73.31 1.45.62 2.16.95.67.31 1.34.63 2 .94 1.95.93 3.89 1.87 5.83 2.81 2.49 1.21 4.98 2.42 7.47 3.64 3.77 1.84 7.52 3.68 11.28 5.52 5.24 2.57 10.47 5.14 15.7 7.7 2.83 1.38 5.66 2.76 8.49 4.15 11.35 5.53 22.71 11.05 34.1 16.49 9.35 4.47 18.72 8.9 28.15 13.21 3.67 1.68 7.35 3.35 11.04 4.98 3.32 1.46 6.65 2.9 10 4.29 2.35.98 4.72 1.93 7.11 2.81.98.36 1.96.71 2.95 1.03.81.27 1.64.52 2.47.72.19.05.37.09.56.13l.48.09c.09.02.17.04.25.06.26.07.52.17.78.28.15.07.29.15.43.23 1.2.71 2.06 1.86 2.72 3.06.11.21.21.41.31.62.38.79.69 1.61.97 2.44.31.94.57 1.9.8 2.87.3 1.25.55 2.52.77 3.8.18 1.06.34 2.13.48 3.2.2 1.56.37 3.12.52 4.69.18 1.94.33 3.88.45 5.82.16 2.59.27 5.19.35 7.79.12 3.59.17 7.19.19 10.79.03 7.26-.1 14.51-.32 21.76-.26 8.63-.65 17.24-1.14 25.85-.48 8.48-1.05 16.96-1.72 25.42-.37 4.82-.78 9.63-1.23 14.45-.34 3.57-.69 7.14-1.1 10.7-.08.71-.17 1.42-.26 2.13-.06.5-.13.99-.2 1.49-.04.33-.09.67-.14 1-.04.28-.09.55-.14.83-.03.17-.06.34-.1.51-.1.53-.23 1.08-.56 1.52-.06.08-.12.16-.19.23-.1.1-.2.19-.31.27-.39.26-.44.24-.87.35l-.41.03zm-.94-9.04c.4-3.47.75-6.94 1.07-10.41.36-3.84.69-7.69 1-11.54.81-9.94 1.48-19.9 2.03-29.86.57-10.28 1.01-20.57 1.23-30.87.09-4.67.15-9.34.14-14-.01-3.83-.07-7.66-.19-11.48-.08-2.33-.18-4.67-.31-7-.1-1.72-.22-3.43-.37-5.14-.24-2.86-.56-5.72-1.03-8.55-.19-1.13-.4-2.25-.66-3.37-.22-.99-.48-1.97-.8-2.93-.17-.54-.37-1.07-.6-1.58-.19-.44-.41-.87-.66-1.27-.16-.25-.34-.49-.55-.71-.12-.12-.27-.25-.43-.32-.11-.05-.23-.06-.35-.08-.23-.05-.23-.05-.45-.1-1.33-.29-2.62-.7-3.91-1.13-1.34-.45-2.67-.94-3.99-1.45-3.46-1.32-6.87-2.75-10.27-4.2-4.71-2.03-9.39-4.12-14.06-6.24-4.96-2.26-9.89-4.55-14.82-6.86-10.84-5.08-21.63-10.25-32.41-15.47-17.05-8.25-34.05-16.61-51.06-24.94-2.01-.98-4.01-1.96-6.02-2.94-2.22-1.08-4.44-2.16-6.66-3.23-.89-.43-1.78-.86-2.67-1.28-.57-.27-1.13-.54-1.7-.8-1.23-.57-2.48-1.12-3.75-1.61-.95-.38-1.92-.73-2.9-1.05-.74-.24-1.48-.46-2.22-.65-.55-.15-1.1-.28-1.66-.39-.45-.09-.9-.17-1.35-.23-.37-.06-.74-.1-1.1-.14-1.95-.18-3.98-.07-5.8.69-.28.12-.55.25-.82.4-.45.26-.88.56-1.29.89-1.08.92-1.93 2.08-2.64 3.31-.56.97-1.05 1.99-1.51 3.02-.34.74-.66 1.49-1 2.24-.09.19-.17.38-.26.56l-.28.61c-.13.11-.27.2-.39.32-.1.1-.17.22-.24.33-.1.15-.19.31-.27.48-.25.5-.46 1.02-.64 1.55-.3.85-.54 1.72-.76 2.6-.27 1.1-.5 2.21-.69 3.32-.25 1.44-.44 2.9-.6 4.35-.21 1.96-.34 3.92-.42 5.89-.18 4.78 0 9.57.51 14.32.21 2 .48 3.99.81 5.97 1.81 10.91 5.42 21.58 11.05 31.12 1.11 1.87 2.29 3.69 3.54 5.46 2.2 3.12 4.64 6.07 7.29 8.82 4.28 4.44 9.1 8.35 14.3 11.67 5.42 3.44 11.23 6.24 17.25 8.46 2.4.88 4.83 1.68 7.29 2.38 1.21.35 2.42.67 3.64.98.95.24 1.9.47 2.85.7 1.59.4 3.17.82 4.75 1.26 2.93.83 5.84 1.75 8.71 2.74 7.36 2.56 14.51 5.66 21.4 9.28 5.46 2.87 10.75 6.06 15.84 9.53 4.7 3.21 9.23 6.66 13.58 10.32 9.74 8.19 18.57 17.43 26.43 27.43 3.52 4.47 6.85 9.1 9.97 13.86 2.4 3.66 4.67 7.4 6.81 11.21.72 1.29 1.42 2.58 2.11 3.88.32.62.65 1.24.96 1.87z" fill="#030404" fill-rule="nonzero"/><path d="M1944.193 1281.864c-1.33.887 109.042 65.158 75.796 120.566 31.478-20.833 21.278-57.18 21.278-57.18s25.71 66.934-36.79 99.74c6.65 5.76 11.082 4.428 11.082 4.428l-10.642 10.642s-4.875 7.975 37.238-12.417c-11.53 9.312-12.413 15.958-12.413 15.958s3.1 8.868 30.588-15.07c-22.166 23.938-27.04 36.35-27.04 35.905 59.84-5.32 190.162-199.913-41.222-257.538 12.413 12.858 10.634 11.083 10.634 11.083l-58.51 43.884z" fill="#D91F26" fill-rule="nonzero"/><path d="M2032.692 1486.56l-1.06-.73-.37-.82-.31-2.46 1.04-.09.42-.81c.17-.29.33-.58.49-.88 1.62-2.89 3.41-5.69 5.29-8.42 2.3-3.34 4.74-6.59 7.27-9.77l.12-.15c-.31.19-.63.38-.94.57-.26.16-.52.31-.78.46-.89.51-1.79 1-2.7 1.45-.73.37-1.47.71-2.23 1.01-.6.25-1.21.47-1.83.67-.43.13-.85.25-1.28.35-.32.07-.63.14-.95.19-1.47.24-3.03.25-4.43-.3-.19-.08-.37-.16-.54-.25-.24-.13-.47-.27-.69-.44-.25-.18-.48-.39-.68-.62-.29-.33-.53-.7-.7-1.1l-.23-.57c.03-.24.06-.47.1-.71.03-.14.06-.28.1-.42.16-.66.39-1.3.65-1.93.27-.65.57-1.28.91-1.9.79-1.48 1.74-2.87 2.76-4.19l.04-.05c-.7.32-1.41.64-2.11.95l-1.47.66c-1.76.77-3.53 1.54-5.31 2.28-1.48.61-2.97 1.21-4.46 1.78-1.22.47-2.45.92-3.69 1.35-.88.3-1.77.59-2.66.86-.73.21-1.46.42-2.19.59-.52.13-1.04.24-1.56.33-.3.06-.6.1-.9.14l-.61.06c-.19.01-.38.02-.57.02-.93.02-1.91-.11-2.7-.64-.12-.08-.24-.18-.35-.28-.16-.14-.31-.31-.43-.49-.15-.22-.27-.46-.35-.71-.11-.33-.15-.68-.14-1.03.02-.51.18-1 .42-1.45l.16-.29 7.67-7.67c-.14-.04-.29-.09-.44-.14-.53-.17-1.06-.38-1.57-.6-1.48-.66-2.86-1.52-4.16-2.49-.5-.38-.99-.77-1.46-1.18l-2.48-2.13c1.14-.6 2.28-1.2 3.42-1.81l1.05-.57c2.57-1.42 5.08-2.94 7.51-4.6 3.82-2.6 7.43-5.51 10.74-8.73 3.47-3.39 6.59-7.12 9.27-11.15 2.75-4.13 5.03-8.57 6.79-13.21 1.79-4.69 3.05-9.58 3.84-14.54.76-4.86 1.07-9.79.98-14.7-.03-2.03-.14-4.06-.3-6.08l-.01-.08c-.05.31-.1.63-.16.94-.06.3-.12.59-.17.89-.19.91-.39 1.81-.62 2.71-.42 1.66-.92 3.3-1.51 4.91-1.29 3.59-2.98 7.04-5.05 10.24-2.21 3.41-4.84 6.55-7.79 9.34-1.5 1.41-3.08 2.73-4.72 3.97-.78.58-1.57 1.14-2.37 1.69l-.18.12-.19.13-6.92 4.59-.34-.33 4.31-7.25c.6-1.02 1.16-2.06 1.68-3.12 1.03-2.11 1.88-4.3 2.54-6.56.62-2.15 1.06-4.36 1.3-6.58.17-1.47.25-2.94.25-4.41 0-1.05-.04-2.1-.12-3.15-.51-6.92-2.67-13.63-5.65-19.87-.5-1.05-1.02-2.09-1.57-3.12-.67-1.25-1.37-2.49-2.1-3.71-.99-1.67-2.04-3.3-3.12-4.9-1.32-1.95-2.7-3.85-4.12-5.71-1.84-2.4-3.76-4.74-5.75-7.02-2.58-2.97-5.28-5.85-8.06-8.64-3.53-3.57-7.19-6.99-10.95-10.32-5.04-4.46-10.26-8.73-15.59-12.84-4.09-3.15-8.25-6.21-12.46-9.2-1.47-1.03-2.94-2.07-4.42-3.09-1.48-1.03-2.97-2.05-4.46-3.08-.39-.28-.79-.56-1.18-.84-.22-.15-.43-.3-.65-.46-.13-.1-.26-.19-.4-.3-.15-.11-.3-.23-.44-.35-.3-.26-.59-.54-.77-.89-.04-.08-.07-.15-.1-.23-.05-.11-.09-.23-.11-.35-.03-.16-.06-.33-.05-.49.01-.21.03-.43.1-.63.2-.57.31-.6.68-.94l56.73-42.54c-1.67-1.74-3.34-3.47-5-5.2-3.02-3.14-6.05-6.27-9.07-9.4 2.8.7 5.6 1.4 8.41 2.1 2.23.57 4.45 1.15 6.67 1.76 5.09 1.39 10.16 2.89 15.19 4.51 5.67 1.84 11.29 3.84 16.84 6.02 4.11 1.62 8.19 3.35 12.21 5.18 3.16 1.44 6.28 2.95 9.36 4.54 2.18 1.12 4.33 2.28 6.47 3.48 1.92 1.09 3.82 2.2 5.7 3.34 12.3 7.5 23.77 16.52 33.32 27.34 1.69 1.91 3.31 3.87 4.87 5.88 2.05 2.67 3.99 5.42 5.79 8.26 2.46 3.88 4.67 7.92 6.59 12.09 2.5 5.41 4.51 11.04 6.02 16.81 1.05 4.05 1.86 8.16 2.42 12.31.38 2.85.65 5.71.81 8.58.41 7.43.06 14.89-.92 22.26-.71 5.32-1.75 10.59-3.08 15.8-.82 3.21-1.75 6.39-2.79 9.53-.78 2.39-1.62 4.75-2.52 7.09-1.05 2.76-2.18 5.5-3.38 8.2-1.65 3.71-3.44 7.36-5.34 10.95-2.61 4.91-5.45 9.69-8.5 14.33-3.98 6.08-8.34 11.92-13.04 17.46-2.5 2.94-5.1 5.8-7.8 8.56-2.57 2.62-5.24 5.15-8 7.57-2.6 2.27-5.29 4.45-8.08 6.49-2.19 1.6-4.45 3.13-6.77 4.55-3.62 2.21-7.4 4.17-11.37 5.69-2.62 1-5.32 1.81-8.09 2.31-.82.14-1.65.26-2.48.35l-.15.02-.08.03-1.11.06zm4.47-4.84c3.51-.79 6.89-2.08 10.14-3.63 3.67-1.76 7.18-3.86 10.54-6.17 2.24-1.54 4.42-3.18 6.54-4.89 2.54-2.06 5-4.22 7.39-6.46 5.3-5.01 10.23-10.42 14.78-16.12 4.36-5.44 8.39-11.15 12.06-17.07 2.65-4.27 5.11-8.64 7.38-13.12 1.7-3.34 3.29-6.75 4.76-10.2 1.13-2.66 2.19-5.34 3.17-8.05.72-1.98 1.4-3.98 2.03-5.99 3.57-11.29 5.8-23.04 6.18-34.88.07-2.1.08-4.2.03-6.29-.06-2.32-.19-4.64-.39-6.95-.28-3.09-.7-6.17-1.25-9.23-.79-4.3-1.86-8.56-3.21-12.72-1.98-6.08-4.56-11.96-7.69-17.53-1.73-3.09-3.63-6.08-5.67-8.97-1.53-2.17-3.15-4.29-4.84-6.34-1.25-1.52-2.54-3-3.86-4.45-8.58-9.37-18.64-17.31-29.39-24.04-1.53-.95-3.07-1.88-4.62-2.79-2.04-1.19-4.11-2.34-6.19-3.46-2.95-1.57-5.94-3.08-8.97-4.51-3.86-1.84-7.79-3.56-11.75-5.18-5.16-2.12-10.39-4.06-15.67-5.85-4.43-1.51-8.9-2.91-13.39-4.22-2.14-.62-4.27-1.22-6.42-1.8l-.16-.04c1.24 1.28 2.47 2.56 3.7 3.84.5.53 1 1.05 1.51 1.58.12.14.25.27.37.4l.07.07c.17.22.16.22.32.45l2.13 6.37-4.08-2.91-55.11 41.34c1.04.73 2.08 1.45 3.13 2.17.86.59 1.71 1.19 2.57 1.78l2.19 1.53c2.6 1.83 5.18 3.68 7.74 5.56 3.96 2.93 7.88 5.93 11.72 9.02 4.95 3.97 9.78 8.1 14.45 12.4 3.51 3.23 6.92 6.57 10.21 10.02 2.51 2.64 4.94 5.36 7.28 8.15 1.82 2.18 3.59 4.41 5.27 6.69 1.29 1.74 2.53 3.52 3.72 5.33.97 1.47 1.9 2.96 2.79 4.48.69 1.17 1.35 2.36 1.99 3.57 3.44 6.52 6.08 13.54 7.15 20.86.15 1.03.27 2.07.35 3.1.11 1.39.16 2.77.15 4.16-.01 1.98-.16 3.95-.44 5.9-.28 2-.71 3.97-1.27 5.9-.27.93-.57 1.85-.9 2.77l-.01.01c2.81-2.61 5.31-5.56 7.39-8.78 2.55-3.94 4.46-8.27 5.72-12.79 1.48-5.3 2.08-10.82 1.94-16.31-.06-2.2-.23-4.4-.53-6.58-.11-.84-.24-1.68-.4-2.52-.14-.78-.31-1.56-.5-2.33l-.03-.11-2.17-8.06 3.2-1.03c.99 2.64 2 5.28 2.98 7.93.1.26.2.53.29.8.9 2.65 1.64 5.36 2.28 8.08.85 3.63 1.5 7.31 1.96 11.01.98 7.93 1.06 15.99.01 23.92-.6 4.55-1.57 9.06-2.96 13.43-1.43 4.53-3.29 8.91-5.58 13.07-2.13 3.84-4.61 7.48-7.4 10.87-3.84 4.66-8.26 8.82-13.07 12.47-2.14 1.63-4.36 3.15-6.64 4.58-1.26.79-2.53 1.55-3.81 2.28l-.08.04c1.39.91 2.91 1.68 4.55 2.02.43.09.86.15 1.29.16.29.01.59 0 .87-.05l7.71-2.21-14 14c.86-.18 1.71-.41 2.56-.67.97-.29 1.94-.61 2.9-.94 2.53-.88 5.02-1.87 7.5-2.9 2.49-1.04 4.96-2.12 7.43-3.23 3.75-1.69 7.46-3.44 11.17-5.22l8.31-4.02 1.21 1.9c-2.28 1.86-4.57 3.7-6.85 5.56-1.71 1.42-3.36 2.91-4.89 4.52-.97 1.02-1.9 2.08-2.76 3.2-.64.85-1.25 1.73-1.8 2.65-.56.93-1.05 1.9-1.42 2.92v.02c.33.11.7.13 1.05.13.53 0 1.05-.08 1.57-.2.78-.17 1.55-.42 2.3-.71 1-.39 1.98-.85 2.94-1.34 1.33-.7 2.63-1.46 3.9-2.27 1.56-.99 3.08-2.04 4.57-3.13 3.43-2.5 6.71-5.19 9.92-7.96l.32-.28 6.53-5.67 2.27 2.34c-2.2 2.38-4.41 4.76-6.6 7.15-.5.54-.99 1.08-1.49 1.63-4.36 4.83-8.59 9.79-12.56 14.96-1.38 1.79-2.74 3.62-4.05 5.47-1.33 1.88-2.62 3.79-3.85 5.75-.38.59-.74 1.19-1.11 1.79-.21.36-.42.71-.62 1.07z" fill="#030404" fill-rule="nonzero"/><path d="M1949.068 1262.8c15.07 10.64 20.388 14.184 22.163 19.505-13.74-3.1-26.153-2.216-26.153-2.216s-29.696-28.368-35.017-30.585c-3.992 0-27.038-14.63-27.038-14.63-11.525-5.762-22.162-45.653 20.392-34.132 43.88 20.833 50.083 22.608 50.083 22.608 17.438 5.468 34.87 10.938 52.31 16.4 10.045 11.234 20.09 22.464 30.14 33.693 0 0-53.633-26.6-60.283-27.042 14.625 11.968 23.05 28.368 23.05 28.368-16.992-4.875-31.767-9.31-49.646-11.967z" fill="#fff" fill-rule="nonzero"/><path d="M1974.392 1285.15c-1.41-.32-2.83-.64-4.25-.95-.31-.07-.62-.14-.93-.2-1.13-.23-2.26-.44-3.39-.63-3.65-.6-7.34-.98-11.04-1.17-1.69-.09-3.37-.14-5.06-.14-1.4-.01-2.81.02-4.21.09l-.17.01-1.04.07c-.88-.84-1.75-1.67-2.63-2.5-3.73-3.53-7.48-7.04-11.27-10.51-2.99-2.75-6-5.47-9.05-8.16-1.29-1.14-2.6-2.28-3.92-3.4-1.05-.9-2.11-1.78-3.18-2.65-.87-.7-1.74-1.4-2.64-2.06-.35-.26-.7-.51-1.05-.75-.33-.22-.66-.44-1.01-.63l-.04-.02-.23-.03c-.1-.02-.19-.04-.28-.06-.69-.15-1.36-.39-2.01-.65-.77-.3-1.52-.64-2.26-.99-.87-.41-1.73-.84-2.59-1.29-1.14-.59-2.27-1.21-3.4-1.83-2.76-1.54-5.49-3.13-8.2-4.76-2.81-1.68-5.6-3.39-8.37-5.14l-.18-.11c-.12-.06-.12-.07-.24-.13-.17-.09-.16-.09-.33-.19-.28-.16-.55-.34-.81-.52-1.05-.75-1.99-1.64-2.84-2.6-1.17-1.34-2.17-2.83-3.04-4.38-.7-1.24-1.31-2.54-1.83-3.86-.42-1.07-.79-2.15-1.1-3.25-.24-.87-.45-1.75-.62-2.64-.12-.65-.22-1.3-.3-1.95-.27-2.27-.28-4.58.1-6.84.38-2.27 1.17-4.49 2.44-6.42.43-.66.92-1.29 1.45-1.87.76-.82 1.61-1.56 2.53-2.19.41-.28.84-.54 1.27-.77 3.01-1.67 6.47-2.34 9.89-2.47.62-.03 1.24-.03 1.85-.02.72.01 1.44.04 2.16.09.97.07 1.94.17 2.91.3 1.2.16 2.4.36 3.59.6 1.47.29 2.93.63 4.38 1.02l.25.06.43.12c2.04.96 4.07 1.92 6.1 2.88 9.04 4.27 18.1 8.51 27.21 12.61 3.36 1.52 6.73 3.02 10.12 4.46 1.2.51 2.4 1.02 3.6 1.51.93.37 1.86.75 2.81 1.07 4.39 1.45 8.82 2.77 13.23 4.15 8.71 2.74 17.43 5.47 26.15 8.2l13.63 4.27c7.66 8.57 15.32 17.14 22.98 25.7l12.93 14.45-.62.81c-2.86-1.41-5.72-2.83-8.58-4.24-1.21-.6-2.43-1.2-3.65-1.79-8.41-4.12-16.83-8.18-25.3-12.14-3.49-1.64-6.99-3.25-10.51-4.84-3.26-1.46-6.53-2.9-9.83-4.28l-.13-.05c.26.26.51.52.75.79.29.31.58.61.86.93.92 1.01 1.83 2.03 2.7 3.07 2.39 2.83 4.62 5.78 6.7 8.84.88 1.29 1.74 2.6 2.56 3.93.87 1.39 1.7 2.81 2.49 4.25l.12.24.08.15 2.26 4.36c-4.16-1.2-8.31-2.4-12.47-3.59-1.53-.43-3.06-.87-4.58-1.3-5-1.41-10-2.77-15.04-4-2.78-.68-5.57-1.32-8.37-1.91-1.53-.32-3.05-.63-4.58-.92.7.5 1.41 1 2.11 1.51 1.36.98 2.71 1.97 4.04 3 .75.57 1.5 1.16 2.23 1.77 1.09.9 2.15 1.83 3.14 2.84.98 1.01 1.89 2.11 2.62 3.31.33.54.62 1.1.87 1.67.13.29.24.57.35.86.44 1.26.85 2.53 1.28 3.8zm-7.24-5.78c-1.01-1.18-2.16-2.23-3.35-3.23-1.19-.99-2.41-1.93-3.65-2.86-1.4-1.05-2.83-2.08-4.27-3.11-1.76-1.26-3.53-2.51-5.3-3.75l-9.31-6.57.12-.31c3.09.47 6.17.92 9.25 1.39 2.6.41 5.2.85 7.79 1.35 3.93.74 7.84 1.59 11.73 2.52 8.12 1.94 16.14 4.23 24.16 6.54-.17-.28-.35-.56-.53-.84-.58-.92-1.17-1.83-1.78-2.73-1.98-2.92-4.11-5.74-6.37-8.45-2.42-2.9-5-5.66-7.76-8.22-1.04-.97-2.11-1.91-3.21-2.81l-5.44-4.49 6.7.53c.13.02.13.02.26.03.57.08 1.12.22 1.67.37.44.13.88.26 1.31.41 1.31.43 2.6.92 3.88 1.42 1.71.67 3.41 1.38 5.1 2.1 1.98.84 3.94 1.7 5.91 2.58 5.07 2.26 10.1 4.6 15.12 6.96 5.75 2.71 11.47 5.46 17.19 8.23l.9.44-15.48-17.31-7.16-7.99c-12.89-4.04-25.79-8.09-38.68-12.13-4.39-1.38-8.79-2.74-13.17-4.13-.16-.05-.16-.05-.32-.11-1.09-.39-2.16-.82-3.23-1.25-1.51-.62-3.01-1.26-4.5-1.9-3.72-1.61-7.43-3.26-11.12-4.94-4.39-1.99-8.77-4.01-13.15-6.04-5.93-2.77-11.85-5.56-17.77-8.37-.34-.09-.68-.17-1.02-.26-1.34-.34-2.7-.64-4.06-.9-1.08-.2-2.17-.37-3.27-.51-.86-.1-1.73-.18-2.61-.23-.68-.04-1.36-.06-2.05-.05-.58 0-1.16.02-1.73.06-.44.03-.88.07-1.32.12-2.57.31-5.17 1.07-7.26 2.64-.54.4-1.04.86-1.49 1.36-.32.35-.61.72-.88 1.11-.18.27-.35.55-.51.83-1.13 2.04-1.59 4.39-1.63 6.71-.01.4-.01.81.01 1.22.01.48.05.97.1 1.45.06.63.15 1.26.27 1.88.14.78.31 1.54.52 2.3.28 1.03.62 2.05 1.01 3.05.48 1.21 1.05 2.4 1.69 3.53.7 1.24 1.51 2.42 2.45 3.49.68.78 1.45 1.51 2.32 2.09.26.18.54.33.82.47.54.34 1.07.67 1.6 1.01 2.89 1.8 5.79 3.57 8.71 5.3 2.49 1.48 4.99 2.92 7.53 4.31.9.48 1.79.96 2.69 1.42.92.47 1.85.93 2.8 1.35.53.24 1.07.47 1.62.67.22.08.43.15.65.21.14.04.28.08.42.09l.43.01c.18.08.37.16.56.24.81.38 1.56.88 2.29 1.4 1 .7 1.97 1.46 2.92 2.22 1.31 1.04 2.59 2.11 3.87 3.2 1.33 1.13 2.65 2.28 3.97 3.44 3.57 3.15 7.08 6.35 10.58 9.57 3.75 3.46 7.47 6.95 11.17 10.46.35-.02.71-.03 1.06-.04 2.86-.07 5.72-.02 8.58.14 3.68.21 7.36.61 11 1.2.22.04.43.08.65.11zM1740.29 1024.767s51.42-12.412 57.624-10.637" fill="#030404" fill-rule="nonzero"/><path d="M1740.77 1026.79l-.97-4.05c1.13-.27 2.27-.54 3.41-.81 6.85-1.61 13.7-3.17 20.58-4.64 5.67-1.22 11.34-2.39 17.05-3.42 2.05-.38 4.12-.73 6.18-1.05 1.6-.25 3.2-.48 4.81-.66 1.26-.14 2.53-.26 3.8-.28.46-.01.91-.01 1.37.02.49.03.98.09 1.45.22l-1.08 4.02-.14-.03c-.08-.02-.16-.03-.24-.03-.47-.05-.94-.05-1.4-.03-.53.01-1.06.04-1.58.09-1.46.11-2.92.3-4.38.5-1.73.25-3.46.52-5.18.82-2.17.37-4.33.77-6.48 1.18-5.29 1.01-10.55 2.12-15.81 3.26-6.4 1.4-12.79 2.86-19.17 4.36-.74.18-1.48.35-2.22.53z" fill="#fff" fill-rule="nonzero"/></svg>