<svg viewBox="0 0 2500 1500" xmlns="http://www.w3.org/2000/svg" fill-rule="evenodd" clip-rule="evenodd" stroke-linejoin="round" stroke-miterlimit="1.414"><path fill="#D41F36" fill-rule="nonzero" d="M0 0h2500.002v750H0z"/><path fill="#0B9648" fill-rule="nonzero" d="M0 750h2500.002v750H0z"/><path d="M1194.45 884.21L0 1500V0l1194.45 615.792h1305.552V884.21h-1305.55z" fill="#030404"/><path d="M1171.47 789.472L0 1393.412V106.584l1171.46 603.94h1328.542v78.947h-1328.53z" fill="#FCCF10"/><path d="M0 1304.593L1075.743 750 0 195.41v1109.185z" fill="#030404" fill-rule="nonzero"/><path d="M303.896 893.484v85.463c74.35 0 220.263-56.975 220.263-240.41 0-183.437-155.643-217.487-202.197-217.487S131.58 554.405 131.58 704.488c0 150.084 141.05 163.984 168.84 163.984 27.793 0 132.022-25.017 120.21-137.58 0 31.963-36.13 99.363-111.87 99.363-75.74 0-122.985-56.284-122.985-111.867 0-55.592 45.86-129.938 125.763-129.938 79.904 0 138.27 70.87 138.27 142.442 0 71.567-56.28 162.592-145.912 162.592" fill="#FCCF10" fill-rule="nonzero"/><path d="M293.045 707.145c1.392-1.47 2.796-2.927 4.212-4.372-.04-1.905-.034-4.512.152-7.317-1.15-.61-2.092-1.264-2.746-1.96.063 4.027-.875 9.772-1.62 13.65zm41.54 0c-.742-3.877-1.68-9.623-1.617-13.648-.655.695-1.597 1.348-2.745 1.96.186 2.804.192 5.41.152 7.315 1.415 1.446 2.82 2.903 4.21 4.372zm-32.658-.264c2.387-.71 5.427-1.555 8.192-2.135.345-.687 1.763-.81 3.696-.612 1.932-.2 3.35-.075 3.696.612 2.766.58 5.805 1.424 8.192 2.136l-.504-.518c-1.592-1.636-3.2-3.256-4.823-4.86-1.75-.266-4.047-.645-6.56-1.133-2.516.487-4.813.866-6.562 1.13-1.795 1.776-3.57 3.57-5.328 5.38zm16.91-16.33c.006.334.01.653.01.954l.134.126c1.084-.29 2.218-.58 3.358-.844-.166-.976-.32-1.97-.448-2.946h-.022c-1.015.898-2.026 1.802-3.03 2.71zm-10.187 1.08l.135-.126c0-.302.004-.62.01-.953-1.006-.908-2.016-1.812-3.032-2.71h-.022c-.127.977-.28 1.97-.446 2.946 1.14.265 2.274.553 3.356.844zm23.475-12.515c6.523-1.347 18-3.083 15.547 2.012-1.893 3.93-10.95 5.584-18.57 6.277.17.72.32 1.456.45 2.204 1.726-.095 3.11.057 3.85.593.49-1.44 1.448-1.915 3.1-.736 5.59 3.994 5.368 18.54 4.958 25.125 1.49 1.656 2.968 3.326 4.43 5.008-1.72-8.127-4.39-23.96 2.078-19.45 6.66 4.64 5.814 20.854 5.095 27.925 1.443 1.752 2.872 3.516 4.286 5.29-.922-8.002-2.276-24.768 3.122-20.97 5.59 3.935 3.78 21.51 2.8 28.574 1.21 1.593 2.413 3.193 3.603 4.802-.7-8.35-1.676-26.907 4.018-22.43 5.78 4.535 2.9 22.63 1.447 29.973 1.016 1.43 2.023 2.868 3.02 4.312-.812-9.495-1.71-29.13 5.7-21.52 7.626 7.835 2.366 23.5-.162 29.698l.37.557c3.093 4.686 6.1 9.427 9.037 14.212l1.406 2.298-8.182 5.296c-.36-.816-.72-1.633-1.085-2.448-.137-.3-.274-.597-.414-.894-1.468-3.108-3.062-6.156-4.715-9.168-.368-.67-.74-1.34-1.114-2.006-7.654-2.002-27.14-7.658-26.932-13.31.204-5.463 15.63 2.104 22.526 5.766-.443-.73-.89-1.46-1.34-2.186-.376-.61-.755-1.218-1.137-1.825-6.513-1.698-24.388-6.94-26.3-13.743-1.762-6.267 13.4 1.45 21.043 5.672-.992-1.472-1.995-2.935-3.01-4.39-6.76-2.434-22.456-8.663-24.29-14.57-1.63-5.26 9.24-.293 15.994 3.21-1.106-1.45-2.224-2.89-3.354-4.324-7.002-1.95-23.088-7.106-25.928-13.998-2.677-6.5 10.63.18 17.91 4.203-2-2.357-4.033-4.688-6.096-6.99-5.02-.844-15.122-3.032-21.47-7.707-6.35 4.675-16.45 6.863-21.47 7.705-2.063 2.304-4.096 4.634-6.097 6.99 7.282-4.022 20.587-10.702 17.91-4.2-2.84 6.89-18.925 12.047-25.928 13.997-.34.43-.678.86-1.015 1.293-.785 1.007-1.565 2.017-2.34 3.032 6.756-3.504 17.625-8.472 15.995-3.21-1.834 5.906-17.53 12.134-24.29 14.57l-.28.4c-.92 1.323-1.83 2.652-2.73 3.988 7.642-4.22 22.805-11.938 21.042-5.67-1.91 6.802-19.786 12.044-26.3 13.742-.58.924-1.157 1.852-1.728 2.783-.25.41-.5.818-.748 1.228 6.896-3.662 22.322-11.23 22.526-5.767.207 5.652-19.278 11.308-26.934 13.31-.503.895-1 1.794-1.49 2.695-.85 1.565-1.684 3.14-2.492 4.726-.737 1.446-1.452 2.9-2.133 4.373l-.126.275c-.367.815-.725 1.632-1.086 2.448l-8.183-5.296c.7-1.142 1.398-2.285 2.1-3.426 2.833-4.592 5.735-9.142 8.713-13.64-2.528-6.2-7.787-21.864-.16-29.698 7.41-7.612 6.51 12.022 5.697 21.518 1-1.443 2.006-2.88 3.02-4.312-1.45-7.34-4.33-25.437 1.45-29.973 5.692-4.477 4.717 14.08 4.016 22.43 1.19-1.61 2.393-3.21 3.605-4.803-.98-7.065-2.79-24.64 2.8-28.574 5.398-3.8 4.044 12.97 3.122 20.973.936-1.175 1.878-2.345 2.826-3.51.485-.595.972-1.19 1.46-1.783-.718-7.07-1.563-23.284 5.096-27.925 6.468-4.51 3.798 11.322 2.077 19.45 1.464-1.682 2.94-3.352 4.43-5.01-.408-6.584-.63-21.13 4.96-25.124 1.65-1.18 2.608-.704 3.1.737.74-.535 2.124-.687 3.85-.592.13-.747.28-1.485.45-2.204-7.622-.693-16.677-2.346-18.57-6.277-2.453-5.095 9.023-3.36 15.545-2.012-1.53-1.252-3.07-2.492-4.62-3.718-6.446-.08-20.764-.74-23.17-4.954-2.206-3.86 8.943-2.145 15.702-.8-1.23-.923-2.47-1.838-3.713-2.745-6.48.114-20.983-.162-23.194-4.792-1.952-4.082 8.416-2.364 15.232-.85-1.495-1.03-2.997-2.048-4.507-3.054-9.392-1.196-30.418-4.398-28.184-8.863 1.575-3.15 9.434-1.19 16.202 1.216-.364-.222-.727-.444-1.092-.665l-7.643-4.62.782-1.365c-3.192-2.652-5.384-5.613-3.82-8.116 2.867-4.588 9.658 5.122 13.074 10.625.95.51 1.9 1.02 2.848 1.532.49.266.98.534 1.47.802l.407.225c-3.844-5.064-8.584-12.214-3.99-11.365 5.073.94 10.957 11.363 13.845 17.106.403.247.806.496 1.207.746.79.49 1.578.987 2.363 1.487-4.172-6.538-10.03-16.78-4.645-15.17 5.855 1.76 10.69 14.345 12.744 20.542 1.245.858 2.482 1.727 3.712 2.605-3.45-6.44-8.157-16.61-2.386-14.81 6.292 1.97 9.466 14.767 10.645 20.93.577.442 1.153.888 1.727 1.335.823.642 1.643 1.287 2.46 1.937-2.75-7.013-7.044-19.654-1.544-17.947 5.79 1.797 8.213 17.06 9.03 24.094.975.826 1.945 1.657 2.91 2.494.097-.692.21-1.39.338-2.086-2.155-6.66-3.792-14.5 1.53-11.993.984.464 1.842 1.14 2.59 1.98.748-.84 1.606-1.516 2.59-1.98 5.32-2.505 3.685 5.335 1.53 11.994.13.696.24 1.394.337 2.087.965-.836 1.936-1.667 2.91-2.493.818-7.035 3.242-22.297 9.03-24.094 5.5-1.707 1.205 10.934-1.543 17.947 1.387-1.104 2.782-2.195 4.187-3.275 1.18-6.162 4.353-18.958 10.644-20.927 5.773-1.8 1.065 8.37-2.385 14.81 1.23-.88 2.468-1.747 3.712-2.605 2.055-6.197 6.89-18.784 12.745-20.542 5.385-1.61-.474 8.633-4.646 15.17 1.184-.754 2.374-1.5 3.57-2.233 2.89-5.743 8.773-16.167 13.847-17.107 4.592-.85-.147 6.3-3.99 11.364l.915-.503c1.265-.69 2.538-1.373 3.81-2.055 3.416-5.503 10.207-15.213 13.073-10.626 1.565 2.502-.626 5.463-3.818 8.115l.782 1.365c-2.73 1.65-5.464 3.3-8.192 4.955l-.543.332c6.766-2.407 14.626-4.366 16.2-1.218 2.234 4.464-18.79 7.666-28.183 8.862l-.248.164c-1.427.953-2.847 1.915-4.26 2.89 6.816-1.514 17.184-3.232 15.232.85-2.212 4.63-16.715 4.906-23.194 4.792-1.244.907-2.482 1.822-3.714 2.745 6.76-1.345 17.908-3.06 15.704.8-2.408 4.215-16.726 4.874-23.174 4.954-1.55 1.226-3.09 2.466-4.62 3.718z" fill="#FCCF10"/></svg>