<?xml version="1.0" encoding="utf-8"?>
<!-- Generator: Adobe Illustrator 19.1.0, SVG Export Plug-In . SVG Version: 6.00 Build 0)  -->
<svg version="1.1" id="Layer_1" xmlns="http://www.w3.org/2000/svg" xmlns:xlink="http://www.w3.org/1999/xlink" x="0px" y="0px"
	 viewBox="-5 217 600 360" style="enable-background:new -5 217 600 360;" xml:space="preserve">
<style type="text/css">
	.st0{fill:#D21F36;}
	.st1{fill:#009548;}
	.st2{fill:#FDCE14;}
	.st3{fill:#FDCE14;stroke:#FDCE14;}
</style>
<rect x="-5" y="217" class="st0" width="600" height="180"/>
<rect x="-5" y="397" class="st1" width="600" height="180"/>
<path d="M-5,217l349.1,180L-5,577V217z"/>
<rect x="-5" y="364.8" width="600" height="64.4"/>
<path class="st2" d="M-5,242.6L294.5,397L-5,551.4V242.6z"/>
<rect x="-5" y="387.5" class="st2" width="600" height="18.9"/>
<path d="M-5,263.9L253.2,397L-5,530.1V263.9z"/>
<path class="st2" d="M67.9,431.4c0,0,0,13,0,20.5c17.8,0,52.9-13.7,52.9-57.7s-37.4-52.2-48.5-52.2c-11.2,0-45.7,8-45.7,44
	s33.9,39.4,40.5,39.4s31.7-6,28.8-33c0,7.7-8.7,23.8-26.8,23.8c-18.2,0-29.5-13.5-29.5-26.8c0-13.3,11-31.2,30.2-31.2
	s33.2,17,33.2,34.2C103,409.6,89.4,431.4,67.9,431.4z"/>
<g id="frond">
	<path class="st3" d="M52.3,404.7l1.1,0.7c0,0,8.4-19.3,31.1-33C81.6,374,66.4,381.6,52.3,404.7z"/>
	<path class="st2" d="M54.5,401.4c0,0-2.6-5.4-0.3-7.8c2.3-2.4,1.3,6.3,1.3,6.3l1-1.4c0,0-1.6-6.6,0.2-7.9c1.8-1.4,0.9,6.3,0.9,6.3
		l1.1-1.4c0,0-1.1-6.4,0.6-7.6c1.7-1.2,0.6,6,0.6,6l1.3-1.4c0,0-0.9-6.1,1.1-7.5c2.1-1.4,0.3,5.8,0.3,5.8l1.4-1.5
		c0,0-0.6-5.6,1.1-6.8c1.8-1.3,0.3,5.3,0.3,5.3l1.3-1.3c0,0-0.4-5.2,1.3-6.4c1.7-1.2,0.1,4.9,0.1,4.9l1.3-1.3c0,0-0.3-5.2,1.8-6.2
		c2.1-1-0.4,4.9-0.4,4.9l1.4-1.3c0,0,0.4-6.1,2.3-6.6c1.8-0.6-0.8,5.4-0.8,5.4l1.3-1.1c0,0,0.7-5.2,2.7-5.8c2-0.6-1.3,4.8-1.3,4.8
		l1.3-1c0,0,1.4-5.2,3.3-5.8c1.9-0.6-1.9,4.9-1.9,4.9l1.3-0.9c0,0,2.1-4.7,3.8-5c1.7-0.3-1.9,3.9-1.9,3.9l1.6-0.9
		c0,0,2.7-4.9,3.6-3.4c0.9,1.5-3.8,3.7-3.8,3.7l-1.6,0.9c0,0,5.7-2.7,6.4-1.3c0.7,1.4-7.8,2.3-7.8,2.3l-1.4,0.9c0,0,5.7-1.6,5-0.1
		c-0.7,1.4-6.3,1.1-6.3,1.1l-1.3,0.9c0,0,5.7-1.4,4.9-0.1s-6.3,1.2-6.3,1.2l-1.4,1.1c0,0,5.6-1.4,4.8,0.3c-0.8,1.7-7.1,1.6-7.1,1.6
		l-1.6,1.4c0,0,5.9-2,5.4-0.4c-0.5,1.6-7.2,2.4-7.2,2.4l-1.5,1.5c0,0,6.3-2.1,4.4-0.2c-1.9,1.9-6.4,2.4-6.4,2.4l-1.8,2.2
		c0,0,6.3-3.8,5.4-1.6c-0.9,2.1-7,3.6-7,3.6l-1.3,1.5c0,0,5.6-3.3,5.1-1.4c-0.6,1.8-6.6,3.8-6.6,3.8l-1,1.4c0,0,6.6-3.9,6.1-1.9
		c-0.6,2-6.9,3.4-6.9,3.4l-0.8,1.3c0,0,6.1-3.5,6.2-1.8c0.1,1.7-7.2,3.4-7.2,3.4L54.5,401.4z"/>
</g>
<g transform="translate(238.5) scale(-1,1)">
	<g id="frond_1_">
		<path class="st3" d="M88.3,404.7l-1.1,0.7c0,0-8.4-19.3-31.1-33C59,374,74.2,381.6,88.3,404.7z"/>
		<path class="st2" d="M86.1,401.4c0,0,2.6-5.4,0.3-7.8c-2.3-2.4-1.3,6.3-1.3,6.3l-1-1.4c0,0,1.6-6.6-0.2-7.9
			c-1.8-1.4-0.9,6.3-0.9,6.3l-1.1-1.4c0,0,1.1-6.4-0.6-7.6c-1.7-1.2-0.6,6-0.6,6l-1.3-1.4c0,0,0.9-6.1-1.1-7.5
			c-2.1-1.4-0.3,5.8-0.3,5.8l-1.4-1.5c0,0,0.6-5.6-1.1-6.8c-1.8-1.3-0.3,5.3-0.3,5.3l-1.3-1.3c0,0,0.4-5.2-1.3-6.4
			c-1.7-1.2-0.1,4.9-0.1,4.9l-1.3-1.3c0,0,0.3-5.2-1.8-6.2c-2.1-1,0.4,4.9,0.4,4.9l-1.4-1.3c0,0-0.4-6.1-2.3-6.6
			c-1.8-0.6,0.8,5.4,0.8,5.4l-1.3-1.1c0,0-0.7-5.2-2.7-5.8c-2-0.6,1.3,4.8,1.3,4.8l-1.3-1c0,0-1.4-5.2-3.3-5.8
			c-1.9-0.6,1.9,4.9,1.9,4.9l-1.3-0.9c0,0-2.1-4.7-3.8-5c-1.7-0.3,1.9,3.9,1.9,3.9l-1.6-0.9c0,0-2.7-4.9-3.6-3.4
			c-0.9,1.5,3.8,3.7,3.8,3.7l1.6,0.9c0,0-5.7-2.7-6.4-1.3c-0.7,1.4,7.8,2.3,7.8,2.3l1.4,0.9c0,0-5.7-1.6-5-0.1
			c0.7,1.4,6.3,1.1,6.3,1.1l1.3,0.9c0,0-5.7-1.4-4.9-0.1c0.8,1.3,6.3,1.2,6.3,1.2l1.4,1.1c0,0-5.6-1.4-4.8,0.3
			c0.8,1.7,7.1,1.6,7.1,1.6l1.6,1.4c0,0-5.9-2-5.4-0.4c0.5,1.6,7.2,2.4,7.2,2.4l1.5,1.5c0,0-6.3-2.1-4.4-0.2
			c1.9,1.9,6.4,2.4,6.4,2.4l1.8,2.2c0,0-6.3-3.8-5.4-1.6c0.9,2.1,7,3.6,7,3.6l1.3,1.5c0,0-5.6-3.3-5.1-1.4c0.6,1.8,6.6,3.8,6.6,3.8
			l1,1.4c0,0-6.6-3.9-6.1-1.9c0.6,2,6.9,3.4,6.9,3.4l0.8,1.3c0,0-6.1-3.5-6.2-1.8c-0.1,1.7,7.2,3.4,7.2,3.4L86.1,401.4z"/>
	</g>
</g>
</svg>
