<svg width="1000" height="600" viewBox="0 0 1000 600" xmlns="http://www.w3.org/2000/svg"><title>Vanuatu</title><g fill="none" fill-rule="evenodd"><path d="M0 300h1000V0H0v300z" fill="#C02537"/><path d="M0 600h1000V300H0v300z" fill="#0C8B44"/><path d="M477.778 353.683L0 600V0l477.778 246.317H1000v107.366H477.778" fill="#0A0A08"/><path d="M468.588 315.788L0 557.365V42.633L468.583 284.21H1000v31.578H468.588" fill="#F7CA2A"/><path d="M0 521.837L430.297 300 0 78.163v443.674" fill="#0A0A08"/><path d="M121.558 357.393v34.185c29.74 0 88.105-22.79 88.105-96.163 0-73.375-62.256-86.995-80.878-86.995s-76.153 13.342-76.153 73.375 56.42 65.593 67.536 65.593c11.117 0 52.81-10.006 48.084-55.03 0 12.784-14.452 39.744-44.75 39.744-30.294 0-49.192-22.514-49.192-44.747 0-22.237 18.343-51.975 50.305-51.975s55.308 28.348 55.308 56.977c0 28.626-22.51 65.036-58.365 65.036" fill="#F7CA2A"/><path d="M117.218 282.858c.557-.588 1.12-1.17 1.685-1.75-.016-.76-.015-1.805.06-2.926-.46-.244-.836-.505-1.098-.784.025 1.61-.35 3.91-.647 5.46zm16.617 0c-.298-1.55-.673-3.85-.648-5.46-.262.28-.64.54-1.097.784.073 1.12.077 2.165.06 2.926.567.58 1.128 1.162 1.685 1.75zm-13.063-.106c.953-.285 2.17-.622 3.276-.854.14-.275.705-.325 1.48-.245.772-.08 1.34-.03 1.477.245 1.107.232 2.322.57 3.277.854l-.202-.207c-.637-.655-1.28-1.303-1.928-1.945-.7-.107-1.62-.257-2.625-.453-1.007.196-1.925.346-2.625.453-.72.71-1.43 1.427-2.13 2.152zm6.763-6.532l.003.382.055.05c.432-.117.887-.232 1.342-.34-.067-.39-.127-.785-.178-1.177l-.01.002c-.405.358-.81.72-1.212 1.083zm-4.075.432l.053-.05c.002-.122.002-.25.005-.382-.403-.363-.806-.725-1.213-1.083l-.008-.002c-.052.392-.114.788-.18 1.178.456.107.91.222 1.343.34zm9.39-5.007c2.608-.538 7.2-1.233 6.218.805-.756 1.573-4.378 2.233-7.426 2.512.066.286.126.58.178.88.692-.037 1.245.023 1.54.238.197-.577.58-.767 1.24-.295 2.237 1.598 2.148 7.417 1.983 10.05.597.663 1.19 1.332 1.774 2.003-.69-3.25-1.757-9.583.83-7.78 2.663 1.857 2.326 8.342 2.038 11.17.577.702 1.148 1.407 1.715 2.117-.368-3.202-.91-9.908 1.248-8.388 2.237 1.575 1.514 8.603 1.12 11.43.485.636.965 1.276 1.442 1.92-.28-3.34-.67-10.762 1.607-8.972 2.31 1.815 1.16 9.053.58 11.99.405.572.808 1.147 1.208 1.725-.325-3.798-.685-11.653 2.278-8.608 3.052 3.133.947 9.4-.063 11.88l.147.22c1.238 1.876 2.44 3.773 3.615 5.686l.563.92c-1.092.705-2.183 1.412-3.273 2.12l-.435-.98-.165-.36c-.587-1.24-1.225-2.46-1.885-3.666-.15-.27-.297-.535-.447-.802-3.062-.802-10.857-3.063-10.773-5.325.08-2.185 6.25.842 9.01 2.307-.177-.292-.355-.584-.535-.874-.15-.245-.302-.488-.455-.73-2.605-.68-9.755-2.776-10.52-5.498-.705-2.507 5.36.58 8.416 2.268-.396-.588-.796-1.173-1.203-1.755-2.703-.973-8.982-3.465-9.717-5.828-.65-2.105 3.697-.117 6.4 1.285-.445-.58-.89-1.157-1.343-1.73-2.8-.78-9.235-2.843-10.372-5.6-1.07-2.6 4.252.072 7.165 1.682-.8-.944-1.613-1.875-2.438-2.797-2.008-.337-6.05-1.212-8.588-3.082-2.54 1.87-6.582 2.745-8.59 3.082-.824.922-1.637 1.853-2.437 2.797 2.913-1.61 8.235-4.282 7.163-1.682-1.135 2.757-7.57 4.82-10.37 5.6l-.406.517c-.314.403-.627.806-.935 1.213 2.7-1.402 7.05-3.39 6.396-1.285-.733 2.363-7.01 4.855-9.715 5.828l-.11.16c-.37.53-.735 1.062-1.095 1.595 3.057-1.688 9.122-4.775 8.417-2.268-.763 2.722-7.913 4.818-10.518 5.498-.234.37-.464.74-.692 1.112l-.3.492c2.758-1.465 8.928-4.492 9.01-2.307.083 2.262-7.71 4.523-10.773 5.325-.2.358-.4.717-.595 1.078-.342.625-.675 1.255-1 1.89-.292.58-.58 1.16-.852 1.75l-.05.11c-.145.325-.288.652-.433.98l-3.274-2.12.84-1.37c1.134-1.838 2.294-3.658 3.485-5.458-1.01-2.478-3.115-8.745-.065-11.878 2.965-3.045 2.605 4.81 2.28 8.608.4-.578.802-1.153 1.21-1.725-.58-2.937-1.735-10.175.577-11.99 2.278-1.79 1.888 5.633 1.608 8.972.475-.644.957-1.284 1.442-1.92-.393-2.827-1.117-9.855 1.118-11.43 2.16-1.52 1.62 5.188 1.25 8.388.374-.468.75-.937 1.13-1.403.194-.24.39-.475.585-.714-.288-2.828-.626-9.313 2.037-11.17 2.588-1.803 1.52 4.53.832 7.78.585-.67 1.175-1.34 1.77-2.003-.162-2.633-.25-8.452 1.985-10.05.66-.472 1.043-.282 1.24.295.296-.215.85-.275 1.54-.237.053-.3.11-.595.18-.88-3.05-.28-6.67-.94-7.43-2.513-.98-2.038 3.61-1.343 6.22-.805-.612-.5-1.227-.997-1.847-1.487-2.58-.03-8.307-.295-9.27-1.98-.882-1.545 3.578-.86 6.282-.32-.492-.37-.987-.736-1.485-1.1-2.592.047-8.394-.065-9.28-1.916-.78-1.634 3.368-.945 6.095-.34-.6-.412-1.2-.82-1.804-1.222-3.756-.478-12.166-1.758-11.273-3.545.63-1.258 3.773-.475 6.48.487-.145-.09-.29-.177-.437-.265l-3.056-1.85.313-.545c-1.277-1.06-2.153-2.245-1.528-3.247 1.146-1.835 3.863 2.05 5.23 4.25.38.205.76.408 1.138.613.197.107.393.214.588.322l.164.09c-1.537-2.027-3.434-4.887-1.597-4.547 2.03.377 4.383 4.545 5.538 6.844.162.098.324.198.484.298.316.195.63.393.945.595-1.67-2.615-4.012-6.713-1.86-6.068 2.343.703 4.278 5.738 5.1 8.216.498.344.993.69 1.485 1.042-1.38-2.575-3.264-6.643-.955-5.923 2.516.788 3.786 5.906 4.258 8.37.232.178.462.356.692.536.328.255.656.514.983.774-1.1-2.805-2.818-7.86-.618-7.18 2.316.72 3.285 6.825 3.613 9.64.39.33.777.66 1.163.996.04-.276.084-.555.135-.835-.86-2.663-1.516-5.798.612-4.796.393.185.737.456 1.037.79.298-.334.64-.605 1.035-.79 2.13-1.002 1.475 2.133.61 4.796.055.28.098.56.138.835.385-.333.773-.666 1.163-.996.327-2.815 1.297-8.92 3.612-9.64 2.2-.68.482 4.375-.617 7.18.555-.44 1.112-.877 1.675-1.31.472-2.464 1.74-7.582 4.257-8.37 2.308-.72.427 3.348-.953 5.923.49-.35.986-.698 1.485-1.042.82-2.478 2.755-7.513 5.096-8.216 2.155-.645-.188 3.453-1.858 6.068.473-.302.95-.6 1.428-.893 1.155-2.3 3.51-6.467 5.54-6.844 1.835-.34-.06 2.52-1.596 4.545l.365-.2c.506-.276 1.015-.55 1.525-.823 1.366-2.2 4.08-6.085 5.228-4.25.627 1.002-.25 2.187-1.527 3.247l.312.546c-1.092.66-2.185 1.32-3.277 1.982l-.216.132c2.706-.962 5.85-1.745 6.48-.487.893 1.787-7.517 3.067-11.274 3.545l-.098.067c-.572.38-1.138.765-1.703 1.155 2.725-.605 6.873-1.294 6.09.34-.884 1.85-6.684 1.963-9.275 1.916-.5.364-.994.73-1.487 1.1 2.705-.54 7.163-1.225 6.282.32-.964 1.685-6.69 1.95-9.27 1.98-.62.49-1.235.987-1.847 1.487z" fill="#F7CA2A"/></g></svg>