<?xml version="1.0" standalone="no"?>
<!DOCTYPE svg PUBLIC "-//W3C//DTD SVG 1.1//EN" "http://www.w3.org/Graphics/SVG/1.1/DTD/svg11.dtd">
<svg width="100%" height="100%" viewBox="0 0 2500 1500" version="1.1" xmlns="http://www.w3.org/2000/svg" xmlns:xlink="http://www.w3.org/1999/xlink" xml:space="preserve" style="fill-rule:evenodd;clip-rule:evenodd;stroke-linejoin:round;stroke-miterlimit:1.41421;">
    <g id="Layer 1" transform="matrix(4.16667,0,0,4.16667,0,0)">
        <rect x="0" y="0" width="600" height="180" style="fill:rgb(212,31,54);fill-rule:nonzero;"/>
        <rect x="0" y="180" width="600" height="180" style="fill:rgb(11,150,72);fill-rule:nonzero;"/>
        <g transform="matrix(0.24,0,0,0.24,0,0)">
            <path d="M1194.45,884.208L0,1500L0,0L1194.45,615.792L2500,615.792L2500,884.208L1194.45,884.208Z" style="fill:rgb(3,4,4);"/>
        </g>
        <g transform="matrix(0.24,0,0,0.24,0,0)">
            <path d="M1171.47,789.471L0,1393.41L0,106.585L1171.46,710.525L2500,710.525L2500,789.471L1171.47,789.471Z" style="fill:rgb(252,207,16);"/>
        </g>
        <path d="M0,313.102L258.178,180L0,46.898L0,313.102Z" style="fill:rgb(3,4,4);fill-rule:nonzero;"/>
        <g>
            <path d="M72.935,214.436L72.935,234.947C90.779,234.947 125.798,221.273 125.798,177.249C125.798,133.224 88.444,125.052 77.271,125.052C66.098,125.052 31.579,133.057 31.579,169.077C31.579,205.097 65.431,208.433 72.101,208.433C78.771,208.433 103.786,202.429 100.951,175.414C100.951,183.085 92.28,199.261 74.102,199.261C55.925,199.261 44.586,185.753 44.586,172.413C44.586,159.071 55.592,141.228 74.769,141.228C93.946,141.228 107.954,158.237 107.954,175.414C107.954,192.59 94.447,214.436 72.935,214.436" style="fill:rgb(252,207,16);fill-rule:nonzero;"/>
            <g transform="matrix(0.24,0,0,0.24,0,0)">
                <path d="M293.045,707.144C294.437,705.675 295.841,704.217 297.257,702.772C297.217,700.867 297.223,698.26 297.409,695.455C296.26,694.844 295.318,694.191 294.664,693.496C294.727,697.522 293.789,703.267 293.045,707.144ZM334.586,707.143C333.843,703.267 332.905,697.521 332.968,693.496C332.313,694.191 331.371,694.844 330.223,695.455C330.409,698.26 330.415,700.866 330.375,702.771C331.79,704.217 333.194,705.674 334.586,707.143ZM301.927,706.88C304.314,706.168 307.354,705.324 310.119,704.744C310.465,704.057 311.883,703.933 313.816,704.132C315.748,703.933 317.167,704.057 317.512,704.744C320.278,705.324 323.317,706.168 325.704,706.88L325.2,706.361C323.608,704.725 322,703.105 320.377,701.5C318.628,701.235 316.33,700.856 313.816,700.368C311.301,700.856 309.004,701.235 307.255,701.5C305.46,703.275 303.684,705.068 301.927,706.88ZM318.837,690.55C318.843,690.883 318.846,691.202 318.847,691.503L318.981,691.629C320.064,691.338 321.198,691.05 322.338,690.785C322.172,689.809 322.019,688.816 321.89,687.839L321.868,687.84C320.853,688.737 319.842,689.641 318.837,690.55ZM308.65,691.629L308.785,691.503C308.786,691.201 308.789,690.883 308.795,690.55C307.789,689.641 306.779,688.737 305.763,687.84L305.741,687.839C305.613,688.816 305.46,689.809 305.294,690.785C306.433,691.05 307.568,691.338 308.65,691.629ZM332.125,679.114C338.648,677.767 350.125,676.031 347.672,681.126C345.779,685.057 336.723,686.71 329.102,687.403C329.272,688.122 329.421,688.859 329.551,689.607C331.278,689.512 332.661,689.664 333.401,690.2C333.893,688.759 334.85,688.284 336.501,689.463C342.091,693.457 341.87,708.003 341.46,714.588C342.951,716.245 344.428,717.915 345.891,719.597C344.169,711.47 341.5,695.637 347.968,700.147C354.627,704.788 353.782,721.001 353.063,728.072C354.506,729.824 355.935,731.588 357.349,733.363C356.428,725.36 355.074,708.594 360.472,712.392C366.061,716.327 364.252,733.901 363.271,740.966C364.483,742.559 365.685,744.159 366.875,745.768C366.174,737.419 365.199,718.862 370.893,723.338C376.672,727.874 373.792,745.97 372.34,753.312C373.356,754.743 374.363,756.18 375.361,757.624C374.548,748.129 373.649,728.493 381.06,736.105C388.686,743.939 383.426,759.605 380.898,765.802L381.267,766.359C384.361,771.045 387.369,775.786 390.305,780.571L391.711,782.869C388.983,784.634 386.256,786.4 383.528,788.165C383.167,787.349 382.808,786.532 382.443,785.717C382.306,785.418 382.169,785.12 382.029,784.823C380.562,781.715 378.968,778.667 377.315,775.655C376.947,774.984 376.576,774.316 376.201,773.649C368.546,771.647 349.06,765.991 349.268,760.338C349.472,754.876 364.898,762.443 371.794,766.105C371.351,765.374 370.905,764.646 370.455,763.919C370.078,763.309 369.699,762.701 369.317,762.094C362.804,760.396 344.929,755.154 343.018,748.351C341.255,742.084 356.418,749.802 364.06,754.023C363.068,752.551 362.065,751.088 361.049,749.634C354.291,747.199 338.594,740.97 336.76,735.063C335.129,729.802 345.999,734.77 352.754,738.274C351.648,736.823 350.53,735.382 349.4,733.949C342.398,732 326.312,726.843 323.472,719.951C320.795,713.45 334.101,720.131 341.383,724.154C339.382,721.797 337.349,719.466 335.286,717.163C330.267,716.32 320.164,714.132 313.816,709.457C307.467,714.132 297.365,716.32 292.345,717.162C290.283,719.466 288.25,721.796 286.249,724.153C293.532,720.13 306.837,713.45 304.16,719.951C301.32,726.843 285.235,731.999 278.232,733.949C277.893,734.379 277.554,734.81 277.217,735.242C276.432,736.249 275.652,737.259 274.878,738.274C281.633,734.77 292.502,729.802 290.872,735.063C289.038,740.97 273.341,747.198 266.583,749.634L266.303,750.035C265.383,751.357 264.472,752.686 263.573,754.022C271.214,749.801 286.377,742.084 284.614,748.351C282.703,755.154 264.828,760.396 258.315,762.094C257.733,763.018 257.157,763.946 256.586,764.877C256.336,765.286 256.086,765.695 255.838,766.105C262.734,762.443 278.16,754.876 278.364,760.338C278.571,765.991 259.086,771.647 251.43,773.649C250.927,774.544 250.431,775.443 249.94,776.344C249.089,777.909 248.256,779.483 247.448,781.07C246.711,782.515 245.996,783.97 245.315,785.442L245.189,785.717C244.823,786.532 244.465,787.349 244.104,788.165L235.921,782.869C236.62,781.727 237.318,780.584 238.02,779.443C240.853,774.851 243.755,770.301 246.733,765.802C244.205,759.604 238.946,743.939 246.572,736.105C253.982,728.493 253.083,748.127 252.27,757.623C253.269,756.18 254.276,754.743 255.291,753.311C253.84,745.97 250.959,727.874 256.739,723.338C262.432,718.862 261.457,737.419 260.756,745.768C261.947,744.16 263.149,742.559 264.361,740.966C263.38,733.901 261.57,716.327 267.16,712.392C272.558,708.593 271.204,725.361 270.282,733.365C271.218,732.19 272.16,731.02 273.108,729.856C273.593,729.26 274.08,728.665 274.569,728.072C273.85,721.001 273.005,704.788 279.664,700.147C286.132,695.637 283.462,711.469 281.741,719.597C283.204,717.915 284.681,716.245 286.171,714.588C285.762,708.003 285.541,693.457 291.13,689.463C292.781,688.284 293.738,688.759 294.231,690.2C294.97,689.664 296.354,689.512 298.081,689.607C298.211,688.86 298.359,688.122 298.529,687.403C290.908,686.71 281.853,685.057 279.96,681.126C277.507,676.031 288.983,677.767 295.505,679.114C293.976,677.862 292.436,676.622 290.886,675.396C284.439,675.316 270.121,674.657 267.714,670.442C265.509,666.583 276.658,668.297 283.417,669.642C282.186,668.719 280.948,667.804 279.704,666.897C273.224,667.011 258.721,666.735 256.51,662.105C254.558,658.023 264.926,659.741 271.742,661.254C270.247,660.224 268.745,659.207 267.235,658.201C257.843,657.005 236.817,653.803 239.051,649.338C240.625,646.19 248.484,648.149 255.252,650.555C254.888,650.333 254.525,650.111 254.16,649.89L246.517,645.269L247.299,643.904C244.108,641.252 241.916,638.291 243.48,635.788C246.347,631.201 253.138,640.911 256.554,646.414C257.504,646.924 258.454,647.433 259.402,647.946C259.892,648.212 260.382,648.48 260.871,648.748L261.279,648.974C257.436,643.91 252.696,636.76 257.289,637.609C262.363,638.549 268.247,648.972 271.135,654.715C271.538,654.962 271.941,655.211 272.342,655.461C273.132,655.952 273.92,656.448 274.705,656.948C270.533,650.411 264.675,640.168 270.06,641.78C275.915,643.538 280.749,656.124 282.804,662.321C284.049,663.179 285.286,664.048 286.516,664.926C283.067,658.487 278.359,648.316 284.13,650.117C290.422,652.086 293.596,664.883 294.775,671.045C295.352,671.488 295.928,671.934 296.502,672.381C297.325,673.023 298.145,673.668 298.961,674.318C296.213,667.306 291.918,654.665 297.418,656.372C303.207,658.169 305.631,673.431 306.448,680.466C307.423,681.292 308.393,682.123 309.359,682.96C309.455,682.267 309.567,681.569 309.696,680.873C307.541,674.214 305.904,666.374 311.226,668.88C312.21,669.343 313.068,670.02 313.816,670.86C314.564,670.02 315.422,669.343 316.405,668.88C321.727,666.374 320.091,674.214 317.935,680.873C318.065,681.569 318.177,682.267 318.273,682.96C319.238,682.123 320.209,681.292 321.184,680.466C322.001,673.431 324.425,658.169 330.214,656.372C335.713,654.665 331.418,667.306 328.67,674.319C330.057,673.215 331.452,672.124 332.857,671.044C334.036,664.882 337.21,652.086 343.501,650.117C349.273,648.316 344.565,658.487 341.115,664.926C342.346,664.048 343.583,663.18 344.827,662.322C346.882,656.125 351.717,643.538 357.572,641.78C362.957,640.168 357.098,650.412 352.926,656.949C354.11,656.195 355.3,655.45 356.496,654.716C359.385,648.973 365.269,638.549 370.343,637.609C374.935,636.76 370.196,643.909 366.354,648.973C366.658,648.805 366.963,648.637 367.268,648.47C368.533,647.778 369.806,647.096 371.077,646.414C374.494,640.911 381.285,631.201 384.151,635.788C385.715,638.291 383.524,641.252 380.332,643.904L381.114,645.269C378.384,646.92 375.65,648.568 372.922,650.224L372.379,650.556C379.146,648.149 387.006,646.19 388.58,649.338C390.814,653.803 369.789,657.005 360.397,658.201L360.149,658.365C358.723,659.318 357.303,660.28 355.89,661.254C362.706,659.741 373.074,658.023 371.122,662.105C368.91,666.735 354.407,667.011 347.928,666.897C346.684,667.804 345.446,668.719 344.214,669.642C350.974,668.297 362.122,666.583 359.918,670.442C357.51,674.657 343.192,675.316 336.744,675.396C335.194,676.622 333.655,677.862 332.125,679.114Z" style="fill:rgb(252,207,16);"/>
            </g>
        </g>
    </g>
</svg>
