<?xml version="1.0" encoding="utf-8"?>
<!-- Generator: Adobe Illustrator 19.1.0, SVG Export Plug-In . SVG Version: 6.00 Build 0)  -->
<svg version="1.1" id="Layer_1" xmlns="http://www.w3.org/2000/svg" xmlns:xlink="http://www.w3.org/1999/xlink" x="0px" y="0px"
	 viewBox="144 97 900 600" style="enable-background:new 144 97 900 600;" xml:space="preserve">
<style type="text/css">
	.st0{fill:#DA2827;}
	.st1{fill:#F6EC13;}
</style>
<desc>Flag of Vietnam</desc>
<rect x="-21" y="-63" class="st0" width="1200" height="900"/>
<g id="g" transform="translate(0,-6)">
	<polyline id="g1" class="st1" points="579,213 523.4,384.2 637.5,421.3 	"/>
	<g transform="scale(-1,1)">
		<polyline id="g1_1_" class="st1" points="579,213 634.6,384.2 520.5,421.3 		"/>
	</g>
</g>
<g>
	<g>
		<g id="g_1_" transform="translate(0,-6)">
			<polyline id="g1_2_" class="st1" points="547,-605.1 491.4,-433.9 605.5,-396.8 			"/>
			<g transform="scale(-1,1)">
				<polyline id="g1_3_" class="st1" points="547,-605.1 602.6,-433.9 488.5,-396.8 				"/>
			</g>
		</g>
		<g id="g2" transform="rotate(72)">
			<g id="g_2_" transform="translate(0,-6)">
				<polyline id="g1_4_" class="st1" points="718.2,-480.7 538.2,-480.7 538.2,-360.7 				"/>
				<g transform="rotate(72)">
					<polyline id="g1_5_" class="st1" points="718.2,-480.7 572.5,-374.9 502,-472 					"/>
				</g>
			</g>
		</g>
		<g>
			<g>
				<g>
					<g id="g_3_" transform="translate(0,-6)">
						<polyline id="g1_6_" class="st1" points="-135.1,-501.8 -280.8,-607.6 -210.2,-704.7 						"/>
						<g transform="scale(-1,1)">
							<polyline id="g1_7_" class="st1" points="-135.1,-501.8 -190.8,-673 -304.9,-635.9 							"/>
						</g>
					</g>
					<g id="g2_1_" transform="rotate(72)">
						<g id="g_4_" transform="translate(0,-6)">
							<polyline id="g1_8_" class="st1" points="-69.8,-703 -215.4,-597.2 -285.9,-694.3 							"/>
							<g transform="scale(-1,1)">
								<polyline id="g1_9_" class="st1" points="-69.8,-703 -249.8,-703 -249.8,-583 								"/>
							</g>
						</g>
					</g>
				</g>
			</g>
		</g>
	</g>
</g>
</svg>
