<svg width="182" height="92" viewBox="0 0 182 92" xmlns="http://www.w3.org/2000/svg"><title>australian-dfat</title><g fill="none" fill-rule="evenodd"><path d="M39.68 68.83h-2.8l-.333.772c-.11.257-.164.47-.164.637 0 .22.09.38.268.49.108.06.367.11.78.14v.213h-2.633v-.216c.284-.044.518-.16.7-.35.184-.197.41-.596.678-1.2L39.007 63h.11l2.857 6.497c.272.615.496 1.003.67 1.162.133.12.32.19.562.21v.213h-3.83v-.216h.157c.307 0 .523-.044.648-.13.09-.062.13-.152.13-.27 0-.07-.01-.14-.032-.215-.008-.035-.067-.18-.176-.438l-.42-.987zm-.2-.432L38.3 65.67l-1.214 2.728h2.394zm8.58-2.776V69.9c0 .417.038.678.116.783.078.1.236.165.473.193v.21h-2.23v-.73c-.26.312-.52.54-.782.683-.26.14-.552.21-.875.21-.307 0-.582-.097-.823-.28-.238-.19-.397-.417-.48-.67-.08-.253-.122-.695-.122-1.326v-2.17c0-.41-.038-.668-.116-.77-.074-.1-.232-.167-.472-.198v-.218h2.224v3.734c0 .39.018.64.053.754.036.112.094.2.172.256.08.06.174.088.28.088.14 0 .266-.037.38-.11.154-.102.34-.307.56-.614v-2.92c0-.412-.04-.67-.118-.77-.073-.1-.232-.168-.472-.2v-.216h2.224zm4.41-.152l.088 1.865h-.2c-.236-.554-.484-.93-.74-1.134-.254-.2-.506-.3-.76-.3-.16 0-.295.055-.408.164-.113.106-.17.23-.17.37 0 .104.04.205.117.303.125.16.473.434 1.045.823.573.385.948.714 1.127.987.18.27.27.57.27.906 0 .304-.075.602-.227.894-.152.292-.366.516-.642.672-.276.154-.58.23-.916.23-.26 0-.61-.08-1.045-.244-.117-.042-.197-.064-.24-.064-.128 0-.235.1-.32.293h-.194l-.093-1.963h.198c.177.513.416.9.72 1.156.307.256.597.384.87.384.187 0 .338-.054.455-.167.12-.117.18-.257.18-.42 0-.188-.057-.35-.174-.486-.116-.136-.377-.343-.78-.62-.596-.41-.98-.728-1.157-.946-.256-.32-.385-.67-.385-1.056 0-.42.14-.8.43-1.14.29-.344.712-.515 1.26-.515.297 0 .58.07.86.215.105.058.19.088.257.088.07 0 .126-.014.17-.04.042-.032.11-.116.204-.252h.2zm2.89-1.846v1.998h1.297v.58H55.36v3.37c0 .316.014.52.042.614.03.09.084.164.158.222.074.055.14.082.204.082.253 0 .492-.193.718-.578l.175.128c-.315.748-.827 1.122-1.535 1.122-.347 0-.64-.095-.882-.286-.238-.195-.39-.41-.455-.65-.04-.132-.06-.49-.06-1.074v-2.95h-.71v-.205c.49-.347.905-.712 1.248-1.093.346-.382.648-.808.906-1.28h.19zm3.963 1.998v1.24c.362-.566.68-.94.952-1.123.273-.19.535-.28.788-.28.218 0 .39.064.52.2.133.133.198.32.2.567 0 .26-.066.463-.194.607-.13.144-.28.216-.46.216-.206 0-.385-.065-.537-.2-.152-.13-.24-.204-.268-.22-.04-.023-.084-.035-.135-.035-.112 0-.22.043-.32.13-.16.13-.28.32-.362.566-.126.38-.188.796-.188 1.25v1.26l.006.33c0 .22.012.363.04.425.046.105.115.183.204.234.093.046.25.075.467.087v.21H57.09v-.21c.237-.02.396-.084.48-.193.084-.113.127-.407.127-.883v-3.02c0-.31-.017-.51-.048-.596-.04-.108-.097-.188-.17-.24-.075-.05-.206-.085-.39-.104v-.22h2.23zm5.457 4.658c-.665.588-1.263.882-1.792.882-.31 0-.57-.1-.777-.304-.202-.206-.305-.464-.305-.77 0-.418.18-.792.537-1.123.358-.335 1.14-.78 2.34-1.332v-.55c0-.413-.022-.672-.07-.777-.04-.11-.125-.202-.25-.28-.124-.082-.264-.123-.42-.123-.253 0-.46.057-.625.17-.1.07-.152.15-.152.245 0 .082.055.183.164.304.147.168.22.33.22.485 0 .19-.072.354-.216.49-.14.133-.326.2-.555.2-.246 0-.453-.075-.62-.223-.163-.148-.245-.32-.245-.52 0-.28.11-.547.333-.8.222-.257.53-.454.928-.59.398-.137.81-.205 1.238-.205.518 0 .927.11 1.226.33.303.22.5.455.59.712.054.163.08.54.08 1.128v2.12c0 .25.01.41.03.475.02.062.05.11.088.14.04.032.083.047.134.047.103 0 .206-.072.31-.216l.176.14c-.194.288-.396.5-.607.63-.205.13-.44.194-.705.194-.312 0-.555-.07-.73-.215-.175-.148-.282-.37-.32-.666zm0-.427v-1.83c-.47.278-.82.574-1.05.89-.152.21-.228.422-.228.636 0 .18.064.334.193.47.097.105.233.16.408.16.195 0 .42-.11.678-.33zm4.745-6.69v6.79c0 .385.045.632.135.742.09.105.265.165.526.18v.21h-2.95v-.21c.242-.007.42-.077.538-.21.078-.09.116-.327.117-.713v-5.656c0-.382-.04-.625-.13-.73-.09-.11-.264-.172-.52-.187v-.22h2.29zm2.5-.188c.253 0 .467.09.642.27.175.174.263.387.263.636 0 .25-.09.466-.27.64-.174.176-.386.264-.635.264-.25 0-.46-.087-.637-.262-.175-.174-.263-.387-.263-.636 0-.248.088-.46.263-.636.176-.18.387-.268.637-.27zm.817 2.647v4.33c0 .386.045.633.134.743.09.105.265.165.526.18v.21h-2.95v-.21c.242-.007.42-.077.54-.21.076-.09.115-.327.115-.713v-3.19c0-.386-.045-.63-.134-.736-.09-.11-.263-.172-.52-.187v-.22h2.29zm3.846 4.658c-.666.588-1.264.882-1.793.882-.312 0-.57-.1-.777-.304-.206-.206-.31-.464-.31-.77 0-.418.18-.792.538-1.123.36-.335 1.138-.78 2.342-1.332v-.55c0-.413-.023-.672-.07-.777-.043-.11-.127-.202-.25-.28-.126-.082-.266-.123-.422-.123-.253 0-.46.057-.625.17-.1.07-.15.15-.15.245 0 .082.057.183.166.304.148.168.222.33.222.485 0 .19-.072.354-.216.49-.14.133-.325.2-.555.2-.245 0-.452-.075-.62-.223-.162-.148-.244-.32-.244-.52 0-.28.11-.547.334-.8.222-.257.53-.454.93-.59.395-.137.808-.205 1.236-.205.516 0 .924.11 1.224.33.304.22.5.455.59.712.054.163.08.54.082 1.128v2.12c0 .25.01.41.03.475.02.062.047.11.086.14.038.032.083.047.134.047.1 0 .204-.072.31-.216l.175.14c-.195.288-.397.5-.608.63-.206.13-.44.194-.706.194-.312 0-.555-.07-.73-.215-.175-.148-.282-.37-.32-.666zm0-.427v-1.83c-.47.278-.822.574-1.05.89-.153.21-.23.422-.23.636 0 .18.065.334.194.47.097.105.233.16.408.16.195 0 .42-.11.678-.33zm4.718-4.23v.706c.28-.307.55-.527.806-.66.257-.14.534-.21.83-.21.353 0 .647.095.88.294.235.195.39.438.468.73.063.222.094.65.094 1.28v2.127c0 .42.037.685.11.79.08.1.238.165.48.193v.21H82.31v-.21c.208-.028.356-.113.445-.257.062-.1.094-.34.094-.726v-2.43c0-.45-.02-.73-.057-.847-.035-.117-.095-.206-.18-.27-.083-.065-.174-.098-.276-.098-.335 0-.646.24-.935.718v2.928c0 .41.037.67.11.78.08.11.22.176.428.204v.21h-2.76v-.21c.23-.024.394-.097.49-.223.067-.084.1-.337.1-.76v-3.08c0-.41-.04-.67-.116-.77-.075-.1-.232-.167-.473-.2v-.215h2.227zm14.42-2.643v2.795h-.215c-.26-.764-.65-1.345-1.17-1.742-.52-.397-1.09-.596-1.71-.596-.592 0-1.084.168-1.48.502-.39.33-.67.79-.833 1.39-.163.593-.245 1.205-.245 1.832 0 .76.09 1.426.27 1.998.18.574.466.995.863 1.264.4.27.876.403 1.425.403.19 0 .385-.02.584-.06.204-.042.41-.102.62-.18v-1.65c0-.31-.02-.51-.063-.6-.043-.094-.133-.177-.27-.252-.132-.074-.293-.11-.484-.11h-.204v-.217h3.848v.216c-.292.02-.497.06-.613.123-.113.057-.2.157-.263.297-.034.074-.052.255-.052.543v1.65c-.506.225-1.033.395-1.582.508-.545.117-1.112.175-1.7.175-.75 0-1.375-.1-1.874-.304-.493-.208-.93-.477-1.313-.808-.38-.335-.673-.71-.887-1.128-.273-.537-.41-1.14-.41-1.806 0-1.192.42-2.2 1.256-3.022.836-.822 1.89-1.232 3.16-1.233.392 0 .746.03 1.062.092.17.03.447.12.83.268.384.145.612.217.682.217.11 0 .21-.04.304-.116.094-.08.18-.23.257-.454h.217zm3.792 2.48c.474 0 .916.12 1.325.367.41.245.718.594.93 1.046.212.452.32.946.32 1.484 0 .776-.197 1.424-.59 1.946-.475.63-1.13.946-1.968.946-.82 0-1.454-.29-1.898-.868-.443-.577-.665-1.245-.665-2.004 0-.783.225-1.465.677-2.046.45-.584 1.074-.876 1.865-.876zm.023.414c-.195 0-.37.075-.51.228-.14.148-.233.444-.28.888-.043.44-.064 1.054-.064 1.84 0 .417.027.807.08 1.17.044.276.135.486.276.63.14.145.3.217.48.217.174 0 .32-.05.436-.146.152-.13.253-.314.304-.552.076-.37.115-1.117.115-2.243 0-.663-.037-1.116-.11-1.362-.075-.25-.184-.43-.328-.542-.1-.08-.235-.122-.398-.122zm5.13 5.376l-1.84-4.237c-.22-.51-.394-.833-.52-.97-.09-.1-.22-.17-.395-.204v-.22h2.9v.216c-.182 0-.306.032-.372.098-.092.086-.14.187-.14.304 0 .143.087.414.258.81l.9 2.05.72-1.77c.205-.505.31-.863.31-1.073 0-.12-.046-.218-.136-.293-.085-.078-.24-.12-.46-.128v-.218h1.787v.216c-.17.022-.31.086-.42.192-.11.105-.272.414-.49.93l-1.822 4.287h-.274zm7.304-3.092h-2.996c.035.725.228 1.298.578 1.72.268.322.59.483.97.483.232 0 .445-.06.636-.19.19-.13.396-.37.614-.705l.2.128c-.298.605-.624 1.034-.983 1.287-.357.25-.772.372-1.242.372-.81 0-1.422-.312-1.84-.935-.333-.503-.5-1.126-.5-1.87 0-.912.244-1.637.735-2.174.496-.54 1.074-.81 1.736-.81.554 0 1.033.227 1.437.684.41.452.63 1.123.662 2.015zm-1.437-.39c0-.628-.035-1.058-.105-1.292-.066-.234-.17-.41-.314-.532-.082-.07-.192-.105-.327-.105-.203 0-.37.095-.497.294-.23.346-.342.822-.342 1.425v.205h1.59zm4.027-2.146v1.24c.362-.566.68-.94.95-1.123.274-.19.536-.28.79-.28.218 0 .39.064.52.2.13.133.198.32.198.567 0 .26-.063.463-.192.607-.125.144-.276.216-.455.216-.207 0-.386-.065-.538-.2-.15-.13-.24-.204-.268-.22-.04-.023-.085-.035-.136-.035-.11 0-.22.043-.32.13-.16.13-.28.32-.36.566-.125.38-.187.796-.187 1.25v1.26l.006.33c0 .22.013.363.04.425.047.105.115.183.205.234.093.046.25.075.467.087v.21h-2.95v-.21c.24-.02.4-.084.48-.193.086-.113.13-.407.13-.883v-3.02c0-.31-.017-.51-.047-.596-.04-.108-.096-.188-.17-.24-.074-.05-.204-.085-.39-.104v-.22h2.23zm5.033 0v.707c.28-.307.55-.527.806-.66.26-.14.535-.21.83-.21.355 0 .65.095.883.294.234.195.39.438.467.73.062.222.092.65.092 1.28v2.127c0 .42.037.685.112.79.077.1.237.165.478.193v.21H120.6v-.21c.206-.028.355-.113.444-.257.062-.1.094-.34.094-.726v-2.43c0-.45-.018-.73-.053-.847-.035-.117-.095-.206-.18-.27-.083-.065-.174-.098-.275-.098-.335 0-.647.24-.935.718v2.928c0 .41.037.67.11.78.08.11.22.176.428.204v.21h-2.762v-.21c.23-.024.397-.097.49-.223.07-.084.1-.337.1-.76v-3.08c0-.41-.04-.67-.113-.77-.075-.1-.232-.167-.473-.2v-.215h2.225zm6.328 0v.72c.3-.328.576-.556.828-.685.26-.132.54-.198.844-.198.35 0 .644.08.88.24.24.165.422.414.55.75.312-.35.61-.604.894-.76.29-.155.59-.233.9-.233.378 0 .677.087.9.262.225.17.38.39.466.66.09.264.135.69.135 1.273v2.238c0 .42.038.683.11.784.08.102.24.168.48.2v.21h-2.82v-.21c.22-.02.386-.106.49-.258.07-.107.106-.348.106-.726v-2.35c0-.484-.02-.794-.06-.926-.038-.133-.1-.23-.186-.292-.08-.065-.18-.1-.29-.1-.17 0-.34.064-.51.188-.17.122-.345.305-.52.55v2.934c0 .394.033.64.1.742.09.144.26.224.513.24v.21h-2.825v-.21c.152-.008.27-.045.356-.11.09-.07.15-.153.176-.247.03-.1.046-.308.047-.628v-2.35c0-.493-.02-.803-.06-.927-.038-.125-.104-.222-.198-.292-.09-.07-.188-.105-.29-.105-.16 0-.3.04-.43.122-.182.122-.377.328-.583.62v2.934c0 .386.036.64.11.765.078.12.238.192.48.216v.21H123.8v-.21c.23-.024.392-.097.49-.223.065-.085.1-.338.1-.76v-3.08c0-.412-.04-.67-.118-.77-.073-.1-.23-.168-.472-.2v-.216h2.225zm11.842 2.536h-2.995c.036.725.228 1.298.58 1.72.27.322.59.483.97.483.232 0 .444-.06.635-.19.19-.13.395-.37.613-.705l.198.128c-.296.605-.623 1.034-.98 1.287-.36.25-.773.372-1.245.372-.81 0-1.42-.312-1.84-.935-.333-.503-.5-1.126-.5-1.87 0-.912.245-1.637.736-2.174.493-.54 1.07-.81 1.733-.81.55 0 1.03.227 1.434.684.41.452.63 1.123.66 2.015zm-1.436-.39c0-.628-.036-1.058-.106-1.292-.066-.234-.172-.41-.316-.532-.08-.07-.19-.105-.327-.105-.2 0-.366.095-.494.294-.23.346-.344.822-.344 1.425v.205h1.59zm3.87-2.146v.707c.28-.307.55-.527.808-.66.256-.14.533-.21.83-.21.353 0 .647.095.88.294.234.195.39.438.468.73.062.222.093.65.093 1.28v2.127c0 .42.036.685.11.79.08.1.237.165.48.193v.21h-2.763v-.21c.206-.028.354-.113.444-.257.063-.1.094-.34.094-.726v-2.43c0-.45-.017-.73-.052-.847-.033-.117-.093-.206-.18-.27-.08-.065-.172-.098-.273-.098-.336 0-.648.24-.935.718v2.928c0 .41.038.67.112.78.077.11.22.176.426.204v.21h-2.76v-.21c.23-.024.392-.097.49-.223.065-.084.1-.337.1-.76v-3.08c0-.41-.04-.67-.118-.77-.074-.1-.232-.167-.473-.2v-.215h2.224zm5.99-1.998v1.998h1.297v.58h-1.296v3.37c0 .316.014.52.04.614.033.09.085.164.16.222.073.055.14.082.203.082.253 0 .493-.193.72-.578l.174.128c-.316.748-.828 1.122-1.536 1.122-.345 0-.64-.095-.88-.286-.24-.195-.39-.41-.456-.65-.04-.132-.058-.49-.058-1.074v-2.95h-.713v-.205c.49-.347.907-.712 1.25-1.093.346-.382.648-.808.905-1.28h.193zm-66.404-22.09c-.046.08-.102.14-.18.18M81.52 28.76c.187 0 .34-.152.34-.342 0-.19-.153-.344-.34-.344-.19 0-.343.154-.343.344 0 .19.153.343.342.343zm15.814-14.427v-.006h-12.3v.006l.01 9.94c0 .958.405 1.797.966 2.055l4.73 2.828c.1.12.256.194.43.194.15 0 .282-.058.383-.15l4.804-2.872c.56-.258.965-1.097.965-2.056l.01-9.94h-.002zm-8.21 2.877H88.06v-2.546h1.063v2.546zm-.774.886l.15-.157-.096-.178.2.022.118-.21.118.207.2-.02-.092.176.15.156-.192.038v.216l-.184-.137-.182.134v-.216l-.193-.04zm-2.97 3.168v-2.417h1.29v2.417h-1.29zm.212-3.5l.198.023.12-.21.12.207.2-.02-.095.175.152.153-.193.038v.216l-.183-.137-.18.136v-.216l-.193-.036.15-.157-.093-.175zm1.458 2.458l.2.02.12-.21.116.208.2-.018-.092.174.15.157-.192.037v.216l-.182-.137-.182.133v-.216l-.193-.038.15-.158-.093-.174zm.858-1.942c-.01-.065-.094-.082-.13-.082-.115 0-.162.19-.257.196-.07.003-.12.01-.12-.077 0-.064.146-.114.203-.17-.797 0-.812.365-.937.365-.21 0 .175-.385.286-.497-.16-.026-.254-.226-.43-.325.08-.12.13-.068.233.016 0-.084.063-.182.25-.182.355 0 .255.345.313.345.057 0-.004-.35.236-.35.353 0 .796.91.395.91-.173 0-.035-.13-.038-.153zm-.915-2.66l.15-.158-.093-.174.2.02.12-.21.115.207.2-.017-.092.174.15.157-.192.033v.216l-.18-.137-.18.137v-.214l-.194-.037zm-.323-.956v2.546h-1.29v-2.546h1.292zm2.45 13.132l-2.943-1.758c-.493-.336-.735-.928-.8-1.64V21.6h3.742v6.196zm-1.064-6.532v-2.417h1.064v2.417h-1.064zm4.854 6.733l-1.36.813h-.024c-.1.077-.22.126-.358.126-.138 0-.264-.05-.363-.13l-1.35-.81V21.6h3.455v6.397zm0-6.733h-3.455v-6.6h3.455v6.6zm4.075 3.134c-.064.712-.306 1.304-.798 1.64l-2.944 1.758V21.6h3.74v2.798zm0-3.134h-3.74v-6.6h3.74v6.6z" fill="#000"/><path d="M88.923 23.878c-.02-.04-.47.15-.34.137.012-.133.262-.404.374-.505-.02-.157-.222-.015-.432.095.7-1.004.25-.592-.14-.52.625-.675.46-.664 0-.453.36-.288.44-.63.383-.73-.34.453-.652.383-.652.803 0 .276-.1.73-.242.884-.183.195-.043-.746-.522-.746-.154 0-.516-.01-.626.176.098 0 .244.25.244.35 0 .1.09.37-.073.37-.164 0-.354-.343-.354-.51 0-.164-.012-.125-.012-.363 0-.398-.643-.957-.905-.957 0 .277.36.344.36.697-.152 0-.37-.288-.37-.11 0 .176.23.21.23.364 0 .158-.264-.052-.264.11 0 .15.144.12.178.267-.106-.03-.202-.017-.22.038-.02.048.03.11.11.155-.036.034-.068.117-.068.35 0 .785.49 1.15.85 1.15.26 0 .22-.18.25-.266.01.133.137-.066.137.166 0 .243-.25.136-.25.346 0 .28.395-.01.395.3 0 .377-.046.37-.046.513 0 .1.413-.14.387-.18.1.033.096.324.28.32.118-.008.144-.3.238-.327-.053.014.375.28.375.145 0-.365-.15-.21-.15-.46 0-.233.507-.188.427-.307-.066-.1-.112-.037-.166-.21.01.03-.397-.582.085-.266.508.333.565-.772.538-.83zm13.12 2.6c.224 0 .405-.16.405-.358 0-.197-.18-.356-.405-.356-.223 0-.404.16-.404.356 0 .198.18.358.4.358zm-1.635.972c.224 0 .404-.16.404-.357 0-.196-.18-.357-.404-.357-.224 0-.405.16-.405.357 0 .197.18.357.405.357zm-19.44 2.243c.223 0 .404-.16.404-.356 0-.198-.18-.357-.404-.357-.224 0-.405.16-.405.357 0 .197.18.356.405.356zm1.26.11c.224 0 .405-.16.405-.358 0-.198-.18-.357-.405-.357-.224 0-.404.16-.404.357 0 .197.18.357.404.357zm34.998-16.976c.6.713.73 1.86.3 2.68-.236-.02-.194-.323-.236-.497-.43-.8-.772-1.815-.386-2.724.28.044.17.39.322.54zm-51.354.973c-.13.52-.13 1.232 0 1.708-.107.108-.086-.108-.193-.087-.84-.6-.45-1.79-.67-2.633.044-.065.15-.086.216-.044.384.26.556.628.642 1.06zm53.198.065c.13.238-.107.475-.28.583-.192.044-.406-.065-.535-.238-.065-.237.064-.454.258-.562.214-.02.428.022.558.217zm-54.507.95c-.042.195-.107.39-.28.476-.127 0-.32 0-.406-.103-.13-.108-.15-.303-.086-.455.09-.15.26-.173.41-.194.15.065.3.108.366.28zm55.344.37c.042.13.042.215 0 .344-.15.19-.365.28-.58.19-.15-.085-.192-.237-.235-.367.043-.172.214-.324.364-.39.193 0 .322.11.45.218zm-1.223.02c.172.086.043.303.022.433-.108.107-.258.28-.45.215-.11-.108-.236-.108-.28-.26 0-.216.086-.432.3-.496.172-.043.28.043.408.11zm-1.566.325c0 .238.02.54-.257.584-.254.086-.43-.13-.49-.304-.02-.216.107-.433.32-.52.174 0 .324.11.43.24zm-50.218.108c.066.215-.15.345-.277.454-.15.043-.344-.087-.43-.24-.15-.15.043-.28.086-.41.21-.194.533-.042.62.196zm-1.286.065c0 .172-.086.345-.236.41-.17.065-.342-.065-.43-.195-.106-.215.023-.41.194-.497.236-.082.386.13.472.286zm46.314.087c.213.453.385.993.428 1.556-.086.41.065.95-.236 1.232-.3-.108-.32-.476-.515-.67-.386-.757-.042-1.644.086-2.38.176-.063.176.153.24.26zm-47.322.258c.065.26-.13.39-.278.54-.258.066-.43-.13-.537-.302-.02-.216.11-.433.28-.518.217-.023.43.085.54.28zm50.71.627c.28.627.3 1.384.108 2.076l-.13.11c-.3-.582-.728-1.123-.88-1.75 0-.453.087-.864.26-1.232.15-.107.235.022.3.15.02.24.128.52.342.65zm2.704-.39c-.022.217-.108.455-.323.52-.214.044-.428-.022-.493-.26-.065-.215.065-.41.235-.52.233-.13.47.09.58.26zm-52.384.67c0 .175-.15.37-.322.41-.172.13-.3-.085-.45-.15-.065-.172-.11-.323 0-.496.064-.13.214-.13.343-.177.193.108.386.194.43.41zm.944-.105c.085.215-.15.322-.236.43-.258.087-.386-.108-.494-.26-.043-.215.087-.345.236-.474.258-.065.386.108.494.303zm52.04-.067c-.022.282-.45.563-.494.843-.236.584-.75 1.017-1.33 1.21-.128.11-.3.26-.493.282-.043-.432.343-.82.58-1.21.45-.584 1.072-.952 1.737-1.125zm-53.413.91c.32.366.493.69.88 1.015.02.086-.044.216-.15.216-1.052-.065-1.76-1.146-2.275-1.903.064-.234.344-.04.494-.06.365.28.772.367 1.05.735zm53.713.3c-.043.93-.493 1.88-1.33 2.336-.236.082-.494.32-.73.17.45-.93 1.138-1.687 1.888-2.51h.172zm-4.118.627c.063.325-.108.52-.365.628-.236.02-.386-.173-.494-.346-.02-.216.108-.41.3-.475.065-.065.172-.065.258-.065.13.043.197.15.305.26zm-50.776.196c.41.28.773.67 1.16 1.015-.28.2-.623.026-.945.026-.725-.26-1.22-.886-1.97-1.102.02-.237.3-.15.45-.215.47-.044.86.172 1.31.28z" fill="#000"/><path d="M87 12.416c-1.2-.476-1.994.78-3.217.627-.15.087-.107.238-.193.346-.065.06-.17.02-.236-.026-.064-.52-.236-.994-.3-1.492-.13-.215-.064-.52-.172-.735-.686-1.88 1.674-.455 2.145-1.557.41-.95-.794-1.06-1.158-1.73v-.28c-.348-.346-.71-.454-.927-.91.15-.54.215-1.123.065-1.663-.02-.13-.107-.304-.3-.24-.408.564-.708 1.018-1.095 1.558-.407-.303-.793-.692-1.265-.952-.32-.043-.62-.368-.984-.238-.065.13 0 .238.063.324.02.842.45 1.512 1.05 2.12l.065.32c-.387.888-.28 1.904-.387 2.856-.966 2.463-2.53 4.842-4.656 6.55-1.223 1.384-2.68 2.725-2.875 4.627-.065.302.04.67-.194.886-.707-.26-1.415-.607-1.994-1.06-.986-.693-2.4-.607-3.045-1.86-.257-.498.066-.995.3-1.36.73-.694.623-1.927.237-2.77-.084-.022-.106.086-.17.108-.064 1.275-1.072 2.16-.686 3.567.087.41.3.67.41 1.06-.15-.044-.365-.044-.494-.11-.473-.064-.945-.258-1.438-.194-.987.455-2.338-.107-3.132.8-.13.02-.3.044-.256.238.472 0 .923.13 1.395.108.75.13 1.242-.496 1.76-.777h.125c.215-.216.58-.087.86-.13 1.35.152 2.4.8 3.517 1.47v.087c-.43.194-.924.324-1.353.562-.494.367-1.05.842-1.2 1.45-.346.54.105 1.014.32 1.467.02.217.042.476.235.563.686-.734.043-1.642.15-2.486.172-.65.772-.95 1.395-1.124 1.22-.52 2.1.475 3.088 1.038-.02.995.107 1.946-.108 2.92-.3.106-.686.17-1.01.15-1.693.13-3.023 1.06-4.546 1.578-.687.238-1.5.217-2.19.476.537.15 1.095-.043 1.653-.065 2.102-.304 3.71-1.925 5.985-1.644l.042.065c-.257.54-.6.995-1.008 1.406-.065-.238-.087-.432-.3-.562-.173-.086-.366 0-.494.173-.064.11-.064.24 0 .325.107.195.28.238.472.303-.043.194-.28.28-.408.454-.6 1.015-1.824.604-2.532 1.317-.106.153-.492.24-.32.477.814.088 1.608-.13 2.208-.56.794-.886 1.63-1.73 2.424-2.57.13.69-.064 1.403-.47 1.965-.194-.11-.345-.26-.58-.326-.215.043-.365.26-.387.432.087.15.173.326.323.434-.73.518-1.65.562-2.49.8-1.564.194-3.087.324-4.675.345-.75-.042-1.61.218-2.315 0-.816.153-1.695-.106-2.36.347-.085.11.02.218.02.325.988.65 2.34.13 3.455.327h8.45c.62-.02 1.243-.044 1.736-.326 1.094-.626 1.694-1.75 2.252-2.853.212-.39.363-.843.45-1.297.212-.736.88-1.255 1.607-1.32.106 1.125-.108 2.25-.365 3.287-.13.69-.58 1.36-.3 2.096.063.345.428.345.707.39 2.597-.045 5.192-.153 7.938.04.494.088.923.24 1.46.217.042-.064.192-.086.128-.216-.065-.236-.237-.54-.515-.604-.042-.13-.234-.086-.3-.173-1.37-.777-3.023-.366-4.632-.344-.836.086-1.672.237-2.38-.24-.322-.388-.086-1.62-.086-1.62 0-.488 1.18-3.892 1.33-4.173.043-.324.172-.626.13-.994.17-.435.13-.997.13-1.47.083-.695.43-1.34.662-2.01.13-.328.237-.67.365-.998.13-.41.173-.8.43-1.124.7.444 1.384.43 1.72 1.225l.296 1.8c0 .11.086.326.237.197.555-.368.384-1.19.384-1.752.13-.67-.343-.993-.537-1.577-.15-.106-.397-.622-.397-.622-.083-.477-1.124-.804-.887-1.388.128-.498.257-.952.73-1.233.068.046.098.1.106.15l.255-.18.027-1.81c.695 0 1.732.09 2.44.09.193.065.344.216.558.24l.173-.24 1.738-.34c-.736.083-1.185-.765-1.89-.765z" fill="#000"/><path fill="#FEFEFE" d="M88.89 13.268c.052-.022.105-.058.16-.117l-.16.12z"/><path d="M70.205 19.205c.022.26-.13.41-.322.497-.172-.065-.3-.087-.408-.26-.085-.237.13-.41.3-.497.172.043.387.065.43.26zm-1.395 0c.13.13.15.346.086.497-.15.13-.386.238-.515.065-.124-.13-.253-.28-.15-.454.15-.152.41-.28.58-.108z" fill="#000"/><path fill="#FEFEFE" d="M98.67 19.443c.025.037.047.077.07.115"/><path d="M115.015 19.81c.087.238-.106.41-.278.498-.214-.066-.493-.11-.493-.39.02-.173.17-.28.322-.324.193-.065.364.086.45.216zm1.138-.043c.064.108.215.28.043.39-.086.064-.15.085-.215.172-.232.04-.45-.047-.51-.26-.043-.24.15-.35.32-.458.15-.043.258.065.366.152zm-52.727.26c-.085.26-.3.367-.58.28-.063-.065-.127-.172-.17-.28.02-.152.064-.303.236-.368.257.02.45.125.514.364zm7.23.367c-.023.173-.215.325-.365.41-.21.022-.36-.15-.47-.302 0-.173.087-.39.26-.432.235-.087.492.086.58.324zm-1.266-.152c.064.066.128.238.064.347-.128.104-.322.3-.536.17-.13-.11-.28-.196-.236-.41.086-.09.193-.218.322-.26.17-.045.257.063.386.15zm50.045.26c0 .173-.17.346-.28.41-.17.066-.364.022-.47-.108-.13-.042-.087-.215-.087-.324.108-.15.258-.238.408-.28.193.042.322.172.43.302zm1.373.195c-.065.194-.214.367-.408.39-.128-.023-.365-.066-.32-.26 0-.152.085-.303.192-.347.214-.108.47 0 .536.217zM65.872 21c.043.258-.043.432-.258.518-.15.086-.3-.02-.407-.108-.107-.108-.193-.28-.107-.432.042-.195.235-.152.364-.238.193.022.3.108.408.26zm1.05.194c.065.173-.128.238-.17.368-.108.064-.258.13-.387.042-.15-.13-.322-.324-.172-.518.172-.324.623-.152.73.108zm51.248-.108c.02.216-.172.367-.3.497-.194.043-.387-.086-.43-.26-.022-.173.086-.302.236-.41.193-.022.386 0 .493.173zm1.758.346c-.043.194-.02.41-.236.54-.172.044-.386.022-.514-.086-.13-.108-.15-.303-.086-.454.107-.174.3-.303.514-.26.15.086.193.195.322.26zm-54.87.454c.084.172-.11.216-.173.302-.15.087-.3.022-.43-.043-.15-.087-.085-.302-.063-.41.193-.368.58-.11.665.15zm53.52.41c.085.02.042.15.02.195-.515.26-1.287.33-1.737-.082-.254-.217-.58-.303-.854-.476.107-.28.493-.26.772-.325.622.087 1.115.67 1.802.693zm-52.492-.194c.044.173-.086.238-.128.368-.086.13-.258.086-.365.043-.193-.13-.28-.368-.15-.54.236-.24.515-.108.643.13zm1.888.13c.086.194-.043.367-.215.475-.15.087-.28-.042-.41-.065-.108-.15-.3-.324-.108-.497.193-.324.578-.15.73.087zm24.8.914c-.04.432-.754-.062-.652.514.102.41.184.904.428 1.21.204.29.102.74.082 1.09-.183.308-.49.534-.815.698-.612-.06-1.51.308-1.794-.45-.122-.33-.347-.66-.347-1.03.062-.04.144-.04.204-.1 0-.145-.162-.227-.142-.37.693-.125-.285-.74.306-.782.49.514 1.283.35 1.71.904.104.082.185.206.307.267-.08-.514-.32-1.026-.404-1.58-.06-.29.04-.556.245-.72.367-.287.673.124.877.35zm-22.912-.136c.064.216-.107.346-.236.454-.193.086-.3-.13-.387-.238-.068-.215.083-.325.21-.432.15 0 .323.064.41.217zm13.235.216c.257.844.172 1.708-.258 2.422-.025.173.04.454-.197.432-.58-.8-.15-1.924.087-2.768.043-.216.3-.3.365-.086zm18.363.41c.3.606.32 1.406.042 2.01l-.172.175c-.236-.494-.43-.99-.493-1.532.107-.39.236-.735.257-1.145.3-.064.28.325.365.498zm-29.925.24c-.13.26-.493.323-.73.496-.514.39-1.265.475-1.91.368.56-.778 1.417-1.233 2.446-1.017.047.087.156.043.198.152zm-8.815.777c.792.562 1.006 1.34 1.48 2.118.062.09.277.11.192.286-.172.13-.344-.13-.58-.087-.815-.368-1.33-1.276-1.31-2.227 0-.086.13-.086.217-.086zm37.902.67c.022.217-.02.433-.193.498-.24.07-.43-.06-.497-.26-.065-.15.064-.234.107-.342.173-.173.473-.087.58.108z" fill="#000"/><path d="M109.675 26.47c0-.412.107-.8.15-1.19.064-.13.107-.28.085-.453.515-.693 1.567-.477 2.382-.412.322.174.73.15 1.072.238.15-.108.365-.13.537-.108.69-.368.24-1.167.28-1.795l-.255-.648c-.065-.13-.13-.28-.172-.433-.13-.155-.213-.436-.342-.587-.363-.95-1.072-1.492-1.672-2.25-1.094-1.426-2.81-2.226-4.526-2.788-1.695-.583-3.41.173-4.934.713-.472-.13-.707-.497-.836-.908-.087-.82.084-1.62.406-2.29.064-.542.43-.952.58-1.45.385-1.21.793-2.4.88-3.718.04-.8-.56-1.363-1.16-1.71-.407-.106-.88-.085-1.18.24-.278.583-.88.972-1.394 1.253-.042.368.41.13.558.26.473.087 1.01-.065 1.395.238.044.864-.45 1.578-.9 2.227-.73 1.08-1.502 2.183-1.953 3.373l-.085-.087.103 5.283c.684 1.14 1.538 2.437 2.814 2.866.686.56 1.544 1.23 2.466.734.493-.15.536.54.772.82.258.803-.32 1.364-.364 2.1l-.557 1.19c-.643 1.253-1.222 2.593-2.21 3.653-.32 0-.514.345-.835.367-.172.238-.516.065-.73.15-.665.283-1.61.11-2.06.736.043.064.108.086.173.11 1.308.02 2.768.106 4.16.04.174-.064.324-.216.345-.41-.192-.367.064-.692.236-.973.108-.52.45-.843.6-1.34.45-.887.967-1.75 1.46-2.638l.665-1.08c.15-.37.408-.824.665-1.21.17-.176.258-.37.386-.586.023-.22-.084-.305-.214-.457.15-.15.384-.11.58-.15.535.322 1.092.84 1.2 1.426l.192.56.087.26-.043.713.086.67c.107 1.04-.086 2.098-.194 3.137-.367 1.254-1.8 1.125-2.834 1.406-.256.172-.75.086-.75.518 1.244.26 2.703.11 4.032.087.214-.085.257-.28.364-.474.045-.28.324-.517.238-.82-.235-.302-.02-.777-.085-1.19.045-.107.045-.26 0-.41.173-.626.13-1.383.26-1.99l.085-.82zm10.553-.844c-.686.973-1.415 2.076-2.616 2.422-.086 0-.173.043-.215-.065.73-.78 1.116-1.99 2.252-2.27.17-.087.404-.173.575-.087zm-58.56 1.06c-.108.085-.022.28-.215.302-.172.086-.365-.022-.45-.194-.087-.217.107-.433.278-.476.176.087.347.15.39.367zm6.177.302c.065.195-.15.195-.257.238-.9.324-1.823.02-2.468-.627 0-.09 0-.177.087-.198.88.215 1.91.043 2.638.583zm-4.998-.28c.043.086.065.237.043.323-.13.2-.322.24-.536.2-.13-.066-.193-.153-.28-.28.023-.218.194-.348.365-.41.17.02.3.062.404.17zm20.1.107c.043.195-.13.324-.258.41-.197.044-.368-.042-.45-.172-.068-.15 0-.368.15-.41.19-.044.49-.023.553.172zm38.097.087c.064.216-.13.324-.28.453-.128.065-.278 0-.407-.065-.02-.107-.15-.194-.107-.345.086-.195.28-.28.493-.26.108.086.193.11.3.217zm1.416-.087c.128.195.02.346-.086.498-.086.15-.258.194-.387.13-.128-.13-.3-.196-.32-.39 0-.173.192-.303.32-.368.215-.086.3.13.473.13zm-61.693.627c.02.152-.108.238-.15.368-.108.043-.215.13-.344.086-.15-.065-.258-.194-.322-.346.047-.195.176-.367.39-.432.17.043.365.13.43.324z" fill="#000"/><path d="M105.94 27.442c.045.087.023.195.023.28-.128.174-.3.326-.514.217-.13-.13-.28-.26-.22-.458.173-.238.538-.324.708-.043zm-41.72.325c-.043.15-.108.302-.3.324-.194.025-.258-.15-.365-.234 0-.195-.022-.39.17-.498.26-.086.495.13.495.412zm-2.06.043c.065.216-.085.367-.214.475-.257.087-.472-.108-.58-.302.023-.195.173-.433.387-.498.193 0 .3.217.408.325zm45.198-.043c.043.216-.022.432-.236.518-.257.087-.472-.13-.58-.302.108-.173.13-.41.387-.454.19 0 .32.082.425.234zm-44.188.086c.063.15-.065.216-.11.324-.105 0-.17.13-.3.087-.084-.11-.257-.152-.278-.303-.02-.212.13-.32.28-.41.214-.02.343.13.407.306zm56.693.173c-.064.173-.192.26-.364.346-.175.043-.28-.108-.41-.173-.11-.09-.066-.285-.02-.39.212-.37.79-.198.79.213zm1.632.086c-.065.238-.3.347-.515.368-.193-.086-.408-.237-.258-.497.086-.087.13-.173.258-.195.257-.086.45.108.515.324zm-10.19.152c.107.28-.15.367-.322.497-.15-.02-.278-.083-.408-.17-.042-.24.065-.453.3-.56.194 0 .3.085.43.237zm-5.9.26c.108.042.066.193.044.26-.13.085-.3.3-.498.172-.15-.087-.257-.217-.214-.41.11-.24.56-.26.665-.023zm1.202.15c.022.173-.02.26-.172.347-.15.155-.32-.02-.472-.06-.042-.088-.085-.218-.022-.326.07-.085.177-.15.28-.17.155.04.326.04.39.214zm-36.402.022c.128.13-.022.28-.043.41-.107.13-.343.238-.536.11-.216-.088-.193-.37-.15-.542.128-.043.128-.194.3-.194.193.02.3.108.43.216zm43.395.086c.043.217-.172.303-.32.346-.26.087-.388-.107-.495-.28 0-.13.128-.217.172-.325.3-.13.493.087.643.26zm-1.158 0c.085.217-.15.325-.237.433-.15.065-.342.043-.47-.087-.11-.064-.11-.194-.11-.324.13-.108.194-.238.345-.28.193 0 .386.107.472.258zm9.674.26c.042.302-.343.15-.493.238-.9.54-2.06.13-2.917-.195.064-.28.386-.173.558-.28.922-.585 1.865.13 2.787.172l.07.065zm-58.712-.26l-.085.152c-.798.475-1.828.8-2.77.497l-.087-.125c.794-.585 1.844-.736 2.875-.585l.063.064zm52.384.152c0 .173-.086.324-.215.41-.214.065-.493 0-.558-.237-.063-.173.108-.346.28-.41.15 0 .407.02.493.237zm-48.543.086c-.086.173-.043.346-.258.433-.215.086-.472-.11-.536-.28-.06-.24.11-.304.218-.412.257-.13.45.068.58.26zm-1.523.108c.064.152-.065.238-.108.346-.107.13-.3.108-.43.065-.148-.13-.3-.285-.235-.52.125-.11.19-.176.34-.24.193.042.386.13.43.345zm51.568.498c-.02.194-.172.346-.343.39-.172.02-.322-.11-.408-.217-.07-.13-.047-.307.082-.415.043-.065.193-.065.28-.108.19.02.342.172.385.345zm-53.156-.238c.065.173-.086.238-.108.368-.063.368-.3.604-.47.93-.41.496-.988.496-1.567.648l-.09-.174c.622-.8 1.287-1.426 2.167-1.816l.063.044zm52.083.476c.043.26-.172.303-.32.41-.195 0-.345-.107-.43-.26-.065-.237.15-.323.278-.432.215-.043.408.11.472.282zm-49.617 0c-.02.043.023.085.065.108-.02.238-.193.302-.32.41-.194 0-.345-.065-.473-.215-.086-.195 0-.433.214-.498.193-.026.45 0 .514.19zm53.565.65c.213-.024.257-.283.493-.326.215-.043.406.086.515.238.085.26-.11.39-.28.497-.15.108-.47-.13-.45.15.15.11.28.26.3.434-.043.086-.193.065-.257.02-.623-.258-1.287-.69-1.545-1.34-.08-.194-.49-.345-.253-.518.622-.047 1.137.45 1.48.84zm2.06-.672c.106.107.063.303-.023.41-.108.217-.43.13-.622.108-.107-.107-.214-.215-.172-.388.087-.13.172-.216.322-.28.193-.045.343.042.494.15zm-7.788 1.168c.193.238.386.605.472.864-.048.065-.15.044-.197.044-.73-.41-1.673-.865-1.952-1.73-.064-.086-.236-.195-.214-.346.557-.108 1.093.303 1.48.605.15.217.32.325.407.562zM65.4 30.188c.086.194-.086.346-.193.432-.236.044-.365-.043-.494-.173-.15-.237.13-.432.3-.52.172-.02.28.153.387.26zm51.718.497c.02.13-.15.216-.214.303-.172.02-.344.086-.494-.065-.042-.108-.15-.28-.02-.39.235-.302.58-.064.728.152zm5.342.303c.064.26-.13.432-.302.54-.213.065-.385-.086-.514-.194-.107-.13-.02-.26 0-.41.15-.13.343-.24.558-.152.086.065.172.108.258.216zm-14.844 2.982c0 .26-.473.196-.666.39-.665.346-1.458.346-2.252.325v-.13c.773-.648 1.888-.886 2.918-.584zm-31.296.93c-.023.196-.13.304-.324.37-.15 0-.3-.088-.364-.217-.086-.26.13-.368.28-.476.192.02.364.173.407.324zm30.93.24c-.042.194-.107.41-.32.497-.194.042-.323-.065-.474-.152-.106-.087-.042-.238-.063-.346.15-.39.707-.39.858 0zm4.27.086c-.537.346-1.137.756-1.845.756l-1.158-.022-.11-.086c.71-.865 1.997-.865 3.112-.778v.13zm-41.08.518c0 .195-.085.346-.278.41-.215.044-.365-.042-.45-.194-.086-.194 0-.388.17-.497.236-.15.473.11.56.28zm1.073.216c.064.108-.042.173-.086.282-.128.064-.3.108-.407 0-.15-.087-.194-.24-.13-.368.066-.13.194-.108.26-.195.15.06.3.13.363.28zm-8.215 2.185c-.215.26-.558-.066-.795-.196-.75-.436-.728-1.28-1.48-1.776.087-.26.28.02.43-.022.128.087.3.173.45.238.73.41.9 1.104 1.395 1.753z" fill="#000"/><path d="M125.827 29.756c-.343-.628-.922-.887-1.61-.887-.556.04-.964.41-1.2.883-.128.475.043.908.408 1.188.15.066.343.045.43-.106.106-.282-.194-.282-.237-.498-.086-.303.022-.563.236-.758.214-.217.58-.11.837-.11.26.174.518.326.647.63.13.366.13.777 0 1.145-.236.54-.772.972-1.33 1.08-1.78.26-21.323.173-21.323.173-2.294.216-4.91-.43-6.884.78-.9.43-1.35 1.425-1.59 2.312-.58.52-1.2 1.124-1.672 1.708l-.064-.064c.108-.52.344-.973.45-1.492.323-.432.323-1.016.56-1.492.815-1.318 1.586-2.66 2.852-3.588.537-.715 1.48-.584 2.295-.584.88.41 1.91.54 2.984.433.04-.044.063-.087.063-.153-.3-.28-.793-.388-1.136-.67-.86-.41-1.674.13-2.575.066-.042-.044-.085-.065-.064-.13.816-.605 1.738-1.038 2.66-1.427.75-.413 1.545-.63 2.34-.93.32 0 .62-.283.92-.088l1.138-.304c.043.02.086.085.172.064.963-.325 2.186-.022 3.28-.043l.15.13 1.03.26c.386.043.558.497.965.52.214-.304-.236-.434-.343-.628.473-.11 1.01.02 1.438.215l-.213.237c-.13.237.064.41.257.496.15.042.26-.066.365-.11.28-.194-.02-.39.062-.56 1.588.28 3.11.67 4.57 1.296.406.13.793.432 1.243.41-.45-.41-1.072-.626-1.63-.864-.365-.216-.88-.238-1.158-.54.063-.11.213-.065.28-.152.727-.086 1.35-.627 1.864-1.21.043-.13.28-.087.258-.26-.193-.217-.515.065-.77.044-.9.17-1.29 1.23-2.19 1.425-1.094-.26-2.21-.52-3.304-.8-.536-.087-1.115-.13-1.608-.347l-1.2-.11h-2.19c-.02-.042-.087-.064-.065-.128.775-.196 1.44-.65 2.21-.845l5.75-2.638c.6-.54 1.137-1.146 1.63-1.772.02-.174-.086-.346-.236-.41-.15-.066-.32-.044-.428.086-.258.196 0 .434 0 .67-.258.347-.666.65-.987.845-.086-.022-5.92 2.66-5.92 2.66-.86.367-1.717.778-2.618.972l-1.244.193c-.086.26-.3.41-.537.496-.342.066-.62.28-.986.28-2.79 1.084-5.684 2.23-7.894 4.435.128-.26.193-.583.214-.907-.043-.324-.02-.69-.236-.952-.05-.12-.206-.466-.156-.59l-.314.203c-.193.475-.364 1.34-.17 1.837.063.39.385.843.084 1.19-1.03 1.252-1.608 2.766-2.295 4.193-.26-.044-.388-.28-.495-.52.73-.93 1.31-1.967 1.523-3.156.15-.106.042-.387.192-.517-.043-.346.193-.69.02-.974.138-.474-.626-.91-.137-1.21l-.404.192c-.923 1.21.48 3.026-.57 4.194v.086c-.3.39-.45.78-.86 1.038-.515-.216-.708-.8-1.008-1.232-.473-.454-.473-1.384-.193-2.01.192-.628-.13-1.17-.194-1.73l-.215-.13c-.513.67-.706 1.73-.3 2.53.216.388.238.93.56 1.253.192.627.58 1.038.922 1.6.086.216-.13.26-.236.367-.234-.15-.19-.497-.406-.648-.71-1.514-1.63-2.726-2.747-3.958-.043-.194-.236-.366-.13-.582.41-.39.494-1.146.28-1.644-.043-.107-.172-.237-.15-.346l-.322-.26c.043.758-.45 1.427-.235 2.228v.043c-2.21-1.665-4.652-3.15-7.14-4.32l-.2.55c.63.16 2.3 1.176 2.3 1.176.75.28 1.436.734 2.144 1.144C87 30.95 88.93 33.63 90.24 36.613c.02.24.236.498.085.736-.45-.693-1.093-1.08-1.63-1.644-.15-1.02-.75-1.99-1.63-2.4-.322-.478-1.007-.52-1.544-.67l-7.806-.046c-6.35-.087-12.14.194-18.45.086-.88-.086-1.95-.39-2.21-1.32-.17-.323-.17-.885 0-1.19.238-.41.667-.54 1.096-.58.343.042.58.366.73.605 0 .28-.237.54-.345.778.023.087.11.26.26.195.278-.108.493-.41.557-.692.022-.15.087-.366-.063-.474-.13-.455-.6-.78-1.01-.887-.537-.044-1.094.107-1.46.496-.514.433-.493 1.21-.342 1.817.343.95 1.35 1.6 2.317 1.73l20.873.086c2.037.106 4.332-.24 6.392.17.75.24 1.545.8 1.737 1.645-.022.04-.086.02-.15.02-1.695-1.104-3.925-1.514-6.093-1.254-.86-.043-1.63.28-2.404.497-.407.087-.794-.108-1.05-.346-.773-.69-2.125-.647-3.11-.39 0 .068-.023.133.02.154 1.05-.087 1.673.82 2.617.93.215.042.387-.196.58-.023-.987.476-1.93 1.04-2.982 1.34-.32-.063-.493-.366-.75-.54-.41-.453-1.16-.26-1.716-.3-.194.042-.365-.087-.495 0 .173.345.56.54.924.713.535.236 1.157-.023 1.65.3-.13.153-.3.196-.45.304-1.01.388-1.846 1.297-2.96 1.232-1.18.13-2.383-.218-3.176-1.04-.345-.843-1.224-1.3-2.168-1.254-.065.043-.15.043-.13.15.472.282.838.844 1.31 1.17.3.366.88 0 1.158.41.41.28.924.518 1.395.604.34.15.73.216 1.114.302l-.15.086c-1.952.647-4.205.712-6.393.626-.642-.02-1.264-.215-1.91-.194.11.13.324.238.516.303-.17.108-.364.15-.578.173-.26.065-.56.087-.817.216-.34-.023-.642.107-.92.215-.365.39-.794.8-1.22.994 0 .085-.024.215.084.215.407-.174.922-.044 1.33-.217.707-.066 1.115-.845 1.673-1.17.6-.474 1.458-.366 2.187-.258.43.107-.042.28.086.562.173.15.323.323.56.258.042-.043.085-.086.15-.107.128-.175.107-.37.02-.54.3-.197.708.02 1.03-.11.816-.02 1.63-.195 2.425-.216.13-.02.28-.15.408-.02-.062.172-.277.194-.19.43.04.195.256.282.428.325.215-.086.41-.238.32-.52-.04-.15-.212-.172-.32-.237.45-.218.966-.282 1.416-.498.323-.065.623-.174.903-.303.28-.023.513-.282.77-.174-.107.367-.257.713-.45 1.038-.343 1.146-.6 2.66 0 3.762.065.02.086-.022.13-.044-.45-1.145-.194-2.464.192-3.545.3-1.84 2.188-2.38 3.54-3.07l.063.087c-.364.95-.9 1.86-.814 3.006.044.194-.085.388 0 .518.365-.194.6-.626.794-.994.15-.972-.408-2.183.58-2.896 1.76-.693 3.41-1.6 5.447-1.623.065.065.216-.043.237.086-.43.477-1.05.93-1.245 1.515-.686.95-.665 2.573-.365 3.74.194.67-.386 1.038-.665 1.557-.133.185-.17.5-.294.71l.423.047c.365-.39.708-.865.73-1.428.043.217.235.39.407.433.15-.238-.13-.41-.15-.65.343-.193.493.24.772.326.45.108.835.3 1.307.3l.15-.15c-.47-.734-1.415-.863-2.23-.907-.43-.713-.43-1.6-.386-2.464.087-.456.173-.93.43-1.34.107-.305.407-.586.6-.823.387-.37.88-.63 1.352-.738h.065c0 .044.02.066.02.066-.578.453-.642 1.08-.985 1.642-.365.54-.537 1.275-.193 1.88.13.28.063.713.363.91.28-.39.3-.888.45-1.32-.064-.714-.492-1.384-.085-2.076.215-.54.665-.757 1.158-.95 1.18-.11 2.21.496 3.24.95.214.15.578.28.622.583-.023.584-.343 1.167-.794 1.45-.58.344-1.415.387-1.95-.023-.323-.325-.45-.887-.345-1.32.235-.258.56-.475.943-.345.214.106.407.322.686.192.106-.064.15-.237.084-.346-.234-.13-.32-.455-.642-.497-.408-.064-.902-.043-1.18.24-.45.39-.623.97-.494 1.512.15.69.665 1.19 1.33 1.383.986.237 2.017-.066 2.64-.91.256-.28.32-.583.47-.93 1.03.628 1.802 1.73 2.21 2.855 0 .37.107.758.02 1.082l.75.065c-.063-.174 0-.368.067-.52.28-1.427 1.16-2.616 2.21-3.546.365-.215.28.283.365.434.32.82 1.072 1.404 1.866 1.643.9.15 1.76-.066 2.317-.757.278-.52.622-1.277.15-1.816-.3-.368-.71-.563-1.18-.563-.558 0-.9.39-1.18.8 0 .174-.02.368.13.455.084 0 .256.023.32-.107.044-.325.322-.477.58-.65.236-.13.493 0 .686.13.235.194.28.518.3.843-.044.41-.32.844-.708 1.017-.624.323-1.525.17-2.06-.197-.258-.28-.408-.605-.6-.95-.045-.347-.173-.65 0-.996.942-.563 1.93-.973 3.066-1.08.45.085.838.39 1.138.712.987 1.017-.214 2.466.472 3.59.257-.043.257-.39.365-.605.322-.777-.086-1.62-.28-2.377-.257-.477-.406-.888-.814-1.277.107-.04.15-.04.257-.04.45.3.945.647 1.31 1.123.62 1.015.944 2.225.836 3.545-.17.647-.858.95-1.394 1.19-.216.17-.474.43-.58.69.256.15.62 0 .88-.108.406-.15.642-.67.92-.908.043.02.023.086.043.13.02.237-.108.56.107.626.11-.302.13-.735.194-1.102.28.304.32.69.408 1.08.193.39.514.91 1.03.974.128-.193-.022-.39-.065-.56-.065-.54-.515-.82-.815-1.21-.75-1.04-.408-2.66-.987-3.828-.213-.627-.664-1.08-1.158-1.6l.086-.085c1.052-.02 1.93.325 2.896.52 1.18.583 2.894.454 3.452 1.988.236.865.622 1.665 1.222 2.336l.065-.045c.13-.216.13-.584 0-.8-.13-1.08-1.074-1.34-1.567-2.248l.063-.087c.514.15 1.05.28 1.565.498 1.717.475 2.917 2.162 3.13 3.913 0 1.386-.255 2.53-.79 3.7-.065.172-.365.366-.17.517.234-.172.28-.453.405-.648.707-1.19 1.072-2.833.707-4.347-.02-.28-.342-.496-.192-.777.108.13.237.153.365.196.13-.087.322-.087.407-.238.022-.13.107-.28 0-.39-.128-.194-.407-.194-.62-.15-.11.13-.237.302-.26.475-.214-.37-.428-.844-.772-1.147l.043-.065c.967.325 1.846.8 2.833 1.06.216.13.45.238.75.238.838.324 1.76.453 2.64.67.644-.065 1.18.238 1.824.086v-.044l-.02.022c-.237-.304-.75-.022-1.03-.238-1.48-.152-2.896-.54-4.226-1.06.02-.066.106-.044.17-.044.215-.108.365-.302.344-.54-.107-.152-.28-.238-.494-.238-.128.065-.3.216-.322.367.022.174.172.37.322.41-.042.045-.128.024-.192.024-.666-.302-1.31-.583-1.953-.885-.238-.044-.43-.24-.667-.282-.492-.238-.986-.475-1.48-.67-1.372-.713-2.895-1.102-4.354-1.62-.323-.088-.623-.175-.923-.26-.536-.152-1.072-.282-1.61-.434-1.82-.454-4.267-.497-5.854.497-.258-.087-.41.324-.538.065.45-1.19 1.76-1.58 2.94-1.623 8.6-.088 16.667-.153 25.14-.283.987 0 1.952-.346 2.467-1.233.363-.518.428-1.405.15-1.988h-.003zM91.72 37.734c-.086.26-.257.475-.235.756l-.087.043c.065-.324-.257-.52-.17-.864-.173-.26-.173-.588-.323-.87-.193-.346.17-.497.322-.735.3.13.407.41.622.67.125.368-.155.65-.13.996z" fill="#000"/><path d="M114.994 36.37c0 .066.13.087.086.196-.75.67-1.8.865-2.875.908-.085.022-.17.087-.277.065-.065-.047-.087-.11-.044-.156.773-.843 1.952-1.275 3.11-1.016zm-3.454.347c.086.303-.106.476-.342.584-.236-.02-.364-.17-.473-.342-.063-.173.086-.26.15-.368.172-.174.58-.174.666.13zm-40.777.043c.042.152.02.346-.107.455-.087.107-.28.13-.387.107-.155-.02-.24-.194-.28-.324 0-.194.104-.302.28-.41.17 0 .36-.022.49.173zm-3.84 1.405v.152c-.516.108-1.008-.022-1.395-.324-.3-.432-.643-.865-1.136-1.08 0-.066-.13-.152 0-.196 1.072 0 1.716.865 2.53 1.448zm51.332-1.425c-.494.734-.923 1.642-1.8 1.966-.152 0-.28.217-.41.065.344-.82 1.073-1.704 1.91-2.05.085 0 .214-.02.3.02zm-46.248.258c.02.238-.15.282-.3.41-.172.023-.258-.107-.366-.237-.08-.212.11-.3.22-.41.17-.04.364.09.45.24zm48.95.13c-.192.28-.106.692-.3.995-.43.497-.794 1.06-1.48 1.167-.106-.216.15-.432.258-.627.3-.65.73-1.383 1.416-1.665l.11.13zm-60.684.194c.064.152.13.303 0 .477-.13.103-.322.15-.493.08-.193-.106-.257-.344-.172-.517.13-.195.515-.303.665-.044zm-1.223.26c.022.108.086.195.064.302-.063.11-.17.24-.3.26-.235.044-.385-.086-.492-.28-.022-.195.042-.368.213-.455.194-.09.408.02.516.17zm2.53.13c.044.172.088.476-.17.518-.3.13-.472-.085-.643-.26 0-.193.107-.345.257-.43.214-.023.407 0 .557.172zm3.52.28c-.022.153.02.37-.15.41-.108.11-.3.067-.408.045-.043-.13-.28-.238-.15-.39.085-.108.17-.173.3-.237.128.064.322 0 .408.173zm57.917.153c-.064.15-.15.345-.322.345-.193-.02-.386-.043-.493-.24-.086-.236.107-.366.28-.43.213 0 .493.086.535.325zm-3.925.105c.02.175-.172.305-.258.37-.3.13-.557-.087-.665-.325.04-.194.19-.324.36-.39.28-.02.43.13.56.346zm2.658-.04c0 .15-.084.302-.19.366-.173.065-.387.044-.516-.086-.193-.173-.043-.325.085-.454.19-.108.554-.087.62.173zm-62.035.366c.043.238-.042.454-.257.54-.193 0-.407-.107-.472-.302-.02-.194.043-.39.215-.453.218-.062.39.068.518.22zm58.305.238c.063.238-.065.454-.3.563-.173.043-.28-.044-.41-.152-.084-.108-.192-.346-.02-.454.17-.32.6-.19.73.047zm-46.764.238c.085.238-.172.28-.236.41-.086.044-.257.066-.322-.02-.107-.13-.235-.26-.172-.454.107-.087.15-.174.28-.217.236-.06.322.156.45.285zm51.374.152c.044.15-.085.216-.106.324-.128.108-.343.13-.494.087-.193-.11-.193-.282-.193-.476.13-.09.15-.2.3-.24.194 0 .43.085.494.3zm-1.33.064c.087.26-.15.39-.32.455-.087.02-.215-.044-.237.086.558.28.9.73 1.33 1.142v.173c-.772-.022-1.566-.217-2.124-.822-.15-.108-.41-.108-.58-.26.28-.28.792-.172 1.18-.194.28-.3-.325-.52.04-.778.13-.022.215-.15.387-.108.15.064.234.173.32.302zm-8.773.022c.044.108-.085.238-.106.346-.125.13-.32.152-.47.087-.11-.152-.28-.28-.213-.498.172-.324.73-.26.793.065zm-47.964.756c-.064.195-.15.325-.364.346-.177-.02-.326-.086-.39-.26-.02-.15.085-.236.106-.344.236-.195.665-.065.643.258zm1.737-.28c0 .302-.32.475-.428.778-.322.714-.9 1.362-1.716 1.427-.086-.19.28-.43.365-.623.347-.735 1.03-1.124 1.655-1.578h.13zm45.712.302c.022.238-.193.41-.364.498-.193.065-.343-.087-.45-.174-.172-.172-.065-.346.02-.518.26-.26.623-.044.794.194zm1.33.152c-.02.237-.17.41-.385.475-.044-.064-.15-.02-.215-.043-.15-.086-.28-.216-.28-.39.11-.107.152-.28.302-.3.193-.023.515 0 .58.258zm-43.716-.022c.02.238-.15.368-.322.454-.193.022-.322-.108-.408-.26-.042-.194.15-.324.258-.43.256-.088.32.106.472.236zm1.48.086c-.064.195-.193.325-.408.368-.15-.043-.322-.086-.386-.26-.02-.216.15-.324.3-.43.214 0 .45.084.494.322zm46.85 1.514c.106.086.3.194.256.346-.343.15-.622-.238-.943-.303-.52-.515-.905-1.08-1.12-1.73.193-.19.407.048.58.11.493.41.964.95 1.222 1.58zm.792-1.514c.065.152.043.325-.042.476-.13.216-.408.173-.6.13-.108-.13-.3-.303-.173-.498.065-.172.257-.216.408-.28.15-.02.26.108.41.172zm-45.668.563c.02.173.063.432-.15.54-.194.044-.452-.02-.516-.26-.107-.26.13-.302.257-.432.176-.043.28.043.41.152zm40.2 1.405c.3.432.513.973.556 1.535-.065.15.107.303-.02.41h-.087c-.97-.69-1.18-1.664-1.55-2.637-.084-.043-.107-.13-.084-.216.213-.194.363.195.578.26l.6.648zm-37.412-.735c-.022.022 0 .043.022.043-.858.606-2.06.973-3.047.39-.02-.066.022-.174.107-.195.623-.195 1.224-.497 1.89-.41l1.028.172zm-4.89.108c-.73.454-1.395 1.34-2.296 1.557-.172.064-.28.302-.494.173.386-1.168 1.652-1.795 2.79-1.903v.173zm41.034.972c.064.174 0 .412-.17.455-.108.108-.323.108-.408 0-.193-.086-.193-.28-.193-.433.068-.155.218-.176.326-.24.192.042.343.042.45.214zm-1.78.11c-.13.302-.493.475-.772.56-.73.26-1.394-.085-2.038-.26.022-.17.236-.107.344-.214.708-.152 1.436-.303 2.187-.11.065-.042.215-.064.28.023zm-39.255.626c-.064.087-.086.28-.257.346-.15.06-.3 0-.43-.09-.042-.13-.193-.238-.085-.39.043-.15.215-.194.343-.237.215.02.386.15.43.367zm1.266.195c-.064.13-.13.324-.3.41-.172.043-.3-.043-.43-.15-.064-.13-.13-.282-.064-.433.04-.11.19-.13.3-.195.21-.02.404.195.49.368zm39.362.216c.02.172-.064.28-.15.41-.107.152-.322.173-.472.087-.15-.02-.193-.19-.258-.3-.128-.172.086-.28.15-.43.237-.196.623-.087.73.237zm.945-.044c.02.11.085.216.042.303-.13.108-.215.39-.472.28-.128.044-.192-.128-.257-.172-.086-.212-.022-.54.257-.58.193-.064.322.11.43.17zm-41.08.627c.043.238-.043.454-.214.584-.236.048-.536.048-.623-.233-.02-.217 0-.498.258-.628.22-.02.476.02.58.28zm1.223-.087c-.043.606-.17 1.342-.772 1.687-.34.065-.683.39-1.03.173v-.108c.45-.648 1.27-1.146 1.806-1.75zm35.544.498c.086.13-.064.238-.13.347-.127.15-.363.086-.513.02-.15-.064-.172-.28-.107-.43.042-.13.17-.196.28-.24.192-.02.363.152.47.303zm-33.397.995c.298.497.127 1.168.298 1.708-.364.047-.515-.364-.75-.58-.472-.65-.407-1.513-.622-2.27.043-.065.107-.065.15-.043.32.216.558.627.815.907-.04.153.13.153.11.283zm34.47-.823c0 .175-.193.218-.3.326-.15-.022-.28-.087-.408-.195-.064-.212.107-.28.214-.385.215-.087.43.022.494.26zm2.553 1.926c0 .065-.022.194-.13.15h-.085c-.622-.56-1.244-1.188-1.158-2.053l.128-.022c.58.5 1.223 1.04 1.245 1.93zm-1.61-.693c.023.174-.085.304-.193.41-.235.066-.6.045-.643-.28-.02-.216.215-.324.322-.432.254-.06.425.11.51.306zm-1.415.455c-.3.8-1.116 1.21-1.673 1.816-.107-.065-.065-.238-.043-.325.214-.825.858-1.625 1.65-1.95.345.044 0 .282.066.455zm1.61.65c0 .193-.194.28-.3.387-.173-.02-.344-.065-.473-.237-.022-.216.15-.28.278-.39.215-.043.408.065.494.24zM94.484 7.994c.294 0 .53.24.53.534 0 .294-.236.533-.53.533h-6.36c-.294 0-.532-.24-.532-.533 0-.295.238-.535.53-.535h6.362zm-4.497.925c.62 0 .033-.757-.3-.757h-.622c-.622 0-.034.755.3.755h.622zm2.606 0c.62 0 .033-.757-.3-.757h-.622c-.62 0-.032.755.3.755h.624zm1.92-.757h-.236c-.622 0-.094.755.24.755.415 0 .44-.756-.003-.756zm-.586 7.133l1.215.467 1.195-.467-.473 1.79.947-.196-.32 1.086.32 1.042-.84-.23.366 1.93-1.195-.465-1.214.466.495-1.93-.97.27.26-1.086-.26-1.04.928.15-.453-1.79zm1.793 3.23c.275 0 .3-.377.3-.7 0-.74-.585 0-.884-.697-.217.587-.817.045-.817.674 0 .434-.006.723.425.723h.975zm-1.19-.665c0 .283.378.095.658.095s.656.188.656-.094c0-.4-.376-.26-.656-.26s-.657-.14-.657.26zm-3.447.07v-.227l-.204-.04.155-.165-.1-.184.21.022.127-.224.123.22.212-.02-.1.183.16.165-.204.04v.226l-.192-.144-.19.145zm-.943 1.215v-.226l-.205-.038.16-.166-.098-.183.21.022.125-.222.123.218.212-.016-.1.183.16.166-.203.04v.225l-.192-.145-.192.143zm1.6-.154v-.227l-.203-.038.16-.166-.1-.18.21.02.126-.22.123.217.212-.02-.1.184.16.168-.203.036v.228l-.192-.144-.193.144zm.19.908v-.13l-.116-.02.09-.095-.056-.103.118.013.072-.125.07.125.12-.01-.057.102.09.094-.11.023v.13l-.11-.083-.11.08zm-1.488 1.04v-.39l-.348-.067.273-.284-.17-.315.358.04.217-.38.21.375.363-.034-.17.314.274.284-.35.066v.39l-.33-.248-.33.246zM91.2.545l.754 1.858 1.914-.563-.97 1.757 1.63 1.157-1.967.33.12 2.003L91.2 5.74l-1.482 1.345.12-2.004-1.967-.325 1.63-1.157-.97-1.755 1.916.565.756-1.86zM84.278 42.24c-.227.084-.316.148-.26.383l.27 1.14c.05.21.065.543-.076.746-.167.24-.52.4-.777.46-.186.044-.59.12-.917-.018-.215-.093-.354-.19-.445-.577l-.283-1.193c-.07-.3-.183-.28-.426-.245l-.02-.09 1.436-.346.022.09c-.278.08-.41.114-.335.43l.282 1.192c.044.203.16.696.773.55.75-.18.628-.73.574-.958l-.258-1.09c-.053-.218-.133-.327-.5-.253l-.023-.09.937-.224.02.09zm2.132.238c-.132-.234-.48-.59-.983-.476-.222.05-.433.21-.382.443.042.193.14.253.533.324l.685.12c.16.03.53.162.616.553.065.315-.11.81-.9.986-.405.09-.624.012-.756.04-.09.02-.097.09-.1.15l-.125.03-.195-.887.124-.027c.164.343.502.693 1.044.57.513-.113.456-.473.446-.52-.05-.24-.27-.28-.572-.33l-.31-.05c-.796-.132-.865-.44-.9-.605-.05-.22-.024-.735.788-.916.34-.076.57-.003.692-.03.098-.023.108-.08.114-.154l.13-.03.17.78-.12.028zm2.83 1.416l-1.555.15-.008-.092c.316-.052.42-.07.39-.377l-.183-1.928c-.302.044-.75.105-.782.7l-.126.012-.057-.74 2.61-.25.08.732-.126.012c-.144-.577-.593-.552-.896-.538l.182 1.927c.03.31.135.308.46.295l.007.09zm3.64 0l-.898-.018-.882-1.167-.12-.007-.013.72c-.006.295.09.307.378.346l-.002.092-1.477-.03v-.09c.3-.024.387-.034.392-.33l.032-1.626c.006-.316-.13-.326-.378-.346l.002-.09 1.408.028c.307.006 1.233.054 1.22.67-.008.453-.46.558-.7.616l.86 1.065c.06.064.126.07.178.07v.092zm-1.896-1.305c.572.003.8-.07.81-.55.008-.37-.168-.534-.518-.54-.24-.005-.25.035-.274.15l-.018.936z" fill="#000"/><path d="M95.75 44.263l-1.407-.177.01-.09c.273.015.35.02.366-.1.01-.098-.097-.385-.14-.51l-.98-.12c-.154.245-.24.386-.25.444-.016.14.19.176.337.202l-.01.09-.883-.11.01-.09c.24 0 .315-.117.48-.373l1.21-1.88.122.014.73 2.038c.146.415.2.548.41.567l-.01.09zm-1.218-1.027l-.33-.94-.516.835.846.11zm3.764 1.546l-2.488-.457.017-.09c.245.018.377.03.416-.19l.32-1.75c.044-.238-.13-.278-.322-.324l.016-.09 1.503.28-.017.09c-.303-.044-.438-.065-.495.253l-.31 1.707c-.03.173.058.22.347.272.65.12.946-.137 1.217-.51l.123.024-.324.788zm1.652.37l-1.5-.315.02-.09c.234.03.404.05.45-.172l.36-1.74c.05-.238-.15-.287-.346-.34l.02-.09 1.497.316-.02.09c-.205-.03-.41-.07-.46.17l-.36 1.74c-.05.23.12.28.353.345l-.018.09zm3.042.39l-1.412-.146.01-.092c.272.01.35.014.363-.106.01-.1-.1-.384-.15-.507l-.98-.1c-.145.25-.23.396-.24.45-.01.14.198.175.345.198l-.01.09-.883-.09.01-.092c.237-.004.31-.122.47-.383l1.17-1.9.122.01.777 2.024c.156.412.213.543.42.558l-.01.092zm-1.24-1l-.35-.934-.5.845.85.088zm-9.947-28.65c0-.883-.495-.056-.768-.806-.2.635-.796.1-.796.783 0 .26.064.41.19.49v.26c0 .07.055.124.122.124h.936c.07 0 .122-.055.122-.122v-.282c.112-.096.19-.25.19-.45zm-.765.17c-.257 0-.603.177-.603-.13 0-.432.292-.335.55-.335.257 0 .657-.097.657.336 0 .306-.346.13-.604.13zm8.442 10.663c.222 0 .403-.16.403-.357 0-.197-.18-.357-.404-.357-.228 0-.41.16-.41.36 0 .198.18.358.406.358zM97.576 13.65s-.19.32-.19.38c0 .116.087.21.194.21.105 0 .19-.094.19-.21 0-.007-.194-.38-.194-.38zm-12.956 0s-.19.32-.19.38c0 .116.087.21.194.21.106 0 .192-.094.192-.21 0-.007-.196-.38-.196-.38zm3.24 0s-.19.32-.19.38c0 .116.086.21.192.21.107 0 .193-.094.193-.21 0-.007-.196-.38-.196-.38zm3.24 0s-.19.32-.19.38c0 .116.085.21.19.21.107 0 .194-.094.194-.21 0-.007-.195-.38-.195-.38zm3.237 0s-.19.32-.19.38c0 .116.087.21.193.21.107 0 .193-.094.193-.21 0-.007-.196-.38-.196-.38zm-9.71 4.45s.19.32.19.38c0 .117-.087.21-.193.21-.107 0-.193-.093-.193-.21 0-.007.2-.38.2-.38zm0 4.324s.19.32.19.38c0 .117-.087.21-.193.21-.107 0-.193-.093-.193-.21 0-.006.2-.38.2-.38zm.518 3.424s.19.32.19.38c0 .116-.087.21-.193.21-.106 0-.193-.094-.193-.21 0-.007.192-.38.192-.38zm2.717 1.82s.19.32.19.38c0 .115-.086.21-.193.21-.11 0-.197-.095-.197-.21 0-.007.196-.38.196-.38zm9.88-9.568s-.19.32-.19.38c0 .117.087.21.192.21.106 0 .193-.093.193-.21 0-.007-.195-.38-.195-.38zm0 4.324s-.19.32-.19.38c0 .117.087.21.192.21.106 0 .193-.093.193-.21 0-.006-.195-.38-.195-.38zm-.52 3.424s-.19.32-.19.38c0 .116.088.21.194.21.106 0 .192-.094.192-.21 0-.007-.195-.38-.195-.38zm-2.716 1.82s-.19.32-.19.38c0 .115.086.21.192.21.107 0 .193-.095.193-.21 0-.007-.19-.38-.19-.38zM91.2 29.595s-.19.32-.19.38c0 .115.085.21.192.21.106 0 .192-.095.192-.21 0-.008-.195-.38-.195-.38zm5.27-6.45c.04.06.142.08.27.036l.124-.35c.01-.02-.142-.16-.232-.14-.346.085-.712.127-.917.455 0 .226.163.43.327.534.122-.044.142.08.224.14.02.103-.04.186-.143.186-.245-.246-.672.082-.856-.227.08-.307.245-.657-.02-.945.02-.06.122-.123.06-.184-.1-.286-.407-.06-.59-.06-.306-.04-.55.122-.734.37.02.1.06.204.163.307.082-.02.123 0 .143.083l-.208.124c.06.06.06.144.082.225-.143.06-.286-.146-.347-.25 0-.163.02-.45-.205-.492-.04 0-.177.06-.177.06-.05.062-.084.19-.084.34 0 .145.08.366.08.366s.63.466.77.753c-.18.37-.18.882-.61 1.087-.12.082-.12.206-.12.33l.1.08c.266-.142.775-.183.735-.635.1-.186.203-.39.386-.535.205-.044.39.06.47.223-.062.31-.265.515-.55.617-.04.04-.02.102-.02.164.08.144.305.082.427.062.347-.227.49-.637.795-.76.04.205-.407.267-.122.472.184-.042.43.02.55-.227-.14-.35.49-.513.103-.82 0-.307.326-.43.306-.76-.12-.328-.51-.328-.61-.636.12-.082.303-.06.426 0zM81.584 26.88c.224 0 .405-.16.405-.356 0-.197-.185-.356-.41-.356-.222 0-.403.16-.403.356 0 .197.18.356.403.356zM60.576 39.164c.22 0 .398-.17.398-.382 0-.21-.178-.382-.398-.382-.22 0-.398.17-.398.382 0 .21.178.382.398.382zm13.494 2.95c-.006-.013-.022-.035-.057-.035-.014 0-.03.002-.03.014 0 .01.006.015.03.023l.04.013c.01.005.034.017.034.036 0 .017-.02.04-.072.04-.027 0-.04-.007-.048-.007-.007 0-.008.003-.01.006h-.008v-.048h.005c.006.02.02.04.058.04.035 0 .036-.02.036-.022 0-.01-.014-.016-.03-.02l-.02-.01c-.05-.016-.05-.032-.05-.042 0-.01.01-.038.062-.038.023 0 .036.007.046.007.005 0 .006-.004.01-.008h.005v.04h-.008z" fill="#000"/><path fill="#000" d="M74.152 42.08c-.005 0-.008.005-.01.012l-.028.12h-.004l-.024-.093-.027.09h-.008l-.03-.12c-.003-.01-.005-.01-.01-.01v-.01h.04v.007c-.004 0-.008 0-.008.007v.007l.018.07.018-.06-.004-.02c-.002 0-.004-.004-.01-.004v-.007h.044v.005c-.005 0-.01 0-.01.006 0 .003 0 .01.003.01l.015.068.015-.07v-.006c0-.01-.004-.01-.01-.01v-.006h.027v.006zm.08.037c.03 0 .047.002.068.01.015.005.033.016.033.037 0 .026-.033.048-.09.048-.022 0-.043-.007-.043-.018 0-.006.007-.013.02-.013.02 0 .04.02.058.02.012 0 .03 0 .03-.02 0-.01-.015-.02-.033-.025-.02-.007-.043-.007-.065-.01l.03-.068h.098l-.013.026h-.085l-.007.018zm24.42-28.98v-.01h-14.95v.01l.01 11.43c0 1.168.494 2.187 1.176 2.5l5.75 3.654c.125.148.313.24.524.24.18 0 .344-.07.467-.182l5.834-3.707c.683-.314 1.176-1.333 1.176-2.5l.01-11.43zm-.42 11.584c-.078.87-.372 1.59-.97 1.998L91.626 30.3h-.03c-.12.095-.27.154-.434.154-.17 0-.32-.062-.442-.16l-5.626-3.58c-.598-.407-.892-1.127-.97-1.993V13.54h14.108v11.18zm-5.042 5.13l.182-.136c-.076.043-.132.09-.18.138zM81.913 45.428l-1.408.163-.01-.094c.267-.05.346-.062.33-.182-.01-.1-.18-.353-.255-.463l-.978.116c-.09.277-.143.435-.137.493.016.136.226.123.375.113l.01.092-.882.102-.01-.092c.23-.056.277-.188.377-.477l.735-2.11.122-.016 1.188 1.81c.242.366.326.482.533.45l.01.09zm-1.424-.708l-.545-.836-.306.934.847-.1z"/><path d="M106.67 40.068c-.256-.67-.792-1.124-1.457-1.34-.687-.152-1.416-.044-1.867.476-.772.626-.235 1.664-.214 2.507 0 .177.022.307-.15.39-3.11-.28-6.006-1.06-9.095-1.38-.71-.123-1.422-.09-2.097-.234l-.863-.09c-2.682.086-5.363.238-7.873.886-.536.173-1.137.216-1.673.41-.382-.064-.704.217-1.07.11l-.705.164c-.067.012-.145.01-.237-.014-.344-.888.686-1.428.364-2.293-.28-.5-.836-.975-1.48-.888-.73-.086-1.373.326-1.716.888-.494 1.08.13 2.205.32 3.264-.042.346.345.736 0 1.016-.685-.475-1.586-.735-2.423-.497-.255.13-.73-.04-.856.26.922.5 2.102.435 3.13.39.13-.042.216-.063.323.02.086.566-.107 1.32.236 1.82.386.52 1.03.65 1.652.713 1.974-.064 3.732-.648 5.534-1.102.28-.02.492-.172.793-.172.965-.216 2.016-.39 3.046-.41-.45.583-.707 1.232-.9 1.946-.26.584.45.67.664.995-.665.193-1.137.65-1.76.907-1.372-.043-2.53.476-3.817.626-.022.28.45.194.493.476-.065.193-.258.215-.408.323-.02.13 0 .15.13.173.13-.15.408-.044.537-.195.43 0 .79-.13 1.2-.15.363-.15.77-.173 1.093-.433.45-.13.73-.432 1.18-.56.644 0 1.223-.218 1.824-.26v.13c-.494.8-1.008 1.62-1.523 2.377-.085.152.022.304.15.346.3.086.6 0 .838-.13.45-.778.858-1.514 1.223-2.313.15-.735.687-1.125 1.223-1.622.085-.043.213-.173.3-.043-.43.496-.708.972-1.03 1.513-.173.605-.215 1.383.322 1.88.256.217.642.152.985.174.837-.435 1.91.26 2.553-.565.386-.065.45.39.665.606.365.11.75.476 1.116.217-.023-.238-.28-.454-.41-.67-.256-.454-.58-.822-.814-1.232-.108-.303-.3-.498-.344-.8.386.13.728.39 1.158.453.366.15.816.13 1.16.347.28.366.707.583 1.072.82.535.26 1.137.303 1.694.52.216.02.537.194.686 0-.087-.108-.194-.173-.322-.238-.065-.28.386-.13.537-.347-.053-.106-.147-.15-.25-.164-.307-.166-1.072-.223-1.274-.334-.255-.043-.492-.152-.75-.238-1.285 0-1.993-1.168-3.023-1.6.236-.216.6-.39.75-.713.194-.303.258-.8.065-1.146-.192-.67-1.05-.586-1.543-.95l.063-.067c.837-.044 1.567.15 2.317.302 2.06.28 3.97 1.06 6.114 1.103 1.18 0 2.66.064 3.24-1.08.107-.67.236-1.342.343-2.012.256-1.08.963-2.075.856-3.265zm-23.166 9.86l-.3-.282c.15-.194.472-.087.708-.217.558-.176 1.2-.39 1.823-.26-.643.52-1.48.58-2.23.754zm13.392-.345c.513.23 1.545.457 2.288.54-.066.295-.59.02-.53.433-.664-.26-1.436-.39-1.93-.908.044-.022.087-.087.172-.065zm-20.127-9.19c.06-.39.15-.8.51-1.08.516-.283 1.224-.217 1.695.064.15.086.258.216.344.41.106.368-.065.757-.323.973h-.215c0-.346 0-.692.13-.972-.022-.26-.237-.282-.408-.39-.366-.108-.687.065-.966.217-.216.26-.41.583-.28.95.15.24.022.563.107.822l-.065.087c-.257-.28-.6-.584-.536-1.082zm1.004.617c.32.238.772.13 1.16.195.062.238.062.54-.11.736-.363-.083-.835-.04-1.028-.385.04-.152-.066-.368-.023-.542zm-.064-.726c.065-.173 0-.432.236-.475.15-.047.386-.047.408.13-.022.255-.043.514-.107.752-.302.022-.45-.15-.537-.41zm10.06 6.94c-.106-.756.195-1.405.688-1.945.3-.07.642-.13.92.04-.557.15-1.265.28-1.393.994.02.28-.065.432.064.67.235.41.77.238 1.072.562 0 .107-.086.236-.193.258-.365-.216-.816-.302-1.16-.583zM87 48.717c.516-.216 1.052-.67 1.63-.475-.406.325-1.07.455-1.63.476zm2.04.217c-.3.69-.645 1.362-1.052 2.032-.043.107-.215.13-.343.152 0-.303.3-.54.43-.8.45-.584.577-1.21 1.092-1.773.13.13-.128.216-.128.39zm.535-1.254v.085h-.044v-.108h.09c-.02 0-.064 0-.086.022h.045zm-.193-.585c-.365-.043-.708-.15-1.03-.26-.215-.216 0-.453 0-.692.3-.474 1.16-.713 1.566-.28-.064.475-.235.886-.536 1.232zm.472 0c.064-.28.193-.648.343-.908-.02.28-.15.67-.343.908zm.236-1.75c-.28-.066-.43-.39-.73-.39.258-.087.515-.065.816-.022.107.152-.065.28-.086.41zm.257.647h-.02v-.237h.02v.237zm.022.995c-.026-.086.04-.195.06-.303.107-.108.214.087.257.152-.065.108-.194.172-.32.15zm.32-1.34c.105-.303.13-.562.32-.8.214 0 .41 0 .58.086.04.432.58 1.016 0 1.384-.195.086-.474.28-.688.086-.28-.238-.322-.454-.215-.757zm1.563-.606c-.043-.19.194-.04.28-.13l.665.048c-.344-.044-.773.756-.945.086zm1.073.285c-.258.087-.45.39-.71.454.13-.24.452-.477.71-.455zm-.902 1.34v.066h-.022v-.065h.022zm.043 1.32c-.02.042.022.107-.043.15l-.494-.388c.238-.044.41.064.538.238zm-.58-.67c.043-.044.15-.044.194 0h-.192zm-.3-.325c.085-.13.194-.325.343-.325 0 .02.023.043.045.065-.13.107-.236.215-.386.26zm-.493-.044h-.086l.13-.13c.063.043-.023.087-.044.13zm.064.82c.28-.3.536.174.644.412.322.475 1.158.908.837 1.557-.408.367-1.05.02-1.5.302-.237-.022-.645.043-.77-.195.233-.69.45-1.47.79-2.074zm-.6.412l.107-.173c-.173.52-.43 1.06-.71 1.556-.127-.52.41-.93.602-1.382zm.944 2.573c-.408.02-1.03.26-1.416-.086.02-.173-.173-.26-.15-.432.342-.13.642.28.964-.02.493.02 1.008-.066 1.5.043.238.065.603-.39.645.065-.17.713-1.03.216-1.545.432zm1.244-3.113v-.065h.04v.066h-.04zm.13 1.363c.02.215.233.3.105.496-.042-.086-.17-.28-.106-.497zm.6 1.296l-.11.043c-.106-.088-.064-.327-.042-.456.127.108.235.26.15.41zm1.07.52c-.02.063-.13.063-.17.02-.644-.822-.945-1.686-1.35-2.594l.083-.02c.515.844.923 1.773 1.44 2.595zm.795-1.99c-.042.02-.042.065-.042.086-.622.024-1.03-.344-1.502-.67l-.02-.107c.58.044 1.05.412 1.566.693zm-.557-2.876c.257.063.278.344.3.56-.022.476-.28.887-.73 1.06-.235.13-.6.173-.836.086.515-.022 1.073-.216 1.287-.735l-.022-.97zm-.472-.09c.108.304.3.586.193.953-.213.41-.643.41-1.03.498-.192.02-.342-.04-.492-.15.023-.086-.02-.15-.085-.215.063-.28-.495-.562-.11-.8.345-.325 1.16-1.06 1.525-.282zm10.898-1.577c-.172.216-.022.562-.236.757 0 .39-.323.584-.6.736-2.553.562-5.063-.302-7.53-.735-3.454-.753-7.486-.97-11.005-.17-1.65.304-3.26.69-4.847 1.147-.987.13-2.06.28-3.003-.022-.77-.368-.45-1.362-.686-2.054.044-.54-.15-.972-.17-1.49-.065-.174-.108-.39-.086-.564.32.044.643.282.987.368 1.803.345 3.41-.238 5.084-.54 1.61-.346 3.26-.628 4.956-.757 1.93-.022 3.904-.13 5.748.195.6.02 1.118.174 1.697.218 1.2.15 2.317.475 3.54.562.193.063.428.063.643.107 1.93.3 4.096.842 5.94 0 0 .777-.32 1.49-.43 2.247zm-.6-2.637c.02.345-.3.26-.473.39h-.516c-.107-.174-.063-.433-.063-.606.343.065.73.065 1.05.217zm-.237-.54c.237-.24-.063-1.6.6-.715 0 .177.023.436-.15.566-.106.086-.277.26-.45.15zm1.74-.217c-.193.39-.494.67-.923.732.023-.52.495-.887.323-1.47-.28-.412-.836-.54-1.35-.432-.19.13-.105.346-.17.54l-.086.714c-.43 0-.45-.39-.58-.692.022-.454.216-.907.666-1.124.344-.173.9-.15 1.245.043.28.066.6.196.707.456.324.303.24.843.174 1.232z" fill="#000"/><path stroke="#000" stroke-width="1.28" d="M.516 76.836h181.352"/><path d="M.406 89.296V89.1h.238c.21 0 .368-.032.478-.096.113-.067.197-.157.25-.27.032-.075.048-.298.048-.67v-4.74c0-.367-.02-.597-.06-.69-.038-.09-.117-.17-.238-.238-.116-.07-.276-.107-.478-.107H.406v-.2h3.222c.86 0 1.55.117 2.075.35.64.287 1.126.72 1.455 1.302.333.58.5 1.237.5 1.97 0 .507-.082.975-.245 1.403-.163.425-.374.777-.632 1.057-.255.277-.553.5-.893.67-.336.166-.748.295-1.237.387-.217.043-.557.064-1.02.064H.407zm2.744-6.794v5.62c0 .297.014.48.042.547.03.064.077.115.144.15.095.053.233.08.414.08.59 0 1.042-.2 1.354-.606.424-.545.637-1.39.637-2.54 0-.923-.14-1.66-.432-2.214-.23-.43-.525-.725-.886-.88-.255-.11-.68-.163-1.27-.16zm9.262 4.133H9.69c.03.658.206 1.18.525 1.56.244.296.538.443.88.443.213 0 .406-.06.58-.176.173-.12.358-.335.557-.643l.18.113c-.27.55-.566.94-.892 1.17-.325.226-.702.34-1.13.34-.736 0-1.294-.284-1.672-.85-.305-.458-.457-1.025-.457-1.7 0-.83.227-1.488.67-1.977.45-.493.978-.74 1.58-.74.502 0 .937.208 1.305.622.372.41.572 1.02.6 1.832zm-1.306-.356c0-.57-.032-.965-.095-1.178-.06-.213-.152-.373-.283-.484-.074-.063-.173-.095-.297-.095-.185 0-.336.09-.45.27-.21.316-.315.748-.315 1.297v.186h1.443zm3.632 2.51v1.85c0 .253.02.43.058.52.043.09.106.16.192.2.084.043.25.064.498.064v.197h-2.83v-.196c.22-.007.383-.07.49-.185.07-.08.105-.29.106-.63v-5.245c0-.35-.042-.574-.123-.67-.085-.098-.24-.155-.476-.17v-.196h2.08v.65c.174-.253.35-.437.532-.55.257-.167.538-.25.843-.25.364 0 .695.115.992.345.3.23.53.55.685.956.156.405.233.84.234 1.308 0 .5-.08.96-.243 1.38-.16.413-.393.73-.7.95-.306.215-.645.323-1.02.323-.273 0-.527-.06-.765-.18-.177-.092-.363-.25-.557-.472zm0-.537c.304.432.63.648.977.648.19 0 .348-.1.472-.302.184-.298.276-.865.276-1.7 0-.857-.1-1.444-.303-1.76-.134-.21-.314-.312-.54-.312-.36 0-.653.256-.882.774v2.65zm6.646.308c-.605.536-1.148.803-1.63.803-.282 0-.518-.09-.705-.276-.19-.19-.286-.423-.286-.703 0-.38.163-.72.49-1.02.324-.304 1.034-.708 2.127-1.212v-.5c0-.374-.02-.61-.062-.705-.04-.098-.115-.183-.23-.254-.112-.075-.24-.11-.38-.11-.23 0-.42.05-.57.152-.09.064-.137.138-.137.223 0 .076.05.17.15.28.134.15.2.3.2.44 0 .172-.064.32-.195.445-.127.12-.295.18-.504.18-.222 0-.41-.067-.562-.2-.146-.136-.22-.293-.22-.474 0-.254.1-.497.302-.727.202-.234.484-.412.845-.536.36-.125.736-.187 1.125-.187.47 0 .843.1 1.115.304.276.2.455.415.536.648.05.15.076.492.076 1.026v1.93c0 .225.01.37.027.43.017.056.044.098.08.127.035.028.076.042.122.042.092 0 .186-.066.28-.197l.16.126c-.177.26-.36.452-.552.573-.188.115-.402.173-.642.173-.282 0-.504-.065-.663-.196-.16-.136-.26-.337-.294-.607zm0-.387V86.51c-.428.253-.746.52-.955.81-.14.19-.21.383-.21.58 0 .16.06.305.174.43.088.094.212.142.372.142.175 0 .38-.1.614-.298zm4.43-3.845v1.124c.33-.513.618-.853.866-1.02.248-.17.487-.254.717-.254.198 0 .355.064.472.188.12.12.18.292.18.515 0 .238-.06.42-.178.553-.114.132-.252.197-.414.197-.19 0-.35-.06-.49-.18s-.22-.187-.244-.202c-.035-.02-.076-.032-.12-.032-.104 0-.2.04-.294.117-.145.12-.254.292-.328.516-.113.343-.17.72-.17 1.136v1.142l.005.297c0 .202.01.33.036.388.042.096.105.166.186.212.084.043.226.07.424.08v.19h-2.68v-.19c.215-.018.36-.076.434-.176.08-.103.118-.37.118-.803V85.38c0-.282-.017-.463-.044-.54-.036-.1-.087-.173-.155-.22-.067-.045-.185-.076-.355-.094v-.197h2.028zm4.736-1.82v1.818h1.18v.524h-1.18v3.065c0 .287.012.472.037.557.03.082.076.15.143.202.068.05.13.073.187.073.23 0 .447-.176.652-.526l.16.116c-.29.68-.757 1.02-1.4 1.02-.316 0-.583-.088-.8-.26-.217-.178-.355-.375-.416-.59-.035-.12-.052-.447-.052-.978V84.85h-.648v-.187c.446-.316.824-.647 1.136-.994.316-.35.59-.737.823-1.166h.176zm3.71 1.82v.65c.273-.296.525-.503.755-.62.233-.12.488-.18.764-.18.315 0 .58.074.8.223.213.15.38.376.5.68.28-.32.55-.55.81-.69.26-.142.533-.212.816-.212.343 0 .615.08.817.24.205.156.346.356.425.6.08.24.12.628.12 1.16v2.033c0 .384.034.62.1.713.07.093.217.153.437.18v.192H38.04v-.19c.2-.02.35-.096.447-.235.063-.094.094-.314.094-.658V86.08c0-.444-.016-.725-.052-.846-.035-.12-.09-.208-.17-.265-.073-.06-.16-.09-.264-.09-.153 0-.307.053-.463.17-.155.11-.312.272-.472.5v2.662c0 .358.03.583.09.675.083.13.24.203.47.217v.19h-2.57v-.19c.14-.007.246-.04.324-.1.08-.064.134-.14.16-.224.027-.087.04-.276.04-.567V86.08c0-.45-.016-.73-.052-.845-.036-.113-.096-.2-.18-.265-.082-.064-.17-.096-.266-.096-.142 0-.27.038-.388.112-.167.11-.344.298-.53.564v2.666c0 .35.032.583.1.697.07.108.216.174.435.195v.19h-2.56v-.19c.21-.02.36-.088.448-.202.06-.078.09-.308.09-.69V85.41c0-.375-.035-.61-.106-.7-.067-.093-.21-.153-.43-.18v-.198h2.023zm10.876 2.304h-2.724c.032.658.207 1.18.526 1.56.244.296.538.443.88.443.213 0 .406-.06.58-.176.173-.12.36-.335.557-.643l.18.115c-.268.55-.566.94-.89 1.17-.327.226-.704.34-1.132.34-.736 0-1.294-.284-1.672-.85-.3-.458-.453-1.025-.453-1.7 0-.83.223-1.488.67-1.977.45-.493.974-.74 1.576-.74.503 0 .94.208 1.307.622.37.41.57 1.022.6 1.833zm-1.306-.356c0-.57-.032-.963-.096-1.176-.06-.213-.156-.373-.286-.484-.075-.062-.174-.094-.298-.094-.184 0-.334.09-.45.27-.21.316-.314.748-.314 1.297v.186h1.444zm3.846-1.95v.642c.255-.276.5-.476.732-.6.234-.127.485-.19.754-.19.322 0 .59.09.802.27.212.176.354.398.425.663.052.204.08.59.08 1.165v1.93c0 .384.034.623.1.718.07.092.217.15.437.175v.19H48.5v-.19c.186-.025.32-.102.402-.234.057-.088.085-.308.085-.66V86c0-.406-.016-.662-.048-.77-.035-.105-.09-.187-.168-.243-.075-.06-.158-.09-.25-.09-.304 0-.587.217-.85.653v2.662c0 .373.035.608.1.707.072.095.202.16.39.182v.19H45.65v-.19c.21-.02.36-.088.447-.202.06-.077.09-.307.09-.69v-2.804c0-.376-.036-.61-.107-.7-.066-.094-.21-.154-.43-.182v-.197h2.024zm5.607-1.818v1.817h1.18v.524h-1.18v3.065c0 .287.013.472.038.557.03.082.08.15.147.202.067.05.13.073.186.073.23 0 .448-.175.654-.525l.16.115c-.287.68-.753 1.02-1.397 1.02-.316 0-.583-.087-.803-.26-.216-.177-.354-.374-.414-.59-.035-.12-.052-.446-.052-.977v-2.68h-.646v-.186c.445-.316.824-.647 1.136-.994.313-.347.59-.735.82-1.164h.176zm6.384 1.668c.432 0 .834.112 1.205.335.372.224.653.54.844.95.195.413.292.86.292 1.35 0 .706-.18 1.296-.536 1.77-.43.574-1.028.86-1.79.86-.746 0-1.32-.26-1.724-.785-.404-.526-.605-1.134-.605-1.824 0-.71.205-1.33.615-1.86.414-.53.98-.795 1.7-.795zm.02.378c-.18 0-.335.07-.466.207-.123.135-.21.405-.25.808-.04.4-.06.96-.06 1.674 0 .38.026.733.076 1.062.038.252.12.443.25.574.127.13.272.197.434.197.16 0 .29-.047.397-.135.138-.12.23-.29.277-.505.07-.336.106-1.015.106-2.04 0-.6-.035-1.014-.1-1.237-.07-.226-.17-.39-.3-.494-.09-.076-.21-.113-.36-.113zm4.98.292v3.447c0 .333.035.542.106.627.113.13.322.192.626.18v.192H62.47v-.19c.223-.005.38-.03.472-.076.095-.05.16-.116.196-.2.037-.086.054-.263.054-.533V84.85h-.72v-.52h.72v-.367l-.005-.25c0-.51.185-.935.56-1.275.372-.34.88-.51 1.515-.51.435 0 .757.082.966.245.213.163.32.343.32.542 0 .16-.066.297-.197.414-.13.112-.304.17-.52.17-.184 0-.33-.047-.44-.142-.107-.096-.16-.2-.16-.32 0-.03.01-.097.032-.196.014-.06.02-.116.02-.17 0-.074-.02-.13-.063-.164-.057-.05-.126-.08-.207-.08-.102 0-.19.045-.26.13-.067.085-.1.22-.1.41l.01.93v.63h.732v.52h-.734zm6.35-2.343v2.96h.206c.32 0 .58-.05.78-.145.202-.095.372-.256.51-.483.142-.228.234-.535.276-.92h.182v3.617h-.186c-.068-.684-.252-1.133-.553-1.35-.297-.22-.636-.33-1.014-.33h-.207v2.206c0 .368.02.6.058.69.044.093.124.174.24.245.12.066.28.1.483.1h.24v.196H68.27v-.19h.238c.21 0 .377-.04.505-.113.092-.05.162-.134.212-.255.04-.085.058-.308.058-.67v-4.738c0-.368-.02-.598-.058-.69-.04-.092-.118-.172-.24-.24-.116-.07-.275-.106-.477-.106h-.238v-.2h6.072v2.067h-.217c-.05-.486-.177-.845-.382-1.08-.202-.233-.496-.398-.882-.493-.21-.053-.602-.08-1.175-.08h-.67zm5.706 1.673c.432 0 .833.112 1.206.335.37.224.65.54.84.95.194.413.29.86.29 1.35 0 .706-.177 1.296-.535 1.77-.43.574-1.028.86-1.79.86-.746 0-1.32-.26-1.724-.785-.402-.526-.604-1.134-.604-1.824 0-.71.204-1.33.615-1.86.415-.53.98-.795 1.7-.795zm.022.378c-.18 0-.337.07-.468.207-.127.135-.212.405-.254.808-.04.4-.06.96-.06 1.674 0 .38.026.733.076 1.062.034.252.12.443.245.574.127.13.272.197.435.197.16 0 .293-.047.4-.135.137-.12.23-.29.276-.505.07-.336.106-1.015.106-2.04 0-.6-.034-1.014-.1-1.237-.07-.226-.168-.39-.3-.494-.09-.076-.21-.113-.36-.113zm4.698-.228v1.125c.33-.512.617-.852.865-1.02.248-.17.487-.253.717-.253.198 0 .355.063.473.187.12.12.18.292.18.515 0 .236-.06.42-.175.55-.114.133-.25.198-.414.198-.19 0-.355-.06-.49-.18s-.22-.186-.247-.2c-.035-.02-.076-.033-.122-.033-.102 0-.2.04-.29.117-.145.12-.255.292-.33.516-.11.343-.17.72-.17 1.136v1.142l.007.298c0 .202.01.33.036.388.042.096.104.166.185.212.084.043.225.07.424.08v.19h-2.68v-.19c.215-.018.36-.076.434-.176.077-.103.116-.37.116-.803V85.38c0-.282-.014-.463-.042-.54-.036-.1-.087-.173-.154-.22-.066-.045-.185-.076-.355-.094v-.197h2.03zm6.427 2.305h-2.724c.032.66.207 1.18.526 1.56.244.297.538.444.88.444.213 0 .406-.06.58-.176.173-.12.36-.335.557-.643l.18.115c-.27.55-.57.94-.895 1.17-.326.226-.703.34-1.13.34-.737 0-1.295-.284-1.673-.85-.305-.458-.457-1.025-.457-1.7 0-.83.223-1.488.67-1.977.45-.493.974-.74 1.576-.74.503 0 .94.208 1.307.622.37.41.57 1.022.6 1.833zm-1.306-.355c0-.57-.032-.963-.096-1.176-.06-.213-.156-.373-.287-.484-.07-.062-.17-.094-.293-.094-.184 0-.334.09-.45.27-.21.316-.314.748-.314 1.297v.185h1.445zm2.904-4.357c.23 0 .424.08.584.244.16.16.238.353.238.58 0 .226-.08.42-.244.578-.16.16-.352.24-.578.24-.227 0-.42-.08-.58-.24-.158-.16-.238-.352-.238-.58 0-.225.08-.418.24-.578.158-.163.35-.244.578-.244zm.743 2.406v3.935c0 .35.04.575.126.675.08.096.24.15.478.165v.19h-2.68v-.19c.22-.006.382-.07.488-.19.07-.08.107-.3.107-.65v-2.9c0-.35-.04-.573-.12-.67-.084-.097-.24-.154-.475-.17v-.195h2.08zm3.944.058h1.673v.584h-.95c.173.174.293.33.36.473.086.19.128.39.128.6 0 .355-.1.662-.297.925-.195.258-.462.462-.802.61-.336.145-.635.218-.897.218l-.638-.026c-.16 0-.293.053-.402.16-.106.102-.16.226-.16.37 0 .128.048.233.144.314.1.083.26.124.48.124l.918-.013c.743 0 1.254.08 1.534.245.4.228.6.577.6 1.048 0 .3-.09.572-.275.817-.184.248-.427.43-.727.548-.457.173-.982.26-1.577.26-.445 0-.852-.044-1.22-.132-.368-.086-.63-.206-.79-.362-.16-.152-.24-.313-.24-.483 0-.16.06-.31.18-.44.125-.13.353-.235.685-.323-.46-.227-.69-.542-.69-.946 0-.243.095-.48.283-.71.187-.23.485-.43.89-.6-.473-.174-.816-.403-1.028-.686-.214-.284-.32-.612-.32-.984 0-.486.198-.906.595-1.26.395-.357.905-.536 1.527-.536.33 0 .67.07 1.02.208zm-.918.122c-.205 0-.378.104-.52.313-.14.205-.212.633-.212 1.285 0 .526.07.89.207 1.087.14.194.307.29.498.29.212 0 .39-.097.53-.292.143-.194.213-.573.213-1.136 0-.633-.08-1.065-.237-1.295-.113-.17-.273-.256-.478-.256zm-.313 5.52c-.36 0-.6.03-.714.09-.203.11-.304.258-.304.446 0 .18.104.344.313.49.21.147.6.222 1.18.222.49 0 .875-.066 1.155-.197.284-.13.425-.313.426-.55 0-.09-.026-.164-.08-.223-.095-.107-.24-.18-.434-.218-.19-.04-.704-.06-1.54-.06zm5.294-5.7v.642c.255-.276.5-.476.733-.6.232-.127.483-.19.753-.19.323 0 .59.09.803.27.213.176.354.398.425.663.058.203.087.59.087 1.164v1.93c0 .384.033.623.1.718.07.092.216.15.436.175v.19h-2.51v-.19c.185-.025.32-.102.4-.234.058-.088.086-.308.086-.66V86c0-.406-.017-.662-.05-.77-.03-.105-.086-.187-.163-.243-.074-.06-.157-.09-.25-.09-.304 0-.587.217-.85.653v2.662c0 .373.035.608.102.707.07.095.2.16.386.182v.19h-2.51v-.19c.208-.02.357-.088.446-.202.06-.077.09-.307.09-.69v-2.804c0-.376-.036-.61-.106-.7-.068-.094-.21-.154-.43-.182v-.197h2.022zm10.132 2.916h-2.544l-.303.7c-.1.235-.148.428-.148.58 0 .202.082.35.244.446.095.057.33.1.705.128v.196h-2.394v-.19c.26-.04.47-.146.638-.32.166-.176.37-.54.616-1.088l2.577-5.748h.1l2.597 5.907c.248.56.45.917.61 1.06.12.11.29.175.51.19v.2h-3.482v-.2h.144c.28 0 .475-.04.59-.117.076-.057.115-.138.115-.244 0-.068-.01-.13-.032-.2-.008-.03-.06-.166-.16-.4l-.382-.897zm-.18-.394l-1.074-2.48-1.104 2.48h2.175z" fill="#000"/><path d="M113.674 84.85v3.447c0 .333.035.542.106.627.113.13.322.192.626.18v.192h-2.925v-.19c.227-.005.385-.03.477-.076.095-.05.16-.116.196-.2.037-.086.054-.263.054-.533V84.85h-.722v-.52h.723v-.367l-.005-.25c0-.51.185-.935.558-1.275.375-.34.88-.51 1.518-.51.436 0 .758.082.967.245.212.163.318.343.318.542 0 .16-.065.297-.196.414-.13.112-.305.17-.52.17-.184 0-.33-.047-.44-.142-.107-.096-.16-.2-.16-.32 0-.03.01-.097.03-.196.015-.06.023-.116.023-.17 0-.074-.023-.13-.065-.164-.056-.05-.125-.08-.206-.08-.104 0-.19.045-.26.13s-.1.22-.1.41l.01.93v.63h.73v.52h-.733z" fill="#000"/><path d="M117.294 84.85v3.447c0 .333.035.542.106.627.113.13.322.192.627.18v.192H115.1v-.19c.224-.005.382-.03.474-.076.095-.05.16-.116.197-.2.04-.086.057-.263.057-.533V84.85h-.723v-.52h.724v-.367l-.006-.25c0-.51.187-.935.56-1.275.374-.34.88-.51 1.517-.51.434 0 .756.082.965.245.212.163.32.343.32.542 0 .16-.067.297-.198.414-.13.112-.304.17-.52.17-.184 0-.33-.047-.44-.142-.107-.096-.16-.2-.16-.32 0-.03.01-.097.032-.196.013-.06.02-.116.02-.17 0-.074-.02-.13-.063-.164-.057-.05-.126-.08-.207-.08-.103 0-.19.045-.26.13-.068.085-.102.22-.102.41l.01.93v.63h.734v.52h-.734zm4.183 3.713c-.605.535-1.148.802-1.63.802-.283 0-.518-.09-.706-.276-.183-.19-.28-.425-.28-.705 0-.38.166-.72.49-1.02.327-.304 1.036-.708 2.13-1.212v-.5c0-.374-.02-.61-.064-.705-.038-.1-.115-.184-.228-.255-.113-.075-.24-.11-.382-.11-.23 0-.42.05-.568.152-.092.064-.138.138-.138.223 0 .077.05.17.15.28.132.15.2.3.2.44 0 .173-.066.322-.197.446-.126.12-.295.18-.503.18-.224 0-.41-.067-.564-.2-.15-.136-.223-.293-.223-.474 0-.254.1-.497.304-.727.2-.234.483-.412.843-.536.36-.126.737-.188 1.126-.188.47 0 .842.1 1.114.302.277.2.456.415.537.648.05.15.074.492.074 1.026v1.93c0 .224.01.37.03.43.017.055.044.097.08.126.034.028.075.042.12.042.093 0 .187-.066.283-.197l.16.127c-.177.26-.36.452-.552.573-.186.117-.4.175-.64.175-.284 0-.506-.065-.665-.196-.16-.137-.258-.338-.293-.608zm0-.388v-1.663c-.428.252-.746.52-.955.808-.14.19-.208.384-.208.58 0 .162.06.306.176.43.088.095.212.143.37.143.178 0 .383-.1.617-.298zm3.783-6.252c.23 0 .424.08.583.244.16.16.24.353.24.58 0 .226-.082.42-.245.578-.16.16-.352.24-.58.24-.225 0-.418-.08-.577-.24-.16-.16-.235-.352-.235-.58 0-.225.08-.418.24-.578.158-.163.35-.244.577-.244zm.743 2.406v3.933c0 .35.04.575.122.675.08.095.24.15.478.164v.19h-2.68v-.19c.218-.007.38-.07.487-.19.07-.082.106-.3.106-.65v-2.9c0-.35-.04-.574-.122-.67-.08-.098-.238-.155-.472-.17v-.196h2.08zm3.034 0v1.123c.33-.513.617-.853.865-1.02.248-.17.486-.254.717-.254.194 0 .35.063.47.187.12.12.18.292.18.515 0 .237-.06.42-.176.552-.114.132-.252.197-.415.197-.188 0-.35-.06-.488-.18s-.22-.186-.244-.2c-.038-.02-.078-.033-.124-.033-.103 0-.2.04-.292.117-.145.12-.255.292-.33.516-.113.344-.17.72-.17 1.137v1.142l.006.296c0 .202.013.33.038.388.042.096.104.166.185.212.086.043.228.07.426.08v.19h-2.68v-.19c.215-.018.36-.076.434-.176.078-.102.116-.37.117-.802V85.38c0-.282-.016-.463-.044-.54-.035-.1-.086-.173-.154-.22-.068-.045-.186-.076-.356-.094v-.197h2.027zm5.685-.14l.08 1.694h-.18c-.216-.503-.44-.846-.675-1.03-.23-.185-.46-.277-.69-.277-.145 0-.27.047-.37.147-.104.095-.155.207-.155.334 0 .096.035.19.106.277.113.144.43.394.95.748.52.35.862.65 1.024.897.167.245.25.52.25.824 0 .275-.07.546-.207.812-.138.264-.333.47-.584.61-.25.14-.525.212-.83.212-.236 0-.553-.074-.95-.223-.106-.04-.18-.06-.22-.06-.114 0-.21.09-.29.266h-.174l-.085-1.785h.18c.16.468.377.818.653 1.052.28.232.544.35.792.35.17 0 .308-.05.414-.155.11-.106.164-.233.164-.382 0-.17-.052-.317-.16-.44-.105-.125-.342-.312-.71-.564-.54-.376-.892-.663-1.05-.86-.234-.29-.35-.61-.35-.963 0-.383.13-.728.39-1.036.267-.31.65-.466 1.148-.466.27 0 .53.067.78.198.098.054.176.08.236.08.064 0 .115-.012.154-.037.04-.027.1-.104.185-.23h.18zm5.79 4.37c-.605.536-1.148.803-1.63.803-.283 0-.518-.09-.706-.276-.188-.19-.28-.423-.28-.703 0-.38.162-.72.487-1.02.326-.304 1.035-.708 2.13-1.212v-.5c0-.374-.022-.61-.065-.705-.04-.098-.115-.183-.228-.254-.114-.075-.24-.11-.382-.11-.23 0-.42.05-.568.152-.093.064-.138.138-.138.223 0 .076.05.17.148.28.135.15.202.3.202.44 0 .172-.065.32-.196.445-.128.12-.296.18-.505.18-.22 0-.41-.067-.56-.2-.15-.136-.22-.293-.22-.474 0-.254.1-.497.3-.727.2-.234.483-.412.844-.536.36-.125.736-.187 1.126-.187.47 0 .84.1 1.112.304.276.2.455.415.536.648.05.15.074.492.074 1.026v1.93c0 .225.01.37.027.43.016.056.043.098.08.127.033.028.074.042.12.042.092 0 .186-.066.282-.197l.16.126c-.178.26-.362.452-.554.573-.19.115-.403.173-.644.173-.283 0-.504-.065-.663-.196-.16-.136-.256-.337-.29-.607zm0-.387V86.51c-.43.253-.747.52-.956.81-.138.19-.207.383-.207.58 0 .16.055.305.17.43.09.094.214.142.373.142.177 0 .382-.1.616-.298zm4.398-3.845v.64c.255-.275.5-.475.733-.6.234-.126.485-.19.754-.19.322 0 .59.09.8.27.214.177.355.4.426.664.057.203.084.59.085 1.164v1.93c0 .384.033.623.1.718.07.092.216.15.436.175v.19h-2.51v-.19c.187-.025.32-.1.403-.234.056-.088.085-.308.085-.66V86c0-.406-.017-.662-.048-.77-.032-.105-.087-.187-.165-.243-.078-.06-.16-.09-.25-.09-.308 0-.59.217-.85.653v2.662c0 .373.03.608.1.707.07.095.2.16.39.182v.19h-2.515v-.19c.21-.02.357-.088.446-.202.06-.077.09-.307.09-.69v-2.804c0-.376-.035-.61-.105-.7-.068-.094-.21-.154-.43-.182v-.197h2.022zm8.3-2.238v5.716c0 .384.01.612.033.683.028.117.08.204.16.26.08.057.22.093.418.106v.175l-2.093.41v-.786c-.25.303-.476.51-.674.62-.194.11-.414.165-.663.165-.634 0-1.135-.284-1.503-.85-.297-.46-.446-1.026-.446-1.696 0-.535.09-1.012.277-1.434.185-.424.435-.744.754-.96.32-.216.667-.324 1.035-.324.237 0 .448.046.632.14.184.09.38.25.59.48V83.3c0-.38-.017-.608-.048-.686-.044-.104-.108-.18-.19-.23-.088-.05-.246-.074-.48-.074v-.223h2.202zm-1.486 3.368c-.262-.5-.582-.752-.96-.752-.13 0-.24.035-.324.105-.13.11-.24.304-.324.58-.082.277-.122.7-.122 1.27 0 .627.046 1.09.138 1.39.09.303.217.52.377.656.08.067.19.1.33.1.312 0 .605-.244.88-.732V85.46zm11.156-3.367v1.95h-.19c-.113-.45-.24-.772-.377-.967-.138-.198-.328-.355-.568-.472-.135-.063-.37-.095-.707-.095h-.535v5.557c0 .368.02.6.058.69.046.093.126.174.24.245.12.064.286.1.49.1h.24v.194h-3.77v-.19h.24c.21 0 .377-.038.505-.112.09-.05.164-.134.217-.255.04-.085.058-.308.058-.67v-5.556h-.52c-.485 0-.837.103-1.056.308-.306.287-.5.696-.582 1.227h-.202v-1.95h6.466zm2.058 2.238v1.125c.33-.513.618-.853.866-1.02.247-.17.487-.254.717-.254.2 0 .36.064.476.19.12.12.18.29.18.513 0 .237-.058.42-.175.552-.113.132-.25.197-.414.197-.188 0-.35-.06-.488-.18s-.22-.187-.245-.202c-.034-.02-.074-.03-.12-.03-.103 0-.2.04-.292.116-.144.12-.255.292-.33.516-.112.343-.17.72-.17 1.136v1.142l.007.298c0 .202.012.33.037.388.044.096.106.166.187.212.086.043.227.07.426.08v.19h-2.68v-.19c.215-.018.36-.076.434-.176.076-.103.114-.37.115-.803v-2.75c0-.283-.015-.464-.042-.54-.035-.1-.086-.174-.154-.22-.07-.046-.187-.077-.357-.095v-.197h2.028zm4.962 4.233c-.605.536-1.148.803-1.63.803-.283 0-.518-.09-.706-.276-.187-.19-.28-.424-.28-.704 0-.38.162-.72.488-1.02.325-.304 1.034-.708 2.128-1.212v-.5c0-.373-.02-.61-.064-.704-.04-.1-.115-.184-.228-.255-.113-.074-.24-.11-.382-.11-.23 0-.42.05-.568.153-.092.064-.138.138-.138.223 0 .077.05.17.148.28.135.15.202.3.202.44 0 .173-.065.322-.196.446-.127.12-.296.18-.504.18-.224 0-.41-.067-.564-.2-.148-.136-.222-.293-.222-.474 0-.254.1-.497.302-.727.202-.233.484-.41.844-.535.36-.126.737-.188 1.126-.188.47 0 .842.1 1.115.303.28.2.46.415.54.648.05.15.074.492.074 1.026v1.93c0 .224.01.37.028.43.018.055.045.097.08.126.035.028.076.042.12.042.095 0 .188-.066.284-.197l.16.127c-.177.26-.36.452-.552.573-.187.117-.4.175-.642.175-.283 0-.504-.065-.663-.196-.16-.137-.258-.338-.293-.608zm0-.387V86.51c-.43.252-.746.52-.955.808-.14.19-.208.384-.208.58 0 .162.058.306.176.43.088.095.212.143.37.143.178 0 .383-.1.617-.297zm7.088-6.082v5.717c0 .383.01.61.03.682.03.116.082.203.16.26.082.056.222.092.42.105v.175l-2.097.41v-.787c-.25.303-.472.51-.67.62-.195.11-.416.165-.664.165-.633 0-1.134-.282-1.502-.85-.296-.46-.445-1.024-.445-1.694 0-.535.09-1.012.275-1.434.185-.425.437-.745.755-.96.32-.217.666-.325 1.034-.325.237 0 .447.046.632.14.184.09.38.25.59.48V83.3c0-.38-.017-.607-.05-.685-.04-.104-.105-.18-.19-.23-.085-.05-.244-.074-.478-.074v-.22h2.204zm-1.488 3.37c-.26-.502-.58-.753-.96-.753-.13 0-.24.035-.324.105-.13.11-.24.303-.324.58-.08.276-.122.7-.122 1.27 0 .626.046 1.09.14 1.39.09.302.216.52.375.655.082.067.193.1.335.1.31 0 .605-.244.88-.732V85.46zm6.477 1.175h-2.723c.032.658.208 1.18.526 1.56.244.296.538.443.88.443.214 0 .406-.06.58-.176.173-.12.36-.335.557-.643l.18.113c-.27.55-.566.94-.89 1.17-.326.226-.703.34-1.132.34-.736 0-1.293-.284-1.672-.85-.305-.458-.457-1.025-.457-1.7 0-.83.223-1.488.67-1.977.45-.493.974-.74 1.576-.74.503 0 .938.208 1.306.622.37.41.572 1.02.6 1.832zm-1.305-.356c0-.57-.032-.965-.096-1.178-.06-.213-.155-.373-.286-.484-.074-.063-.174-.095-.298-.095-.184 0-.334.09-.45.27-.21.316-.314.748-.314 1.297v.186h1.444z" fill="#000"/></g></svg>