<?xml version="1.0" encoding="UTF-8" standalone="no"?>
<svg width="76px" height="84px" viewBox="0 0 76 84" version="1.1" xmlns="http://www.w3.org/2000/svg" xmlns:xlink="http://www.w3.org/1999/xlink" xmlns:sketch="http://www.bohemiancoding.com/sketch/ns">
    <!-- Generator: Sketch 3.3.3 (12072) - http://www.bohemiancoding.com/sketch -->
    <title>belgian-bzos</title>
    <desc>Created with Sketch.</desc>
    <defs></defs>
    <g id="-assets" stroke="none" stroke-width="1" fill="none" fill-rule="evenodd" sketch:type="MSPage">
        <g id="belgian-bzos" sketch:type="MSLayerGroup" transform="translate(0.009156, 0.107377)">
            <path d="M5.12066472,2.76082995 C5.92062398,2.76082995 6.64001572,3.10729559 7.13648585,3.65886235 C7.1857518,3.60057332 7.23365681,3.54037763 7.2777512,3.47773055 L3.17071298,0.179497527 C2.74310631,0.649350691 2.48017312,1.27146352 2.48017312,1.95676819 C2.48017312,2.60611888 2.71534318,3.19990433 3.10348265,3.65995186 C3.60022496,3.10784035 4.31988889,2.76082995 5.12066472,2.76082995 L5.12066472,2.76082995 Z" id="Shape" fill="#044897" sketch:type="MSShapeGroup"></path>
            <path d="M5.12066472,6.2066922 C5.96553493,6.2066922 6.72194418,6.58339186 7.23284025,7.17772207 C7.36920622,7.00830255 7.48706344,6.82335745 7.58015158,6.62397628 C6.75760075,5.69652699 3.24937519,4.24393168 2.66634942,4.31692915 C2.500315,4.66856998 2.40695466,5.06133999 2.40695466,5.47617267 C2.40695466,6.12089292 2.6317816,6.7130441 3.00712825,7.17881158 C3.51829651,6.58393662 4.27525013,6.2066922 5.12066472,6.2066922 L5.12066472,6.2066922 Z" id="Shape" fill="#044897" sketch:type="MSShapeGroup"></path>
            <path d="M5.12066472,9.65337158 C6.00908494,9.65337158 6.80278389,10.058671 7.32728933,10.6946751 C7.6038319,10.3356801 7.7965407,9.90886275 7.87166447,9.44173337 C7.23882837,8.0994514 2.68240848,7.46753295 2.4390728,8.23564073 C2.37020934,8.45354364 2.33346402,8.732187 2.33346402,8.99584953 C2.33346402,9.63621172 2.54985314,10.2256391 2.91240698,10.6963094 C3.43691242,10.0594881 4.23142793,9.65337158 5.12066472,9.65337158 L5.12066472,9.65337158 Z" id="Shape" fill="#044897" sketch:type="MSShapeGroup"></path>
            <path d="M2.82067977,14.2138072 C3.35797803,13.535312 4.18815011,13.0995062 5.12066472,13.0995062 C6.0537237,13.0995062 6.88444016,13.5361292 7.42173842,14.2154415 C7.77313257,13.7401408 7.98081169,13.1523477 7.98081169,12.5157988 C7.98081169,12.5106236 7.9805395,12.5054484 7.9805395,12.5002732 C7.20779899,10.8022647 2.12632928,11.3513801 2.27793776,12.8320304 C2.32938121,13.334569 2.52263438,13.8112316 2.82067977,14.2138072 L2.82067977,14.2138072 Z" id="Shape" fill="#044897" sketch:type="MSShapeGroup"></path>
            <path d="M1.42218004,50.7613015 C2.90941292,49.9201963 8.60847622,51.4422481 8.87794191,52.5886899 C8.87794191,52.5892346 8.8782141,52.5897794 8.87848628,52.5908689 C8.93237942,52.3342882 8.96095912,52.0689914 8.96095912,51.796068 C8.96095912,50.5314139 8.3504424,49.4094863 7.40812904,48.7094732 C7.99333231,49.0545769 8.40406335,49.347384 8.47619306,49.5069979 C8.68414436,49.0450437 8.80118502,48.5332442 8.80118502,47.9944792 C8.80118502,47.2337257 8.57036996,46.5269031 8.1754258,45.9399271 C8.47074931,45.4245867 8.64113873,44.8286222 8.64113873,44.1923457 C8.64113873,43.5195705 8.45224055,42.8906482 8.12479891,42.3556965 C8.40569648,41.8577884 8.56764808,41.286338 8.56764808,40.6729412 C8.56764808,40.0012555 8.37521147,39.375057 8.04341483,38.8450082 C8.3308449,38.3476447 8.49442963,37.7704744 8.49442963,37.1535368 C8.49442963,36.4777653 8.29518833,35.8488431 7.95332074,35.3207009 C8.24891644,34.8274231 8.42093898,34.2518871 8.42093898,33.6335875 C8.42093898,32.9572714 8.21761487,32.3288938 7.86921478,31.8053821 C8.17215955,31.3134662 8.34744834,30.7343892 8.34744834,30.1139107 C8.34744834,29.4373221 8.13786391,28.8067656 7.78238695,28.2851604 C8.09349734,27.7962408 8.27422988,27.216619 8.27422988,26.5942338 C8.27422988,25.913832 8.05947389,25.2835478 7.69419818,24.7682074 C8.01401857,24.2820115 8.20101143,23.7002107 8.20101143,23.0748293 C8.20101143,22.3759057 7.9454273,21.7077609 7.60873128,21.2444448 C7.93590074,20.7628794 8.12752078,20.1816234 8.12752078,19.5554249 C8.12752078,18.8668516 7.89588916,18.2330265 7.5074775,17.7258575 C7.50911063,17.7283089 7.51128813,17.7304879 7.51319344,17.7329393 C7.8534279,17.2538253 8.05430233,16.6682112 8.05430233,16.0352032 C8.05430233,15.7418514 8.01837357,15.4563986 7.93072917,15.1916466 C7.33218871,13.3814181 2.10564303,14.8519904 2.28011526,16.7725322 C2.37075372,17.1222664 2.52590063,17.4453075 2.72895256,17.7318498 C3.27849926,17.0114083 4.14514448,16.5461856 5.12066472,16.5461856 C6.09210215,16.5461856 6.95548112,17.0078674 7.50502782,17.7234061 C6.16640936,16.4168057 1.60427353,19.0882955 2.55420814,21.1237811 C2.58061033,21.1670893 2.60891784,21.2090356 2.63749754,21.2509819 C3.19820393,20.487777 4.10132228,19.9920478 5.12066472,19.9920478 C5.97315618,19.9920478 6.74371919,20.3398754 7.30143152,20.9001582 C5.63727672,19.6164377 2.71425443,22.4685145 2.79836039,24.45933 C3.37458147,23.8317696 4.2014873,23.4381824 5.12066472,23.4381824 C5.72192706,23.4381824 6.2837222,23.6070572 6.76195576,23.8995919 C4.96225155,23.170979 3.39989491,25.6191183 3.18078392,27.5333954 C3.72053187,27.1264617 4.39229079,26.8848618 5.12066472,26.8848618 C5.29785883,26.8848618 5.47124231,26.9006598 5.64054297,26.92817 C4.29947483,26.9096483 3.52455682,28.945951 3.54850933,30.7289417 C3.94236474,30.514852 4.38521391,30.3800246 4.85528184,30.3424364 C3.55640277,30.5698725 3.41677054,32.3806458 3.82096908,34.0356184 C3.73631875,34.0718448 3.65330154,34.1105225 3.57273402,34.1538307 C3.08252421,34.4183104 3.42221429,35.936549 4.07873071,37.3826072 C3.65221279,37.5171623 3.26815613,37.7304347 2.92873823,38.0107124 C2.64838504,38.2286153 3.39962273,39.5022578 4.36806609,40.7502968 C3.55014245,40.9270705 2.84762634,41.3854838 2.35006746,42.020126 L5.25539757,44.3149161 C5.2107588,44.3132818 5.16584786,44.3113752 5.12066472,44.3113752 C3.68106467,44.3113752 2.43553436,45.1388615 1.83073358,46.3438646 C2.26024557,46.1921497 4.73388618,47.2650492 6.54093945,48.2260011 C6.10135653,48.0503169 5.62230641,47.9530777 5.12066472,47.9530777 C3.35797803,47.9530777 1.87401141,49.1414657 1.42218004,50.7613015 L1.42218004,50.7613015 Z" id="Shape" fill="#044897" sketch:type="MSShapeGroup"></path>
            <path d="M9.11828353,55.4810787 C9.05622477,53.3243846 7.2908162,51.5950526 5.12066472,51.5950526 C2.95051324,51.5950526 1.18537686,53.3243846 1.12304591,55.4805339 C1.64537385,53.6841968 8.58724559,53.6681264 9.11828353,55.4810787 L9.11828353,55.4810787 Z" id="Shape" fill="#044897" sketch:type="MSShapeGroup"></path>
            <path d="M5.12066472,55.2359379 C2.82285727,55.2359379 0.960005553,57.1000974 0.960005553,59.3997903 C0.960005553,59.8434951 1.03022995,60.2705848 1.15870248,60.6717985 C0.962183053,57.8709289 8.01020794,56.030194 9.10875697,58.2133089 C8.59840528,56.4924206 7.00638019,55.2359379 5.12066472,55.2359379 L5.12066472,55.2359379 Z" id="Shape" fill="#044897" sketch:type="MSShapeGroup"></path>
            <path d="M5.12066472,58.8779128 C2.73439631,58.8779128 0.799959263,60.8137078 0.799959263,63.201379 C0.799959263,63.8599906 0.941224611,64.4319857 1.15325873,64.9181816 C1.24171969,62.0884399 5.89803241,58.9476417 8.68142249,60.7543293 C7.90214948,59.6108837 6.59864321,58.8779128 5.12066472,58.8779128 L5.12066472,58.8779128 Z" id="Shape" fill="#044897" sketch:type="MSShapeGroup"></path>
            <path d="M0.639912973,67.0035125 C0.639912973,67.6090103 0.760219878,68.1867254 0.977969932,68.7132333 C0.660054853,69.3421556 0.48013887,70.0527915 0.48013887,70.805646 C0.48013887,71.406241 0.594457649,71.9801428 0.802136763,72.5069231 C0.493476061,73.1415653 0.32009258,73.8538355 0.32009258,74.60669 C0.32009258,75.2034717 0.429511983,75.7746497 0.628208907,76.30143 C0.32798602,76.9412474 0.159774102,77.6551518 0.159774102,78.4090959 C0.159774102,79.0023366 0.264294129,79.5710632 0.455097614,80.0981159 C0.163312541,80.7422914 0,81.4572854 0,82.2106847 C0,82.8001121 0.1007094,83.3652978 0.283347258,83.8926228 C0.807580515,82.6966082 1.76105357,81.7334773 2.9491523,81.1960742 C2.4083156,79.5699737 2.27603244,78.0958605 2.90424135,77.5908705 L2.90478573,77.5903257 C2.9053301,77.589781 2.90560229,77.589781 2.90614666,77.5892362 C2.74147319,75.7942609 3.06374327,74.1273036 4.10622165,73.5490438 C3.64921873,73.6438315 3.21562393,73.8029007 2.81414727,74.0145389 C2.81686914,74.0129046 2.81931883,74.0112703 2.82231289,74.0099084 C3.08252421,71.9812323 3.97557162,70.1018196 5.36372822,69.8087402 C5.23988287,69.8043821 5.27363413,69.8027479 5.12066472,69.8027479 C4.16882479,69.8027479 3.28258207,70.0811188 2.53651595,70.5596881 C3.24229831,68.264898 5.02866532,66.132718 6.75923388,66.4603895 C6.27991157,66.2678178 5.69770236,66.1618625 5.12066472,66.1618625 C3.95787943,66.1618625 2.89607572,66.5905865 2.08169052,67.2971367 C3.05966045,64.8536279 6.00091931,62.574091 7.90296604,63.4906451 C7.14927866,62.8731627 6.17239748,62.5198876 5.12066472,62.5198876 C2.64620754,62.5198876 0.639912973,64.5270459 0.639912973,67.0035125 L0.639912973,67.0035125 Z" id="Shape" fill="#044897" sketch:type="MSShapeGroup"></path>
            <path d="M18.4804471,23.5405968 C18.4804471,23.8383067 18.3767437,24.058661 18.1960111,24.2139168 C17.9888764,24.3887839 17.8462501,24.4086676 17.4518503,24.4152046 L17.1284915,24.4209246 L17.0577227,24.3299501 L17.0446577,23.8058936 L17.0955568,22.7705824 L17.5623585,22.7705824 C18.1513724,22.7705824 18.4804471,23.0492257 18.4804471,23.5405968 L18.4804471,23.5405968 Z M19.0245501,23.4893896 C19.0245501,23.1137795 18.8688588,22.854475 18.5713578,22.706301 C18.4284593,22.6346654 18.3383652,22.6025248 18.066722,22.5507728 L18.066722,22.505558 C18.6029315,22.2525182 18.8427288,21.9155858 18.8427288,21.3915293 C18.8427288,20.8535815 18.5128374,20.5885571 17.8593151,20.5885571 L16.2033259,20.5885571 L16.2678344,20.7182093 L16.6557017,20.9189524 L16.675027,21.3849922 L16.5215132,24.3299501 L16.4496557,24.4209246 L16.113504,24.5957917 L16.0424631,24.7322534 L17.2389996,24.7322534 C17.8462501,24.7322534 18.0789705,24.7189068 18.3574183,24.5699157 C18.7452856,24.3626356 19.0245501,23.9488924 19.0245501,23.4893896 L19.0245501,23.4893896 Z M18.3448977,21.4432812 C18.3448977,21.8183466 18.1706977,22.1816998 17.8203923,22.505558 L17.1538049,22.505558 L17.1094383,22.4597984 L17.1739468,21.3002825 L17.2199465,20.8535815 L17.7558838,20.8535815 C18.124698,20.8535815 18.3448977,21.0736634 18.3448977,21.4432812 L18.3448977,21.4432812 Z" id="Shape" fill="#E03328" sketch:type="MSShapeGroup"></path>
            <path d="M21.2622041,24.7769235 L21.1326428,24.7769235 L21.1587728,24.1951227 L21.1193056,24.1490907 C20.6930599,24.6216677 20.3759614,24.7769235 20.0523303,24.7769235 C19.81961,24.7769235 19.7365928,24.6805015 19.7365928,24.4152046 L19.7365928,24.3754374 L19.8451956,22.3246985 L19.8005568,22.2792113 L19.3993524,22.3246985 C19.4899908,21.9155858 19.7687109,21.6957763 20.1884241,21.6957763 L20.3237013,21.6957763 L20.2082938,23.8840663 L20.2338794,24.2209987 L20.3634407,24.2850077 L21.1783703,23.9295535 L21.2622041,22.3246985 L21.2622041,22.1299478 C21.2622041,21.9804119 21.2622041,21.9474541 21.2426066,21.8319656 L21.7861651,21.6505614 C21.7333608,21.9866766 21.727917,22.0852777 21.6957989,22.5439634 L21.6051604,24.1951227 L21.6500714,24.2400652 L22.0188855,24.188858 C21.8895964,24.615403 21.6380951,24.7769235 21.2622041,24.7769235 L21.2622041,24.7769235 Z" id="Shape" fill="#E03328" sketch:type="MSShapeGroup"></path>
            <path d="M23.5981178,24.3754374 C23.4938699,24.6028735 23.177588,24.7769235 22.8594007,24.7769235 L22.7312004,24.7769235 L22.8338151,22.7245504 C22.8471523,22.5248968 22.8338151,22.4273853 22.814762,22.3246985 L22.7695788,22.2792113 L22.4072972,22.3246985 C22.5101841,21.8837175 22.7499813,21.6957763 23.2029014,21.6957763 L23.4032315,21.6957763 L23.2935399,22.5439634 L23.2091617,24.1490907 L23.2674099,24.2400652 L23.649289,24.1951227 C23.6296915,24.2790153 23.6174431,24.3364872 23.5981178,24.3754374 L23.5981178,24.3754374 Z M23.0208079,20.9837785 L22.9824295,20.9837785 C22.9500392,20.8797298 22.9375186,20.8347874 22.9375186,20.7636965 C22.9375186,20.4787885 23.1256002,20.2657884 23.3637643,20.2657884 C23.3776459,20.2657884 23.4032315,20.2715083 23.4350774,20.2780454 C23.4612074,20.3750122 23.4677399,20.4139623 23.4677399,20.4787885 C23.4677399,20.782763 23.2867352,20.9837785 23.0208079,20.9837785 L23.0208079,20.9837785 Z" id="Shape" fill="#E03328" sketch:type="MSShapeGroup"></path>
            <path d="M25.7195477,22.3173443 L24.9805584,22.3173443 L24.9035294,23.7740253 C24.8967247,23.9488924 24.9035294,24.188858 24.9419078,24.3108836 L24.9876353,24.3299501 L25.5962467,24.1951227 L25.6158442,24.2400652 C25.2274326,24.6279324 24.9609609,24.7769235 24.6452234,24.7769235 C24.4634021,24.7769235 24.4122308,24.7189068 24.4122308,24.5056344 L24.4122308,24.4664118 L24.5347152,22.3173443 L23.9459735,22.3173443 L23.9658432,21.9474541 L24.5543127,21.9474541 C24.5613896,21.7407187 24.5613896,21.6505614 24.5613896,21.5399757 C24.5613896,21.4432812 24.5613896,21.3528515 24.5543127,21.165455 L25.0720135,20.9894984 L25.0012447,21.9474541 L25.7317961,21.9474541 L25.7195477,22.3173443 L25.7195477,22.3173443 Z" id="Shape" fill="#E03328" sketch:type="MSShapeGroup"></path>
            <path d="M27.8477823,24.2338005 L27.8281848,24.1951227 L27.161053,24.3498338 C27.0954558,24.3626356 27.031764,24.3754374 26.9716105,24.3754374 C26.6621332,24.3754374 26.5135188,24.1490907 26.5135188,23.6895879 C26.5135188,23.6563577 26.5135188,23.5860841 26.5203235,23.4757707 C27.1681299,23.1589943 27.3608387,23.0170851 27.6017247,22.7182857 C27.705156,22.5899953 27.7503391,22.4017817 27.7503391,22.2266422 C27.7503391,21.8641063 27.5434766,21.6824297 27.1341065,21.6824297 C26.7783573,21.6824297 26.5527138,21.844495 26.3970225,22.1623609 C26.2100297,22.5573099 26.0614153,23.1783332 26.0614153,23.7418846 C26.0614153,24.3887839 26.3058397,24.79027 26.7075886,24.79027 C27.0440124,24.79027 27.4248028,24.6028735 27.8477823,24.2338005 L27.8477823,24.2338005 Z M27.2908865,22.3246985 C27.2908865,22.6346654 27.0900121,22.8740863 26.5331163,23.217011 C26.558702,22.9579789 26.5723113,22.8416732 26.6169501,22.6218636 C26.6686657,22.3500298 26.6882632,22.2922855 26.7783573,22.0978071 L27.0505449,22.0978071 C27.2252893,22.0978071 27.2908865,22.1623609 27.2908865,22.3246985 L27.2908865,22.3246985 Z" id="Shape" fill="#E03328" sketch:type="MSShapeGroup"></path>
            <path d="M30.0274603,24.7769235 L29.897899,24.7769235 L29.9956144,22.8089878 C30.0013303,22.5899953 30.0013303,22.537971 29.9817328,22.2792113 L29.8067162,22.1885092 L29.022816,22.6346654 L28.9370769,24.1951227 C28.9370769,24.1951227 28.9370769,24.4664118 28.9642957,24.7322534 L28.4634706,24.7322534 L28.588949,22.3246985 L28.5494818,22.2792113 L28.1414727,22.3246985 C28.2707618,21.8959746 28.5233518,21.6957763 28.9370769,21.6957763 L29.0674548,21.6957763 L29.0347923,22.3628316 L29.080792,22.407774 C29.540789,21.8894375 29.8067162,21.7151151 30.1491282,21.7151151 C30.3772214,21.7151151 30.4795639,21.8248837 30.4795639,22.0525923 L30.3706889,24.1951227 L30.4093395,24.2400652 L30.7710768,24.1951227 C30.7185446,24.5304208 30.4025348,24.7769235 30.0274603,24.7769235 L30.0274603,24.7769235 Z" id="Shape" fill="#E03328" sketch:type="MSShapeGroup"></path>
            <path d="M32.245789,24.3754374 C32.139908,24.6028735 31.8255314,24.7769235 31.5067998,24.7769235 L31.3772385,24.7769235 L31.5653201,20.9380189 L31.2416891,20.2971119 L32.0443702,20.109443 L32.1279318,20.2265658 C32.0696837,20.5754829 32.0381099,20.808639 32.0182402,21.165455 L31.8508448,24.1951227 L31.8954836,24.2400652 L32.2972325,24.1951227 C32.2773628,24.2790153 32.26457,24.3364872 32.245789,24.3754374 L32.245789,24.3754374 Z" id="Shape" fill="#E03328" sketch:type="MSShapeGroup"></path>
            <path d="M35.1807876,24.1951227 L34.7787665,24.2400652 L34.7341278,24.1951227 L34.8231331,22.5439634 C34.8372868,22.2266422 34.8617837,22.0722035 34.9535109,21.6957763 C34.1897526,21.6957763 33.8397194,21.7600576 33.5607272,21.9539912 C33.1001858,22.2792113 32.7964245,22.9710531 32.7964245,23.7157363 C32.7964245,24.188858 32.9194532,24.6412789 33.0732392,24.7507751 C33.1124342,24.783733 33.1785758,24.7965348 33.2501611,24.7965348 C33.5345971,24.7965348 33.7749388,24.6674273 34.2411961,24.2400652 L34.2858348,24.2659412 L34.2542611,24.7965348 L34.3900827,24.7965348 C34.6756074,24.7965348 35.026185,24.6028735 35.1304329,24.3754374 C35.1492138,24.3364872 35.1622788,24.2790153 35.1807876,24.1951227 L35.1807876,24.1951227 Z M34.3955264,22.0978071 L34.2983555,24.0393221 L33.3862549,24.3754374 C33.2694865,24.058661 33.2370961,23.9227441 33.2370961,23.6438283 C33.2370961,23.4496224 33.2694865,23.2437041 33.3220187,23.0361516 C33.4121127,22.686145 33.502479,22.505558 33.7749388,22.0978071 L34.3955264,22.0978071 L34.3955264,22.0978071 Z" id="Shape" fill="#E03328" sketch:type="MSShapeGroup"></path>
            <path d="M37.5126185,24.7769235 L37.3841459,24.7769235 L37.4807725,22.8089878 C37.4875772,22.5899953 37.4875772,22.537971 37.4677075,22.2792113 L37.2921465,22.1885092 L36.5079741,22.6346654 L36.4255013,24.1951227 C36.4255013,24.1951227 36.4255013,24.4664118 36.4508147,24.7322534 L35.9529837,24.7322534 L36.0749237,22.3246985 L36.0362731,22.2792113 L35.6279917,22.3246985 C35.7572808,21.8959746 36.0098709,21.6957763 36.4255013,21.6957763 L36.5539738,21.6957763 L36.5210391,22.3628316 L36.5659501,22.407774 C37.0264915,21.8894375 37.2921465,21.7151151 37.6364638,21.7151151 C37.863196,21.7151151 37.9668995,21.8248837 37.9668995,22.0525923 L37.8566635,24.1951227 L37.8958585,24.2400652 L38.2567793,24.1951227 C38.2053358,24.5304208 37.889326,24.7769235 37.5126185,24.7769235 L37.5126185,24.7769235 Z" id="Shape" fill="#E03328" sketch:type="MSShapeGroup"></path>
            <path d="M41.1547603,24.1951227 L40.7527393,24.2400652 L40.7070118,24.1951227 L40.868419,21.1845215 C40.8882887,20.7508947 40.9013537,20.6016312 40.9666787,20.1876157 L40.9013537,20.1165249 L40.019466,20.3167232 L40.4416289,20.8151761 L40.3961735,21.7151151 C40.3629667,21.7151151 40.312612,21.7083057 40.2532751,21.7083057 C39.4051386,21.7083057 38.762776,22.5769212 38.762776,23.696125 C38.7706694,24.1755114 38.8931538,24.6412789 39.0483007,24.7507751 C39.0872235,24.783733 39.1506432,24.7965348 39.2230451,24.7965348 C39.5082977,24.7965348 39.7491837,24.6674273 40.2151688,24.2400652 L40.2598076,24.2659412 L40.2282338,24.7965348 L40.3629667,24.7965348 C40.6482192,24.7965348 40.9993412,24.6028735 41.1025003,24.3754374 C41.1220978,24.3364872 41.1351628,24.2790153 41.1547603,24.1951227 L41.1547603,24.1951227 Z M40.3700435,22.0915424 L40.2742335,24.0202556 L39.3602277,24.3754374 C39.2369267,24.046404 39.2099801,23.9099423 39.2099801,23.6116876 C39.2099801,23.1851427 39.4116711,22.5703841 39.5866877,22.3312356 C39.5989362,22.3116244 39.6707937,22.2081205 39.7557162,22.0915424 L40.3700435,22.0915424 L40.3700435,22.0915424 Z" id="Shape" fill="#E03328" sketch:type="MSShapeGroup"></path>
            <path d="M43.1498952,22.1885092 C42.8640982,22.0653941 42.7231051,22.0525923 42.2690962,21.9605283 C42.1907062,22.1043442 42.1711087,22.2266422 42.1711087,22.3500298 C42.1711087,22.5899953 42.2554868,22.7182857 42.4098172,22.8999622 L42.7750929,23.3147949 C42.9160861,23.4831249 43.1444514,23.7157363 43.1444514,24.0325127 C43.1444514,24.4726765 42.8058501,24.783733 42.3583737,24.783733 C42.0943518,24.783733 41.782697,24.7387905 41.4258591,24.6483608 L41.5295626,24.1755114 C41.887217,24.3626356 41.919063,24.3435691 42.5734019,24.4857507 L42.6191294,24.4604195 C42.689626,24.3560985 42.7097679,24.2599488 42.7097679,24.1490907 C42.7097679,24.0069091 42.6313779,23.8383067 42.4492844,23.6315713 L42.0352871,23.1589943 C41.8082827,22.8999622 41.7312536,22.7122934 41.7312536,22.4791372 C41.7312536,22.0392457 42.0287546,21.6957763 42.5987154,21.6957763 C42.8004063,21.6957763 43.0216948,21.7083057 43.267208,21.7407187 L43.1498952,22.1885092 L43.1498952,22.1885092 Z" id="Shape" fill="#E03328" sketch:type="MSShapeGroup"></path>
            <path d="M45.4324601,24.2338005 L45.4125904,24.1951227 L44.7438256,24.3498338 C44.6787727,24.3626356 44.6134477,24.3754374 44.5554718,24.3754374 C44.243817,24.3754374 44.0946582,24.1490907 44.0946582,23.6895879 C44.0946582,23.6563577 44.0946582,23.5860841 44.1011907,23.4757707 C44.7500859,23.1589943 44.9452444,23.0170851 45.1839529,22.7182857 C45.2865676,22.5899953 45.3333838,22.4017817 45.3333838,22.2266422 C45.3333838,21.8641063 45.1257047,21.6824297 44.7171512,21.6824297 C44.361402,21.6824297 44.1341254,21.844495 43.9795229,22.1623609 C43.7914413,22.5573099 43.6425547,23.1783332 43.6425547,23.7418846 C43.6425547,24.3887839 43.8869791,24.79027 44.2895445,24.79027 C44.6265127,24.79027 45.0108416,24.6028735 45.4324601,24.2338005 L45.4324601,24.2338005 Z M44.8739312,22.3246985 C44.8739312,22.6346654 44.6722402,22.8740863 44.1139835,23.217011 C44.1406579,22.9579789 44.1526342,22.8416732 44.1989061,22.6218636 C44.2503495,22.3500298 44.269947,22.2922855 44.361402,22.0978071 L44.6330452,22.0978071 C44.8086062,22.0978071 44.8739312,22.1623609 44.8739312,22.3246985 L44.8739312,22.3246985 Z" id="Shape" fill="#E03328" sketch:type="MSShapeGroup"></path>
            <path d="M48.9428632,22.0122802 L47.5038075,24.3754374 L47.5225885,24.4209246 L49.0901167,24.3498338 L49.2071573,24.2659412 L49.4793449,23.7484217 L49.6872962,23.6634396 L49.5558296,24.7769235 L49.1821161,24.7322534 L46.9267699,24.7322534 L46.7767945,24.5764528 L47.6714751,23.217011 L49.0449335,20.9641672 L49.025336,20.9189524 L47.6578657,20.9445559 L47.5416416,21.0287209 L47.3157259,21.5007531 L47.1151237,21.5854629 L47.1543187,20.8279779 L47.0957984,20.5885571 L47.7237351,20.6269624 L49.6685152,20.6269624 L49.7899109,20.7440853 L48.9428632,22.0122802 L48.9428632,22.0122802 Z" id="Shape" fill="#E03328" sketch:type="MSShapeGroup"></path>
            <path d="M52.56323,24.1951227 L52.161209,24.2400652 L52.1154815,24.1951227 L52.2069365,22.5439634 C52.2191849,22.2266422 52.245315,22.0722035 52.3359534,21.6957763 C51.5702898,21.6957763 51.2221619,21.7600576 50.9428974,21.9539912 C50.4826283,22.2792113 50.1758729,22.9710531 50.1758729,23.7157363 C50.1758729,24.188858 50.2999904,24.6412789 50.4564983,24.7507751 C50.4965098,24.783733 50.5610183,24.7965348 50.6320592,24.7965348 C50.917584,24.7965348 51.1562925,24.6674273 51.6225498,24.2400652 L51.6682773,24.2659412 L51.6361592,24.7965348 L51.772253,24.7965348 C52.056689,24.7965348 52.4078109,24.6028735 52.5112422,24.3754374 C52.5300231,24.3364872 52.5430882,24.2790153 52.56323,24.1951227 L52.56323,24.1951227 Z M51.7779689,22.0978071 L51.6816145,24.0393221 L50.769514,24.3754374 C50.650568,24.058661 50.6179055,23.9227441 50.6179055,23.6438283 C50.6179055,23.4496224 50.650568,23.2437041 50.702828,23.0361516 C50.7964605,22.686145 50.8849215,22.505558 51.1562925,22.0978071 L51.7779689,22.0978071 L51.7779689,22.0978071 Z" id="Shape" fill="#E03328" sketch:type="MSShapeGroup"></path>
            <path d="M55.5747133,21.8319656 L55.2061713,22.0525923 L54.2657633,23.0361516 L54.9979478,24.3754374 L55.3490698,24.4857507 C55.2181476,24.7189068 55.0828704,24.7965348 54.8172153,24.7965348 L54.6607074,24.7965348 L53.7918847,23.10697 L53.9952088,23.0361516 L54.7578784,22.0978071 L54.7578784,22.0525923 L54.5063771,21.8894375 L54.5063771,21.7856612 L55.5869617,21.6957763 L55.5747133,21.8319656 L55.5747133,21.8319656 Z M53.760311,21.5203644 L53.6253059,24.1951227 C53.6122409,24.4026752 53.6449034,24.6674273 53.6506194,24.7322534 L53.1454392,24.7322534 L53.3386924,20.8993411 L52.9434761,20.2780454 L53.8185591,20.1227896 L53.8836119,20.1682768 C53.7989616,20.7440853 53.7918847,20.9772414 53.760311,21.5203644 L53.760311,21.5203644 Z" id="Shape" fill="#E03328" sketch:type="MSShapeGroup"></path>
            <path d="M57.515955,24.2338005 L57.4947244,24.1951227 L56.8292258,24.3498338 C56.762812,24.3626356 56.697487,24.3754374 56.6386945,24.3754374 C56.3292172,24.3754374 56.1792419,24.1490907 56.1792419,23.6895879 C56.1792419,23.6563577 56.1792419,23.5860841 56.1860466,23.4757707 C56.8349417,23.1589943 57.0290115,23.0170851 57.2688087,22.7182857 C57.3725122,22.5899953 57.4182397,22.4017817 57.4182397,22.2266422 C57.4182397,21.8641063 57.2102884,21.6824297 56.8025514,21.6824297 C56.4473466,21.6824297 56.2187091,21.844495 56.0635622,22.1623609 C55.8768415,22.5573099 55.7260496,23.1783332 55.7260496,23.7418846 C55.7260496,24.3887839 55.9721071,24.79027 56.3744004,24.79027 C56.710552,24.79027 57.0932477,24.6028735 57.515955,24.2338005 L57.515955,24.2338005 Z M56.9571539,22.3246985 C56.9571539,22.6346654 56.755463,22.8740863 56.1991116,23.217011 C56.2249694,22.9579789 56.2372178,22.8416732 56.2840341,22.6218636 C56.3362941,22.3500298 56.3548029,22.2922855 56.4473466,22.0978071 L56.7170845,22.0978071 C56.8934621,22.0978071 56.9571539,22.1623609 56.9571539,22.3246985 L56.9571539,22.3246985 Z" id="Shape" fill="#E03328" sketch:type="MSShapeGroup"></path>
            <path d="M59.6937278,24.7769235 L59.5636221,24.7769235 L59.6610652,22.8089878 C59.6670534,22.5899953 59.6670534,22.537971 59.6480002,22.2792113 L59.4732558,22.1885092 L58.6890834,22.6346654 L58.6052497,24.1951227 C58.6052497,24.1951227 58.6052497,24.4664118 58.6302909,24.7322534 L58.1316433,24.7322534 L58.256033,22.3246985 L58.2149327,22.2792113 L57.8082845,22.3246985 C57.9381179,21.8959746 58.1896193,21.6957763 58.6052497,21.6957763 L58.7358997,21.6957763 L58.7032372,22.3628316 L58.7484203,22.407774 C59.2067842,21.8894375 59.4732558,21.7151151 59.8170287,21.7151151 C60.0448497,21.7151151 60.1474644,21.8248837 60.1474644,22.0525923 L60.0364119,24.1951227 L60.0764235,24.2400652 L60.4387051,24.1951227 C60.3869895,24.5304208 60.069891,24.7769235 59.6937278,24.7769235 L59.6937278,24.7769235 Z" id="Shape" fill="#E03328" sketch:type="MSShapeGroup"></path>
            <path d="M22.2083281,32.1842608 C22.2083281,31.2317526 21.8887799,30.4067177 21.2671034,29.7848773 C20.6862552,29.1935432 20.0449813,28.9505815 19.104301,28.9505815 C17.2025265,28.9505815 15.9793156,30.2318506 15.9793156,32.2515383 C15.9793156,33.1544735 16.31955,33.9985749 16.9208124,34.6111545 C17.5130925,35.2033057 18.1434789,35.4454503 19.0939579,35.4454503 C20.9761349,35.4454503 22.2083281,34.1546479 22.2083281,32.1842608 L22.2083281,32.1842608 Z M20.8697096,32.3580383 C20.8697096,33.8046413 20.1424244,35.0099168 19.2597201,35.0099168 C18.2017271,35.0099168 17.3184784,33.6594635 17.3184784,32.0379934 C17.3184784,30.5813124 18.0561067,29.3872044 18.9385388,29.3872044 C19.9867331,29.3872044 20.8697096,30.7365683 20.8697096,32.3580383 L20.8697096,32.3580383 Z" id="Shape" fill="#E03328" sketch:type="MSShapeGroup"></path>
            <path d="M29.764255,35.4454503 C28.9675619,35.4454503 28.5407718,35.0483222 28.5407718,34.3101761 L28.6090909,31.8244486 L28.1431058,31.2222194 L28.1431058,30.9601911 C28.5407718,30.8052077 28.6869366,30.7172294 28.9675619,30.4361346 C29.1523773,30.2612675 29.2296786,30.163756 29.4142217,29.8829336 L29.880479,30.0866728 L29.7441131,30.9893356 L30.5495161,30.9220581 C30.7920352,30.9220581 30.9471821,31.0574303 30.9471821,31.2614419 C30.9471821,31.5144817 30.7337871,31.6972477 30.4131501,31.6972477 L29.7441131,31.6972477 L29.7441131,33.9702475 C29.7441131,34.3774536 29.8124322,34.5623987 29.9964309,34.68851 C30.1714476,34.8059052 30.3652451,34.8440382 30.8794074,34.8440382 L30.9471821,35.0385166 C30.4425464,35.3585615 30.2002994,35.4454503 29.764255,35.4454503 L29.764255,35.4454503 Z" id="Shape" fill="#E03328" sketch:type="MSShapeGroup"></path>
            <path d="M55.7448305,35.3100781 L55.7448305,35.1057941 C56.1623662,35.0194501 56.2494663,34.8535715 56.2799513,34.1061645 L56.3471816,32.231927 L56.3471816,30.426329 C56.3471816,29.6399718 56.3275841,29.4555715 56.2494663,29.1935432 C56.2010169,29.0181314 56.1430409,28.9407758 55.9402612,28.8141198 L55.9402612,28.6103805 L57.385305,28.348897 L57.6188419,28.5428306 C57.4909138,29.3779436 57.4816594,29.5906713 57.4816594,30.9220581 L57.4816594,34.1061645 C57.4816594,34.8731827 57.6084988,35.0385166 57.9960939,35.1057941 L57.9960939,35.3100781 L55.7448305,35.3100781 L55.7448305,35.3100781 Z" id="Shape" fill="#E03328" sketch:type="MSShapeGroup"></path>
            <path d="M17.9504979,45.0582374 C17.5520153,45.0582374 17.261319,45.0293653 16.3402363,44.8640315 L16.2033259,43.5536178 L16.4657147,43.4857955 C16.9316999,44.0488022 17.1244087,44.2525414 17.3772709,44.4374865 C17.5228913,44.5532474 17.7577891,44.640681 17.9017764,44.640681 C18.2128867,44.640681 18.4551337,44.3884583 18.4551337,44.0774019 C18.4551337,43.9907855 18.4363527,43.9025348 18.3963412,43.8347126 C18.3566018,43.7483685 18.2896436,43.678912 18.2128867,43.630701 C18.1429345,43.5920232 18.0084739,43.5242009 17.805422,43.4171561 L17.2711178,43.1545831 C16.4853123,42.7566379 16.174474,42.3783039 16.174474,41.7858804 C16.174474,40.9711959 16.8059492,40.436789 17.7760257,40.436789 C18.2128867,40.436789 18.4646602,40.485 19.0743604,40.6797507 L19.2115429,41.6799251 L18.938811,41.8147525 C18.5517603,41.3391794 18.4260096,41.2038072 18.2128867,41.0477343 C18.0757042,40.941779 17.8538713,40.8633339 17.6981801,40.8633339 C17.3772709,40.8633339 17.133663,41.1057509 17.133663,41.4078188 C17.133663,41.6799251 17.3089518,41.8640531 17.7379194,42.0778703 L18.5414171,42.4853488 C19.2311404,42.8252773 19.4834583,43.1447775 19.4834583,43.678912 C19.4834583,44.514842 18.8704919,45.0582374 17.9504979,45.0582374 L17.9504979,45.0582374 Z" id="Shape" fill="#E03328" sketch:type="MSShapeGroup"></path>
            <path d="M73.4615193,35.4070449 C73.0630367,35.4070449 72.7726126,35.3781728 71.8515299,35.2128389 L71.7146195,33.9024253 L71.9767361,33.834603 C72.4427213,34.3976096 72.6354301,34.6013489 72.8885645,34.786294 C73.0341848,34.9020549 73.2688105,34.9894884 73.4127978,34.9894884 C73.7239081,34.9894884 73.9661551,34.7372658 73.9661551,34.425937 C73.9661551,34.339593 73.9476463,34.2513423 73.9073626,34.18352 C73.8678954,34.097176 73.800665,34.0277194 73.7239081,33.9795084 C73.6542281,33.9408306 73.5194953,33.8730084 73.3164434,33.7659636 L72.7821392,33.5033905 C71.9966058,33.1054453 71.6854954,32.7271114 71.6854954,32.1346878 C71.6854954,31.3200033 72.3169706,30.7855964 73.2870471,30.7855964 C73.7239081,30.7855964 73.9756816,30.8335351 74.5853818,31.0285582 L74.7225643,32.0287325 L74.4498324,32.16356 C74.0627817,31.6879869 73.9373032,31.5526147 73.7239081,31.3965417 C73.5869978,31.2905864 73.3648927,31.2121414 73.2094736,31.2121414 C72.8885645,31.2121414 72.6449566,31.4545584 72.6449566,31.7568987 C72.6449566,32.0287325 72.8202454,32.2125881 73.2489408,32.4266778 L74.0524385,32.8341562 C74.742434,33.1740848 74.9944797,33.4935849 74.9944797,34.0277194 C74.9944797,34.8636495 74.3815133,35.4070449 73.4615193,35.4070449 L73.4615193,35.4070449 Z" id="Shape" fill="#E03328" sketch:type="MSShapeGroup"></path>
            <path d="M24.1291557,44.8934484 L24.1291557,44.6308753 C23.5787925,44.3691195 23.4614796,44.1950695 23.4614796,43.6595731 L23.4614796,43.5920232 L23.5289821,41.4753687 L23.5289821,41.3590631 C23.5289821,40.6988172 23.2467236,40.436789 22.5382194,40.436789 C21.8408748,40.436789 21.2303581,40.6309949 20.7148349,41.0093289 C20.4241385,41.2234185 20.2496663,41.4846296 20.2496663,41.6989916 C20.2496663,41.9414086 20.4521739,42.0778703 20.7828818,42.0778703 L21.0547971,42.0778703 L21.2872453,41.5625299 C21.482676,41.1057509 21.6846392,40.941779 22.0153471,40.941779 C22.2954281,40.941779 22.3730015,41.0384734 22.3730015,41.4173521 L22.3931434,41.9506695 L22.3931434,42.5534434 L21.0547971,43.0197557 C20.5400905,43.1935332 20.3452042,43.3112008 20.2115601,43.51494 C20.1037738,43.678912 20.0457978,43.8829236 20.0457978,44.1065464 C20.0457978,44.69897 20.4905523,45.0971876 21.1614947,45.0971876 C21.6078823,45.0971876 21.8699989,44.9994036 22.3931434,44.6308753 C22.5297816,44.941387 22.7031651,45.0582374 23.033873,45.0582374 L23.0534705,45.0582374 C23.3547821,45.0484318 23.7124366,44.9901428 24.1291557,44.8934484 L24.1291557,44.8934484 Z M22.3931434,44.3590415 C22.1416421,44.4276809 21.9287914,44.456553 21.7635736,44.456553 C21.4138125,44.456553 21.1810922,44.2525414 21.1810922,43.931407 C21.1810922,43.6405066 21.3359669,43.4558339 21.7241064,43.2910448 L22.3931434,42.989794 L22.3931434,44.3590415 L22.3931434,44.3590415 Z" id="Shape" fill="#E03328" sketch:type="MSShapeGroup"></path>
            <path d="M30.0220166,44.9612706 L30.0220166,44.7569867 C30.1080278,44.7381925 30.1763469,44.7093204 30.2043822,44.6799035 C30.3399317,44.5728587 30.3987242,44.3298969 30.4185939,43.7576294 L30.4877295,42.0778703 C30.4877295,42.058259 30.4969839,42.0386478 30.4969839,42.0086861 C30.4969839,41.4078188 30.2626304,41.1357126 29.7389415,41.1357126 C29.4588605,41.1357126 29.2928261,41.1940016 28.9536804,41.4078188 L28.9536804,43.7576294 C28.9536804,44.4669034 29.0113841,44.5921976 29.4183046,44.7569867 L29.4183046,44.9612706 L27.2753718,44.9612706 L27.2753718,44.7569867 C27.3905072,44.7381925 27.4683528,44.7093204 27.50782,44.6799035 C27.6539847,44.5728587 27.7214873,44.2912192 27.7514279,43.7576294 L27.8189304,42.0778703 L27.8189304,42.0086861 C27.8189304,41.3784019 27.5941035,41.1259069 27.0323083,41.1259069 C26.7603929,41.1259069 26.5954473,41.1940016 26.2761713,41.4078188 L26.2761713,43.7576294 C26.2761713,44.5826643 26.3145497,44.6897091 26.6730207,44.7569867 L26.6730207,44.9612706 L24.5371649,44.9612706 L24.5371649,44.7569867 C24.9459906,44.6897091 25.043706,44.514842 25.0731022,43.7576294 L25.1392438,41.8833919 L25.1392438,41.7951413 C25.1392438,41.2332241 25.0325463,41.0477343 24.5951408,40.8736843 L24.5951408,40.6797507 L26.2761713,40.4073721 L26.2761713,41.0093289 C26.9068299,40.523133 27.2070527,40.4073721 27.8466935,40.4073721 C28.4095774,40.4073721 28.6921081,40.5822392 28.8853613,41.0766064 C29.5552149,40.5536394 29.8940884,40.4073721 30.4782029,40.4073721 C30.8445674,40.4073721 31.1265537,40.5141445 31.3399488,40.7086228 C31.5446338,40.9025564 31.6317339,41.1547791 31.6317339,41.6115581 L31.6317339,43.7576294 C31.6317339,44.4856975 31.7093073,44.6611094 32.096358,44.7569867 L32.096358,44.9612706 L30.0220166,44.9612706 L30.0220166,44.9612706 Z" id="Shape" fill="#E03328" sketch:type="MSShapeGroup"></path>
            <path d="M36.2983897,41.7760748 C36.2983897,40.941779 35.6478614,40.3975664 34.6587318,40.3975664 C33.4167399,40.3975664 32.5332191,41.4658355 32.5332191,42.941583 C32.5332191,44.2133189 33.300788,45.1364101 34.3767455,45.1364101 C35.0572144,45.1364101 35.6680033,44.9315814 36.1426984,44.4669034 C36.1816212,44.4276809 36.2210884,44.3108304 36.279881,44.1645631 L36.1426984,44.0967408 C35.6680033,44.3108304 35.4537917,44.3590415 35.0852497,44.3590415 C34.3579645,44.3590415 33.8731985,44.009852 33.7373769,43.4171561 C33.6685134,43.1545831 33.6685134,43.0870332 33.6685134,42.6599435 L33.6685134,42.5534434 L36.2115619,42.5534434 C36.2695378,42.2331261 36.2983897,41.9702807 36.2983897,41.7760748 L36.2983897,41.7760748 Z M35.2009294,41.8833919 L35.0762675,42.0190365 L33.6685134,42.0190365 C33.7185959,41.5922192 33.7757553,41.4173521 33.9300857,41.2141576 C34.1048301,40.98999 34.338367,40.8736843 34.5904127,40.8736843 C34.8329318,40.8736843 35.0365281,40.98999 35.1151904,41.1847407 C35.1916751,41.3484403 35.2009294,41.4658355 35.2009294,41.8833919 L35.2009294,41.8833919 Z" id="Shape" fill="#E03328" sketch:type="MSShapeGroup"></path>
            <path d="M39.5093865,44.9612706 L39.5093865,44.7569867 C39.9356322,44.6706426 40.0134778,44.514842 40.0518563,43.7576294 L40.1199032,42.0778703 L40.1199032,42.0288421 C40.1199032,41.4364186 39.8286625,41.1259069 39.2957192,41.1259069 C39.0725254,41.1259069 38.9165619,41.1752075 38.5779606,41.3484403 L38.5779606,43.7576294 C38.5779606,44.52492 38.6359365,44.6706426 38.9764432,44.7569867 L38.9764432,44.9612706 L36.8414039,44.9612706 L36.8414039,44.7569867 C37.2581231,44.6706426 37.3454953,44.504764 37.3746194,43.7576294 L37.4418497,41.8833919 L37.4418497,41.7951413 C37.4418497,41.2332241 37.3359687,41.0477343 36.8985633,40.8736843 L36.8985633,40.6797507 L38.5779606,40.4073721 L38.5779606,41.0093289 C39.1980039,40.543289 39.4993155,40.4269833 40.1111932,40.4269833 C40.9067974,40.4269833 41.2557419,40.7862508 41.2557419,41.6115581 L41.2557419,43.7576294 C41.2557419,44.456553 41.332771,44.6308753 41.7211826,44.7569867 L41.7211826,44.9612706 L39.5093865,44.9612706 L39.5093865,44.9612706 Z" id="Shape" fill="#E03328" sketch:type="MSShapeGroup"></path>
            <path d="M25.4792061,35.3100781 L25.4792061,35.1057941 C25.9054518,35.0194501 25.9832974,34.8636495 26.0216759,34.1064369 L26.089995,32.4266778 L26.089995,32.3776496 C26.089995,31.785226 25.7984821,31.4747144 25.2655388,31.4747144 C25.042345,31.4747144 24.8863815,31.5240149 24.5480524,31.6972477 L24.5480524,34.1064369 C24.5480524,34.8737275 24.6057562,35.0194501 24.9459906,35.1057941 L24.9459906,35.3100781 L22.8112235,35.3100781 L22.8112235,35.1057941 C23.2279427,35.0194501 23.3153149,34.8535715 23.3441668,34.1064369 L23.4116693,32.2321994 L23.4116693,32.1439487 C23.4116693,31.5820316 23.3057883,31.3965417 22.8683829,31.2224918 L22.8683829,31.0285582 L24.5480524,30.7561795 L24.5480524,31.3581363 C25.1678235,30.8920965 25.4688629,30.7757908 26.0810128,30.7757908 C26.8763449,30.7757908 27.2258337,31.1347858 27.2258337,31.9603655 L27.2258337,34.1064369 C27.2258337,34.8053605 27.3028628,34.9796828 27.6912744,35.1057941 L27.6912744,35.3100781 L25.4792061,35.3100781 L25.4792061,35.3100781 Z" id="Shape" fill="#E03328" sketch:type="MSShapeGroup"></path>
            <path d="M48.8146628,40.8829452 C48.7076931,40.9804567 48.5909247,41.1847407 48.4747006,41.4753687 L47.2022237,44.5630531 C47.038639,44.9708039 46.7857767,45.1652822 46.4085247,45.1652822 L46.2713422,45.1652822 L45.3312063,42.3491594 L44.3984196,44.5630531 C44.195912,45.0293653 44.0309663,45.1652822 43.6621522,45.1652822 L43.5554547,45.1652822 L42.1781856,41.2141576 C42.1493337,41.1163737 42.1098665,41.0188621 42.0606005,40.9319733 C42.0026246,40.8341894 41.9737727,40.805862 41.8477499,40.7473006 L41.8477499,40.543289 L43.8562219,40.543289 L43.8562219,40.7473006 C43.5257862,40.8249285 43.389148,40.9608455 43.389148,41.2141576 C43.389148,41.3103073 43.4095621,41.4173521 43.4577393,41.5434634 L44.1863854,43.7576294 L45.0584744,41.4753687 C44.9044162,40.9608455 44.7876478,40.8249285 44.4580286,40.7473006 L44.4580286,40.543289 L46.4665007,40.543289 L46.4665007,40.7473006 C46.2032953,40.7960564 46.125994,40.8736843 46.125994,41.0766064 C46.125994,41.1847407 46.1553903,41.3103073 46.1932244,41.4462242 L46.9319414,43.7576294 L47.668481,41.4753687 C47.6978773,41.3784019 47.7174748,41.290696 47.7174748,41.2038072 C47.7174748,40.9319733 47.5723988,40.805862 47.2022237,40.7473006 L47.2022237,40.543289 L49.007916,40.543289 L49.007916,40.7473006 C48.9210882,40.7960564 48.8522247,40.843995 48.8146628,40.8829452 L48.8146628,40.8829452 Z" id="Shape" fill="#E03328" sketch:type="MSShapeGroup"></path>
            <path d="M38.0548161,31.2312079 C37.9478464,31.3289918 37.8310779,31.5330034 37.715126,31.8236314 L36.4423769,34.9113158 C36.2790644,35.319339 36.02593,35.5135449 35.6484058,35.5135449 L35.5112233,35.5135449 L34.5713596,32.6976945 L33.6385728,34.9113158 C33.4360652,35.377628 33.2711196,35.5135449 32.9023054,35.5135449 L32.7956079,35.5135449 L31.4183388,31.5624203 C31.3894869,31.4649088 31.3502919,31.3671248 31.3007538,31.280236 C31.2427778,31.1827245 31.2139259,31.1541247 31.0879031,31.0958357 L31.0879031,30.8915517 L33.0966473,30.8915517 L33.0966473,31.0958357 C32.7659395,31.1734636 32.6293013,31.3093805 32.6293013,31.5624203 C32.6293013,31.65857 32.6499875,31.7656148 32.6978926,31.8917261 L33.4268109,34.1061645 L34.2986276,31.8236314 C34.1445695,31.3093805 34.0280732,31.1734636 33.6984541,31.0958357 L33.6984541,30.8915517 L35.7066539,30.8915517 L35.7066539,31.0958357 C35.4431764,31.1443191 35.3664195,31.221947 35.3664195,31.4251415 C35.3664195,31.5330034 35.3958157,31.65857 35.4336498,31.7944869 L36.1720947,34.1061645 L36.9086342,31.8236314 C36.9380305,31.726937 36.957628,31.6392311 36.957628,31.5520699 C36.957628,31.280236 36.812552,31.1541247 36.4423769,31.0958357 L36.4423769,30.8915517 L38.2480693,30.8915517 L38.2480693,31.0958357 C38.1612414,31.1443191 38.0926502,31.1925301 38.0548161,31.2312079 L38.0548161,31.2312079 Z" id="Shape" fill="#E03328" sketch:type="MSShapeGroup"></path>
            <path d="M52.975322,41.7760748 C52.975322,40.941779 52.3247937,40.3975664 51.3351197,40.3975664 C50.0942166,40.3975664 49.2115123,41.4658355 49.2115123,42.941583 C49.2115123,44.2133189 49.9774481,45.1364101 51.0534056,45.1364101 C51.7319692,45.1364101 52.3443912,44.9315814 52.8196307,44.4669034 C52.857737,44.4276809 52.8980207,44.3108304 52.9549079,44.1645631 L52.8196307,44.0967408 C52.3443912,44.3108304 52.1315405,44.3590415 51.7610933,44.3590415 C51.0340803,44.3590415 50.5498586,44.009852 50.4134926,43.4171561 C50.3462623,43.1545831 50.3462623,43.0870332 50.3462623,42.6599435 L50.3462623,42.5534434 L52.8887664,42.5534434 C52.9456536,42.2331261 52.975322,41.9702807 52.975322,41.7760748 L52.975322,41.7760748 Z M51.8775895,41.8833919 L51.7518389,42.0190365 L50.3462623,42.0190365 C50.3938951,41.5922192 50.4521433,41.4173521 50.6078345,41.2141576 C50.7823068,40.98999 51.0152993,40.8736843 51.2665285,40.8736843 C51.5106807,40.8736843 51.7131883,40.98999 51.7902173,41.1847407 C51.8686074,41.3484403 51.8775895,41.4658355 51.8775895,41.8833919 L51.8775895,41.8833919 Z" id="Shape" fill="#E03328" sketch:type="MSShapeGroup"></path>
            <path d="M55.3471645,32.1248822 C55.3471645,31.2905864 54.696364,30.7463739 53.70669,30.7463739 C52.4660591,30.7463739 51.5830826,31.8146429 51.5830826,33.2903904 C51.5830826,34.561854 52.3492906,35.4852176 53.4252481,35.4852176 C54.1035395,35.4852176 54.7159615,35.2803888 55.191201,34.8157109 C55.2295794,34.7764883 55.2698632,34.6596379 55.3267504,34.5133706 L55.191201,34.4455483 C54.7159615,34.6596379 54.5031108,34.7078489 54.1329357,34.7078489 C53.4056506,34.7078489 52.9217011,34.3586595 52.7853351,33.7659636 C52.7181048,33.5033905 52.7181048,33.4355683 52.7181048,33.0087509 L52.7181048,32.9022509 L55.2603366,32.9022509 C55.3172238,32.5816612 55.3471645,32.3190882 55.3471645,32.1248822 L55.3471645,32.1248822 Z M54.2491598,32.2321994 L54.1236814,32.367844 L52.7181048,32.367844 C52.7657376,31.9407542 52.8239857,31.7661595 52.9794048,31.5629651 C53.1541492,31.3385251 53.3871418,31.2224918 53.6380987,31.2224918 C53.882251,31.2224918 54.0850307,31.3385251 54.1617876,31.5332758 C54.2404498,31.6972477 54.2491598,31.8146429 54.2491598,32.2321994 L54.2491598,32.2321994 Z" id="Shape" fill="#E03328" sketch:type="MSShapeGroup"></path>
            <path d="M56.5325413,42.0190365 C56.2323185,41.7760748 55.9416221,41.6407026 55.7173396,41.6407026 C55.5635536,41.6407026 55.4280042,41.747475 55.2619698,41.979814 L55.2619698,43.7576294 C55.2619698,44.4467474 55.4094954,44.6115365 56.1351475,44.7569867 L56.1351475,44.9612706 L53.5251409,44.9612706 L53.5251409,44.7569867 C53.9622741,44.6022756 54.0297766,44.4669034 54.0583563,43.7576294 L54.1269476,41.747475 L54.1269476,41.6989916 C54.1269476,41.2332241 53.991126,41.0384734 53.5825725,40.8736843 L53.5825725,40.6797507 L55.2619698,40.3975664 L55.2227748,41.4078188 L55.2619698,41.4078188 C55.6498371,40.6988172 55.9601309,40.4073721 56.3392882,40.4073721 C56.6395111,40.4073721 56.8433795,40.6988172 56.8433795,41.1057509 C56.8433795,41.4173521 56.7870367,41.6022972 56.5325413,42.0190365 L56.5325413,42.0190365 Z" id="Shape" fill="#E03328" sketch:type="MSShapeGroup"></path>
            <path d="M60.949329,41.3103073 C60.6485617,41.5434634 60.454492,41.747475 60.0061991,42.2810648 L61.9496183,45.0293653 L61.8821158,45.1652822 L61.6970283,45.1652822 C61.2215166,45.1652822 60.9792696,45.1162541 60.6776858,44.9612706 C60.4231904,44.8250813 60.1714169,44.6022756 59.9386966,44.2912192 C59.6000952,43.8347126 59.4340608,43.5242009 58.9988329,42.5534434 L59.8036915,41.5434634 C59.9386966,41.3882076 60.0061991,41.2141576 60.0061991,41.0673455 C60.0061991,40.8829452 59.9095725,40.7862508 59.6771243,40.7473006 L59.6771243,40.543289 L62.0846234,40.543289 L62.0846234,40.7473006 C61.513846,40.9319733 61.2890191,41.0477343 60.949329,41.3103073 L60.949329,41.3103073 Z M57.1362534,44.9612706 L57.1362534,44.7569867 C57.4933635,44.6611094 57.58128,44.4669034 57.6022385,43.7576294 L57.6694688,41.5434634 L57.6694688,39.6692259 C57.6694688,38.7374186 57.6207472,38.5925131 57.2622762,38.4658571 L57.2622762,38.2615731 L58.6006225,37.9995448 L58.9688923,38.1940232 C58.8344316,39.3105033 58.8039466,39.7574766 58.8039466,40.543289 L58.8039466,43.7576294 C58.8039466,44.4856975 58.8823366,44.6510314 59.2696595,44.7569867 L59.2696595,44.9612706 L57.1362534,44.9612706 L57.1362534,44.9612706 Z" id="Shape" fill="#E03328" sketch:type="MSShapeGroup"></path>
            <path d="M45.0097528,31.6591147 C44.7089856,31.8922708 44.5149158,32.0962825 44.0666229,32.6298722 L46.0100421,35.3781728 L45.9425396,35.5140897 L45.7574521,35.5140897 C45.2819404,35.5140897 45.0396935,35.4650615 44.7378374,35.3100781 C44.4836143,35.1741611 44.2318408,34.951083 43.9988482,34.6400266 C43.6605191,34.18352 43.4944846,33.8730084 43.0592567,32.9022509 L43.8641154,31.8922708 C43.9988482,31.737015 44.0666229,31.5629651 44.0666229,31.416153 C44.0666229,31.2317526 43.9699963,31.1347858 43.7375481,31.0961081 L43.7375481,30.8920965 L46.1450472,30.8920965 L46.1450472,31.0961081 C45.5742698,31.2807808 45.3494429,31.3965417 45.0097528,31.6591147 L45.0097528,31.6591147 Z M41.1966772,35.3100781 L41.1966772,35.1057941 C41.5537873,35.0099168 41.6417039,34.8157109 41.6626623,34.1064369 L41.7298926,31.8922708 L41.7298926,30.0180334 C41.7298926,29.0859537 41.6811711,28.9413206 41.3227,28.8146645 L41.3227,28.6103805 L42.6610463,28.3483523 L43.0293161,28.5428306 C42.8948554,29.6593107 42.8640982,30.1062841 42.8640982,30.8920965 L42.8640982,34.1064369 C42.8640982,34.8342326 42.9427604,34.9995664 43.3300833,35.1057941 L43.3300833,35.3100781 L41.1966772,35.3100781 L41.1966772,35.3100781 Z" id="Shape" fill="#E03328" sketch:type="MSShapeGroup"></path>
            <path d="M50.2292216,31.6591147 C49.9287266,31.8922708 49.7343846,32.0962825 49.2863639,32.6298722 L51.2295109,35.3781728 L51.1620084,35.5140897 L50.9771931,35.5140897 C50.5014092,35.5140897 50.2591623,35.4650615 49.9575784,35.3100781 C49.7030831,35.1741611 49.4515818,34.951083 49.2185892,34.6400266 C48.88026,34.18352 48.7139534,33.8730084 48.2789977,32.9022509 L49.0835842,31.8922708 C49.2185892,31.737015 49.2863639,31.5629651 49.2863639,31.416153 C49.2863639,31.2317526 49.1897373,31.1347858 48.9572891,31.0961081 L48.9572891,30.8920965 L51.364516,30.8920965 L51.364516,31.0961081 C50.7937387,31.2807808 50.5691839,31.3965417 50.2292216,31.6591147 L50.2292216,31.6591147 Z M46.416146,35.3100781 L46.416146,35.1057941 C46.7732561,35.0099168 46.8611727,34.8157109 46.8821311,34.1064369 L46.9493614,31.8922708 L46.9493614,30.0180334 C46.9493614,29.0859537 46.9009121,28.9413206 46.542441,28.8146645 L46.542441,28.6103805 L47.8807873,28.3483523 L48.2490571,28.5428306 C48.1145964,29.6593107 48.0838392,30.1062841 48.0838392,30.8920965 L48.0838392,34.1064369 C48.0838392,34.8342326 48.1622292,34.9995664 48.5495522,35.1057941 L48.5495522,35.3100781 L46.416146,35.3100781 L46.416146,35.3100781 Z" id="Shape" fill="#E03328" sketch:type="MSShapeGroup"></path>
            <path d="M62.3717812,44.9612706 L62.3717812,44.7569867 C62.4986206,44.7185813 62.594975,44.6799035 62.6733651,44.6308753 C62.8470207,44.504764 62.8777779,44.3884583 62.9077186,43.7576294 L62.9738601,41.8833919 L62.9738601,41.8147525 C62.9738601,41.5723355 62.9357539,41.3198405 62.8870323,41.1847407 C62.8274232,41.0286678 62.731341,40.9608455 62.4986206,40.8736843 L62.4986206,40.6797507 L63.8369669,40.4073721 L64.1769292,40.543289 L64.1083379,41.747475 L64.1083379,43.7576294 C64.1083379,44.52492 64.1573317,44.6308753 64.5737787,44.7569867 L64.5737787,44.9612706 L62.3717812,44.9612706 L62.3717812,44.9612706 Z M63.5751225,39.4654867 C63.1290071,39.4654867 62.7694473,39.1457142 62.7694473,38.7374186 C62.7694473,38.3683455 63.1290071,38.0673671 63.5751225,38.0673671 C64.0122557,38.0673671 64.3715433,38.3683455 64.3715433,38.7374186 C64.3715433,39.1457142 64.0122557,39.4654867 63.5751225,39.4654867 L63.5751225,39.4654867 Z" id="Shape" fill="#E03328" sketch:type="MSShapeGroup"></path>
            <path d="M38.5194403,35.3100781 L38.5194403,35.1057941 C38.6462797,35.0673887 38.7426341,35.028711 38.8210241,34.9796828 C38.9946798,34.8535715 39.025437,34.7372658 39.0553776,34.1064369 L39.1215192,32.2321994 L39.1215192,32.16356 C39.1215192,31.921143 39.0834129,31.6683756 39.0349635,31.5335482 C38.9750823,31.3774752 38.879,31.3096529 38.6462797,31.2224918 L38.6462797,31.0285582 L39.9848981,30.7561795 L40.3245882,30.8920965 L40.255997,32.0962825 L40.255997,34.1064369 C40.255997,34.8737275 40.3052629,34.9796828 40.7214377,35.1057941 L40.7214377,35.3100781 L38.5194403,35.3100781 L38.5194403,35.3100781 Z M39.7227815,29.8142942 C39.2766661,29.8142942 38.9171063,29.4942493 38.9171063,29.0859537 C38.9171063,28.7168806 39.2766661,28.4161746 39.7227815,28.4161746 C40.1599147,28.4161746 40.5194745,28.7168806 40.5194745,29.0859537 C40.5194745,29.4942493 40.1599147,29.8142942 39.7227815,29.8142942 L39.7227815,29.8142942 Z" id="Shape" fill="#E03328" sketch:type="MSShapeGroup"></path>
            <path d="M67.7178173,44.9612706 L67.7178173,44.7569867 C68.1454239,44.6706426 68.2227252,44.514842 68.2605593,43.7576294 L68.3299671,42.0778703 L68.3299671,42.0288421 C68.3299671,41.4364186 68.0389986,41.1259069 67.5038778,41.1259069 C67.2809562,41.1259069 67.1274424,41.1752075 66.7866636,41.3484403 L66.7866636,43.7576294 C66.7866636,44.52492 66.8443674,44.6706426 67.1843296,44.7569867 L67.1843296,44.9612706 L65.0484738,44.9612706 L65.0484738,44.7569867 C65.4668261,44.6706426 65.5536539,44.504764 65.5816892,43.7576294 L65.6521858,41.8833919 L65.6521858,41.7951413 C65.6521858,41.2332241 65.5441273,41.0477343 65.108355,40.8736843 L65.108355,40.6797507 L66.7866636,40.4073721 L66.7866636,41.0093289 C67.4077956,40.543289 67.7085629,40.4269833 68.3190796,40.4269833 C69.1160448,40.4269833 69.4641727,40.7862508 69.4641727,41.6115581 L69.4641727,43.7576294 C69.4641727,44.456553 69.5417462,44.6308753 69.9298856,44.7569867 L69.9298856,44.9612706 L67.7178173,44.9612706 L67.7178173,44.9612706 Z" id="Shape" fill="#E03328" sketch:type="MSShapeGroup"></path>
            <path d="M73.8714338,45.757161 C73.8714338,46.2523454 73.3183487,46.6219632 72.6286254,46.6219632 C71.8528908,46.6219632 71.4135801,46.2523454 71.4135801,45.60245 C71.4135801,45.408244 71.4331776,45.3208105 71.5504904,45.0971876 L73.0741964,45.2232989 C73.6572222,45.2627938 73.8714338,45.3889051 73.8714338,45.757161 L73.8714338,45.757161 Z M75.2960635,41.0766064 L75.2288332,40.4073721 C74.7723747,40.543289 74.414448,40.6113837 74.1626745,40.6113837 C74.0352907,40.6113837 73.8126413,40.5822392 73.5018031,40.523133 C73.1319002,40.4558555 72.8417482,40.4269833 72.6286254,40.4269833 C71.4835323,40.4269833 70.609538,41.0866844 70.609538,41.9506695 C70.609538,42.2908704 70.744543,42.6215381 70.9873343,42.8634103 C71.1816763,43.0682391 71.3087878,43.1545831 71.6754245,43.3493338 C70.8806368,43.7769683 70.744543,44.0003188 70.744543,44.3108304 C70.744543,44.5532474 70.8806368,44.69897 71.2589775,44.9612706 C70.425267,45.3396046 70.4067582,45.7282889 70.4067582,45.9519118 C70.4067582,46.6410297 71.1517356,47.107342 72.2804975,47.107342 C73.7930438,47.107342 74.8989419,46.3697406 74.8989419,45.3208105 C74.8989419,44.9901428 74.7239253,44.6510314 74.4721518,44.514842 C74.2198339,44.3691195 74.1422604,44.3492358 73.4046321,44.2912192 L72.5515963,44.2239416 C71.9976946,44.1749135 71.7758617,44.0678687 71.7758617,43.8249069 C71.7758617,43.6982509 71.8332933,43.5628787 71.9500618,43.4171561 C72.3281303,43.4950564 72.4835494,43.51494 72.7546482,43.51494 C73.9386641,43.51494 74.7533215,42.8446162 74.7533215,41.8738587 C74.7533215,41.6507806 74.7239253,41.5238521 74.6278431,41.2141576 L75.2960635,41.0766064 L75.2960635,41.0766064 Z M73.6662044,42.0086861 C73.6662044,42.640877 73.259284,43.0382774 72.6484951,43.0382774 C72.0270908,43.0382774 71.6754245,42.6307989 71.6754245,42.0086861 C71.6754245,41.4271577 72.0649249,40.9608455 72.6680926,40.9608455 C73.298479,40.9608455 73.6662044,41.3882076 73.6662044,42.0086861 L73.6662044,42.0086861 Z" id="Shape" fill="#E03328" sketch:type="MSShapeGroup"></path>
            <path d="M58.4329549,35.3100781 L58.4329549,35.1057941 C58.5597943,35.0673887 58.6561487,35.028711 58.7345388,34.9796828 C58.9081944,34.8535715 58.9389516,34.7372658 58.9686201,34.1064369 L59.0350338,32.2321994 L59.0350338,32.16356 C59.0350338,31.921143 58.9966554,31.6683756 58.948206,31.5335482 C58.8885969,31.3774752 58.7925147,31.3096529 58.5597943,31.2224918 L58.5597943,31.0285582 L59.8984128,30.7561795 L60.2381029,30.8920965 L60.1695116,32.0962825 L60.1695116,34.1064369 C60.1695116,34.8737275 60.2185054,34.9796828 60.6349524,35.1057941 L60.6349524,35.3100781 L58.4329549,35.3100781 L58.4329549,35.3100781 Z M59.6362962,29.8142942 C59.1899086,29.8142942 58.830621,29.4942493 58.830621,29.0859537 C58.830621,28.7168806 59.1899086,28.4161746 59.6362962,28.4161746 C60.0734294,28.4161746 60.432717,28.7168806 60.432717,29.0859537 C60.432717,29.4942493 60.0734294,29.8142942 59.6362962,29.8142942 L59.6362962,29.8142942 Z" id="Shape" fill="#E03328" sketch:type="MSShapeGroup"></path>
            <path d="M63.778991,35.3100781 L63.778991,35.1057941 C64.2065976,35.0194501 64.2838989,34.8636495 64.321733,34.1064369 L64.3908686,32.4266778 L64.3908686,32.3776496 C64.3908686,31.785226 64.1001723,31.4747144 63.5650515,31.4747144 C63.3418577,31.4747144 63.1883439,31.5240149 62.8475651,31.6972477 L62.8475651,34.1064369 C62.8475651,34.8737275 62.9055411,35.0194501 63.2452311,35.1057941 L63.2452311,35.3100781 L61.1096475,35.3100781 L61.1096475,35.1057941 C61.5279998,35.0194501 61.6148276,34.8535715 61.6428629,34.1064369 L61.7130873,32.2321994 L61.7130873,32.1439487 C61.7130873,31.5820316 61.605301,31.3965417 61.1692566,31.2224918 L61.1692566,31.0285582 L62.8475651,30.7561795 L62.8475651,31.3581363 C63.4689693,30.8920965 63.7697366,30.7757908 64.3802533,30.7757908 C65.1772185,30.7757908 65.5253464,31.1347858 65.5253464,31.9603655 L65.5253464,34.1064369 C65.5253464,34.8053605 65.6029199,34.9796828 65.9913315,35.1057941 L65.9913315,35.3100781 L63.778991,35.3100781 L63.778991,35.3100781 Z" id="Shape" fill="#E03328" sketch:type="MSShapeGroup"></path>
            <path d="M69.9326075,36.1059685 C69.9326075,36.6011529 69.3795224,36.9707707 68.6897991,36.9707707 C67.9140645,36.9707707 67.4747538,36.6011529 67.4747538,35.9512574 C67.4747538,35.7570514 67.4943513,35.6696179 67.6116641,35.445995 L69.1353701,35.571834 C69.7181237,35.6116013 69.9326075,35.7377126 69.9326075,36.1059685 L69.9326075,36.1059685 Z M71.3575094,31.4254138 L71.2900069,30.7561795 C70.8335484,30.8920965 70.4756217,30.9601911 70.223576,30.9601911 C70.0964644,30.9601911 69.873815,30.9307742 69.5629768,30.8719404 C69.1930739,30.8046629 68.9029219,30.7757908 68.6897991,30.7757908 C67.544706,30.7757908 66.6709839,31.4352195 66.6709839,32.2994769 C66.6709839,32.6396779 66.8057167,32.9703455 67.0487802,33.2122178 C67.24285,33.4170465 67.3702337,33.5033905 67.7365982,33.6981413 C66.9420827,34.1255034 66.8057167,34.3491262 66.8057167,34.6596379 C66.8057167,34.9020549 66.9420827,35.0477775 67.3204234,35.3100781 C66.4867129,35.688412 66.467932,36.076824 66.467932,36.3007192 C66.467932,36.9898372 67.2129093,37.4558771 68.3416712,37.4558771 C69.8542175,37.4558771 70.9601156,36.7182757 70.9601156,35.6696179 C70.9601156,35.3389502 70.785099,34.9995664 70.5333255,34.8636495 C70.2810076,34.7179269 70.2034341,34.6977709 69.4658058,34.6400266 L68.6130422,34.5727491 C68.0585961,34.5237209 67.8370354,34.4166761 67.8370354,34.1737144 C67.8370354,34.0470583 67.894467,33.9116861 68.0112355,33.7659636 C68.389304,33.8438638 68.5447231,33.8637475 68.8160941,33.8637475 C69.9995656,33.8637475 70.8144952,33.1934236 70.8144952,32.2226661 C70.8144952,31.999588 70.785099,31.8726596 70.6890168,31.5629651 L71.3575094,31.4254138 L71.3575094,31.4254138 Z M69.7271059,32.3574936 C69.7271059,32.9896844 69.3207299,33.3870849 68.7096688,33.3870849 C68.0882645,33.3870849 67.7365982,32.9796064 67.7365982,32.3574936 C67.7365982,31.7759652 68.1260986,31.3096529 68.7289941,31.3096529 C69.3599249,31.3096529 69.7271059,31.737015 69.7271059,32.3574936 L69.7271059,32.3574936 Z" id="Shape" fill="#E03328" sketch:type="MSShapeGroup"></path>
        </g>
    </g>
</svg>