<?xml version="1.0" encoding="utf-8"?>
<!-- Generator: Adobe Illustrator 19.1.0, SVG Export Plug-In . SVG Version: 6.00 Build 0)  -->
<svg version="1.1" id="Layer_1" xmlns="http://www.w3.org/2000/svg" xmlns:xlink="http://www.w3.org/1999/xlink" x="0px" y="0px"
	 viewBox="0 0 288 144" style="enable-background:new 0 0 288 144;" xml:space="preserve">
<style type="text/css">
	.st0{fill:#B7C234;}
	.st1{fill:#2ABEDE;}
	.st2{fill:#0778BB;}
	.st3{fill:#FFFFFF;}
	.st4{fill:#2DBAD9;}
	.st5{fill:#B9C133;}
</style>
<g>
	<path class="st0" d="M122.4,35.3c0,0,0.6,4.6,5,8.6c-4.6,12.3-6.1,22.4-5.2,29.7c1.5,15.8,19.7,20.2,23.8,20.2l0.4,0.1
		c-11,5.2-39.6,4.8-24.2-57.2L122.4,35.3z"/>
	<path class="st1" d="M139.3,49.1c-21.4,28.9-4.5,42,6.6,44.7c-4-0.1-22.3-4.5-23.8-20.2c-0.9-7.2,0.7-17.3,5.2-29.7
		c2.4,2.1,5.8,4,10.8,5C138.6,48.9,139,49,139.3,49.1"/>
	<path class="st2" d="M144.6,9.6c0,0-1.9,12.2,8.8,23.7c-5.9,5.7-10.5,11-14,15.8c-0.4-0.1-0.8-0.2-1.2-0.2c-5-0.9-8.4-2.8-10.8-5
		c3.6-9.6,9-20.6,16.6-32.7L144.6,9.6z"/>
	<path class="st3" d="M146,93.8c-11.1-2.7-28-15.8-6.6-44.7c19.4,4.6,21.7,32.1,9.9,42.9c-0.6,0.6-1.5,1.2-2.6,1.7
		C146.6,93.8,146.3,93.8,146,93.8"/>
	<path class="st4" d="M139.3,49.1c3.6-4.8,8.2-10.1,14-15.8c0.5,0.5,1,1,1.5,1.5c17.8,17.3,6.5,51.9-8.2,58.9c1.1-0.5,2-1.1,2.6-1.7
		C161.1,81.2,158.8,53.7,139.3,49.1"/>
	<path class="st5" d="M163.3,24.2c0,0-5.8,11.1,5.8,22.8c16.6,16.8,0.5,44.9-17.8,47.2c-1.3,0.2-3.1,0.1-5-0.4l0.3-0.2
		c14.7-6.9,26-41.6,8.2-58.9c-0.5-0.5-1-1-1.5-1.5c2.7-2.6,5.6-5.3,8.8-8L163.3,24.2z"/>
	<path class="st2" d="M146.3,93.7c-0.8-0.7-7.3-6.9-2-22.6C144.3,71.1,147.1,94.4,146.3,93.7"/>
	<path class="st2" d="M267.2,134.7c0-0.3-0.2-0.6-0.6-0.6c-0.3,0-0.6,0.3-0.6,0.6c0,0.3,0.2,0.6,0.6,0.6
		C266.9,135.3,267.2,135.1,267.2,134.7"/>
	<path class="st2" d="M260.4,134.7c0-0.3-0.2-0.6-0.6-0.6c-0.3,0-0.6,0.3-0.6,0.6c0,0.3,0.2,0.6,0.6,0.6
		C260.1,135.3,260.4,135.1,260.4,134.7"/>
	<path class="st2" d="M258.4,129.7c-0.3-0.1-0.6-0.1-0.9-0.1c-1.4,0-2.1,0.8-2.1,1.8c0,1.4,1.6,1.4,1.6,2.3c0,0.6-0.4,0.9-1.2,0.9
		c-0.3,0-0.7-0.1-0.9-0.2l-0.2,0.8c0.3,0.1,0.6,0.1,1,0.1c1.3,0,2.3-0.8,2.3-1.9c0-1.3-1.7-1.3-1.7-2.3c0-0.4,0.3-0.8,1.1-0.8
		c0.2,0,0.5,0,0.8,0.1L258.4,129.7z"/>
	<path class="st2" d="M265.4,131.1c0,0.7-0.7,1.3-1.5,1.3c-0.1,0-0.3,0-0.4,0l0.4-2c0.1,0,0.3,0,0.5,0
		C265.1,130.4,265.4,130.7,265.4,131.1 M266.3,131c0-0.9-0.6-1.4-1.7-1.4c-0.5,0-1,0-1.4,0l-1.1,5.6h0.9l0.4-2.1c0.1,0,0.3,0,0.4,0
		C265.1,133.2,266.3,132.3,266.3,131"/>
	<path class="st2" d="M253.2,134.7c0-0.3-0.3-0.6-0.6-0.6c-0.3,0-0.6,0.3-0.6,0.6c0,0.3,0.2,0.6,0.6,0.6
		C252.9,135.3,253.2,135.1,253.2,134.7"/>
	<polygon class="st2" points="251.2,129.7 248.4,129.7 247.3,135.2 250.2,135.2 250.3,134.5 248.3,134.5 248.6,132.7 250.5,132.7 
		250.7,132 248.8,132 249.1,130.4 251.1,130.4 	"/>
	<path class="st2" d="M241.5,134.7c0-0.3-0.2-0.6-0.6-0.6c-0.3,0-0.6,0.3-0.6,0.6c0,0.3,0.2,0.6,0.6,0.6
		C241.2,135.3,241.5,135.1,241.5,134.7"/>
	<path class="st2" d="M232.9,134.7c0-0.3-0.2-0.6-0.6-0.6c-0.3,0-0.6,0.3-0.6,0.6c0,0.3,0.2,0.6,0.6,0.6
		C232.6,135.3,232.9,135.1,232.9,134.7"/>
	<path class="st2" d="M230.8,129.7c-0.3-0.1-0.6-0.1-0.9-0.1c-1.4,0-2.1,0.8-2.1,1.8c0,1.4,1.6,1.4,1.6,2.3c0,0.6-0.4,0.9-1.2,0.9
		c-0.3,0-0.7-0.1-0.9-0.2l-0.2,0.8c0.3,0.1,0.6,0.1,1,0.1c1.3,0,2.2-0.8,2.2-1.9c0-1.3-1.7-1.3-1.7-2.3c0-0.4,0.3-0.8,1.1-0.8
		c0.2,0,0.5,0,0.8,0.1L230.8,129.7z"/>
	<path class="st2" d="M237.7,133.3h-1.7l0.9-1.7c0.2-0.3,0.3-0.6,0.4-0.9c0,0.3,0.1,0.6,0.1,0.9L237.7,133.3z M238.9,135.2l-0.9-5.6
		h-1l-3,5.6h0.9l0.7-1.2h2.2l0.2,1.2H238.9z"/>
	<path class="st2" d="M35.2,117.7h4.2v6.1c-0.7,0.2-1.8,0.4-2.9,0.4c-5.2,0-8.1-3.2-8.1-8.3c0-4.7,2.9-8.3,8.3-8.3
		c2.6,0,4.8,0.6,6.4,1.4l0.3-3.7c-1.1-0.4-3.6-1-6.8-1c-8.9,0-13.7,4.9-13.7,11.7c0,6.7,4.7,11.7,13.7,11.7c3.6,0,6.1-0.6,7.5-1.2
		v-11.9h-9V117.7z"/>
	<path class="st2" d="M64.2,126.7c1,0.3,3.1,0.8,5.7,0.8c4.5,0,7.7-1.9,7.7-4.9c0-2-1.3-2.9-3.8-4.2l-2.4-1.3
		c-1.4-0.7-2.3-1.2-2.3-2.1c0-1,0.8-1.6,2.8-1.6c1.8,0,3.1,0.4,4.3,0.7l0.3-3.1c-0.5-0.1-2.5-0.7-5.1-0.7c-4.3,0-7.1,2.4-7.1,4.7
		c0,2.6,2.3,3.7,4.3,4.7l2,1c1.8,0.8,2.2,1.5,2.2,2.1c0,1.3-1.4,1.7-3.2,1.7c-2.3,0-4.3-0.8-5.1-1.1L64.2,126.7z"/>
	<path class="st2" d="M96.2,126.7c1,0.3,3.1,0.8,5.7,0.8c4.5,0,7.6-1.9,7.6-4.9c0-2-1.3-2.9-3.8-4.2l-2.4-1.3
		c-1.4-0.7-2.3-1.2-2.3-2.1c0-1,0.8-1.6,2.8-1.6c1.8,0,3.1,0.4,4.3,0.7l0.3-3.1c-0.5-0.1-2.5-0.7-5.1-0.7c-4.3,0-7.1,2.4-7.1,4.7
		c0,2.6,2.3,3.7,4.3,4.7l2,1c1.8,0.8,2.2,1.5,2.2,2.1c0,1.3-1.4,1.7-3.2,1.7c-2.3,0-4.3-0.8-5.1-1.1L96.2,126.7z"/>
	<path class="st2" d="M48.4,114.7c1-0.6,3.1-1.6,5.6-1.6c2.8,0,3.8,1.5,3.8,3.2v0.6h-1c-6.3,0-10.8,1.1-10.8,5.7
		c0,3.1,2.9,4.9,6.1,4.9c3,0,4.5-1.2,5.7-2.5c0.1,0.8,0.1,1.6,0.4,2.3h4.5c-0.1-0.7-0.3-1.8-0.3-3V117c0-4.2-1.5-6.7-7.9-6.7
		c-3.1,0-5.1,0.7-6.5,1.2L48.4,114.7z M57.9,120c0,3-1.1,4.8-4,4.8c-1.9,0-3.1-1-3.1-2.6c0-2.4,2.5-3.2,6.7-3.2h0.4V120z"/>
	<rect x="157.1" y="102.9" class="st2" width="4.9" height="24.4"/>
	<path class="st2" d="M94,123.2c-0.9,0.6-2.3,1.3-5.4,1.3c-3.8,0-5.2-1.7-5.2-4.6h11.9v-0.8c0-6.8-3.8-8.9-8.2-8.9
		c-5.2,0-8.4,3.9-8.4,8.9c0,4.5,2.9,8.4,9.5,8.4c2.9,0,5.1-0.7,6.1-1.1L94,123.2z M83.4,117.4c0-2.2,1.1-4.5,3.7-4.5
		c2.2,0,3.4,1.5,3.4,4.5H83.4z"/>
	<path class="st2" d="M191.3,122.9c-1.2,0.7-2.8,1.2-5.3,1.2c-4.2,0-7.8-2.3-7.8-8.2c0-5.9,3.6-8.2,7.8-8.2c2.6,0,4.2,0.8,5.3,1.2
		l0.3-3.7c-1-0.3-3.3-0.9-6.2-0.9c-8.3,0-12.6,5-12.6,11.7c0,6.6,4.3,11.7,12.8,11.7c2.5,0,5-0.4,6-0.8L191.3,122.9z"/>
	<path class="st2" d="M131.3,102.9v10c-0.8-1.3-2.4-2.7-5.4-2.7c-4.4,0-7.1,3.2-7.1,8.6c0,4.6,2.1,8.6,7.2,8.6
		c3.2,0,4.7-1.4,5.5-2.9c0.1,1.1,0.2,2.1,0.3,2.6h4.6c-0.1-0.6-0.2-1.7-0.2-2.9v-21.5H131.3z M123.8,118.7c0-3.3,1-5.5,3.7-5.5
		c2.7,0,3.8,2.4,3.8,5.6c0,3.1-1,5.7-3.9,5.7C124.6,124.5,123.8,122.6,123.8,118.7"/>
	<path class="st2" d="M153.6,123.2c-0.9,0.6-2.4,1.3-5.4,1.3c-3.8,0-5.2-1.7-5.2-4.6h11.9v-0.8c0-6.8-3.8-8.9-8.2-8.9
		c-5.2,0-8.4,3.9-8.4,8.9c0,4.5,2.9,8.4,9.5,8.4c2.9,0,5.1-0.7,6.1-1.1L153.6,123.2z M143,117.4c0-2.2,1.1-4.5,3.7-4.5
		c2.2,0,3.4,1.5,3.4,4.5H143z"/>
	<path class="st2" d="M211.3,127.2h4.9v-9.2c0-3.1,2.2-4.1,4.3-4.1c0.5,0,1,0.1,1.4,0.2v-3.8c-0.3,0-0.5-0.1-0.8-0.1
		c-3.1,0-4.6,2-5.2,3.3c-0.1-1-0.2-2-0.2-3.1h-4.5c0.1,0.7,0.2,1.7,0.2,2.8V127.2z"/>
	<rect x="223.5" y="110.5" class="st2" width="4.9" height="16.7"/>
	<path class="st2" d="M194.5,114.7c1-0.6,3.2-1.6,5.6-1.6c2.8,0,3.8,1.5,3.8,3.2v0.6h-1c-6.3,0-10.8,1.1-10.8,5.7
		c0,3.1,2.9,4.9,6.1,4.9c2.9,0,4.5-1.2,5.7-2.5c0.1,0.8,0.1,1.6,0.4,2.3h4.5c-0.1-0.7-0.3-1.8-0.3-3V117c0-4.2-1.5-6.7-7.9-6.7
		c-3.1,0-5.1,0.7-6.5,1.2L194.5,114.7z M204,120c0,3-1.1,4.8-4,4.8c-1.9,0-3.1-1-3.1-2.6c0-2.4,2.5-3.2,6.7-3.2h0.4V120z"/>
	<rect x="223.5" y="103.4" class="st2" width="5.1" height="4"/>
	<path class="st2" d="M231.4,102.9v21.5c0,1.2,0,2.2-0.2,2.9h4.6c0.1-0.5,0.2-1.5,0.2-2.6c0.9,1.4,2.4,2.9,5.6,2.9
		c5.1,0,7.2-4,7.2-8.6c0-5.5-2.7-8.6-7.1-8.6c-2.9,0-4.6,1.4-5.3,2.7l-0.1-10H231.4z M236.4,118.8c0-3.3,1.1-5.6,3.8-5.6
		c2.8,0,3.7,2.2,3.7,5.5c0,3.9-0.8,5.8-3.6,5.8C237.4,124.5,236.4,122,236.4,118.8"/>
	<path class="st2" d="M254.9,117.4c0-2.2,1.1-4.5,3.7-4.5c2.2,0,3.4,1.5,3.4,4.5H254.9z M265.5,123.2c-0.9,0.6-2.3,1.3-5.4,1.3
		c-3.8,0-5.2-1.7-5.2-4.6h11.9v-0.8c0-6.8-3.8-8.9-8.2-8.9c-5.2,0-8.5,3.9-8.5,8.9c0,4.5,2.9,8.4,9.5,8.4c3,0,5.1-0.7,6.1-1.1
		L265.5,123.2z"/>
</g>
</svg>
