<svg width="377" height="105" viewBox="0 0 377 105" xmlns="http://www.w3.org/2000/svg" xmlns:xlink="http://www.w3.org/1999/xlink"><title>logo-gpoba</title><defs><radialGradient fx="50%" fy="50%" r="1.339%" id="a"><stop stop-color="#AEDED9" offset="0%"/><stop stop-color="#3760AD" offset="100%"/></radialGradient><linearGradient x1="0%" y1="50%" y2="50%" id="b"><stop stop-color="#B9D653" offset="0%"/><stop stop-color="#71913B" offset="100%"/></linearGradient><path id="c" d="M.943.695h14.614v24.717H.943z"/><path id="e" d="M.943.845h16.71v58.008H.943z"/><radialGradient fx="50%" fy="50%" r="1.154%" id="g"><stop stop-color="#D1553A" offset="0%"/><stop stop-color="#FCDD40" offset="100%"/></radialGradient><path id="h" d="M.96.174h20.95V47.18H.96z"/><path id="j" d="M.96.174h20.95V47.18H.96z"/><path id="l" d="M.182.36h73.04v98.72H.182z"/><linearGradient x1="100%" y1="50.001%" x2="0%" y2="50.001%" id="n"><stop stop-color="#5E4D1E" offset="0%"/><stop stop-color="#C18931" offset="100%"/></linearGradient><path id="o" d="M.182.115h15.454v76.242H.182z"/><path id="q" d="M.033.36h103.764v98.72H.033z"/><path d="M39.137 59.76L51.15 29.083 63.296 59.76h-24.16zM60.784.36H42.77L19.766 53.498c4.957 4.357 7.87 10.69 7.87 18.114 0 16.802-12.96 24.452-27.277 26.715l-.33.753h24.02l8.24-20.914H70.7l8.517 20.914h24.58L60.785.36z" id="s"/><linearGradient x1="92.148%" y1="42.85%" x2="7.852%" y2="57.151%" id="t"><stop stop-color="#680517" offset="0%"/><stop stop-color="#DF1862" offset="100%"/></linearGradient><path id="v" d="M.36.252h27.276V45.08H.36z"/></defs><g fill="none" fill-rule="evenodd"><path d="M56.35 44.045v20.08h17.737v16.032c-4.05 2.232-11.033 4.88-20.53 4.88-18.574 0-30.725-13.385-30.725-31.79 0-18.404 12.15-31.79 30.725-31.79 11.034 0 18.155 3.207 24.02 9.343l.75-.816V5.267C70.932 2.54 62.547 1.38 53.557 1.38 22.692 1.38.207 21.596.207 53.247c0 31.65 22.485 51.868 53.35 51.868 8.454 0 16.763-.953 24.77-3.063V44.045H56.35z" fill="url(#a)" transform="translate(.176 -1)"/><path d="M114.637 45.72h-14.524V22.293h11.172c8.38 0 18.714 1.395 18.714 11.573 0 9.202-7.686 11.852-15.367 11.852zm32.425-30.534c-6.65-8.492-18.58-11.297-32.006-11.297h-36.73v1.373c5.47 2.018 10.4 4.888 14.614 8.8l-14.614 15.92v14.06h16.71v51.59c-5.37 2.797-10.962 4.903-16.71 6.42v.55h21.787v-38.48h15.92c5.917 0 11.425-.58 16.282-1.933-.417-2.865-.64-5.846-.64-8.94 0-15.982 5.74-29.04 15.387-38.062z" fill="url(#b)" transform="translate(.176 -1)"/><g transform="translate(77.56 3.572)"><mask id="d" fill="#fff"><use xlink:href="#c"/></mask><path d="M15.557 9.496C11.342 5.583 6.412 2.713.943.696v24.717L15.557 9.496z" mask="url(#d)" fill="#4E8ABE"/></g><path d="M93.116 13.068c-4.215-3.913-9.145-6.783-14.614-8.8v24.716l14.614-15.916z" fill="#528485"/><g transform="translate(77.56 42.2)"><mask id="f" fill="#fff"><use xlink:href="#e"/></mask><path d="M17.653.845H.943v58.008c5.747-1.515 11.34-3.622 16.71-6.42V.846z" mask="url(#f)" fill="#4E8ABE"/></g><path d="M95.212 43.045h-16.71v58.008c5.748-1.515 11.34-3.62 16.71-6.418v-51.59z" fill="#528485"/><path d="M185.025 85.038c-18.574 0-30.724-13.386-30.724-31.79 0-18.405 12.15-31.79 30.73-31.79 18.573 0 30.723 13.385 30.723 31.79 0 18.404-12.15 31.79-30.724 31.79zm0-83.66c-15.28 0-28.5 4.963-37.963 13.808 3.52 4.494 5.56 10.576 5.56 18.68 0 16.565-8.083 24.915-20.307 28.325 3.845 26.47 24.864 42.93 52.71 42.93 15.244 0 28.438-4.94 37.895-13.747V15.127C213.463 6.32 200.27 1.38 185.025 1.38z" fill="url(#g)" transform="translate(.176 -1)"/><g transform="translate(130.89 14.012)"><mask id="i" fill="#fff"><use xlink:href="#h"/></mask><path d="M21.91 18.855c0-8.105-2.043-14.187-5.562-18.68C6.7 9.195.96 22.255.96 38.235c0 3.094.224 6.075.64 8.943 12.224-3.41 20.31-11.76 20.31-28.325" mask="url(#i)" fill="#00B6DE"/></g><g transform="translate(130.89 14.012)"><mask id="k" fill="#fff"><use xlink:href="#j"/></mask><path d="M21.91 18.855c0-8.105-2.043-14.187-5.562-18.68C6.7 9.195.96 22.255.96 38.235c0 3.094.224 6.075.64 8.943 12.224-3.41 20.31-11.76 20.31-28.325" mask="url(#k)" fill="#C1723C"/></g><g transform="translate(222.914 2.528)"><mask id="m" fill="#fff"><use xlink:href="#l"/></mask><path d="M41.52 80.674H21.966v-22.45h16.48c7.123 0 17.598 1.535 17.598 10.877 0 8.65-7.682 11.578-14.524 11.578zM21.966 18.766h14.806c6.842 0 14.665 2.093 14.665 10.318 0 7.95-6.984 10.736-13.69 10.736h-15.78V18.766zm34.22 28.722v-.278c10.193-3.206 17.037-10.736 17.037-21.75 0-21.474-18.855-25.1-36.17-25.1H.183V11.6c9.69 9.022 15.452 22.103 15.452 38.12 0 16.017-5.764 29.1-15.454 38.12v11.24h40.5c3.27 0 6.61-.237 9.876-.753L69.96 53.5c-3.61-3.174-8.302-5.304-13.776-6.01z" mask="url(#m)" fill="url(#n)"/></g><g transform="translate(222.914 14.012)"><mask id="p" fill="#fff"><use xlink:href="#o"/></mask><path d="M15.636 38.236c0-16.017-5.764-29.1-15.454-38.12v76.24c9.69-9.022 15.454-22.103 15.454-38.12" mask="url(#p)" fill="#E36F1E"/></g><path d="M238.55 52.248c0-16.017-5.765-29.1-15.454-38.12v76.24c9.69-9.022 15.453-22.103 15.453-38.12" fill="#E7BA54"/><g transform="translate(273.108 2.528)"><mask id="r" fill="#fff"><use xlink:href="#q"/></mask><g mask="url(#r)"><mask id="u" fill="#fff"><use xlink:href="#s"/></mask><path d="M103.798 99.078L3.162 116.794l-18.748-106.16L85.048-7.082l18.75 106.16z" fill="url(#t)" mask="url(#u)"/></g></g><g transform="translate(273.108 55.773)"><mask id="w" fill="#fff"><use xlink:href="#v"/></mask><path d="M27.636 18.365c0-7.423-2.912-13.757-7.87-18.113L.36 45.08c14.316-2.264 27.276-9.913 27.276-26.715" mask="url(#w)" fill="#9C5706"/></g><path d="M300.744 74.138c0-7.423-2.912-13.757-7.87-18.113l-19.406 44.828c14.316-2.264 27.276-9.913 27.276-26.715" fill="#6A471B"/></g></svg>