<svg width="65" height="60" viewBox="0 0 65 60" xmlns="http://www.w3.org/2000/svg" xmlns:xlink="http://www.w3.org/1999/xlink"><title>ifc</title><defs><linearGradient x1="64.871%" y1="13.052%" x2="37.81%" y2="89.348%" id="b"><stop stop-color="#009ACF" offset="0%"/><stop stop-color="#004363" offset="100%"/></linearGradient><path d="M14.603 18.312c1.407-.017 2.74-.222 3.92-.618.298-.1.582-.213.85-.332-.327.8-.81 1.468-1.438 1.967-1.24.91-2.705 1.535-4.297 1.775.4-.686.72-1.654.965-2.793zm-6.616 1.945c-.03-.023-.062-.047-.097-.063-.553-.27-.775-1.5-.488-3.38 1.06.476 2.22.853 3.437 1.113.92.195 1.84.318 2.737.365-.44 1.91-1.004 2.91-1.378 2.91-.026 0-.048.006-.072.008-1.48-.01-2.886-.35-4.14-.953zm-5.134-6.083c-.085-.323-.14-.652-.16-.985.333.47.737.932 1.22 1.377.727.672 1.594 1.273 2.557 1.788-.196 1.1-.252 2.093-.127 2.897-1.662-1.254-2.905-3.028-3.49-5.078zm12.38-2.67c0-.387-.01-.776-.02-1.163 1.24-.083 2.387-.403 3.326-.943.867 1.717 1.335 3.527 1.332 5.237-.002.496-.045.966-.123 1.41-.45.276-.964.513-1.543.707-1.03.346-2.186.533-3.413.566.295-1.767.438-3.82.438-5.81zm-4.185 5.45c-1.235-.262-2.4-.653-3.456-1.148.347-1.557.993-3.44 2.017-5.535.146-.3.297-.6.452-.892.716.32 1.494.574 2.31.748.62.134 1.24.206 1.847.227.01.373.014.756.014 1.152 0 2.34-.186 4.282-.457 5.8-.89-.038-1.81-.155-2.73-.35zm-6.46-3.118c-.844-.78-1.424-1.604-1.723-2.425.235-.92.69-1.84 1.36-2.725.635-.84 1.422-1.594 2.327-2.24.26.47.627.93 1.093 1.365.44.413.957.787 1.53 1.116-.16.3-.313.6-.462.91-.884 1.807-1.605 3.745-2.028 5.505-.787-.442-1.493-.948-2.096-1.504zm9.966-9.234c1.132.84 2.17 1.926 3.04 3.196.164.24.32.484.465.732-.796.46-1.802.732-2.888.81-.09-1.715-.296-3.366-.618-4.738zM12.58 9.155c-.72-.153-1.406-.374-2.035-.65.928-1.623 1.944-3.034 2.946-4.083.316 1.23.578 2.883.688 4.935-.528-.02-1.064-.09-1.598-.202zM8.324 7.083c-.412-.386-.724-.785-.935-1.187.932-.56 1.965-1.017 3.065-1.35.654-.195 1.317-.34 1.977-.44-.953 1.066-1.905 2.42-2.78 3.95-.496-.288-.944-.614-1.328-.973zM6.182 3.917c-.012.052-.028.102-.038.154-.1.47-.09.95.03 1.426-1.072.738-2.003 1.61-2.745 2.59-.227.3-.43.603-.613.91C3.37 6.96 4.57 5.19 6.182 3.915zm.936.36c.11-.514.42-.975.9-1.355 1.164-.347 2.516-.265 3.937.256-.6.104-1.197.242-1.787.42-1.098.33-2.134.777-3.084 1.324-.022-.218-.013-.433.034-.644zm8.08-1.308c.34-.222.655-.373.918-.435.5.2.994.454 1.462.777-.752-.188-1.552-.303-2.38-.343zm-1.68-1.065c.404.046.836.113 1.278.218-.278.148-.564.336-.857.558-.132-.292-.272-.55-.42-.775zm-1.078.39c-.45-.172-.896-.305-1.334-.4.352-.04.707-.064 1.07-.064.168.005.378.208.596.602-.11-.046-.22-.094-.332-.136zM1.483 11.524c0 1.015.147 1.997.414 2.928.015.064.03.127.05.19.002.01.008.02.013.033 1.35 4.358 5.424 7.533 10.23 7.533 2.222 0 4.29-.678 6.003-1.84l.05-.03c.1-.068.2-.14.295-.217 1.97-1.454 3.424-3.562 4.036-6.003.035-.11.066-.227.09-.342.006-.028.006-.055.01-.082.144-.7.222-1.428.222-2.17 0-1.442-.282-2.842-.842-4.157-.107-.255-.4-.372-.65-.267-.257.106-.374.4-.268.65.507 1.196.763 2.464.763 3.773 0 .802-.102 1.58-.285 2.326-.15.468-.407.906-.764 1.3.01-.17.017-.34.017-.512.004-1.908-.525-3.92-1.505-5.813.72-.616 1.177-1.377 1.336-2.227.048-.27-.13-.53-.4-.58-.27-.05-.532.13-.58.398-.106.565-.397 1.08-.855 1.518-.144-.236-.29-.47-.447-.697-.875-1.278-1.913-2.385-3.05-3.267 1.5.098 2.888.46 4.004 1.084.175.1.406.096.57-.04.212-.175.24-.49.064-.7C18.4 2.073 15.624.837 12.19.837 6.287.838 1.483 5.632 1.483 11.523z" id="a"/></defs><g transform="translate(-.74 -.62)" fill="none" fill-rule="evenodd"><path fill="#002740" d="M26.244 1.14h6.502v20.665h-6.502zM34.96 1.134h14.485v4.973H41.45v3.347h7.113v4.973H41.45v7.375h-6.49V1.134zM65.128 21.28c-1.21.414-3 .828-4.647.828-5.616 0-10.12-3.61-10.12-10.98C50.36 4.207 55.06.744 60.48.744c1.79 0 2.857.266 4.6.652V6.84c-1.064-.416-2.155-.772-3.243-.772-2.76 0-4.844 1.805-4.844 5.18 0 3.55 1.94 5.355 4.624 5.355 1.186 0 2.325-.296 3.51-.797v5.474z"/><path fill="#00A3DA" d="M1.277 26.207H3.08v6.765H1.278zM4.248 27.922H5.84v.93h.02c.35-.727 1.05-1.047 1.846-1.047 1.377 0 1.93.97 1.93 2.017v3.15h-1.75v-2.444c0-.95-.326-1.27-.802-1.27-.72 0-1.09.495-1.09 1.58v2.134H4.25v-5.05zM10.182 27.922h1.03v-1.135l1.716-.533v1.668h1.223v1.22H12.93v1.86c0 .61.145.922.697.922.178 0 .362-.04.537-.067l.06 1.134c-.33.04-.66.098-1.1.098-1.564 0-1.94-.69-1.94-1.89v-2.056h-1v-1.22zM18.288 29.966c0-.58-.27-1.055-.97-1.055-.633 0-.933.476-.972 1.056h1.942zm-1.922.99c.096.696.632.968 1.487.968.474 0 1.017-.106 1.54-.387v1.23c-.56.224-1.2.32-1.853.32-1.67 0-2.94-.98-2.94-2.645 0-1.667 1.136-2.637 2.708-2.637 1.874 0 2.555 1.327 2.555 2.83v.32h-3.497zM24.29 29.318c-.197-.06-.39-.06-.593-.06-.817 0-1.272.592-1.272 1.58v2.134h-1.75v-5.05h1.595v.93h.02c.3-.64.736-1.047 1.493-1.047.204 0 .418.03.594.06l-.088 1.453zM25.062 27.922h1.594v.93h.018c.35-.727 1.05-1.047 1.846-1.047 1.38 0 1.933.97 1.933 2.017v3.15h-1.747v-2.444c0-.95-.33-1.27-.807-1.27-.72 0-1.09.495-1.09 1.58v2.134H25.06v-5.05zM33.547 31.924c.665 0 1.08-.603 1.08-1.19-.222-.012-.475-.032-.737-.032-.593 0-1.057.185-1.057.67 0 .348.308.552.714.552zm1.206 1.048c-.01-.273-.04-.534-.04-.797h-.016c-.4.63-.886.913-1.603.913-1 0-1.893-.496-1.893-1.592 0-1.54 1.68-1.723 2.61-1.723.284 0 .595.03.818.066-.01-.688-.525-.872-1.157-.872-.563 0-1.126.108-1.61.38l-.03-1.183c.623-.252 1.273-.36 2.022-.36 1.288 0 2.406.55 2.406 2.093v1.88c0 .397.02.793.1 1.194h-1.605zM36.835 27.922h1.025v-1.135l1.72-.533v1.668H40.8v1.22H39.58v1.86c0 .61.146.922.697.922.176 0 .36-.04.535-.067l.057 1.134c-.33.04-.658.098-1.098.098-1.563 0-1.94-.69-1.94-1.89v-2.056h-.997v-1.22zM41.695 27.922h1.75v5.05h-1.75v-5.05zm0-2.104h1.75v1.278h-1.75v-1.278zM48.475 30.45c0-.756-.33-1.423-1.138-1.423-.804 0-1.133.667-1.133 1.424 0 .747.33 1.415 1.133 1.415.807 0 1.138-.668 1.138-1.414zm-4.08 0c0-1.675 1.272-2.645 2.942-2.645 1.67 0 2.942.97 2.942 2.646 0 1.666-1.274 2.638-2.943 2.638-1.67 0-2.943-.972-2.943-2.637zM51.028 27.922h1.592v.93h.017c.35-.727 1.05-1.047 1.846-1.047 1.38 0 1.932.97 1.932 2.017v3.15h-1.75v-2.444c0-.95-.328-1.27-.804-1.27-.716 0-1.085.495-1.085 1.58v2.134h-1.747v-5.05zM59.513 31.924c.66 0 1.077-.603 1.077-1.19-.223-.012-.476-.032-.736-.032-.593 0-1.06.185-1.06.67 0 .348.31.552.72.552zm1.204 1.048c-.01-.273-.037-.534-.037-.797h-.023c-.396.63-.882.913-1.6.913-1.002 0-1.895-.496-1.895-1.592 0-1.54 1.68-1.723 2.613-1.723.282 0 .592.03.815.066-.01-.688-.522-.872-1.156-.872-.56 0-1.126.108-1.61.38l-.03-1.183c.622-.252 1.273-.36 2.02-.36 1.29 0 2.408.55 2.408 2.093v1.88c0 .397.02.793.095 1.194h-1.6zM63.446 25.703h1.75v7.267h-1.75zM1.288 35.395h4.535v1.28H3.096v1.48h2.612v1.282H3.096v2.72H1.288v-6.762zM6.755 37.11h1.75v5.05h-1.75v-5.05zm0-2.102h1.75v1.28h-1.75v-1.28zM9.697 37.11h1.593v.932h.02c.35-.73 1.047-1.05 1.842-1.05 1.38 0 1.936.97 1.936 2.018v3.15h-1.75v-2.442c0-.95-.33-1.27-.807-1.27-.717 0-1.084.494-1.084 1.58v2.13h-1.75v-5.05zM18.184 41.113c.66 0 1.08-.6 1.08-1.193-.23-.01-.478-.028-.74-.028-.593 0-1.058.184-1.058.668 0 .35.31.553.718.553zm1.204 1.045c-.007-.27-.04-.53-.04-.793h-.018c-.397.628-.884.91-1.603.91-1 0-1.893-.492-1.893-1.59 0-1.538 1.68-1.723 2.612-1.723.28 0 .59.028.818.066-.012-.686-.528-.872-1.157-.872-.564 0-1.126.108-1.613.377l-.03-1.182c.623-.248 1.273-.357 2.02-.357 1.292 0 2.41.553 2.41 2.095v1.878c0 .4.018.797.098 1.192h-1.604zM21.912 37.11h1.593v.932h.02c.35-.73 1.046-1.05 1.843-1.05 1.38 0 1.93.97 1.93 2.018v3.15h-1.744v-2.442c0-.95-.332-1.27-.807-1.27-.72 0-1.087.494-1.087 1.58v2.13h-1.748v-5.05zM32.25 38.556c-.317-.194-.638-.282-1.053-.282-.76 0-1.343.523-1.343 1.395 0 .803.68 1.326 1.44 1.326.395 0 .793-.087 1.084-.243l.04 1.3c-.436.144-.96.224-1.427.224-1.67 0-2.943-.97-2.943-2.638 0-1.677 1.273-2.647 2.944-2.647.525 0 .992.09 1.388.282l-.127 1.28zM36.496 39.154c0-.58-.272-1.054-.973-1.054-.628 0-.932.473-.967 1.054h1.94zm-1.92.99c.095.695.63.97 1.484.97.474 0 1.02-.11 1.542-.39v1.233c-.563.22-1.204.318-1.854.318-1.667 0-2.944-.98-2.944-2.645 0-1.667 1.136-2.637 2.712-2.637 1.873 0 2.553 1.328 2.553 2.83v.32h-3.495zM6.75 51.184c-.513.125-1.087.273-2.008.273-1.806 0-3.892-.91-3.892-3.47 0-2.356 1.65-3.527 3.883-3.527.69 0 1.36.155 2.008.35l-.145 1.46c-.582-.318-1.146-.472-1.767-.472-1.28 0-2.115.93-2.115 2.188 0 1.33.94 2.133 2.26 2.133.593 0 1.196-.157 1.69-.35l.088 1.414zM11.23 48.82c0-.755-.332-1.422-1.137-1.422-.808 0-1.137.667-1.137 1.422 0 .747.33 1.415 1.137 1.415.805 0 1.136-.668 1.136-1.415zm-4.082 0c0-1.676 1.274-2.646 2.945-2.646 1.668 0 2.94.97 2.94 2.646 0 1.666-1.272 2.637-2.94 2.637-1.67 0-2.945-.97-2.945-2.637zM17.395 47.685c-.195-.055-.39-.055-.595-.055-.814 0-1.27.59-1.27 1.578v2.133h-1.75v-5.05h1.593v.933h.02c.3-.64.738-1.05 1.495-1.05.204 0 .416.03.593.06l-.085 1.452zM20.862 47.514c-.64 0-1.07.56-1.07 1.315 0 .738.487 1.288 1.07 1.288.66 0 1.058-.55 1.058-1.357 0-.668-.38-1.246-1.058-1.246zm-2.815-1.224h1.61v.912h.022c.348-.708 1.084-1.027 1.88-1.027 1.4 0 2.168 1.328 2.168 2.55 0 1.49-.807 2.732-2.312 2.732-.615 0-1.272-.224-1.6-.824h-.023v2.742h-1.746V46.29zM28.31 48.82c0-.755-.332-1.422-1.138-1.422-.804 0-1.134.667-1.134 1.422 0 .747.33 1.415 1.134 1.415.806 0 1.137-.668 1.137-1.415zm-4.08 0c0-1.676 1.273-2.646 2.942-2.646 1.67 0 2.944.97 2.944 2.646 0 1.666-1.273 2.637-2.944 2.637-1.67 0-2.943-.97-2.943-2.637zM34.474 47.685c-.192-.055-.386-.055-.59-.055-.817 0-1.274.59-1.274 1.578v2.133h-1.748v-5.05h1.594v.933h.018c.3-.64.74-1.05 1.495-1.05.204 0 .418.03.593.06l-.09 1.452zM37.186 50.295c.66 0 1.074-.6 1.074-1.194-.222-.01-.475-.027-.736-.027-.593 0-1.06.183-1.06.668 0 .35.313.555.722.555zm1.203 1.045c-.01-.27-.04-.532-.04-.794h-.02c-.4.628-.886.91-1.603.91-1 0-1.893-.493-1.893-1.59 0-1.54 1.68-1.724 2.61-1.724.284 0 .594.03.816.068-.01-.688-.522-.873-1.153-.873-.564 0-1.13.11-1.612.378l-.03-1.183c.62-.25 1.272-.357 2.02-.357 1.292 0 2.41.552 2.41 2.093v1.88c0 .398.018.796.095 1.192h-1.6zM40.465 46.29h1.03v-1.13l1.717-.535v1.665h1.222v1.224h-1.222v1.858c0 .61.147.922.7.922.174 0 .358-.04.533-.068l.058 1.134c-.33.04-.66.098-1.095.098-1.563 0-1.943-.69-1.943-1.89v-2.054h-1V46.29zM45.328 46.29h1.75v5.05h-1.75v-5.05zm0-2.1h1.75v1.277h-1.75V44.19zM52.108 48.82c0-.755-.33-1.422-1.137-1.422-.804 0-1.133.667-1.133 1.422 0 .747.33 1.415 1.134 1.415.807 0 1.138-.668 1.138-1.415zm-4.08 0c0-1.676 1.27-2.646 2.943-2.646 1.67 0 2.942.97 2.942 2.646 0 1.666-1.272 2.637-2.94 2.637-1.673 0-2.943-.97-2.943-2.637zM54.66 46.29h1.595v.933h.016c.353-.73 1.053-1.05 1.847-1.05 1.38 0 1.932.97 1.932 2.018v3.15H58.3v-2.443c0-.95-.328-1.267-.804-1.267-.718 0-1.086.495-1.086 1.578v2.133h-1.75v-5.05z"/><path d="M5.404 55.822h.943l-1.12 3.898h-.943l-.682-2.444-.69 2.444h-.94L.85 55.822h.967l.657 2.844.787-2.844h.7l.763 2.844.68-2.844zm2.808 3.203c.332 0 .886-.163.886-1.25s-.554-1.25-.886-1.25c-.575 0-.89.445-.89 1.25 0 .808.315 1.25.89 1.25zm0-3.236c.845 0 1.747.522 1.747 1.986 0 1.456-.903 1.974-1.748 1.974s-1.748-.518-1.748-1.974c0-1.464.903-1.987 1.748-1.987zm3.052 1.854h.463c.463 0 .75-.216.75-.56 0-.364-.252-.573-.687-.573h-.526v1.134zm1.72.894c.138.28.258.52.532.52h.198v.642l-.03.006c-.005 0-.15.04-.402.04-.657 0-.858-.45-1.037-.848-.147-.326-.27-.607-.617-.607h-.364v1.43h-.832v-3.898h1.383c1.012 0 1.484.393 1.484 1.24 0 .522-.316.845-.63.982.14.135.23.317.315.494zm1.953-2.716h-.83v3.898h2.52v-.69h-1.69v-3.208zm2.91 3.21h.487c.6 0 .957-.45.957-1.207 0-.873-.377-1.314-1.126-1.314h-.317v2.52zm.33-3.21c1.216 0 1.94.753 1.94 2.014 0 1.198-.65 1.884-1.775 1.884h-1.328v-3.898h1.163zm4.258 3.21h.653c.423 0 .62-.162.62-.503 0-.42-.347-.508-.64-.508h-.633v1.01zm.57-1.616c.345 0 .508-.147.508-.46 0-.296-.208-.445-.613-.445h-.465v.906h.57zm.925.248c.298.086.69.364.69.948 0 .703-.497 1.108-1.37 1.108h-1.646v-3.898h1.487c.846 0 1.276.352 1.276 1.047 0 .536-.245.73-.436.794zm2.616-.778l-.423 1.227h.857l-.434-1.227zm.426-1.038l1.424 3.872h-.865l-.334-.956h-1.3l-.322.956h-.87l1.434-3.898h.823l.012.026zm3.856 2.382l-1.365-2.408h-.846v3.898h.834v-2.326l1.36 2.326h.85v-3.898h-.832v2.408zm4.704-2.408h-.988l-1.294 1.754v-1.754h-.845v3.898h.845v-1.794l1.326 1.794h1l-1.51-1.966 1.466-1.932zm2.49 2.472h.86v.045c0 .25-.09.675-.688.675-.564 0-.903-.464-.903-1.24 0-.795.324-1.25.886-1.25.67 0 .695.677.695.704v.046l.776-.12v-.035c0-.28-.248-1.33-1.48-1.33-1.103 0-1.734.724-1.734 1.986 0 1.24.65 1.974 1.744 1.974 1.098 0 1.49-.762 1.49-1.417v-.677H38.02v.638zm3.048-.65h.46c.467 0 .752-.216.752-.56 0-.364-.25-.573-.687-.573h-.525v1.134zm1.72.894c.138.28.258.52.532.52h.197v.642l-.028.006c-.006 0-.153.04-.406.04-.655 0-.858-.45-1.035-.848-.145-.326-.27-.607-.613-.607h-.367v1.43h-.833v-3.898h1.386c1.01 0 1.482.393 1.482 1.24 0 .522-.315.845-.63.982.14.135.228.317.315.494zm2.61.487c.33 0 .888-.163.888-1.25s-.557-1.25-.888-1.25c-.573 0-.89.445-.89 1.25 0 .808.317 1.25.89 1.25zm0-3.236c.844 0 1.745.522 1.745 1.986 0 1.456-.9 1.974-1.745 1.974-.847 0-1.75-.518-1.75-1.974 0-1.464.903-1.987 1.75-1.987zm4.462 2.368c0 .572-.22.852-.672.852-.457 0-.688-.288-.688-.852v-2.336h-.83v2.28c-.005.56.134.983.41 1.26.257.26.63.388 1.108.388.686 0 1.504-.283 1.504-1.647v-2.28h-.832v2.335zm2.362-.366h.496c.484 0 .73-.213.73-.627 0-.42-.27-.654-.755-.654h-.47v1.282zm.532-1.97c.985 0 1.53.476 1.53 1.343 0 .817-.537 1.304-1.432 1.304h-.63v1.25h-.83v-3.898h1.362z" fill="#002740"/><use fill="url(#b)" xlink:href="#a"/></g></svg>