<?xml version="1.0" encoding="UTF-8" standalone="no"?>
<svg width="377px" height="105px" viewBox="0 0 377 105" version="1.1" xmlns="http://www.w3.org/2000/svg" xmlns:xlink="http://www.w3.org/1999/xlink" xmlns:sketch="http://www.bohemiancoding.com/sketch/ns">
    <!-- Generator: Sketch 3.3.3 (12072) - http://www.bohemiancoding.com/sketch -->
    <title>logo-gpoba</title>
    <desc>Created with Sketch.</desc>
    <defs>
        <radialGradient cx="50.0002677%" cy="50%" fx="50.0002677%" fy="50%" r="1.33863433%" id="radialGradient-1">
            <stop stop-color="#AEDED9" offset="0%"></stop>
            <stop stop-color="#3760AD" offset="100%"></stop>
        </radialGradient>
        <linearGradient x1="-2.16197148e-14%" y1="50%" x2="100%" y2="50%" id="linearGradient-2">
            <stop stop-color="#B9D653" offset="0%"></stop>
            <stop stop-color="#71913B" offset="100%"></stop>
        </linearGradient>
        <rect id="path-3" x="0.943236236" y="0.695319678" width="14.6138874" height="24.7172573"></rect>
        <rect id="path-5" x="0.943236236" y="0.844615044" width="16.7095031" height="58.008036"></rect>
        <radialGradient cx="50%" cy="50%" fx="50%" fy="50%" r="1.15414801%" id="radialGradient-7">
            <stop stop-color="#D1553A" offset="0%"></stop>
            <stop stop-color="#FCDD40" offset="100%"></stop>
        </radialGradient>
        <rect id="path-8" x="0.961013415" y="0.174351931" width="20.9477919" height="47.0050719"></rect>
        <rect id="path-10" x="0.961013415" y="0.174351931" width="20.9477919" height="47.0050719"></rect>
        <rect id="path-12" x="0.181954662" y="0.361232145" width="73.0412024" height="98.7166019"></rect>
        <linearGradient x1="100%" y1="50.0005288%" x2="0.000429504066%" y2="50.0005288%" id="linearGradient-14">
            <stop stop-color="#5E4D1E" offset="0%"></stop>
            <stop stop-color="#C18931" offset="100%"></stop>
        </linearGradient>
        <rect id="path-15" x="0.181954662" y="0.114842589" width="15.4535977" height="76.2419071"></rect>
        <rect id="path-17" x="0.0334629263" y="0.361232145" width="103.764352" height="98.7166019"></rect>
        <path d="M39.1369838,59.7588634 L51.1491286,29.0844078 L63.2972166,59.7588634 L39.1369838,59.7588634 L39.1369838,59.7588634 Z M60.78436,0.361232145 L42.768757,0.361232145 L19.767178,53.4968102 C24.723874,57.8535205 27.6361943,64.1876113 27.6361943,71.6106187 C27.6361943,88.4120895 14.6755846,96.06165 0.359726458,98.325093 L0.0334629263,99.077834 L24.0535697,99.077834 L32.2927696,78.1639544 L70.6987976,78.1639544 L79.2172038,99.077834 L103.797815,99.077834 L60.78436,0.361232145 L60.78436,0.361232145 Z" id="path-19"></path>
        <linearGradient x1="92.1482065%" y1="42.8497623%" x2="7.85214383%" y2="57.1513333%" id="linearGradient-21">
            <stop stop-color="#680517" offset="0%"></stop>
            <stop stop-color="#DF1862" offset="100%"></stop>
        </linearGradient>
        <rect id="path-22" x="0.359726458" y="0.251609673" width="27.2764678" height="44.8282828"></rect>
    </defs>
    <g id="-assets" stroke="none" stroke-width="1" fill="none" fill-rule="evenodd" sketch:type="MSPage">
        <g id="logo-gpoba" sketch:type="MSLayerGroup" transform="translate(0.176374, -1.000000)">
            <path d="M56.3505222,44.0452022 L56.3505222,64.1238629 L74.0869189,64.1238629 L74.0869189,80.1569324 C70.0368591,82.3890547 63.0535646,85.0377424 53.5574136,85.0377424 C34.983398,85.0377424 22.8321729,71.6523166 22.8321729,53.2482697 C22.8321729,34.8431787 34.983398,21.4577529 53.5574136,21.4577529 C64.5907678,21.4577529 71.7120968,24.6639491 77.5775204,30.7996755 L78.3262534,29.9842931 L78.3262534,5.26703578 C70.9330381,2.5400463 62.5474379,1.37909212 53.5574136,1.37909212 C22.6930926,1.37909212 0.208097573,21.596608 0.208097573,53.2482697 C0.208097573,84.8988873 22.6930926,105.116403 53.5574136,105.116403 C62.0120311,105.116403 70.321294,104.16321 78.3262534,102.053238 L78.3262534,44.0452022 L56.3505222,44.0452022 L56.3505222,44.0452022 Z" id="Shape" fill="url(#radialGradient-1)" sketch:type="MSShapeGroup"></path>
            <path d="M114.636666,45.7187719 L100.11271,45.7187719 L100.11271,22.2940157 L111.285144,22.2940157 C119.66447,22.2940157 129.999286,23.6888312 129.999286,33.8670167 C129.999286,43.0690401 122.318499,45.7187719 114.636666,45.7187719 L114.636666,45.7187719 Z M147.062241,15.1863034 C140.41253,6.69421596 128.481951,3.88892471 115.055998,3.88892471 L78.3262534,3.88892471 L78.3262534,5.26703578 C83.7953504,7.28513329 88.7248577,10.155154 92.9401407,14.0681542 L78.3262534,29.9842931 L78.3262534,44.0452022 L95.0357565,44.0452022 L95.0357565,95.6345814 C89.6660025,98.4315204 84.073511,100.53836 78.3262534,102.053238 L78.3262534,102.605527 L100.11271,102.605527 L100.11271,64.1238629 L116.033743,64.1238629 C121.950406,64.1238629 127.458195,63.5454738 132.314502,62.1913753 C131.898307,59.3234426 131.675569,56.3417114 131.675569,53.2482697 C131.675569,37.2663573 137.414461,24.2077109 147.062241,15.1863034 L147.062241,15.1863034 Z" id="Shape" fill="url(#linearGradient-2)" sketch:type="MSShapeGroup"></path>
            <g id="Clipped" transform="translate(77.383017, 4.571716)">
                <mask id="mask-4" sketch:name="Rectangle-path" fill="white">
                    <use xlink:href="#path-3"></use>
                </mask>
                <g id="Rectangle-path"></g>
                <g id="Group" mask="url(#mask-4)" fill="#4E8ABE" sketch:type="MSShapeGroup">
                    <path d="M15.5571236,9.49643812 C11.3418406,5.58343789 6.41233326,2.71341718 0.943236236,0.695319678 L0.943236236,25.412577 L15.5571236,9.49643812 L15.5571236,9.49643812 Z" id="Shape"></path>
                </g>
            </g>
            <path d="M92.9401407,14.0681542 C88.7248577,10.155154 83.7953504,7.28513329 78.3262534,5.26703578 L78.3262534,29.9842931 L92.9401407,14.0681542 L92.9401407,14.0681542 Z" id="Shape" fill="#528485" sketch:type="MSShapeGroup"></path>
            <g id="Clipped" transform="translate(77.383017, 43.200587)">
                <mask id="mask-6" sketch:name="Rectangle-path" fill="white">
                    <use xlink:href="#path-5"></use>
                </mask>
                <g id="Rectangle-path"></g>
                <g id="Group" mask="url(#mask-6)" fill="#4E8ABE" sketch:type="MSShapeGroup">
                    <path d="M17.6527394,0.844615044 L0.943236236,0.844615044 L0.943236236,58.852651 C6.69049383,57.3377728 12.2829854,55.2309333 17.6527394,52.4339943 L17.6527394,0.844615044 L17.6527394,0.844615044 Z" id="Shape"></path>
                </g>
            </g>
            <path d="M95.0357565,44.0452022 L78.3262534,44.0452022 L78.3262534,102.053238 C84.073511,100.53836 89.6660025,98.4315204 95.0357565,95.6345814 L95.0357565,44.0452022 L95.0357565,44.0452022 Z" id="Shape" fill="#528485" sketch:type="MSShapeGroup"></path>
            <path d="M185.024885,85.0377424 C166.45087,85.0377424 154.30069,71.6523166 154.30069,53.2482697 C154.30069,34.8431787 166.45087,21.4577529 185.024885,21.4577529 C203.598901,21.4577529 215.74908,34.8431787 215.74908,53.2482697 C215.74908,71.6523166 203.598901,85.0377424 185.024885,85.0377424 L185.024885,85.0377424 Z M185.024885,1.37909212 C169.744877,1.37909212 156.523884,6.34133601 147.062241,15.1863034 C150.581077,19.6797808 152.623361,25.7622619 152.623361,33.8670167 C152.623361,50.4314941 144.538927,58.7805504 132.314502,62.1913753 C136.159602,88.655284 157.178502,105.116403 185.024885,105.116403 C200.26934,105.116403 213.463144,100.176084 222.919558,91.3687012 L222.919558,15.1267941 C213.463144,6.31941151 200.26934,1.37909212 185.024885,1.37909212 L185.024885,1.37909212 Z" id="Shape" fill="url(#radialGradient-7)" sketch:type="MSShapeGroup"></path>
            <g id="Clipped" transform="translate(130.714556, 15.011952)">
                <mask id="mask-9" sketch:name="Rectangle-path" fill="white">
                    <use xlink:href="#path-8"></use>
                </mask>
                <g id="Rectangle-path"></g>
                <g id="Group" mask="url(#mask-9)" fill="#00B6DE" sketch:type="MSShapeGroup">
                    <path d="M21.9088053,18.8550651 C21.9088053,10.7503104 19.8665211,4.66782925 16.3476852,0.174351931 C6.69990528,9.19575935 0.961013415,22.2544058 0.961013415,38.2363181 C0.961013415,41.3297599 1.18375102,44.3114911 1.59994616,47.1794238 C13.8243714,43.7685989 21.9088053,35.4195426 21.9088053,18.8550651" id="Shape"></path>
                </g>
            </g>
            <g id="Clipped" transform="translate(130.714556, 15.011952)">
                <mask id="mask-11" sketch:name="Rectangle-path" fill="white">
                    <use xlink:href="#path-10"></use>
                </mask>
                <g id="Rectangle-path"></g>
                <g id="Group" mask="url(#mask-11)" fill="#C1723C" sketch:type="MSShapeGroup">
                    <path d="M21.9088053,18.8550651 C21.9088053,10.7503104 19.8665211,4.66782925 16.3476852,0.174351931 C6.69990528,9.19575935 0.961013415,22.2544058 0.961013415,38.2363181 C0.961013415,41.3297599 1.18375102,44.3114911 1.59994616,47.1794238 C13.8243714,43.7685989 21.9088053,35.4195426 21.9088053,18.8550651" id="Shape"></path>
                </g>
            </g>
            <g id="Clipped" transform="translate(222.737603, 3.527693)">
                <mask id="mask-13" sketch:name="Rectangle-path" fill="white">
                    <use xlink:href="#path-12"></use>
                </mask>
                <g id="Rectangle-path"></g>
                <g id="Group" mask="url(#mask-13)" fill="url(#linearGradient-14)" sketch:type="MSShapeGroup">
                    <path d="M41.5201716,80.673787 L21.9663197,80.673787 L21.9663197,58.2251929 L38.4468109,58.2251929 C45.5691856,58.2251929 56.0441273,59.7588634 56.0441273,69.1007861 C56.0441273,77.745301 48.3622943,80.673787 41.5201716,80.673787 L41.5201716,80.673787 Z M21.9663197,18.7663231 L36.7715732,18.7663231 C43.6136959,18.7663231 51.4367006,20.8585463 51.4367006,29.0844078 C51.4367006,37.032559 44.4534062,39.8201019 37.7482723,39.8201019 L21.9663197,39.8201019 L21.9663197,18.7663231 L21.9663197,18.7663231 Z M56.185299,47.4884548 L56.185299,47.2097005 C66.3789429,44.0035042 73.2231571,36.4740064 73.2231571,25.4595581 C73.2231571,3.98608188 54.3678438,0.361232145 37.0518252,0.361232145 L0.181954662,0.361232145 L0.181954662,11.5991015 C9.87156327,20.621553 15.6355523,33.7031679 15.6355523,49.7205771 C15.6355523,65.7369422 9.87156327,78.8185572 0.181954662,87.8410086 L0.181954662,99.077834 L40.681507,99.077834 C43.9514623,99.077834 47.2883435,98.8408407 50.5541159,98.325093 L69.9615675,53.4968102 C66.3507086,50.3240227 61.6585789,48.1942147 56.185299,47.4884548 L56.185299,47.4884548 Z" id="Shape"></path>
                </g>
            </g>
            <g id="Clipped" transform="translate(222.737603, 15.011952)">
                <mask id="mask-16" sketch:name="Rectangle-path" fill="white">
                    <use xlink:href="#path-15"></use>
                </mask>
                <g id="Rectangle-path"></g>
                <g id="Group" mask="url(#mask-16)" fill="#E36F1E" sketch:type="MSShapeGroup">
                    <path d="M15.6355523,38.2363181 C15.6355523,22.218909 9.87156327,9.13729403 0.181954662,0.114842589 L0.181954662,76.3567497 C9.87156327,67.3342982 15.6355523,54.2526833 15.6355523,38.2363181" id="Shape"></path>
                </g>
            </g>
            <path d="M238.373156,53.2482697 C238.373156,37.2308605 232.609167,24.1492455 222.919558,15.1267941 L222.919558,91.3687012 C232.609167,82.3462498 238.373156,69.2646348 238.373156,53.2482697" id="Shape" fill="#E7BA54" sketch:type="MSShapeGroup"></path>
            <g id="Clipped" transform="translate(272.931993, 3.527693)">
                <mask id="mask-18" sketch:name="Rectangle-path" fill="white">
                    <use xlink:href="#path-17"></use>
                </mask>
                <g id="Rectangle-path"></g>
                <g id="Group" mask="url(#mask-18)">
                    <g id="Clipped">
                        <mask id="mask-20" sketch:name="Shape" fill="white">
                            <use xlink:href="#path-19"></use>
                        </mask>
                        <g id="Shape"></g>
                        <path d="M103.797815,99.077834 L3.16224654,116.793869 L-15.5864037,10.6344238 L85.0481187,-7.08161168 L103.797815,99.077834 L103.797815,99.077834 Z" id="Shape" fill="url(#linearGradient-21)" sketch:type="MSShapeGroup" mask="url(#mask-20)"></path>
                    </g>
                </g>
            </g>
            <g id="Clipped" transform="translate(272.931993, 56.772893)">
                <mask id="mask-23" sketch:name="Rectangle-path" fill="white">
                    <use xlink:href="#path-22"></use>
                </mask>
                <g id="Rectangle-path"></g>
                <g id="Group" mask="url(#mask-23)" fill="#9C5706" sketch:type="MSShapeGroup">
                    <path d="M27.6361943,18.3654181 C27.6361943,10.9424107 24.723874,4.60831991 19.767178,0.251609673 L0.359726458,45.0798925 C14.6755846,42.8164494 27.6361943,35.1668889 27.6361943,18.3654181" id="Shape"></path>
                </g>
            </g>
            <path d="M300.568187,75.1383112 C300.568187,67.7153039 297.655867,61.381213 292.699171,57.0245028 L273.291719,101.852786 C287.607577,99.5893426 300.568187,91.9397821 300.568187,75.1383112" id="Shape" fill="#6A471B" sketch:type="MSShapeGroup"></path>
        </g>
    </g>
</svg>