<svg xmlns="http://www.w3.org/2000/svg" width="88" height="32" viewBox="0 0 88 32"><path fill="#FDB827" d="M9.604 5.308l8.198 8.204-1.636 1.637-8.198-8.21c-.527-.527-.588-1.32-.136-1.773s1.245-.39 1.772.136zm1.005-3.78l9.573 9.586-1.636 1.637L8.97 3.17c-.527-.527-.588-1.32-.136-1.773s1.245-.39 1.772.136zM19.2.556l5.77 5.774-1.636 1.636-5.77-5.774c-.527-.527-.588-1.32-.136-1.773S18.673.023 19.2.55zM14.333.462l8.253 8.26-1.636 1.636-8.253-8.26C12.17 1.573 12.11.78 12.56.328s1.246-.39 1.773.135z"/><path fill="#004990" d="M5.576 22.438l8.198-8.204 1.636 1.637-8.198 8.21c-.527.527-1.32.587-1.772.135s-.39-1.245.136-1.772zM1.8 21.432l9.577-9.585 1.636 1.637-9.578 9.585c-.527.522-1.32.583-1.772.13s-.39-1.245.136-1.772zm-.974-8.597l5.77-5.774L8.232 8.7l-5.77 5.774c-.526.527-1.32.588-1.77.136S.3 13.362.826 12.835zm-.083 4.897l8.253-8.26 1.636 1.638-8.253 8.26c-.53.526-1.32.587-1.777.135s-.39-1.246.136-1.773z"/><path fill="#00A9A1" d="M22.734 26.486l-8.198-8.204 1.636-1.637 8.198 8.204c.527.522.588 1.32.136 1.77s-1.245.39-1.772-.137zm-1.006 3.78L12.15 20.68l1.636-1.637 9.578 9.585c.527.527.588 1.322.136 1.774s-1.245.39-1.772-.136zm-8.59.972l-5.77-5.773 1.636-1.637 5.77 5.774c.526.527.587 1.32.135 1.773s-1.25.39-1.777-.137zm4.864.094l-8.253-8.26 1.63-1.636 8.254 8.26c.527.526.588 1.32.137 1.772s-1.244.39-1.77-.136z"/><path fill="#B61F54" d="M26.76 9.33l-8.2 8.203-1.635-1.637 8.198-8.204c.527-.527 1.32-.588 1.772-.136s.39 1.246-.136 1.773zm3.776 1.006l-9.578 9.585-1.636-1.632L28.9 8.7c.527-.528 1.32-.59 1.772-.137s.39 1.246-.136 1.774zm.973 8.596l-5.77 5.774-1.64-1.636 5.77-5.776c.525-.527 1.32-.588 1.77-.136s.39 1.245-.136 1.772zm.08-4.87l-8.25 8.258-1.64-1.637 8.253-8.26c.527-.526 1.32-.587 1.772-.135s.39 1.246-.136 1.773z"/><path fill="#231F20" d="M53.182 9.704c0 .88.723 1.637 1.604 1.637s1.572-.75 1.572-1.632-.692-1.637-1.572-1.637c-.912 0-1.604.755-1.604 1.637zM37.34 26.39h.765c.255-1.278.574-1.757.766-2.045.516.575 2.33 2.65 5.81 2.65 4.05 0 6.637-2.523 6.637-6.1 0-4.022-2.584-5.236-6.7-7.056-2.455-1.09-5.07-2.24-5.07-4.76 0-1.408.956-3.228 3.636-3.228 2.488 0 4.72 1.66 5.615 5.14h.67v-5.52h-.67c-.064.382-.128.99-.83 1.85-.765-.83-2.105-2.234-4.88-2.234-3.51 0-5.583 2.49-5.583 5.237 0 4.023 3.48 5.524 5.84 6.546.19.065 1.244.51 1.435.608 2.137.928 4.306 2.14 4.306 4.63 0 1.95-1.562 4.12-4.688 4.12-4.945 0-5.998-5.172-6.285-6.64h-.766v6.8zm19.096-13.06c-.51 0-1.276.286-1.755.382-1.21.224-2.07.383-2.9.447v.7c2.235 0 2.427 0 2.427 3.51v3.864c0 3.32 0 3.672-1.882 3.672h-.542v.7h6.89v-.7c-2.23 0-2.23-.13-2.23-3.673v-8.91zm13.288 1.883c-1.053-.958-2.744-1.884-4.626-1.884-3.318 0-6.22 2.71-6.22 6.96s3.125 6.83 6.06 6.83c2.552 0 4.21-1.63 4.913-2.3 0 .735 0 1.533.197 2.3.606-.13 2.424-.35 4.02-.416V26c-2.106 0-2.106-.19-2.106-3.67V5.152c-.255 0-.35.034-1.18.226-.51.126-1.98.413-3.286.445v.703c2.234 0 2.234.127 2.234 3.67v5.014zm0 8.75c-1.723 2.234-3.7 2.234-4.084 2.234-1.5 0-4.18-.958-4.18-6.035 0-.958.033-5.875 4.084-5.875 2.01 0 3.477 1.245 4.18 1.82v7.855zm17.47.32c-.224 1.308-.926 1.5-1.31 1.5-.988 0-.988-.958-.988-2.81V17.8c0-1.565 0-4.47-4.85-4.47-3.923 0-5.2 2.075-5.2 2.938 0 .575.48.894.958.894 1.053 0 1.212-1.086 1.34-1.756.223-1.117 1.5-1.373 2.616-1.373 2.616 0 2.903 1.533 2.903 3.417v.64l-2.425.99c-4.402 1.787-5.87 3.32-5.87 5.14 0 1.852 1.723 2.714 3.158 2.714 1.755 0 3.573-1.117 5.136-2.235.16.76.415 2.23 2.488 2.23 1.754 0 2.552-1.213 2.616-2.65h-.574zm-4.53-.416c-.543.447-2.426 1.948-3.86 1.948-1.245 0-1.85-1.086-1.85-2.203 0-2.14 2.36-3.417 4.02-4.087l1.69-.702v5.045z"/></svg>