<svg xmlns="http://www.w3.org/2000/svg" width="41" height="32" viewBox="0 0 41 32"><path fill="#7AC142" d="M21.09 12.353c-.286.287-.667.444-1.073.444-.405 0-.787-.158-1.074-.444-.287-.287-.446-.67-.446-1.075s.158-.787.445-1.073l1.617-1.617-.55-.545-1.73 1.73.005.005-.014.014c-.373.437-.57.994-.547 1.57.02.58.26 1.125.67 1.535.892.893 2.344.893 3.236 0 .893-.892.893-2.344 0-3.237l-.845-.84-.543.54.843.845c.592.593.592 1.556 0 2.15z"/><path fill="#95B0DB" d="M20.173 9.47s-.7.49.09 1.328c.42.442.42.787.33 1.016 0 0-.142.577-.625.783 0 0 .7-.49-.09-1.327-.408-.43-.42-.77-.336-.997 0 0 .09-.39.63-.8zm13.347 5.318v.698h-2.154s-.355.013-.355.294.158.343.65.516c.495.173 1.865.327 1.865 1.352s-.942 1.106-1.163 1.106h-2.11v-.693h2.02s.48.06.48-.32-.305-.393-1.046-.655c-.73-.257-1.453-.353-1.453-1.303 0-.9 1.038-.987 1.113-.987l2.16-.002zm-5.902 0c-1.096 0-1.984.888-1.984 1.984s.888 1.984 1.984 1.984l.946-.003v-.694h-.946c-.71 0-1.287-.58-1.287-1.29 0-.71.58-1.29 1.29-1.29s1.29.577 1.29 1.288v1.982h.69v-2.138c-.08-1.023-.934-1.828-1.98-1.828zm-4.72 6.582c1.145 0 2.068-.92 2.085-2.06v-4.523h-1.99c-1.092.006-1.975.89-1.975 1.983 0 1.096.887 1.984 1.984 1.984l.908-.003v-.69h-.908c-.71 0-1.287-.575-1.287-1.286s.577-1.286 1.287-1.286h1.253v3.793c0 .75-.607 1.357-1.357 1.357v.736z"/><path fill="#0068B2" d="M17.605 13.795v.994h1.216v.693h-1.21v2.177s.006.4.473.4h.886v.692h-.89s-1.167.106-1.167-1.34v-3.618h.696zm-7.325.993h.694v2.278s.076.998 1.03.998c.857 0 .976-.946.976-.946v-2.33h.7v2.404c0 .125-.145 1.56-1.706 1.56-1.486 0-1.695-1.398-1.695-1.516V14.79zm5.85 0h.124v.698h-.224c-.597 0-1.003 0-1.003 1.23v2.037h-.698v-2.486c0-1.65 1.8-1.48 1.8-1.48zm-6.503 0v.698H7.48s-.354.013-.354.294.144.343.637.516 1.864.327 1.864 1.352-.943 1.106-1.164 1.106h-2.1v-.693h2.01s.48.06.48-.32-.306-.393-1.046-.655c-.73-.257-1.444-.353-1.444-1.303 0-.9 1.037-.987 1.112-.987l2.15-.002zm10.037 3.966h.7V14.79h-.7v3.964zm14.87-3.958h-.044l-.302.575-.302-.57h-.064v.68h.07v-.5l.263.5h.063l.006-.012.257-.488v.5h.07v-.68h-.02zm.676.104c-.02-.022-.046-.032-.076-.032h-.296v.22h.296c.03 0 .056-.01.077-.033s.037-.047.037-.077-.01-.056-.032-.078zm.105.577h-.09l-.005-.01-.162-.308h-.222v.313h-.07v-.68h.365c.03 0 .056.003.077.013s.04.02.057.04c.018.015.03.034.04.055s.013.046.013.073c0 .05-.018.095-.053.13-.033.03-.07.047-.115.05l.17.32z"/></svg>