<?xml version="1.0" encoding="UTF-8" standalone="no"?>
<svg width="61px" height="67px" viewBox="0 0 61 67" version="1.1" xmlns="http://www.w3.org/2000/svg" xmlns:xlink="http://www.w3.org/1999/xlink" xmlns:sketch="http://www.bohemiancoding.com/sketch/ns">
    <!-- Generator: Sketch 3.3.3 (12072) - http://www.bohemiancoding.com/sketch -->
    <title>ukaid</title>
    <desc>Created with Sketch.</desc>
    <defs></defs>
    <g id="-assets" stroke="none" stroke-width="1" fill="none" fill-rule="evenodd" sketch:type="MSPage">
        <g id="ukaid" sketch:type="MSLayerGroup" transform="translate(0.594888, 0.379587)">
            <path d="M0.0985067798,43.8914466 L2.98871272,43.8914466 L2.98871272,52.2673913 C2.98871272,53.2043408 3.09913393,53.8884525 3.32008272,54.319833 C3.66336714,55.0841024 4.41174209,55.4661305 5.56499478,55.4661305 C6.71207751,55.4661305 7.45726109,55.0841024 7.80075827,54.319833 C8.02160069,53.8884525 8.13212827,53.2043408 8.13212827,52.2673913 L8.13212827,43.8914466 L11.0223342,43.8914466 L11.0223342,52.2743198 C11.0223342,53.7237668 10.7979813,54.8526897 10.3493818,55.6607687 C9.51345714,57.1411275 7.91883876,57.8812004 5.56499478,57.8812004 C3.21125719,57.8812004 1.61334106,57.1411275 0.771459144,55.6607687 C0.322646936,54.8526897 0.0985067798,53.7237668 0.0985067798,52.2743198 L0.0985067798,43.8914466 L0.0985067798,43.8914466 Z" id="Shape" fill="#1C4690" sketch:type="MSShapeGroup"></path>
            <path d="M13.8017998,43.8914466 L16.5996689,43.8914466 L16.5996689,49.5107985 L21.8585055,43.8914466 L25.5334679,43.8914466 L19.947942,49.5002459 L25.8198397,57.5297644 L22.163068,57.5297644 L17.9696153,51.5762445 L16.5996689,52.9679183 L16.5996689,57.5297644 L13.8017998,57.5297644 L13.8017998,43.8914466 L13.8017998,43.8914466 Z" id="Shape" fill="#1C4690" sketch:type="MSShapeGroup"></path>
            <path d="M35.6957295,51.0773909 C35.4738233,51.2152152 35.2501086,51.3268177 35.0244792,51.4119852 C34.7983178,51.4972594 34.4884363,51.5762445 34.0945156,51.6492605 L33.3062486,51.795399 C32.5673414,51.9253355 32.0369366,52.0837322 31.7146088,52.2703759 C31.1692046,52.5868495 30.8966621,53.0780285 30.8966621,53.7432733 C30.8966621,54.3360351 31.0629322,54.7642178 31.396217,55.0278215 C31.7292891,55.2915317 32.1342732,55.4232802 32.6114886,55.4232802 C33.3681611,55.4232802 34.0649423,55.2042323 34.7026832,54.7659233 C35.3399987,54.3277209 35.6710496,53.5282759 35.6957295,52.3678016 L35.6957295,51.0773909 L35.6957295,51.0773909 Z M33.578472,49.457822 C34.2228084,49.3770247 34.6836414,49.2756551 34.9611838,49.1536065 C35.4590366,48.9425531 35.7080694,48.6140345 35.7080694,48.1674112 C35.7080694,47.6240018 35.5168003,47.2482627 35.1351131,47.0412598 C34.7535323,46.8342568 34.192916,46.7309685 33.4542215,46.7309685 C32.6248923,46.7309685 32.0377876,46.9338144 31.6932267,47.3397192 C31.4465342,47.6397776 31.2823917,48.0456824 31.2003736,48.5569008 L27.8591215,48.5569008 C27.9322038,47.3965331 28.2575102,46.4428486 28.8352535,45.696167 C29.7544728,44.5273785 31.3327089,43.9430375 33.570068,43.9430375 C35.0259685,43.9430375 36.3194284,44.2310509 37.4503416,44.8073974 C38.5808292,45.3837439 39.1464454,46.4710956 39.1464454,48.0699855 L39.1464454,54.1573858 C39.1464454,54.5794927 39.1544238,55.0908177 39.1705933,55.6913608 C39.1950605,56.1460851 39.2636748,56.454351 39.3772874,56.6164785 C39.4906872,56.7791389 39.6605742,56.9128061 39.8876929,57.0183328 L39.8876929,57.5297644 L36.1210319,57.5297644 C36.0156105,57.261897 35.9426347,57.0101252 35.9024235,56.7749818 C35.8616804,56.5395186 35.8296604,56.2715446 35.8051933,55.9713797 C35.3244674,56.4908057 34.7704466,56.9330587 34.1431307,57.2982451 C33.3934792,57.7283465 32.5462784,57.9435571 31.6011026,57.9435571 C30.395086,57.9435571 29.399274,57.6005419 28.6130282,56.9148313 C27.8267824,56.2290141 27.433819,55.2572089 27.433819,53.9990957 C27.433819,52.3678016 28.0661347,51.1866483 29.3308724,50.4562754 C30.0245686,50.0587914 31.044635,49.7742956 32.3908589,49.6039605 L33.578472,49.457822 L33.578472,49.457822 Z" id="Shape" fill="#E41636" sketch:type="MSShapeGroup"></path>
            <rect id="Rectangle-path" fill="#E41636" sketch:type="MSShapeGroup" x="41.9013374" y="39.6088733" width="3.51124544" height="3.51830395"></rect>
            <rect id="Rectangle-path" fill="#E41636" sketch:type="MSShapeGroup" x="41.9013374" y="44.2597243" width="3.51124544" height="13.2700401"></rect>
            <path d="M56.2135428,53.9260797 C56.7239483,53.1954936 56.9791511,52.2502299 56.9791511,51.0892226 C56.9791511,49.4660296 56.5701246,48.3056619 55.7519651,47.6072668 C55.2498571,47.1856928 54.6665821,46.974213 54.0023528,46.974213 C52.9898393,46.974213 52.2467833,47.35784 51.7729721,48.1247742 C51.2990544,48.8918149 51.0621488,49.8435808 51.0621488,50.979752 C51.0621488,52.2053544 51.3030968,53.1854739 51.7848865,53.9197907 C52.2667825,54.654534 52.9978177,55.0215325 53.9780984,55.0215325 C54.9582728,55.0215325 55.7032436,54.6565592 56.2135428,53.9260797 L56.2135428,53.9260797 Z M55.3630442,44.4724832 C55.9868495,44.8256247 56.4933191,45.3146719 56.8821336,45.939518 L56.8821336,39.6088733 L60.3932727,39.6088733 L60.3932727,57.5297644 L57.0277662,57.5297644 L57.0277662,55.6913608 C56.5336366,56.4785476 55.97068,57.050737 55.3387898,57.407929 C54.7070061,57.7649078 53.9213985,57.9434505 52.9816481,57.9434505 C51.4344747,57.9434505 50.1326108,57.3165791 49.0755245,56.0624098 C48.018651,54.8085604 47.4899483,53.1998639 47.4899483,51.2354678 C47.4899483,48.9706935 48.0102471,47.1894236 49.0512701,45.8906986 C50.0919741,44.5924 51.4831962,43.9430375 53.2247237,43.9430375 C54.0267136,43.9430375 54.7394516,44.1193418 55.3630442,44.4724832 L55.3630442,44.4724832 Z" id="Shape" fill="#E41636" sketch:type="MSShapeGroup"></path>
            <rect id="Rectangle-path" fill="#FEFEFE" sketch:type="MSShapeGroup" x="0.0987195374" y="0.0155625284" width="60.3068931" height="36.0755398"></rect>
            <path d="M60.4056126,12.0407069 L60.4056126,4.22256166 L47.3362309,12.0407069 L60.4056126,12.0407069 L60.4056126,12.0407069 Z" id="Shape" fill="#1C4690" sketch:type="MSShapeGroup"></path>
            <path d="M24.2213917,0.0201460128 L7.13855017,0.0201460128 L24.2213917,10.2390778 L24.2213917,0.0201460128 L24.2213917,0.0201460128 Z" id="Shape" fill="#1C4690" sketch:type="MSShapeGroup"></path>
            <path d="M0.0987195374,24.0658513 L0.0987195374,31.8837834 L13.1676757,24.0658513 L0.0987195374,24.0658513 L0.0987195374,24.0658513 Z" id="Shape" fill="#1C4690" sketch:type="MSShapeGroup"></path>
            <path d="M36.2828341,0.0201460128 L36.2828341,10.2388646 L53.3653565,0.0201460128 L36.2828341,0.0201460128 L36.2828341,0.0201460128 Z" id="Shape" fill="#1C4690" sketch:type="MSShapeGroup"></path>
            <path d="M0.0987195374,4.22277484 L0.0987195374,12.0407069 L13.1678885,12.0407069 L0.0987195374,4.22277484 L0.0987195374,4.22277484 Z" id="Shape" fill="#1C4690" sketch:type="MSShapeGroup"></path>
            <path d="M60.4056126,31.8841032 L60.4056126,24.0659579 L47.3362309,24.0659579 L60.4056126,31.8841032 L60.4056126,31.8841032 Z" id="Shape" fill="#1C4690" sketch:type="MSShapeGroup"></path>
            <path d="M7.13078452,36.0911023 L24.2213917,36.0911023 L24.2213917,25.8675871 L7.13078452,36.0911023 L7.13078452,36.0911023 Z" id="Shape" fill="#1C4690" sketch:type="MSShapeGroup"></path>
            <path d="M36.2828341,36.0911023 L53.3731221,36.0911023 L36.2828341,25.8680135 L36.2828341,36.0911023 L36.2828341,36.0911023 Z" id="Shape" fill="#1C4690" sketch:type="MSShapeGroup"></path>
            <path d="M0.0987195374,36.0911023 L20.2002726,24.0659579 L24.2214981,24.0659579 L24.2214981,24.465254 L4.78662102,36.0911023 L0.0987195374,36.0911023 L0.0987195374,36.0911023 Z M36.2829405,11.6409845 L55.717392,0.0155625284 L60.4056126,0.0155625284 L40.3035277,12.0407069 L36.2829405,12.0407069 L36.2829405,11.6409845 L36.2829405,11.6409845 Z M44.9917483,24.0659579 L60.4056126,33.2863297 L60.4056126,36.0911023 L40.3031022,24.0659579 L44.9917483,24.0659579 L44.9917483,24.0659579 Z M15.5121583,12.0407069 L0.0987195374,2.82076158 L0.0987195374,0.0155625284 L20.2008045,12.0407069 L15.5121583,12.0407069 L15.5121583,12.0407069 Z" id="Shape" fill="#E41636" sketch:type="MSShapeGroup"></path>
            <path d="M26.6338504,36.0911023 L26.6338504,21.6610143 L0.0987195374,21.6610143 L0.0987195374,14.4459703 L26.6338504,14.4459703 L26.6338504,0.0155625284 L33.870269,0.0155625284 L33.870269,14.4459703 L60.4056126,14.4459703 L60.4056126,21.6610143 L33.870269,21.6610143 L33.870269,36.0911023 L26.6338504,36.0911023 L26.6338504,36.0911023 Z" id="Shape" fill="#E41636" sketch:type="MSShapeGroup"></path>
            <path d="M0.0731886226,62.7290346 L0.0731886226,62.2732444 L0.600721151,62.2732444 L0.600721151,61.8054092 C0.600721151,61.5501198 0.674441667,61.3567607 0.822095458,61.2252253 C0.969536491,61.0934768 1.18484721,61.0276025 1.46781485,61.0276025 C1.51632358,61.0276025 1.57185332,61.0317597 1.63451044,61.0397541 C1.69716756,61.0479617 1.75280368,61.0601133 1.80131242,61.0762088 L1.80131242,61.5258166 C1.7567397,61.5097211 1.70823096,61.4985289 1.65578621,61.4924531 C1.60323507,61.4863773 1.55472634,61.4832862 1.51025999,61.4832862 C1.38494575,61.4832862 1.2878219,61.5076959 1.21920756,61.5561955 C1.15038047,61.6049084 1.11612649,61.6980704 1.11612649,61.8356815 L1.11612649,62.2732444 L1.72248572,62.2732444 L1.72248572,62.728928 L1.11612649,62.728928 L1.11612649,65.4143169 L0.600721151,65.4143169 L0.600721151,62.728928 L0.0731886226,62.728928 L0.0731886226,62.7290346 L0.0731886226,62.7290346 Z" id="Shape" fill="#1C4690" sketch:type="MSShapeGroup"></path>
            <path d="M2.5640485,62.2732444 L2.5640485,62.9355046 L2.57617569,62.9355046 C2.70148993,62.6802151 2.85510093,62.4919725 3.0370087,62.3704569 C3.21891647,62.2488346 3.44933297,62.1922339 3.72825822,62.200335 L3.72825822,62.7470487 C3.52209608,62.7470487 3.34625191,62.775509 3.20072569,62.8322163 C3.05519948,62.8889236 2.93786365,62.9719593 2.84903734,63.0812167 C2.76010465,63.1906874 2.69531996,63.3233953 2.65500239,63.4792337 C2.61457844,63.6351788 2.59436646,63.8144676 2.59436646,64.0169937 L2.59436646,65.4144235 L2.07896112,65.4144235 L2.07896112,62.2732444 L2.5640485,62.2732444 L2.5640485,62.2732444 Z" id="Shape" fill="#1C4690" sketch:type="MSShapeGroup"></path>
            <path d="M4.46854837,64.3541463 C4.51907831,64.5020969 4.58875643,64.6255312 4.67768912,64.724769 C4.7666218,64.8240067 4.87076666,64.9000073 4.99001731,64.9525575 C5.10916158,65.0052143 5.2355396,65.0315426 5.36893863,65.0315426 C5.50233766,65.0315426 5.62871569,65.0052143 5.74796634,64.9525575 C5.86711061,64.9000073 5.97125547,64.8240067 6.06018815,64.724769 C6.14912084,64.6255312 6.21890534,64.5020969 6.26943528,64.3541463 C6.31996521,64.2063023 6.34528337,64.0371397 6.34528337,63.8467652 C6.34528337,63.6563907 6.31996521,63.4873348 6.26943528,63.3394908 C6.21890534,63.1917533 6.14912084,63.0671465 6.06018815,62.9658835 C5.97125547,62.8646204 5.86711061,62.7876605 5.74796634,62.7350038 C5.62871569,62.6822404 5.50233766,62.655912 5.36893863,62.655912 C5.2355396,62.655912 5.10916158,62.6822404 4.99001731,62.7350038 C4.87076666,62.7876605 4.7666218,62.8646204 4.67768912,62.9658835 C4.58875643,63.0671465 4.51907831,63.1917533 4.46854837,63.3394908 C4.41791206,63.4873348 4.39280666,63.6563907 4.39280666,63.8467652 C4.39280666,64.0371397 4.41791206,64.2063023 4.46854837,64.3541463 L4.46854837,64.3541463 Z M3.94399445,63.1997478 C4.00867277,62.9991404 4.10569024,62.8250746 4.23515326,62.6772306 C4.36440351,62.5293865 4.52407811,62.4128808 4.71417705,62.3278198 C4.90406323,62.2427589 5.12235255,62.200335 5.36893863,62.200335 C5.61956712,62.200335 5.83892023,62.2427589 6.02689159,62.3278198 C6.21486295,62.4128808 6.37347376,62.5293865 6.50293677,62.6772306 C6.63218703,62.8250746 6.7292045,62.9991404 6.79388282,63.1997478 C6.85856114,63.4002486 6.8909003,63.6158855 6.8909003,63.8467652 C6.8909003,64.0776449 6.85856114,64.2924291 6.79388282,64.4907981 C6.7292045,64.6893802 6.63218703,64.8624867 6.50293677,65.0102241 C6.37347376,65.1582813 6.21486295,65.2736146 6.02689159,65.3566503 C5.83892023,65.4395794 5.61956712,65.4811505 5.36893863,65.4811505 C5.12235255,65.4811505 4.90406323,65.4395794 4.71417705,65.3566503 C4.52407811,65.2736146 4.36440351,65.1582813 4.23515326,65.0102241 C4.10569024,64.8624867 4.00867277,64.6893802 3.94399445,64.4907981 C3.87931613,64.2924291 3.84697697,64.0776449 3.84697697,63.8467652 C3.84697697,63.6158855 3.87931613,63.4002486 3.94399445,63.1997478 L3.94399445,63.1997478 Z" id="Shape" fill="#1C4690" sketch:type="MSShapeGroup"></path>
            <path d="M7.9005416,62.2732444 L7.9005416,62.7350038 L7.91266878,62.7350038 C8.14702131,62.3785579 8.48466766,62.200335 8.92528869,62.200335 C9.11932365,62.200335 9.29516782,62.2408402 9.45282122,62.321744 C9.61047462,62.4029676 9.72164048,62.5405788 9.7863188,62.7350038 C9.89142106,62.5648819 10.0298199,62.4333465 10.2016217,62.340078 C10.3734235,62.246916 10.5624586,62.200335 10.7686207,62.200335 C10.9262741,62.200335 11.0688218,62.2177096 11.1960508,62.2520324 C11.3233862,62.2863553 11.4326373,62.340078 11.5235912,62.4129873 C11.6145451,62.4857901 11.6851806,62.5801246 11.7358169,62.6954579 C11.7862405,62.8110043 11.8115586,62.9496814 11.8115586,63.1115956 L11.8115586,65.4144235 L11.2961533,65.4144235 L11.2961533,63.3547335 C11.2961533,63.257521 11.2879621,63.1663843 11.2718989,63.0812167 C11.2557293,62.9962624 11.2254114,62.9223937 11.180945,62.859504 C11.1363723,62.7968275 11.074779,62.7470487 10.9960586,62.7107006 C10.9171256,62.674246 10.8150019,62.6560186 10.689794,62.6560186 C10.4351232,62.6560186 10.2350246,62.728928 10.0894984,62.8747468 C9.9439722,63.0205655 9.87120909,63.2149905 9.87120909,63.4580218 L9.87120909,65.4144235 L9.35580375,65.4144235 L9.35580375,63.3547335 C9.35580375,63.2534705 9.34676155,63.1603085 9.32846439,63.075141 C9.31027361,62.9901866 9.27899824,62.9163179 9.2345319,62.8534282 C9.19006556,62.7906451 9.13038704,62.7420389 9.05560274,62.7076095 C8.98081843,62.6732866 8.88486475,62.6560186 8.76763529,62.6560186 C8.61806669,62.6560186 8.48966746,62.6863975 8.382544,62.7470487 C8.27542053,62.8079132 8.18861542,62.8807159 8.12191591,62.9658835 C8.05521639,63.0509444 8.00670765,63.13899 7.97628331,63.2301267 C7.94607173,63.3212634 7.93085956,63.397264 7.93085956,63.4580218 L7.93085956,65.4144235 L7.41545422,65.4144235 L7.41545422,62.2732444 L7.9005416,62.2732444 L7.9005416,62.2732444 Z" id="Shape" fill="#1C4690" sketch:type="MSShapeGroup"></path>
            <path d="M15.6133246,62.2732444 L15.6133246,62.728928 L14.9887746,62.728928 L14.9887746,64.6792539 C14.9887746,64.7400117 14.9937744,64.788618 15.0038804,64.8249661 C15.0139864,64.8614208 15.0331346,64.889881 15.0615377,64.9101336 C15.0897281,64.9303862 15.1291946,64.9434971 15.1797246,64.9495729 C15.2302545,64.9556487 15.2958902,64.9586333 15.3768445,64.9586333 L15.6133246,64.9586333 L15.6133246,65.4144235 L15.2191911,65.4144235 C15.0857921,65.4144235 14.9715412,65.4052565 14.8765449,65.3871358 C14.7815487,65.3688018 14.7047432,65.3354383 14.6461284,65.2867255 C14.5875137,65.2382258 14.5440048,65.169367 14.5158144,65.0802555 C14.4875176,64.991144 14.4733692,64.8736789 14.4733692,64.7277536 L14.4733692,62.728928 L13.9397731,62.728928 L13.9397731,62.2732444 L14.4733692,62.2732444 L14.4733692,61.3313916 L14.9887746,61.3313916 L14.9887746,62.2732444 L15.6133246,62.2732444 L15.6133246,62.2732444 Z" id="Shape" fill="#1C4690" sketch:type="MSShapeGroup"></path>
            <path d="M16.5755209,61.0762088 L16.5755209,62.7350038 L16.5876481,62.7350038 C16.6279657,62.6376847 16.6846656,62.5557149 16.7574287,62.4888813 C16.8301918,62.4220477 16.9121035,62.3672591 17.0030574,62.3248352 C17.0940113,62.2823047 17.1889012,62.2509665 17.2879399,62.2306073 C17.3869785,62.2104613 17.4829322,62.200335 17.5760137,62.200335 C17.7821758,62.200335 17.9539776,62.2286886 18.091419,62.2852893 C18.2287541,62.3421032 18.3400263,62.4209818 18.4249166,62.5222448 C18.5098069,62.6236144 18.569379,62.7440642 18.6037394,62.8838071 C18.6380997,63.0235501 18.6553331,63.1784292 18.6553331,63.3485511 L18.6553331,65.4143169 L18.1399278,65.4143169 L18.1399278,63.2877933 C18.1399278,63.0934749 18.0832278,62.9394485 17.9701472,62.8260339 C17.8568537,62.7127259 17.7012215,62.655912 17.5032506,62.655912 C17.3455972,62.655912 17.2092195,62.6802151 17.0940113,62.728928 C16.978803,62.7774277 16.8826366,62.8462865 16.8059375,62.935398 C16.7290256,63.0245094 16.6714746,63.1288637 16.6331783,63.248354 C16.5946691,63.3678444 16.5755209,63.498527 16.5755209,63.6401886 L16.5755209,65.4143169 L16.0601156,65.4143169 L16.0601156,61.0762088 L16.5755209,61.0762088 L16.5755209,61.0762088 Z" id="Shape" fill="#1C4690" sketch:type="MSShapeGroup"></path>
            <path d="M21.4300116,63.1967632 C21.3835241,63.0873991 21.320867,62.9931712 21.2420403,62.9142926 C21.1632136,62.8352009 21.0702385,62.7725244 20.963115,62.7258368 C20.8559916,62.6793624 20.7376983,62.6560186 20.6084481,62.6560186 C20.4749427,62.6560186 20.3547346,62.6793624 20.2476112,62.7258368 C20.1404877,62.7725244 20.04847,62.8362668 19.9717709,62.9172772 C19.894859,62.9983942 19.8343295,63.092409 19.7898631,63.1997478 C19.7452904,63.3070866 19.7191212,63.4215671 19.7110364,63.5429761 L21.5119233,63.5429761 C21.5037322,63.4215671 21.4764992,63.3060207 21.4300116,63.1967632 L21.4300116,63.1967632 Z M21.5542621,65.2139227 C21.3198032,65.3921456 21.0247084,65.4812571 20.669084,65.4812571 C20.4183491,65.4812571 20.2011236,65.4406453 20.0171946,65.3596349 C19.8332657,65.278731 19.6785909,65.1653164 19.553383,65.0194977 C19.4279624,64.8735723 19.3340299,64.6995065 19.2713728,64.4968739 C19.2087157,64.2944544 19.1733979,64.073701 19.1652067,63.8346137 C19.1652067,63.5957395 19.2016947,63.3770114 19.2744578,63.1784292 C19.3472209,62.9800603 19.4492382,62.8079132 19.580616,62.6620944 C19.7119938,62.516169 19.867626,62.4029676 20.0475126,62.321744 C20.2273992,62.2408402 20.4244127,62.200335 20.638766,62.200335 C20.9176913,62.200335 21.1489588,62.2580016 21.3329942,62.3734415 C21.5169231,62.4888813 21.6644706,62.6356594 21.7756364,62.8138823 C21.8868023,62.9922119 21.9636078,63.1866369 22.0060529,63.397264 C22.0484981,63.6078911 22.0657314,63.8083919 22.0576466,63.9986598 L19.7110364,63.9986598 C19.7068877,64.1364841 19.7231636,64.2670601 19.7595452,64.390601 C19.7959267,64.5141419 19.8544351,64.6236125 19.9353893,64.7186932 C20.0161309,64.813987 20.1192119,64.889881 20.2446325,64.9465883 C20.3698404,65.0032956 20.5174942,65.0316492 20.6872748,65.0316492 C20.9055641,65.0316492 21.0843869,64.9809111 21.2238495,64.8797547 C21.3633121,64.7785983 21.4552234,64.6245719 21.4997962,64.4179953 L22.0091379,64.4179953 C21.9403108,64.7703906 21.788721,65.0356998 21.5542621,65.2139227 L21.5542621,65.2139227 Z" id="Shape" fill="#1C4690" sketch:type="MSShapeGroup"></path>
            <path d="M26.3808816,64.9282544 C26.6355524,64.9282544 26.8346936,64.8595021 26.9781986,64.7216778 C27.1215972,64.5840667 27.1934029,64.3935856 27.1934029,64.1506609 C27.1934029,64.0088927 27.1671274,63.8914275 27.1145762,63.798159 C27.0620251,63.7051036 26.992347,63.6311283 26.9054355,63.5764462 C26.8184176,63.5217642 26.7184215,63.4832843 26.6052345,63.4608998 C26.4920474,63.4388351 26.374818,63.4276429 26.2535461,63.4276429 L24.9377466,63.4276429 L24.9377466,64.9282544 L26.3808816,64.9282544 L26.3808816,64.9282544 Z M26.0898291,62.9414738 C26.4172631,62.9414738 26.6527858,62.8838071 26.7962908,62.7682607 C26.9396895,62.6529274 27.0114952,62.4797144 27.0114952,62.2488346 C27.0114952,62.0950214 26.9872408,61.9733992 26.938732,61.8842878 C26.8902233,61.7951763 26.8235238,61.7263174 26.7386335,61.6778178 C26.6537432,61.6291049 26.5557683,61.5978733 26.4446025,61.5835899 C26.3333302,61.569413 26.215037,61.5622713 26.0898291,61.5622713 L24.9377466,61.5622713 L24.9377466,62.9414738 L26.0898291,62.9414738 L26.0898291,62.9414738 Z M25.9321757,61.0762088 C26.0251508,61.0762088 26.1252533,61.0773813 26.2323767,61.0793 C26.3393938,61.0813252 26.4454535,61.0875076 26.5506621,61.0975273 C26.6557644,61.1076536 26.7538457,61.1228964 26.8447996,61.143149 C26.9357534,61.1634016 27.0135163,61.1937805 27.0781947,61.2342857 C27.2196785,61.3193466 27.3398865,61.4368118 27.4390316,61.5865744 C27.5379639,61.7365503 27.5875364,61.9207424 27.5875364,62.1395772 C27.5875364,62.3704569 27.5319003,62.5698917 27.4208408,62.7379884 C27.3095686,62.906085 27.1509578,63.0305852 26.9447956,63.1115956 L26.9447956,63.1238538 C27.2115937,63.1805611 27.4157346,63.3020767 27.5572185,63.4884007 C27.6987023,63.6747247 27.7694442,63.9014473 27.7694442,64.1687817 C27.7694442,64.326752 27.7411474,64.480885 27.6845539,64.6305411 C27.6279604,64.7804103 27.5441339,64.9130116 27.432968,65.0285581 C27.3216958,65.1438913 27.1843607,65.2371599 27.0206437,65.308044 C26.8569267,65.3790347 26.6678916,65.4144235 26.4536447,65.4144235 L24.3617053,65.4144235 L24.3617053,61.0762088 L25.9321757,61.0762088 L25.9321757,61.0762088 Z" id="Shape" fill="#1C4690" sketch:type="MSShapeGroup"></path>
            <path d="M28.8233391,62.2732444 L28.8233391,62.9355046 L28.8354663,62.9355046 C28.9607805,62.6802151 29.1143915,62.4919725 29.2962993,62.3704569 C29.478207,62.2488346 29.7086235,62.1922339 29.9875488,62.200335 L29.9875488,62.7470487 C29.7813867,62.7470487 29.6055425,62.775509 29.4600163,62.8322163 C29.31449,62.8889236 29.1971542,62.9719593 29.1083279,63.0812167 C29.0193952,63.1906874 28.9546105,63.3233953 28.914293,63.4792337 C28.873869,63.6351788 28.853657,63.8144676 28.853657,64.0169937 L28.853657,65.4144235 L28.3382517,65.4144235 L28.3382517,62.2732444 L28.8233391,62.2732444 L28.8233391,62.2732444 Z" id="Shape" fill="#1C4690" sketch:type="MSShapeGroup"></path>
            <path d="M30.8478342,65.4144235 L30.3324289,65.4144235 L30.3324289,62.2732444 L30.8478342,62.2732444 L30.8478342,65.4144235 L30.8478342,65.4144235 Z M30.3325353,61.0762088 L30.8479406,61.0762088 L30.8479406,61.7081967 L30.3325353,61.7081967 L30.3325353,61.0762088 L30.3325353,61.0762088 Z" id="Shape" fill="#1C4690" sketch:type="MSShapeGroup"></path>
            <path d="M32.8917967,62.2732444 L32.8917967,62.728928 L32.2672467,62.728928 L32.2672467,64.6792539 C32.2672467,64.7400117 32.2723529,64.788618 32.2823525,64.8249661 C32.2924585,64.8614208 32.3117131,64.889881 32.3400098,64.9101336 C32.3682002,64.9303862 32.4076668,64.9434971 32.4583031,64.9495729 C32.5087266,64.9556487 32.5744687,64.9586333 32.6553166,64.9586333 L32.8917967,64.9586333 L32.8917967,65.4144235 L32.4976632,65.4144235 C32.3642642,65.4144235 32.2500134,65.4052565 32.1550171,65.3871358 C32.0601272,65.3688018 31.9832153,65.3354383 31.9246006,65.2867255 C31.8659859,65.2382258 31.8225833,65.169367 31.7943929,65.0802555 C31.7659898,64.991144 31.7518414,64.8736789 31.7518414,64.7277536 L31.7518414,62.728928 L31.2183516,62.728928 L31.2183516,62.2732444 L31.7518414,62.2732444 L31.7518414,61.3313916 L32.2672467,61.3313916 L32.2672467,62.2732444 L32.8917967,62.2732444 L32.8917967,62.2732444 Z" id="Shape" fill="#1C4690" sketch:type="MSShapeGroup"></path>
            <path d="M33.8783538,65.4144235 L33.3629485,65.4144235 L33.3629485,62.2732444 L33.8783538,62.2732444 L33.8783538,65.4144235 L33.8783538,65.4144235 Z M33.3629485,61.0762088 L33.8783538,61.0762088 L33.8783538,61.7081967 L33.3629485,61.7081967 L33.3629485,61.0762088 L33.3629485,61.0762088 Z" id="Shape" fill="#1C4690" sketch:type="MSShapeGroup"></path>
            <path d="M35.0006503,64.7126174 C35.0490527,64.7917092 35.1128799,64.8544922 35.1916003,64.9010732 C35.270427,64.9476542 35.3592533,64.9810177 35.4583983,65.0012703 C35.5573306,65.0215229 35.6594543,65.0316492 35.7646629,65.0316492 C35.8454044,65.0316492 35.9302947,65.0255735 36.0192274,65.0134219 C36.1081601,65.0012703 36.1900718,64.9790991 36.2648561,64.9465883 C36.3396404,64.9141841 36.4012337,64.8666438 36.4497425,64.8037541 C36.4982512,64.7410776 36.522612,64.6610266 36.522612,64.5638141 C36.522612,64.4301469 36.4719756,64.3288838 36.3710222,64.260025 C36.2699623,64.1911661 36.1435843,64.1355247 35.9919944,64.0929943 C35.8404046,64.0503572 35.6756239,64.0119838 35.4978649,63.9775544 C35.3198931,63.943125 35.1552187,63.8945187 35.0035225,63.8316291 C34.8521455,63.768846 34.7256611,63.6808005 34.6246012,63.5673859 C34.5236477,63.4539713 34.4731178,63.2961075 34.4731178,63.0935815 C34.4731178,62.9355046 34.5084355,62.7998121 34.5791774,62.6863975 C34.649813,62.5730895 34.7408732,62.4807803 34.8521455,62.4098962 C34.9630986,62.339012 35.0885192,62.2863553 35.2279818,62.2520324 C35.3674444,62.2177096 35.5058433,62.2004416 35.6432847,62.2004416 C35.8211501,62.2004416 35.9848671,62.2154711 36.1344357,62.2458501 C36.2838979,62.2763356 36.4164459,62.3289923 36.5316542,62.4038204 C36.6468624,62.4788616 36.7387737,62.5801246 36.8074944,62.7076095 C36.8762151,62.8353075 36.9167455,62.9942371 36.9287663,63.1846116 L36.4133609,63.1846116 C36.4052761,63.0834552 36.3790006,62.999247 36.3345342,62.9324134 C36.2900679,62.8655798 36.2334744,62.8120703 36.1647536,62.7714585 C36.0960329,62.7310598 36.0201848,62.7015337 35.9374221,62.6834129 C35.8544466,62.665079 35.7706201,62.6560186 35.6857298,62.6560186 C35.6089243,62.6560186 35.5311614,62.662201 35.4523347,62.674246 C35.373508,62.6863975 35.3017023,62.7076095 35.2371304,62.738095 C35.1723457,62.7683673 35.1197946,62.8089791 35.0793706,62.859504 C35.0389467,62.9103487 35.0187347,62.9761164 35.0187347,63.0570202 C35.0187347,63.1462383 35.0501164,63.220107 35.1128799,63.2788395 C35.1754307,63.3375721 35.2553212,63.3861783 35.3523387,63.4245517 C35.4493561,63.4631382 35.5583944,63.4955424 35.6797726,63.5217642 C35.8009381,63.5481992 35.9222099,63.5754869 36.0435882,63.6038406 C36.1729448,63.6321942 36.2991101,63.6666236 36.4225095,63.7070222 C36.5456962,63.747634 36.6549472,63.8013568 36.7499435,63.8681903 C36.8448334,63.9350239 36.9217453,64.0191256 36.98036,64.120282 C37.0388683,64.221545 37.0683353,64.3472178 37.0683353,64.4969805 C37.0683353,64.6874615 37.0288687,64.8454319 36.950042,64.9708914 C36.8713217,65.0965642 36.7682406,65.1978272 36.6409052,65.2746805 C36.5135698,65.3516404 36.3700647,65.4052565 36.2103901,65.4356354 C36.0506092,65.4660143 35.8921047,65.4812571 35.734345,65.4812571 C35.560522,65.4812571 35.3947838,65.4630297 35.2372368,65.4264685 C35.079477,65.3900138 34.9401208,65.3304285 34.8187425,65.2473928 C34.6974707,65.1643571 34.6004532,65.054993 34.5277965,64.919194 C34.454927,64.7836081 34.414503,64.6184961 34.4065246,64.4240711 L34.9218236,64.4240711 C34.925866,64.5374857 34.9521416,64.6337388 35.0007567,64.7126174" id="Shape" fill="#1C4690" sketch:type="MSShapeGroup"></path>
            <path d="M38.0804233,61.0762088 L38.0804233,62.7350038 L38.0925505,62.7350038 C38.132868,62.6376847 38.1894616,62.5557149 38.2623311,62.4888813 C38.3350942,62.4220477 38.4168995,62.3672591 38.5079597,62.3248352 C38.5988072,62.2823047 38.6938035,62.2509665 38.7928422,62.2306073 C38.8918809,62.2104613 38.9878345,62.200335 39.080916,62.200335 C39.2870781,62.200335 39.4588799,62.2286886 39.5963214,62.2852893 C39.7336564,62.3421032 39.8449286,62.4209818 39.9298189,62.5222448 C40.0147092,62.6236144 40.0742814,62.7440642 40.1086417,62.8838071 C40.1430021,63.0235501 40.1602354,63.1784292 40.1602354,63.3485511 L40.1602354,65.4143169 L39.6448301,65.4143169 L39.6448301,63.2877933 C39.6448301,63.0934749 39.5881302,62.9394485 39.4749431,62.8260339 C39.3618624,62.7127259 39.2061239,62.655912 39.0081529,62.655912 C38.8504995,62.655912 38.7140155,62.6802151 38.5988072,62.728928 C38.483599,62.7774277 38.3876453,62.8462865 38.3108398,62.935398 C38.2339279,63.0245094 38.176377,63.1288637 38.1379742,63.248354 C38.0995715,63.3678444 38.0804233,63.498527 38.0804233,63.6401886 L38.0804233,65.4143169 L37.5650179,65.4143169 L37.5650179,61.0762088 L38.0804233,61.0762088 L38.0804233,61.0762088 Z" id="Shape" fill="#1C4690" sketch:type="MSShapeGroup"></path>
            <path d="M45.0080243,63.388097 C44.9696215,63.248354 44.9110068,63.1238538 44.8322865,63.0143831 C44.7533534,62.9051257 44.6522935,62.8180395 44.5290005,62.7532311 C44.4057074,62.6885294 44.2611386,62.6560186 44.0955068,62.6560186 C43.9215775,62.6560186 43.7740301,62.690448 43.6528646,62.7593069 C43.5315927,62.8282724 43.4324477,62.9183432 43.3557486,63.0296259 C43.2788367,63.1411218 43.2233069,63.2676473 43.1889466,63.4093089 C43.1545862,63.5511838 43.1374592,63.6949773 43.1374592,63.8406894 C43.1374592,63.9947158 43.15565,64.1436258 43.1920316,64.2873127 C43.2284131,64.4311062 43.2859641,64.5577383 43.3648971,64.6669957 C43.4436175,64.7764664 43.5457411,64.8646185 43.6710554,64.9314521 C43.7962632,64.9981791 43.947853,65.0316492 44.1258248,65.0316492 C44.3036902,65.0316492 44.452195,64.9972198 44.5714456,64.9282544 C44.6906963,64.8596087 44.7867563,64.7683654 44.8595194,64.6549508 C44.9322826,64.5415362 44.9847273,64.4119195 45.0171728,64.2659942 C45.049512,64.120282 45.0656816,63.9704127 45.0656816,63.8164929 C45.0656816,63.6705676 45.046427,63.52784 45.0080243,63.388097 L45.0080243,63.388097 Z M43.15565,62.2732444 L43.15565,62.6985491 L43.1677772,62.6985491 C43.2526675,62.5243767 43.3860665,62.3977446 43.5679743,62.318866 C43.7498821,62.2397743 43.9499806,62.200335 44.1681635,62.200335 C44.4108136,62.200335 44.6219756,62.2448907 44.8018621,62.3340022 C44.9817487,62.4231136 45.1313173,62.5435634 45.250568,62.6954579 C45.3697122,62.847459 45.4598151,63.0225908 45.5203446,63.2210663 C45.5810869,63.4195418 45.6114049,63.6301689 45.6114049,63.8529476 C45.6114049,64.0757263 45.5820443,64.2864599 45.523536,64.4848289 C45.4648149,64.6831978 45.3758822,64.8564109 45.2566316,65.0042549 C45.1373809,65.1522055 44.9878123,65.2686047 44.8079257,65.3535591 C44.6280392,65.4387266 44.4188984,65.4812571 44.1803971,65.4812571 C44.1034852,65.4812571 44.0175312,65.473156 43.9226413,65.4568474 C43.827645,65.4406453 43.7337125,65.4144235 43.640631,65.3779688 C43.5476559,65.3415141 43.4596807,65.2919485 43.3769179,65.2290588 C43.2940489,65.1663824 43.2242644,65.0883565 43.1677772,64.995088 L43.15565,64.995088 L43.15565,66.6112459 L42.6402447,66.6112459 L42.6402447,62.2732444 L43.15565,62.2732444 L43.15565,62.2732444 Z" id="Shape" fill="#1C4690" sketch:type="MSShapeGroup"></path>
            <path d="M48.2324724,63.1967632 C48.1858785,63.0873991 48.1233278,62.9931712 48.0443947,62.9142926 C47.9656744,62.8352009 47.8725929,62.7725244 47.7654695,62.7258368 C47.6584524,62.6793624 47.5401591,62.6560186 47.4108025,62.6560186 C47.2774035,62.6560186 47.157089,62.6793624 47.0500719,62.7258368 C46.9428421,62.7725244 46.8509308,62.8362668 46.7741253,62.9172772 C46.6973198,62.9983942 46.6366839,63.092409 46.5922175,63.1997478 C46.5477512,63.3070866 46.5214756,63.4215671 46.5133908,63.5429761 L48.3143841,63.5429761 C48.3060866,63.4215671 48.27896,63.3060207 48.2324724,63.1967632 L48.2324724,63.1967632 Z M48.3567229,65.2139227 C48.122264,65.3921456 47.8270628,65.4812571 47.4715448,65.4812571 C47.2207036,65.4812571 47.003478,65.4406453 46.8196554,65.3596349 C46.6356201,65.278731 46.4809453,65.1653164 46.3557374,65.0194977 C46.2304232,64.8735723 46.1364907,64.6995065 46.0738336,64.4968739 C46.0110701,64.2944544 45.9757523,64.073701 45.9676675,63.8346137 C45.9676675,63.5957395 46.0040491,63.3770114 46.0768122,63.1784292 C46.1495753,62.9800603 46.251699,62.8079132 46.3829704,62.6620944 C46.5143482,62.516169 46.6699804,62.4029676 46.8499734,62.321744 C47.0297536,62.2408402 47.2268735,62.200335 47.4412268,62.200335 C47.7201521,62.200335 47.9514196,62.2580016 48.135455,62.3734415 C48.3192775,62.4888813 48.466825,62.6356594 48.5780972,62.8138823 C48.6891567,62.9922119 48.7660686,63.1866369 48.8085137,63.397264 C48.8508525,63.6078911 48.8680858,63.8083919 48.860001,63.9986598 L46.5133908,63.9986598 C46.5093484,64.1364841 46.525518,64.2670601 46.5618996,64.390601 C46.5983875,64.5141419 46.6567895,64.6236125 46.7377437,64.7186932 C46.8185916,64.813987 46.9216727,64.889881 47.046987,64.9465883 C47.1721948,65.0032956 47.3198486,65.0316492 47.4897356,65.0316492 C47.7079185,65.0316492 47.8868477,64.9809111 48.0263103,64.8797547 C48.1657729,64.7785983 48.2575778,64.6245719 48.3021506,64.4179953 L48.8114923,64.4179953 C48.7427716,64.7703906 48.5911818,65.0356998 48.3567229,65.2139227 L48.3567229,65.2139227 Z" id="Shape" fill="#1C4690" sketch:type="MSShapeGroup"></path>
            <path d="M49.8077299,64.3541463 C49.8582598,64.5020969 49.9279379,64.6255312 50.016977,64.724769 C50.1058033,64.8240067 50.2098418,64.9000073 50.3291988,64.9525575 C50.4483431,65.0052143 50.5748275,65.0315426 50.7082265,65.0315426 C50.8416256,65.0315426 50.9677908,65.0052143 51.0871479,64.9525575 C51.2062921,64.9000073 51.310437,64.8240067 51.399476,64.724769 C51.4883024,64.6255312 51.5579805,64.5020969 51.6086168,64.3541463 C51.6590403,64.2063023 51.6844649,64.0371397 51.6844649,63.8467652 C51.6844649,63.6563907 51.6590403,63.4873348 51.6086168,63.3394908 C51.5579805,63.1917533 51.4883024,63.0671465 51.399476,62.9658835 C51.310437,62.8646204 51.2062921,62.7876605 51.0871479,62.7350038 C50.9677908,62.6822404 50.8416256,62.655912 50.7082265,62.655912 C50.5748275,62.655912 50.4483431,62.6822404 50.3291988,62.7350038 C50.2098418,62.7876605 50.1058033,62.8646204 50.016977,62.9658835 C49.9279379,63.0671465 49.8582598,63.1917533 49.8077299,63.3394908 C49.7570936,63.4873348 49.7318818,63.6563907 49.7318818,63.8467652 C49.7318818,64.0371397 49.7570936,64.2063023 49.8077299,64.3541463 L49.8077299,64.3541463 Z M49.283176,63.1997478 C49.3478543,62.9991404 49.4448718,62.8250746 49.5743348,62.6772306 C49.703585,62.5293865 49.8631532,62.4128808 50.0533586,62.3278198 C50.2432447,62.2427589 50.4615341,62.200335 50.7082265,62.200335 C50.9587486,62.200335 51.1781017,62.2427589 51.3660731,62.3278198 C51.5540445,62.4128808 51.7126553,62.5293865 51.8420119,62.6772306 C51.9713685,62.8250746 52.068386,62.9991404 52.1330643,63.1997478 C52.1977426,63.4002486 52.2300818,63.6158855 52.2300818,63.8467652 C52.2300818,64.0776449 52.1977426,64.2924291 52.1330643,64.4907981 C52.068386,64.6893802 51.9713685,64.8624867 51.8420119,65.0102241 C51.7126553,65.1582813 51.5540445,65.2736146 51.3660731,65.3566503 C51.1781017,65.4395794 50.9587486,65.4811505 50.7082265,65.4811505 C50.4615341,65.4811505 50.2432447,65.4395794 50.0533586,65.3566503 C49.8631532,65.2736146 49.703585,65.1582813 49.5743348,65.0102241 C49.4448718,64.8624867 49.3478543,64.6893802 49.283176,64.4907981 C49.2184976,64.2924291 49.1861585,64.0776449 49.1861585,63.8467652 C49.1861585,63.6158855 49.2184976,63.4002486 49.283176,63.1997478 L49.283176,63.1997478 Z" id="Shape" fill="#1C4690" sketch:type="MSShapeGroup"></path>
            <path d="M55.1309256,63.388097 C55.0925229,63.248354 55.0339081,63.1238538 54.9551878,63.0143831 C54.8762548,62.9051257 54.7751949,62.8180395 54.6519018,62.7532311 C54.5286088,62.6885294 54.38404,62.6560186 54.2184082,62.6560186 C54.0444788,62.6560186 53.8969314,62.690448 53.7757659,62.7593069 C53.6544941,62.8282724 53.555349,62.9183432 53.4786499,63.0296259 C53.401738,63.1411218 53.3462083,63.2676473 53.3118479,63.4093089 C53.2774876,63.5511838 53.2603606,63.6949773 53.2603606,63.8406894 C53.2603606,63.9947158 53.2785514,64.1436258 53.3149329,64.2873127 C53.3513145,64.4311062 53.4088654,64.5577383 53.4877985,64.6669957 C53.5665188,64.7764664 53.6686425,64.8646185 53.7939567,64.9314521 C53.9191646,64.9981791 54.0707544,65.0316492 54.2487261,65.0316492 C54.4265915,65.0316492 54.5750963,64.9972198 54.694347,64.9282544 C54.8135976,64.8596087 54.9096577,64.7683654 54.9824208,64.6549508 C55.0551839,64.5415362 55.1076287,64.4119195 55.1400742,64.2659942 C55.1724134,64.120282 55.1885829,63.9704127 55.1885829,63.8164929 C55.1885829,63.6705676 55.1693284,63.52784 55.1309256,63.388097 L55.1309256,63.388097 Z M53.2785514,62.2732444 L53.2785514,62.6985491 L53.2906786,62.6985491 C53.3755689,62.5243767 53.5089679,62.3977446 53.6908757,62.318866 C53.8727834,62.2397743 54.072882,62.200335 54.2910649,62.200335 C54.533715,62.200335 54.7448769,62.2448907 54.9247635,62.3340022 C55.1046501,62.4231136 55.2542187,62.5435634 55.3734693,62.6954579 C55.4926136,62.847459 55.5827164,63.0225908 55.643246,63.2210663 C55.7039883,63.4195418 55.7343062,63.6301689 55.7343062,63.8529476 C55.7343062,64.0757263 55.7049457,64.2864599 55.6464373,64.4848289 C55.5877162,64.6831978 55.4987836,64.8564109 55.3795329,65.0042549 C55.2602823,65.1522055 55.1107137,65.2686047 54.9308271,65.3535591 C54.7509405,65.4387266 54.5417998,65.4812571 54.3032985,65.4812571 C54.2263866,65.4812571 54.1404325,65.473156 54.0455426,65.4568474 C53.9505463,65.4406453 53.8566138,65.4144235 53.7635324,65.3779688 C53.6705573,65.3415141 53.582582,65.2919485 53.4998193,65.2290588 C53.4169502,65.1663824 53.3471657,65.0883565 53.2906786,64.995088 L53.2785514,64.995088 L53.2785514,66.6112459 L52.763146,66.6112459 L52.763146,62.2732444 L53.2785514,62.2732444 L53.2785514,62.2732444 Z" id="Shape" fill="#1C4690" sketch:type="MSShapeGroup"></path>
            <rect id="Rectangle-path" fill="#1C4690" sketch:type="MSShapeGroup" x="56.2792849" y="61.0763154" width="0.515511722" height="4.3381081"></rect>
            <path d="M59.6013888,63.1967632 C59.5547949,63.0873991 59.4922442,62.9931712 59.4133111,62.9142926 C59.3345908,62.8352009 59.2415093,62.7725244 59.1343858,62.7258368 C59.0273687,62.6793624 58.9090755,62.6560186 58.7797189,62.6560186 C58.6463198,62.6560186 58.5260054,62.6793624 58.4189883,62.7258368 C58.3117585,62.7725244 58.2198472,62.8362668 58.1430417,62.9172772 C58.0662362,62.9983942 58.0056003,63.092409 57.9611339,63.1997478 C57.9166676,63.3070866 57.890392,63.4215671 57.8823072,63.5429761 L59.6833005,63.5429761 C59.675003,63.4215671 59.6478764,63.3060207 59.6013888,63.1967632 L59.6013888,63.1967632 Z M59.7256393,65.2139227 C59.4911804,65.3921456 59.1959792,65.4812571 58.8404612,65.4812571 C58.5896199,65.4812571 58.3723944,65.4406453 58.1885718,65.3596349 C58.0045365,65.278731 57.8498617,65.1653164 57.7246538,65.0194977 C57.5993396,64.8735723 57.5054071,64.6995065 57.44275,64.4968739 C57.3799865,64.2944544 57.3446687,64.073701 57.3365839,63.8346137 C57.3365839,63.5957395 57.3729655,63.3770114 57.4457286,63.1784292 C57.5184917,62.9800603 57.6206153,62.8079132 57.7518868,62.6620944 C57.8832646,62.516169 58.0388968,62.4029676 58.2188898,62.321744 C58.39867,62.2408402 58.5957899,62.200335 58.8101432,62.200335 C59.0890685,62.200335 59.320336,62.2580016 59.5043713,62.3734415 C59.6881939,62.4888813 59.8357413,62.6356594 59.9470136,62.8138823 C60.0580731,62.9922119 60.1349849,63.1866369 60.1774301,63.397264 C60.2197688,63.6078911 60.2370022,63.8083919 60.2289174,63.9986598 L57.8823072,63.9986598 C57.8782648,64.1364841 57.8944344,64.2670601 57.930816,64.390601 C57.9673039,64.5141419 58.0257059,64.6236125 58.1066601,64.7186932 C58.187508,64.813987 58.2905891,64.889881 58.4159033,64.9465883 C58.5411112,65.0032956 58.688765,65.0316492 58.858652,65.0316492 C59.0768349,65.0316492 59.2557641,64.9809111 59.3952267,64.8797547 C59.5346893,64.7785983 59.6264942,64.6245719 59.6710669,64.4179953 L60.1804087,64.4179953 C60.111688,64.7703906 59.9600982,65.0356998 59.7256393,65.2139227 L59.7256393,65.2139227 Z" id="Shape" fill="#1C4690" sketch:type="MSShapeGroup"></path>
        </g>
    </g>
</svg>