<svg xmlns="http://www.w3.org/2000/svg" width="159" height="32" viewBox="0 0 159 32"><path d="M0 16.214c0 1.5.215 2.95.608 4.327.024.098.046.19.073.28l.02.05C2.698 27.31 8.707 32 15.79 32c3.277 0 6.325-1.002 8.85-2.72.026-.012.05-.026.075-.042.15-.102.296-.21.437-.322 2.904-2.146 5.05-5.262 5.952-8.867.05-.17.095-.34.132-.51.01-.04.01-.08.013-.12.213-1.035.326-2.11.326-3.21 0-2.13-.417-4.197-1.24-6.143-.158-.375-.59-.55-.962-.39-.373.156-.548.59-.39.96.746 1.765 1.125 3.64 1.125 5.573 0 1.186-.148 2.337-.42 3.438-.218.695-.6 1.34-1.126 1.92.013-.247.02-.5.022-.756.006-2.817-.773-5.79-2.22-8.59 1.06-.908 1.736-2.032 1.968-3.29.074-.398-.19-.78-.59-.854s-.78.19-.854.588c-.155.83-.586 1.593-1.26 2.243-.21-.347-.43-.69-.66-1.03-1.29-1.89-2.82-3.524-4.497-4.828 2.21.145 4.257.68 5.903 1.6.258.148.6.144.843-.058.31-.26.35-.723.09-1.035C24.942 2.25 20.85.424 15.784.424 7.08.425-.002 7.507-.002 16.212zM16.155 2.58c-.664-.255-1.32-.45-1.967-.593.52-.058 1.045-.09 1.58-.09.248.002.556.302.877.884-.163-.064-.325-.134-.49-.2zm1.592-.577c.596.067 1.23.17 1.885.322-.41.22-.833.495-1.265.824-.19-.438-.398-.82-.62-1.15zm2.473 1.572c.504-.326.968-.55 1.356-.643.737.295 1.467.672 2.16 1.15-1.11-.278-2.293-.447-3.516-.507zM8.307 5.51c.163-.76.62-1.443 1.33-2.006 1.713-.51 3.707-.39 5.803.38-.882.152-1.764.356-2.634.618-1.62.487-3.148 1.15-4.548 1.96-.032-.323-.017-.64.05-.952zM6.93 4.976c-.02.075-.042.15-.058.227-.15.693-.132 1.402.043 2.106C5.335 8.4 3.96 9.683 2.867 11.13c-.333.44-.632.89-.902 1.343C2.778 9.467 4.548 6.85 6.93 4.97zm3.158 4.68c-.608-.57-1.07-1.162-1.38-1.758 1.377-.828 2.9-1.503 4.52-1.99.966-.29 1.942-.505 2.916-.655-1.406 1.576-2.81 3.577-4.097 5.837-.734-.425-1.394-.906-1.96-1.436zm6.275 3.06c-1.063-.228-2.073-.554-3.003-.963 1.37-2.396 2.87-4.48 4.347-6.03.462 1.817.85 4.26 1.013 7.29-.78-.03-1.57-.13-2.357-.298zm2.91-6.728c1.67 1.243 3.2 2.845 4.48 4.72.244.357.472.718.69 1.083-1.173.68-2.657 1.088-4.257 1.2-.135-2.532-.435-4.97-.91-7zM4.58 19.634C3.33 18.48 2.473 17.26 2.037 16.05c.345-1.36 1.016-2.722 2.002-4.028.932-1.24 2.1-2.355 3.43-3.313.385.69.925 1.37 1.61 2.014.654.61 1.415 1.165 2.26 1.65-.234.442-.46.89-.68 1.344-1.306 2.67-2.37 5.534-2.99 8.133-1.16-.653-2.205-1.4-3.09-2.22zm9.52 4.607c-1.818-.39-3.536-.962-5.092-1.694.51-2.3 1.462-5.085 2.97-8.177.22-.45.443-.89.672-1.32 1.055.472 2.202.85 3.405 1.105.914.197 1.828.304 2.723.334.016.55.024 1.12.024 1.703 0 3.458-.276 6.33-.675 8.57-1.313-.056-2.666-.227-4.026-.516zm6.17-8.05c0-.57-.008-1.15-.024-1.72 1.827-.12 3.52-.596 4.903-1.393 1.28 2.537 1.97 5.213 1.96 7.74 0 .73-.064 1.427-.18 2.084-.66.405-1.42.755-2.274 1.043-1.518.51-3.226.79-5.036.836.437-2.61.647-5.64.647-8.587zM2.02 20.13c-.125-.477-.203-.964-.236-1.457.49.697 1.088 1.38 1.8 2.037 1.074.993 2.35 1.88 3.77 2.642-.29 1.623-.372 3.094-.19 4.28-2.448-1.853-4.282-4.474-5.145-7.502zm7.572 8.99c-.044-.037-.09-.07-.143-.096-.82-.397-1.15-2.215-.72-4.996 1.562.705 3.27 1.263 5.063 1.646 1.36.29 2.714.47 4.037.54-.647 2.822-1.48 4.303-2.03 4.303-.035 0-.07.005-.103.01-2.185-.015-4.256-.518-6.107-1.41zm9.756-2.877c2.074-.025 4.04-.33 5.783-.914.44-.15.86-.31 1.256-.49-.484 1.18-1.197 2.17-2.123 2.903-1.83 1.348-3.99 2.272-6.335 2.625.587-1.014 1.06-2.445 1.423-4.127z"/><path fill="#002F54" d="M83.376 21.72h.996l-1.186 4.13h-.995l-.72-2.59-.73 2.59h-.992l-1.187-4.13h1.025l.695 3.014.83-3.015h.74l.804 3.01.72-3.015zm2.97 3.394c.35 0 .936-.172.936-1.323 0-1.15-.586-1.32-.936-1.32-.61 0-.942.47-.942 1.325s.333 1.324.942 1.324zm0-3.43c.89 0 1.848.554 1.848 2.107 0 1.548-.957 2.098-1.848 2.098-.895 0-1.85-.55-1.85-2.093 0-1.552.955-2.106 1.85-2.106zm3.228 1.966h.49c.49 0 .794-.23.794-.595 0-.385-.267-.607-.728-.607h-.556v1.202zm1.82.948c.146.295.273.55.563.55h.21v.68l-.03.008c-.008 0-.16.042-.428.042-.7 0-.91-.477-1.1-.9-.157-.344-.288-.643-.65-.643h-.39v1.515h-.88v-4.13h1.463c1.07 0 1.57.417 1.57 1.313 0 .553-.335.897-.665 1.043.147.14.24.335.332.523zm2.067-2.88h-.874v4.132h2.667v-.73h-1.79v-3.4zm3.08 3.4h.516c.633 0 1.013-.475 1.013-1.276 0-.925-.4-1.393-1.194-1.393h-.335v2.67zm.35-3.4c1.285 0 2.052.8 2.052 2.136 0 1.27-.687 1.996-1.88 1.996h-1.4v-4.13h1.227zm4.504 3.4h.69c.45 0 .66-.168.66-.53 0-.445-.368-.537-.68-.537h-.67v1.07zm.603-1.71c.366 0 .537-.156.537-.486 0-.313-.22-.474-.648-.474h-.493v.96h.6zm.98.263c.316.096.73.39.73 1.01 0 .745-.527 1.174-1.45 1.174h-1.742v-4.13h1.573c.895 0 1.35.373 1.35 1.11 0 .57-.26.773-.462.843zm2.767-.82l-.448 1.3h.903l-.458-1.3zm.45-1.1l1.506 4.104h-.916l-.35-1.012h-1.377l-.34 1.014h-.923l1.517-4.13h.87l.015.028zm4.078 2.525l-1.443-2.552h-.894v4.13h.88v-2.46l1.44 2.462h.9v-4.13h-.88v2.552zm4.976-2.55H114.2l-1.368 1.858v-1.86h-.893v4.133h.89v-1.9l1.402 1.9h1.057l-1.6-2.083 1.55-2.05zm2.636 2.62h.906v.046c0 .267-.093.716-.728.716-.596 0-.954-.49-.954-1.312 0-.844.342-1.326.937-1.326.71 0 .737.717.737.747v.05l.82-.13V23.1c0-.3-.264-1.41-1.568-1.41-1.165 0-1.834.766-1.834 2.105 0 1.313.69 2.094 1.847 2.094 1.16 0 1.574-.81 1.574-1.506v-.716h-1.737v.675zm3.223-.69h.488c.493 0 .795-.23.795-.595 0-.386-.265-.608-.728-.608h-.553v1.203zm1.818.948c.148.296.275.55.565.55h.207v.68l-.025.01c-.008 0-.162.04-.43.04-.694 0-.907-.476-1.095-.9-.156-.343-.287-.642-.65-.642h-.387v1.516h-.88v-4.13h1.464c1.066 0 1.566.417 1.566 1.313 0 .552-.332.896-.665 1.042.146.14.24.335.33.523zm2.763.517c.35 0 .937-.173.937-1.324 0-1.153-.59-1.325-.94-1.325-.607 0-.942.47-.942 1.327s.335 1.324.943 1.324zm0-3.43c.892 0 1.845.553 1.845 2.106 0 1.544-.952 2.094-1.844 2.094-.897 0-1.85-.55-1.85-2.093 0-1.552.953-2.106 1.85-2.106zm4.72 2.51c0 .606-.233.902-.712.902-.482 0-.727-.305-.727-.905V21.72h-.88v2.42c-.004.59.143 1.038.436 1.334.27.273.665.41 1.17.41.726 0 1.59-.3 1.59-1.745v-2.42h-.88v2.472zm2.5-.388h.524c.51 0 .77-.226.77-.666 0-.447-.283-.694-.8-.694h-.495v1.36zm.56-2.09c1.043 0 1.62.505 1.62 1.423 0 .867-.57 1.383-1.516 1.383h-.665v1.325h-.88v-4.13h1.443z"/><path fill="#00AEEF" d="M37.852 20.48h1.057v5.364h-1.06V20.48zm4.02 4.507c.53 0 .93-.167.93-.758 0-.556-.407-.77-.95-.77h-.943v1.523h.96zm-.113-2.267c.57 0 .76-.285.76-.697 0-.43-.282-.683-.912-.683h-.704v1.38h.85zm-1.91 3.124V20.48h2.03c1.093 0 1.73.416 1.73 1.418 0 .95-.568 1.113-.837 1.113v.02c.36 0 1.196.315 1.196 1.316 0 1.12-.88 1.502-1.87 1.502h-2.25zm6.51-2.804c.636 0 1.102-.29 1.102-.842 0-.534-.375-.86-1.018-.86h-.79v1.703h.706zm2.726 2.79s-.2.053-.553.053c-1.625 0-1.18-2.047-2.315-2.047h-.567v2.007H44.6V20.48h1.885c1.317 0 2.023.484 2.023 1.687 0 .79-.514 1.21-.928 1.363.55.45.583 1.494 1.287 1.494h.222v.804zm2.257-.843c.82 0 1.394-.598 1.394-1.747 0-1.187-.503-1.9-1.63-1.9h-.498v3.646h.734zm-1.79.857V20.48h1.57c1.41 0 2.666.762 2.666 2.775 0 1.91-1.135 2.59-2.437 2.59h-1.8zm7.376-1.224c-.55 0-.988-.445-.988-.997s.437-.995.988-.995c.55 0 .998.443.998.995s-.447.997-.998.997zm3.392-4.14h1.057v5.364H60.32V20.48zm3.79 4.507c.82 0 1.397-.598 1.397-1.747 0-1.187-.507-1.9-1.634-1.9h-.5v3.646h.735zm-1.792.857V20.48h1.57c1.41 0 2.668.762 2.668 2.775 0 1.91-1.135 2.59-2.437 2.59h-1.8zm6.116-2.144h1.35l-.684-1.947-.665 1.947zm1.618.805H68.15l-.45 1.34h-1.1l1.97-5.364h1.08l1.967 5.368H70.52l-.466-1.34z"/><path fill="#002F54" d="M35.05 7.465h7.972V9.1h-2.928v8.203H37.98V9.1h-2.93V7.466zm9.092 9.838V7.465h2.113v3.883h3.72V7.465h2.138v9.838h-2.11v-4.32h-3.748v4.32h-2.113zm9.69-9.838h6.597V9.1H55.94v2.304h4.198v1.635h-4.197v2.624h4.633V17.3H53.83V7.466zm17.093 0h2.382l1.717 7.4h.027l1.587-7.4h2.017l-2.51 9.838H73.8l-1.77-7.495H72l-1.91 7.495h-2.396l-2.4-9.838h2.182l1.51 7.4h.03l1.908-7.4zm10.688 4.92c0 1.687.396 3.596 2.48 3.596s2.48-1.904 2.48-3.59c0-1.69-.394-3.6-2.48-3.6s-2.48 1.91-2.48 3.6zm-2.246 0c0-2.902 1.47-5.125 4.727-5.125 3.255 0 4.728 2.223 4.728 5.125s-1.473 5.12-4.728 5.12c-3.257 0-4.727-2.218-4.727-5.12zm12.96-.68h1.77c.927-.017 1.47-.478 1.47-1.35 0-.87-.543-1.24-1.47-1.254h-1.77v2.608zm0 5.6h-2.112v-9.84h4.182c1.69.014 3.42.56 3.42 2.562 0 1.28-.83 2.127-2.043 2.384v.03c1.62.18 1.62 1.17 1.8 2.537.095.627.176 1.785.57 2.33h-2.33c-.176-.872-.272-1.757-.366-2.644-.056-.545-.193-1.294-.885-1.32H92.33v3.964zm7.103-.002V7.465h2.113v8.203h4.265v1.635H99.43zm9.635-1.635h1.09c2.51.027 2.877-1.717 2.877-3.283 0-1.567-.368-3.31-2.876-3.284h-1.09v6.57zm-2.11-8.203h3.352c3.064-.025 4.973 1.498 4.973 4.92 0 3.42-1.91 4.945-4.973 4.918h-3.353V7.465zm17.432 3.953c.885 0 1.375-.37 1.375-1.16 0-.79-.49-1.157-1.375-1.157h-1.65v2.32h1.65zm0 4.25c.995 0 1.674-.177 1.674-1.31 0-1.13-.674-1.306-1.67-1.306h-1.65v2.616h1.65zm-3.76 1.635V7.465h3.692c1.752-.108 3.55.628 3.55 2.548 0 1.076-.75 1.826-1.73 2.152v.028c1.24.26 2.165 1.12 2.165 2.56 0 1.95-2.454 2.66-3.964 2.55h-3.72zm14.46-3.72l-1.35-4.196h-.027l-1.443 4.196h2.82zm-6.12 3.72l3.56-9.838h2.505l3.42 9.838h-2.124l-.71-2.085h-3.896l-.737 2.085h-2.017zm16.453 0l-3.883-8.176-.027.028v8.148h-1.975V7.465h3.132l3.75 7.74.026-.03v-7.71h1.975v9.838h-2.997zm6.844-5.586h.027l3.27-4.252h2.47l-3.61 4.4 3.924 5.438h-2.63l-3.42-5.014h-.025v5.01h-2.113V7.463h2.112v4.252zm-77.3 14.748c-.164 0-.297-.133-.297-.296V20.19c0-.163.133-.295.296-.295s.296.132.296.295v5.973c0 .16-.138.294-.3.294z"/></svg>