<svg xmlns="http://www.w3.org/2000/svg" width="268.99" height="144.824" viewBox="0 0 268.99 144.824" class="legend">
<path class="legend-element triangle" fill="none" stroke="#FFF" stroke-width=".24" d="M124.694 58.844l-33.356 57.773h66.71l-33.354-57.773z"/>

<path class="legend-element type-sub" fill="#5DABBC" d="M124.85 72.2c7.44 0 13.47-5.94 13.47-13.273 0-7.33-6.03-13.273-13.47-13.273s-13.47 5.943-13.47 13.273c0 7.332 6.03 13.274 13.47 13.274"/>

<path class="legend-element type-ta" fill="#F0C161" d="M158.207 129.277c7.44 0 13.47-5.943 13.47-13.273s-6.03-13.273-13.47-13.273-13.47 5.944-13.47 13.274 6.03 13.273 13.47 13.273"/>

<path class="legend-element type-p_for_r" fill="#ED657D" d="M91.84 129.277c7.44 0 13.47-5.943 13.47-13.273s-6.03-13.273-13.47-13.273-13.47 5.944-13.47 13.274 6.03 13.273 13.47 13.273"/>

<path class="legend-element type-p_for_r type-sub" fill="#8C63AA" d="M108.82 96.674c5.062 0 9.166-4.043 9.166-9.03s-4.104-9.033-9.166-9.033c-5.06 0-9.165 4.045-9.165 9.033s4.104 9.03 9.165 9.03"/>

<path class="legend-element type-ta type-sub" fill="#64C088" d="M141.21 96.674c5.063 0 9.166-4.043 9.166-9.03s-4.103-9.033-9.165-9.033c-5.06 0-9.164 4.045-9.164 9.033s4.103 9.03 9.165 9.03"/>

<path class="legend-element type-p_for_r type-ta" fill="#F4A11E" d="M124.85 125.037c5.062 0 9.166-4.045 9.166-9.033s-4.104-9.033-9.166-9.033c-5.06 0-9.165 4.046-9.165 9.034s4.104 9.033 9.165 9.033"/>

<path class="legend-element sub-text" fill="#8C9AA7" d="M159.688 86.254c-.098-.12-.218-.21-.36-.275-.14-.063-.305-.095-.492-.095s-.358.035-.518.107-.297.174-.414.303c-.116.13-.208.28-.273.46-.064.18-.098.372-.098.58 0 .212.033.405.1.58s.155.33.27.46c.113.13.25.23.403.3.155.073.32.108.5.108.203 0 .384-.04.54-.127.157-.084.286-.2.39-.355l.826.618c-.19.268-.433.465-.725.592-.293.127-.594.19-.904.19-.35 0-.675-.056-.972-.165s-.553-.268-.77-.475c-.217-.205-.385-.455-.506-.746-.12-.293-.18-.62-.18-.98s.06-.688.18-.98c.12-.292.29-.542.507-.747.215-.205.47-.363.768-.473.297-.11.62-.166.973-.166.13 0 .262.012.4.035.137.02.272.06.406.11.134.052.262.118.385.204.124.084.234.19.332.312l-.764.624zM160.858 87.334c0-.36.06-.688.18-.98.122-.292.29-.542.506-.747.217-.205.474-.363.77-.473.298-.11.622-.166.974-.166s.677.055.973.166c.298.11.556.268.772.473s.385.455.506.748c.12.29.18.62.18.98s-.06.687-.18.98c-.12.29-.29.54-.506.745-.216.207-.474.365-.77.475-.297.11-.622.164-.974.164s-.676-.056-.973-.165-.554-.268-.77-.475c-.217-.205-.385-.455-.506-.746-.122-.293-.182-.62-.182-.98zm1.03 0c0 .213.033.406.1.582.064.176.16.33.283.46s.27.228.442.3c.17.072.363.107.575.107s.404-.035.576-.107.318-.172.44-.3.22-.284.284-.46c.066-.176.1-.37.1-.582 0-.207-.033-.4-.1-.578-.065-.18-.16-.332-.283-.46s-.27-.23-.44-.304-.365-.107-.577-.107-.404.035-.575.107c-.172.072-.318.174-.44.303s-.22.28-.284.46c-.067.18-.1.372-.1.58zM166.392 85.084h1.5l1.037 2.937h.012l1.043-2.936h1.494v4.502h-.993v-3.453h-.013l-1.183 3.453h-.756l-1.138-3.453h-.013v3.453h-.99v-4.502M172.396 85.084h1.68c.194 0 .39.012.588.04.197.028.374.083.53.165.158.083.285.198.382.347.098.146.146.346.146.59 0 .256-.07.467-.213.633-.143.168-.33.29-.563.36v.013c.147.02.283.062.404.123.12.062.225.14.312.236s.154.207.2.334c.047.127.07.264.07.408 0 .236-.05.434-.152.594-.103.158-.233.287-.395.385-.162.098-.343.168-.544.21-.2.042-.4.063-.6.063h-1.845v-4.502zm.99 1.8h.72c.076 0 .152-.01.227-.026s.14-.045.2-.084c.06-.037.106-.088.143-.15.036-.064.055-.14.055-.23 0-.092-.02-.17-.06-.232-.04-.06-.092-.107-.156-.143-.062-.034-.135-.06-.216-.075-.08-.014-.16-.02-.234-.02h-.676v.958zm0 1.862h.893c.075 0 .152-.008.23-.025.078-.015.15-.046.213-.087.064-.043.116-.1.156-.166.04-.068.06-.15.06-.248 0-.108-.026-.194-.08-.26-.053-.065-.12-.114-.2-.15-.08-.032-.167-.056-.26-.07-.095-.01-.18-.017-.262-.017h-.75v1.023zM176.504 85.084h.992v4.502h-.992v-4.502M178.4 85.084h1.348l1.914 3.13h.013v-3.13h.992v4.502h-1.297l-1.966-3.205h-.01v3.206h-.995v-4.502M183.62 85.084h3.06V86h-2.067v.838h1.953v.916h-1.953v.916h2.182v.916h-3.174v-4.502M187.59 85.084h1.488c.36 0 .703.04 1.028.12.323.08.606.21.85.392.24.18.432.414.574.7.142.29.213.64.213 1.052 0 .365-.07.686-.206.963-.138.278-.324.51-.557.7-.233.19-.502.332-.81.43-.304.098-.624.146-.96.146h-1.62v-4.502zm.992 3.586h.515c.23 0 .443-.023.64-.07s.37-.123.513-.232c.145-.107.257-.25.34-.426s.124-.39.124-.645c0-.22-.04-.412-.124-.576s-.193-.296-.334-.403c-.14-.105-.304-.186-.493-.238-.188-.054-.387-.08-.595-.08h-.585v2.67zM196.526 86.184c-.08-.102-.19-.178-.327-.227s-.27-.072-.393-.072c-.07 0-.146.008-.223.023-.076.018-.147.045-.216.08-.068.037-.123.084-.166.145-.042.06-.063.13-.063.215 0 .137.05.24.15.312.104.072.23.135.386.184.155.05.32.102.5.154.18.05.345.123.5.215.154.094.282.22.385.377.102.156.152.365.152.63 0 .25-.046.468-.14.653-.093.188-.22.342-.378.465s-.344.215-.554.273c-.21.062-.432.09-.664.09-.293 0-.564-.044-.814-.134-.25-.088-.484-.232-.7-.432l.706-.777c.103.137.23.242.385.316.155.074.315.11.48.11.08 0 .162-.01.245-.028s.157-.047.223-.086c.066-.038.12-.087.16-.147.04-.06.06-.13.06-.21 0-.136-.052-.243-.155-.32-.104-.08-.234-.146-.392-.2-.156-.057-.326-.11-.51-.166-.18-.055-.35-.13-.508-.223-.156-.094-.287-.217-.392-.37-.104-.15-.155-.353-.155-.603 0-.24.048-.454.144-.636.095-.182.223-.334.38-.457.16-.123.345-.215.552-.277.207-.06.422-.092.643-.092.254 0 .5.035.738.107.236.072.45.193.642.363l-.68.746zM197.99 85.084h3.06V86h-2.07v.838h1.955v.916h-1.954v.916h2.183v.916h-3.174v-4.502M201.958 85.084h1.743c.23 0 .447.02.653.064.204.045.386.12.54.225.154.104.277.242.368.42.093.176.14.395.14.656 0 .317-.084.59-.25.81s-.406.364-.725.423l1.146 1.902h-1.19l-.94-1.8h-.49v1.8h-.99v-4.5h-.002zm.992 1.86h.585c.09 0 .184 0 .284-.007.098-.008.187-.027.27-.06.08-.03.146-.08.2-.147s.08-.164.08-.287c0-.113-.025-.205-.07-.273-.048-.068-.106-.12-.18-.156-.07-.035-.154-.06-.247-.072-.094-.012-.185-.02-.274-.02h-.65v1.023zM205.634 85.084h1.133l1.113 2.95h.012l1.132-2.95h1.063l-1.858 4.502h-.795l-1.8-4.502M210.545 85.084h.992v4.502h-.992v-4.502M215.385 86.254c-.098-.12-.218-.21-.36-.275-.142-.063-.306-.095-.49-.095-.19 0-.36.035-.52.107-.16.072-.298.174-.413.303-.117.13-.208.28-.274.46-.066.18-.098.372-.098.58 0 .212.03.405.098.58s.156.33.27.46.25.23.404.3c.155.073.322.108.5.108.203 0 .383-.04.54-.127.157-.084.287-.2.388-.355l.827.618c-.19.268-.432.465-.725.592-.292.127-.594.19-.903.19-.353 0-.677-.056-.974-.165s-.554-.268-.77-.475c-.217-.205-.386-.455-.506-.746-.12-.293-.182-.62-.182-.98s.06-.688.182-.98c.12-.292.29-.542.505-.747.217-.205.474-.363.77-.473.298-.11.622-.166.974-.166.126 0 .26.012.396.035.138.02.273.06.406.11.135.052.263.118.386.204.123.084.233.19.33.312l-.763.624zM216.835 85.084h3.06V86h-2.068v.838h1.953v.916h-1.953v.916h2.182v.916h-3.175v-4.502M223.03 86.184c-.08-.102-.19-.178-.328-.227-.137-.05-.268-.072-.39-.072-.073 0-.147.008-.224.023-.077.018-.148.045-.217.08-.067.037-.122.084-.164.145-.042.06-.063.13-.063.215 0 .137.05.24.152.312.103.072.23.135.385.184.155.05.32.102.5.154.178.05.345.123.498.215.155.094.283.22.386.377.102.156.152.365.152.63 0 .25-.047.468-.14.653-.093.188-.22.342-.38.465s-.342.215-.552.273c-.21.062-.432.09-.665.09-.293 0-.564-.044-.815-.134-.25-.088-.483-.232-.7-.432l.707-.777c.102.137.23.242.385.316s.314.11.48.11c.08 0 .162-.01.245-.028.082-.02.156-.047.222-.086.066-.038.12-.087.16-.147.04-.06.06-.13.06-.21 0-.136-.052-.243-.155-.32-.105-.08-.235-.146-.393-.2-.156-.057-.326-.11-.51-.166s-.35-.13-.508-.223-.288-.217-.392-.37c-.104-.15-.156-.353-.156-.603 0-.24.048-.454.143-.636.097-.182.224-.334.382-.457.16-.123.343-.215.55-.277.21-.06.423-.092.643-.092.255 0 .5.035.738.107s.452.193.642.363l-.68.746zM29.275 86.254c-.098-.12-.218-.21-.36-.275-.142-.063-.306-.095-.493-.095-.186 0-.36.035-.518.107-.16.072-.297.174-.413.303-.116.13-.207.28-.273.46-.066.18-.098.372-.098.58 0 .212.03.405.097.58.066.177.156.33.27.46.115.13.25.23.404.3.156.073.323.108.5.108.204 0 .384-.04.54-.127.158-.084.288-.2.39-.355l.826.618c-.19.268-.432.465-.725.592s-.593.19-.902.19c-.352 0-.676-.056-.973-.165-.297-.11-.554-.268-.77-.475-.216-.205-.385-.455-.505-.746-.12-.293-.182-.62-.182-.98s.06-.688.182-.98c.12-.292.29-.542.505-.747.216-.205.473-.363.77-.473.297-.11.62-.166.973-.166.127 0 .26.012.397.035.138.02.274.06.407.11.134.052.262.118.385.204.123.084.233.19.33.312l-.762.624zM30.445 87.334c0-.36.06-.688.18-.98.122-.292.29-.542.507-.747.216-.205.473-.363.77-.473.296-.11.62-.166.973-.166s.676.055.973.166c.297.11.553.268.77.473.216.205.384.455.505.748.12.29.18.62.18.98s-.06.687-.18.98c-.12.29-.29.54-.506.745-.216.207-.472.365-.77.475s-.62.164-.972.164-.677-.056-.973-.165c-.297-.11-.554-.268-.77-.475-.216-.205-.385-.455-.506-.746-.12-.293-.18-.62-.18-.98zm1.03 0c0 .213.033.406.1.582s.16.33.282.46.27.228.442.3c.17.072.363.107.575.107s.404-.035.575-.107c.172-.072.32-.172.442-.3s.218-.284.283-.46c.066-.176.1-.37.1-.582 0-.207-.034-.4-.1-.578-.065-.18-.16-.332-.283-.46s-.27-.23-.442-.304c-.17-.072-.363-.107-.575-.107s-.404.035-.576.107c-.173.072-.32.174-.443.303s-.217.28-.283.46c-.066.18-.1.372-.1.58zM35.98 85.084h1.5l1.036 2.937h.013l1.042-2.936h1.495v4.502h-.992v-3.453h-.013l-1.183 3.453h-.758l-1.138-3.453h-.013v3.453h-.99v-4.502M41.983 85.084h1.68c.194 0 .39.012.587.04.197.028.374.083.53.165.158.083.285.198.383.347.097.146.146.346.146.59 0 .256-.072.467-.214.633-.142.168-.33.29-.563.36v.013c.15.02.283.062.404.123.12.062.225.14.312.236s.152.207.2.334.07.264.07.408c0 .236-.052.434-.154.594-.1.158-.233.287-.394.385s-.342.168-.544.21c-.2.042-.4.063-.6.063h-1.845v-4.502zm.992 1.8h.72c.075 0 .15-.01.224-.026.074-.018.14-.045.2-.084.06-.037.107-.088.143-.15.036-.064.054-.14.054-.23 0-.092-.02-.17-.06-.232-.04-.06-.093-.107-.156-.143-.063-.034-.135-.06-.216-.075-.08-.014-.16-.02-.235-.02h-.675v.958zm0 1.862h.89c.077 0 .154-.008.233-.025.078-.015.15-.046.213-.087.064-.043.116-.1.156-.166.04-.068.06-.15.06-.248 0-.108-.026-.194-.08-.26-.052-.065-.118-.114-.2-.15-.08-.032-.166-.056-.26-.07-.093-.01-.18-.017-.26-.017h-.75v1.023zM46.092 85.084h.992v4.502h-.992v-4.502M47.987 85.084h1.348l1.915 3.13h.012v-3.13h.993v4.502h-1.298l-1.965-3.205h-.013v3.206h-.993v-4.502M53.21 85.084h3.058V86H54.2v.838h1.954v.916H54.2v.916h2.183v.916H53.21v-4.502M57.178 85.084h1.488c.36 0 .703.04 1.027.12.324.08.608.21.85.392.24.18.433.414.575.7.142.29.213.64.213 1.052 0 .365-.068.686-.206.963-.138.278-.323.51-.556.7-.234.19-.503.332-.808.43-.305.098-.626.146-.96.146h-1.622v-4.502zm.992 3.586h.515c.23 0 .442-.023.64-.07.196-.047.367-.123.51-.232.145-.107.26-.25.342-.426.082-.176.124-.39.124-.645 0-.22-.04-.412-.123-.576-.083-.163-.194-.296-.334-.403-.14-.105-.305-.186-.493-.238-.19-.055-.387-.08-.595-.08h-.585v2.67zM66.114 86.184c-.08-.102-.19-.178-.328-.227-.137-.05-.268-.072-.39-.072-.073 0-.147.008-.223.023-.077.018-.15.045-.217.08-.068.037-.123.084-.165.145-.04.06-.063.13-.063.215 0 .137.05.24.153.312.102.072.23.135.385.184.155.05.32.102.5.154.177.05.344.123.498.215.155.094.283.22.385.377.102.156.153.365.153.63 0 .25-.046.468-.14.653-.092.188-.22.342-.378.465-.16.123-.343.215-.553.273-.21.062-.432.09-.666.09-.292 0-.564-.044-.814-.134-.25-.088-.483-.232-.7-.432l.707-.777c.1.137.23.242.384.316.156.074.316.11.482.11.08 0 .162-.01.245-.028.082-.02.156-.047.222-.086.065-.038.118-.087.158-.147.04-.06.06-.13.06-.21 0-.136-.05-.243-.155-.32s-.235-.146-.39-.2c-.158-.057-.328-.11-.51-.166-.183-.055-.352-.13-.51-.223-.156-.094-.286-.217-.39-.37s-.156-.353-.156-.603c0-.24.048-.454.143-.636.095-.182.223-.334.382-.457s.342-.215.55-.277c.208-.06.422-.092.642-.092.255 0 .5.035.738.107s.452.193.642.363l-.68.746zM67.577 85.084h3.06V86h-2.068v.838h1.952v.916H68.57v.916h2.18v.916h-3.173v-4.502M71.546 85.084h1.742c.23 0 .447.02.652.064.206.045.386.12.54.225.156.104.28.242.37.42.09.176.137.395.137.656 0 .317-.083.59-.248.81-.167.224-.41.364-.727.423l1.145 1.902h-1.19l-.94-1.8h-.49v1.8h-.992v-4.5zm.992 1.86h.585c.09 0 .183 0 .283-.007.1-.008.19-.027.27-.06.08-.03.148-.08.2-.147.054-.068.08-.164.08-.287 0-.113-.023-.205-.07-.273-.046-.068-.106-.12-.178-.156-.072-.035-.155-.06-.248-.072-.093-.012-.184-.02-.273-.02h-.65v1.023zM75.222 85.084h1.132l1.113 2.95h.013l1.132-2.95h1.062l-1.857 4.502h-.795l-1.8-4.502M80.132 85.084h.992v4.502h-.992v-4.502M84.972 86.254c-.097-.12-.217-.21-.36-.275-.14-.063-.305-.095-.492-.095s-.36.035-.518.107-.297.174-.414.303c-.116.13-.208.28-.273.46-.066.18-.1.372-.1.58 0 .212.034.405.1.58.065.177.156.33.27.46.115.13.25.23.404.3.154.073.32.108.498.108.204 0 .384-.04.54-.127.158-.084.287-.2.39-.355l.826.618c-.19.268-.433.465-.725.592-.294.127-.595.19-.905.19-.352 0-.676-.056-.973-.165s-.553-.268-.77-.475c-.216-.205-.384-.455-.505-.746-.12-.293-.18-.62-.18-.98s.06-.688.18-.98c.12-.292.29-.542.506-.747.216-.205.472-.363.77-.473.296-.11.62-.166.972-.166.128 0 .26.012.398.035.138.02.273.06.407.11.134.052.262.118.385.204.123.084.233.19.33.312l-.763.624zM86.422 85.084h3.06V86h-2.067v.838h1.952v.916h-1.952v.916h2.18v.916h-3.173v-4.502M92.617 86.184c-.08-.102-.19-.178-.327-.227-.138-.05-.268-.072-.39-.072-.073 0-.148.008-.224.023-.076.018-.148.045-.216.08-.068.037-.123.084-.166.145-.042.06-.063.13-.063.215 0 .137.052.24.154.312.1.072.23.135.384.184.155.05.322.102.5.154.178.05.344.123.5.215.154.094.282.22.384.377.1.156.152.365.152.63 0 .25-.046.468-.14.653-.093.188-.22.342-.378.465s-.343.215-.553.273c-.21.062-.432.09-.665.09-.293 0-.564-.044-.814-.134-.25-.088-.484-.232-.7-.432l.706-.777c.102.137.23.242.385.316.155.074.315.11.48.11.08 0 .162-.01.245-.028s.157-.047.223-.086c.065-.038.118-.087.16-.147.04-.06.06-.13.06-.21 0-.136-.053-.243-.157-.32s-.234-.146-.39-.2c-.158-.057-.327-.11-.51-.166-.182-.055-.352-.13-.51-.223-.155-.094-.286-.217-.39-.37s-.155-.353-.155-.603c0-.24.048-.454.144-.636.095-.182.222-.334.38-.457s.344-.215.55-.277c.21-.06.423-.092.644-.092.254 0 .5.035.738.107.237.072.45.193.642.363l-.68.746zM94.57 141.38c-.097-.12-.217-.212-.36-.274-.14-.064-.306-.096-.492-.096-.187 0-.36.035-.52.107-.158.072-.295.174-.412.303s-.208.28-.274.46c-.065.18-.098.372-.098.58 0 .212.033.405.098.58.066.177.156.33.27.46.115.13.25.23.405.3.154.073.32.108.5.108.203 0 .383-.04.54-.127.156-.083.286-.2.388-.354l.826.617c-.19.268-.43.465-.724.592-.292.127-.593.19-.903.19-.352 0-.676-.056-.973-.165-.297-.11-.553-.268-.77-.475-.216-.205-.384-.455-.505-.746-.12-.294-.18-.62-.18-.98s.06-.69.18-.98c.12-.293.29-.543.505-.748.217-.205.473-.363.77-.473.297-.112.62-.167.973-.167.127 0 .26.012.398.035.14.023.274.06.408.11.133.052.262.118.385.204.123.084.233.19.33.312l-.763.625zM95.74 142.46c0-.36.06-.69.182-.98.12-.293.29-.543.505-.748.217-.205.473-.363.77-.473.297-.112.62-.167.973-.167.352 0 .676.055.973.166.297.108.554.267.77.472s.385.455.505.748c.12.29.182.62.182.98s-.06.687-.182.98c-.12.29-.29.54-.505.745-.216.207-.473.365-.77.475s-.62.164-.973.164c-.352 0-.676-.055-.973-.164-.297-.11-.553-.268-.77-.475-.216-.205-.385-.455-.505-.746-.12-.294-.182-.62-.182-.98zm1.03 0c0 .212.034.405.1.58.065.177.16.33.282.46.123.13.27.23.442.3.172.073.364.108.576.108s.404-.035.576-.107c.17-.07.32-.17.442-.3s.217-.283.283-.46c.066-.175.1-.368.1-.58 0-.208-.034-.4-.1-.58-.065-.18-.16-.33-.282-.46s-.27-.23-.442-.303c-.172-.072-.364-.107-.576-.107s-.404.035-.576.107c-.17.072-.32.174-.442.303-.123.13-.217.28-.283.46-.066.18-.1.372-.1.58zM101.274 140.21h1.5l1.038 2.936h.012l1.043-2.937h1.495v4.5h-.992v-3.452h-.013l-1.183 3.453h-.757l-1.138-3.452h-.014v3.453h-.992v-4.5M107.278 140.21h1.68c.194 0 .39.013.587.04.198.027.375.082.532.164.156.084.284.2.38.348.1.146.147.346.147.592 0 .254-.07.465-.213.63-.14.17-.328.29-.56.362v.012c.147.02.282.062.402.125.12.06.225.14.312.234s.154.207.2.334c.047.128.07.265.07.41 0 .235-.05.435-.152.593-.102.16-.233.287-.395.385-.16.098-.342.168-.543.21-.202.042-.402.063-.6.063h-1.846v-4.5zm.992 1.798h.72c.075 0 .15-.008.225-.025.074-.018.14-.045.2-.082.06-.038.107-.09.143-.15.036-.065.054-.142.054-.23 0-.093-.02-.17-.06-.233-.04-.06-.092-.107-.156-.143-.064-.033-.136-.06-.216-.072-.08-.016-.16-.023-.236-.023h-.674v.958zm0 1.863h.89c.077 0 .154-.007.233-.024.078-.016.15-.047.213-.088.064-.043.115-.1.156-.166.04-.068.06-.15.06-.248 0-.107-.026-.19-.08-.258-.052-.066-.12-.115-.2-.15-.08-.033-.167-.057-.26-.07-.094-.012-.18-.018-.26-.018h-.752v1.023zM111.387 140.21h.992v4.5h-.993v-4.5M113.282 140.21h1.35l1.913 3.128h.013v-3.13h.992v4.503h-1.298l-1.965-3.204h-.013v3.205h-.992v-4.5M118.504 140.21h3.06v.915h-2.068v.838h1.953v.916h-1.954v.915h2.182v.916h-3.174v-4.5M122.473 140.21h1.488c.362 0 .704.038 1.028.12.325.078.608.21.85.39.24.18.433.415.575.704.142.287.213.637.213 1.05 0 .364-.07.685-.207.962-.138.277-.324.512-.557.7-.233.188-.503.33-.808.43s-.625.145-.96.145h-1.622v-4.5zm.992 3.585h.515c.23 0 .442-.023.64-.07.197-.047.367-.123.512-.232.145-.107.257-.25.34-.426.082-.176.124-.39.124-.645 0-.22-.042-.412-.124-.576-.083-.164-.194-.297-.334-.404-.14-.105-.304-.186-.493-.238s-.387-.078-.595-.078h-.585v2.67zM131.41 141.31c-.08-.103-.19-.18-.328-.228-.138-.05-.27-.072-.392-.072-.072 0-.146.008-.222.025-.076.018-.15.043-.216.078-.068.037-.123.084-.166.145-.042.06-.063.13-.063.215 0 .137.05.24.152.312.102.072.23.135.385.186.155.05.32.1.5.153.177.05.344.123.5.215.153.094.282.22.383.377.102.156.153.365.153.63 0 .25-.047.468-.14.655-.093.186-.22.34-.378.463s-.344.215-.554.273c-.21.06-.43.088-.664.088-.293 0-.564-.043-.814-.133-.25-.087-.484-.23-.7-.43l.706-.778c.102.137.23.242.385.316.155.074.315.11.48.11.08 0 .162-.01.245-.028s.157-.047.222-.086c.066-.037.12-.086.16-.146.04-.06.06-.13.06-.21 0-.136-.052-.243-.156-.32s-.234-.146-.39-.2c-.158-.057-.328-.11-.51-.166-.182-.055-.352-.13-.51-.223s-.286-.218-.39-.37-.156-.354-.156-.604c0-.242.048-.455.143-.637.096-.183.223-.335.382-.458s.342-.215.55-.277c.208-.06.422-.092.643-.092.254 0 .5.035.737.107.238.072.452.193.643.363l-.68.746zM132.872 140.21h3.06v.915h-2.068v.838h1.953v.916h-1.953v.915h2.182v.916h-3.174v-4.5M136.84 140.21h1.744c.23 0 .446.02.652.065.205.043.385.117.54.223.154.104.277.242.37.42.09.176.136.395.136.656 0 .318-.083.59-.248.812-.166.223-.407.363-.725.422l1.144 1.902h-1.19l-.94-1.8h-.49v1.8h-.992v-4.5zm.993 1.86h.585c.09 0 .185-.002.283-.008.1-.008.19-.027.272-.057.08-.033.147-.082.2-.15.054-.068.08-.164.08-.287 0-.113-.023-.205-.07-.273-.047-.066-.105-.12-.18-.154-.07-.036-.153-.06-.247-.073-.093-.012-.184-.02-.272-.02h-.65v1.023zM140.517 140.21h1.132l1.112 2.948h.013l1.132-2.95h1.062l-1.858 4.503h-.795l-1.8-4.5M145.427 140.21h.993v4.5h-.993v-4.5M150.27 141.38c-.1-.12-.22-.212-.36-.274-.143-.064-.307-.096-.494-.096-.186 0-.36.035-.518.107-.16.072-.297.174-.413.303-.117.13-.208.28-.274.46-.064.18-.098.372-.098.58 0 .212.033.405.1.58.065.177.155.33.27.46s.25.23.403.3c.155.073.32.108.5.108.203 0 .384-.04.54-.127.157-.083.286-.2.39-.354l.825.617c-.19.268-.433.465-.725.592-.293.127-.594.19-.903.19-.352 0-.677-.056-.973-.165-.298-.11-.555-.268-.77-.475-.218-.205-.387-.455-.508-.746-.12-.294-.18-.62-.18-.98s.06-.69.18-.98c.12-.293.29-.543.507-.748.215-.205.472-.363.77-.473.295-.112.62-.167.972-.167.127 0 .26.012.397.035s.272.06.406.11.262.118.385.204c.124.084.233.19.332.312l-.763.625zM151.718 140.21h3.06v.915h-2.068v.838h1.953v.916h-1.953v.915h2.183v.916h-3.175v-4.5M157.913 141.31c-.08-.103-.19-.18-.328-.228s-.268-.072-.39-.072c-.073 0-.147.008-.225.025-.075.018-.147.043-.216.078-.067.037-.123.084-.165.145-.044.06-.064.13-.064.215 0 .137.05.24.152.312.103.072.23.135.386.186.153.05.32.1.5.153.177.05.343.123.498.215.154.094.282.22.385.377.102.156.153.365.153.63 0 .25-.048.468-.14.655-.095.186-.22.34-.38.463s-.343.215-.553.273c-.21.06-.433.088-.665.088-.292 0-.564-.043-.814-.133-.25-.087-.482-.23-.698-.43l.705-.778c.102.137.23.242.385.316s.314.11.48.11c.08 0 .162-.01.244-.028.083-.02.157-.047.223-.086.066-.037.12-.086.16-.146.04-.06.06-.13.06-.21 0-.136-.053-.243-.155-.32-.104-.08-.235-.146-.392-.2-.156-.057-.326-.11-.51-.166s-.35-.13-.508-.223-.287-.218-.39-.37c-.105-.152-.157-.354-.157-.604 0-.242.047-.455.143-.637s.224-.335.383-.458c.16-.123.343-.215.55-.277.208-.06.423-.092.643-.092.255 0 .5.035.738.107s.452.193.643.363l-.68.746z"/>

<path class="legend-element main-text" fill="#4D384B" d="M95.38 37.362c.307.204.91.366 1.463.366 1.352 0 2.006-.765 2.006-1.65 0-.84-.494-1.308-1.463-1.682-.79-.306-1.14-.57-1.14-1.105 0-.39.3-.858 1.08-.858.52 0 .902.17 1.09.272l.203-.603c-.255-.144-.68-.28-1.267-.28-1.113 0-1.853.663-1.853 1.556 0 .807.578 1.292 1.513 1.623.774.297 1.08.603 1.08 1.138 0 .578-.442.978-1.2.978-.51 0-.993-.17-1.325-.374l-.187.62zM103.278 33.53h-.748v2.523c0 .136-.026.272-.068.383-.136.33-.485.68-.986.68-.68 0-.918-.527-.918-1.31V33.53h-.748v2.404c0 1.445.773 1.802 1.42 1.802.73 0 1.164-.433 1.36-.765h.016l.043.673h.662c-.026-.323-.034-.697-.034-1.122v-2.99zM105.13 37.643l.035-.68h.025c.306.544.782.773 1.377.773.918 0 1.845-.73 1.845-2.2.008-1.25-.714-2.1-1.734-2.1-.663 0-1.14.297-1.403.756h-.017v-2.584h-.74v4.972c0 .366-.016.782-.033 1.063h.646zm.128-2.39c0-.118.026-.22.043-.305.154-.57.63-.918 1.14-.918.8 0 1.224.706 1.224 1.53 0 .944-.468 1.58-1.25 1.58-.544 0-.977-.356-1.122-.874-.017-.085-.034-.18-.034-.272v-.74zM109.066 37.447c.29.17.706.28 1.156.28.978 0 1.54-.51 1.54-1.232 0-.612-.367-.97-1.08-1.24-.536-.205-.783-.358-.783-.698 0-.306.246-.56.688-.56.382 0 .68.135.84.237l.188-.544c-.23-.136-.595-.255-1.01-.255-.885 0-1.42.544-1.42 1.207 0 .493.348.9 1.087 1.165.553.204.765.4.765.756 0 .34-.255.612-.8.612-.373 0-.764-.153-.985-.297l-.187.57zM113.47 37.643V33.53h-.75v4.113h.75zm-.375-5.738c-.272 0-.467.204-.467.468 0 .255.187.46.45.46.298 0 .485-.205.476-.46 0-.264-.178-.468-.46-.468zM117.515 31.608v2.456h-.017c-.187-.33-.612-.63-1.24-.63-1.004 0-1.854.843-1.845 2.21 0 1.25.765 2.092 1.76 2.092.67 0 1.172-.348 1.402-.807h.017l.034.713h.67c-.024-.28-.033-.697-.033-1.063v-4.972h-.748zm0 4.31c0 .118-.008.22-.034.322-.135.56-.594.893-1.095.893-.808 0-1.216-.69-1.216-1.522 0-.908.458-1.588 1.232-1.588.56 0 .97.39 1.08.867.025.092.033.22.033.313v.714zM118.96 33.53l1.522 3.79c.034.093.05.153.05.195 0 .043-.025.102-.06.18-.17.38-.424.67-.628.832-.22.188-.467.306-.654.365l.187.63c.187-.035.552-.162.918-.485.51-.442.875-1.165 1.41-2.576l1.123-2.93h-.79l-.817 2.413c-.1.297-.186.612-.262.858h-.017c-.067-.245-.17-.568-.263-.84l-.9-2.43h-.817zM125.335 37.643h.74v-2.295c.17.042.374.05.595.05.722 0 1.36-.212 1.75-.628.29-.298.443-.706.443-1.224 0-.51-.187-.927-.502-1.2-.34-.305-.874-.475-1.605-.475-.595 0-1.063.052-1.42.112v5.66zm.74-5.126c.127-.034.374-.06.697-.06.816 0 1.35.366 1.35 1.123 0 .79-.543 1.224-1.435 1.224-.247 0-.45-.017-.612-.06v-2.227zM131.574 33.435c-1.14 0-2.04.808-2.04 2.185 0 1.3.86 2.116 1.972 2.116.995 0 2.05-.663 2.05-2.184 0-1.258-.8-2.117-1.982-2.117zm-.017.56c.884 0 1.233.885 1.233 1.582 0 .927-.536 1.598-1.25 1.598-.73 0-1.25-.68-1.25-1.58 0-.783.383-1.6 1.267-1.6zM134.498 37.643h.74V35.45c0-.128.017-.247.034-.35.102-.56.476-.96 1.003-.96.102 0 .178.01.255.026v-.705c-.068-.016-.128-.025-.213-.025-.5 0-.952.35-1.14.9h-.033l-.025-.806h-.656c.026.38.034.798.034 1.282v2.83zM137.448 32.543v.986h-.638v.568h.638v2.244c0 .485.076.85.29 1.07.177.205.458.316.806.316.29 0 .52-.043.663-.102l-.034-.56c-.093.024-.237.05-.433.05-.417 0-.562-.29-.562-.8V34.1h1.07v-.57h-1.07v-1.18l-.73.195zM140.907 37.643v-3.545h.995v-.57h-.995v-.22c0-.63.162-1.19.8-1.19.212 0 .365.042.475.093l.103-.577c-.145-.06-.374-.12-.637-.12-.35 0-.724.112-1.003.384-.35.33-.477.858-.477 1.436v.196h-.578v.568h.578v3.545h.74zM144.316 33.435c-1.14 0-2.04.808-2.04 2.185 0 1.3.857 2.116 1.972 2.116.994 0 2.048-.663 2.048-2.184 0-1.258-.8-2.117-1.98-2.117zm-.017.56c.883 0 1.23.885 1.23 1.582 0 .927-.534 1.598-1.248 1.598-.73 0-1.25-.68-1.25-1.58 0-.783.383-1.6 1.267-1.6zM147.24 37.643h.748v-6.035h-.748v6.035M149.994 37.643V33.53h-.748v4.113h.748zm-.374-5.738c-.272 0-.468.204-.468.468 0 .255.187.46.45.46.298 0 .484-.205.477-.46 0-.264-.18-.468-.46-.468zM152.978 33.435c-1.14 0-2.04.808-2.04 2.185 0 1.3.858 2.116 1.972 2.116.995 0 2.05-.663 2.05-2.184-.002-1.258-.8-2.117-1.982-2.117zm-.018.56c.884 0 1.233.885 1.233 1.582 0 .927-.536 1.598-1.25 1.598-.73 0-1.25-.68-1.25-1.58 0-.783.383-1.6 1.267-1.6zM178.158 118.742h.746v-5.09h1.747v-.627h-4.23v.627h1.738v5.09M184.562 116.824c.008-.074.024-.193.024-.348 0-.754-.355-1.932-1.696-1.932-1.195 0-1.925.975-1.925 2.213s.755 2.068 2.02 2.068c.65 0 1.102-.135 1.364-.254l-.128-.532c-.28.117-.602.21-1.137.21-.746 0-1.39-.415-1.407-1.425h2.884zm-2.875-.533c.06-.517.39-1.212 1.145-1.212.84 0 1.043.738 1.034 1.213h-2.18zM188.31 118.03c-.213.093-.492.202-.916.202-.814 0-1.425-.584-1.425-1.535 0-.855.508-1.55 1.45-1.55.406 0 .687.09.864.194l.17-.577c-.204-.102-.594-.21-1.035-.21-1.34 0-2.206.915-2.206 2.18 0 1.253.807 2.093 2.044 2.093.552 0 .983-.135 1.18-.236l-.128-.56zM189.31 118.742h.746v-2.477c0-.145.01-.254.052-.357.136-.406.517-.744 1-.744.705 0 .95.56.95 1.22v2.358h.746V116.3c0-1.417-.882-1.755-1.433-1.755-.28 0-.542.084-.763.21-.23.128-.415.315-.534.526h-.018v-2.56h-.745v6.022zM194.018 118.742h.745v-2.47c0-.126.018-.253.052-.347.127-.414.51-.762 1-.762.704 0 .95.55.95 1.213v2.365h.746v-2.45c0-1.408-.88-1.746-1.45-1.746-.678 0-1.152.38-1.356.77h-.016l-.043-.678h-.66c.023.34.033.688.033 1.11v2.996zM199.47 118.742v-4.105h-.747v4.105h.747zm-.374-5.724c-.27 0-.466.203-.466.467 0 .254.188.457.45.457.296 0 .483-.203.474-.457 0-.264-.178-.467-.458-.467zM203.506 118.03c-.212.093-.492.202-.916.202-.813 0-1.424-.584-1.424-1.535 0-.855.508-1.55 1.45-1.55.407 0 .687.09.865.194l.17-.577c-.203-.102-.594-.21-1.034-.21-1.34 0-2.205.915-2.205 2.18 0 1.253.806 2.093 2.045 2.093.55 0 .983-.135 1.178-.236l-.127-.56zM207.458 118.742c-.05-.28-.068-.63-.068-.984v-1.535c0-.822-.305-1.678-1.56-1.678-.517 0-1.01.143-1.35.363l.17.492c.29-.186.688-.305 1.07-.305.84 0 .932.61.932.95v.085c-1.585-.01-2.467.533-2.467 1.525 0 .594.424 1.18 1.255 1.18.585 0 1.025-.29 1.255-.61h.024l.06.517h.678zm-.79-1.383c0 .075-.016.16-.04.237-.12.346-.46.686-.993.686-.382 0-.704-.23-.704-.713 0-.797.926-.94 1.74-.924v.713zM208.594 118.742h.747v-6.02h-.746v6.02M215.37 116.943l.61 1.8h.79l-1.95-5.718h-.892l-1.94 5.717h.762l.594-1.8h2.026zm-1.874-.576l.56-1.654c.11-.348.203-.695.288-1.033h.018c.085.33.17.67.297 1.043l.56 1.645h-1.724zM217.295 118.547c.29.17.704.28 1.154.28.974 0 1.534-.51 1.534-1.23 0-.61-.365-.967-1.077-1.238-.535-.206-.78-.358-.78-.696 0-.307.245-.56.687-.56.382 0 .68.134.84.237l.187-.542c-.228-.137-.593-.254-1.01-.254-.88 0-1.415.54-1.415 1.203 0 .492.348.898 1.086 1.162.552.202.764.397.764.755 0 .338-.255.61-.797.61-.373 0-.764-.153-.983-.298l-.19.57zM220.654 118.547c.288.17.704.28 1.153.28.975 0 1.534-.51 1.534-1.23 0-.61-.363-.967-1.076-1.238-.533-.206-.78-.358-.78-.696 0-.307.247-.56.688-.56.38 0 .68.134.84.237l.187-.542c-.23-.137-.595-.254-1.01-.254-.883 0-1.417.54-1.417 1.203 0 .492.348.898 1.086 1.162.55.202.762.397.762.755 0 .338-.254.61-.797.61-.373 0-.763-.153-.984-.298l-.186.57zM225.047 118.742v-4.105h-.747v4.105h.747zm-.374-5.724c-.27 0-.466.203-.466.467 0 .254.188.457.45.457.296 0 .482-.203.474-.457 0-.264-.177-.467-.457-.467zM225.996 118.547c.29.17.704.28 1.154.28.975 0 1.535-.51 1.535-1.23 0-.61-.365-.967-1.077-1.238-.535-.206-.78-.358-.78-.696 0-.307.245-.56.686-.56.383 0 .68.134.84.237l.188-.542c-.23-.137-.594-.254-1.01-.254-.882 0-1.416.54-1.416 1.203 0 .492.348.898 1.086 1.162.55.202.763.397.763.755 0 .338-.255.61-.797.61-.373 0-.764-.153-.984-.298l-.188.57zM229.813 113.652v.984h-.637v.568h.637v2.238c0 .484.075.85.288 1.07.18.203.46.312.807.312.288 0 .517-.043.66-.102l-.033-.56c-.093.024-.237.052-.432.052-.416 0-.56-.29-.56-.797v-2.215h1.067v-.568h-1.07v-1.178l-.727.196zM235.4 118.742c-.05-.28-.067-.63-.067-.984v-1.535c0-.822-.305-1.678-1.56-1.678-.518 0-1.01.143-1.35.363l.17.492c.29-.186.688-.305 1.07-.305.838 0 .932.61.932.95v.085c-1.586-.01-2.468.533-2.468 1.525 0 .594.424 1.18 1.255 1.18.585 0 1.026-.29 1.255-.61h.025l.06.517h.68zm-.787-1.383c0 .075-.018.16-.043.237-.12.346-.458.686-.992.686-.382 0-.704-.23-.704-.713 0-.797.924-.94 1.74-.924v.713zM236.538 118.742h.746v-2.47c0-.126.017-.253.05-.347.128-.414.51-.762 1-.762.705 0 .95.55.95 1.213v2.365h.748v-2.45c0-1.408-.882-1.746-1.45-1.746-.68 0-1.154.38-1.356.77h-.018l-.043-.678h-.66c.024.34.033.688.033 1.11v2.996zM244.043 118.03c-.212.093-.492.202-.916.202-.813 0-1.425-.584-1.425-1.535 0-.855.51-1.55 1.45-1.55.407 0 .687.09.865.194l.17-.577c-.204-.102-.595-.21-1.035-.21-1.34 0-2.205.915-2.205 2.18 0 1.253.806 2.093 2.044 2.093.552 0 .985-.135 1.18-.236l-.127-.56zM248.342 116.824c.01-.074.026-.193.026-.348 0-.754-.356-1.932-1.696-1.932-1.195 0-1.925.975-1.925 2.213s.754 2.068 2.018 2.068c.653 0 1.103-.135 1.365-.254l-.127-.532c-.28.117-.602.21-1.136.21-.746 0-1.39-.415-1.408-1.425h2.882zm-2.874-.533c.06-.517.39-1.212 1.145-1.212.84 0 1.043.738 1.035 1.213h-2.18zM5.538 118.742h.738v-2.29c.17.042.373.052.594.052.72 0 1.357-.213 1.747-.63.288-.296.44-.702.44-1.22 0-.51-.186-.924-.5-1.195-.34-.308-.873-.478-1.602-.478-.594 0-1.06.05-1.417.11v5.65zm.738-5.113c.127-.036.373-.062.696-.062.814 0 1.348.365 1.348 1.12 0 .788-.543 1.22-1.433 1.22-.246 0-.45-.016-.61-.06v-2.22zM9.92 118.742h.736v-2.188c0-.13.017-.246.034-.348.102-.56.475-.96 1-.96.103 0 .18.01.255.026v-.705c-.067-.016-.127-.023-.212-.023-.5 0-.95.346-1.136.898h-.034l-.025-.807h-.653c.025.383.034.797.034 1.28v2.827zM14.324 114.545c-1.136 0-2.035.805-2.035 2.178 0 1.3.855 2.113 1.966 2.113.993 0 2.044-.662 2.044-2.182 0-1.254-.797-2.11-1.976-2.11zm-.017.56c.882 0 1.23.88 1.23 1.577 0 .924-.534 1.594-1.247 1.594-.73 0-1.246-.678-1.246-1.578 0-.78.38-1.594 1.263-1.594zM20.125 114.637l-.034.62h-.016c-.178-.34-.568-.712-1.28-.712-.942 0-1.85.787-1.85 2.178 0 1.137.73 2.002 1.748 2.002.636 0 1.077-.305 1.306-.686h.017v.456c0 1.033-.56 1.434-1.323 1.434-.51 0-.933-.154-1.205-.322l-.186.568c.332.22.874.338 1.366.338.517 0 1.094-.12 1.493-.492.397-.355.584-.932.584-1.873v-2.384c0-.5.017-.832.034-1.13h-.653zm-.12 2.36c0 .126-.016.27-.058.395-.16.475-.577.764-1.035.764-.806 0-1.213-.67-1.213-1.475 0-.95.508-1.552 1.22-1.552.543 0 .908.355 1.044.79.034.1.042.212.042.34v.738zM21.982 118.742h.738v-2.188c0-.13.017-.246.034-.348.1-.56.475-.96 1-.96.102 0 .18.01.255.026v-.705c-.07-.016-.128-.023-.213-.023-.5 0-.95.346-1.137.898h-.033l-.026-.807h-.652c.026.383.034.797.034 1.28v2.827zM27.706 118.742c-.05-.28-.068-.63-.068-.984v-1.535c0-.822-.305-1.678-1.56-1.678-.517 0-1.01.143-1.348.363l.17.492c.288-.186.686-.305 1.068-.305.84 0 .933.61.933.95v.085c-1.585-.01-2.467.533-2.467 1.525 0 .594.424 1.18 1.255 1.18.585 0 1.026-.29 1.255-.61h.026l.058.517h.678zm-.788-1.383c0 .075-.017.16-.043.237-.118.346-.458.686-.992.686-.382 0-.704-.23-.704-.713 0-.797.924-.94 1.738-.924v.713zM28.843 118.742h.73v-2.477c0-.127.016-.254.058-.365.12-.373.46-.746.926-.746.568 0 .856.475.856 1.127v2.462h.73v-2.535c0-.137.025-.27.06-.373.126-.365.457-.68.88-.68.603 0 .89.475.89 1.264v2.324h.73v-2.418c0-1.424-.805-1.78-1.348-1.78-.39 0-.66.103-.907.288-.17.127-.33.305-.458.533h-.018c-.178-.482-.602-.82-1.162-.82-.678 0-1.06.363-1.29.754h-.024l-.034-.663h-.653c.024.34.033.688.033 1.11v2.995zM38.527 118.742v-3.537h.993v-.568h-.993v-.22c0-.628.162-1.188.798-1.188.212 0 .364.042.474.093l.1-.576c-.143-.06-.372-.12-.635-.12-.348 0-.72.11-1 .384-.348.33-.475.856-.475 1.433v.195h-.577v.568h.577v3.537h.737zM41.822 114.545c-1.136 0-2.035.805-2.035 2.178 0 1.3.856 2.113 1.967 2.113.992 0 2.044-.662 2.044-2.182 0-1.254-.797-2.11-1.976-2.11zm-.017.56c.882 0 1.23.88 1.23 1.577 0 .924-.535 1.594-1.247 1.594-.73 0-1.247-.678-1.247-1.578 0-.78.383-1.594 1.265-1.594zM44.74 118.742h.737v-2.188c0-.13.017-.246.034-.348.103-.56.476-.96 1.002-.96.1 0 .178.01.254.026v-.705c-.068-.016-.127-.023-.212-.023-.5 0-.95.346-1.136.898h-.034l-.026-.807h-.653c.026.383.034.797.034 1.28v2.827zM49.336 118.742h.738v-2.477h.695c.67.025.974.322 1.144 1.11.16.714.288 1.204.38 1.366h.765c-.12-.22-.256-.77-.442-1.567-.136-.594-.4-1.002-.84-1.154v-.026c.602-.203 1.077-.703 1.077-1.46 0-.44-.16-.83-.45-1.085-.356-.32-.864-.468-1.653-.468-.51 0-1.043.043-1.416.12v5.64zm.738-5.123c.118-.034.373-.067.73-.067.78.008 1.313.33 1.313 1.068 0 .653-.5 1.087-1.29 1.087h-.753v-2.088zM57.172 116.824c.008-.074.025-.193.025-.348 0-.754-.356-1.932-1.696-1.932-1.195 0-1.924.975-1.924 2.213s.755 2.068 2.018 2.068c.653 0 1.103-.135 1.366-.254l-.128-.532c-.28.117-.602.21-1.136.21-.746 0-1.39-.415-1.408-1.425h2.884zm-2.875-.533c.06-.517.39-1.212 1.145-1.212.84 0 1.043.738 1.034 1.213h-2.18zM57.833 118.547c.288.17.704.28 1.153.28.976 0 1.535-.51 1.535-1.23 0-.61-.363-.967-1.076-1.238-.534-.206-.78-.358-.78-.696 0-.307.246-.56.687-.56.383 0 .68.134.84.237l.187-.542c-.23-.137-.593-.254-1.01-.254-.88 0-1.415.54-1.415 1.203 0 .492.348.898 1.085 1.162.552.202.764.397.764.755 0 .338-.254.61-.797.61-.373 0-.763-.153-.983-.298l-.187.57zM64.914 114.637h-.746v2.52c0 .135-.025.27-.068.38-.135.33-.483.68-.984.68-.678 0-.915-.526-.915-1.306v-2.272h-.746v2.4c0 1.44.772 1.8 1.417 1.8.73 0 1.162-.435 1.357-.765h.017l.043.67h.66c-.024-.322-.033-.695-.033-1.12v-2.986zM66.152 118.742h.747v-6.02h-.748v6.02M68.323 113.652v.984h-.636v.568h.636v2.238c0 .484.077.85.29 1.07.177.203.457.312.804.312.29 0 .518-.043.662-.102l-.035-.56c-.093.024-.237.052-.433.052-.415 0-.56-.29-.56-.797v-2.215h1.07v-.568h-1.07v-1.178l-.73.196zM70.673 118.547c.288.17.703.28 1.153.28.975 0 1.535-.51 1.535-1.23 0-.61-.364-.967-1.076-1.238-.534-.206-.78-.358-.78-.696 0-.307.246-.56.687-.56.382 0 .68.134.84.237l.187-.542c-.23-.137-.594-.254-1.01-.254-.88 0-1.416.54-1.416 1.203 0 .492.35.898 1.087 1.162.55.202.763.397.763.755 0 .338-.254.61-.797.61-.373 0-.763-.153-.984-.298l-.187.57z"/>

<path class="legend-element sub-text" fill="#8C9AA7" d="M103.974.19h1.654v5.98h3.063v1.526h-4.716V.19M109.667.19h5.1V1.72h-3.447v1.4h3.255v1.525h-3.255V6.17h3.636v1.526h-5.29V.19M123.076 7.166c-.487.255-.996.438-1.526.552-.53.113-1.07.17-1.622.17-.587 0-1.127-.093-1.622-.276-.495-.184-.922-.447-1.283-.79-.36-.343-.64-.758-.842-1.246-.2-.487-.3-1.032-.3-1.632 0-.6.1-1.145.3-1.633.202-.486.483-.902.843-1.244.36-.343.788-.606 1.283-.79C118.8.092 119.34 0 119.928 0c.6 0 1.154.073 1.66.218.504.145.948.394 1.33.747l-1.167 1.272c-.225-.233-.48-.41-.762-.53-.283-.12-.636-.18-1.06-.18-.353 0-.673.06-.96.18-.286.12-.53.288-.736.504-.205.216-.362.472-.472.77-.11.296-.164.617-.164.964 0 .353.055.676.164.97.11.293.267.547.472.763.205.215.45.383.737.503.285.12.605.18.958.18.36 0 .67-.04.933-.12.262-.083.47-.166.626-.25V4.77h-1.346V3.245h2.936v3.922zM124.698.19h5.1V1.72h-3.446v1.4h3.254v1.525h-3.254V6.17h3.636v1.526h-5.29V.19M131.42.19h2.246l3.19 5.217h.022V.19h1.654v7.506h-2.163l-3.276-5.342h-.02v5.342h-1.655V.19M140.165.19h2.48c.6 0 1.17.068 1.712.203.54.134 1.012.35 1.415.65.402.302.723.692.96 1.173.235.48.354 1.063.354 1.75 0 .607-.115 1.142-.345 1.605-.23.464-.538.853-.926 1.167-.39.314-.838.553-1.348.716-.508.162-1.042.243-1.6.243h-2.703V.19h.002zm1.653 5.98h.858c.38 0 .737-.04 1.065-.117.33-.077.614-.206.855-.387.24-.18.43-.417.567-.71.137-.293.206-.652.206-1.076 0-.367-.07-.688-.206-.96-.138-.27-.324-.496-.557-.672-.233-.177-.508-.31-.82-.398-.316-.088-.647-.132-.993-.132h-.975V6.17z"/>

<path class="legend-element harline" fill="none" stroke="#939598" stroke-width=".06" d="M268.99 18.562H0"/>
</svg>