<svg xmlns="http://www.w3.org/2000/svg" width="268.99" height="144.82" viewBox="0 0 268.99 144.824" class="legend"><path class="legend-element triangle" fill="none" stroke="#FFF" stroke-width=".24" d="M124.7 58.84l-33.36 57.78h66.7L124.7 58.84z"/><path class="legend-element type-sub" fill="#5DABBC" d="M124.85 72.2c7.44 0 13.47-5.94 13.47-13.27 0-7.33-6.03-13.28-13.47-13.28s-13.47 5.95-13.47 13.28c0 7.33 6.03 13.27 13.47 13.27"/><path class="legend-element type-ta" fill="#F0C161" d="M158.2 129.28c7.45 0 13.48-5.95 13.48-13.28s-6.03-13.27-13.47-13.27-13.46 5.94-13.46 13.27 6.03 13.28 13.47 13.28"/><path class="legend-element type-p_for_r" fill="#ED657D" d="M91.84 129.28c7.44 0 13.47-5.95 13.47-13.28s-6.02-13.27-13.46-13.27-13.47 5.94-13.47 13.27 6.03 13.28 13.47 13.28"/><path class="legend-element type-p_for_r type-sub" fill="#8C63AA" d="M108.82 96.67c5.06 0 9.17-4.04 9.17-9.03s-4.12-9.03-9.18-9.03-9.16 4.06-9.16 9.04 4.1 9.03 9.16 9.03"/><path class="legend-element type-ta type-sub" fill="#64C088" d="M141.2 96.67c5.07 0 9.18-4.04 9.18-9.03s-4.1-9.03-9.17-9.03c-5.05 0-9.15 4.06-9.15 9.04s4.1 9.03 9.16 9.03"/><path class="legend-element type-p_for_r type-ta" fill="#F4A11E" d="M124.85 125.04c5.06 0 9.17-4.05 9.17-9.04s-4.1-9.03-9.17-9.03c-5.06 0-9.16 4.05-9.16 9.04s4.1 9.04 9.15 9.04"/><path class="legend-element sub-text" fill="#8C9AA7" d="M159.7 86.25c-.1-.12-.23-.2-.37-.27-.14-.06-.3-.1-.5-.1s-.35.04-.5.1-.3.18-.43.3c-.1.14-.2.3-.27.47-.06.18-.1.38-.1.58 0 .22.04.4.1.58s.16.34.27.47c.12.13.25.23.4.3.16.08.33.1.5.1.2 0 .4-.03.55-.12.15-.08.28-.2.4-.35l.8.62c-.18.27-.42.46-.7.6-.3.12-.6.18-.92.18-.35 0-.67-.06-.97-.17s-.55-.26-.77-.47c-.23-.2-.4-.46-.52-.75-.12-.28-.18-.6-.18-.97s.06-.68.18-.98c.12-.3.3-.54.5-.74.23-.2.48-.36.78-.47.3-.1.62-.16.97-.16.13 0 .26 0 .4.03.14.02.27.06.4.1.14.06.27.13.4.22.12.08.23.2.33.3l-.77.63zm1.16 1.08c0-.36.06-.68.18-.98.12-.3.3-.54.5-.74.22-.2.48-.36.77-.47.3-.1.64-.16 1-.16s.66.05.96.16c.3.1.56.27.77.48s.4.46.5.76c.13.3.2.62.2.98s-.07.68-.2.98c-.1.3-.28.54-.5.74-.2.2-.47.37-.77.48-.3.1-.62.16-.97.16s-.7-.06-.98-.17-.56-.26-.77-.47c-.22-.2-.4-.46-.5-.75-.13-.28-.2-.6-.2-.97zm1.03 0c0 .22.02.4.1.6.05.16.15.32.27.45s.27.22.44.3c.18.07.38.1.6.1s.4-.03.56-.1.32-.18.44-.3.22-.3.3-.46c.05-.18.1-.37.1-.6 0-.2-.05-.4-.1-.56-.08-.18-.17-.34-.3-.46s-.27-.23-.44-.3-.36-.1-.57-.1-.42.02-.6.1c-.16.06-.3.17-.43.3s-.22.28-.28.46c-.08.17-.1.37-.1.57zm4.5-2.25h1.5l1.03 2.94L170 85.1h1.5v4.5h-1v-3.47l-1.2 3.46h-.75l-1.13-3.47h-.02v3.46h-1v-4.5m6.02-.02h1.68c.2 0 .4.02.58.04.2.03.38.1.53.17.15.07.28.2.38.34.1.14.14.34.14.6 0 .24-.07.45-.2.62-.15.17-.34.3-.57.36.14.03.28.07.4.14.12.06.23.14.3.23s.17.2.2.33c.06.12.08.26.08.4 0 .24-.05.44-.15.6-.1.16-.23.28-.4.38-.16.1-.34.18-.54.22-.2.04-.4.07-.6.07h-1.84v-4.52zm1 1.8h.7c.08 0 .16 0 .23-.02s.14-.05.2-.1c.06-.02.1-.07.15-.14.03-.06.05-.14.05-.23 0-.1-.02-.18-.06-.24-.04-.06-.1-.1-.15-.14-.07-.04-.14-.06-.22-.08l-.24-.02h-.67v.96zm0 1.87h.88c.07 0 .15 0 .23-.03.1 0 .16-.05.22-.1.07-.03.12-.1.16-.15.04-.07.06-.15.06-.25s-.03-.2-.08-.26c-.06-.07-.12-.1-.2-.15-.08-.02-.17-.05-.26-.06l-.26-.02h-.75v1.03zm3.1-3.67h1v4.5h-1v-4.5m1.9 0h1.35l1.9 3.13h.03V85.1h1v4.5h-1.3l-1.98-3.2v3.2h-1v-4.5m5.22 0h3.06V86h-2.07v.84h1.97v.9h-1.96v.93h2.2v.92h-3.18v-4.52m3.97 0h1.48c.36 0 .7.04 1.03.12.33.08.6.2.86.4.24.18.43.4.57.7.14.3.2.64.2 1.05 0 .36-.06.68-.2.96-.13.3-.32.52-.55.7-.23.2-.5.34-.8.44-.3.1-.63.15-.97.15h-1.6v-4.5zm.98 3.6h.52c.23 0 .44-.03.64-.08s.37-.12.5-.23c.15-.1.27-.25.35-.43s.1-.4.1-.64c0-.22-.03-.4-.1-.58s-.2-.3-.34-.4c-.14-.1-.3-.2-.5-.24-.2-.05-.38-.08-.6-.08h-.58v2.67zm7.95-2.5c-.08-.1-.2-.17-.33-.22s-.27-.08-.4-.08c-.06 0-.14 0-.22.03-.07.03-.14.05-.2.1-.08.02-.14.07-.18.13-.04.06-.06.13-.06.22 0 .13.05.24.15.3.1.08.22.14.37.2l.5.15c.18.05.35.12.5.2.16.1.3.23.4.4.1.15.14.35.14.62 0 .25-.04.47-.13.65-.1.2-.22.34-.38.47s-.35.2-.56.27c-.2.07-.43.1-.66.1-.3 0-.57-.04-.82-.13-.25-.1-.48-.24-.7-.44l.7-.77c.1.13.24.24.4.3.15.1.3.12.47.12.08 0 .16 0 .25-.02s.15-.05.22-.1c.07-.03.12-.08.16-.14.04-.06.06-.13.06-.2 0-.14-.05-.25-.15-.33-.1-.1-.24-.15-.4-.2-.15-.06-.32-.12-.5-.17-.2-.06-.36-.13-.5-.23-.17-.1-.3-.2-.4-.37-.1-.15-.16-.35-.16-.6 0-.24.06-.45.15-.64.1-.2.23-.34.38-.46.16-.13.35-.22.55-.28.2-.06.43-.1.65-.1.25 0 .5.04.74.12.23.07.45.2.64.36l-.67.74zm1.46-1.1h3.05V86h-2.07v.84h1.96v.9h-1.96v.93h2.18v.92H198v-4.52m3.96 0h1.74c.23 0 .45.02.65.07.2.04.4.12.54.22.15.1.27.24.36.42.1.17.14.4.14.65 0 .32-.08.6-.25.8s-.4.37-.72.43l1.14 1.9h-1.2l-.93-1.8h-.5v1.8h-.98v-4.5zm1 1.86H203.82c.1 0 .18-.03.26-.06.07-.03.14-.08.2-.15s.07-.16.07-.3c0-.1-.03-.2-.07-.26-.05-.07-.1-.12-.18-.16-.07-.02-.16-.05-.25-.06l-.27-.02h-.65v1.02zm2.67-1.86h1.14l1.1 2.95h.02l1.12-2.95h1.07l-1.87 4.5h-.8l-1.8-4.5m4.9 0h1v4.5h-1v-4.5m4.85 1.17c-.1-.12-.2-.2-.36-.27-.14-.06-.3-.1-.5-.1-.18 0-.35.04-.5.1-.17.08-.3.18-.42.3-.12.14-.2.3-.27.47-.07.18-.1.38-.1.58 0 .22.03.4.1.58s.15.34.27.47.25.23.4.3c.16.08.32.1.5.1.2 0 .38-.03.54-.12.16-.08.3-.2.4-.35l.82.62c-.2.27-.44.46-.73.6-.3.12-.6.18-.9.18-.35 0-.68-.06-.98-.17s-.55-.26-.77-.47c-.2-.2-.38-.46-.5-.75-.12-.28-.18-.6-.18-.97s.06-.68.18-.98c.12-.3.3-.54.5-.74.22-.2.48-.36.77-.47.3-.1.63-.16.98-.16.12 0 .26 0 .4.03.13.02.27.06.4.1.13.06.26.13.4.22.1.08.22.2.32.3l-.77.63zm1.46-1.17h3.06V86h-2.07v.84h1.95v.9h-1.95v.93H220v.92h-3.17v-4.52m6.2 1.1c-.08-.1-.2-.17-.33-.22-.13-.05-.27-.08-.4-.08-.06 0-.13 0-.2.03-.1.03-.16.05-.23.1-.07.02-.12.07-.16.13-.03.06-.06.13-.06.22 0 .13.05.24.16.3.1.08.23.14.38.2l.5.15c.18.05.35.12.5.2.15.1.28.23.38.4.1.15.16.35.16.62 0 .25-.05.47-.14.65-.1.2-.22.34-.38.47s-.34.2-.55.27c-.2.07-.44.1-.67.1-.3 0-.56-.04-.8-.13-.26-.1-.5-.24-.7-.44l.7-.77c.1.13.22.24.38.3s.3.12.48.12c.08 0 .16 0 .24-.02.08-.02.16-.05.22-.1.07-.03.12-.08.16-.14.04-.06.06-.13.06-.2 0-.14-.05-.25-.15-.33-.1-.1-.24-.15-.4-.2-.15-.06-.32-.12-.5-.17s-.35-.13-.5-.23-.3-.2-.4-.37c-.1-.15-.16-.35-.16-.6 0-.24.06-.45.15-.64.1-.2.23-.34.4-.46.15-.13.33-.22.54-.28.2-.06.4-.1.63-.1.25 0 .5.04.74.12s.45.2.64.36l-.67.74zm-193.75.07c-.1-.12-.22-.2-.36-.27-.15-.06-.3-.1-.5-.1-.18 0-.36.04-.52.1-.16.08-.3.18-.4.3-.12.14-.22.3-.28.47-.07.18-.1.38-.1.58 0 .22.03.4.1.58.06.2.15.34.27.47.1.13.24.23.4.3.15.08.3.1.5.1s.38-.03.53-.12c.16-.08.3-.2.4-.35l.82.62c-.2.27-.43.46-.73.6s-.6.18-.9.18c-.35 0-.68-.06-.97-.17-.3-.1-.56-.26-.77-.47-.22-.2-.4-.46-.5-.75-.13-.28-.2-.6-.2-.97s.07-.68.2-.98c.1-.3.28-.54.5-.74.2-.2.47-.36.77-.47.3-.1.62-.16.97-.16.13 0 .26 0 .4.03.14.02.27.06.4.1.14.06.27.13.4.22.1.08.22.2.32.3l-.76.63zm1.16 1.08c0-.36.06-.68.18-.98.13-.3.3-.54.5-.74.23-.2.5-.36.78-.47.3-.1.62-.16.98-.16s.67.05.97.16c.3.1.55.27.77.48.2.2.38.46.5.76s.18.62.18.98-.06.68-.18.98c-.12.3-.3.54-.5.74-.22.2-.47.37-.77.48s-.62.16-.98.16-.67-.06-.97-.17c-.3-.1-.55-.26-.77-.47-.2-.2-.38-.46-.5-.75-.12-.28-.18-.6-.18-.97zm1.03 0c0 .22.04.4.1.6s.17.32.3.45.26.22.43.3c.17.07.36.1.57.1s.4-.03.58-.1c.17-.08.32-.18.44-.3s.2-.3.27-.46c.07-.18.1-.37.1-.6 0-.2-.03-.4-.1-.56-.06-.18-.16-.34-.28-.46s-.28-.23-.45-.3c-.17-.08-.36-.1-.58-.1s-.4.02-.57.1c-.17.06-.32.17-.44.3s-.22.28-.3.46c-.05.17-.1.37-.1.57zm4.5-2.25h1.5l1.05 2.94 1.05-2.93h1.5v4.5h-1v-3.47l-1.2 3.46h-.75l-1.14-3.47v3.46h-1v-4.5m6-.02h1.68c.2 0 .4.02.6.04.2.03.36.1.52.17.16.07.28.2.38.34.1.14.15.34.15.6 0 .24-.06.45-.2.62-.15.17-.33.3-.57.36.15.03.3.07.4.14.13.06.23.14.32.23s.15.2.2.33.07.26.07.4c0 .24-.05.44-.16.6-.1.16-.23.28-.4.38s-.33.18-.53.22c-.2.04-.4.07-.6.07h-1.85v-4.52zm1 1.8h.7c.1 0 .16 0 .24-.02.07-.02.14-.05.2-.1.06-.02.1-.07.14-.14.04-.06.06-.14.06-.23 0-.1-.02-.18-.06-.24-.04-.06-.1-.1-.16-.14-.06-.04-.14-.06-.22-.08l-.23-.02h-.68v.96zm0 1.87h.88c.08 0 .16 0 .24-.03.08 0 .15-.05.2-.1.07-.03.13-.1.17-.15.04-.07.06-.15.06-.25s-.03-.2-.08-.26c-.06-.07-.12-.1-.2-.15-.08-.02-.17-.05-.26-.06l-.27-.02h-.75v1.03zm3.1-3.67h1v4.5h-1v-4.5m1.9 0h1.36l1.9 3.13h.02V85.1h1v4.5h-1.3L49 86.4h-.02v3.2h-1v-4.5m5.23 0h3.07V86H54.2v.84h1.95v.9H54.2v.93h2.18v.92H53.2v-4.52m3.98 0h1.5c.35 0 .7.04 1 .12.34.08.62.2.86.4.24.18.44.4.58.7.14.3.2.64.2 1.05 0 .36-.06.68-.2.96-.13.3-.32.52-.55.7-.23.2-.5.34-.8.44-.3.1-.64.15-.97.15h-1.62v-4.5zm1 3.6h.5c.23 0 .45-.03.64-.08.2-.05.37-.12.5-.23.16-.1.27-.25.36-.43.08-.17.12-.4.12-.64 0-.22-.04-.4-.12-.58-.1-.16-.2-.3-.34-.4-.14-.1-.3-.2-.5-.24-.18-.05-.38-.08-.58-.08h-.6v2.67zm7.93-2.5c-.07-.1-.18-.17-.3-.22-.15-.05-.28-.08-.4-.08-.08 0-.15 0-.23.03-.07.03-.15.05-.2.1-.08.02-.14.07-.18.13-.05.06-.07.13-.07.22 0 .13.05.24.15.3.1.08.23.14.4.2l.5.15c.16.05.33.12.48.2.16.1.3.23.4.4.1.15.14.35.14.62 0 .25-.04.47-.14.65-.1.2-.22.34-.38.47-.16.12-.34.2-.55.27-.2.07-.43.1-.66.1-.3 0-.57-.04-.82-.13-.25-.1-.48-.24-.7-.44l.7-.77c.1.13.24.24.4.3.15.1.3.12.47.12.08 0 .17 0 .25-.02.08-.02.16-.05.22-.1.06-.03.1-.08.15-.14.04-.06.06-.13.06-.2 0-.14-.04-.25-.15-.33s-.23-.15-.4-.2c-.14-.06-.3-.12-.5-.17-.18-.06-.35-.13-.5-.23-.16-.1-.3-.2-.4-.37s-.15-.35-.15-.6c0-.24.05-.45.14-.64.1-.2.22-.34.38-.46s.35-.22.55-.28c.2-.06.43-.1.65-.1.25 0 .5.04.73.12s.46.2.65.36l-.68.74zm1.48-1.1h3.06V86h-2.07v.84h1.95v.9h-1.95v.93h2.18v.92h-3.17v-4.52m3.97 0h1.74c.22 0 .44.02.64.07.2.04.4.12.54.22.16.1.28.24.37.42.1.17.14.4.14.65 0 .32-.1.6-.26.8-.17.23-.4.37-.73.43l1.16 1.9h-1.2l-.93-1.8h-.5v1.8h-.98v-4.5zm1 1.86H73.4c.1 0 .18-.03.26-.06.08-.03.14-.08.2-.15.05-.07.08-.16.08-.3 0-.1-.03-.2-.07-.26-.06-.07-.12-.12-.2-.16-.06-.02-.15-.05-.24-.06l-.27-.02h-.66v1.02zm2.67-1.86h1.13l1.12 2.95 1.14-2.95h1.07l-1.85 4.5h-.8l-1.8-4.5m4.9 0h1v4.5h-1v-4.5m4.85 1.17c-.1-.12-.22-.2-.36-.27-.13-.06-.3-.1-.48-.1s-.36.04-.52.1-.3.18-.4.3c-.13.14-.22.3-.3.47-.05.18-.1.38-.1.58.02.22.05.4.12.58.06.2.15.34.26.47.12.13.25.23.4.3.16.08.33.1.5.1.2 0 .4-.03.55-.12.15-.08.28-.2.4-.35l.8.62c-.18.27-.42.46-.7.6-.3.12-.6.18-.92.18-.34 0-.66-.06-.96-.17s-.55-.26-.77-.47c-.22-.2-.38-.46-.5-.75-.12-.28-.18-.6-.18-.97s.04-.68.16-.98c.13-.3.3-.54.5-.74.23-.2.48-.36.78-.47.3-.1.62-.16.97-.16.14 0 .27 0 .4.03.15.02.28.06.42.1.13.06.26.13.38.22.13.08.24.2.33.3l-.76.63zm1.45-1.17h3.06V86H87.4v.84h1.97v.9H87.4v.93h2.2v.92H86.4v-4.52m6.2 1.1c-.08-.1-.2-.17-.33-.22-.15-.05-.28-.08-.4-.08-.07 0-.15 0-.22.03-.08.03-.15.05-.22.1-.07.02-.12.07-.17.13-.05.06-.07.13-.07.22 0 .13.05.24.16.3.08.08.2.14.37.2l.5.15c.18.05.34.12.5.2.15.1.28.23.38.4.1.15.16.35.16.62 0 .25-.04.47-.13.65-.1.2-.22.34-.38.47s-.36.2-.57.27c-.2.07-.43.1-.66.1-.3 0-.56-.04-.8-.13-.26-.1-.5-.24-.7-.44l.7-.77c.1.13.22.24.38.3.15.1.3.12.48.12.08 0 .16 0 .24-.02s.16-.05.22-.1c.06-.03.1-.08.15-.14.04-.06.06-.13.06-.2 0-.14-.04-.25-.14-.33s-.24-.15-.4-.2c-.15-.06-.32-.12-.5-.17-.18-.06-.35-.13-.5-.23-.17-.1-.3-.2-.4-.37s-.16-.35-.16-.6c0-.24.05-.45.15-.64.1-.2.22-.34.38-.46s.34-.22.55-.28c.2-.06.42-.1.64-.1.25 0 .5.04.74.12.24.07.45.2.64.36l-.68.74zm1.95 55.2c-.1-.12-.22-.2-.36-.27-.13-.06-.3-.1-.48-.1-.2 0-.36.04-.52.12-.16.07-.3.17-.4.3s-.22.28-.3.46c-.05.18-.1.37-.1.58 0 .2.05.4.1.58.08.18.17.33.28.46.12.13.25.23.4.3.16.07.33.1.5.1.2 0 .4-.03.55-.12.15-.08.28-.2.38-.35l.84.6c-.2.28-.43.48-.72.6-.3.13-.6.2-.9.2-.36 0-.68-.06-.98-.17-.3-.1-.55-.27-.77-.47-.22-.22-.38-.47-.5-.76-.12-.3-.18-.62-.18-.98s.05-.7.17-.98c.12-.3.3-.54.5-.75.22-.2.47-.36.77-.47.3-.1.62-.17.97-.17.14 0 .27 0 .4.03.15.02.3.06.42.1l.38.2c.13.1.24.2.33.32l-.76.63zm1.17 1.08c0-.36.06-.7.18-.98.12-.3.3-.54.5-.75.22-.2.48-.36.78-.47.3-.1.62-.17.97-.17s.68.05.97.16c.3.1.56.27.77.47s.4.46.52.75c.12.3.18.62.18.98s-.06.68-.18.98c-.12.3-.3.54-.5.74-.22.2-.48.37-.78.48s-.62.16-.97.16-.68-.05-.97-.16c-.3-.1-.56-.27-.77-.48-.22-.2-.4-.45-.5-.74-.13-.3-.2-.62-.2-.98zm1.03 0c0 .2.03.4.1.58.06.18.16.33.28.46.12.13.27.23.44.3.17.07.36.1.57.1s.4-.03.58-.1c.17-.07.32-.17.44-.3s.2-.28.27-.46c.07-.17.1-.37.1-.58 0-.2-.03-.4-.1-.58-.06-.18-.16-.33-.28-.46s-.28-.23-.45-.3c-.18-.07-.37-.1-.58-.1s-.4.03-.58.1c-.18.07-.33.17-.45.3-.12.13-.2.28-.28.46-.07.18-.1.37-.1.58zm4.5-2.25h1.5l1.04 2.95h.02l1.05-2.94h1.5v4.5h-1v-3.44l-1.2 3.45h-.75l-1.14-3.44h-.02v3.45h-1v-4.5m6.02 0h1.68c.2 0 .4.02.6.05.18.03.36.08.52.16.15.1.28.2.38.36.1.15.14.35.14.6s-.07.46-.2.62c-.15.17-.34.3-.57.37.15.03.28.07.4.13s.23.14.32.24.15.2.2.33c.04.13.07.27.07.4 0 .25-.05.45-.16.6-.1.16-.23.3-.4.4-.15.1-.33.16-.53.2-.2.04-.4.06-.6.06h-1.85v-4.5zm1 1.8h.7c.1 0 .16 0 .24-.02.07 0 .14-.04.2-.08s.1-.1.14-.15c.03-.06.05-.14.05-.23 0-.1 0-.17-.05-.23-.04-.07-.1-.12-.15-.16l-.22-.07-.24-.02h-.67v.96zm0 1.87h.88c.08 0 .15 0 .23-.02.07-.02.14-.05.2-.1.07-.03.12-.1.16-.16.04-.07.06-.16.06-.25 0-.1-.02-.2-.08-.26-.05-.08-.12-.13-.2-.16-.08-.04-.16-.06-.26-.07l-.26-.02h-.75v1.02zm3.1-3.66h1v4.5h-1v-4.5m1.9 0h1.35l1.9 3.14h.03v-3.13h1v4.5h-1.3l-1.97-3.2h-.03v3.2h-1v-4.5m5.23 0h3.06v.93h-2.06v.83h1.95v.92h-1.95v.9h2.18v.93h-3.18v-4.5m3.97 0h1.5c.35 0 .7.05 1.02.13.3.08.6.2.84.4.24.17.43.4.57.7.16.28.23.63.23 1.04 0 .37-.07.7-.2.97-.15.27-.33.5-.57.7-.23.18-.5.33-.8.43s-.63.14-.97.14h-1.63v-4.5zm1 3.6h.5c.24 0 .45-.03.65-.07.2-.05.37-.13.5-.24.16-.1.27-.26.35-.43.08-.18.13-.4.13-.65 0-.22-.05-.4-.13-.57-.08-.17-.2-.3-.33-.4-.14-.1-.3-.2-.5-.25s-.38-.07-.6-.07h-.57v2.67zm7.94-2.5c-.07-.1-.18-.17-.32-.22-.14-.05-.27-.07-.4-.07l-.2.03c-.1.02-.16.05-.23.08-.07.05-.12.1-.16.16-.06.06-.08.13-.08.2 0 .15.05.25.15.33.1.06.23.12.4.17l.5.15c.17.05.33.13.5.22.14.1.27.22.37.38.1.15.16.36.16.63 0 .25-.05.46-.14.65-.1.2-.22.34-.38.46s-.35.22-.56.28c-.2.06-.43.1-.66.1-.3 0-.56-.06-.8-.15-.26-.1-.5-.24-.7-.44l.7-.78c.1.14.22.25.38.32.15.07.3.1.48.1.08 0 .16 0 .24-.02s.16-.04.22-.08c.07-.04.12-.1.16-.15.04-.06.06-.13.06-.2 0-.15-.05-.25-.15-.33s-.24-.15-.4-.2l-.5-.17c-.18-.05-.35-.13-.5-.22s-.3-.22-.4-.37-.16-.35-.16-.6c0-.24.04-.46.14-.64s.22-.33.38-.46.34-.2.55-.27c.2-.07.42-.1.64-.1.26 0 .5.03.75.1.24.07.45.2.64.36l-.7.75zm1.47-1.1h3.06v.93h-2.07v.83h1.96v.92h-1.96v.9h2.2v.93h-3.2v-4.5m3.98 0h1.74c.23 0 .45.03.66.08.2.04.38.1.54.22.15.1.27.24.37.42.1.17.13.4.13.65 0 .32-.08.6-.25.82-.16.2-.4.35-.72.4l1.15 1.9h-1.2l-.93-1.8h-.5v1.8h-.98v-4.5zm1 1.87h.86c.1-.02.2-.03.27-.06.08-.03.15-.08.2-.14.06-.07.08-.17.08-.3 0-.1-.02-.2-.07-.26-.04-.07-.1-.12-.18-.16-.07-.03-.15-.06-.24-.07l-.28-.02h-.65v1.02zm2.68-1.86h1.13l1.1 2.96h.02l1.14-2.95h1.07l-1.86 4.5h-.78l-1.8-4.5m4.9 0h1v4.5h-1v-4.5m4.85 1.18c-.1-.12-.22-.2-.36-.27-.13-.06-.3-.1-.48-.1-.2 0-.36.04-.52.12-.16.07-.3.17-.42.3-.1.13-.2.28-.27.46-.05.18-.1.37-.1.58 0 .2.05.4.1.58.08.18.17.33.28.46s.25.23.4.3c.16.07.33.1.5.1.2 0 .4-.03.55-.12.15-.08.28-.2.4-.35l.8.6c-.18.28-.42.48-.7.6-.3.13-.6.2-.92.2-.34 0-.66-.06-.96-.17-.3-.1-.56-.27-.77-.47-.22-.22-.4-.47-.5-.76-.13-.3-.2-.62-.2-.98s.07-.7.2-.98c.1-.3.28-.54.5-.75.2-.2.47-.36.77-.47.3-.1.62-.17.97-.17.14 0 .27 0 .4.03s.28.06.4.1.28.13.4.2c.12.1.23.2.33.32l-.76.63zm1.45-1.17h3.06v.93h-2.07v.83h1.96v.92h-1.95v.9h2.2v.93h-3.18v-4.5m6.2 1.1c-.1-.1-.2-.17-.33-.22s-.28-.07-.4-.07c-.08 0-.15.02-.23.03l-.22.08c-.06.05-.12.1-.16.16-.05.06-.07.13-.07.2 0 .15.05.25.15.33.1.06.23.12.38.17l.5.15c.18.05.35.13.5.22.16.1.28.22.4.38.1.15.14.36.14.63 0 .25-.05.46-.14.65-.1.2-.22.34-.38.46s-.34.22-.55.28c-.2.06-.44.1-.67.1-.3 0-.56-.06-.8-.15-.26-.1-.5-.24-.7-.44l.7-.78c.1.14.22.25.38.32s.3.1.48.1c.08 0 .16 0 .24-.02.1-.02.16-.04.23-.08l.15-.15c.04-.06.06-.13.06-.2 0-.15-.05-.25-.15-.33-.1-.08-.23-.15-.4-.2l-.5-.17s-.35-.13-.5-.22-.3-.22-.4-.37c-.1-.15-.16-.35-.16-.6 0-.24.04-.46.14-.64s.22-.33.38-.46c.16-.12.34-.2.55-.27.2-.07.42-.1.64-.1.27 0 .5.03.75.1s.45.2.64.36l-.7.75z"/><path class="legend-element main-text" fill="#4D384B" d="M95.38 37.36c.3.2.9.37 1.46.37 1.35 0 2-.77 2-1.65 0-.84-.5-1.3-1.45-1.68-.8-.3-1.15-.57-1.15-1.1 0-.4.3-.87 1.08-.87.52 0 .9.17 1.1.28l.2-.6c-.27-.14-.7-.28-1.28-.28-1.1 0-1.85.67-1.85 1.56 0 .8.58 1.3 1.5 1.62.8.3 1.1.6 1.1 1.14 0 .58-.45.98-1.2.98-.52 0-1-.17-1.33-.38l-.2.62zm7.9-3.83h-.75v2.52c0 .14-.03.28-.07.4-.13.32-.48.67-.98.67-.68 0-.92-.53-.92-1.3v-2.3h-.75v2.4c0 1.46.78 1.82 1.43 1.82.73 0 1.16-.44 1.36-.77l.05.67h.66l-.02-1.12v-3zm1.85 4.1l.04-.67h.02c.3.55.77.78 1.37.78.9 0 1.84-.73 1.84-2.2.02-1.25-.7-2.1-1.72-2.1-.67 0-1.14.3-1.4.75h-.02v-2.6h-.74v4.98c0 .37-.02.78-.03 1.06h.63zm.13-2.38c0-.1.02-.22.04-.3.16-.57.63-.92 1.14-.92.8 0 1.23.7 1.23 1.53 0 .94-.47 1.58-1.25 1.58-.55 0-.98-.36-1.13-.87-.02-.1-.04-.18-.04-.28v-.75zm3.8 2.2c.3.17.7.28 1.16.28.98 0 1.54-.5 1.54-1.23 0-.62-.36-.97-1.08-1.24-.53-.2-.78-.36-.78-.7 0-.3.25-.56.7-.56.37 0 .67.13.83.23l.2-.54c-.24-.15-.6-.26-1.02-.26-.88 0-1.4.54-1.4 1.2 0 .5.33.9 1.07 1.17.56.2.77.4.77.76 0 .34-.26.62-.8.62-.38 0-.77-.16-1-.3l-.17.57zm4.4.2v-4.12h-.74v4.1h.75zm-.36-5.74c-.28 0-.47.2-.47.47 0 .26.2.46.45.46.3 0 .48-.2.47-.46 0-.26-.17-.46-.46-.46zm4.42-.3v2.46h-.02c-.2-.33-.6-.63-1.24-.63-1 0-1.86.85-1.85 2.2 0 1.26.78 2.1 1.77 2.1.67 0 1.18-.34 1.4-.8h.02l.03.7h.67c-.03-.27-.04-.7-.04-1.05V31.6h-.74zm0 4.32c0 .12 0 .22-.04.32-.13.56-.6.9-1.1.9-.8 0-1.2-.7-1.2-1.53 0-.9.45-1.58 1.22-1.58.56 0 .97.4 1.08.87.03.08.03.2.03.3v.72zm1.44-2.4l1.52 3.8c.04.1.05.15.05.2 0 .04-.02.1-.06.17-.17.37-.42.66-.63.83-.22.18-.46.3-.65.36l.18.62c.18-.03.55-.16.9-.48.53-.44.9-1.17 1.43-2.58l1.13-2.93h-.8l-.8 2.4-.27.87h-.02c-.06-.24-.17-.57-.26-.84l-.9-2.43h-.82zm6.38 4.12h.73v-2.3c.17.05.38.06.6.06.72 0 1.36-.2 1.75-.63.3-.3.44-.7.44-1.22 0-.5-.18-.93-.5-1.2-.34-.3-.87-.48-1.6-.48-.6 0-1.07.05-1.42.1v5.67zm.73-5.12c.13-.04.38-.06.7-.06.82 0 1.35.36 1.35 1.12 0 .8-.54 1.22-1.43 1.22-.26 0-.46 0-.63-.06v-2.22zm5.5.9c-1.14.02-2.04.82-2.04 2.2 0 1.3.86 2.12 1.98 2.12 1 0 2.06-.67 2.06-2.2 0-1.25-.8-2.1-2-2.1zm0 .58c.87 0 1.22.88 1.22 1.58 0 .92-.55 1.6-1.26 1.6-.73 0-1.25-.68-1.25-1.58 0-.8.37-1.6 1.26-1.6zm2.93 3.64h.74v-2.2c0-.12 0-.24.03-.34.1-.56.48-.96 1-.96.1 0 .18 0 .26.03v-.7c-.07-.02-.13-.03-.2-.03-.5 0-.97.35-1.15.9h-.04l-.02-.8h-.66c.03.37.04.8.04 1.27v2.84zm2.95-5.1v1h-.64v.56h.65v2.24c0 .5.07.85.3 1.07.16.22.45.33.8.33.28 0 .5-.05.66-.1l-.03-.57c-.1.03-.23.05-.43.05-.42 0-.56-.28-.56-.8v-2.2h1.07v-.57h-1.07v-1.18l-.73.2zm3.46 5.1V34.1h1v-.57h-1v-.22c0-.62.17-1.18.8-1.18.22 0 .37.04.48.1l.1-.6c-.14-.05-.37-.1-.63-.1-.35 0-.73.1-1 .38-.35.33-.48.86-.48 1.43v.2h-.58v.57h.57v3.54h.74zm3.42-4.2c-1.14 0-2.04.8-2.04 2.18 0 1.3.85 2.12 1.97 2.12 1 0 2.05-.67 2.05-2.2 0-1.25-.8-2.1-1.98-2.1zm-.02.56c.88 0 1.23.88 1.23 1.58 0 .92-.54 1.6-1.25 1.6-.73 0-1.25-.68-1.25-1.58 0-.8.38-1.6 1.27-1.6zm2.94 3.64h.75V31.6h-.76v6.04m2.75 0v-4.1h-.75v4.1h.74zm-.38-5.74c-.27 0-.47.2-.47.47 0 .26.2.46.45.46.3 0 .5-.2.48-.46 0-.26-.18-.46-.46-.46zm3.36 1.54c-1.14 0-2.04.8-2.04 2.18 0 1.3.86 2.12 1.97 2.12 1 0 2.06-.67 2.06-2.2 0-1.25-.8-2.1-1.98-2.1zm-.02.56c.88 0 1.23.88 1.23 1.58 0 .92-.54 1.6-1.26 1.6-.73 0-1.25-.68-1.25-1.58 0-.8.38-1.6 1.26-1.6zm25.2 84.74h.74v-5.1h1.75v-.6h-4.23v.6h1.74v5.1m6.4-1.92c0-.07.03-.2.03-.34 0-.76-.37-1.94-1.7-1.94-1.2 0-1.93.98-1.93 2.22s.75 2.06 2.02 2.06c.64 0 1.1-.13 1.35-.25l-.13-.53c-.28.12-.6.2-1.14.2-.74 0-1.4-.4-1.4-1.42h2.88zm-2.87-.53c.05-.53.38-1.22 1.13-1.22.84 0 1.05.74 1.04 1.2h-2.18zm6.6 1.73c-.2.1-.48.2-.9.2-.82 0-1.43-.58-1.43-1.53 0-.86.5-1.55 1.45-1.55.4 0 .7.1.86.2l.17-.6c-.2-.1-.6-.2-1.03-.2-1.34 0-2.2.92-2.2 2.18 0 1.26.8 2.1 2.04 2.1.55 0 .98-.14 1.18-.24l-.13-.57zm1 .7h.76v-2.46c0-.15 0-.26.05-.36.14-.4.53-.74 1-.74.7 0 .96.56.96 1.22v2.36h.74v-2.44c0-1.42-.88-1.75-1.43-1.75-.28 0-.54.08-.76.2-.22.13-.4.32-.53.53v-2.56h-.76v6.02zm4.72 0h.74v-2.46c0-.12.02-.25.06-.34.12-.42.5-.77 1-.77.7 0 .95.55.95 1.22v2.36h.74v-2.45c0-1.42-.87-1.76-1.44-1.76-.68 0-1.15.38-1.35.77l-.05-.66H194l.02 1.1v3zm5.45 0v-4.1h-.75v4.1h.75zm-.37-5.7c-.27 0-.47.2-.47.45 0 .26.2.46.45.46.3 0 .48-.2.47-.46 0-.26-.17-.46-.45-.46zm4.4 5c-.2.1-.5.2-.9.2-.82 0-1.43-.58-1.43-1.53 0-.86.5-1.55 1.45-1.55.4 0 .68.1.86.2l.17-.6c-.2-.1-.6-.2-1.03-.2-1.34 0-2.2.92-2.2 2.18 0 1.26.8 2.1 2.04 2.1.55 0 .98-.14 1.17-.24l-.12-.57zm3.96.7c-.05-.27-.07-.62-.07-.97v-1.54c0-.82-.32-1.67-1.57-1.67-.52 0-1 .14-1.35.36l.17.5c.3-.2.7-.3 1.07-.3.84 0 .93.6.93.95v.08c-1.58 0-2.47.53-2.47 1.53 0 .6.43 1.18 1.26 1.18.58 0 1.02-.3 1.25-.6h.02l.06.5h.68zm-.8-1.37c0 .07 0 .16-.03.24-.12.34-.46.68-1 .68-.38 0-.7-.23-.7-.7 0-.8.93-.95 1.74-.93v.7zm1.93 1.38h.74v-6.02h-.74v6.02m6.77-1.8l.6 1.8h.8l-1.95-5.7h-.9l-1.93 5.7h.75l.6-1.8h2.02zm-1.87-.57l.56-1.66c.1-.33.2-.68.28-1.02h.02c.1.33.17.67.3 1.04l.56 1.65h-1.72zm3.8 2.18c.28.17.7.28 1.15.28.97 0 1.53-.5 1.53-1.23 0-.6-.36-.97-1.07-1.24-.53-.2-.77-.36-.77-.7 0-.3.24-.56.68-.56.4 0 .7.14.85.24l.2-.54c-.24-.14-.6-.26-1.02-.26-.88 0-1.42.54-1.42 1.2.02.5.36.9 1.1 1.17.55.2.77.4.77.76 0 .34-.26.6-.8.6-.37 0-.77-.14-.98-.28l-.2.57zm3.35 0c.3.17.7.28 1.16.28.98 0 1.54-.5 1.54-1.23 0-.6-.36-.97-1.08-1.24-.53-.2-.78-.36-.78-.7 0-.3.25-.56.7-.56.37 0 .67.14.83.24l.2-.54c-.23-.14-.6-.26-1-.26-.9 0-1.43.54-1.43 1.2 0 .5.35.9 1.1 1.17.54.2.75.4.75.76 0 .34-.25.6-.8.6-.37 0-.76-.14-.98-.28l-.2.57zm4.4.2v-4.1h-.75v4.1h.75zm-.38-5.73c-.27 0-.46.2-.46.47 0 .24.2.44.46.44.3 0 .48-.2.47-.46 0-.26-.18-.46-.46-.46zm1.33 5.53c.3.17.7.28 1.15.28.97 0 1.53-.5 1.53-1.23 0-.6-.36-.97-1.07-1.24-.53-.2-.77-.36-.77-.7 0-.3.24-.56.68-.56.4 0 .7.14.85.24l.2-.54c-.24-.14-.6-.26-1.02-.26-.88 0-1.4.54-1.4 1.2 0 .5.33.9 1.07 1.17.55.2.77.4.77.76 0 .34-.26.6-.8.6-.37 0-.77-.14-1-.28l-.17.57zm3.8-4.9v1h-.62v.55h.63v2.24c0 .5.1.85.3 1.07.18.2.46.32.8.32.3 0 .52-.04.67-.1l-.04-.56c-.1.03-.23.05-.43.05-.4 0-.56-.28-.56-.78v-2.22h1.07v-.57h-1.06v-1.17l-.73.2zm5.6 5.1c-.05-.3-.07-.64-.07-1v-1.53c0-.82-.3-1.67-1.56-1.67-.52 0-1 .14-1.35.36l.17.5c.28-.2.68-.3 1.06-.3.84 0 .93.6.93.95v.08c-1.6 0-2.47.53-2.47 1.53 0 .6.42 1.18 1.25 1.18.6 0 1.03-.3 1.26-.6h.02l.06.5h.68zm-.8-1.4c0 .08 0 .17-.03.25-.12.34-.46.68-1 .68-.37 0-.7-.23-.7-.7 0-.8.93-.95 1.74-.93v.7zm1.94 1.4h.74v-2.48c0-.12.02-.25.05-.34.13-.42.5-.77 1-.77.7 0 .95.55.95 1.22v2.36h.75v-2.45c0-1.42-.88-1.76-1.45-1.76-.68 0-1.15.38-1.35.77h-.02l-.03-.66h-.66c.03.34.04.68.04 1.1v3zm7.5-.72c-.2.1-.5.2-.9.2-.83 0-1.44-.58-1.44-1.53 0-.86.5-1.55 1.45-1.55.4 0 .7.1.87.2l.17-.6c-.22-.1-.6-.2-1.05-.2-1.34 0-2.2.92-2.2 2.18 0 1.26.8 2.1 2.04 2.1.54 0 .98-.14 1.17-.24l-.13-.57zm4.3-1.2c0-.08.03-.2.03-.35 0-.76-.36-1.94-1.7-1.94-1.2 0-1.92.98-1.92 2.22s.75 2.06 2.02 2.06c.65 0 1.1-.13 1.36-.25l-.13-.53c-.28.12-.6.2-1.13.2-.75 0-1.4-.4-1.4-1.42h2.87zm-2.87-.54c.06-.53.4-1.22 1.14-1.22.85 0 1.06.74 1.05 1.2h-2.18zM5.54 118.73h.74v-2.3c.17.05.37.06.6.06.7 0 1.35-.2 1.74-.63.3-.3.44-.7.44-1.22 0-.5-.2-.92-.5-1.2-.34-.3-.88-.47-1.6-.47-.6 0-1.06.05-1.42.1v5.66zm.74-5.1c.12-.05.37-.07.7-.07.8 0 1.34.36 1.34 1.12 0 .78-.54 1.2-1.43 1.2-.26 0-.46 0-.62-.05v-2.22zm3.64 5.1h.74v-2.2c0-.12 0-.23.03-.33.1-.55.47-.95 1-.95.1 0 .17 0 .25.02v-.7c-.07-.02-.13-.03-.22-.03-.5 0-.95.35-1.13.9h-.04l-.02-.8H9.9l.02 1.28v2.82zm4.4-4.2c-1.13 0-2.03.8-2.03 2.18 0 1.3.84 2.12 1.95 2.12 1 0 2.05-.67 2.05-2.2 0-1.24-.8-2.1-1.98-2.1zm0 .56c.87 0 1.22.9 1.22 1.58 0 .93-.54 1.6-1.25 1.6-.74 0-1.26-.68-1.26-1.58 0-.78.38-1.6 1.27-1.6zm5.8-.46l-.03.62h-.03c-.17-.34-.56-.72-1.27-.72-.95 0-1.85.8-1.85 2.18 0 1.14.73 2 1.74 2 .63 0 1.07-.3 1.3-.68h.02v.45c0 1.03-.56 1.43-1.33 1.43-.52 0-.94-.16-1.2-.32l-.2.57c.33.22.88.34 1.37.34.5 0 1.1-.1 1.5-.48.4-.35.57-.93.57-1.87v-2.4c0-.5.02-.82.04-1.12h-.65zM20 117c0 .12 0 .27-.05.4-.16.47-.58.76-1.04.76-.8 0-1.2-.67-1.2-1.48 0-.95.5-1.55 1.22-1.55.54 0 .9.35 1.04.8.04.1.04.2.04.33v.74zm1.98 1.74h.74v-2.2c0-.12.02-.23.03-.33.1-.55.48-.95 1-.95.1 0 .18 0 .26.02v-.7c-.06-.02-.12-.03-.2-.03-.5 0-.95.35-1.14.9h-.03l-.03-.8h-.65c.02.38.03.8.03 1.28v2.82zm5.73 0c-.04-.28-.06-.63-.06-.98v-1.54c0-.82-.3-1.67-1.56-1.67-.52 0-1 .14-1.35.36l.17.5c.3-.2.7-.3 1.07-.3.84 0 .93.6.93.95v.08c-1.58 0-2.47.53-2.47 1.53 0 .6.43 1.18 1.26 1.18.57 0 1.02-.3 1.24-.6h.03l.06.5h.68zm-.78-1.38c0 .07-.02.16-.05.24-.1.34-.45.68-1 .68-.37 0-.7-.23-.7-.7 0-.8.93-.95 1.75-.93v.7zm1.92 1.38h.73v-2.47c0-.13.02-.26.06-.37.12-.37.46-.75.93-.75.56 0 .85.48.85 1.13v2.46h.74v-2.53c0-.13.03-.26.06-.36.13-.37.46-.68.88-.68.6 0 .9.47.9 1.26v2.32h.72v-2.42c0-1.42-.8-1.78-1.34-1.78-.4 0-.66.1-.9.3-.18.12-.34.3-.47.53h-.03c-.18-.5-.6-.82-1.16-.82-.67 0-1.05.36-1.28.75h-.02l-.04-.66h-.65c.03.34.04.68.04 1.1v3zm9.7 0v-3.53h.98v-.56h-1v-.22c0-.63.17-1.2.8-1.2.22 0 .37.05.48.1l.1-.57c-.14-.06-.37-.12-.64-.12-.34 0-.72.1-1 .38-.34.34-.47.87-.47 1.44v.2h-.6v.57h.6v3.54h.73zm3.28-4.2c-1.13 0-2.03.8-2.03 2.18 0 1.3.84 2.12 1.95 2.12 1 0 2.05-.67 2.05-2.2 0-1.24-.8-2.1-1.98-2.1zm0 .56c.87 0 1.2.9 1.2 1.58 0 .93-.52 1.6-1.23 1.6-.74 0-1.26-.68-1.26-1.58 0-.78.38-1.6 1.27-1.6zm2.92 3.64h.74v-2.2c0-.12 0-.23.03-.33.1-.55.5-.95 1-.95.1 0 .2 0 .27.02v-.7c-.07-.02-.13-.03-.22-.03-.5 0-.94.35-1.13.9h-.04l-.02-.8h-.65c.03.38.04.8.04 1.28v2.82zm4.6 0h.73v-2.47h.7c.67.02.97.32 1.14 1.1.17.72.3 1.2.4 1.37h.76c-.12-.22-.26-.77-.44-1.57-.14-.6-.4-1-.84-1.15V116c.6-.2 1.07-.7 1.07-1.47 0-.44-.16-.83-.45-1.08-.35-.32-.86-.47-1.65-.47-.5 0-1.04.04-1.42.12v5.64zm.73-5.12c.12-.04.38-.07.73-.07.78 0 1.32.33 1.32 1.07 0 .65-.5 1.1-1.3 1.1h-.75v-2.1zm7.1 3.2c0-.07.03-.2.03-.34 0-.76-.36-1.94-1.7-1.94-1.2 0-1.92.98-1.92 2.22s.75 2.06 2 2.06c.67 0 1.12-.13 1.38-.25l-.13-.53c-.28.12-.6.2-1.13.2-.75 0-1.4-.4-1.4-1.42h2.87zm-2.87-.53c.06-.53.4-1.22 1.14-1.22.84 0 1.05.74 1.04 1.2H54.3zm3.53 2.25c.3.17.7.28 1.16.28.96 0 1.52-.5 1.52-1.23 0-.6-.36-.97-1.08-1.24-.53-.2-.78-.36-.78-.7 0-.3.25-.56.7-.56.37 0 .67.14.83.24l.18-.54c-.23-.14-.6-.26-1-.26-.9 0-1.43.54-1.43 1.2 0 .5.35.9 1.1 1.17.54.2.75.4.75.76 0 .34-.25.6-.8.6-.37 0-.76-.14-.98-.28l-.18.57zm7.08-3.9h-.73v2.5c0 .14-.03.28-.07.4-.13.32-.48.67-.98.67-.68 0-.92-.53-.92-1.3v-2.28h-.74v2.4c0 1.44.77 1.8 1.4 1.8.74 0 1.17-.44 1.37-.77h.02l.04.67h.65c-.02-.32-.03-.7-.03-1.12v-2.98zm1.25 4.1h.75v-6.03h-.75v6.02m2.17-5.1v1h-.63v.56h.62v2.24c0 .5.08.85.3 1.07.17.2.45.32.8.32.3 0 .5-.04.66-.1l-.04-.56c-.1.03-.23.05-.43.05-.4 0-.55-.28-.55-.78v-2.22h1.07v-.57h-1.07v-1.17l-.73.2zm2.35 4.9c.3.18.7.3 1.16.3.97 0 1.53-.52 1.53-1.24 0-.6-.36-.97-1.07-1.24-.55-.2-.8-.36-.8-.7 0-.3.25-.56.7-.56.37 0 .67.14.83.24l.2-.54c-.24-.14-.6-.26-1.02-.26-.87 0-1.4.54-1.4 1.2 0 .5.34.9 1.08 1.17.55.2.76.4.76.76 0 .34-.25.6-.8.6-.37 0-.76-.14-.98-.28l-.18.57z"/><path class="legend-element sub-text" fill="#8C9AA7" d="M103.97.2h1.66v5.97h3.06V7.7h-4.73V.2m5.7 0h5.1V1.7h-3.45v1.4h3.25v1.52h-3.25v1.53h3.64V7.7h-5.3V.2m13.42 6.97c-.5.25-1 .43-1.53.55-.53.1-1.07.17-1.62.17-.6 0-1.13-.1-1.62-.3-.5-.17-.92-.43-1.28-.78-.36-.34-.64-.76-.84-1.24-.2-.5-.3-1.04-.3-1.64 0-.6.1-1.14.3-1.63.2-.47.48-.9.84-1.23.36-.35.8-.6 1.3-.8.48-.18 1.02-.27 1.6-.27.6 0 1.16.07 1.67.22.5.14.94.4 1.32.74l-1.17 1.28c-.22-.24-.48-.4-.76-.53-.3-.1-.65-.17-1.07-.17-.35 0-.67.06-.96.18-.3.13-.53.3-.74.5-.2.23-.36.48-.47.78-.1.3-.16.62-.16.97s.05.67.16.97c.1.3.27.54.47.76.2.2.45.38.74.5.28.12.6.18.96.18s.67-.04.93-.12c.26-.08.47-.17.63-.25V4.76h-1.36V3.25h2.94v3.92zM124.7.2h5.1V1.7h-3.45v1.4h3.26v1.52h-3.25v1.53H130V7.7h-5.3V.2m6.72 0h2.25l3.2 5.2V.2h1.66v7.5h-2.16l-3.28-5.35h-.03V7.7h-1.65V.2m8.75 0h2.48c.6 0 1.16.06 1.7.2.55.13 1.02.34 1.42.64.4.3.72.7.96 1.18s.36 1.06.36 1.75c0 .6-.13 1.14-.36 1.6-.23.46-.54.85-.93 1.17-.38.3-.82.55-1.33.7-.5.18-1.05.26-1.6.26h-2.7V.2zm1.65 5.97h.86c.38 0 .73-.04 1.06-.12.33-.07.6-.2.86-.38.24-.18.43-.42.56-.7.14-.3.2-.67.2-1.1 0-.36-.06-.68-.2-.95-.14-.27-.32-.5-.55-.67-.23-.18-.5-.3-.8-.4-.33-.1-.66-.13-1-.13h-.98v4.45z"/><path class="legend-element harline" fill="none" stroke="#939598" stroke-width=".06" d="M269 18.56H0"/></svg>