<?xml version="1.0" encoding="utf-8"?>
<!-- Generator: Adobe Illustrator 16.0.0, SVG Export Plug-In . SVG Version: 6.00 Build 0)  -->
<!DOCTYPE svg PUBLIC "-//W3C//DTD SVG 1.1//EN" "http://www.w3.org/Graphics/SVG/1.1/DTD/svg11.dtd">
<svg version="1.1" id="Layer_1" xmlns="http://www.w3.org/2000/svg" xmlns:xlink="http://www.w3.org/1999/xlink" x="0px" y="0px"
	 width="268.99px" height="144.824px" viewBox="0 0 268.99 144.824" enable-background="new 0 0 268.99 144.824"
	 xml:space="preserve">
<g>
	<polygon fill="none" stroke="#FFFFFF" stroke-width="0.24" points="124.694,58.844 91.338,116.617 158.049,116.617 124.694,58.844 
			"/>
	<path fill="#5DABBC" d="M124.85,72.201c7.44,0,13.471-5.942,13.471-13.274c0-7.33-6.031-13.273-13.471-13.273
		c-7.439,0-13.47,5.943-13.47,13.273C111.38,66.259,117.411,72.201,124.85,72.201"/>
	<path fill="#F0C161" d="M158.207,129.277c7.439,0,13.47-5.943,13.47-13.273s-6.03-13.273-13.47-13.273s-13.47,5.943-13.47,13.273
		S150.768,129.277,158.207,129.277"/>
	<path fill="#ED657D" d="M91.84,129.277c7.439,0,13.47-5.943,13.47-13.273s-6.031-13.273-13.47-13.273
		c-7.439,0-13.47,5.943-13.47,13.273S84.401,129.277,91.84,129.277"/>
	<path fill="#8C63AA" d="M108.82,96.674c5.062,0,9.166-4.043,9.166-9.031s-4.104-9.032-9.166-9.032
		c-5.061,0-9.165,4.044-9.165,9.032S103.759,96.674,108.82,96.674"/>
	<path fill="#64C088" d="M141.211,96.674c5.062,0,9.165-4.043,9.165-9.031s-4.103-9.032-9.165-9.032
		c-5.062,0-9.165,4.044-9.165,9.032S136.149,96.674,141.211,96.674"/>
	<path fill="#F4A11E" d="M124.85,125.037c5.062,0,9.166-4.045,9.166-9.033s-4.104-9.033-9.166-9.033
		c-5.061,0-9.165,4.045-9.165,9.033S119.789,125.037,124.85,125.037"/>
	<path fill="#8C9AA7" d="M159.688,86.254c-0.098-0.119-0.218-0.211-0.359-0.275c-0.142-0.062-0.306-0.094-0.493-0.094
		c-0.187,0-0.358,0.035-0.518,0.107s-0.297,0.174-0.414,0.303c-0.116,0.129-0.208,0.281-0.273,0.461
		c-0.065,0.178-0.099,0.371-0.099,0.578c0,0.213,0.033,0.406,0.099,0.582s0.156,0.33,0.271,0.459
		c0.113,0.129,0.249,0.229,0.403,0.301c0.155,0.072,0.321,0.107,0.499,0.107c0.204,0,0.385-0.041,0.541-0.127
		c0.157-0.084,0.286-0.201,0.389-0.355l0.827,0.617c-0.191,0.268-0.434,0.465-0.726,0.592c-0.293,0.127-0.594,0.189-0.904,0.189
		c-0.352,0-0.676-0.055-0.973-0.164s-0.553-0.268-0.769-0.475c-0.218-0.205-0.386-0.455-0.507-0.746
		c-0.12-0.293-0.181-0.619-0.181-0.98c0-0.359,0.061-0.688,0.181-0.979c0.121-0.293,0.289-0.543,0.507-0.748
		c0.216-0.205,0.472-0.363,0.769-0.473c0.297-0.111,0.621-0.166,0.973-0.166c0.128,0,0.261,0.012,0.398,0.035
		c0.138,0.021,0.273,0.061,0.407,0.109c0.134,0.053,0.262,0.119,0.385,0.205c0.123,0.084,0.233,0.189,0.331,0.312L159.688,86.254
		L159.688,86.254z"/>
	<path fill="#8C9AA7" d="M160.858,87.334c0-0.359,0.06-0.688,0.181-0.979c0.121-0.293,0.289-0.543,0.505-0.748
		c0.217-0.205,0.474-0.363,0.771-0.473c0.297-0.111,0.621-0.166,0.973-0.166s0.677,0.055,0.973,0.166
		c0.297,0.109,0.555,0.268,0.771,0.473s0.385,0.455,0.506,0.748c0.12,0.291,0.181,0.619,0.181,0.979c0,0.361-0.061,0.688-0.181,0.98
		c-0.121,0.291-0.29,0.541-0.506,0.746c-0.216,0.207-0.474,0.365-0.771,0.475c-0.296,0.109-0.621,0.164-0.973,0.164
		s-0.676-0.055-0.973-0.164s-0.554-0.268-0.771-0.475c-0.216-0.205-0.384-0.455-0.505-0.746
		C160.918,88.021,160.858,87.695,160.858,87.334L160.858,87.334z M161.888,87.334c0,0.213,0.033,0.406,0.1,0.582
		c0.064,0.176,0.16,0.33,0.283,0.459s0.27,0.229,0.441,0.301c0.171,0.072,0.363,0.107,0.575,0.107s0.404-0.035,0.576-0.107
		s0.318-0.172,0.441-0.301s0.218-0.283,0.283-0.459c0.066-0.176,0.099-0.369,0.099-0.582c0-0.207-0.032-0.4-0.099-0.578
		c-0.065-0.18-0.16-0.332-0.283-0.461s-0.27-0.23-0.441-0.303s-0.364-0.107-0.576-0.107s-0.404,0.035-0.575,0.107
		c-0.172,0.072-0.318,0.174-0.441,0.303s-0.219,0.281-0.283,0.461C161.921,86.934,161.888,87.127,161.888,87.334L161.888,87.334z"/>
	<polygon fill="#8C9AA7" points="166.392,85.084 167.892,85.084 168.929,88.021 168.942,88.021 169.985,85.084 171.479,85.084 
		171.479,89.586 170.487,89.586 170.487,86.133 170.474,86.133 169.291,89.586 168.534,89.586 167.396,86.133 167.383,86.133 
		167.383,89.586 166.392,89.586 166.392,85.084 	"/>
	<path fill="#8C9AA7" d="M172.396,85.084h1.679c0.195,0,0.392,0.012,0.589,0.041c0.197,0.027,0.374,0.082,0.531,0.164
		c0.157,0.084,0.284,0.199,0.381,0.348c0.098,0.146,0.146,0.346,0.146,0.59c0,0.256-0.07,0.467-0.213,0.633
		c-0.142,0.168-0.33,0.289-0.562,0.361v0.012c0.147,0.021,0.283,0.062,0.404,0.123c0.119,0.062,0.224,0.141,0.311,0.236
		s0.154,0.207,0.201,0.334c0.046,0.127,0.069,0.264,0.069,0.408c0,0.236-0.051,0.434-0.152,0.594
		c-0.103,0.158-0.233,0.287-0.395,0.385c-0.162,0.098-0.343,0.168-0.544,0.209c-0.202,0.043-0.401,0.064-0.601,0.064h-1.845V85.084
		L172.396,85.084z M173.387,86.883h0.72c0.075,0,0.151-0.008,0.226-0.025s0.141-0.045,0.2-0.084c0.06-0.037,0.106-0.088,0.143-0.15
		c0.036-0.064,0.055-0.141,0.055-0.23c0-0.092-0.021-0.17-0.061-0.232c-0.04-0.061-0.092-0.107-0.156-0.143
		c-0.062-0.033-0.135-0.059-0.216-0.074c-0.081-0.014-0.159-0.021-0.234-0.021h-0.676V86.883L173.387,86.883z M173.387,88.746h0.892
		c0.076,0,0.153-0.008,0.231-0.025c0.078-0.016,0.15-0.047,0.213-0.088c0.064-0.043,0.116-0.1,0.156-0.166
		c0.04-0.068,0.061-0.15,0.061-0.248c0-0.107-0.026-0.193-0.079-0.258c-0.054-0.066-0.12-0.115-0.2-0.15
		c-0.081-0.033-0.168-0.057-0.261-0.07c-0.095-0.012-0.181-0.018-0.262-0.018h-0.751V88.746L173.387,88.746z"/>
	<polygon fill="#8C9AA7" points="176.504,85.084 177.496,85.084 177.496,89.586 176.504,89.586 176.504,85.084 	"/>
	<polygon fill="#8C9AA7" points="178.399,85.084 179.748,85.084 181.662,88.213 181.675,88.213 181.675,85.084 182.667,85.084 
		182.667,89.586 181.37,89.586 179.404,86.381 179.393,86.381 179.393,89.586 178.399,89.586 178.399,85.084 	"/>
	<polygon fill="#8C9AA7" points="183.621,85.084 186.681,85.084 186.681,86 184.613,86 184.613,86.838 186.566,86.838 
		186.566,87.754 184.613,87.754 184.613,88.67 186.795,88.67 186.795,89.586 183.621,89.586 183.621,85.084 	"/>
	<path fill="#8C9AA7" d="M187.59,85.084h1.488c0.361,0,0.703,0.039,1.028,0.119c0.323,0.08,0.606,0.211,0.849,0.393
		c0.241,0.18,0.433,0.414,0.575,0.701c0.142,0.289,0.213,0.639,0.213,1.051c0,0.365-0.069,0.686-0.206,0.963
		c-0.138,0.277-0.324,0.51-0.557,0.699c-0.233,0.189-0.502,0.332-0.809,0.43c-0.305,0.098-0.625,0.146-0.96,0.146h-1.622V85.084
		L187.59,85.084z M188.582,88.67h0.515c0.229,0,0.443-0.023,0.641-0.07s0.368-0.123,0.512-0.232c0.145-0.107,0.257-0.25,0.34-0.426
		s0.124-0.391,0.124-0.645c0-0.221-0.041-0.412-0.124-0.576s-0.193-0.297-0.334-0.404c-0.14-0.105-0.304-0.186-0.493-0.238
		c-0.188-0.053-0.387-0.078-0.595-0.078h-0.585V88.67L188.582,88.67z"/>
	<path fill="#8C9AA7" d="M196.526,86.184c-0.08-0.102-0.189-0.178-0.327-0.227s-0.269-0.072-0.392-0.072
		c-0.071,0-0.146,0.008-0.223,0.023c-0.076,0.018-0.147,0.045-0.216,0.08c-0.068,0.037-0.123,0.084-0.166,0.145
		c-0.042,0.059-0.063,0.131-0.063,0.215c0,0.137,0.052,0.24,0.152,0.312c0.103,0.072,0.23,0.135,0.385,0.184
		c0.155,0.051,0.321,0.102,0.5,0.154c0.179,0.051,0.345,0.123,0.499,0.215c0.155,0.094,0.283,0.219,0.386,0.377
		c0.101,0.156,0.151,0.365,0.151,0.629c0,0.25-0.046,0.469-0.14,0.654c-0.093,0.188-0.219,0.342-0.378,0.465
		s-0.344,0.215-0.554,0.273c-0.21,0.061-0.432,0.088-0.664,0.088c-0.293,0-0.564-0.043-0.814-0.133
		c-0.25-0.088-0.484-0.232-0.7-0.432l0.706-0.777c0.103,0.137,0.23,0.242,0.385,0.316c0.155,0.074,0.315,0.109,0.48,0.109
		c0.081,0,0.162-0.008,0.245-0.027s0.157-0.047,0.223-0.086c0.065-0.037,0.118-0.086,0.159-0.146c0.04-0.059,0.06-0.129,0.06-0.209
		c0-0.137-0.052-0.244-0.155-0.322c-0.104-0.078-0.234-0.145-0.392-0.199c-0.156-0.057-0.326-0.111-0.509-0.166
		c-0.182-0.055-0.352-0.129-0.509-0.223c-0.156-0.094-0.287-0.217-0.392-0.369c-0.104-0.152-0.155-0.354-0.155-0.604
		c0-0.242,0.048-0.455,0.144-0.637c0.095-0.182,0.223-0.334,0.381-0.457c0.159-0.123,0.344-0.215,0.551-0.277
		c0.207-0.061,0.422-0.092,0.643-0.092c0.254,0,0.5,0.035,0.738,0.107c0.236,0.072,0.451,0.193,0.642,0.363L196.526,86.184
		L196.526,86.184z"/>
	<polygon fill="#8C9AA7" points="197.989,85.084 201.049,85.084 201.049,86 198.981,86 198.981,86.838 200.935,86.838 
		200.935,87.754 198.981,87.754 198.981,88.67 201.163,88.67 201.163,89.586 197.989,89.586 197.989,85.084 	"/>
	<path fill="#8C9AA7" d="M201.958,85.084h1.743c0.229,0,0.446,0.021,0.652,0.064c0.204,0.045,0.386,0.119,0.54,0.225
		c0.154,0.104,0.277,0.242,0.368,0.42c0.092,0.176,0.138,0.395,0.138,0.656c0,0.318-0.083,0.59-0.248,0.812
		s-0.407,0.363-0.726,0.422l1.146,1.902h-1.19l-0.94-1.799h-0.49v1.799h-0.992V85.084L201.958,85.084z M202.95,86.945h0.585
		c0.09,0,0.184-0.002,0.284-0.008c0.099-0.008,0.188-0.027,0.27-0.059c0.08-0.031,0.147-0.08,0.2-0.148s0.08-0.164,0.08-0.287
		c0-0.113-0.024-0.205-0.07-0.273c-0.047-0.068-0.105-0.119-0.178-0.156c-0.072-0.035-0.155-0.059-0.248-0.072
		c-0.094-0.012-0.185-0.02-0.274-0.02h-0.648V86.945L202.95,86.945z"/>
	<polygon fill="#8C9AA7" points="205.634,85.084 206.767,85.084 207.88,88.033 207.892,88.033 209.024,85.084 210.087,85.084 
		208.229,89.586 207.435,89.586 205.634,85.084 	"/>
	<polygon fill="#8C9AA7" points="210.545,85.084 211.537,85.084 211.537,89.586 210.545,89.586 210.545,85.084 	"/>
	<path fill="#8C9AA7" d="M215.385,86.254c-0.098-0.119-0.218-0.211-0.359-0.275c-0.143-0.062-0.307-0.094-0.492-0.094
		c-0.188,0-0.36,0.035-0.52,0.107c-0.158,0.072-0.297,0.174-0.412,0.303c-0.117,0.129-0.208,0.281-0.274,0.461
		c-0.066,0.178-0.098,0.371-0.098,0.578c0,0.213,0.031,0.406,0.098,0.582s0.156,0.33,0.271,0.459s0.249,0.229,0.403,0.301
		c0.155,0.072,0.322,0.107,0.5,0.107c0.203,0,0.383-0.041,0.54-0.127c0.157-0.084,0.287-0.201,0.388-0.355l0.827,0.617
		c-0.19,0.268-0.432,0.465-0.725,0.592c-0.292,0.127-0.594,0.189-0.903,0.189c-0.352,0-0.676-0.055-0.973-0.164
		s-0.554-0.268-0.771-0.475c-0.216-0.205-0.385-0.455-0.505-0.746c-0.121-0.293-0.182-0.619-0.182-0.98
		c0-0.359,0.061-0.688,0.182-0.979c0.12-0.293,0.289-0.543,0.505-0.748c0.217-0.205,0.474-0.363,0.771-0.473
		c0.297-0.111,0.621-0.166,0.973-0.166c0.127,0,0.26,0.012,0.397,0.035c0.138,0.021,0.273,0.061,0.406,0.109
		c0.135,0.053,0.263,0.119,0.386,0.205c0.123,0.084,0.233,0.189,0.331,0.312L215.385,86.254L215.385,86.254z"/>
	<polygon fill="#8C9AA7" points="216.835,85.084 219.895,85.084 219.895,86 217.827,86 217.827,86.838 219.78,86.838 219.78,87.754 
		217.827,87.754 217.827,88.67 220.009,88.67 220.009,89.586 216.835,89.586 216.835,85.084 	"/>
	<path fill="#8C9AA7" d="M223.03,86.184c-0.081-0.102-0.19-0.178-0.328-0.227c-0.137-0.049-0.268-0.072-0.391-0.072
		c-0.072,0-0.146,0.008-0.223,0.023c-0.077,0.018-0.148,0.045-0.217,0.08c-0.068,0.037-0.123,0.084-0.165,0.145
		c-0.042,0.059-0.063,0.131-0.063,0.215c0,0.137,0.051,0.24,0.152,0.312c0.103,0.072,0.23,0.135,0.385,0.184
		c0.155,0.051,0.321,0.102,0.499,0.154c0.179,0.051,0.346,0.123,0.499,0.215c0.155,0.094,0.283,0.219,0.386,0.377
		c0.102,0.156,0.152,0.365,0.152,0.629c0,0.25-0.047,0.469-0.14,0.654c-0.093,0.188-0.22,0.342-0.379,0.465
		s-0.343,0.215-0.553,0.273c-0.21,0.061-0.432,0.088-0.665,0.088c-0.292,0-0.563-0.043-0.814-0.133
		c-0.25-0.088-0.483-0.232-0.699-0.432l0.706-0.777c0.102,0.137,0.23,0.242,0.385,0.316s0.314,0.109,0.48,0.109
		c0.08,0,0.162-0.008,0.245-0.027c0.082-0.02,0.156-0.047,0.222-0.086c0.066-0.037,0.119-0.086,0.159-0.146
		c0.04-0.059,0.062-0.129,0.062-0.209c0-0.137-0.053-0.244-0.156-0.322c-0.104-0.078-0.234-0.145-0.392-0.199
		c-0.156-0.057-0.326-0.111-0.509-0.166s-0.352-0.129-0.509-0.223s-0.287-0.217-0.391-0.369c-0.104-0.152-0.156-0.354-0.156-0.604
		c0-0.242,0.048-0.455,0.143-0.637c0.097-0.182,0.224-0.334,0.382-0.457c0.159-0.123,0.343-0.215,0.551-0.277
		c0.208-0.061,0.422-0.092,0.642-0.092c0.255,0,0.501,0.035,0.738,0.107s0.452,0.193,0.642,0.363L223.03,86.184L223.03,86.184z"/>
	<path fill="#8C9AA7" d="M29.275,86.254c-0.098-0.119-0.218-0.211-0.36-0.275c-0.142-0.062-0.306-0.094-0.493-0.094
		c-0.186,0-0.359,0.035-0.518,0.107c-0.159,0.072-0.297,0.174-0.413,0.303c-0.117,0.129-0.208,0.281-0.274,0.461
		c-0.066,0.178-0.098,0.371-0.098,0.578c0,0.213,0.032,0.406,0.098,0.582c0.066,0.176,0.156,0.33,0.271,0.459
		c0.114,0.129,0.249,0.229,0.403,0.301c0.155,0.072,0.322,0.107,0.5,0.107c0.203,0,0.383-0.041,0.54-0.127
		c0.157-0.084,0.287-0.201,0.388-0.355l0.827,0.617c-0.191,0.268-0.432,0.465-0.725,0.592s-0.594,0.189-0.903,0.189
		c-0.352,0-0.676-0.055-0.973-0.164c-0.297-0.109-0.554-0.268-0.77-0.475c-0.216-0.205-0.385-0.455-0.505-0.746
		c-0.121-0.293-0.182-0.619-0.182-0.98c0-0.359,0.061-0.688,0.182-0.979c0.12-0.293,0.289-0.543,0.505-0.748
		c0.216-0.205,0.473-0.363,0.77-0.473c0.297-0.111,0.621-0.166,0.973-0.166c0.127,0,0.26,0.012,0.397,0.035
		c0.138,0.021,0.274,0.061,0.407,0.109c0.134,0.053,0.262,0.119,0.385,0.205c0.123,0.084,0.233,0.189,0.331,0.312L29.275,86.254
		L29.275,86.254z"/>
	<path fill="#8C9AA7" d="M30.445,87.334c0-0.359,0.061-0.688,0.181-0.979c0.121-0.293,0.29-0.543,0.506-0.748
		c0.216-0.205,0.473-0.363,0.77-0.473c0.296-0.111,0.621-0.166,0.973-0.166s0.676,0.055,0.973,0.166
		c0.297,0.109,0.553,0.268,0.769,0.473c0.217,0.205,0.385,0.455,0.506,0.748c0.121,0.291,0.181,0.619,0.181,0.979
		c0,0.361-0.06,0.688-0.181,0.98c-0.121,0.291-0.289,0.541-0.506,0.746c-0.216,0.207-0.472,0.365-0.769,0.475
		s-0.621,0.164-0.973,0.164s-0.677-0.055-0.973-0.164c-0.297-0.109-0.554-0.268-0.77-0.475c-0.216-0.205-0.385-0.455-0.506-0.746
		C30.506,88.021,30.445,87.695,30.445,87.334L30.445,87.334z M31.475,87.334c0,0.213,0.033,0.406,0.099,0.582s0.16,0.33,0.283,0.459
		s0.27,0.229,0.442,0.301c0.172,0.072,0.364,0.107,0.576,0.107s0.404-0.035,0.575-0.107c0.172-0.072,0.319-0.172,0.442-0.301
		s0.218-0.283,0.283-0.459c0.066-0.176,0.099-0.369,0.099-0.582c0-0.207-0.033-0.4-0.099-0.578c-0.065-0.18-0.16-0.332-0.283-0.461
		s-0.27-0.23-0.442-0.303c-0.171-0.072-0.363-0.107-0.575-0.107s-0.404,0.035-0.576,0.107c-0.172,0.072-0.319,0.174-0.442,0.303
		s-0.217,0.281-0.283,0.461C31.508,86.934,31.475,87.127,31.475,87.334L31.475,87.334z"/>
	<polygon fill="#8C9AA7" points="35.979,85.084 37.48,85.084 38.516,88.021 38.529,88.021 39.572,85.084 41.067,85.084 
		41.067,89.586 40.075,89.586 40.075,86.133 40.062,86.133 38.879,89.586 38.122,89.586 36.984,86.133 36.971,86.133 36.971,89.586 
		35.979,89.586 35.979,85.084 	"/>
	<path fill="#8C9AA7" d="M41.983,85.084h1.679c0.195,0,0.391,0.012,0.588,0.041c0.197,0.027,0.374,0.082,0.531,0.164
		c0.157,0.084,0.284,0.199,0.382,0.348c0.097,0.146,0.146,0.346,0.146,0.59c0,0.256-0.071,0.467-0.213,0.633
		c-0.142,0.168-0.33,0.289-0.563,0.361v0.012c0.149,0.021,0.283,0.062,0.404,0.123c0.121,0.062,0.225,0.141,0.312,0.236
		s0.153,0.207,0.2,0.334s0.07,0.264,0.07,0.408c0,0.236-0.051,0.434-0.153,0.594c-0.101,0.158-0.233,0.287-0.394,0.385
		s-0.342,0.168-0.544,0.209c-0.201,0.043-0.401,0.064-0.601,0.064h-1.844V85.084L41.983,85.084z M42.975,86.883h0.719
		c0.076,0,0.151-0.008,0.225-0.025c0.075-0.018,0.141-0.045,0.201-0.084c0.059-0.037,0.107-0.088,0.143-0.15
		c0.036-0.064,0.054-0.141,0.054-0.23c0-0.092-0.02-0.17-0.06-0.232c-0.041-0.061-0.093-0.107-0.156-0.143
		c-0.064-0.033-0.136-0.059-0.217-0.074c-0.08-0.014-0.159-0.021-0.235-0.021h-0.674V86.883L42.975,86.883z M42.975,88.746h0.89
		c0.077,0,0.154-0.008,0.233-0.025c0.078-0.016,0.149-0.047,0.213-0.088c0.063-0.043,0.115-0.1,0.155-0.166
		c0.041-0.068,0.061-0.15,0.061-0.248c0-0.107-0.027-0.193-0.08-0.258c-0.053-0.066-0.119-0.115-0.2-0.15
		c-0.081-0.033-0.167-0.057-0.261-0.07c-0.093-0.012-0.18-0.018-0.261-0.018h-0.75V88.746L42.975,88.746z"/>
	<polygon fill="#8C9AA7" points="46.092,85.084 47.084,85.084 47.084,89.586 46.092,89.586 46.092,85.084 	"/>
	<polygon fill="#8C9AA7" points="47.987,85.084 49.335,85.084 51.25,88.213 51.262,88.213 51.262,85.084 52.255,85.084 
		52.255,89.586 50.957,89.586 48.992,86.381 48.979,86.381 48.979,89.586 47.987,89.586 47.987,85.084 	"/>
	<polygon fill="#8C9AA7" points="53.209,85.084 56.268,85.084 56.268,86 54.201,86 54.201,86.838 56.154,86.838 56.154,87.754 
		54.201,87.754 54.201,88.67 56.383,88.67 56.383,89.586 53.209,89.586 53.209,85.084 	"/>
	<path fill="#8C9AA7" d="M57.178,85.084h1.488c0.36,0,0.703,0.039,1.027,0.119c0.324,0.08,0.608,0.211,0.849,0.393
		c0.242,0.18,0.434,0.414,0.576,0.701c0.142,0.289,0.213,0.639,0.213,1.051c0,0.365-0.069,0.686-0.207,0.963
		c-0.138,0.277-0.323,0.51-0.556,0.699c-0.234,0.189-0.503,0.332-0.808,0.43c-0.305,0.098-0.626,0.146-0.961,0.146h-1.621V85.084
		L57.178,85.084z M58.17,88.67h0.515c0.229,0,0.442-0.023,0.639-0.07c0.197-0.047,0.368-0.123,0.512-0.232
		c0.144-0.107,0.258-0.25,0.341-0.426c0.082-0.176,0.124-0.391,0.124-0.645c0-0.221-0.042-0.412-0.124-0.576
		c-0.083-0.164-0.194-0.297-0.334-0.404c-0.14-0.105-0.305-0.186-0.493-0.238C59.161,86.025,58.963,86,58.755,86H58.17V88.67
		L58.17,88.67z"/>
	<path fill="#8C9AA7" d="M66.114,86.184c-0.081-0.102-0.19-0.178-0.328-0.227c-0.137-0.049-0.268-0.072-0.391-0.072
		c-0.072,0-0.146,0.008-0.222,0.023c-0.077,0.018-0.149,0.045-0.217,0.08c-0.068,0.037-0.123,0.084-0.165,0.145
		c-0.042,0.059-0.064,0.131-0.064,0.215c0,0.137,0.051,0.24,0.153,0.312c0.102,0.072,0.23,0.135,0.385,0.184
		c0.155,0.051,0.321,0.102,0.499,0.154c0.178,0.051,0.345,0.123,0.499,0.215c0.155,0.094,0.283,0.219,0.385,0.377
		c0.102,0.156,0.153,0.365,0.153,0.629c0,0.25-0.047,0.469-0.14,0.654c-0.093,0.188-0.22,0.342-0.379,0.465
		c-0.159,0.123-0.343,0.215-0.553,0.273c-0.21,0.061-0.431,0.088-0.665,0.088c-0.292,0-0.564-0.043-0.814-0.133
		c-0.25-0.088-0.483-0.232-0.699-0.432l0.706-0.777c0.101,0.137,0.23,0.242,0.384,0.316c0.155,0.074,0.315,0.109,0.481,0.109
		c0.08,0,0.162-0.008,0.245-0.027c0.082-0.02,0.156-0.047,0.222-0.086c0.066-0.037,0.119-0.086,0.159-0.146
		c0.04-0.059,0.061-0.129,0.061-0.209c0-0.137-0.052-0.244-0.156-0.322s-0.235-0.145-0.391-0.199
		c-0.157-0.057-0.327-0.111-0.509-0.166c-0.183-0.055-0.352-0.129-0.509-0.223c-0.157-0.094-0.287-0.217-0.391-0.369
		s-0.156-0.354-0.156-0.604c0-0.242,0.048-0.455,0.143-0.637c0.095-0.182,0.223-0.334,0.382-0.457s0.342-0.215,0.55-0.277
		c0.208-0.061,0.422-0.092,0.642-0.092c0.255,0,0.501,0.035,0.738,0.107c0.238,0.072,0.452,0.193,0.642,0.363L66.114,86.184
		L66.114,86.184z"/>
	<polygon fill="#8C9AA7" points="67.577,85.084 70.636,85.084 70.636,86 68.569,86 68.569,86.838 70.522,86.838 70.522,87.754 
		68.569,87.754 68.569,88.67 70.751,88.67 70.751,89.586 67.577,89.586 67.577,85.084 	"/>
	<path fill="#8C9AA7" d="M71.546,85.084h1.742c0.229,0,0.447,0.021,0.652,0.064c0.206,0.045,0.386,0.119,0.541,0.225
		c0.155,0.104,0.278,0.242,0.369,0.42c0.091,0.176,0.137,0.395,0.137,0.656c0,0.318-0.083,0.59-0.248,0.812
		c-0.166,0.223-0.408,0.363-0.726,0.422l1.145,1.902h-1.189l-0.941-1.799h-0.49v1.799h-0.992V85.084L71.546,85.084z M72.538,86.945
		h0.585c0.089,0,0.183-0.002,0.283-0.008c0.1-0.008,0.19-0.027,0.27-0.059c0.081-0.031,0.148-0.08,0.201-0.148
		c0.053-0.068,0.079-0.164,0.079-0.287c0-0.113-0.023-0.205-0.07-0.273c-0.046-0.068-0.106-0.119-0.178-0.156
		c-0.072-0.035-0.155-0.059-0.248-0.072c-0.093-0.012-0.184-0.02-0.273-0.02h-0.649V86.945L72.538,86.945z"/>
	<polygon fill="#8C9AA7" points="75.222,85.084 76.354,85.084 77.467,88.033 77.48,88.033 78.612,85.084 79.674,85.084 
		77.817,89.586 77.022,89.586 75.222,85.084 	"/>
	<polygon fill="#8C9AA7" points="80.132,85.084 81.124,85.084 81.124,89.586 80.132,89.586 80.132,85.084 	"/>
	<path fill="#8C9AA7" d="M84.972,86.254c-0.097-0.119-0.217-0.211-0.359-0.275c-0.142-0.062-0.306-0.094-0.493-0.094
		s-0.359,0.035-0.518,0.107s-0.297,0.174-0.414,0.303c-0.116,0.129-0.208,0.281-0.273,0.461c-0.066,0.178-0.099,0.371-0.099,0.578
		c0,0.213,0.033,0.406,0.099,0.582c0.065,0.176,0.156,0.33,0.27,0.459c0.115,0.129,0.249,0.229,0.404,0.301
		c0.155,0.072,0.321,0.107,0.499,0.107c0.204,0,0.384-0.041,0.541-0.127c0.157-0.084,0.286-0.201,0.388-0.355l0.827,0.617
		c-0.191,0.268-0.433,0.465-0.725,0.592c-0.293,0.127-0.594,0.189-0.904,0.189c-0.352,0-0.676-0.055-0.973-0.164
		s-0.553-0.268-0.769-0.475c-0.217-0.205-0.385-0.455-0.506-0.746c-0.121-0.293-0.181-0.619-0.181-0.98
		c0-0.359,0.06-0.688,0.181-0.979c0.121-0.293,0.289-0.543,0.506-0.748c0.216-0.205,0.472-0.363,0.769-0.473
		c0.297-0.111,0.621-0.166,0.973-0.166c0.128,0,0.26,0.012,0.398,0.035c0.138,0.021,0.273,0.061,0.407,0.109
		c0.134,0.053,0.262,0.119,0.385,0.205c0.123,0.084,0.233,0.189,0.331,0.312L84.972,86.254L84.972,86.254z"/>
	<polygon fill="#8C9AA7" points="86.422,85.084 89.482,85.084 89.482,86 87.415,86 87.415,86.838 89.367,86.838 89.367,87.754 
		87.415,87.754 87.415,88.67 89.596,88.67 89.596,89.586 86.422,89.586 86.422,85.084 	"/>
	<path fill="#8C9AA7" d="M92.617,86.184c-0.08-0.102-0.189-0.178-0.327-0.227c-0.138-0.049-0.268-0.072-0.391-0.072
		c-0.072,0-0.147,0.008-0.223,0.023c-0.076,0.018-0.148,0.045-0.216,0.08c-0.068,0.037-0.123,0.084-0.166,0.145
		c-0.042,0.059-0.063,0.131-0.063,0.215c0,0.137,0.051,0.24,0.153,0.312c0.101,0.072,0.23,0.135,0.384,0.184
		c0.155,0.051,0.322,0.102,0.5,0.154c0.178,0.051,0.344,0.123,0.499,0.215c0.155,0.094,0.283,0.219,0.385,0.377
		c0.101,0.156,0.152,0.365,0.152,0.629c0,0.25-0.046,0.469-0.14,0.654c-0.093,0.188-0.219,0.342-0.378,0.465
		s-0.343,0.215-0.553,0.273c-0.21,0.061-0.432,0.088-0.665,0.088c-0.293,0-0.564-0.043-0.814-0.133
		c-0.25-0.088-0.484-0.232-0.7-0.432l0.706-0.777c0.102,0.137,0.23,0.242,0.385,0.316c0.155,0.074,0.315,0.109,0.48,0.109
		c0.081,0,0.162-0.008,0.245-0.027s0.157-0.047,0.223-0.086c0.065-0.037,0.118-0.086,0.159-0.146c0.04-0.059,0.06-0.129,0.06-0.209
		c0-0.137-0.052-0.244-0.156-0.322s-0.234-0.145-0.391-0.199c-0.157-0.057-0.326-0.111-0.509-0.166
		c-0.182-0.055-0.352-0.129-0.509-0.223c-0.156-0.094-0.287-0.217-0.391-0.369s-0.155-0.354-0.155-0.604
		c0-0.242,0.047-0.455,0.143-0.637c0.095-0.182,0.222-0.334,0.381-0.457s0.343-0.215,0.55-0.277
		c0.208-0.061,0.422-0.092,0.643-0.092c0.254,0,0.5,0.035,0.738,0.107c0.237,0.072,0.451,0.193,0.642,0.363L92.617,86.184
		L92.617,86.184z"/>
	<path fill="#8C9AA7" d="M94.57,141.379c-0.097-0.119-0.217-0.211-0.359-0.273c-0.142-0.064-0.307-0.096-0.493-0.096
		c-0.187,0-0.36,0.035-0.519,0.107c-0.159,0.072-0.296,0.174-0.413,0.303s-0.208,0.281-0.274,0.461
		c-0.065,0.178-0.098,0.371-0.098,0.578c0,0.213,0.033,0.406,0.098,0.582c0.066,0.176,0.156,0.33,0.271,0.459
		c0.114,0.129,0.249,0.229,0.404,0.301c0.154,0.072,0.321,0.107,0.499,0.107c0.204,0,0.384-0.041,0.541-0.127
		c0.156-0.084,0.286-0.201,0.388-0.355l0.826,0.617c-0.19,0.268-0.432,0.465-0.725,0.592c-0.292,0.127-0.593,0.189-0.903,0.189
		c-0.352,0-0.676-0.055-0.973-0.164c-0.297-0.109-0.553-0.268-0.77-0.475c-0.216-0.205-0.384-0.455-0.505-0.746
		c-0.121-0.293-0.181-0.619-0.181-0.98c0-0.359,0.06-0.688,0.181-0.979c0.121-0.293,0.289-0.543,0.505-0.748
		c0.217-0.205,0.473-0.363,0.77-0.473c0.297-0.111,0.621-0.166,0.973-0.166c0.127,0,0.26,0.012,0.398,0.035
		c0.138,0.023,0.273,0.061,0.407,0.111c0.133,0.051,0.262,0.117,0.385,0.203c0.123,0.084,0.233,0.189,0.33,0.312L94.57,141.379
		L94.57,141.379z"/>
	<path fill="#8C9AA7" d="M95.74,142.459c0-0.359,0.061-0.688,0.182-0.979c0.12-0.293,0.289-0.543,0.505-0.748
		c0.217-0.205,0.473-0.363,0.77-0.473c0.297-0.111,0.621-0.166,0.973-0.166c0.352,0,0.676,0.055,0.973,0.166
		c0.297,0.109,0.554,0.268,0.77,0.473s0.385,0.455,0.505,0.748c0.121,0.291,0.182,0.619,0.182,0.979c0,0.361-0.061,0.688-0.182,0.98
		c-0.12,0.291-0.289,0.541-0.505,0.746c-0.216,0.207-0.473,0.365-0.77,0.475s-0.621,0.164-0.973,0.164
		c-0.352,0-0.676-0.055-0.973-0.164c-0.297-0.109-0.553-0.268-0.77-0.475c-0.216-0.205-0.385-0.455-0.505-0.746
		C95.801,143.146,95.74,142.82,95.74,142.459L95.74,142.459z M96.771,142.459c0,0.213,0.033,0.406,0.098,0.582
		c0.066,0.176,0.16,0.33,0.283,0.459c0.123,0.129,0.271,0.229,0.442,0.301c0.172,0.072,0.364,0.107,0.576,0.107
		s0.404-0.035,0.576-0.107c0.171-0.072,0.319-0.172,0.442-0.301s0.217-0.283,0.283-0.459c0.065-0.176,0.098-0.369,0.098-0.582
		c0-0.207-0.033-0.4-0.098-0.578c-0.066-0.18-0.16-0.332-0.283-0.461s-0.271-0.23-0.442-0.303c-0.172-0.072-0.364-0.107-0.576-0.107
		s-0.404,0.035-0.576,0.107c-0.171,0.072-0.319,0.174-0.442,0.303c-0.123,0.129-0.217,0.281-0.283,0.461
		C96.804,142.059,96.771,142.252,96.771,142.459L96.771,142.459z"/>
	<polygon fill="#8C9AA7" points="101.274,140.209 102.775,140.209 103.812,143.146 103.824,143.146 104.867,140.209 
		106.362,140.209 106.362,144.711 105.37,144.711 105.37,141.258 105.357,141.258 104.174,144.711 103.417,144.711 102.279,141.258 
		102.266,141.258 102.266,144.711 101.274,144.711 101.274,140.209 	"/>
	<path fill="#8C9AA7" d="M107.278,140.209h1.679c0.195,0,0.391,0.014,0.588,0.041c0.198,0.027,0.375,0.082,0.532,0.164
		c0.156,0.084,0.284,0.199,0.381,0.348c0.098,0.146,0.146,0.346,0.146,0.592c0,0.254-0.071,0.465-0.213,0.631
		c-0.142,0.168-0.329,0.289-0.562,0.361v0.012c0.148,0.021,0.283,0.062,0.403,0.125c0.121,0.061,0.225,0.139,0.312,0.234
		s0.154,0.207,0.2,0.334c0.047,0.127,0.07,0.264,0.07,0.408c0,0.236-0.051,0.436-0.152,0.594c-0.102,0.16-0.233,0.287-0.395,0.385
		c-0.161,0.098-0.342,0.168-0.543,0.209c-0.202,0.043-0.402,0.064-0.601,0.064h-1.845V140.209L107.278,140.209z M108.27,142.008
		h0.719c0.076,0,0.152-0.008,0.226-0.025c0.074-0.018,0.141-0.045,0.2-0.082c0.059-0.039,0.107-0.09,0.143-0.152
		c0.036-0.064,0.054-0.141,0.054-0.23c0-0.092-0.02-0.17-0.06-0.232c-0.04-0.061-0.092-0.107-0.156-0.143
		c-0.064-0.033-0.136-0.059-0.216-0.072c-0.081-0.016-0.159-0.023-0.236-0.023h-0.674V142.008L108.27,142.008z M108.27,143.871
		h0.891c0.076,0,0.153-0.008,0.232-0.025c0.078-0.016,0.149-0.047,0.213-0.088c0.064-0.043,0.115-0.1,0.156-0.166
		c0.04-0.068,0.06-0.15,0.06-0.248c0-0.107-0.026-0.191-0.079-0.258c-0.053-0.066-0.12-0.115-0.201-0.15
		c-0.08-0.033-0.167-0.057-0.26-0.07c-0.094-0.012-0.181-0.018-0.261-0.018h-0.751V143.871L108.27,143.871z"/>
	<polygon fill="#8C9AA7" points="111.387,140.209 112.379,140.209 112.379,144.711 111.387,144.711 111.387,140.209 	"/>
	<polygon fill="#8C9AA7" points="113.282,140.209 114.631,140.209 116.545,143.338 116.558,143.338 116.558,140.209 117.55,140.209 
		117.55,144.711 116.252,144.711 114.287,141.506 114.274,141.506 114.274,144.711 113.282,144.711 113.282,140.209 	"/>
	<polygon fill="#8C9AA7" points="118.504,140.209 121.563,140.209 121.563,141.125 119.496,141.125 119.496,141.963 
		121.449,141.963 121.449,142.879 119.496,142.879 119.496,143.795 121.678,143.795 121.678,144.711 118.504,144.711 
		118.504,140.209 	"/>
	<path fill="#8C9AA7" d="M122.473,140.209h1.488c0.361,0,0.703,0.039,1.027,0.121c0.325,0.078,0.608,0.211,0.85,0.391
		c0.241,0.18,0.433,0.414,0.575,0.703c0.142,0.287,0.213,0.637,0.213,1.049c0,0.365-0.069,0.686-0.207,0.963
		c-0.137,0.277-0.323,0.512-0.556,0.699c-0.233,0.189-0.503,0.332-0.808,0.43s-0.625,0.146-0.96,0.146h-1.622V140.209
		L122.473,140.209z M123.465,143.795h0.515c0.229,0,0.442-0.023,0.64-0.07c0.197-0.047,0.367-0.123,0.512-0.232
		c0.145-0.107,0.257-0.25,0.34-0.426c0.082-0.176,0.124-0.391,0.124-0.645c0-0.221-0.042-0.412-0.124-0.576
		c-0.083-0.164-0.194-0.297-0.334-0.404c-0.14-0.105-0.304-0.186-0.493-0.238s-0.387-0.078-0.595-0.078h-0.585V143.795
		L123.465,143.795z"/>
	<path fill="#8C9AA7" d="M131.409,141.309c-0.08-0.102-0.19-0.178-0.327-0.227c-0.138-0.049-0.269-0.072-0.392-0.072
		c-0.072,0-0.146,0.008-0.222,0.025c-0.076,0.018-0.149,0.043-0.216,0.078c-0.068,0.037-0.123,0.084-0.166,0.145
		c-0.042,0.059-0.063,0.131-0.063,0.215c0,0.137,0.051,0.24,0.152,0.312c0.102,0.072,0.23,0.135,0.385,0.186
		c0.155,0.049,0.321,0.1,0.499,0.152c0.178,0.051,0.345,0.123,0.5,0.215c0.154,0.094,0.283,0.219,0.384,0.377
		c0.102,0.156,0.153,0.365,0.153,0.629c0,0.25-0.047,0.469-0.14,0.656c-0.093,0.186-0.219,0.34-0.378,0.463
		s-0.344,0.215-0.554,0.273c-0.21,0.061-0.431,0.088-0.664,0.088c-0.293,0-0.564-0.043-0.814-0.133
		c-0.251-0.088-0.484-0.232-0.7-0.432l0.706-0.777c0.102,0.137,0.23,0.242,0.385,0.316c0.155,0.074,0.315,0.109,0.48,0.109
		c0.081,0,0.162-0.008,0.245-0.027s0.157-0.047,0.222-0.086c0.066-0.037,0.119-0.086,0.159-0.146
		c0.041-0.059,0.061-0.129,0.061-0.209c0-0.137-0.052-0.244-0.156-0.322s-0.234-0.145-0.391-0.199
		c-0.157-0.057-0.327-0.111-0.509-0.166c-0.182-0.055-0.352-0.129-0.509-0.223s-0.287-0.217-0.391-0.369s-0.156-0.354-0.156-0.604
		c0-0.242,0.048-0.455,0.143-0.637c0.096-0.182,0.223-0.334,0.382-0.457s0.342-0.215,0.55-0.277
		c0.208-0.061,0.422-0.092,0.643-0.092c0.254,0,0.5,0.035,0.737,0.107c0.238,0.072,0.452,0.193,0.643,0.363L131.409,141.309
		L131.409,141.309z"/>
	<polygon fill="#8C9AA7" points="132.872,140.209 135.931,140.209 135.931,141.125 133.864,141.125 133.864,141.963 
		135.817,141.963 135.817,142.879 133.864,142.879 133.864,143.795 136.046,143.795 136.046,144.711 132.872,144.711 
		132.872,140.209 	"/>
	<path fill="#8C9AA7" d="M136.841,140.209h1.743c0.229,0,0.446,0.021,0.652,0.066c0.205,0.043,0.385,0.117,0.54,0.223
		c0.154,0.104,0.277,0.242,0.369,0.42c0.091,0.176,0.137,0.395,0.137,0.656c0,0.318-0.083,0.59-0.248,0.812
		c-0.166,0.223-0.407,0.363-0.725,0.422l1.145,1.902h-1.19l-0.94-1.799h-0.49v1.799h-0.992V140.209L136.841,140.209z
		 M137.833,142.07h0.585c0.089,0,0.185-0.002,0.283-0.008c0.1-0.008,0.19-0.027,0.271-0.057c0.08-0.033,0.147-0.082,0.2-0.15
		c0.054-0.068,0.079-0.164,0.079-0.287c0-0.113-0.022-0.205-0.069-0.273c-0.047-0.066-0.105-0.119-0.179-0.154
		c-0.072-0.037-0.154-0.061-0.248-0.074c-0.093-0.012-0.184-0.02-0.272-0.02h-0.649V142.07L137.833,142.07z"/>
	<polygon fill="#8C9AA7" points="140.517,140.209 141.649,140.209 142.762,143.158 142.775,143.158 143.907,140.209 
		144.969,140.209 143.112,144.711 142.317,144.711 140.517,140.209 	"/>
	<polygon fill="#8C9AA7" points="145.427,140.209 146.42,140.209 146.42,144.711 145.427,144.711 145.427,140.209 	"/>
	<path fill="#8C9AA7" d="M150.269,141.379c-0.099-0.119-0.219-0.211-0.36-0.273c-0.142-0.064-0.306-0.096-0.493-0.096
		c-0.186,0-0.359,0.035-0.518,0.107c-0.159,0.072-0.297,0.174-0.413,0.303c-0.117,0.129-0.208,0.281-0.274,0.461
		c-0.065,0.178-0.099,0.371-0.099,0.578c0,0.213,0.033,0.406,0.099,0.582c0.066,0.176,0.156,0.33,0.271,0.459
		s0.249,0.229,0.403,0.301c0.155,0.072,0.321,0.107,0.5,0.107c0.203,0,0.384-0.041,0.54-0.127c0.157-0.084,0.286-0.201,0.389-0.355
		l0.826,0.617c-0.19,0.268-0.433,0.465-0.725,0.592c-0.293,0.127-0.594,0.189-0.903,0.189c-0.352,0-0.677-0.055-0.973-0.164
		c-0.297-0.109-0.554-0.268-0.77-0.475c-0.217-0.205-0.386-0.455-0.507-0.746c-0.12-0.293-0.181-0.619-0.181-0.98
		c0-0.359,0.061-0.688,0.181-0.979c0.121-0.293,0.29-0.543,0.507-0.748c0.216-0.205,0.473-0.363,0.77-0.473
		c0.296-0.111,0.621-0.166,0.973-0.166c0.127,0,0.26,0.012,0.397,0.035s0.273,0.061,0.407,0.111s0.262,0.117,0.385,0.203
		c0.123,0.084,0.232,0.189,0.331,0.312L150.269,141.379L150.269,141.379z"/>
	<polygon fill="#8C9AA7" points="151.718,140.209 154.777,140.209 154.777,141.125 152.71,141.125 152.71,141.963 154.663,141.963 
		154.663,142.879 152.71,142.879 152.71,143.795 154.893,143.795 154.893,144.711 151.718,144.711 151.718,140.209 	"/>
	<path fill="#8C9AA7" d="M157.913,141.309c-0.081-0.102-0.19-0.178-0.328-0.227s-0.268-0.072-0.391-0.072
		c-0.072,0-0.146,0.008-0.224,0.025c-0.075,0.018-0.147,0.043-0.216,0.078c-0.067,0.037-0.123,0.084-0.165,0.145
		c-0.043,0.059-0.063,0.131-0.063,0.215c0,0.137,0.051,0.24,0.152,0.312c0.103,0.072,0.23,0.135,0.386,0.186
		c0.153,0.049,0.32,0.1,0.499,0.152c0.178,0.051,0.344,0.123,0.499,0.215c0.154,0.094,0.282,0.219,0.385,0.377
		c0.102,0.156,0.153,0.365,0.153,0.629c0,0.25-0.048,0.469-0.141,0.656c-0.094,0.186-0.22,0.34-0.379,0.463
		s-0.343,0.215-0.553,0.273c-0.21,0.061-0.433,0.088-0.665,0.088c-0.292,0-0.564-0.043-0.814-0.133
		c-0.25-0.088-0.482-0.232-0.698-0.432l0.705-0.777c0.102,0.137,0.23,0.242,0.385,0.316s0.314,0.109,0.48,0.109
		c0.08,0,0.162-0.008,0.244-0.027c0.083-0.02,0.157-0.047,0.223-0.086c0.066-0.037,0.119-0.086,0.159-0.146
		c0.04-0.059,0.061-0.129,0.061-0.209c0-0.137-0.053-0.244-0.155-0.322c-0.104-0.078-0.235-0.145-0.392-0.199
		c-0.156-0.057-0.326-0.111-0.509-0.166s-0.352-0.129-0.509-0.223s-0.287-0.217-0.391-0.369c-0.104-0.152-0.156-0.354-0.156-0.604
		c0-0.242,0.047-0.455,0.143-0.637s0.224-0.334,0.383-0.457c0.158-0.123,0.342-0.215,0.55-0.277
		c0.207-0.061,0.422-0.092,0.642-0.092c0.255,0,0.5,0.035,0.738,0.107c0.237,0.072,0.451,0.193,0.642,0.363L157.913,141.309
		L157.913,141.309z"/>
	<path fill="#4D384B" d="M95.381,37.362c0.306,0.204,0.91,0.366,1.462,0.366c1.352,0,2.006-0.765,2.006-1.649
		c0-0.842-0.493-1.309-1.462-1.683c-0.79-0.306-1.139-0.57-1.139-1.105c0-0.391,0.298-0.859,1.08-0.859
		c0.518,0,0.901,0.17,1.088,0.272l0.204-0.603c-0.255-0.145-0.68-0.281-1.267-0.281c-1.113,0-1.853,0.663-1.853,1.556
		c0,0.807,0.578,1.292,1.513,1.623c0.774,0.298,1.08,0.604,1.08,1.139c0,0.578-0.442,0.978-1.199,0.978
		c-0.51,0-0.994-0.17-1.326-0.374L95.381,37.362L95.381,37.362z"/>
	<path fill="#4D384B" d="M103.278,33.529h-0.748v2.524c0,0.136-0.026,0.272-0.068,0.383c-0.136,0.331-0.485,0.68-0.986,0.68
		c-0.68,0-0.918-0.527-0.918-1.309v-2.278H99.81v2.405c0,1.445,0.773,1.802,1.419,1.802c0.731,0,1.165-0.433,1.36-0.765h0.017
		l0.043,0.672h0.663c-0.026-0.323-0.034-0.697-0.034-1.122V33.529L103.278,33.529z"/>
	<path fill="#4D384B" d="M105.131,37.643l0.034-0.68h0.025c0.306,0.544,0.782,0.773,1.377,0.773c0.918,0,1.845-0.731,1.845-2.201
		c0.008-1.25-0.714-2.1-1.734-2.1c-0.663,0-1.139,0.298-1.403,0.757h-0.017v-2.584h-0.739v4.972c0,0.366-0.017,0.782-0.034,1.063
		H105.131L105.131,37.643z M105.258,35.254c0-0.119,0.026-0.221,0.043-0.306c0.153-0.569,0.629-0.918,1.139-0.918
		c0.799,0,1.224,0.706,1.224,1.53c0,0.944-0.468,1.581-1.25,1.581c-0.544,0-0.977-0.357-1.122-0.875
		c-0.017-0.085-0.034-0.179-0.034-0.272V35.254L105.258,35.254z"/>
	<path fill="#4D384B" d="M109.066,37.447c0.289,0.17,0.706,0.281,1.156,0.281c0.978,0,1.539-0.51,1.539-1.233
		c0-0.612-0.366-0.969-1.08-1.241c-0.535-0.204-0.782-0.357-0.782-0.697c0-0.306,0.247-0.561,0.689-0.561
		c0.382,0,0.68,0.136,0.841,0.238l0.187-0.544c-0.229-0.136-0.595-0.255-1.011-0.255c-0.884,0-1.42,0.544-1.42,1.207
		c0,0.493,0.349,0.901,1.088,1.165c0.553,0.204,0.765,0.399,0.765,0.756c0,0.34-0.255,0.612-0.799,0.612
		c-0.374,0-0.765-0.153-0.986-0.297L109.066,37.447L109.066,37.447z"/>
	<path fill="#4D384B" d="M113.469,37.643v-4.114h-0.748v4.114H113.469L113.469,37.643z M113.095,31.905
		c-0.272,0-0.467,0.204-0.467,0.468c0,0.255,0.187,0.459,0.45,0.459c0.298,0,0.485-0.204,0.476-0.459
		C113.554,32.109,113.376,31.905,113.095,31.905L113.095,31.905z"/>
	<path fill="#4D384B" d="M117.515,31.608v2.456h-0.017c-0.187-0.331-0.612-0.629-1.241-0.629c-1.003,0-1.853,0.842-1.844,2.21
		c0,1.25,0.765,2.091,1.759,2.091c0.672,0,1.173-0.348,1.403-0.807h0.017l0.034,0.714h0.671c-0.025-0.281-0.034-0.697-0.034-1.063
		v-4.972H117.515L117.515,31.608z M117.515,35.917c0,0.119-0.008,0.221-0.034,0.323c-0.136,0.561-0.595,0.893-1.096,0.893
		c-0.808,0-1.216-0.689-1.216-1.522c0-0.909,0.459-1.589,1.233-1.589c0.561,0,0.969,0.391,1.079,0.867
		c0.026,0.093,0.034,0.221,0.034,0.314V35.917L117.515,35.917z"/>
	<path fill="#4D384B" d="M118.96,33.529l1.522,3.791c0.034,0.093,0.051,0.153,0.051,0.195c0,0.043-0.026,0.102-0.06,0.179
		c-0.17,0.382-0.425,0.671-0.629,0.833c-0.221,0.188-0.467,0.306-0.654,0.365l0.187,0.629c0.187-0.034,0.552-0.161,0.918-0.484
		c0.51-0.442,0.875-1.165,1.411-2.576l1.122-2.932h-0.791l-0.816,2.414c-0.102,0.297-0.187,0.612-0.263,0.858h-0.017
		c-0.068-0.246-0.17-0.569-0.264-0.841l-0.901-2.431H118.96L118.96,33.529z"/>
	<path fill="#4D384B" d="M125.335,37.643h0.74v-2.295c0.17,0.042,0.374,0.051,0.595,0.051c0.722,0,1.36-0.213,1.751-0.629
		c0.289-0.298,0.442-0.706,0.442-1.224c0-0.51-0.187-0.927-0.502-1.199c-0.34-0.306-0.875-0.476-1.606-0.476
		c-0.595,0-1.063,0.051-1.42,0.111V37.643L125.335,37.643z M126.075,32.517c0.127-0.034,0.374-0.059,0.697-0.059
		c0.816,0,1.351,0.365,1.351,1.122c0,0.79-0.544,1.224-1.436,1.224c-0.247,0-0.451-0.017-0.612-0.06V32.517L126.075,32.517z"/>
	<path fill="#4D384B" d="M131.574,33.435c-1.139,0-2.04,0.808-2.04,2.185c0,1.3,0.859,2.116,1.972,2.116
		c0.995,0,2.049-0.663,2.049-2.184C133.555,34.294,132.756,33.435,131.574,33.435L131.574,33.435z M131.557,33.996
		c0.884,0,1.233,0.884,1.233,1.581c0,0.927-0.536,1.598-1.25,1.598c-0.731,0-1.249-0.68-1.249-1.581
		C130.291,34.812,130.673,33.996,131.557,33.996L131.557,33.996z"/>
	<path fill="#4D384B" d="M134.498,37.643h0.74V35.45c0-0.128,0.017-0.247,0.034-0.349c0.102-0.561,0.476-0.96,1.003-0.96
		c0.102,0,0.178,0.008,0.255,0.025v-0.705c-0.068-0.017-0.128-0.026-0.213-0.026c-0.501,0-0.952,0.349-1.14,0.901h-0.033
		l-0.025-0.807h-0.655c0.026,0.382,0.034,0.799,0.034,1.283V37.643L134.498,37.643z"/>
	<path fill="#4D384B" d="M137.448,32.543v0.986h-0.638v0.569h0.638v2.244c0,0.485,0.076,0.85,0.289,1.071
		c0.178,0.204,0.459,0.315,0.807,0.315c0.289,0,0.52-0.043,0.663-0.102l-0.034-0.561c-0.093,0.025-0.237,0.051-0.433,0.051
		c-0.417,0-0.562-0.289-0.562-0.799v-2.219h1.071v-0.569h-1.071v-1.182L137.448,32.543L137.448,32.543z"/>
	<path fill="#4D384B" d="M140.907,37.643v-3.545h0.995v-0.569h-0.995v-0.221c0-0.629,0.162-1.19,0.799-1.19
		c0.213,0,0.366,0.042,0.476,0.093l0.103-0.578c-0.145-0.059-0.374-0.119-0.637-0.119c-0.35,0-0.724,0.111-1.003,0.383
		c-0.35,0.331-0.477,0.858-0.477,1.436v0.196h-0.578v0.569h0.578v3.545H140.907L140.907,37.643z"/>
	<path fill="#4D384B" d="M144.316,33.435c-1.14,0-2.04,0.808-2.04,2.185c0,1.3,0.857,2.116,1.972,2.116
		c0.994,0,2.048-0.663,2.048-2.184C146.296,34.294,145.497,33.435,144.316,33.435L144.316,33.435z M144.299,33.996
		c0.884,0,1.232,0.884,1.232,1.581c0,0.927-0.535,1.598-1.249,1.598c-0.731,0-1.25-0.68-1.25-1.581
		C143.032,34.812,143.415,33.996,144.299,33.996L144.299,33.996z"/>
	<polygon fill="#4D384B" points="147.24,37.643 147.988,37.643 147.988,31.608 147.24,31.608 147.24,37.643 	"/>
	<path fill="#4D384B" d="M149.994,37.643v-4.114h-0.748v4.114H149.994L149.994,37.643z M149.62,31.905
		c-0.272,0-0.468,0.204-0.468,0.468c0,0.255,0.187,0.459,0.451,0.459c0.297,0,0.483-0.204,0.476-0.459
		C150.079,32.109,149.9,31.905,149.62,31.905L149.62,31.905z"/>
	<path fill="#4D384B" d="M152.978,33.435c-1.14,0-2.04,0.808-2.04,2.185c0,1.3,0.858,2.116,1.972,2.116
		c0.995,0,2.049-0.663,2.049-2.184C154.958,34.294,154.159,33.435,152.978,33.435L152.978,33.435z M152.96,33.996
		c0.884,0,1.233,0.884,1.233,1.581c0,0.927-0.536,1.598-1.25,1.598c-0.731,0-1.249-0.68-1.249-1.581
		C151.694,34.812,152.076,33.996,152.96,33.996L152.96,33.996z"/>
	<polygon fill="#4D384B" points="178.158,118.742 178.904,118.742 178.904,113.652 180.651,113.652 180.651,113.025 176.42,113.025 
		176.42,113.652 178.158,113.652 178.158,118.742 	"/>
	<path fill="#4D384B" d="M184.562,116.824c0.008-0.074,0.024-0.193,0.024-0.348c0-0.754-0.355-1.932-1.696-1.932
		c-1.195,0-1.925,0.975-1.925,2.213s0.755,2.068,2.02,2.068c0.651,0,1.102-0.135,1.364-0.254l-0.127-0.533
		c-0.279,0.117-0.602,0.211-1.137,0.211c-0.746,0-1.391-0.416-1.407-1.426H184.562L184.562,116.824z M181.687,116.291
		c0.059-0.518,0.39-1.213,1.145-1.213c0.839,0,1.043,0.738,1.034,1.213H181.687L181.687,116.291z"/>
	<path fill="#4D384B" d="M188.31,118.029c-0.213,0.094-0.492,0.203-0.916,0.203c-0.814,0-1.425-0.584-1.425-1.535
		c0-0.855,0.509-1.551,1.45-1.551c0.407,0,0.688,0.092,0.865,0.195l0.169-0.578c-0.203-0.102-0.593-0.211-1.034-0.211
		c-1.34,0-2.205,0.916-2.205,2.18c0,1.254,0.807,2.094,2.044,2.094c0.552,0,0.983-0.135,1.179-0.236L188.31,118.029L188.31,118.029z
		"/>
	<path fill="#4D384B" d="M189.311,118.742h0.745v-2.477c0-0.145,0.01-0.254,0.052-0.357c0.136-0.406,0.517-0.744,1.001-0.744
		c0.704,0,0.949,0.559,0.949,1.221v2.357h0.746v-2.443c0-1.416-0.882-1.754-1.433-1.754c-0.28,0-0.543,0.084-0.764,0.211
		c-0.229,0.127-0.415,0.314-0.534,0.525h-0.018v-2.561h-0.745V118.742L189.311,118.742z"/>
	<path fill="#4D384B" d="M194.018,118.742h0.745v-2.469c0-0.127,0.018-0.254,0.052-0.348c0.127-0.414,0.509-0.762,1-0.762
		c0.704,0,0.949,0.551,0.949,1.213v2.365h0.747v-2.451c0-1.408-0.882-1.746-1.45-1.746c-0.679,0-1.153,0.381-1.357,0.77h-0.016
		l-0.043-0.678h-0.661c0.024,0.34,0.034,0.688,0.034,1.111V118.742L194.018,118.742z"/>
	<path fill="#4D384B" d="M199.47,118.742v-4.105h-0.747v4.105H199.47L199.47,118.742z M199.096,113.018
		c-0.271,0-0.466,0.203-0.466,0.467c0,0.254,0.188,0.457,0.449,0.457c0.297,0,0.484-0.203,0.475-0.457
		C199.554,113.221,199.376,113.018,199.096,113.018L199.096,113.018z"/>
	<path fill="#4D384B" d="M203.506,118.029c-0.212,0.094-0.492,0.203-0.916,0.203c-0.813,0-1.424-0.584-1.424-1.535
		c0-0.855,0.508-1.551,1.45-1.551c0.407,0,0.687,0.092,0.865,0.195l0.169-0.578c-0.203-0.102-0.594-0.211-1.034-0.211
		c-1.34,0-2.205,0.916-2.205,2.18c0,1.254,0.805,2.094,2.044,2.094c0.551,0,0.983-0.135,1.178-0.236L203.506,118.029
		L203.506,118.029z"/>
	<path fill="#4D384B" d="M207.458,118.742c-0.051-0.279-0.068-0.629-0.068-0.984v-1.535c0-0.822-0.305-1.678-1.56-1.678
		c-0.517,0-1.009,0.143-1.349,0.363l0.17,0.492c0.288-0.186,0.687-0.305,1.068-0.305c0.84,0,0.933,0.611,0.933,0.949v0.086
		c-1.585-0.01-2.467,0.533-2.467,1.525c0,0.594,0.424,1.18,1.255,1.18c0.585,0,1.025-0.289,1.255-0.611h0.024l0.061,0.518H207.458
		L207.458,118.742z M206.669,117.359c0,0.076-0.017,0.16-0.042,0.238c-0.119,0.346-0.458,0.686-0.992,0.686
		c-0.382,0-0.704-0.229-0.704-0.713c0-0.797,0.925-0.939,1.738-0.924V117.359L206.669,117.359z"/>
	<polygon fill="#4D384B" points="208.594,118.742 209.341,118.742 209.341,112.721 208.594,112.721 208.594,118.742 	"/>
	<path fill="#4D384B" d="M215.37,116.943l0.611,1.799h0.789l-1.951-5.717h-0.891l-1.941,5.717h0.763l0.594-1.799H215.37
		L215.37,116.943z M213.496,116.367l0.56-1.654c0.11-0.348,0.203-0.695,0.288-1.033h0.018c0.085,0.33,0.17,0.67,0.297,1.043
		l0.56,1.645H213.496L213.496,116.367z"/>
	<path fill="#4D384B" d="M217.295,118.547c0.289,0.17,0.704,0.279,1.154,0.279c0.975,0,1.535-0.508,1.535-1.229
		c0-0.611-0.365-0.967-1.077-1.238c-0.535-0.205-0.78-0.357-0.78-0.695c0-0.307,0.245-0.561,0.687-0.561
		c0.382,0,0.679,0.135,0.84,0.238l0.187-0.543c-0.229-0.137-0.594-0.254-1.01-0.254c-0.882,0-1.416,0.541-1.416,1.203
		c0,0.492,0.348,0.898,1.086,1.162c0.551,0.203,0.763,0.398,0.763,0.756c0,0.338-0.255,0.609-0.797,0.609
		c-0.373,0-0.764-0.152-0.983-0.297L217.295,118.547L217.295,118.547z"/>
	<path fill="#4D384B" d="M220.654,118.547c0.288,0.17,0.704,0.279,1.153,0.279c0.975,0,1.534-0.508,1.534-1.229
		c0-0.611-0.364-0.967-1.077-1.238c-0.533-0.205-0.779-0.357-0.779-0.695c0-0.307,0.246-0.561,0.687-0.561
		c0.381,0,0.679,0.135,0.839,0.238l0.188-0.543c-0.229-0.137-0.594-0.254-1.009-0.254c-0.883,0-1.417,0.541-1.417,1.203
		c0,0.492,0.348,0.898,1.086,1.162c0.551,0.203,0.763,0.398,0.763,0.756c0,0.338-0.254,0.609-0.797,0.609
		c-0.373,0-0.763-0.152-0.984-0.297L220.654,118.547L220.654,118.547z"/>
	<path fill="#4D384B" d="M225.047,118.742v-4.105H224.3v4.105H225.047L225.047,118.742z M224.673,113.018
		c-0.271,0-0.466,0.203-0.466,0.467c0,0.254,0.188,0.457,0.449,0.457c0.297,0,0.483-0.203,0.475-0.457
		C225.131,113.221,224.953,113.018,224.673,113.018L224.673,113.018z"/>
	<path fill="#4D384B" d="M225.996,118.547c0.289,0.17,0.704,0.279,1.154,0.279c0.975,0,1.535-0.508,1.535-1.229
		c0-0.611-0.365-0.967-1.077-1.238c-0.535-0.205-0.781-0.357-0.781-0.695c0-0.307,0.246-0.561,0.687-0.561
		c0.383,0,0.68,0.135,0.841,0.238l0.187-0.543c-0.229-0.137-0.594-0.254-1.01-0.254c-0.882,0-1.416,0.541-1.416,1.203
		c0,0.492,0.348,0.898,1.086,1.162c0.551,0.203,0.763,0.398,0.763,0.756c0,0.338-0.255,0.609-0.797,0.609
		c-0.373,0-0.764-0.152-0.984-0.297L225.996,118.547L225.996,118.547z"/>
	<path fill="#4D384B" d="M229.813,113.652v0.984h-0.637v0.568h0.637v2.238c0,0.484,0.075,0.85,0.288,1.07
		c0.178,0.203,0.458,0.312,0.806,0.312c0.288,0,0.517-0.043,0.661-0.102l-0.034-0.559c-0.093,0.023-0.237,0.051-0.432,0.051
		c-0.416,0-0.561-0.289-0.561-0.797v-2.215h1.068v-0.568h-1.068v-1.178L229.813,113.652L229.813,113.652z"/>
	<path fill="#4D384B" d="M235.401,118.742c-0.051-0.279-0.068-0.629-0.068-0.984v-1.535c0-0.822-0.305-1.678-1.56-1.678
		c-0.518,0-1.01,0.143-1.349,0.363l0.169,0.492c0.289-0.186,0.688-0.305,1.069-0.305c0.839,0,0.933,0.611,0.933,0.949v0.086
		c-1.586-0.01-2.468,0.533-2.468,1.525c0,0.594,0.424,1.18,1.255,1.18c0.585,0,1.026-0.289,1.255-0.611h0.025l0.06,0.518H235.401
		L235.401,118.742z M234.613,117.359c0,0.076-0.018,0.16-0.043,0.238c-0.119,0.346-0.458,0.686-0.992,0.686
		c-0.382,0-0.704-0.229-0.704-0.713c0-0.797,0.924-0.939,1.739-0.924V117.359L234.613,117.359z"/>
	<path fill="#4D384B" d="M236.538,118.742h0.746v-2.469c0-0.127,0.017-0.254,0.051-0.348c0.127-0.414,0.509-0.762,1-0.762
		c0.704,0,0.95,0.551,0.95,1.213v2.365h0.747v-2.451c0-1.408-0.882-1.746-1.451-1.746c-0.678,0-1.153,0.381-1.355,0.77h-0.018
		l-0.043-0.678h-0.661c0.025,0.34,0.034,0.688,0.034,1.111V118.742L236.538,118.742z"/>
	<path fill="#4D384B" d="M244.043,118.029c-0.212,0.094-0.492,0.203-0.916,0.203c-0.813,0-1.425-0.584-1.425-1.535
		c0-0.855,0.509-1.551,1.45-1.551c0.407,0,0.687,0.092,0.865,0.195l0.17-0.578c-0.204-0.102-0.595-0.211-1.035-0.211
		c-1.34,0-2.205,0.916-2.205,2.18c0,1.254,0.806,2.094,2.044,2.094c0.551,0,0.984-0.135,1.179-0.236L244.043,118.029
		L244.043,118.029z"/>
	<path fill="#4D384B" d="M248.342,116.824c0.009-0.074,0.026-0.193,0.026-0.348c0-0.754-0.356-1.932-1.696-1.932
		c-1.195,0-1.925,0.975-1.925,2.213s0.754,2.068,2.018,2.068c0.653,0,1.103-0.135,1.365-0.254l-0.127-0.533
		c-0.28,0.117-0.602,0.211-1.136,0.211c-0.746,0-1.391-0.416-1.408-1.426H248.342L248.342,116.824z M245.468,116.291
		c0.06-0.518,0.391-1.213,1.145-1.213c0.84,0,1.043,0.738,1.035,1.213H245.468L245.468,116.291z"/>
	<path fill="#4D384B" d="M5.538,118.742h0.738v-2.291c0.17,0.043,0.373,0.053,0.594,0.053c0.721,0,1.357-0.213,1.747-0.629
		c0.288-0.297,0.441-0.703,0.441-1.221c0-0.51-0.187-0.924-0.501-1.195c-0.339-0.307-0.873-0.477-1.602-0.477
		c-0.594,0-1.06,0.051-1.417,0.111V118.742L5.538,118.742z M6.276,113.629c0.127-0.035,0.373-0.061,0.696-0.061
		c0.814,0,1.348,0.365,1.348,1.119c0,0.789-0.543,1.221-1.433,1.221c-0.246,0-0.45-0.016-0.611-0.059V113.629L6.276,113.629z"/>
	<path fill="#4D384B" d="M9.919,118.742h0.737v-2.188c0-0.129,0.017-0.246,0.034-0.348c0.102-0.561,0.475-0.959,1.001-0.959
		c0.102,0,0.178,0.008,0.254,0.025v-0.705c-0.067-0.016-0.127-0.023-0.212-0.023c-0.5,0-0.949,0.346-1.136,0.898h-0.034
		l-0.025-0.807H9.885c0.025,0.383,0.034,0.797,0.034,1.281V118.742L9.919,118.742z"/>
	<path fill="#4D384B" d="M14.324,114.545c-1.136,0-2.035,0.805-2.035,2.178c0,1.299,0.856,2.113,1.967,2.113
		c0.993,0,2.044-0.662,2.044-2.182C16.3,115.4,15.503,114.545,14.324,114.545L14.324,114.545z M14.307,115.104
		c0.882,0,1.23,0.881,1.23,1.578c0,0.924-0.534,1.594-1.247,1.594c-0.729,0-1.246-0.678-1.246-1.578
		C13.044,115.918,13.425,115.104,14.307,115.104L14.307,115.104z"/>
	<path fill="#4D384B" d="M20.125,114.637l-0.034,0.619h-0.017c-0.178-0.338-0.568-0.711-1.281-0.711
		c-0.941,0-1.848,0.787-1.848,2.178c0,1.137,0.729,2.002,1.747,2.002c0.636,0,1.077-0.305,1.306-0.686h0.017v0.457
		c0,1.033-0.56,1.434-1.323,1.434c-0.509,0-0.933-0.154-1.205-0.322l-0.186,0.568c0.331,0.219,0.873,0.338,1.365,0.338
		c0.517,0,1.094-0.119,1.493-0.492c0.398-0.355,0.585-0.932,0.585-1.873v-2.383c0-0.5,0.017-0.832,0.034-1.129H20.125
		L20.125,114.637z M20.006,116.996c0,0.127-0.017,0.27-0.059,0.396c-0.161,0.475-0.577,0.764-1.035,0.764
		c-0.806,0-1.213-0.67-1.213-1.475c0-0.951,0.509-1.553,1.222-1.553c0.542,0,0.907,0.355,1.043,0.789
		c0.034,0.102,0.042,0.213,0.042,0.34V116.996L20.006,116.996z"/>
	<path fill="#4D384B" d="M21.982,118.742h0.738v-2.188c0-0.129,0.017-0.246,0.034-0.348c0.101-0.561,0.475-0.959,1-0.959
		c0.102,0,0.179,0.008,0.255,0.025v-0.705c-0.068-0.016-0.127-0.023-0.212-0.023c-0.501,0-0.95,0.346-1.137,0.898h-0.033
		l-0.026-0.807h-0.653c0.026,0.383,0.034,0.797,0.034,1.281V118.742L21.982,118.742z"/>
	<path fill="#4D384B" d="M27.706,118.742c-0.051-0.279-0.068-0.629-0.068-0.984v-1.535c0-0.822-0.305-1.678-1.56-1.678
		c-0.517,0-1.009,0.143-1.348,0.363l0.169,0.492c0.289-0.186,0.687-0.305,1.069-0.305c0.839,0,0.933,0.611,0.933,0.949v0.086
		c-1.586-0.01-2.468,0.533-2.468,1.525c0,0.594,0.424,1.18,1.255,1.18c0.585,0,1.026-0.289,1.255-0.611h0.026l0.059,0.518H27.706
		L27.706,118.742z M26.918,117.359c0,0.076-0.017,0.16-0.043,0.238c-0.118,0.346-0.458,0.686-0.992,0.686
		c-0.382,0-0.704-0.229-0.704-0.713c0-0.797,0.925-0.939,1.739-0.924V117.359L26.918,117.359z"/>
	<path fill="#4D384B" d="M28.843,118.742h0.729v-2.477c0-0.127,0.017-0.254,0.059-0.365c0.119-0.373,0.458-0.746,0.925-0.746
		c0.568,0,0.856,0.475,0.856,1.127v2.461h0.73v-2.535c0-0.137,0.025-0.271,0.059-0.373c0.127-0.365,0.458-0.68,0.882-0.68
		c0.602,0,0.89,0.475,0.89,1.264v2.324h0.73v-2.418c0-1.424-0.806-1.779-1.349-1.779c-0.39,0-0.661,0.102-0.907,0.287
		c-0.17,0.127-0.331,0.305-0.458,0.533h-0.017c-0.178-0.482-0.602-0.82-1.162-0.82c-0.678,0-1.06,0.363-1.289,0.754h-0.025
		l-0.034-0.662h-0.653c0.025,0.34,0.034,0.688,0.034,1.111V118.742L28.843,118.742z"/>
	<path fill="#4D384B" d="M38.527,118.742v-3.537h0.993v-0.568h-0.993v-0.219c0-0.629,0.162-1.189,0.798-1.189
		c0.212,0,0.364,0.043,0.474,0.094l0.102-0.576c-0.144-0.059-0.373-0.119-0.636-0.119c-0.348,0-0.721,0.109-1.001,0.383
		c-0.347,0.33-0.474,0.855-0.474,1.432v0.195h-0.577v0.568h0.577v3.537H38.527L38.527,118.742z"/>
	<path fill="#4D384B" d="M41.822,114.545c-1.136,0-2.035,0.805-2.035,2.178c0,1.299,0.856,2.113,1.967,2.113
		c0.992,0,2.044-0.662,2.044-2.182C43.798,115.4,43.001,114.545,41.822,114.545L41.822,114.545z M41.805,115.104
		c0.882,0,1.23,0.881,1.23,1.578c0,0.924-0.535,1.594-1.247,1.594c-0.729,0-1.247-0.678-1.247-1.578
		C40.541,115.918,40.923,115.104,41.805,115.104L41.805,115.104z"/>
	<path fill="#4D384B" d="M44.739,118.742h0.738v-2.188c0-0.129,0.017-0.246,0.034-0.348c0.102-0.561,0.475-0.959,1.001-0.959
		c0.101,0,0.178,0.008,0.254,0.025v-0.705c-0.068-0.016-0.127-0.023-0.212-0.023c-0.5,0-0.95,0.346-1.136,0.898h-0.034l-0.026-0.807
		h-0.653c0.026,0.383,0.034,0.797,0.034,1.281V118.742L44.739,118.742z"/>
	<path fill="#4D384B" d="M49.336,118.742h0.738v-2.477h0.695c0.67,0.025,0.975,0.322,1.145,1.111
		c0.161,0.713,0.288,1.203,0.381,1.365h0.764c-0.119-0.221-0.255-0.771-0.441-1.568c-0.136-0.594-0.399-1.002-0.84-1.154v-0.025
		c0.602-0.203,1.077-0.703,1.077-1.459c0-0.441-0.161-0.83-0.449-1.086c-0.357-0.32-0.865-0.467-1.654-0.467
		c-0.509,0-1.043,0.043-1.416,0.119V118.742L49.336,118.742z M50.074,113.619c0.118-0.033,0.373-0.066,0.729-0.066
		c0.78,0.008,1.314,0.33,1.314,1.068c0,0.652-0.5,1.086-1.289,1.086h-0.754V113.619L50.074,113.619z"/>
	<path fill="#4D384B" d="M57.172,116.824c0.008-0.074,0.025-0.193,0.025-0.348c0-0.754-0.356-1.932-1.696-1.932
		c-1.196,0-1.925,0.975-1.925,2.213s0.755,2.068,2.018,2.068c0.653,0,1.103-0.135,1.366-0.254l-0.128-0.533
		c-0.279,0.117-0.602,0.211-1.136,0.211c-0.746,0-1.391-0.416-1.408-1.426H57.172L57.172,116.824z M54.297,116.291
		c0.059-0.518,0.39-1.213,1.145-1.213c0.839,0,1.043,0.738,1.034,1.213H54.297L54.297,116.291z"/>
	<path fill="#4D384B" d="M57.833,118.547c0.288,0.17,0.704,0.279,1.153,0.279c0.976,0,1.535-0.508,1.535-1.229
		c0-0.611-0.364-0.967-1.077-1.238c-0.534-0.205-0.78-0.357-0.78-0.695c0-0.307,0.246-0.561,0.687-0.561
		c0.382,0,0.679,0.135,0.84,0.238l0.186-0.543c-0.229-0.137-0.593-0.254-1.009-0.254c-0.882,0-1.416,0.541-1.416,1.203
		c0,0.492,0.348,0.898,1.085,1.162c0.552,0.203,0.764,0.398,0.764,0.756c0,0.338-0.255,0.609-0.798,0.609
		c-0.373,0-0.763-0.152-0.983-0.297L57.833,118.547L57.833,118.547z"/>
	<path fill="#4D384B" d="M64.914,114.637h-0.746v2.52c0,0.135-0.025,0.271-0.068,0.381c-0.135,0.33-0.483,0.68-0.984,0.68
		c-0.678,0-0.915-0.527-0.915-1.307v-2.273h-0.747v2.4c0,1.441,0.772,1.799,1.417,1.799c0.729,0,1.161-0.434,1.356-0.764h0.017
		l0.043,0.67h0.661c-0.025-0.322-0.034-0.695-0.034-1.119V114.637L64.914,114.637z"/>
	<polygon fill="#4D384B" points="66.152,118.742 66.899,118.742 66.899,112.721 66.152,112.721 66.152,118.742 	"/>
	<path fill="#4D384B" d="M68.323,113.652v0.984h-0.636v0.568h0.636v2.238c0,0.484,0.077,0.85,0.289,1.07
		c0.178,0.203,0.458,0.312,0.805,0.312c0.289,0,0.518-0.043,0.662-0.102l-0.034-0.559c-0.093,0.023-0.237,0.051-0.433,0.051
		c-0.415,0-0.559-0.289-0.559-0.797v-2.215h1.068v-0.568h-1.068v-1.178L68.323,113.652L68.323,113.652z"/>
	<path fill="#4D384B" d="M70.673,118.547c0.288,0.17,0.703,0.279,1.153,0.279c0.975,0,1.535-0.508,1.535-1.229
		c0-0.611-0.365-0.967-1.077-1.238c-0.534-0.205-0.78-0.357-0.78-0.695c0-0.307,0.246-0.561,0.687-0.561
		c0.381,0,0.678,0.135,0.839,0.238l0.187-0.543c-0.229-0.137-0.594-0.254-1.009-0.254c-0.882,0-1.417,0.541-1.417,1.203
		c0,0.492,0.348,0.898,1.086,1.162c0.551,0.203,0.763,0.398,0.763,0.756c0,0.338-0.254,0.609-0.797,0.609
		c-0.373,0-0.763-0.152-0.984-0.297L70.673,118.547L70.673,118.547z"/>
	<polygon fill="#8C9AA7" points="103.974,0.191 105.628,0.191 105.628,6.17 108.691,6.17 108.691,7.696 103.974,7.696 
		103.974,0.191 	"/>
	<polygon fill="#8C9AA7" points="109.667,0.191 114.766,0.191 114.766,1.718 111.32,1.718 111.32,3.117 114.575,3.117 
		114.575,4.643 111.32,4.643 111.32,6.17 114.956,6.17 114.956,7.696 109.667,7.696 109.667,0.191 	"/>
	<path fill="#8C9AA7" d="M123.076,7.166c-0.487,0.255-0.996,0.438-1.526,0.552c-0.53,0.113-1.071,0.169-1.622,0.169
		c-0.587,0-1.127-0.092-1.622-0.275c-0.495-0.184-0.922-0.447-1.283-0.79c-0.36-0.343-0.641-0.758-0.842-1.246
		c-0.202-0.487-0.302-1.032-0.302-1.632c0-0.601,0.1-1.145,0.302-1.633c0.201-0.487,0.482-0.903,0.842-1.245
		c0.361-0.343,0.788-0.606,1.283-0.79C118.801,0.092,119.341,0,119.928,0c0.601,0,1.154,0.073,1.659,0.218
		c0.505,0.145,0.949,0.394,1.33,0.747l-1.166,1.272c-0.226-0.233-0.48-0.41-0.763-0.53c-0.283-0.12-0.636-0.18-1.06-0.18
		c-0.353,0-0.673,0.06-0.959,0.18c-0.287,0.12-0.532,0.288-0.737,0.504c-0.205,0.215-0.362,0.471-0.472,0.768
		c-0.109,0.297-0.164,0.618-0.164,0.965c0,0.353,0.055,0.676,0.164,0.97c0.11,0.293,0.267,0.547,0.472,0.763
		c0.205,0.215,0.45,0.383,0.737,0.503c0.286,0.121,0.606,0.181,0.959,0.181c0.36,0,0.671-0.041,0.933-0.122
		c0.261-0.082,0.47-0.165,0.625-0.249V4.771h-1.346V3.244h2.936V7.166L123.076,7.166z"/>
	<polygon fill="#8C9AA7" points="124.698,0.191 129.797,0.191 129.797,1.718 126.352,1.718 126.352,3.117 129.606,3.117 
		129.606,4.643 126.352,4.643 126.352,6.17 129.988,6.17 129.988,7.696 124.698,7.696 124.698,0.191 	"/>
	<polygon fill="#8C9AA7" points="131.419,0.191 133.666,0.191 136.857,5.407 136.878,5.407 136.878,0.191 138.532,0.191 
		138.532,7.696 136.369,7.696 133.094,2.354 133.073,2.354 133.073,7.696 131.419,7.696 131.419,0.191 	"/>
	<path fill="#8C9AA7" d="M140.165,0.191h2.48c0.601,0,1.171,0.067,1.712,0.202c0.541,0.134,1.012,0.351,1.415,0.651
		c0.402,0.301,0.723,0.691,0.96,1.172c0.235,0.48,0.354,1.063,0.354,1.749c0,0.608-0.115,1.143-0.345,1.606
		c-0.23,0.463-0.539,0.852-0.927,1.166c-0.39,0.314-0.838,0.553-1.348,0.716c-0.508,0.162-1.042,0.243-1.6,0.243h-2.703V0.191
		L140.165,0.191z M141.818,6.17h0.858c0.381,0,0.737-0.039,1.065-0.117c0.329-0.077,0.613-0.206,0.854-0.387
		c0.24-0.18,0.43-0.417,0.567-0.71c0.137-0.293,0.206-0.652,0.206-1.076c0-0.367-0.069-0.688-0.206-0.959
		c-0.138-0.272-0.324-0.497-0.557-0.673c-0.233-0.177-0.508-0.31-0.821-0.398c-0.315-0.088-0.646-0.132-0.992-0.132h-0.975V6.17
		L141.818,6.17z"/>
	<line fill="none" stroke="#939598" stroke-width="0.06" x1="268.99" y1="18.562" x2="0" y2="18.562"/>
</g>
</svg>
