<svg width="27" height="27" viewBox="0 0 27 27" xmlns="http://www.w3.org/2000/svg"><title>arrow-up-outline</title><g fill="#4D384B" fill-rule="evenodd"><path d="M24.5 13.5c0-6.075-4.925-11-11-11s-11 4.925-11 11 4.925 11 11 11 11-4.925 11-11zm2 0c0 7.18-5.82 13-13 13s-13-5.82-13-13 5.82-13 13-13 13 5.82 13 13z"/><path d="M9.268 16.14l5-6h-1.536l5 6c.353.424.984.482 1.408.128.424-.353.482-.984.128-1.408l-5-6-.768-.922-.768.922-5 6c-.354.424-.296 1.055.128 1.408.424.354 1.055.296 1.408-.128z"/></g></svg>