<?xml version="1.0" encoding="UTF-8" standalone="no"?>
<svg width="25px" height="25px" viewBox="0 0 25 25" version="1.1" xmlns="http://www.w3.org/2000/svg" xmlns:xlink="http://www.w3.org/1999/xlink" xmlns:sketch="http://www.bohemiancoding.com/sketch/ns">
    <!-- Generator: Sketch 3.3.3 (12072) - http://www.bohemiancoding.com/sketch -->
    <title>arrow-right</title>
    <desc>Created with Sketch.</desc>
    <defs></defs>
    <g id="-assets" stroke="none" stroke-width="1" fill="none" fill-rule="evenodd" sketch:type="MSPage">
        <g id="arrow-right" sketch:type="MSLayerGroup" transform="translate(0.250000, 0.583070)" fill="#4D384B">
            <path d="M12,24 C18.627417,24 24,18.627417 24,12 C24,5.372583 18.627417,0 12,0 C5.372583,0 0,5.372583 0,12 C0,18.627417 5.372583,24 12,24 Z M14.4607301,11.9810166 L9.3598156,16.2317787 C8.9355387,16.5853428 8.87821464,17.2159075 9.23177872,17.6401844 C9.5853428,18.0644613 10.2159075,18.1217854 10.6401844,17.7682213 L16.6401844,12.7682213 L17.5620499,12 L16.6401844,11.2317787 L10.6401844,6.23177872 C10.2159075,5.87821464 9.5853428,5.9355387 9.23177872,6.3598156 C8.87821464,6.7840925 8.9355387,7.4146572 9.3598156,7.76822128 L14.4607301,11.9810166 Z" id="Oval-19" sketch:type="MSShapeGroup"></path>
        </g>
    </g>
</svg>