<?xml version="1.0" encoding="utf-8"?>
<!-- Generated by IcoMoon.io -->
<!DOCTYPE svg PUBLIC "-//W3C//DTD SVG 1.1//EN" "http://www.w3.org/Graphics/SVG/1.1/DTD/svg11.dtd">
<svg version="1.1" xmlns="http://www.w3.org/2000/svg" xmlns:xlink="http://www.w3.org/1999/xlink" width="32" height="32" viewBox="0 0 32 32">
<path fill="#444444" d="M29.037 16v0c0 7.2-5.837 13.037-13.037 13.037s-13.037-5.837-13.037-13.037c0-7.2 5.837-13.037 13.037-13.037s13.037 5.837 13.037 13.037v0zM31.407 16v0c0-8.509-6.898-15.407-15.407-15.407s-15.407 6.898-15.407 15.407c0 8.509 6.898 15.407 15.407 15.407s15.407-6.898 15.407-15.407v0z"></path>
<path fill="#444444" d="M10.985 12.871l5.926 7.111h-1.821l5.926-7.111c0.419-0.503 1.166-0.571 1.669-0.152s0.571 1.166 0.152 1.669l-6.836 8.204-6.836-8.204c-0.419-0.503-0.351-1.25 0.152-1.669s1.25-0.351 1.669 0.152v0z"></path>
</svg>
