<?xml version="1.0" encoding="utf-8"?>
<!-- Generated by IcoMoon.io -->
<!DOCTYPE svg PUBLIC "-//W3C//DTD SVG 1.1//EN" "http://www.w3.org/Graphics/SVG/1.1/DTD/svg11.dtd">
<svg version="1.1" xmlns="http://www.w3.org/2000/svg" xmlns:xlink="http://www.w3.org/1999/xlink" width="32" height="32" viewBox="0 0 32 32">
<path fill="#444444" d="M16 29.538v0c7.477 0 13.538-6.061 13.538-13.538s-6.061-13.538-13.538-13.538c-7.477 0-13.538 6.061-13.538 13.538s6.061 13.538 13.538 13.538v0zM16 32v0c-8.837 0-16-7.163-16-16s7.163-16 16-16c8.837 0 16 7.163 16 16s-7.163 16-16 16v0z"></path>
<path fill="#444444" d="M12.751 10.792l7.385 6.154v-1.891l-7.385 6.154c-0.522 0.435-0.593 1.211-0.158 1.733s1.211 0.593 1.733 0.158l8.519-7.099-8.519-7.099c-0.522-0.435-1.298-0.365-1.733 0.158s-0.365 1.298 0.158 1.733v0z"></path>
</svg>
