<svg xmlns="http://www.w3.org/2000/svg" width="32" height="32" viewBox="0 0 32 32"><path fill="#444" d="M16 0C7.163 0 0 7.163 0 16s7.163 16 16 16 16-7.163 16-16S24.837 0 16 0zm10.486 8.703h-3.32c-.55-1.63-1.3-3.157-2.25-4.497 2.258.942 4.187 2.515 5.57 4.497zm-2.183 6.07c-.063-1.217-.22-2.432-.468-3.617h3.99c.464 1.134.77 2.348.892 3.618h-4.413zm4.413 2.453c-.12 1.273-.43 2.49-.896 3.627h-3.975c.247-1.188.4-2.406.46-3.627h4.41zm-11.49-8.523V3.72c1.47 1.293 2.575 3.032 3.34 4.983h-3.34zm4.1 2.453c.278 1.183.45 2.403.52 3.618h-4.62v-3.618h4.1zM14.773 3.65v5.053h-3.417c.777-1.986 1.908-3.752 3.417-5.052zm0 7.506v3.618h-4.7c.07-1.215.244-2.435.523-3.618h4.177zm0 6.07v3.627h-4.19c-.276-1.186-.446-2.41-.512-3.627h4.704zm0 6.08v5.102c-1.522-1.31-2.66-3.096-3.436-5.102h3.436zm2.452 5.033v-5.036h3.358c-.764 1.97-1.875 3.73-3.358 5.033zm0-7.49v-3.626h4.624c-.07 1.217-.24 2.44-.515 3.627h-4.11zm-6.253-16.6C10.04 5.583 9.3 7.09 8.755 8.703h-3.24c1.36-1.95 3.247-3.502 5.458-4.45zM7.62 14.773H3.283c.12-1.267.428-2.482.893-3.616h3.91c-.248 1.185-.404 2.4-.467 3.618zm.457 6.08H4.18c-.467-1.135-.775-2.353-.896-3.626h4.332c.06 1.22.214 2.438.46 3.627zM5.52 23.307h3.218c.535 1.596 1.26 3.093 2.174 4.415-2.18-.946-4.046-2.485-5.393-4.413zm15.453 4.464c.93-1.333 1.668-2.85 2.21-4.464h3.297c-1.37 1.962-3.276 3.52-5.506 4.465z"/></svg>