<svg xmlns="http://www.w3.org/2000/svg" width="32" height="32" viewBox="0 0 32 32"><path fill="#444" d="M31.194 15.903c.48.796.196 1.908-.267 2.648-.954 1.483-3.08 1.84-4.674 2.28 0 0-.603-1.253-4.693-7.698l5.544-3.44.336-.195 3.754 6.408zm-4.783 10.82c-.455 1.148-1.732 1.253-1.732 1.253s-1.256.124-3.88.21l.144 2.897-4.073-6.477 3.735-6.39.124 3.054c6.006.725 9.015-.883 9.015-.883l-3.33 6.334zm1.01-22.68l-3.892 6.582-7.42-.353 2.675-1.518c-2.126-5.63-4.94-7.57-4.94-7.57l7.17.016c1.24-.105 1.913.954 1.913.954s.69 1.075 1.983 3.354l2.513-1.465zm-16.274 7.713L5.532 8.454l-.336-.21L9.18 1.958c.494-.776 1.61-1.06 2.477-.97 1.77.157 3.048 1.87 4.18 3.087 0 0-.83 1.093-4.693 7.678zM14.53 28.1l-.035.387-7.44-.51c-.923-.07-1.684-.934-2.02-1.71-.706-1.643.214-3.587.746-5.155 0 0 1.364.21 9.015.493L14.53 28.1zm-3.4-10.15l-2.605-1.623c-3.984 4.537-4.357 7.907-4.357 7.907l-3.366-6.3c-.69-1.025-.07-2.137-.07-2.137s.62-1.112 2.018-3.317L.273 10.962l7.667.298 3.188 6.69z"/></svg>