<?xml version="1.0" encoding="utf-8"?>
<!-- Generated by IcoMoon.io -->
<!DOCTYPE svg PUBLIC "-//W3C//DTD SVG 1.1//EN" "http://www.w3.org/Graphics/SVG/1.1/DTD/svg11.dtd">
<svg version="1.1" xmlns="http://www.w3.org/2000/svg" xmlns:xlink="http://www.w3.org/1999/xlink" width="32" height="32" viewBox="0 0 32 32">
<path fill="#444444" d="M16.063 22.303c-0.27-0.415-1.372-1.822-1.809-3.211-0.065-0.226-0.27-0.331-0.438-0.331-0.165 0-0.372 0.105-0.434 0.331-0.438 1.389-1.539 2.796-1.809 3.211-0.248 0.418-0.416 0.913-0.416 1.432 0 1.469 1.186 2.651 2.66 2.651 1.477 0 2.663-1.182 2.663-2.651 0-0.52-0.168-1.015-0.416-1.432zM16.478 31.691c-5.885 0-10.646-4.745-10.646-10.61 0-2.091 0.646-4.040 1.685-5.698 1.058-1.655 5.506-7.272 7.191-12.864 0.27-0.894 1.102-1.327 1.769-1.327s1.518 0.433 1.766 1.327c1.685 5.592 6.136 11.21 7.194 12.864 1.058 1.658 1.682 3.607 1.682 5.698 0 5.865-4.761 10.61-10.642 10.61z"></path>
</svg>
