<svg xmlns="http://www.w3.org/2000/svg" width="32" height="32" viewBox="0 0 32 32"><path fill="#444" d="M30.424 9.616l-3.305 3.296-8.29-8.26 3.306-3.277C22.59.898 23.25.62 23.926.62c.68 0 1.34.277 1.815.754l4.683 4.648c.458.474.738 1.13.738 1.805s-.28 1.33-.737 1.787zM18.19 9.298c-.12 0-.238.04-.34.136L7.05 20.197c-.097.1-.14.222-.14.34 0 .256.182.437.44.437.12 0 .24-.04.34-.14l10.797-10.762c.1-.098.14-.22.14-.338 0-.258-.175-.436-.437-.436zm-8.17 17.057L5.336 21.69l-1.81 1.807v2.122h2.548v2.54h2.133l1.81-1.807zm15.82-12.17L9.264 30.705H.974V22.44l16.58-16.52 8.286 8.26z"/></svg>