<?xml version="1.0" encoding="utf-8"?>
<!-- Generated by IcoMoon.io -->
<!DOCTYPE svg PUBLIC "-//W3C//DTD SVG 1.1//EN" "http://www.w3.org/Graphics/SVG/1.1/DTD/svg11.dtd">
<svg version="1.1" xmlns="http://www.w3.org/2000/svg" xmlns:xlink="http://www.w3.org/1999/xlink" width="32" height="32" viewBox="0 0 32 32">
<path fill="#444444" d="M30.18 11.328l-6.754 6.706 2.529 2.518-2.691 2.685c-3.687 3.672-9.311 4.194-13.482 1.441l-6.093 6.072h-3.048v-3.038l6.093-6.072c-2.759-4.157-2.238-9.759 1.449-13.434l2.688-2.682 2.526 2.515 6.735-6.728c0.838-0.823 2.207-0.823 3.048 0 0.838 0.841 0.838 2.215 0 3.037l-6.735 6.725 3.939 3.925 6.754-6.706c0.838-0.838 2.201-0.838 3.042 0 0.826 0.838 0.826 2.196 0 3.034z"></path>
</svg>
