<svg xmlns="http://www.w3.org/2000/svg" width="32" height="32" viewBox="0 0 32 32"><path fill="#444" d="M16.063 22.303c-.27-.415-1.372-1.822-1.81-3.21-.064-.227-.27-.332-.437-.332-.165 0-.372.107-.434.333-.438 1.39-1.54 2.796-1.81 3.21-.247.42-.415.914-.415 1.433 0 1.47 1.186 2.65 2.66 2.65 1.477 0 2.663-1.18 2.663-2.65 0-.52-.168-1.015-.416-1.432zm.415 9.388c-5.885 0-10.646-4.743-10.646-10.61 0-2.09.646-4.04 1.685-5.696 1.058-1.655 5.506-7.272 7.19-12.864.27-.895 1.103-1.328 1.77-1.328s1.518.433 1.766 1.327c1.685 5.59 6.136 11.21 7.194 12.862 1.058 1.658 1.682 3.607 1.682 5.698 0 5.866-4.763 10.61-10.644 10.61z"/></svg>