<svg xmlns="http://www.w3.org/2000/svg" width="32" height="32" viewBox="0 0 32 32"><path fill="#444" d="M17.413 24.593c0-.15-.118-.262-.263-.262h-2.64c-.147 0-.265.115-.265.264s.118.262.266.262h2.64c.146 0 .264-.113.264-.262zm-11.08-4.995c0 .277.247.525.528.525H24.8c.28 0 .53-.248.53-.525V8.028c0-.28-.25-.524-.53-.524H6.86c-.28 0-.526.245-.526.525v11.567zm-2.11 0V8.028c0-1.444 1.188-2.63 2.638-2.63H24.8c1.452 0 2.64 1.186 2.64 2.63V19.6c0 1.445-1.187 2.627-2.64 2.627H6.86c-1.45 0-2.638-1.182-2.638-2.627zm27.435 3.68v1.577c0 .87-1.186 1.577-2.64 1.577H2.642c-1.45 0-2.64-.707-2.64-1.577v-1.577H31.66z"/></svg>