<?xml version="1.0" encoding="utf-8"?>
<!-- Generated by IcoMoon.io -->
<!DOCTYPE svg PUBLIC "-//W3C//DTD SVG 1.1//EN" "http://www.w3.org/Graphics/SVG/1.1/DTD/svg11.dtd">
<svg version="1.1" xmlns="http://www.w3.org/2000/svg" xmlns:xlink="http://www.w3.org/1999/xlink" width="32" height="32" viewBox="0 0 32 32">
<path fill="#444444" d="M31.194 15.903c0.479 0.796 0.196 1.908-0.267 2.648-0.954 1.481-3.080 1.837-4.674 2.277 0 0-0.603-1.252-4.693-7.697l5.544-3.441 0.336-0.195 3.754 6.408zM26.411 26.722c-0.457 1.149-1.734 1.254-1.734 1.254s-1.256 0.124-3.879 0.211l0.143 2.896-4.074-6.477 3.736-6.39 0.124 3.054c6.007 0.725 9.016-0.883 9.016-0.883l-3.331 6.334zM27.421 4.043l-3.894 6.582-7.421-0.353 2.676-1.518c-2.126-5.631-4.941-7.57-4.941-7.57l7.17 0.016c1.24-0.105 1.914 0.954 1.914 0.954s0.69 1.075 1.983 3.354l2.514-1.465zM11.145 11.756l-5.613-3.302-0.336-0.211 3.984-6.284c0.494-0.775 1.61-1.059 2.477-0.97 1.771 0.158 3.048 1.871 4.18 3.088 0 0-0.83 1.093-4.693 7.678v0zM14.529 28.1l-0.034 0.387-7.44-0.511c-0.923-0.069-1.684-0.933-2.020-1.71-0.706-1.642 0.214-3.586 0.746-5.154 0 0 1.362 0.211 9.013 0.493l-0.264 6.495zM11.129 17.95l-2.604-1.623c-3.984 4.537-4.357 7.907-4.357 7.907l-3.366-6.3c-0.69-1.025-0.069-2.137-0.069-2.137s0.619-1.112 2.017-3.317l-2.477-1.518 7.667 0.298 3.188 6.69z"></path>
</svg>
