<svg xmlns="http://www.w3.org/2000/svg" width="433.25" height="83.965" viewBox="0 0 433.25 83.965" class="figure4 figure"><path fill="#185954" class="public-sector" stroke="#FFF" stroke-width=".25" stroke-linejoin="round" stroke-miterlimit="10" d="M119.535 62.324H272.53v-42H119.534v42z"/><path fill="#40978F" class="ngo" stroke="#FFF" stroke-width=".25" stroke-linejoin="round" stroke-miterlimit="10" d="M17.11 62.324h42.72v-42H17.11v42z"/><path fill="#5FC0B9" class="financial-instituion" stroke="#FFF" stroke-width=".25" stroke-linejoin="round" stroke-miterlimit="10" d="M.125 62.324H17.11v-42H.126v42z"/><path fill="#FFF" class="text-light" d="M133.423 38.695l-1.42 1.25-.85-.98 2.31-1.95h1.4v7.08h-1.44v-5.4M136.553 38.845c0-.327.062-.612.185-.855.124-.243.294-.447.51-.61.217-.163.47-.285.755-.365.287-.08.594-.12.92-.12.327 0 .634.04.92.12.287.08.537.202.75.365.214.163.384.367.51.61.127.243.19.528.19.855 0 .387-.105.717-.315.99s-.505.467-.885.58v.02c.427.113.754.318.98.615.227.297.34.665.34 1.104 0 .34-.068.64-.205.9-.136.26-.32.475-.55.645-.23.17-.495.298-.795.384-.3.088-.613.13-.94.13-.326 0-.64-.042-.94-.13-.3-.086-.565-.215-.795-.385s-.413-.386-.55-.646c-.136-.26-.205-.56-.205-.9 0-.44.114-.808.34-1.104.227-.297.554-.502.98-.615v-.02c-.38-.113-.675-.307-.885-.58-.21-.273-.315-.603-.315-.99zm1.5.21c0 .22.08.407.24.56.16.153.37.23.63.23s.47-.077.63-.23c.16-.153.24-.34.24-.56 0-.213-.08-.397-.24-.55-.16-.153-.37-.23-.63-.23s-.47.077-.63.23-.24.337-.24.55zm-.12 2.89c0 .246.09.457.27.63.18.173.42.26.72.26s.54-.087.72-.26c.18-.173.27-.384.27-.63 0-.254-.09-.467-.27-.64-.18-.174-.42-.26-.72-.26s-.54.086-.72.26c-.18.174-.27.386-.27.64zM150.033 38.315c-.24-.253-.526-.453-.86-.6-.333-.147-.72-.22-1.16-.22-.453 0-.86.083-1.22.25s-.665.39-.915.67-.44.605-.575.975c-.133.37-.2.758-.2 1.165 0 .407.067.795.2 1.165.134.37.325.694.575.976.25.28.555.502.915.67.36.166.767.25 1.22.25.367 0 .72-.045 1.055-.135.337-.09.64-.212.905-.364v-2.37h-1.69v-.66h2.41v3.47c-.4.23-.838.41-1.315.534-.476.123-.93.186-1.365.186-.526 0-1.015-.094-1.465-.28-.45-.187-.84-.446-1.17-.774-.33-.33-.588-.723-.775-1.176-.186-.453-.28-.95-.28-1.49s.094-1.037.28-1.49c.187-.453.445-.845.775-1.175s.72-.587 1.17-.774c.45-.187.94-.28 1.465-.28.567 0 1.055.078 1.465.235s.775.396 1.095.716l-.54.53zM155.853 41.755c0-.26-.04-.503-.125-.73-.083-.227-.2-.422-.355-.59-.153-.166-.338-.297-.555-.394-.216-.096-.46-.144-.735-.144-.273 0-.518.048-.735.145-.216.098-.4.23-.55.396s-.266.363-.35.59c-.083.227-.125.47-.125.73s.042.502.125.728c.084.227.2.424.35.59.15.168.334.3.55.396.217.096.462.145.735.145.274 0 .52-.05.735-.145.217-.098.402-.23.555-.396.154-.166.272-.363.355-.59.084-.226.125-.468.125-.73zm.72 0c0 .353-.06.68-.185.98-.123.3-.295.56-.515.78-.22.22-.48.39-.785.514-.303.122-.638.185-1.005.185-.36 0-.69-.062-.995-.186-.303-.124-.565-.296-.785-.515-.22-.22-.39-.48-.515-.78-.123-.3-.185-.628-.185-.98s.062-.68.185-.98c.124-.3.295-.56.515-.78.22-.22.482-.392.785-.515.304-.123.635-.185.995-.185.367 0 .702.062 1.005.185.304.123.565.295.785.515.22.22.392.48.515.78.124.3.185.627.185.98zM159.333 44.096h-.74l-1.9-4.68h.79l1.49 3.94h.02l1.49-3.94h.75l-1.9 4.68M165.233 41.395c0-.447-.133-.808-.4-1.084-.266-.276-.64-.414-1.12-.414-.213 0-.42.042-.62.125-.2.084-.375.196-.525.336-.15.14-.27.3-.36.48-.09.18-.135.366-.135.56h3.16zm-3.18.54c.02.233.077.454.17.66.094.208.217.386.37.534.154.15.33.27.53.354.2.088.417.13.65.13.354 0 .66-.08.915-.245.257-.163.452-.353.585-.565l.51.42c-.28.354-.588.607-.925.76-.336.154-.698.23-1.085.23-.346 0-.668-.062-.965-.186-.296-.124-.55-.296-.765-.515-.213-.22-.38-.48-.505-.78-.123-.3-.185-.628-.185-.98s.06-.68.18-.98c.12-.3.287-.56.5-.78.214-.22.464-.392.75-.515.287-.123.597-.185.93-.185.354 0 .67.063.95.19.28.127.515.295.705.505.19.21.335.457.435.74.1.283.15.584.15.905v.3h-3.9zM166.723 40.875c0-.207-.005-.417-.015-.63-.01-.213-.018-.49-.025-.83h.65v.87h.02c.047-.127.114-.248.2-.365.087-.117.192-.222.315-.315.124-.093.267-.168.43-.225.164-.057.35-.085.555-.085.187 0 .35.02.49.06l-.13.65c-.086-.033-.213-.05-.38-.05-.253 0-.47.048-.65.145-.18.097-.33.22-.45.37s-.208.312-.265.485c-.056.173-.085.34-.085.5v2.64h-.66v-3.22zM170.283 39.415c.014.127.022.252.025.375.004.123.005.248.005.375h.02c.074-.127.167-.243.28-.35.114-.107.24-.198.38-.275.14-.077.29-.137.445-.18.157-.043.312-.065.465-.065.6 0 1.044.158 1.33.475.287.317.43.768.43 1.355v2.97h-.66v-2.59c0-.52-.09-.918-.27-1.195-.18-.277-.513-.415-1-.415-.033 0-.126.013-.28.04-.153.027-.315.1-.485.22-.17.12-.32.3-.455.54-.133.24-.2.573-.2 1v2.4h-.66v-3.65c0-.128-.005-.288-.015-.48-.01-.194-.02-.378-.035-.55h.68zM174.713 40.455c0-.173-.005-.347-.015-.52-.01-.173-.02-.347-.035-.52h.71v.71h.02c.16-.273.382-.48.665-.62.284-.14.565-.21.845-.21.127 0 .262.013.405.04.144.027.282.075.415.145.134.07.26.168.375.295.117.127.215.29.295.49.134-.3.345-.537.635-.71.29-.173.592-.26.905-.26.6 0 1.044.158 1.33.475.287.317.43.768.43 1.355v2.97h-.66v-2.73c0-.472-.083-.836-.25-1.09-.166-.252-.476-.38-.93-.38-.246 0-.453.05-.62.146-.166.098-.3.226-.405.386-.103.16-.178.342-.225.545-.046.204-.07.416-.07.637v2.49h-.66v-2.73c0-.473-.083-.837-.25-1.09-.166-.253-.476-.38-.93-.38-.04 0-.13.013-.275.04-.143.027-.29.1-.445.22-.153.12-.29.3-.415.54-.123.24-.185.573-.185 1v2.4h-.66v-3.642zM186.373 41.395c0-.447-.133-.808-.4-1.084-.266-.276-.64-.414-1.12-.414-.213 0-.42.042-.62.125s-.375.196-.525.336c-.15.14-.27.3-.36.48-.09.18-.135.366-.135.56h3.16zm-3.18.54c.02.233.077.454.17.66.094.208.217.386.37.534.154.15.33.27.53.354.2.088.417.13.65.13.354 0 .66-.08.915-.245.257-.163.452-.353.585-.565l.51.42c-.28.354-.588.607-.925.76-.336.154-.698.23-1.085.23-.346 0-.668-.062-.965-.186-.296-.124-.55-.296-.765-.515-.213-.22-.38-.48-.505-.78-.123-.3-.185-.628-.185-.98s.06-.68.18-.98c.12-.3.287-.56.5-.78.214-.22.464-.392.75-.515.287-.123.597-.185.93-.185.354 0 .67.063.95.19.28.127.515.295.705.505s.335.457.435.74c.1.283.15.584.15.905v.3h-3.9zM188.423 39.415c.014.127.022.252.025.375.004.123.005.248.005.375h.02c.074-.127.167-.243.28-.35.114-.107.24-.198.38-.275.14-.077.29-.137.445-.18.157-.043.312-.065.465-.065.6 0 1.044.158 1.33.475.287.317.43.768.43 1.355v2.97h-.66v-2.59c0-.52-.09-.918-.27-1.195-.18-.277-.513-.415-1-.415-.033 0-.126.013-.28.04-.153.027-.315.1-.485.22s-.32.3-.455.54c-.133.24-.2.573-.2 1v2.4h-.66v-3.65c0-.128-.005-.288-.015-.48-.01-.194-.02-.378-.035-.55h.68zM195.273 40.015h-1.35v2.76c0 .173.017.315.05.425.034.11.08.195.14.256.06.06.132.102.215.125.084.024.175.036.275.036.114 0 .23-.018.35-.05.12-.034.23-.077.33-.13l.03.61c-.246.112-.543.17-.89.17-.126 0-.258-.02-.395-.052-.136-.03-.26-.096-.375-.19-.113-.09-.206-.22-.28-.378-.073-.16-.11-.37-.11-.63v-2.95h-.99v-.6h.99v-1.32h.66v1.32h1.35v.6z"/><path fill="#4F384A" class="text-dark" d="M112.527 1.86h-3.5V.48h5.18V1.8l-2.83 5.76h-1.75l2.9-5.7M118.817 3.61h1.16c.32 0 .592-.033.815-.1.223-.066.402-.155.535-.265.133-.11.23-.24.29-.39.06-.15.09-.31.09-.485 0-.166-.03-.325-.09-.475-.06-.15-.157-.28-.29-.395-.133-.113-.312-.2-.535-.265-.223-.063-.495-.095-.815-.095h-1.16v2.47zm-.72-3.13h2.06c.72 0 1.288.157 1.705.47.417.314.625.787.625 1.42 0 .634-.208 1.11-.625 1.425-.417.317-.985.475-1.705.475h-1.34v3.29h-.72V.48zM126.477 7.56c-.013-.126-.022-.25-.025-.375-.003-.123-.005-.248-.005-.375h-.02c-.073.127-.167.244-.28.35-.113.107-.24.2-.38.275-.14.077-.288.137-.445.18-.157.044-.312.065-.465.065-.6 0-1.043-.158-1.33-.475-.287-.316-.43-.768-.43-1.355V2.88h.66v2.59c0 .26.02.49.06.69.04.2.108.37.205.505.097.137.227.24.39.31s.368.105.615.105c.033 0 .127-.013.28-.04.153-.026.315-.1.485-.22s.322-.3.455-.54c.133-.24.2-.573.2-1v-2.4h.66v3.65c0 .127.005.287.015.48.01.194.022.377.035.55h-.68zM132.427 5.22c0-.26-.042-.503-.125-.73-.083-.226-.202-.423-.355-.59-.153-.166-.338-.298-.555-.395-.217-.096-.462-.145-.735-.145-.273 0-.523.05-.75.145-.227.097-.423.23-.59.395-.167.167-.297.364-.39.59-.093.227-.14.47-.14.73s.047.504.14.73c.093.227.223.424.39.59.167.167.363.3.59.395.227.097.477.145.75.145s.518-.048.735-.145c.217-.096.402-.228.555-.395.153-.166.272-.363.355-.59.083-.226.125-.47.125-.73zM128.157 0h.66v3.66h.02c.107-.16.233-.296.38-.41.147-.113.3-.206.46-.28.16-.073.325-.126.495-.16.17-.033.332-.05.485-.05.367 0 .702.062 1.005.185.303.124.565.295.785.515.22.22.392.48.515.78.123.3.185.627.185.98 0 .354-.062.68-.185.98-.123.3-.295.56-.515.78-.22.22-.482.392-.785.515-.303.124-.638.185-1.005.185-.153 0-.315-.016-.485-.05-.17-.033-.335-.086-.495-.16-.16-.073-.313-.166-.46-.28-.147-.113-.273-.25-.38-.41h-.02v.78h-.66V0zM134.577 7.56h-.66V0h.66v7.56M136.627 1.08c0 .14-.05.255-.15.345s-.21.135-.33.135-.23-.045-.33-.135-.15-.205-.15-.345c0-.14.05-.255.15-.345s.21-.135.33-.135.23.045.33.135.15.205.15.345zm-.15 6.48h-.66V2.88h.66v4.68zM140.977 3.98c-.113-.173-.272-.32-.475-.44-.203-.12-.435-.18-.695-.18-.273-.006-.518.037-.735.13-.217.094-.402.224-.555.39-.153.167-.27.365-.35.595s-.12.48-.12.745c0 .267.04.515.12.745s.197.43.35.595c.153.167.338.297.555.39.217.094.462.137.735.13.26 0 .492-.06.695-.18s.362-.266.475-.44l.54.41c-.233.274-.497.475-.79.605-.293.13-.6.2-.92.205-.38.007-.723-.05-1.03-.175-.307-.123-.568-.295-.785-.515-.217-.22-.382-.48-.495-.785-.113-.303-.17-.63-.17-.985 0-.353.057-.68.17-.985.113-.303.278-.565.495-.785.217-.22.478-.39.785-.515.307-.123.65-.18 1.03-.175.32.007.627.075.92.205s.557.332.79.605l-.54.41zM147.757 1.65c-.313-.46-.77-.69-1.37-.69-.187 0-.37.025-.55.075-.18.05-.342.127-.485.23-.143.104-.258.237-.345.4-.087.164-.13.355-.13.575 0 .32.09.57.27.745.18.177.403.322.67.435.267.114.558.215.875.305.317.09.608.21.875.36s.49.35.67.595c.18.247.27.584.27 1.01 0 .32-.068.61-.205.865-.137.257-.317.472-.54.645-.223.174-.473.307-.75.4-.277.094-.555.14-.835.14-.433 0-.845-.08-1.235-.245-.39-.163-.722-.43-.995-.805l.65-.47c.153.26.367.47.64.625.273.157.597.235.97.235.18 0 .36-.028.54-.085.18-.056.342-.14.485-.25.143-.11.262-.245.355-.405.093-.16.14-.343.14-.55 0-.246-.052-.45-.155-.615-.103-.163-.24-.3-.41-.41-.17-.11-.363-.2-.58-.275-.217-.073-.44-.146-.67-.22-.23-.073-.453-.156-.67-.25-.217-.093-.41-.21-.58-.355-.17-.143-.307-.323-.41-.54-.103-.216-.155-.488-.155-.815 0-.34.065-.636.195-.89.13-.253.303-.463.52-.63.217-.166.462-.29.735-.37s.553-.12.84-.12c.4 0 .763.064 1.09.19.327.127.63.35.91.67l-.63.49zM152.867 4.86c0-.446-.133-.808-.4-1.085-.267-.276-.64-.415-1.12-.415-.213 0-.42.042-.62.125-.2.084-.375.195-.525.335-.15.14-.27.3-.36.48-.09.18-.135.367-.135.56h3.16zm-3.18.54c.02.234.077.454.17.66.093.207.217.385.37.535.153.15.33.27.53.355.2.087.417.13.65.13.353 0 .658-.08.915-.245.257-.163.452-.35.585-.565l.51.42c-.28.354-.588.607-.925.76-.337.154-.698.23-1.085.23-.347 0-.668-.06-.965-.185-.297-.123-.552-.295-.765-.515-.213-.22-.382-.48-.505-.78-.123-.3-.185-.626-.185-.98 0-.353.06-.68.18-.98s.287-.56.5-.78c.213-.22.463-.39.75-.515.287-.123.597-.185.93-.185.353 0 .67.064.95.19.28.127.515.295.705.505s.335.457.435.74c.1.284.15.585.15.905v.3h-3.9zM157.697 3.98c-.113-.173-.272-.32-.475-.44-.203-.12-.435-.18-.695-.18-.273-.006-.518.037-.735.13-.217.094-.402.224-.555.39-.153.167-.27.365-.35.595-.08.23-.12.48-.12.745 0 .267.04.515.12.745.08.23.197.43.35.595.153.167.338.297.555.39.217.094.462.137.735.13.26 0 .492-.06.695-.18.203-.12.362-.266.475-.44l.54.41c-.233.274-.497.475-.79.605-.293.13-.6.2-.92.205-.38.007-.723-.05-1.03-.175-.307-.123-.568-.295-.785-.515-.217-.22-.382-.48-.495-.785-.113-.303-.17-.63-.17-.985 0-.353.057-.68.17-.985.113-.303.278-.565.495-.785.217-.22.478-.39.785-.515.307-.123.65-.18 1.03-.175.32.007.627.075.92.205s.557.332.79.605l-.54.41z"/><path fill="#4F384A" class="text-dark" d="M161.027 3.48h-1.35v2.76c0 .174.017.315.05.425.033.11.08.195.14.255.06.06.132.102.215.125.083.024.175.035.275.035.113 0 .23-.016.35-.05.12-.033.23-.076.33-.13l.03.61c-.247.114-.543.17-.89.17-.127 0-.258-.016-.395-.05-.137-.033-.262-.096-.375-.19-.113-.093-.207-.22-.28-.38-.073-.16-.11-.37-.11-.63V3.48h-.99v-.6h.99V1.56h.66v1.32h1.35v.6zM165.437 5.22c0-.26-.042-.503-.125-.73-.083-.226-.202-.423-.355-.59-.153-.166-.338-.298-.555-.395-.217-.096-.462-.145-.735-.145s-.518.05-.735.145c-.217.097-.4.23-.55.395-.15.167-.267.364-.35.59-.083.227-.125.47-.125.73s.042.504.125.73c.083.227.2.424.35.59.15.167.333.3.55.395.217.097.462.145.735.145s.518-.048.735-.145c.217-.096.402-.228.555-.395.153-.166.272-.363.355-.59.083-.226.125-.47.125-.73zm.72 0c0 .354-.062.68-.185.98-.123.3-.295.56-.515.78-.22.22-.482.392-.785.515-.303.124-.638.185-1.005.185-.36 0-.692-.06-.995-.185-.303-.123-.565-.295-.785-.515-.22-.22-.392-.48-.515-.78-.123-.3-.185-.626-.185-.98 0-.353.062-.68.185-.98.123-.3.295-.56.515-.78.22-.22.482-.39.785-.515.303-.123.635-.185.995-.185.367 0 .702.062 1.005.185.303.124.565.295.785.515.22.22.392.48.515.78.123.3.185.627.185.98zM166.927 4.34c0-.206-.005-.416-.015-.63-.01-.213-.018-.49-.025-.83h.65v.87h.02c.047-.126.113-.248.2-.365.087-.116.192-.22.315-.315.123-.093.267-.168.43-.225.163-.056.348-.085.555-.085.187 0 .35.02.49.06l-.13.65c-.087-.033-.213-.05-.38-.05-.253 0-.47.05-.65.145-.18.097-.33.22-.45.37s-.208.312-.265.485c-.057.174-.085.34-.085.5v2.64h-.66V4.34zM393.588 8.24h-.72V1.82h-2.372v-.66h5.46v.66h-2.368v6.42M399.217 5.9c0-.26-.04-.503-.125-.73-.084-.226-.2-.423-.355-.59-.152-.166-.338-.298-.555-.395-.217-.096-.46-.145-.734-.145s-.52.05-.734.145c-.22.097-.4.23-.55.395-.15.167-.27.364-.35.59-.085.227-.126.47-.126.73s.04.504.125.73c.082.227.2.424.35.59.15.167.332.3.55.395.216.097.462.145.735.145s.518-.048.734-.145c.217-.096.402-.228.555-.395.154-.166.27-.363.355-.59.084-.226.125-.47.125-.73zm.72 0c0 .354-.06.68-.185.98s-.295.56-.516.78c-.22.22-.48.392-.785.515-.302.124-.638.185-1.003.185-.36 0-.69-.06-.996-.185-.302-.123-.563-.295-.782-.515-.22-.22-.393-.48-.516-.78-.125-.3-.186-.626-.186-.98 0-.353.06-.68.186-.98.123-.3.295-.56.516-.78.22-.22.48-.39.783-.515.306-.123.638-.185.997-.185.365 0 .7.062 1.004.185.306.124.567.295.786.515.22.22.393.48.516.78.123.3.186.627.186.98zM403.057 4.16h-1.35v2.76c0 .174.016.315.05.425.032.11.08.195.14.255.06.06.13.102.215.125.084.024.176.035.275.035.113 0 .23-.016.35-.05.12-.033.23-.076.33-.13l.03.61c-.247.114-.544.17-.89.17-.127 0-.26-.016-.395-.05-.137-.033-.262-.096-.375-.19-.115-.093-.207-.22-.28-.38-.073-.16-.11-.37-.11-.63V4.16h-.99v-.6h.99V2.24h.66v1.32h1.35v.6zM406.117 5.91c-.168 0-.375.01-.625.025-.25.017-.49.057-.72.12-.23.064-.427.162-.59.295-.165.134-.245.317-.245.55 0 .154.03.285.094.395.065.11.15.2.257.27.105.07.225.12.355.15.13.03.26.045.395.045.24 0 .447-.04.625-.12.176-.08.324-.188.445-.325.12-.136.207-.296.264-.48.058-.183.087-.378.087-.585v-.34h-.34zm.34-.54v-.12c0-.806-.4-1.21-1.2-1.21-.546 0-1.024.184-1.43.55l-.4-.47c.44-.453 1.1-.68 1.98-.68.227 0 .445.034.656.1.21.067.39.17.545.305.152.137.275.31.37.515.093.207.14.454.14.74v2.09c0 .18.008.37.025.565.016.197.035.36.055.485h-.64c-.02-.113-.036-.236-.046-.37-.01-.133-.016-.263-.016-.39h-.02c-.193.314-.422.54-.684.675-.266.137-.586.205-.967.205-.207 0-.406-.028-.6-.085-.193-.056-.365-.143-.514-.26-.15-.116-.27-.26-.36-.43s-.135-.368-.135-.595c0-.38.098-.678.295-.895.195-.216.443-.378.74-.485.297-.106.613-.173.95-.2.335-.026.645-.04.925-.04h.332zM408.957 8.24h-.66V.68h.66v7.56M411.258 7.76c0 .14-.05.265-.15.375s-.23.165-.39.165-.29-.055-.392-.165c-.1-.11-.148-.235-.148-.375s.05-.265.148-.375c.102-.11.23-.165.39-.165s.292.055.392.165.15.235.15.375zm0-3.71c0 .14-.05.265-.15.375s-.23.165-.39.165-.29-.055-.392-.165c-.1-.11-.148-.235-.148-.375s.05-.265.148-.375c.102-.11.23-.165.39-.165s.292.055.392.165.15.235.15.375zM419.057 2.48h-2.81l-.03 1.09c.152-.053.363-.08.63-.08.36 0 .69.054.99.16.3.107.558.262.774.465.218.204.386.45.507.74.12.29.18.615.18.975 0 .4-.068.757-.205 1.07-.137.314-.324.58-.564.795-.24.217-.525.382-.855.495-.33.114-.69.17-1.074.17-.616 0-1.128-.15-1.542-.45-.414-.3-.697-.753-.85-1.36l1.57-.36c.04.254.146.46.32.615.172.157.39.235.648.235.32 0 .576-.1.766-.3.19-.2.285-.453.285-.76 0-.233-.05-.425-.145-.575-.098-.15-.225-.27-.38-.36-.157-.09-.333-.15-.526-.185-.193-.033-.387-.05-.578-.05-.248 0-.496.024-.746.07-.25.047-.492.11-.725.19l.08-3.91h4.28v1.32zM422.188 2.84l-1.42 1.25-.85-.98 2.31-1.95h1.4v7.08h-1.44v-5.4M12.308 5.97l2.75-2.47c.14-.126.28-.27.42-.43s.21-.346.21-.56c0-.24-.087-.428-.26-.565-.174-.136-.377-.205-.61-.205-.28 0-.5.087-.655.26-.157.174-.245.387-.265.64l-1.5-.11c.02-.366.096-.685.23-.955.133-.27.31-.495.53-.675.22-.18.478-.315.775-.405.296-.09.618-.135.965-.135.32 0 .62.045.9.135.28.09.523.224.73.4.206.177.368.4.485.665.116.267.175.577.175.93 0 .227-.024.432-.07.615-.047.184-.112.35-.195.5-.084.15-.182.29-.295.415-.114.127-.237.25-.37.37l-2.15 1.85h3.14v1.32h-4.94V5.97zM21.198 7.56h-.72V.48h4.27v.66h-3.55v2.41h3.3v.66h-3.3v3.35M26.258 1.08c0 .14-.05.255-.15.345s-.21.135-.33.135c-.12 0-.23-.045-.33-.135-.1-.09-.15-.205-.15-.345 0-.14.05-.255.15-.345.1-.09.21-.135.33-.135.12 0 .23.045.33.135s.15.205.15.345zm-.15 6.48h-.66V2.88h.66v4.68zM27.828 2.88c.013.127.02.252.025.375.003.124.005.25.005.375h.02c.073-.126.166-.243.28-.35.113-.106.24-.198.38-.275.14-.076.288-.136.445-.18.156-.043.31-.065.465-.065.6 0 1.043.16 1.33.475.286.317.43.77.43 1.355v2.97h-.66V4.97c0-.52-.09-.918-.27-1.195-.18-.276-.514-.415-1-.415-.034 0-.127.014-.28.04-.154.027-.315.1-.485.22-.17.12-.322.3-.455.54-.134.24-.2.574-.2 1v2.4h-.66V3.91c0-.126-.005-.286-.015-.48-.01-.193-.022-.376-.035-.55h.68zM34.918 5.23c-.167 0-.375.01-.625.025-.25.017-.49.057-.72.12-.23.064-.427.162-.59.295-.164.134-.245.317-.245.55 0 .154.03.285.095.395.063.11.148.2.255.27.106.07.225.12.355.15.13.03.26.045.395.045.24 0 .448-.04.625-.12.176-.08.325-.188.445-.325.12-.136.208-.296.265-.48.056-.183.085-.378.085-.585v-.34h-.34zm.34-.54v-.12c0-.806-.4-1.21-1.2-1.21-.547 0-1.024.184-1.43.55l-.4-.47c.44-.453 1.1-.68 1.98-.68.226 0 .445.034.655.1.21.067.39.17.545.305.153.137.276.31.37.515.093.207.14.454.14.74v2.09c0 .18.008.37.025.565.016.197.035.36.055.485h-.64c-.02-.113-.035-.236-.045-.37-.01-.133-.015-.263-.015-.39h-.02c-.194.314-.422.54-.685.675-.264.137-.585.205-.965.205-.207 0-.407-.028-.6-.085-.194-.056-.365-.143-.515-.26-.15-.116-.27-.26-.36-.43-.09-.17-.135-.368-.135-.595 0-.38.098-.678.295-.895.196-.216.443-.378.74-.485.296-.106.613-.173.95-.2.336-.026.645-.04.925-.04h.33zM37.578 2.88c.013.127.02.252.025.375.003.124.005.25.005.375h.02c.073-.126.166-.243.28-.35.113-.106.24-.198.38-.275.14-.076.288-.136.445-.18.156-.043.31-.065.465-.065.6 0 1.043.16 1.33.475.286.317.43.77.43 1.355v2.97h-.66V4.97c0-.52-.09-.918-.27-1.195-.18-.276-.514-.415-1-.415-.034 0-.127.014-.28.04-.154.027-.315.1-.485.22-.17.12-.322.3-.455.54-.134.24-.2.574-.2 1v2.4h-.66V3.91c0-.126-.005-.286-.015-.48-.01-.193-.022-.376-.035-.55h.68zM45.418 3.98c-.114-.173-.272-.32-.475-.44-.204-.12-.435-.18-.695-.18-.274-.006-.52.037-.735.13-.217.094-.402.224-.555.39-.154.167-.27.365-.35.595s-.12.48-.12.745c0 .267.04.515.12.745s.196.43.35.595c.153.167.338.297.555.39.216.094.46.137.735.13.26 0 .49-.06.695-.18.203-.12.36-.266.475-.44l.54.41c-.234.274-.497.475-.79.605-.294.13-.6.2-.92.205-.38.007-.724-.05-1.03-.175-.307-.123-.57-.295-.785-.515-.217-.22-.382-.48-.495-.785-.114-.303-.17-.63-.17-.985 0-.353.056-.68.17-.985.113-.303.278-.565.495-.785.216-.22.478-.39.785-.515.306-.123.65-.18 1.03-.175.32.007.626.075.92.205.293.13.556.332.79.605l-.54.41zM47.288 1.08c0 .14-.05.255-.15.345-.1.09-.21.135-.33.135-.12 0-.23-.045-.33-.135s-.15-.205-.15-.345c0-.14.05-.255.15-.345s.21-.135.33-.135c.12 0 .23.045.33.135.1.09.15.205.15.345zm-.15 6.48h-.66V2.88h.66v4.68zM50.888 5.23c-.167 0-.375.01-.625.025-.25.017-.49.057-.72.12-.23.064-.427.162-.59.295-.164.134-.245.317-.245.55 0 .154.03.285.095.395.063.11.148.2.255.27.106.07.225.12.355.15.13.03.26.045.395.045.24 0 .448-.04.625-.12.176-.08.325-.188.445-.325.12-.136.208-.296.265-.48.056-.183.085-.378.085-.585v-.34h-.34zm.34-.54v-.12c0-.806-.4-1.21-1.2-1.21-.547 0-1.024.184-1.43.55l-.4-.47c.44-.453 1.1-.68 1.98-.68.226 0 .445.034.655.1.21.067.39.17.545.305.153.137.276.31.37.515.093.207.14.454.14.74v2.09c0 .18.008.37.025.565.016.197.035.36.055.485h-.64c-.02-.113-.035-.236-.045-.37-.01-.133-.015-.263-.015-.39h-.02c-.194.314-.422.54-.685.675-.264.137-.585.205-.965.205-.207 0-.407-.028-.6-.085-.194-.056-.365-.143-.515-.26-.15-.116-.27-.26-.36-.43-.09-.17-.135-.368-.135-.595 0-.38.098-.678.295-.895.196-.216.443-.378.74-.485.296-.106.613-.173.95-.2.336-.026.645-.04.925-.04h.33zM53.728 7.56h-.66V0h.66v7.56M58.058 7.56h-.72V.48h.72v7.08M59.868 2.88c.013.127.02.252.025.375.003.124.005.25.005.375h.02c.073-.126.166-.243.28-.35.113-.106.24-.198.38-.275.14-.076.288-.136.445-.18.156-.043.31-.065.465-.065.6 0 1.043.16 1.33.475.286.317.43.77.43 1.355v2.97h-.66V4.97c0-.52-.09-.918-.27-1.195-.18-.276-.514-.415-1-.415-.034 0-.127.014-.28.04-.154.027-.315.1-.485.22-.17.12-.322.3-.455.54-.134.24-.2.574-.2 1v2.4h-.66V3.91c0-.126-.005-.286-.015-.48-.01-.193-.022-.376-.035-.55h.68zM66.778 3.99c-.1-.193-.234-.346-.4-.46-.167-.113-.37-.17-.61-.17-.114 0-.23.014-.345.04-.117.027-.222.07-.315.125-.094.057-.17.13-.225.215-.057.087-.085.194-.085.32 0 .22.076.38.23.48.153.1.383.187.69.26l.67.16c.326.074.598.222.815.445.216.224.325.502.325.835 0 .254-.052.472-.155.655-.104.184-.24.334-.41.45-.17.117-.365.202-.585.255-.22.054-.444.08-.67.08-.36 0-.695-.068-1.005-.205-.31-.136-.575-.37-.795-.705l.57-.39c.133.214.3.384.505.51.203.127.445.19.725.19.133 0 .266-.015.4-.045.133-.03.25-.076.355-.14.103-.063.186-.145.25-.245.063-.1.095-.216.095-.35 0-.233-.087-.4-.26-.505-.174-.103-.384-.185-.63-.245l-.64-.15c-.08-.02-.19-.053-.325-.1-.137-.046-.27-.116-.4-.21-.13-.093-.242-.215-.335-.365-.094-.15-.14-.335-.14-.555 0-.24.048-.45.145-.63.096-.18.226-.326.39-.44.163-.113.348-.198.555-.255.206-.056.42-.085.64-.085.326 0 .63.064.91.19.28.127.496.344.65.65l-.59.39zM70.478 3.48h-1.35v2.76c0 .174.016.315.05.425.033.11.08.195.14.255s.13.102.215.125c.083.024.175.035.275.035.113 0 .23-.016.35-.05.12-.033.23-.076.33-.13l.03.61c-.247.114-.544.17-.89.17-.127 0-.26-.016-.395-.05-.137-.033-.262-.096-.375-.19-.114-.093-.207-.22-.28-.38-.074-.16-.11-.37-.11-.63V3.48h-.99v-.6h.99V1.56h.66v1.32h1.35v.6zM71.838 1.08c0 .14-.05.255-.15.345s-.21.135-.33.135-.23-.045-.33-.135-.15-.205-.15-.345c0-.14.05-.255.15-.345s.21-.135.33-.135.23.045.33.135.15.205.15.345zm-.15 6.48h-.66V2.88h.66v4.68zM75.198 3.48h-1.35v2.76c0 .174.016.315.05.425.033.11.08.195.14.255s.13.102.215.125c.083.024.175.035.275.035.113 0 .23-.016.35-.05.12-.033.23-.076.33-.13l.03.61c-.247.114-.544.17-.89.17-.127 0-.26-.016-.395-.05-.137-.033-.262-.096-.375-.19-.114-.093-.207-.22-.28-.38-.074-.16-.11-.37-.11-.63V3.48h-.99v-.6h.99V1.56h.66v1.32h1.35v.6zM78.978 7.56c-.014-.126-.022-.25-.025-.375-.004-.123-.005-.248-.005-.375h-.02c-.074.127-.167.244-.28.35-.114.107-.24.2-.38.275-.14.077-.29.137-.445.18-.157.044-.312.065-.465.065-.6 0-1.044-.158-1.33-.475-.287-.316-.43-.768-.43-1.355V2.88h.66v2.59c0 .26.02.49.06.69.04.2.108.37.205.505.096.137.226.24.39.31.163.07.368.105.615.105.033 0 .126-.013.28-.04.153-.026.315-.1.485-.22s.32-.3.455-.54c.133-.24.2-.573.2-1v-2.4h.66v3.65c0 .127.005.287.015.48.01.194.02.377.035.55h-.68zM83.078 3.48h-1.35v2.76c0 .174.016.315.05.425.033.11.08.195.14.255s.13.102.215.125c.083.024.175.035.275.035.113 0 .23-.016.35-.05.12-.033.23-.076.33-.13l.03.61c-.247.114-.544.17-.89.17-.127 0-.26-.016-.395-.05-.137-.033-.262-.096-.375-.19-.114-.093-.207-.22-.28-.38-.074-.16-.11-.37-.11-.63V3.48h-.99v-.6h.99V1.56h.66v1.32h1.35v.6zM84.438 1.08c0 .14-.05.255-.15.345s-.21.135-.33.135-.23-.045-.33-.135-.15-.205-.15-.345c0-.14.05-.255.15-.345s.21-.135.33-.135.23.045.33.135.15.205.15.345zm-.15 6.48h-.66V2.88h.66v4.68zM89.388 5.22c0-.26-.042-.503-.125-.73-.084-.226-.202-.423-.355-.59-.154-.166-.34-.298-.555-.395-.217-.096-.462-.145-.735-.145-.274 0-.52.05-.735.145-.217.097-.4.23-.55.395-.15.167-.267.364-.35.59-.084.227-.125.47-.125.73s.04.504.125.73c.083.227.2.424.35.59.15.167.333.3.55.395.216.097.46.145.735.145.273 0 .518-.048.735-.145.216-.096.4-.228.555-.395.153-.166.27-.363.355-.59.083-.226.125-.47.125-.73zm.72 0c0 .354-.062.68-.185.98-.124.3-.295.56-.515.78-.22.22-.482.392-.785.515-.304.124-.64.185-1.005.185-.36 0-.692-.06-.995-.185-.304-.123-.565-.295-.785-.515-.22-.22-.392-.48-.515-.78-.124-.3-.185-.626-.185-.98 0-.353.06-.68.185-.98.123-.3.295-.56.515-.78.22-.22.48-.39.785-.515.303-.123.635-.185.995-.185.366 0 .7.062 1.005.185.303.124.565.295.785.515.22.22.39.48.515.78.123.3.185.627.185.98zM91.438 2.88c.013.127.02.252.025.375.003.124.005.25.005.375h.02c.073-.126.166-.243.28-.35.113-.106.24-.198.38-.275.14-.076.288-.136.445-.18.156-.043.31-.065.465-.065.6 0 1.043.16 1.33.475.286.317.43.77.43 1.355v2.97h-.66V4.97c0-.52-.09-.918-.27-1.195-.18-.276-.514-.415-1-.415-.034 0-.127.014-.28.04-.154.027-.315.1-.485.22-.17.12-.322.3-.455.54-.134.24-.2.574-.2 1v2.4h-.66V3.91c0-.126-.005-.286-.015-.48-.01-.193-.022-.376-.035-.55h.68zM46.018 75.807h-2.81l-.03 1.09c.153-.055.363-.08.63-.08.36 0 .69.053.99.16.3.105.558.26.775.465.217.203.385.45.505.74s.18.613.18.975c0 .4-.068.756-.205 1.07-.137.312-.325.578-.565.795-.24.215-.525.38-.855.494s-.688.17-1.075.17c-.613 0-1.127-.15-1.54-.45-.413-.3-.697-.753-.85-1.36l1.57-.36c.04.255.147.46.32.616.173.156.39.234.65.234.32 0 .575-.1.765-.3.19-.2.285-.454.285-.76 0-.233-.048-.425-.145-.575-.097-.15-.223-.27-.38-.358-.157-.09-.332-.152-.525-.186s-.387-.05-.58-.05c-.247 0-.495.022-.745.07s-.492.11-.725.19l.08-3.91h4.28v1.32zM54.628 80.486h.02v-6h.72v7.08h-.9l-4.22-6.06h-.02v6.06h-.72v-7.08h.9l4.22 6M60.558 79.227c0-.26-.042-.504-.125-.73s-.202-.424-.355-.59c-.153-.168-.338-.3-.555-.395-.217-.098-.462-.146-.735-.146s-.518.05-.735.146c-.217.096-.4.227-.55.395-.15.166-.267.363-.35.59s-.125.47-.125.73.042.502.125.73.2.423.35.59.333.298.55.395c.217.096.462.145.735.145s.518-.05.735-.145c.217-.098.402-.23.555-.396.153-.166.272-.363.355-.59s.125-.47.125-.73zm.72 0c0 .352-.062.68-.185.98-.123.3-.295.56-.515.78-.22.22-.482.39-.785.514s-.638.187-1.005.187c-.36 0-.692-.062-.995-.186s-.565-.294-.785-.513c-.22-.22-.392-.48-.515-.78-.123-.3-.185-.628-.185-.98 0-.355.062-.682.185-.98.123-.3.295-.56.515-.78.22-.22.482-.392.785-.515.303-.125.635-.186.995-.186.367 0 .702.06 1.005.186.303.123.565.295.785.516.22.22.392.48.515.78.123.297.185.623.185.98zM62.608 76.887c.013.125.022.25.025.375.003.123.005.248.005.375h.02c.073-.127.167-.244.28-.352.113-.105.24-.2.38-.273.14-.078.288-.14.445-.182.157-.043.312-.064.465-.064.6 0 1.043.158 1.33.475s.43.77.43 1.356v2.97h-.66v-2.59c0-.52-.09-.92-.27-1.194-.18-.277-.513-.416-1-.416-.033 0-.127.014-.28.04-.153.026-.315.1-.485.22-.17.12-.322.3-.455.54-.133.24-.2.573-.2 1v2.4h-.66v-3.65c0-.126-.005-.286-.015-.48-.01-.192-.022-.376-.035-.548h.68zM69.268 79.496h-2.57v-.66h2.57v.66M75.338 75.785c-.24-.254-.527-.453-.86-.6s-.72-.22-1.16-.22c-.453 0-.86.083-1.22.25-.36.167-.665.39-.915.67s-.442.605-.575.976c-.133.37-.2.76-.2 1.165s.067.795.2 1.166c.133.37.325.696.575.976s.555.502.915.67c.36.166.767.25 1.22.25.367 0 .718-.045 1.055-.135s.638-.212.905-.364v-2.37h-1.69v-.66h2.41v3.47c-.4.234-.838.412-1.315.535s-.932.187-1.365.187c-.527 0-1.015-.094-1.465-.28-.45-.187-.84-.444-1.17-.774s-.588-.723-.775-1.176c-.187-.453-.28-.95-.28-1.49s.093-1.037.28-1.49c.187-.453.445-.844.775-1.174s.72-.59 1.17-.775c.45-.188.938-.28 1.465-.28.567 0 1.055.08 1.465.235.41.156.775.395 1.095.715l-.54.527zM81.158 79.227c0-.26-.042-.504-.125-.73-.083-.227-.202-.424-.355-.59-.153-.168-.338-.3-.555-.395-.217-.098-.462-.146-.735-.146-.273 0-.518.05-.735.146-.217.096-.4.227-.55.395-.15.166-.267.363-.35.59s-.125.47-.125.73.042.502.125.73.2.423.35.59.333.298.55.395c.217.096.462.145.735.145.273 0 .518-.05.735-.145.217-.098.402-.23.555-.396.153-.166.272-.363.355-.59.083-.227.125-.47.125-.73zm.72 0c0 .352-.062.68-.185.98-.123.3-.295.56-.515.78-.22.22-.482.39-.785.514-.303.124-.638.187-1.005.187-.36 0-.692-.062-.995-.186-.303-.122-.565-.294-.785-.513-.22-.22-.392-.48-.515-.78-.123-.3-.185-.628-.185-.98 0-.355.062-.682.185-.98.123-.3.295-.56.515-.78.22-.22.482-.392.785-.515.303-.125.635-.186.995-.186.367 0 .702.06 1.005.186.303.123.565.295.785.516.22.22.392.48.515.78.123.297.185.623.185.98zM84.638 81.566h-.74l-1.9-4.68h.79l1.49 3.94h.02l1.49-3.94h.75l-1.9 4.68M90.538 78.865c0-.447-.133-.81-.4-1.084-.267-.276-.64-.415-1.12-.415-.213 0-.42.04-.62.125s-.375.195-.525.336-.27.3-.36.48c-.09.18-.135.365-.135.56h3.16zm-3.18.54c.02.233.077.454.17.66.093.206.217.386.37.536.153.15.33.27.53.355.2.086.417.13.65.13.353 0 .658-.08.915-.245.257-.162.452-.352.585-.564l.51.42c-.28.354-.588.607-.925.76-.337.154-.698.23-1.085.23-.347 0-.668-.062-.965-.186-.297-.123-.552-.295-.765-.514-.213-.22-.382-.48-.505-.78-.123-.3-.185-.628-.185-.98 0-.355.06-.682.18-.98.12-.3.287-.56.5-.78.213-.22.463-.392.75-.515.287-.124.597-.185.93-.185.353 0 .67.062.95.19.28.126.515.294.705.505.19.21.335.455.435.74.1.283.15.584.15.904v.3h-3.9v.002zM92.028 78.346c0-.207-.005-.416-.015-.63-.01-.214-.018-.49-.025-.83h.65v.87h.02c.047-.127.113-.248.2-.365s.192-.222.315-.313c.123-.094.267-.17.43-.225.163-.06.348-.086.555-.086.187 0 .35.02.49.06l-.13.65c-.087-.034-.213-.05-.38-.05-.253 0-.47.05-.65.145-.18.097-.33.222-.45.372s-.208.31-.265.484-.085.34-.085.5v2.64h-.66v-3.22zM95.588 76.887c.013.125.022.25.025.375.003.123.005.248.005.375h.02c.073-.127.167-.244.28-.352.113-.105.24-.2.38-.273.14-.078.288-.14.445-.182.157-.043.312-.064.465-.064.6 0 1.043.158 1.33.475s.43.77.43 1.356v2.97h-.66v-2.59c0-.52-.09-.92-.27-1.194-.18-.277-.513-.416-1-.416-.033 0-.127.014-.28.04-.153.026-.315.1-.485.22-.17.12-.322.3-.455.54-.133.24-.2.573-.2 1v2.4h-.66v-3.65c0-.126-.005-.286-.015-.48-.01-.192-.022-.376-.035-.548h.68zM100.018 77.926c0-.174-.005-.348-.015-.52-.01-.174-.022-.348-.035-.52h.71v.71h.02c.16-.274.382-.48.665-.62.283-.14.565-.21.845-.21.127 0 .262.013.405.04.143.025.282.074.415.145.133.07.258.17.375.296.117.125.215.29.295.49.133-.3.345-.537.635-.71s.592-.26.905-.26c.6 0 1.043.157 1.33.474s.43.77.43 1.355v2.97h-.66v-2.73c0-.474-.083-.837-.25-1.09-.167-.253-.477-.38-.93-.38-.247 0-.453.05-.62.146-.167.097-.302.226-.405.386s-.178.34-.225.545c-.047.204-.07.415-.07.636v2.49h-.66v-2.73c0-.475-.083-.838-.25-1.09-.167-.254-.477-.38-.93-.38-.04 0-.132.013-.275.04-.143.025-.292.1-.445.22-.153.12-.292.3-.415.54s-.185.572-.185 1v2.4h-.66v-3.64zM111.678 78.865c0-.447-.133-.81-.4-1.084-.267-.276-.64-.415-1.12-.415-.213 0-.42.04-.62.125-.2.084-.375.195-.525.336-.15.14-.27.3-.36.48-.09.18-.135.365-.135.56h3.16zm-3.18.54c.02.233.077.454.17.66.093.206.217.386.37.536.153.15.33.27.53.355.2.086.417.13.65.13.353 0 .658-.08.915-.245.257-.162.452-.352.585-.564l.51.42c-.28.354-.588.607-.925.76-.337.154-.698.23-1.085.23-.347 0-.668-.062-.965-.186s-.552-.295-.765-.514c-.213-.22-.382-.48-.505-.78-.123-.3-.185-.628-.185-.98 0-.355.06-.682.18-.98.12-.3.287-.56.5-.78.213-.22.463-.392.75-.515.287-.124.597-.185.93-.185.353 0 .67.062.95.19.28.126.515.294.705.505.19.21.335.455.435.74.1.283.15.584.15.904v.3h-3.9v.002zM113.728 76.887c.013.125.022.25.025.375.003.123.005.248.005.375h.02c.073-.127.167-.244.28-.352.113-.105.24-.2.38-.273.14-.078.288-.14.445-.182.157-.043.312-.064.465-.064.6 0 1.043.158 1.33.475.287.317.43.77.43 1.356v2.97h-.66v-2.59c0-.52-.09-.92-.27-1.194-.18-.277-.513-.416-1-.416-.033 0-.127.014-.28.04-.153.026-.315.1-.485.22-.17.12-.322.3-.455.54s-.2.573-.2 1v2.4h-.66v-3.65c0-.126-.005-.286-.015-.48-.01-.192-.022-.376-.035-.548h.68zM120.578 77.486h-1.35v2.76c0 .172.017.314.05.424.033.11.08.195.14.256s.132.102.215.125.175.036.275.036c.113 0 .23-.018.35-.05.12-.034.23-.077.33-.13l.03.61c-.247.112-.543.17-.89.17-.127 0-.258-.02-.395-.05-.137-.035-.262-.098-.375-.19-.113-.095-.207-.22-.28-.38-.073-.16-.11-.37-.11-.63v-2.95h-.99v-.6h.99v-1.32h.66v1.32h1.35v.6zM123.638 79.236c-.167 0-.375.008-.625.025s-.49.056-.72.12c-.23.062-.427.16-.59.295-.163.133-.245.316-.245.55 0 .153.032.286.095.396.063.11.148.2.255.27s.225.122.355.15.262.046.395.046c.24 0 .448-.04.625-.12.177-.08.325-.188.445-.325s.208-.296.265-.48.085-.378.085-.583v-.34h-.34zm.34-.54v-.12c0-.807-.4-1.21-1.2-1.21-.547 0-1.023.183-1.43.55l-.4-.47c.44-.454 1.1-.68 1.98-.68.227 0 .445.032.655.1s.392.167.545.304.277.31.37.516c.093.207.14.453.14.74v2.09c0 .18.008.37.025.564.017.197.035.36.055.486h-.64c-.02-.115-.035-.238-.045-.37-.01-.134-.015-.265-.015-.39h-.02c-.193.312-.422.537-.685.674s-.585.205-.965.205c-.207 0-.407-.03-.6-.084-.193-.058-.365-.144-.515-.26-.15-.116-.27-.26-.36-.43s-.135-.37-.135-.595c0-.38.098-.68.295-.895.197-.22.443-.38.74-.486.297-.107.613-.174.95-.2.337-.026.645-.04.925-.04h.33zM126.478 81.566h-.66v-7.56h.66v7.56M136.208 78.025c0-.406-.067-.795-.2-1.164-.133-.37-.325-.694-.575-.974-.25-.28-.555-.504-.915-.67-.36-.168-.767-.25-1.22-.25-.453 0-.86.082-1.22.25-.36.166-.665.39-.915.67s-.442.604-.575.975c-.133.37-.2.76-.2 1.165s.067.795.2 1.166c.133.37.325.696.575.976s.555.502.915.67c.36.166.767.25 1.22.25.453 0 .86-.084 1.22-.25.36-.168.665-.39.915-.67s.442-.605.575-.975c.133-.37.2-.758.2-1.165zm.78 0c0 .54-.093 1.037-.28 1.49s-.445.846-.775 1.176-.72.59-1.17.776c-.45.186-.938.28-1.465.28-.527 0-1.015-.095-1.465-.28-.45-.188-.84-.445-1.17-.775s-.588-.722-.775-1.175c-.187-.453-.28-.95-.28-1.49s.093-1.037.28-1.49c.187-.453.445-.844.775-1.174s.72-.59 1.17-.774c.45-.188.938-.28 1.465-.28.527 0 1.015.093 1.465.28.45.186.84.445 1.17.775s.588.722.775 1.175.28.95.28 1.49zM137.758 78.346c0-.207-.005-.416-.015-.63-.01-.214-.018-.49-.025-.83h.65v.87h.02c.047-.127.113-.248.2-.365s.192-.222.315-.313c.123-.094.267-.17.43-.225.163-.06.348-.086.555-.086.187 0 .35.02.49.06l-.13.65c-.087-.034-.213-.05-.38-.05-.253 0-.47.05-.65.145-.18.097-.33.222-.45.372s-.208.31-.265.484-.085.34-.085.5v2.64h-.66v-3.22zM140.808 79.166c0 .246.045.48.135.695.09.216.213.407.37.57.157.163.34.294.55.39s.438.146.685.146c.24 0 .468-.045.685-.13.217-.09.408-.21.575-.366s.295-.346.385-.564c.09-.22.132-.467.125-.74 0-.248-.04-.48-.12-.695-.08-.216-.197-.405-.35-.57-.153-.163-.34-.292-.56-.388-.22-.098-.467-.146-.74-.146-.247 0-.475.05-.685.146-.21.096-.393.225-.55.39s-.28.353-.37.57c-.09.216-.135.446-.135.694zm-.12 3.34c.193.26.445.47.755.625s.655.235 1.035.235c.333 0 .617-.05.85-.145.233-.098.422-.23.565-.395.143-.168.247-.363.31-.586s.095-.462.095-.716v-.84h-.02c-.213.32-.473.547-.78.68s-.63.2-.97.2c-.34 0-.658-.06-.955-.18-.297-.12-.555-.284-.775-.495-.22-.21-.393-.462-.52-.755-.127-.295-.19-.61-.19-.95s.06-.657.18-.95c.12-.295.285-.55.495-.77.21-.22.46-.393.75-.516.29-.126.608-.187.955-.187.14 0 .288.014.445.04.157.026.313.073.47.14.157.066.312.158.465.275.153.115.297.266.43.445h.02v-.78h.66v4.64c0 .254-.032.523-.095.81-.063.286-.187.552-.37.79-.183.24-.438.44-.765.602s-.753.238-1.28.238c-.467 0-.883-.076-1.25-.23-.367-.153-.7-.39-1-.71l.49-.517zM148.598 79.236c-.167 0-.375.008-.625.025s-.49.056-.72.12c-.23.062-.427.16-.59.295-.163.133-.245.316-.245.55 0 .153.032.286.095.396s.148.2.255.27.225.122.355.15.262.046.395.046c.24 0 .448-.04.625-.12.177-.08.325-.188.445-.325s.208-.296.265-.48.085-.378.085-.583v-.34h-.34zm.34-.54v-.12c0-.807-.4-1.21-1.2-1.21-.547 0-1.023.183-1.43.55l-.4-.47c.44-.454 1.1-.68 1.98-.68.227 0 .445.032.655.1s.392.167.545.304c.153.137.277.31.37.516.093.207.14.453.14.74v2.09c0 .18.008.37.025.564.017.197.035.36.055.486h-.64c-.02-.115-.035-.238-.045-.37-.01-.134-.015-.265-.015-.39h-.02c-.193.312-.422.537-.685.674s-.585.205-.965.205c-.207 0-.407-.03-.6-.084-.193-.058-.365-.144-.515-.26-.15-.116-.27-.26-.36-.43s-.135-.37-.135-.595c0-.38.098-.68.295-.895.197-.22.443-.38.74-.486.297-.107.613-.174.95-.2.337-.026.645-.04.925-.04h.33zM151.258 76.887c.013.125.022.25.025.375.003.123.005.248.005.375h.02c.073-.127.167-.244.28-.352.113-.105.24-.2.38-.273.14-.078.288-.14.445-.182.157-.043.312-.064.465-.064.6 0 1.043.158 1.33.475s.43.77.43 1.356v2.97h-.66v-2.59c0-.52-.09-.92-.27-1.194-.18-.277-.513-.416-1-.416-.033 0-.127.014-.28.04-.153.026-.315.1-.485.22-.17.12-.322.3-.455.54-.133.24-.2.573-.2 1v2.4h-.66v-3.65c0-.126-.005-.286-.015-.48-.01-.192-.022-.376-.035-.548h.68zM156.648 75.086c0 .14-.05.256-.15.346s-.21.135-.33.135-.23-.045-.33-.135-.15-.205-.15-.346.05-.256.15-.346.21-.135.33-.135.23.045.33.135.15.205.15.346zm-.15 6.48h-.66v-4.68h.66v4.68zM160.798 77.365l-2.74 3.602h2.84v.6h-3.8v-.48l2.74-3.6h-2.6v-.6h3.56v.478M164.008 79.236c-.167 0-.375.008-.625.025s-.49.056-.72.12c-.23.062-.427.16-.59.295-.163.133-.245.316-.245.55 0 .153.032.286.095.396s.148.2.255.27c.107.07.225.122.355.15.13.03.262.046.395.046.24 0 .448-.04.625-.12.177-.08.325-.188.445-.325s.208-.296.265-.48c.057-.183.085-.378.085-.583v-.34h-.34zm.34-.54v-.12c0-.807-.4-1.21-1.2-1.21-.547 0-1.023.183-1.43.55l-.4-.47c.44-.454 1.1-.68 1.98-.68.227 0 .445.032.655.1s.392.167.545.304.277.31.37.516c.093.207.14.453.14.74v2.09c0 .18.008.37.025.564.017.197.035.36.055.486h-.64c-.02-.115-.035-.238-.045-.37-.01-.134-.015-.265-.015-.39h-.02c-.193.312-.422.537-.685.674-.263.137-.585.205-.965.205-.207 0-.407-.03-.6-.084-.193-.058-.365-.144-.515-.26-.15-.116-.27-.26-.36-.43-.09-.17-.135-.37-.135-.595 0-.38.098-.68.295-.895.197-.22.443-.38.74-.486.297-.107.613-.174.95-.2.337-.026.645-.04.925-.04h.33zM168.458 77.486h-1.35v2.76c0 .172.017.314.05.424.033.11.08.195.14.256s.132.102.215.125.175.036.275.036c.113 0 .23-.018.35-.05.12-.034.23-.077.33-.13l.03.61c-.247.112-.543.17-.89.17-.127 0-.258-.02-.395-.05-.137-.035-.262-.098-.375-.19-.113-.095-.207-.22-.28-.38-.073-.16-.11-.37-.11-.63v-2.95h-.99v-.6h.99v-1.32h.66v1.32h1.35v.6zM169.818 75.086c0 .14-.05.256-.15.346s-.21.135-.33.135-.23-.045-.33-.135-.15-.205-.15-.346.05-.256.15-.346.21-.135.33-.135.23.045.33.135.15.205.15.346zm-.15 6.48h-.66v-4.68h.66v4.68zM174.768 79.227c0-.26-.042-.504-.125-.73s-.202-.424-.355-.59c-.153-.168-.338-.3-.555-.395-.217-.098-.462-.146-.735-.146s-.518.05-.735.146c-.217.096-.4.227-.55.395-.15.166-.267.363-.35.59s-.125.47-.125.73.042.502.125.73.2.423.35.59.333.298.55.395c.217.096.462.145.735.145s.518-.05.735-.145c.217-.098.402-.23.555-.396.153-.166.272-.363.355-.59s.125-.47.125-.73zm.72 0c0 .352-.062.68-.185.98-.123.3-.295.56-.515.78-.22.22-.482.39-.785.514-.303.124-.638.187-1.005.187-.36 0-.692-.062-.995-.186-.303-.122-.565-.294-.785-.513-.22-.22-.392-.48-.515-.78-.123-.3-.185-.628-.185-.98 0-.355.062-.682.185-.98.123-.3.295-.56.515-.78.22-.22.482-.392.785-.515.303-.125.635-.186.995-.186.367 0 .702.06 1.005.186.303.123.565.295.785.516.22.22.392.48.515.78.123.297.185.623.185.98zM176.818 76.887c.013.125.022.25.025.375.003.123.005.248.005.375h.02c.073-.127.167-.244.28-.352.113-.105.24-.2.38-.273.14-.078.288-.14.445-.182.157-.043.312-.064.465-.064.6 0 1.043.158 1.33.475s.43.77.43 1.356v2.97h-.66v-2.59c0-.52-.09-.92-.27-1.194-.18-.277-.513-.416-1-.416-.033 0-.127.014-.28.04-.153.026-.315.1-.485.22-.17.12-.322.3-.455.54-.133.24-.2.573-.2 1v2.4h-.66v-3.65c0-.126-.005-.286-.015-.48-.01-.192-.022-.376-.035-.548h.68z"/><path fill="none" stroke="#F5B756" class="public-sector line" stroke-width=".5" stroke-linejoin="round" stroke-miterlimit="10" d="M105.15 18.132V0"/><path fill-rule="evenodd" clip-rule="evenodd" fill="#F5B756" class="public-sector line" d="M105.15 19.66l.786-2.262-.786.603-.786-.602.786 2.263"/><path fill="none" stroke="#815B9C" class="ngo line" stroke-width=".5" stroke-linejoin="round" stroke-miterlimit="10" d="M37.685 64.53v18.183"/><path fill-rule="evenodd" clip-rule="evenodd" fill="#815B9C" class="ngo line" d="M37.685 63.004l-.785 2.262.785-.604.786.604-.785-2.262"/><path fill="none" stroke="#5FC0B9" class="financial-instituion line" stroke-width=".5" stroke-linejoin="round" stroke-miterlimit="10" d="M8.83 18.132V0"/><path fill-rule="evenodd" clip-rule="evenodd" fill="#5FC0B9" class="financial-instituion line" d="M8.83 19.66l.786-2.262L8.83 18l-.785-.602.786 2.263"/><path fill="#2B7872" stroke="#FFF" stroke-width=".25" stroke-linejoin="round" stroke-miterlimit="10" d="M59.83 62.324h59.705v-42H59.83v42z"/><path fill="#0C2A27" stroke="#FFF" stroke-width=".25" stroke-linejoin="round" stroke-miterlimit="10" d="M272.53 62.324h160.595v-42H272.53v42z"/><path fill="#FFF" class="text-light" d="M285.45 38.695l-1.42 1.25-.848-.98 2.308-1.95h1.4v7.08h-1.44v-5.4M291.04 41.564c-.08.02-.16.037-.24.05-.08.014-.16.02-.25.02-.33 0-.636-.06-.91-.18-.272-.12-.505-.282-.698-.49s-.344-.45-.45-.734c-.106-.283-.16-.585-.16-.905 0-.367.07-.698.204-.995.14-.297.324-.552.56-.765s.517-.378.837-.495.666-.175 1.04-.175c.366 0 .712.058 1.034.175.324.117.604.282.84.495s.424.468.56.765c.138.297.206.628.206.995 0 .253-.023.485-.07.695s-.107.408-.186.595c-.076.187-.166.365-.27.536-.104.17-.21.345-.324.525l-1.55 2.42h-1.83l1.658-2.53zm-1.21-2.18c0 .32.105.586.316.796.21.21.484.315.824.315s.615-.105.826-.315c.21-.21.314-.475.314-.795 0-.32-.105-.585-.314-.795-.21-.21-.486-.315-.826-.315s-.615.105-.824.315c-.21.21-.316.475-.316.795zM297.37 40.145h1.16c.32 0 .593-.033.815-.1.225-.067.402-.155.535-.265.135-.11.23-.24.29-.39.06-.15.09-.312.09-.485 0-.167-.03-.325-.09-.475-.06-.15-.155-.282-.29-.395-.133-.113-.31-.202-.535-.265-.223-.063-.494-.095-.814-.095h-1.16v2.47zm-.72-3.13h2.06c.722 0 1.29.157 1.706.47s.625.787.625 1.42-.208 1.108-.624 1.425c-.416.317-.984.475-1.705.475h-1.34v3.29h-.72v-7.08zM301.72 40.875c0-.207-.003-.417-.015-.63-.01-.213-.018-.49-.023-.83h.648v.87h.02c.048-.127.114-.248.2-.365.088-.117.19-.222.314-.315.125-.093.268-.168.432-.225s.348-.085.555-.085c.187 0 .35.02.49.06l-.13.65c-.086-.033-.213-.05-.38-.05-.253 0-.47.048-.65.145-.18.097-.33.22-.45.37s-.207.312-.264.485c-.057.173-.086.34-.086.5v2.64h-.66v-3.22zM305.432 37.615c0 .14-.05.255-.15.345-.1.09-.21.135-.33.135-.12 0-.23-.045-.33-.135-.1-.09-.15-.205-.15-.345 0-.14.05-.255.15-.345.1-.09.21-.135.33-.135.12 0 .23.045.33.135.1.09.15.205.15.345zm-.15 6.48h-.66v-4.68h.66v4.68zM308.432 44.096h-.74l-1.9-4.68h.788l1.49 3.94h.022l1.488-3.94h.75l-1.898 4.68M313.352 41.765c-.166 0-.375.01-.625.025s-.49.057-.72.12c-.23.062-.427.162-.59.295-.163.133-.245.316-.245.55 0 .153.03.284.094.395.064.11.148.2.256.27s.225.12.355.15c.13.03.262.045.395.045.24 0 .45-.04.625-.12s.324-.19.445-.325c.12-.137.21-.297.264-.48.057-.184.086-.377.086-.584v-.34h-.34zm.34-.54v-.12c0-.807-.4-1.21-1.202-1.21-.545 0-1.02.184-1.43.55l-.4-.47c.44-.452 1.102-.68 1.98-.68.227 0 .445.034.656.1.21.068.39.17.545.306.153.138.276.31.37.516s.14.453.14.74v2.09c0 .18.01.367.026.564.016.197.033.36.055.486h-.64c-.02-.113-.035-.238-.045-.37s-.016-.265-.016-.392h-.02c-.194.314-.423.54-.687.676-.262.137-.584.205-.965.205-.205 0-.406-.027-.6-.086-.193-.058-.365-.144-.516-.26-.148-.118-.27-.26-.36-.43s-.134-.368-.134-.595c0-.38.1-.68.295-.896.197-.218.443-.378.74-.485s.613-.173.95-.2c.337-.026.644-.04.925-.04h.333zM317.8 40.015h-1.35v2.76c0 .173.02.315.052.425.033.11.078.195.14.256s.132.102.214.125c.084.024.176.036.275.036.114 0 .23-.018.35-.05.122-.034.23-.077.33-.13l.032.61c-.246.112-.543.17-.89.17-.128 0-.26-.02-.396-.052-.137-.03-.262-.096-.375-.19-.112-.09-.206-.22-.28-.378-.072-.16-.11-.37-.11-.63v-2.95h-.99v-.6h.99v-1.32h.66v1.32h1.35v.6zM321.842 41.395c0-.447-.135-.808-.4-1.084-.266-.276-.64-.414-1.12-.414-.214 0-.42.042-.62.125s-.375.196-.525.336c-.15.14-.27.3-.36.48-.09.18-.134.366-.134.56h3.16zm-3.182.54c.02.233.078.454.17.66.096.208.22.386.37.534.155.15.33.27.53.354.2.088.418.13.65.13.354 0 .658-.08.916-.245.256-.163.45-.353.584-.565l.51.42c-.28.354-.588.607-.924.76-.336.154-.7.23-1.086.23-.346 0-.668-.062-.965-.186s-.55-.296-.766-.515c-.214-.22-.382-.48-.505-.78-.123-.3-.186-.628-.186-.98s.06-.68.18-.98c.12-.3.286-.56.5-.78.214-.22.464-.392.75-.515s.597-.185.93-.185c.354 0 .67.063.95.19.28.127.514.295.705.505.19.21.334.457.434.74.1.283.15.584.15.905v.3h-3.9zM329.13 38.185c-.31-.46-.77-.69-1.368-.69-.188 0-.37.025-.55.075s-.343.127-.485.23c-.145.103-.258.237-.346.4-.085.163-.128.355-.128.575 0 .32.09.568.27.745.18.177.404.322.67.435.266.113.56.215.875.305.316.09.61.21.875.36.266.15.49.348.67.595s.27.583.27 1.01c0 .32-.068.607-.205.865s-.316.473-.54.645c-.224.174-.474.307-.75.4-.276.094-.556.14-.835.14-.434 0-.846-.08-1.234-.245-.39-.162-.72-.432-.996-.805l.65-.47c.154.26.367.468.64.624.274.157.597.235.97.235.182 0 .36-.03.54-.086s.343-.14.485-.25c.145-.11.262-.245.355-.405s.14-.344.14-.55c0-.247-.05-.452-.155-.615-.102-.163-.24-.3-.41-.41s-.36-.202-.58-.274c-.215-.074-.44-.147-.67-.22-.23-.074-.453-.158-.67-.25-.215-.094-.41-.213-.58-.356-.17-.143-.305-.323-.408-.54-.105-.217-.157-.488-.157-.815 0-.34.064-.637.195-.89.13-.253.305-.463.52-.63.217-.167.463-.29.736-.37.273-.08.553-.12.84-.12.398 0 .764.063 1.09.19s.63.35.91.67l-.633.49zM334.24 41.395c0-.447-.133-.808-.398-1.084-.268-.276-.64-.414-1.12-.414-.214 0-.42.042-.62.125-.2.084-.375.196-.525.336-.15.14-.27.3-.36.48-.09.18-.136.366-.136.56h3.16zm-3.18.54c.02.233.08.454.17.66.095.208.218.386.372.534.154.15.33.27.53.354.198.088.417.13.65.13.353 0 .657-.08.913-.245.258-.163.453-.353.586-.565l.51.42c-.278.354-.587.607-.925.76-.336.154-.697.23-1.084.23-.345 0-.667-.062-.964-.186s-.55-.296-.766-.515c-.213-.22-.38-.48-.504-.78-.123-.3-.186-.628-.186-.98s.06-.68.18-.98c.12-.3.287-.56.5-.78.215-.22.465-.392.75-.515.287-.123.598-.185.93-.185.354 0 .67.063.95.19.28.127.515.295.706.505.19.21.334.457.434.74.1.283.15.584.15.905v.3h-3.9zM339.07 40.515c-.11-.173-.27-.32-.475-.44-.203-.12-.436-.18-.695-.18-.27-.007-.518.037-.734.13-.217.093-.4.223-.555.39-.15.167-.27.365-.35.595-.08.23-.12.48-.12.745s.04.515.12.745.198.428.35.596c.155.166.34.297.556.39.217.093.463.136.734.13.26 0 .492-.06.695-.18.205-.12.363-.268.475-.44l.54.41c-.23.272-.495.474-.79.604-.293.13-.6.197-.92.205-.38.008-.723-.053-1.03-.176s-.567-.296-.784-.515c-.217-.22-.38-.482-.494-.785s-.17-.633-.17-.985.057-.683.17-.985c.113-.303.277-.565.494-.785.217-.22.48-.392.785-.515s.65-.182 1.03-.175c.32.007.627.075.92.205.295.13.56.332.79.605l-.54.41z"/><path fill="#FFF" class="text-light" d="M342.4 40.015h-1.35v2.76c0 .173.018.315.05.425.034.11.08.195.14.256.06.06.133.102.215.125.084.024.176.036.275.036.115 0 .23-.018.35-.05.12-.034.23-.077.33-.13l.03.61c-.245.112-.542.17-.89.17-.125 0-.258-.02-.395-.052-.137-.03-.262-.096-.375-.19-.113-.09-.207-.22-.28-.378-.073-.16-.11-.37-.11-.63v-2.95h-.99v-.6h.99v-1.32h.66v1.32h1.35v.6zM346.81 41.755c0-.26-.04-.503-.124-.73-.082-.227-.2-.422-.355-.59-.15-.166-.337-.297-.554-.394-.215-.096-.46-.144-.734-.144s-.518.048-.734.145c-.217.098-.4.23-.55.396s-.267.363-.35.59c-.085.227-.126.47-.126.73s.04.502.125.728.2.424.35.59c.15.168.334.3.55.396.218.096.462.145.735.145s.52-.05.734-.145c.217-.098.402-.23.555-.396.155-.166.274-.363.356-.59.084-.226.125-.468.125-.73zm.72 0c0 .353-.06.68-.185.98-.123.3-.295.56-.516.78-.22.22-.48.39-.784.514-.305.122-.64.185-1.006.185-.36 0-.69-.062-.994-.186-.305-.124-.566-.296-.785-.515-.22-.22-.392-.48-.515-.78-.123-.3-.186-.628-.186-.98s.06-.68.185-.98c.123-.3.295-.56.516-.78.22-.22.48-.392.786-.515.303-.123.635-.185.994-.185.367 0 .7.062 1.006.185.303.123.564.295.783.515.22.22.392.48.515.78.126.3.186.627.186.98zM348.3 40.875c0-.207-.003-.417-.015-.63-.01-.213-.018-.49-.023-.83h.648v.87h.02c.048-.127.114-.248.2-.365.088-.117.19-.222.314-.315.125-.093.268-.168.432-.225.162-.057.348-.085.555-.085.187 0 .35.02.49.06l-.13.65c-.086-.033-.213-.05-.38-.05-.253 0-.47.048-.65.145-.18.097-.33.22-.45.37s-.207.312-.264.485c-.057.173-.086.34-.086.5v2.64h-.66v-3.22z"/></svg>