<?xml version="1.0" encoding="utf-8"?>
<!-- Generator: Adobe Illustrator 16.0.0, SVG Export Plug-In . SVG Version: 6.00 Build 0)  -->
<!DOCTYPE svg PUBLIC "-//W3C//DTD SVG 1.1//EN" "http://www.w3.org/Graphics/SVG/1.1/DTD/svg11.dtd">
<svg version="1.1" id="Layer_1" xmlns="http://www.w3.org/2000/svg" xmlns:xlink="http://www.w3.org/1999/xlink" x="0px" y="0px"
	 width="433.25px" height="83.965px" viewBox="0 0 433.25 83.965" enable-background="new 0 0 433.25 83.965" xml:space="preserve" class="figure4 figure">
<g>
	<polygon fill="#185954" class="public-sector" stroke="#FFFFFF" stroke-width="0.25" stroke-linejoin="round" stroke-miterlimit="10" points="
		119.535,62.324 272.529,62.324 272.529,20.325 119.535,20.325 119.535,62.324 	"/>
	<polygon fill="#40978F" class="ngo" stroke="#FFFFFF" stroke-width="0.25" stroke-linejoin="round" stroke-miterlimit="10" points="
		17.111,62.324 59.83,62.324 59.83,20.325 17.111,20.325 17.111,62.324 	"/>
	<polygon fill="#5FC0B9" class="financial-instituion" stroke="#FFFFFF" stroke-width="0.25" stroke-linejoin="round" stroke-miterlimit="10" points="
		0.125,62.324 17.111,62.324 17.111,20.325 0.125,20.325 0.125,62.324 	"/>
	<polygon fill="#FFFFFF" class="text-light" points="133.423,38.695 132.003,39.945 131.153,38.965 133.463,37.015 134.863,37.015 134.863,44.096 
		133.423,44.096 133.423,38.695 	"/>
	<path fill="#FFFFFF" class="text-light" d="M136.553,38.845c0-0.327,0.062-0.612,0.185-0.855c0.124-0.243,0.294-0.447,0.51-0.61
		c0.217-0.163,0.469-0.285,0.755-0.365c0.287-0.08,0.594-0.12,0.92-0.12c0.327,0,0.634,0.04,0.92,0.12
		c0.287,0.08,0.537,0.202,0.75,0.365c0.214,0.163,0.384,0.367,0.51,0.61c0.127,0.243,0.19,0.528,0.19,0.855
		c0,0.387-0.105,0.717-0.315,0.99s-0.505,0.467-0.885,0.58v0.02c0.427,0.113,0.754,0.318,0.98,0.615
		c0.227,0.297,0.34,0.665,0.34,1.104c0,0.34-0.068,0.641-0.205,0.9c-0.136,0.26-0.32,0.475-0.55,0.645
		c-0.23,0.17-0.495,0.299-0.795,0.385c-0.3,0.088-0.613,0.131-0.94,0.131c-0.326,0-0.64-0.043-0.94-0.131
		c-0.3-0.086-0.565-0.215-0.795-0.385s-0.413-0.385-0.55-0.645c-0.136-0.26-0.205-0.561-0.205-0.9c0-0.439,0.114-0.808,0.34-1.104
		c0.227-0.297,0.554-0.502,0.98-0.615v-0.02c-0.38-0.113-0.675-0.307-0.885-0.58C136.658,39.562,136.553,39.232,136.553,38.845
		L136.553,38.845z M138.053,39.055c0,0.22,0.08,0.407,0.24,0.56c0.16,0.153,0.37,0.23,0.63,0.23c0.26,0,0.47-0.077,0.63-0.23
		c0.16-0.153,0.24-0.34,0.24-0.56c0-0.213-0.08-0.397-0.24-0.55c-0.16-0.153-0.37-0.23-0.63-0.23c-0.26,0-0.47,0.077-0.63,0.23
		S138.053,38.842,138.053,39.055L138.053,39.055z M137.933,41.945c0,0.246,0.09,0.457,0.27,0.629c0.18,0.174,0.42,0.26,0.72,0.26
		c0.3,0,0.54-0.086,0.72-0.26c0.18-0.172,0.27-0.383,0.27-0.629c0-0.254-0.09-0.467-0.27-0.641c-0.18-0.173-0.42-0.26-0.72-0.26
		c-0.3,0-0.54,0.087-0.72,0.26C138.023,41.479,137.933,41.691,137.933,41.945L137.933,41.945z"/>
	<path fill="#FFFFFF" class="text-light" d="M150.033,38.315c-0.24-0.253-0.526-0.453-0.86-0.6c-0.333-0.147-0.72-0.22-1.16-0.22
		c-0.453,0-0.86,0.083-1.22,0.25s-0.665,0.39-0.915,0.67c-0.25,0.28-0.441,0.605-0.575,0.975c-0.133,0.37-0.2,0.758-0.2,1.165
		c0,0.407,0.067,0.795,0.2,1.165c0.134,0.37,0.325,0.694,0.575,0.976c0.25,0.279,0.555,0.502,0.915,0.67
		c0.36,0.166,0.767,0.25,1.22,0.25c0.367,0,0.719-0.045,1.055-0.135c0.337-0.09,0.639-0.213,0.905-0.365v-2.371h-1.69v-0.66h2.41
		v3.47c-0.4,0.232-0.838,0.412-1.315,0.535c-0.476,0.123-0.931,0.186-1.365,0.186c-0.526,0-1.015-0.094-1.465-0.281
		c-0.45-0.186-0.84-0.445-1.17-0.773c-0.33-0.33-0.588-0.723-0.775-1.176c-0.186-0.453-0.28-0.95-0.28-1.49s0.094-1.037,0.28-1.49
		c0.187-0.453,0.445-0.845,0.775-1.175s0.72-0.588,1.17-0.775c0.45-0.187,0.939-0.28,1.465-0.28c0.567,0,1.055,0.078,1.465,0.235
		s0.775,0.395,1.095,0.715L150.033,38.315L150.033,38.315z"/>
	<path fill="#FFFFFF" class="text-light" d="M155.853,41.755c0-0.261-0.041-0.503-0.125-0.729c-0.083-0.228-0.201-0.423-0.355-0.59
		c-0.153-0.167-0.338-0.298-0.555-0.395c-0.216-0.097-0.461-0.145-0.735-0.145c-0.273,0-0.518,0.048-0.735,0.145
		c-0.216,0.097-0.4,0.228-0.55,0.395s-0.266,0.363-0.35,0.59c-0.083,0.227-0.125,0.469-0.125,0.729s0.042,0.503,0.125,0.729
		c0.084,0.227,0.2,0.424,0.35,0.59c0.15,0.168,0.334,0.299,0.55,0.396c0.217,0.096,0.462,0.145,0.735,0.145
		c0.274,0,0.519-0.049,0.735-0.145c0.217-0.098,0.402-0.229,0.555-0.396c0.154-0.166,0.272-0.363,0.355-0.59
		C155.812,42.258,155.853,42.016,155.853,41.755L155.853,41.755z M156.573,41.755c0,0.353-0.061,0.681-0.185,0.979
		c-0.123,0.301-0.295,0.561-0.515,0.781c-0.22,0.219-0.481,0.391-0.785,0.514c-0.303,0.123-0.638,0.186-1.005,0.186
		c-0.36,0-0.691-0.062-0.995-0.186c-0.303-0.123-0.565-0.295-0.785-0.514c-0.22-0.221-0.391-0.48-0.515-0.781
		c-0.123-0.299-0.185-0.627-0.185-0.979s0.062-0.681,0.185-0.98c0.124-0.3,0.295-0.56,0.515-0.78c0.22-0.22,0.482-0.392,0.785-0.515
		c0.304-0.123,0.635-0.185,0.995-0.185c0.367,0,0.702,0.062,1.005,0.185c0.304,0.123,0.565,0.295,0.785,0.515
		c0.22,0.22,0.392,0.48,0.515,0.78C156.512,41.074,156.573,41.402,156.573,41.755L156.573,41.755z"/>
	<polygon fill="#FFFFFF" class="text-light" points="159.333,44.096 158.593,44.096 156.693,39.415 157.483,39.415 158.973,43.355 158.993,43.355 
		160.483,39.415 161.233,39.415 159.333,44.096 	"/>
	<path fill="#FFFFFF" class="text-light" d="M165.233,41.395c0-0.447-0.133-0.808-0.4-1.084c-0.266-0.277-0.64-0.415-1.12-0.415
		c-0.213,0-0.42,0.042-0.62,0.125c-0.2,0.083-0.375,0.195-0.525,0.335c-0.15,0.14-0.27,0.3-0.36,0.48
		c-0.09,0.181-0.135,0.366-0.135,0.56H165.233L165.233,41.395z M162.053,41.936c0.02,0.232,0.077,0.453,0.17,0.66
		c0.094,0.207,0.217,0.385,0.37,0.533c0.154,0.15,0.33,0.27,0.53,0.355c0.2,0.088,0.417,0.131,0.65,0.131
		c0.354,0,0.659-0.082,0.915-0.246c0.257-0.162,0.452-0.352,0.585-0.564l0.51,0.42c-0.28,0.354-0.588,0.607-0.925,0.76
		c-0.336,0.154-0.698,0.23-1.085,0.23c-0.346,0-0.668-0.062-0.965-0.186c-0.296-0.123-0.551-0.295-0.765-0.514
		c-0.213-0.221-0.381-0.48-0.505-0.781c-0.123-0.299-0.185-0.627-0.185-0.979s0.06-0.681,0.18-0.98c0.12-0.3,0.287-0.56,0.5-0.78
		c0.214-0.22,0.464-0.392,0.75-0.515c0.287-0.123,0.597-0.185,0.93-0.185c0.354,0,0.67,0.063,0.95,0.19
		c0.28,0.127,0.515,0.295,0.705,0.505c0.19,0.21,0.335,0.457,0.435,0.74c0.1,0.283,0.15,0.584,0.15,0.905v0.3L162.053,41.936
		L162.053,41.936z"/>
	<path fill="#FFFFFF" class="text-light" d="M166.723,40.875c0-0.207-0.005-0.417-0.015-0.63c-0.01-0.213-0.018-0.49-0.025-0.83h0.65v0.87h0.02
		c0.047-0.127,0.114-0.248,0.2-0.365c0.087-0.117,0.192-0.222,0.315-0.315c0.124-0.093,0.267-0.168,0.43-0.225
		c0.164-0.057,0.349-0.085,0.555-0.085c0.187,0,0.35,0.02,0.49,0.06l-0.13,0.65c-0.086-0.033-0.213-0.05-0.38-0.05
		c-0.253,0-0.47,0.048-0.65,0.145c-0.18,0.097-0.33,0.22-0.45,0.37s-0.208,0.312-0.265,0.485c-0.056,0.173-0.085,0.34-0.085,0.5
		v2.641h-0.66V40.875L166.723,40.875z"/>
	<path fill="#FFFFFF" class="text-light" d="M170.283,39.415c0.014,0.127,0.022,0.252,0.025,0.375c0.004,0.123,0.005,0.248,0.005,0.375h0.02
		c0.074-0.127,0.167-0.243,0.28-0.35c0.114-0.107,0.24-0.198,0.38-0.275c0.14-0.077,0.289-0.137,0.445-0.18
		c0.157-0.043,0.312-0.065,0.465-0.065c0.6,0,1.044,0.158,1.33,0.475c0.287,0.317,0.43,0.768,0.43,1.355v2.971h-0.66v-2.591
		c0-0.52-0.09-0.918-0.27-1.195c-0.18-0.277-0.513-0.415-1-0.415c-0.033,0-0.126,0.013-0.28,0.04c-0.153,0.027-0.315,0.1-0.485,0.22
		c-0.17,0.12-0.321,0.3-0.455,0.54c-0.133,0.24-0.2,0.573-0.2,1v2.4h-0.66v-3.651c0-0.127-0.005-0.287-0.015-0.48
		c-0.01-0.193-0.021-0.377-0.035-0.55H170.283L170.283,39.415z"/>
	<path fill="#FFFFFF" class="text-light" d="M174.713,40.455c0-0.173-0.005-0.347-0.015-0.52c-0.01-0.173-0.021-0.347-0.035-0.52h0.71v0.71h0.02
		c0.16-0.273,0.382-0.48,0.665-0.62c0.284-0.14,0.565-0.21,0.845-0.21c0.127,0,0.262,0.013,0.405,0.04
		c0.144,0.027,0.282,0.075,0.415,0.145c0.134,0.07,0.259,0.168,0.375,0.295c0.117,0.127,0.215,0.29,0.295,0.49
		c0.134-0.3,0.345-0.537,0.635-0.71c0.29-0.173,0.592-0.26,0.905-0.26c0.6,0,1.044,0.158,1.33,0.475
		c0.287,0.317,0.43,0.768,0.43,1.355v2.971h-0.66v-2.73c0-0.473-0.083-0.837-0.25-1.09c-0.166-0.253-0.476-0.38-0.93-0.38
		c-0.246,0-0.453,0.048-0.62,0.145c-0.166,0.097-0.301,0.225-0.405,0.385c-0.103,0.16-0.178,0.342-0.225,0.545
		c-0.046,0.203-0.07,0.415-0.07,0.636v2.49h-0.66v-2.73c0-0.473-0.083-0.837-0.25-1.09c-0.166-0.253-0.476-0.38-0.93-0.38
		c-0.04,0-0.131,0.013-0.275,0.04c-0.143,0.027-0.291,0.1-0.445,0.22c-0.153,0.12-0.291,0.3-0.415,0.54
		c-0.123,0.24-0.185,0.573-0.185,1v2.4h-0.66V40.455L174.713,40.455z"/>
	<path fill="#FFFFFF" class="text-light" d="M186.373,41.395c0-0.447-0.133-0.808-0.4-1.084c-0.266-0.277-0.64-0.415-1.12-0.415
		c-0.213,0-0.42,0.042-0.62,0.125s-0.375,0.195-0.525,0.335c-0.15,0.14-0.27,0.3-0.36,0.48c-0.09,0.181-0.135,0.366-0.135,0.56
		H186.373L186.373,41.395z M183.193,41.936c0.02,0.232,0.077,0.453,0.17,0.66c0.094,0.207,0.217,0.385,0.37,0.533
		c0.154,0.15,0.33,0.27,0.53,0.355c0.2,0.088,0.417,0.131,0.65,0.131c0.354,0,0.659-0.082,0.915-0.246
		c0.257-0.162,0.452-0.352,0.585-0.564l0.51,0.42c-0.28,0.354-0.588,0.607-0.925,0.76c-0.336,0.154-0.698,0.23-1.085,0.23
		c-0.346,0-0.668-0.062-0.965-0.186c-0.296-0.123-0.551-0.295-0.765-0.514c-0.213-0.221-0.381-0.48-0.505-0.781
		c-0.123-0.299-0.185-0.627-0.185-0.979s0.06-0.681,0.18-0.98c0.12-0.3,0.287-0.56,0.5-0.78c0.214-0.22,0.464-0.392,0.75-0.515
		c0.287-0.123,0.597-0.185,0.93-0.185c0.354,0,0.67,0.063,0.95,0.19c0.28,0.127,0.515,0.295,0.705,0.505s0.335,0.457,0.435,0.74
		c0.1,0.283,0.15,0.584,0.15,0.905v0.3L183.193,41.936L183.193,41.936z"/>
	<path fill="#FFFFFF" class="text-light" d="M188.423,39.415c0.014,0.127,0.022,0.252,0.025,0.375c0.004,0.123,0.005,0.248,0.005,0.375h0.02
		c0.074-0.127,0.167-0.243,0.28-0.35c0.114-0.107,0.24-0.198,0.38-0.275c0.14-0.077,0.289-0.137,0.445-0.18
		c0.157-0.043,0.312-0.065,0.465-0.065c0.6,0,1.044,0.158,1.33,0.475c0.287,0.317,0.43,0.768,0.43,1.355v2.971h-0.66v-2.591
		c0-0.52-0.09-0.918-0.27-1.195c-0.18-0.277-0.513-0.415-1-0.415c-0.033,0-0.126,0.013-0.28,0.04c-0.153,0.027-0.315,0.1-0.485,0.22
		s-0.321,0.3-0.455,0.54c-0.133,0.24-0.2,0.573-0.2,1v2.4h-0.66v-3.651c0-0.127-0.005-0.287-0.015-0.48
		c-0.01-0.193-0.021-0.377-0.035-0.55H188.423L188.423,39.415z"/>
	<path fill="#FFFFFF" class="text-light" d="M195.273,40.015h-1.35v2.761c0,0.172,0.017,0.314,0.05,0.424c0.034,0.111,0.08,0.195,0.14,0.256
		c0.06,0.061,0.132,0.102,0.215,0.125c0.084,0.023,0.175,0.035,0.275,0.035c0.114,0,0.23-0.018,0.35-0.051
		c0.12-0.033,0.23-0.076,0.33-0.129l0.03,0.609c-0.246,0.113-0.543,0.17-0.89,0.17c-0.126,0-0.258-0.018-0.395-0.051
		c-0.136-0.031-0.261-0.096-0.375-0.189c-0.113-0.092-0.206-0.221-0.28-0.379c-0.073-0.16-0.11-0.371-0.11-0.631v-2.95h-0.99v-0.6
		h0.99v-1.32h0.66v1.32h1.35V40.015L195.273,40.015z"/>
	<polygon fill="#4F384A" class="text-dark" points="112.527,1.86 109.027,1.86 109.027,0.48 114.207,0.48 114.207,1.8 111.377,7.56 109.627,7.56 
		112.527,1.86 	"/>
	<path fill="#4F384A" class="text-dark" d="M118.817,3.61h1.16c0.32,0,0.592-0.033,0.815-0.1c0.223-0.066,0.402-0.155,0.535-0.265
		c0.133-0.11,0.23-0.24,0.29-0.39c0.06-0.15,0.09-0.311,0.09-0.485c0-0.166-0.03-0.325-0.09-0.475
		c-0.06-0.15-0.157-0.281-0.29-0.395c-0.133-0.113-0.312-0.201-0.535-0.265c-0.223-0.063-0.495-0.095-0.815-0.095h-1.16V3.61
		L118.817,3.61z M118.097,0.48h2.06c0.72,0,1.288,0.157,1.705,0.47c0.417,0.314,0.625,0.787,0.625,1.42
		c0,0.634-0.208,1.109-0.625,1.425c-0.417,0.317-0.985,0.475-1.705,0.475h-1.34v3.29h-0.72V0.48L118.097,0.48z"/>
	<path fill="#4F384A" class="text-dark" d="M126.477,7.56c-0.013-0.126-0.022-0.251-0.025-0.375c-0.003-0.123-0.005-0.248-0.005-0.375h-0.02
		c-0.073,0.127-0.167,0.244-0.28,0.35c-0.113,0.107-0.24,0.199-0.38,0.275c-0.14,0.077-0.288,0.137-0.445,0.18
		c-0.157,0.044-0.312,0.065-0.465,0.065c-0.6,0-1.043-0.158-1.33-0.475c-0.287-0.316-0.43-0.768-0.43-1.355V2.88h0.66v2.59
		c0,0.26,0.02,0.49,0.06,0.69c0.04,0.2,0.108,0.369,0.205,0.505c0.097,0.137,0.227,0.24,0.39,0.31
		c0.163,0.07,0.368,0.105,0.615,0.105c0.033,0,0.127-0.013,0.28-0.04c0.153-0.026,0.315-0.1,0.485-0.22s0.322-0.3,0.455-0.54
		c0.133-0.24,0.2-0.573,0.2-1v-2.4h0.66v3.65c0,0.127,0.005,0.287,0.015,0.48c0.01,0.194,0.022,0.377,0.035,0.55H126.477
		L126.477,7.56z"/>
	<path fill="#4F384A" class="text-dark" d="M132.427,5.22c0-0.26-0.042-0.503-0.125-0.73c-0.083-0.226-0.202-0.423-0.355-0.59
		c-0.153-0.166-0.338-0.298-0.555-0.395c-0.217-0.096-0.462-0.145-0.735-0.145c-0.273,0-0.523,0.049-0.75,0.145
		c-0.227,0.097-0.423,0.229-0.59,0.395c-0.167,0.167-0.297,0.364-0.39,0.59c-0.093,0.227-0.14,0.47-0.14,0.73
		c0,0.26,0.047,0.504,0.14,0.73c0.093,0.227,0.223,0.424,0.39,0.59c0.167,0.167,0.363,0.299,0.59,0.395
		c0.227,0.097,0.477,0.145,0.75,0.145c0.273,0,0.518-0.048,0.735-0.145c0.217-0.096,0.402-0.228,0.555-0.395
		c0.153-0.166,0.272-0.363,0.355-0.59C132.385,5.724,132.427,5.48,132.427,5.22L132.427,5.22z M128.157,0h0.66v3.66h0.02
		c0.107-0.16,0.233-0.296,0.38-0.41c0.147-0.113,0.3-0.206,0.46-0.28c0.16-0.073,0.325-0.126,0.495-0.16
		c0.17-0.033,0.332-0.05,0.485-0.05c0.367,0,0.702,0.062,1.005,0.185c0.303,0.124,0.565,0.295,0.785,0.515
		c0.22,0.22,0.392,0.48,0.515,0.78c0.123,0.3,0.185,0.627,0.185,0.98c0,0.354-0.062,0.68-0.185,0.98
		c-0.123,0.3-0.295,0.56-0.515,0.78c-0.22,0.22-0.482,0.392-0.785,0.515c-0.303,0.124-0.638,0.185-1.005,0.185
		c-0.153,0-0.315-0.016-0.485-0.05c-0.17-0.033-0.335-0.086-0.495-0.16c-0.16-0.073-0.313-0.166-0.46-0.28
		c-0.147-0.113-0.273-0.25-0.38-0.41h-0.02v0.78h-0.66V0L128.157,0z"/>
	<polygon fill="#4F384A" class="text-dark" points="134.577,7.56 133.917,7.56 133.917,0 134.577,0 134.577,7.56 	"/>
	<path fill="#4F384A" class="text-dark" d="M136.627,1.08c0,0.14-0.05,0.255-0.15,0.345s-0.21,0.135-0.33,0.135s-0.23-0.045-0.33-0.135
		s-0.15-0.205-0.15-0.345c0-0.14,0.05-0.255,0.15-0.345s0.21-0.135,0.33-0.135s0.23,0.045,0.33,0.135S136.627,0.94,136.627,1.08
		L136.627,1.08z M136.477,7.56h-0.66V2.88h0.66V7.56L136.477,7.56z"/>
	<path fill="#4F384A" class="text-dark" d="M140.977,3.98c-0.113-0.173-0.272-0.32-0.475-0.44c-0.203-0.12-0.435-0.18-0.695-0.18
		c-0.273-0.006-0.518,0.037-0.735,0.13c-0.217,0.094-0.402,0.224-0.555,0.39c-0.153,0.167-0.27,0.365-0.35,0.595
		s-0.12,0.479-0.12,0.745c0,0.267,0.04,0.515,0.12,0.745s0.197,0.429,0.35,0.595c0.153,0.167,0.338,0.297,0.555,0.39
		c0.217,0.094,0.462,0.137,0.735,0.13c0.26,0,0.492-0.06,0.695-0.18s0.362-0.266,0.475-0.44l0.54,0.41
		c-0.233,0.274-0.497,0.475-0.79,0.605c-0.293,0.13-0.6,0.199-0.92,0.205c-0.38,0.007-0.723-0.051-1.03-0.175
		c-0.307-0.123-0.568-0.295-0.785-0.515c-0.217-0.22-0.382-0.481-0.495-0.785c-0.113-0.303-0.17-0.631-0.17-0.985
		c0-0.353,0.057-0.681,0.17-0.985c0.113-0.303,0.278-0.565,0.495-0.785c0.217-0.22,0.478-0.391,0.785-0.515
		c0.307-0.123,0.65-0.181,1.03-0.175c0.32,0.007,0.627,0.075,0.92,0.205s0.557,0.332,0.79,0.605L140.977,3.98L140.977,3.98z"/>
	<path fill="#4F384A" class="text-dark" d="M147.757,1.65c-0.313-0.46-0.77-0.69-1.37-0.69c-0.187,0-0.37,0.025-0.55,0.075
		c-0.18,0.05-0.342,0.127-0.485,0.23c-0.143,0.104-0.258,0.237-0.345,0.4c-0.087,0.164-0.13,0.355-0.13,0.575
		c0,0.32,0.09,0.569,0.27,0.745c0.18,0.177,0.403,0.322,0.67,0.435c0.267,0.114,0.558,0.215,0.875,0.305
		c0.317,0.09,0.608,0.21,0.875,0.36s0.49,0.349,0.67,0.595c0.18,0.247,0.27,0.584,0.27,1.01c0,0.32-0.068,0.609-0.205,0.865
		c-0.137,0.257-0.317,0.472-0.54,0.645c-0.223,0.174-0.473,0.307-0.75,0.4c-0.277,0.094-0.555,0.14-0.835,0.14
		c-0.433,0-0.845-0.081-1.235-0.245c-0.39-0.163-0.722-0.431-0.995-0.805l0.65-0.47c0.153,0.26,0.367,0.469,0.64,0.625
		c0.273,0.157,0.597,0.235,0.97,0.235c0.18,0,0.36-0.028,0.54-0.085c0.18-0.056,0.342-0.14,0.485-0.25
		c0.143-0.11,0.262-0.245,0.355-0.405c0.093-0.16,0.14-0.343,0.14-0.55c0-0.246-0.052-0.451-0.155-0.615
		c-0.103-0.163-0.24-0.3-0.41-0.41c-0.17-0.11-0.363-0.201-0.58-0.275c-0.217-0.073-0.44-0.146-0.67-0.22
		c-0.23-0.073-0.453-0.156-0.67-0.25c-0.217-0.093-0.41-0.211-0.58-0.355c-0.17-0.143-0.307-0.323-0.41-0.54
		c-0.103-0.216-0.155-0.488-0.155-0.815c0-0.34,0.065-0.636,0.195-0.89c0.13-0.253,0.303-0.463,0.52-0.63
		c0.217-0.166,0.462-0.29,0.735-0.37s0.553-0.12,0.84-0.12c0.4,0,0.763,0.064,1.09,0.19c0.327,0.127,0.63,0.35,0.91,0.67
		L147.757,1.65L147.757,1.65z"/>
	<path fill="#4F384A" class="text-dark" d="M152.867,4.86c0-0.446-0.133-0.808-0.4-1.085c-0.267-0.276-0.64-0.415-1.12-0.415
		c-0.213,0-0.42,0.042-0.62,0.125c-0.2,0.084-0.375,0.195-0.525,0.335c-0.15,0.14-0.27,0.3-0.36,0.48
		c-0.09,0.18-0.135,0.367-0.135,0.56H152.867L152.867,4.86z M149.687,5.4c0.02,0.234,0.077,0.454,0.17,0.66
		c0.093,0.207,0.217,0.385,0.37,0.535c0.153,0.15,0.33,0.269,0.53,0.355c0.2,0.087,0.417,0.13,0.65,0.13
		c0.353,0,0.658-0.081,0.915-0.245c0.257-0.163,0.452-0.351,0.585-0.565l0.51,0.42c-0.28,0.354-0.588,0.607-0.925,0.76
		c-0.337,0.154-0.698,0.23-1.085,0.23c-0.347,0-0.668-0.061-0.965-0.185c-0.297-0.123-0.552-0.295-0.765-0.515
		c-0.213-0.22-0.382-0.48-0.505-0.78c-0.123-0.3-0.185-0.626-0.185-0.98c0-0.353,0.06-0.68,0.18-0.98s0.287-0.56,0.5-0.78
		c0.213-0.22,0.463-0.391,0.75-0.515c0.287-0.123,0.597-0.185,0.93-0.185c0.353,0,0.67,0.064,0.95,0.19
		c0.28,0.127,0.515,0.295,0.705,0.505s0.335,0.457,0.435,0.74c0.1,0.284,0.15,0.585,0.15,0.905v0.3H149.687L149.687,5.4z"/>
	<path fill="#4F384A" class="text-dark" d="M157.697,3.98c-0.113-0.173-0.272-0.32-0.475-0.44c-0.203-0.12-0.435-0.18-0.695-0.18
		c-0.273-0.006-0.518,0.037-0.735,0.13c-0.217,0.094-0.402,0.224-0.555,0.39c-0.153,0.167-0.27,0.365-0.35,0.595
		c-0.08,0.23-0.12,0.479-0.12,0.745c0,0.267,0.04,0.515,0.12,0.745c0.08,0.23,0.197,0.429,0.35,0.595
		c0.153,0.167,0.338,0.297,0.555,0.39c0.217,0.094,0.462,0.137,0.735,0.13c0.26,0,0.492-0.06,0.695-0.18
		c0.203-0.12,0.362-0.266,0.475-0.44l0.54,0.41c-0.233,0.274-0.497,0.475-0.79,0.605c-0.293,0.13-0.6,0.199-0.92,0.205
		c-0.38,0.007-0.723-0.051-1.03-0.175c-0.307-0.123-0.568-0.295-0.785-0.515c-0.217-0.22-0.382-0.481-0.495-0.785
		c-0.113-0.303-0.17-0.631-0.17-0.985c0-0.353,0.057-0.681,0.17-0.985c0.113-0.303,0.278-0.565,0.495-0.785
		c0.217-0.22,0.478-0.391,0.785-0.515c0.307-0.123,0.65-0.181,1.03-0.175c0.32,0.007,0.627,0.075,0.92,0.205s0.557,0.332,0.79,0.605
		L157.697,3.98L157.697,3.98z"/>
	<path fill="#4F384A" class="text-dark" d="M161.027,3.48h-1.35v2.76c0,0.174,0.017,0.315,0.05,0.425c0.033,0.11,0.08,0.195,0.14,0.255
		c0.06,0.06,0.132,0.102,0.215,0.125c0.083,0.024,0.175,0.035,0.275,0.035c0.113,0,0.23-0.016,0.35-0.05
		c0.12-0.033,0.23-0.076,0.33-0.13l0.03,0.61c-0.247,0.114-0.543,0.17-0.89,0.17c-0.127,0-0.258-0.016-0.395-0.05
		c-0.137-0.033-0.262-0.096-0.375-0.19c-0.113-0.093-0.207-0.22-0.28-0.38c-0.073-0.16-0.11-0.37-0.11-0.63V3.48h-0.99v-0.6h0.99
		V1.56h0.66v1.32h1.35V3.48L161.027,3.48z"/>
	<path fill="#4F384A" class="text-dark" d="M165.437,5.22c0-0.26-0.042-0.503-0.125-0.73c-0.083-0.226-0.202-0.423-0.355-0.59
		c-0.153-0.166-0.338-0.298-0.555-0.395c-0.217-0.096-0.462-0.145-0.735-0.145s-0.518,0.049-0.735,0.145
		c-0.217,0.097-0.4,0.229-0.55,0.395c-0.15,0.167-0.267,0.364-0.35,0.59c-0.083,0.227-0.125,0.47-0.125,0.73
		c0,0.26,0.042,0.504,0.125,0.73c0.083,0.227,0.2,0.424,0.35,0.59c0.15,0.167,0.333,0.299,0.55,0.395
		c0.217,0.097,0.462,0.145,0.735,0.145s0.518-0.048,0.735-0.145c0.217-0.096,0.402-0.228,0.555-0.395
		c0.153-0.166,0.272-0.363,0.355-0.59C165.395,5.724,165.437,5.48,165.437,5.22L165.437,5.22z M166.157,5.22
		c0,0.354-0.062,0.68-0.185,0.98c-0.123,0.3-0.295,0.56-0.515,0.78c-0.22,0.22-0.482,0.392-0.785,0.515
		c-0.303,0.124-0.638,0.185-1.005,0.185c-0.36,0-0.692-0.061-0.995-0.185c-0.303-0.123-0.565-0.295-0.785-0.515
		c-0.22-0.22-0.392-0.48-0.515-0.78c-0.123-0.3-0.185-0.626-0.185-0.98c0-0.353,0.062-0.68,0.185-0.98
		c0.123-0.3,0.295-0.56,0.515-0.78c0.22-0.22,0.482-0.391,0.785-0.515c0.303-0.123,0.635-0.185,0.995-0.185
		c0.367,0,0.702,0.062,1.005,0.185c0.303,0.124,0.565,0.295,0.785,0.515c0.22,0.22,0.392,0.48,0.515,0.78
		C166.095,4.54,166.157,4.867,166.157,5.22L166.157,5.22z"/>
	<path fill="#4F384A" class="text-dark" d="M166.927,4.34c0-0.206-0.005-0.416-0.015-0.63c-0.01-0.213-0.018-0.49-0.025-0.83h0.65v0.87h0.02
		c0.047-0.126,0.113-0.248,0.2-0.365c0.087-0.116,0.192-0.221,0.315-0.315c0.123-0.093,0.267-0.168,0.43-0.225
		c0.163-0.056,0.348-0.085,0.555-0.085c0.187,0,0.35,0.02,0.49,0.06l-0.13,0.65c-0.087-0.033-0.213-0.05-0.38-0.05
		c-0.253,0-0.47,0.049-0.65,0.145c-0.18,0.097-0.33,0.22-0.45,0.37c-0.12,0.15-0.208,0.312-0.265,0.485
		c-0.057,0.174-0.085,0.34-0.085,0.5v2.64h-0.66V4.34L166.927,4.34z"/>
	<polygon fill="#4F384A" class="text-dark" points="393.588,8.24 392.867,8.24 392.867,1.82 390.496,1.82 390.496,1.16 395.957,1.16 395.957,1.82 
		393.588,1.82 393.588,8.24 	"/>
	<path fill="#4F384A" class="text-dark" d="M399.217,5.9c0-0.26-0.041-0.503-0.125-0.73c-0.084-0.226-0.201-0.423-0.355-0.59
		c-0.152-0.166-0.338-0.298-0.555-0.395c-0.217-0.096-0.461-0.145-0.734-0.145s-0.52,0.049-0.734,0.145
		c-0.219,0.097-0.4,0.229-0.551,0.395c-0.15,0.167-0.268,0.364-0.35,0.59c-0.084,0.227-0.125,0.47-0.125,0.73
		c0,0.26,0.041,0.504,0.125,0.73c0.082,0.227,0.199,0.424,0.35,0.59c0.15,0.167,0.332,0.299,0.551,0.395
		c0.215,0.097,0.461,0.145,0.734,0.145s0.518-0.048,0.734-0.145c0.217-0.096,0.402-0.228,0.555-0.395
		c0.154-0.166,0.271-0.363,0.355-0.59C399.176,6.404,399.217,6.16,399.217,5.9L399.217,5.9z M399.938,5.9
		c0,0.354-0.062,0.68-0.186,0.98s-0.295,0.56-0.516,0.78c-0.219,0.22-0.48,0.392-0.785,0.515c-0.303,0.124-0.639,0.185-1.004,0.185
		c-0.359,0-0.691-0.061-0.996-0.185c-0.303-0.123-0.564-0.295-0.783-0.515c-0.221-0.22-0.393-0.48-0.516-0.78
		c-0.125-0.3-0.186-0.626-0.186-0.98c0-0.353,0.061-0.68,0.186-0.98c0.123-0.3,0.295-0.56,0.516-0.78
		c0.219-0.22,0.48-0.391,0.783-0.515c0.305-0.123,0.637-0.185,0.996-0.185c0.365,0,0.701,0.062,1.004,0.185
		c0.305,0.124,0.566,0.295,0.785,0.515c0.221,0.22,0.393,0.48,0.516,0.78C399.875,5.22,399.938,5.547,399.938,5.9L399.938,5.9z"/>
	<path fill="#4F384A" class="text-dark" d="M403.057,4.16h-1.35v2.76c0,0.174,0.016,0.315,0.051,0.425c0.031,0.11,0.08,0.195,0.139,0.255
		c0.061,0.06,0.131,0.102,0.215,0.125c0.084,0.024,0.176,0.035,0.275,0.035c0.113,0,0.23-0.016,0.35-0.05
		c0.121-0.033,0.23-0.076,0.33-0.13l0.031,0.61c-0.248,0.114-0.545,0.17-0.891,0.17c-0.127,0-0.26-0.016-0.395-0.05
		c-0.137-0.033-0.262-0.096-0.375-0.19c-0.115-0.093-0.207-0.22-0.281-0.38c-0.072-0.16-0.109-0.37-0.109-0.63V4.16h-0.99v-0.6h0.99
		V2.24h0.66v1.32h1.35V4.16L403.057,4.16z"/>
	<path fill="#4F384A" class="text-dark" d="M406.117,5.91c-0.168,0-0.375,0.009-0.625,0.025c-0.25,0.017-0.49,0.057-0.721,0.12
		c-0.229,0.064-0.426,0.162-0.59,0.295c-0.164,0.134-0.244,0.317-0.244,0.55c0,0.154,0.031,0.285,0.094,0.395
		c0.064,0.11,0.148,0.2,0.256,0.27c0.105,0.07,0.225,0.12,0.355,0.15c0.129,0.03,0.26,0.045,0.395,0.045
		c0.24,0,0.447-0.04,0.625-0.12c0.176-0.08,0.324-0.188,0.445-0.325c0.119-0.136,0.207-0.296,0.264-0.48
		c0.057-0.183,0.086-0.378,0.086-0.585V5.91H406.117L406.117,5.91z M406.457,5.37V5.25c0-0.806-0.4-1.21-1.199-1.21
		c-0.547,0-1.025,0.184-1.432,0.55l-0.398-0.47c0.439-0.453,1.1-0.68,1.979-0.68c0.227,0,0.445,0.034,0.656,0.1
		c0.209,0.067,0.391,0.169,0.545,0.305c0.152,0.137,0.275,0.309,0.369,0.515c0.094,0.207,0.141,0.454,0.141,0.74v2.09
		c0,0.18,0.008,0.369,0.025,0.565c0.016,0.197,0.035,0.359,0.055,0.485h-0.641c-0.02-0.113-0.035-0.236-0.045-0.37
		c-0.01-0.133-0.016-0.263-0.016-0.39h-0.02c-0.193,0.314-0.422,0.539-0.684,0.675c-0.266,0.137-0.586,0.205-0.967,0.205
		c-0.207,0-0.406-0.028-0.6-0.085c-0.193-0.056-0.365-0.143-0.514-0.26c-0.15-0.116-0.271-0.26-0.361-0.43s-0.135-0.368-0.135-0.595
		c0-0.38,0.098-0.678,0.295-0.895c0.195-0.216,0.443-0.378,0.74-0.485c0.297-0.106,0.613-0.173,0.949-0.2
		c0.336-0.026,0.646-0.04,0.926-0.04L406.457,5.37L406.457,5.37z"/>
	<polygon fill="#4F384A" class="text-dark" points="408.957,8.24 408.297,8.24 408.297,0.68 408.957,0.68 408.957,8.24 	"/>
	<path fill="#4F384A" class="text-dark" d="M411.258,7.76c0,0.14-0.051,0.265-0.15,0.375s-0.23,0.165-0.391,0.165s-0.289-0.055-0.391-0.165
		c-0.1-0.11-0.148-0.235-0.148-0.375s0.049-0.265,0.148-0.375c0.102-0.11,0.23-0.165,0.391-0.165s0.291,0.055,0.391,0.165
		S411.258,7.62,411.258,7.76L411.258,7.76z M411.258,4.05c0,0.14-0.051,0.265-0.15,0.375s-0.23,0.165-0.391,0.165
		s-0.289-0.055-0.391-0.165c-0.1-0.11-0.148-0.235-0.148-0.375s0.049-0.265,0.148-0.375c0.102-0.11,0.23-0.165,0.391-0.165
		s0.291,0.055,0.391,0.165S411.258,3.91,411.258,4.05L411.258,4.05z"/>
	<path fill="#4F384A" class="text-dark" d="M419.057,2.48h-2.811l-0.029,1.09c0.152-0.053,0.363-0.08,0.631-0.08c0.359,0,0.689,0.054,0.99,0.16
		c0.299,0.107,0.557,0.262,0.773,0.465c0.217,0.204,0.385,0.45,0.506,0.74c0.119,0.29,0.18,0.615,0.18,0.975
		c0,0.4-0.068,0.757-0.205,1.07c-0.137,0.314-0.324,0.579-0.564,0.795c-0.24,0.217-0.525,0.382-0.855,0.495
		c-0.33,0.114-0.689,0.17-1.074,0.17c-0.615,0-1.127-0.15-1.541-0.45c-0.414-0.3-0.697-0.753-0.85-1.36l1.57-0.36
		c0.039,0.254,0.146,0.459,0.32,0.615c0.172,0.157,0.389,0.235,0.648,0.235c0.32,0,0.576-0.1,0.766-0.3
		c0.189-0.2,0.285-0.453,0.285-0.76c0-0.233-0.049-0.425-0.145-0.575c-0.098-0.15-0.225-0.27-0.381-0.36
		c-0.156-0.09-0.332-0.151-0.525-0.185c-0.193-0.033-0.387-0.05-0.578-0.05c-0.248,0-0.496,0.024-0.746,0.07
		c-0.25,0.047-0.492,0.11-0.725,0.19l0.08-3.91h4.279V2.48L419.057,2.48z"/>
	<polygon fill="#4F384A" class="text-dark" points="422.188,2.84 420.768,4.09 419.918,3.11 422.227,1.16 423.627,1.16 423.627,8.24 422.188,8.24 
		422.188,2.84 	"/>
	<path fill="#4F384A" class="text-dark" d="M12.308,5.97l2.75-2.47c0.14-0.126,0.28-0.27,0.42-0.43s0.21-0.346,0.21-0.56
		c0-0.24-0.087-0.428-0.26-0.565c-0.174-0.136-0.377-0.205-0.61-0.205c-0.28,0-0.499,0.087-0.655,0.26
		c-0.157,0.174-0.245,0.387-0.265,0.64l-1.5-0.11c0.02-0.366,0.096-0.685,0.23-0.955c0.133-0.27,0.31-0.495,0.53-0.675
		c0.22-0.18,0.478-0.315,0.775-0.405c0.296-0.09,0.618-0.135,0.965-0.135c0.32,0,0.62,0.045,0.9,0.135
		c0.28,0.09,0.523,0.224,0.73,0.4c0.206,0.177,0.368,0.399,0.485,0.665c0.116,0.267,0.175,0.577,0.175,0.93
		c0,0.227-0.024,0.432-0.07,0.615c-0.047,0.184-0.112,0.35-0.195,0.5c-0.084,0.15-0.182,0.289-0.295,0.415
		c-0.114,0.127-0.237,0.25-0.37,0.37l-2.15,1.85h3.14v1.32h-4.94V5.97L12.308,5.97z"/>
	<polygon fill="#4F384A" class="text-dark" points="21.198,7.56 20.478,7.56 20.478,0.48 24.748,0.48 24.748,1.14 21.198,1.14 21.198,3.55 
		24.498,3.55 24.498,4.21 21.198,4.21 21.198,7.56 	"/>
	<path fill="#4F384A" class="text-dark" d="M26.258,1.08c0,0.14-0.05,0.255-0.15,0.345s-0.21,0.135-0.33,0.135c-0.12,0-0.23-0.045-0.33-0.135
		c-0.1-0.09-0.15-0.205-0.15-0.345c0-0.14,0.05-0.255,0.15-0.345c0.1-0.09,0.21-0.135,0.33-0.135c0.12,0,0.23,0.045,0.33,0.135
		S26.258,0.94,26.258,1.08L26.258,1.08z M26.108,7.56h-0.66V2.88h0.66V7.56L26.108,7.56z"/>
	<path fill="#4F384A" class="text-dark" d="M27.828,2.88c0.013,0.127,0.021,0.252,0.025,0.375c0.003,0.124,0.005,0.249,0.005,0.375h0.02
		c0.073-0.126,0.166-0.243,0.28-0.35c0.113-0.106,0.24-0.198,0.38-0.275c0.14-0.076,0.288-0.136,0.445-0.18
		c0.156-0.043,0.311-0.065,0.465-0.065c0.6,0,1.043,0.159,1.33,0.475c0.286,0.317,0.43,0.769,0.43,1.355v2.97h-0.66V4.97
		c0-0.52-0.09-0.918-0.27-1.195c-0.18-0.276-0.514-0.415-1-0.415c-0.034,0-0.127,0.014-0.28,0.04c-0.154,0.027-0.315,0.1-0.485,0.22
		c-0.17,0.12-0.322,0.3-0.455,0.54c-0.134,0.24-0.2,0.574-0.2,1v2.4h-0.66V3.91c0-0.126-0.005-0.286-0.015-0.48
		c-0.01-0.193-0.022-0.376-0.035-0.55H27.828L27.828,2.88z"/>
	<path fill="#4F384A" class="text-dark" d="M34.918,5.23c-0.167,0-0.375,0.009-0.625,0.025c-0.25,0.017-0.49,0.057-0.72,0.12
		c-0.23,0.064-0.427,0.162-0.59,0.295c-0.164,0.134-0.245,0.317-0.245,0.55c0,0.154,0.031,0.285,0.095,0.395
		c0.063,0.11,0.148,0.2,0.255,0.27c0.106,0.07,0.225,0.12,0.355,0.15c0.13,0.03,0.261,0.045,0.395,0.045
		c0.24,0,0.448-0.04,0.625-0.12c0.176-0.08,0.325-0.188,0.445-0.325c0.12-0.136,0.208-0.296,0.265-0.48
		c0.056-0.183,0.085-0.378,0.085-0.585V5.23H34.918L34.918,5.23z M35.258,4.69V4.57c0-0.806-0.4-1.21-1.2-1.21
		c-0.547,0-1.024,0.184-1.43,0.55l-0.4-0.47c0.44-0.453,1.1-0.68,1.98-0.68c0.226,0,0.445,0.034,0.655,0.1
		c0.21,0.067,0.391,0.169,0.545,0.305c0.153,0.137,0.276,0.309,0.37,0.515c0.093,0.207,0.14,0.454,0.14,0.74v2.09
		c0,0.18,0.008,0.369,0.025,0.565c0.016,0.197,0.035,0.359,0.055,0.485h-0.64c-0.02-0.113-0.035-0.236-0.045-0.37
		c-0.01-0.133-0.015-0.263-0.015-0.39h-0.02c-0.194,0.314-0.422,0.539-0.685,0.675c-0.264,0.137-0.585,0.205-0.965,0.205
		c-0.207,0-0.407-0.028-0.6-0.085c-0.194-0.056-0.365-0.143-0.515-0.26c-0.15-0.116-0.27-0.26-0.36-0.43
		c-0.09-0.17-0.135-0.368-0.135-0.595c0-0.38,0.098-0.678,0.295-0.895c0.196-0.216,0.443-0.378,0.74-0.485
		c0.296-0.106,0.613-0.173,0.95-0.2c0.336-0.026,0.645-0.04,0.925-0.04H35.258L35.258,4.69z"/>
	<path fill="#4F384A" class="text-dark" d="M37.578,2.88c0.013,0.127,0.021,0.252,0.025,0.375c0.003,0.124,0.005,0.249,0.005,0.375h0.02
		c0.073-0.126,0.166-0.243,0.28-0.35c0.113-0.106,0.24-0.198,0.38-0.275c0.14-0.076,0.288-0.136,0.445-0.18
		c0.156-0.043,0.311-0.065,0.465-0.065c0.6,0,1.043,0.159,1.33,0.475c0.286,0.317,0.43,0.769,0.43,1.355v2.97h-0.66V4.97
		c0-0.52-0.09-0.918-0.27-1.195c-0.18-0.276-0.514-0.415-1-0.415c-0.034,0-0.127,0.014-0.28,0.04c-0.154,0.027-0.315,0.1-0.485,0.22
		c-0.17,0.12-0.322,0.3-0.455,0.54c-0.134,0.24-0.2,0.574-0.2,1v2.4h-0.66V3.91c0-0.126-0.005-0.286-0.015-0.48
		c-0.01-0.193-0.022-0.376-0.035-0.55H37.578L37.578,2.88z"/>
	<path fill="#4F384A" class="text-dark" d="M45.418,3.98c-0.114-0.173-0.272-0.32-0.475-0.44c-0.204-0.12-0.435-0.18-0.695-0.18
		c-0.274-0.006-0.519,0.037-0.735,0.13c-0.217,0.094-0.402,0.224-0.555,0.39c-0.154,0.167-0.27,0.365-0.35,0.595
		s-0.12,0.479-0.12,0.745c0,0.267,0.04,0.515,0.12,0.745s0.196,0.429,0.35,0.595c0.153,0.167,0.338,0.297,0.555,0.39
		c0.216,0.094,0.461,0.137,0.735,0.13c0.26,0,0.491-0.06,0.695-0.18c0.203-0.12,0.361-0.266,0.475-0.44l0.54,0.41
		c-0.234,0.274-0.497,0.475-0.79,0.605c-0.294,0.13-0.6,0.199-0.92,0.205c-0.38,0.007-0.724-0.051-1.03-0.175
		c-0.307-0.123-0.569-0.295-0.785-0.515c-0.217-0.22-0.382-0.481-0.495-0.785c-0.114-0.303-0.17-0.631-0.17-0.985
		c0-0.353,0.056-0.681,0.17-0.985c0.113-0.303,0.278-0.565,0.495-0.785c0.216-0.22,0.478-0.391,0.785-0.515
		c0.306-0.123,0.65-0.181,1.03-0.175c0.32,0.007,0.626,0.075,0.92,0.205c0.293,0.13,0.556,0.332,0.79,0.605L45.418,3.98L45.418,3.98
		z"/>
	<path fill="#4F384A" class="text-dark" d="M47.288,1.08c0,0.14-0.05,0.255-0.15,0.345c-0.1,0.09-0.21,0.135-0.33,0.135c-0.12,0-0.23-0.045-0.33-0.135
		s-0.15-0.205-0.15-0.345c0-0.14,0.05-0.255,0.15-0.345s0.21-0.135,0.33-0.135c0.12,0,0.23,0.045,0.33,0.135
		C47.238,0.825,47.288,0.94,47.288,1.08L47.288,1.08z M47.138,7.56h-0.66V2.88h0.66V7.56L47.138,7.56z"/>
	<path fill="#4F384A" class="text-dark" d="M50.888,5.23c-0.167,0-0.375,0.009-0.625,0.025c-0.25,0.017-0.49,0.057-0.72,0.12
		c-0.23,0.064-0.427,0.162-0.59,0.295c-0.164,0.134-0.245,0.317-0.245,0.55c0,0.154,0.031,0.285,0.095,0.395
		c0.063,0.11,0.148,0.2,0.255,0.27c0.106,0.07,0.225,0.12,0.355,0.15c0.13,0.03,0.261,0.045,0.395,0.045
		c0.24,0,0.448-0.04,0.625-0.12c0.176-0.08,0.325-0.188,0.445-0.325c0.12-0.136,0.208-0.296,0.265-0.48
		c0.056-0.183,0.085-0.378,0.085-0.585V5.23H50.888L50.888,5.23z M51.228,4.69V4.57c0-0.806-0.4-1.21-1.2-1.21
		c-0.547,0-1.024,0.184-1.43,0.55l-0.4-0.47c0.44-0.453,1.1-0.68,1.98-0.68c0.226,0,0.445,0.034,0.655,0.1
		c0.21,0.067,0.391,0.169,0.545,0.305c0.153,0.137,0.276,0.309,0.37,0.515c0.093,0.207,0.14,0.454,0.14,0.74v2.09
		c0,0.18,0.008,0.369,0.025,0.565c0.016,0.197,0.035,0.359,0.055,0.485h-0.64c-0.02-0.113-0.035-0.236-0.045-0.37
		c-0.01-0.133-0.015-0.263-0.015-0.39h-0.02c-0.194,0.314-0.422,0.539-0.685,0.675c-0.264,0.137-0.585,0.205-0.965,0.205
		c-0.207,0-0.407-0.028-0.6-0.085c-0.194-0.056-0.365-0.143-0.515-0.26c-0.15-0.116-0.27-0.26-0.36-0.43
		c-0.09-0.17-0.135-0.368-0.135-0.595c0-0.38,0.098-0.678,0.295-0.895c0.196-0.216,0.443-0.378,0.74-0.485
		c0.296-0.106,0.613-0.173,0.95-0.2c0.336-0.026,0.645-0.04,0.925-0.04H51.228L51.228,4.69z"/>
	<polygon fill="#4F384A" class="text-dark" points="53.728,7.56 53.068,7.56 53.068,0 53.728,0 53.728,7.56 	"/>
	<polygon fill="#4F384A" class="text-dark" points="58.058,7.56 57.338,7.56 57.338,0.48 58.058,0.48 58.058,7.56 	"/>
	<path fill="#4F384A" class="text-dark" d="M59.868,2.88c0.013,0.127,0.021,0.252,0.025,0.375c0.003,0.124,0.005,0.249,0.005,0.375h0.02
		c0.073-0.126,0.166-0.243,0.28-0.35c0.113-0.106,0.24-0.198,0.38-0.275c0.14-0.076,0.288-0.136,0.445-0.18
		c0.156-0.043,0.311-0.065,0.465-0.065c0.6,0,1.043,0.159,1.33,0.475c0.286,0.317,0.43,0.769,0.43,1.355v2.97h-0.66V4.97
		c0-0.52-0.09-0.918-0.27-1.195c-0.18-0.276-0.514-0.415-1-0.415c-0.034,0-0.127,0.014-0.28,0.04c-0.154,0.027-0.315,0.1-0.485,0.22
		c-0.17,0.12-0.322,0.3-0.455,0.54c-0.134,0.24-0.2,0.574-0.2,1v2.4h-0.66V3.91c0-0.126-0.005-0.286-0.015-0.48
		c-0.01-0.193-0.022-0.376-0.035-0.55H59.868L59.868,2.88z"/>
	<path fill="#4F384A" class="text-dark" d="M66.778,3.99c-0.1-0.193-0.234-0.346-0.4-0.46c-0.167-0.113-0.37-0.17-0.61-0.17
		c-0.114,0-0.229,0.014-0.345,0.04c-0.117,0.027-0.222,0.069-0.315,0.125c-0.094,0.057-0.169,0.129-0.225,0.215
		c-0.057,0.087-0.085,0.194-0.085,0.32c0,0.22,0.076,0.38,0.23,0.48c0.153,0.1,0.383,0.187,0.69,0.26l0.67,0.16
		c0.326,0.074,0.598,0.222,0.815,0.445c0.216,0.224,0.325,0.502,0.325,0.835c0,0.254-0.052,0.472-0.155,0.655
		c-0.104,0.184-0.24,0.334-0.41,0.45c-0.17,0.117-0.365,0.202-0.585,0.255c-0.22,0.054-0.444,0.08-0.67,0.08
		c-0.36,0-0.695-0.068-1.005-0.205c-0.31-0.136-0.575-0.371-0.795-0.705l0.57-0.39c0.133,0.214,0.301,0.384,0.505,0.51
		c0.203,0.127,0.445,0.19,0.725,0.19c0.133,0,0.266-0.015,0.4-0.045c0.133-0.03,0.251-0.076,0.355-0.14
		c0.103-0.063,0.186-0.145,0.25-0.245c0.063-0.1,0.095-0.216,0.095-0.35c0-0.233-0.087-0.401-0.26-0.505
		c-0.174-0.103-0.384-0.185-0.63-0.245l-0.64-0.15c-0.08-0.02-0.189-0.053-0.325-0.1c-0.137-0.046-0.27-0.116-0.4-0.21
		c-0.13-0.093-0.242-0.215-0.335-0.365c-0.094-0.15-0.14-0.335-0.14-0.555c0-0.24,0.048-0.45,0.145-0.63
		c0.096-0.18,0.226-0.326,0.39-0.44c0.163-0.113,0.348-0.198,0.555-0.255c0.206-0.056,0.42-0.085,0.64-0.085
		c0.326,0,0.63,0.064,0.91,0.19c0.28,0.127,0.496,0.344,0.65,0.65L66.778,3.99L66.778,3.99z"/>
	<path fill="#4F384A" class="text-dark" d="M70.478,3.48h-1.35v2.76c0,0.174,0.016,0.315,0.05,0.425c0.033,0.11,0.08,0.195,0.14,0.255
		s0.131,0.102,0.215,0.125c0.083,0.024,0.175,0.035,0.275,0.035c0.113,0,0.23-0.016,0.35-0.05c0.12-0.033,0.23-0.076,0.33-0.13
		l0.03,0.61c-0.247,0.114-0.544,0.17-0.89,0.17c-0.127,0-0.259-0.016-0.395-0.05c-0.137-0.033-0.262-0.096-0.375-0.19
		c-0.114-0.093-0.207-0.22-0.28-0.38c-0.074-0.16-0.11-0.37-0.11-0.63V3.48h-0.99v-0.6h0.99V1.56h0.66v1.32h1.35V3.48L70.478,3.48z"
		/>
	<path fill="#4F384A" class="text-dark" d="M71.838,1.08c0,0.14-0.05,0.255-0.15,0.345s-0.21,0.135-0.33,0.135s-0.23-0.045-0.33-0.135
		s-0.15-0.205-0.15-0.345c0-0.14,0.05-0.255,0.15-0.345s0.21-0.135,0.33-0.135s0.23,0.045,0.33,0.135S71.838,0.94,71.838,1.08
		L71.838,1.08z M71.688,7.56h-0.66V2.88h0.66V7.56L71.688,7.56z"/>
	<path fill="#4F384A" class="text-dark" d="M75.198,3.48h-1.35v2.76c0,0.174,0.016,0.315,0.05,0.425c0.033,0.11,0.08,0.195,0.14,0.255
		s0.131,0.102,0.215,0.125c0.083,0.024,0.175,0.035,0.275,0.035c0.113,0,0.23-0.016,0.35-0.05c0.12-0.033,0.23-0.076,0.33-0.13
		l0.03,0.61c-0.247,0.114-0.544,0.17-0.89,0.17c-0.127,0-0.259-0.016-0.395-0.05c-0.137-0.033-0.262-0.096-0.375-0.19
		c-0.114-0.093-0.207-0.22-0.28-0.38c-0.074-0.16-0.11-0.37-0.11-0.63V3.48h-0.99v-0.6h0.99V1.56h0.66v1.32h1.35V3.48L75.198,3.48z"
		/>
	<path fill="#4F384A" class="text-dark" d="M78.978,7.56c-0.014-0.126-0.022-0.251-0.025-0.375c-0.004-0.123-0.005-0.248-0.005-0.375h-0.02
		c-0.074,0.127-0.167,0.244-0.28,0.35c-0.114,0.107-0.24,0.199-0.38,0.275c-0.14,0.077-0.289,0.137-0.445,0.18
		c-0.157,0.044-0.312,0.065-0.465,0.065c-0.6,0-1.044-0.158-1.33-0.475c-0.287-0.316-0.43-0.768-0.43-1.355V2.88h0.66v2.59
		c0,0.26,0.02,0.49,0.06,0.69c0.04,0.2,0.108,0.369,0.205,0.505c0.096,0.137,0.226,0.24,0.39,0.31
		c0.163,0.07,0.368,0.105,0.615,0.105c0.033,0,0.126-0.013,0.28-0.04c0.153-0.026,0.315-0.1,0.485-0.22s0.321-0.3,0.455-0.54
		c0.133-0.24,0.2-0.573,0.2-1v-2.4h0.66v3.65c0,0.127,0.005,0.287,0.015,0.48c0.01,0.194,0.021,0.377,0.035,0.55H78.978L78.978,7.56
		z"/>
	<path fill="#4F384A" class="text-dark" d="M83.078,3.48h-1.35v2.76c0,0.174,0.016,0.315,0.05,0.425c0.033,0.11,0.08,0.195,0.14,0.255
		s0.131,0.102,0.215,0.125c0.083,0.024,0.175,0.035,0.275,0.035c0.113,0,0.23-0.016,0.35-0.05c0.12-0.033,0.23-0.076,0.33-0.13
		l0.03,0.61c-0.247,0.114-0.544,0.17-0.89,0.17c-0.127,0-0.259-0.016-0.395-0.05c-0.137-0.033-0.262-0.096-0.375-0.19
		c-0.114-0.093-0.207-0.22-0.28-0.38c-0.074-0.16-0.11-0.37-0.11-0.63V3.48h-0.99v-0.6h0.99V1.56h0.66v1.32h1.35V3.48L83.078,3.48z"
		/>
	<path fill="#4F384A" class="text-dark" d="M84.438,1.08c0,0.14-0.05,0.255-0.15,0.345s-0.21,0.135-0.33,0.135s-0.23-0.045-0.33-0.135
		s-0.15-0.205-0.15-0.345c0-0.14,0.05-0.255,0.15-0.345s0.21-0.135,0.33-0.135s0.23,0.045,0.33,0.135S84.438,0.94,84.438,1.08
		L84.438,1.08z M84.288,7.56h-0.66V2.88h0.66V7.56L84.288,7.56z"/>
	<path fill="#4F384A" class="text-dark" d="M89.388,5.22c0-0.26-0.042-0.503-0.125-0.73c-0.084-0.226-0.202-0.423-0.355-0.59
		c-0.154-0.166-0.339-0.298-0.555-0.395c-0.217-0.096-0.462-0.145-0.735-0.145c-0.274,0-0.519,0.049-0.735,0.145
		c-0.217,0.097-0.4,0.229-0.55,0.395c-0.15,0.167-0.267,0.364-0.35,0.59c-0.084,0.227-0.125,0.47-0.125,0.73
		c0,0.26,0.041,0.504,0.125,0.73c0.083,0.227,0.2,0.424,0.35,0.59c0.15,0.167,0.333,0.299,0.55,0.395
		c0.216,0.097,0.461,0.145,0.735,0.145c0.273,0,0.518-0.048,0.735-0.145c0.216-0.096,0.401-0.228,0.555-0.395
		c0.153-0.166,0.271-0.363,0.355-0.59C89.346,5.724,89.388,5.48,89.388,5.22L89.388,5.22z M90.108,5.22
		c0,0.354-0.062,0.68-0.185,0.98c-0.124,0.3-0.295,0.56-0.515,0.78c-0.22,0.22-0.482,0.392-0.785,0.515
		c-0.304,0.124-0.639,0.185-1.005,0.185c-0.36,0-0.692-0.061-0.995-0.185C86.319,7.372,86.058,7.2,85.838,6.98
		c-0.22-0.22-0.392-0.48-0.515-0.78c-0.124-0.3-0.185-0.626-0.185-0.98c0-0.353,0.061-0.68,0.185-0.98
		c0.123-0.3,0.295-0.56,0.515-0.78c0.22-0.22,0.481-0.391,0.785-0.515c0.303-0.123,0.635-0.185,0.995-0.185
		c0.366,0,0.701,0.062,1.005,0.185c0.303,0.124,0.565,0.295,0.785,0.515c0.22,0.22,0.391,0.48,0.515,0.78
		C90.046,4.54,90.108,4.867,90.108,5.22L90.108,5.22z"/>
	<path fill="#4F384A" class="text-dark" d="M91.438,2.88c0.013,0.127,0.021,0.252,0.025,0.375c0.003,0.124,0.005,0.249,0.005,0.375h0.02
		c0.073-0.126,0.166-0.243,0.28-0.35c0.113-0.106,0.24-0.198,0.38-0.275c0.14-0.076,0.288-0.136,0.445-0.18
		c0.156-0.043,0.311-0.065,0.465-0.065c0.6,0,1.043,0.159,1.33,0.475c0.286,0.317,0.43,0.769,0.43,1.355v2.97h-0.66V4.97
		c0-0.52-0.09-0.918-0.27-1.195c-0.18-0.276-0.514-0.415-1-0.415c-0.034,0-0.127,0.014-0.28,0.04c-0.154,0.027-0.315,0.1-0.485,0.22
		c-0.17,0.12-0.322,0.3-0.455,0.54c-0.134,0.24-0.2,0.574-0.2,1v2.4h-0.66V3.91c0-0.126-0.005-0.286-0.015-0.48
		c-0.01-0.193-0.022-0.376-0.035-0.55H91.438L91.438,2.88z"/>
	<path fill="#4F384A" class="text-dark" d="M46.018,75.807h-2.81l-0.03,1.09c0.153-0.055,0.363-0.08,0.63-0.08c0.36,0,0.69,0.053,0.99,0.16
		c0.3,0.105,0.558,0.26,0.775,0.465c0.217,0.203,0.385,0.449,0.505,0.74c0.12,0.289,0.18,0.613,0.18,0.975
		c0,0.4-0.068,0.756-0.205,1.07c-0.137,0.312-0.325,0.578-0.565,0.795c-0.24,0.215-0.525,0.381-0.855,0.494s-0.688,0.17-1.075,0.17
		c-0.613,0-1.127-0.15-1.54-0.449c-0.413-0.301-0.697-0.754-0.85-1.361l1.57-0.359c0.04,0.254,0.147,0.459,0.32,0.615
		c0.173,0.156,0.39,0.234,0.65,0.234c0.32,0,0.575-0.1,0.765-0.299c0.19-0.201,0.285-0.455,0.285-0.76
		c0-0.234-0.048-0.426-0.145-0.576c-0.097-0.15-0.223-0.27-0.38-0.359c-0.157-0.09-0.332-0.152-0.525-0.186s-0.387-0.049-0.58-0.049
		c-0.247,0-0.495,0.021-0.745,0.068s-0.492,0.111-0.725,0.191l0.08-3.91h4.28V75.807L46.018,75.807z"/>
	<polygon fill="#4F384A" class="text-dark" points="54.628,80.486 54.648,80.486 54.648,74.486 55.368,74.486 55.368,81.566 54.468,81.566 
		50.248,75.506 50.228,75.506 50.228,81.566 49.508,81.566 49.508,74.486 50.408,74.486 54.628,80.486 	"/>
	<path fill="#4F384A" class="text-dark" d="M60.558,79.227c0-0.26-0.042-0.504-0.125-0.73s-0.202-0.424-0.355-0.59
		c-0.153-0.168-0.338-0.299-0.555-0.395c-0.217-0.098-0.462-0.146-0.735-0.146s-0.518,0.049-0.735,0.146
		c-0.217,0.096-0.4,0.227-0.55,0.395c-0.15,0.166-0.267,0.363-0.35,0.59s-0.125,0.471-0.125,0.73s0.042,0.502,0.125,0.729
		s0.2,0.424,0.35,0.59s0.333,0.299,0.55,0.396c0.217,0.096,0.462,0.145,0.735,0.145s0.518-0.049,0.735-0.145
		c0.217-0.098,0.402-0.23,0.555-0.396c0.153-0.166,0.272-0.363,0.355-0.59S60.558,79.486,60.558,79.227L60.558,79.227z
		 M61.278,79.227c0,0.352-0.062,0.68-0.185,0.979c-0.123,0.301-0.295,0.561-0.515,0.781c-0.22,0.219-0.482,0.391-0.785,0.514
		s-0.638,0.186-1.005,0.186c-0.36,0-0.692-0.062-0.995-0.186s-0.565-0.295-0.785-0.514c-0.22-0.221-0.392-0.48-0.515-0.781
		c-0.123-0.299-0.185-0.627-0.185-0.979c0-0.355,0.062-0.682,0.185-0.98c0.123-0.301,0.295-0.561,0.515-0.779
		c0.22-0.221,0.482-0.393,0.785-0.516c0.303-0.125,0.635-0.186,0.995-0.186c0.367,0,0.702,0.061,1.005,0.186
		c0.303,0.123,0.565,0.295,0.785,0.516c0.22,0.219,0.392,0.479,0.515,0.779C61.216,78.545,61.278,78.871,61.278,79.227
		L61.278,79.227z"/>
	<path fill="#4F384A" class="text-dark" d="M62.608,76.887c0.013,0.125,0.022,0.25,0.025,0.375c0.003,0.123,0.005,0.248,0.005,0.375h0.02
		c0.073-0.127,0.167-0.244,0.28-0.352c0.113-0.105,0.24-0.199,0.38-0.273c0.14-0.078,0.288-0.139,0.445-0.182
		c0.157-0.043,0.312-0.064,0.465-0.064c0.6,0,1.043,0.158,1.33,0.475s0.43,0.77,0.43,1.355v2.971h-0.66v-2.59
		c0-0.521-0.09-0.92-0.27-1.195c-0.18-0.277-0.513-0.416-1-0.416c-0.033,0-0.127,0.014-0.28,0.041
		c-0.153,0.025-0.315,0.1-0.485,0.219c-0.17,0.121-0.322,0.301-0.455,0.541c-0.133,0.24-0.2,0.572-0.2,1v2.4h-0.66v-3.65
		c0-0.127-0.005-0.287-0.015-0.48c-0.01-0.193-0.022-0.377-0.035-0.549H62.608L62.608,76.887z"/>
	<polygon fill="#4F384A" class="text-dark" points="69.268,79.496 66.698,79.496 66.698,78.836 69.268,78.836 69.268,79.496 	"/>
	<path fill="#4F384A" class="text-dark" d="M75.338,75.785c-0.24-0.254-0.527-0.453-0.86-0.6s-0.72-0.219-1.16-0.219c-0.453,0-0.86,0.082-1.22,0.25
		c-0.36,0.166-0.665,0.389-0.915,0.67c-0.25,0.279-0.442,0.604-0.575,0.975c-0.133,0.369-0.2,0.758-0.2,1.164s0.067,0.795,0.2,1.166
		c0.133,0.369,0.325,0.695,0.575,0.975s0.555,0.502,0.915,0.67c0.36,0.166,0.767,0.25,1.22,0.25c0.367,0,0.718-0.045,1.055-0.135
		s0.638-0.213,0.905-0.365v-2.371h-1.69v-0.658h2.41v3.469c-0.4,0.234-0.838,0.412-1.315,0.535s-0.932,0.186-1.365,0.186
		c-0.527,0-1.015-0.094-1.465-0.279c-0.45-0.188-0.84-0.445-1.17-0.775s-0.588-0.723-0.775-1.176c-0.187-0.453-0.28-0.949-0.28-1.49
		c0-0.539,0.093-1.037,0.28-1.49c0.187-0.453,0.445-0.844,0.775-1.174s0.72-0.59,1.17-0.775c0.45-0.188,0.938-0.279,1.465-0.279
		c0.567,0,1.055,0.078,1.465,0.234c0.41,0.156,0.775,0.395,1.095,0.715L75.338,75.785L75.338,75.785z"/>
	<path fill="#4F384A" class="text-dark" d="M81.158,79.227c0-0.26-0.042-0.504-0.125-0.73c-0.083-0.227-0.202-0.424-0.355-0.59
		c-0.153-0.168-0.338-0.299-0.555-0.395c-0.217-0.098-0.462-0.146-0.735-0.146c-0.273,0-0.518,0.049-0.735,0.146
		c-0.217,0.096-0.4,0.227-0.55,0.395c-0.15,0.166-0.267,0.363-0.35,0.59s-0.125,0.471-0.125,0.73s0.042,0.502,0.125,0.729
		s0.2,0.424,0.35,0.59s0.333,0.299,0.55,0.396c0.217,0.096,0.462,0.145,0.735,0.145c0.273,0,0.518-0.049,0.735-0.145
		c0.217-0.098,0.402-0.23,0.555-0.396c0.153-0.166,0.272-0.363,0.355-0.59C81.116,79.729,81.158,79.486,81.158,79.227L81.158,79.227
		z M81.878,79.227c0,0.352-0.062,0.68-0.185,0.979c-0.123,0.301-0.295,0.561-0.515,0.781c-0.22,0.219-0.482,0.391-0.785,0.514
		c-0.303,0.123-0.638,0.186-1.005,0.186c-0.36,0-0.692-0.062-0.995-0.186c-0.303-0.123-0.565-0.295-0.785-0.514
		c-0.22-0.221-0.392-0.48-0.515-0.781c-0.123-0.299-0.185-0.627-0.185-0.979c0-0.355,0.062-0.682,0.185-0.98
		c0.123-0.301,0.295-0.561,0.515-0.779c0.22-0.221,0.482-0.393,0.785-0.516c0.303-0.125,0.635-0.186,0.995-0.186
		c0.367,0,0.702,0.061,1.005,0.186c0.303,0.123,0.565,0.295,0.785,0.516c0.22,0.219,0.392,0.479,0.515,0.779
		C81.816,78.545,81.878,78.871,81.878,79.227L81.878,79.227z"/>
	<polygon fill="#4F384A" class="text-dark" points="84.638,81.566 83.898,81.566 81.998,76.887 82.788,76.887 84.278,80.826 84.298,80.826 
		85.788,76.887 86.538,76.887 84.638,81.566 	"/>
	<path fill="#4F384A" class="text-dark" d="M90.538,78.865c0-0.447-0.133-0.809-0.4-1.084c-0.267-0.277-0.64-0.416-1.12-0.416
		c-0.213,0-0.42,0.041-0.62,0.125s-0.375,0.195-0.525,0.336s-0.27,0.299-0.36,0.48c-0.09,0.18-0.135,0.365-0.135,0.559H90.538
		L90.538,78.865z M87.358,79.406c0.02,0.232,0.077,0.453,0.17,0.66c0.093,0.205,0.217,0.385,0.37,0.535
		c0.153,0.148,0.33,0.268,0.53,0.354c0.2,0.086,0.417,0.131,0.65,0.131c0.353,0,0.658-0.082,0.915-0.246
		c0.257-0.162,0.452-0.352,0.585-0.564l0.51,0.42c-0.28,0.354-0.588,0.607-0.925,0.76c-0.337,0.154-0.698,0.23-1.085,0.23
		c-0.347,0-0.668-0.062-0.965-0.186c-0.297-0.123-0.552-0.295-0.765-0.514c-0.213-0.221-0.382-0.48-0.505-0.781
		c-0.123-0.299-0.185-0.627-0.185-0.979c0-0.355,0.06-0.682,0.18-0.98c0.12-0.301,0.287-0.561,0.5-0.781
		c0.213-0.219,0.463-0.391,0.75-0.514c0.287-0.125,0.597-0.186,0.93-0.186c0.353,0,0.67,0.062,0.95,0.189
		c0.28,0.127,0.515,0.295,0.705,0.506c0.19,0.209,0.335,0.455,0.435,0.74c0.1,0.283,0.15,0.584,0.15,0.904v0.301H87.358
		L87.358,79.406z"/>
	<path fill="#4F384A" class="text-dark" d="M92.028,78.346c0-0.207-0.005-0.416-0.015-0.629c-0.01-0.215-0.018-0.49-0.025-0.83h0.65v0.869h0.02
		c0.047-0.127,0.113-0.248,0.2-0.365s0.192-0.223,0.315-0.314c0.123-0.094,0.267-0.17,0.43-0.225
		c0.163-0.059,0.348-0.086,0.555-0.086c0.187,0,0.35,0.02,0.49,0.061l-0.13,0.65c-0.087-0.035-0.213-0.051-0.38-0.051
		c-0.253,0-0.47,0.049-0.65,0.145c-0.18,0.096-0.33,0.221-0.45,0.371c-0.12,0.15-0.208,0.311-0.265,0.484s-0.085,0.34-0.085,0.5
		v2.641h-0.66V78.346L92.028,78.346z"/>
	<path fill="#4F384A" class="text-dark" d="M95.588,76.887c0.013,0.125,0.022,0.25,0.025,0.375c0.003,0.123,0.005,0.248,0.005,0.375h0.02
		c0.073-0.127,0.167-0.244,0.28-0.352c0.113-0.105,0.24-0.199,0.38-0.273c0.14-0.078,0.288-0.139,0.445-0.182
		c0.157-0.043,0.312-0.064,0.465-0.064c0.6,0,1.043,0.158,1.33,0.475s0.43,0.77,0.43,1.355v2.971h-0.66v-2.59
		c0-0.521-0.09-0.92-0.27-1.195c-0.18-0.277-0.513-0.416-1-0.416c-0.033,0-0.127,0.014-0.28,0.041
		c-0.153,0.025-0.315,0.1-0.485,0.219c-0.17,0.121-0.322,0.301-0.455,0.541c-0.133,0.24-0.2,0.572-0.2,1v2.4h-0.66v-3.65
		c0-0.127-0.005-0.287-0.015-0.48c-0.01-0.193-0.022-0.377-0.035-0.549H95.588L95.588,76.887z"/>
	<path fill="#4F384A" class="text-dark" d="M100.018,77.926c0-0.174-0.005-0.348-0.015-0.52c-0.01-0.174-0.022-0.348-0.035-0.52h0.71v0.709h0.02
		c0.16-0.273,0.382-0.48,0.665-0.619c0.283-0.141,0.565-0.211,0.845-0.211c0.127,0,0.262,0.014,0.405,0.041
		c0.143,0.025,0.282,0.074,0.415,0.145c0.133,0.07,0.258,0.168,0.375,0.295c0.117,0.125,0.215,0.289,0.295,0.49
		c0.133-0.301,0.345-0.537,0.635-0.711s0.592-0.26,0.905-0.26c0.6,0,1.043,0.158,1.33,0.475s0.43,0.77,0.43,1.355v2.971h-0.66v-2.73
		c0-0.475-0.083-0.838-0.25-1.09c-0.167-0.254-0.477-0.381-0.93-0.381c-0.247,0-0.453,0.049-0.62,0.146
		c-0.167,0.096-0.302,0.225-0.405,0.385s-0.178,0.34-0.225,0.545c-0.047,0.203-0.07,0.414-0.07,0.635v2.49h-0.66v-2.73
		c0-0.475-0.083-0.838-0.25-1.09c-0.167-0.254-0.477-0.381-0.93-0.381c-0.04,0-0.132,0.014-0.275,0.041
		c-0.143,0.025-0.292,0.1-0.445,0.219c-0.153,0.121-0.292,0.301-0.415,0.541s-0.185,0.572-0.185,1v2.4h-0.66V77.926L100.018,77.926z
		"/>
	<path fill="#4F384A" class="text-dark" d="M111.678,78.865c0-0.447-0.133-0.809-0.4-1.084c-0.267-0.277-0.64-0.416-1.12-0.416
		c-0.213,0-0.42,0.041-0.62,0.125c-0.2,0.084-0.375,0.195-0.525,0.336c-0.15,0.141-0.27,0.299-0.36,0.48
		c-0.09,0.18-0.135,0.365-0.135,0.559H111.678L111.678,78.865z M108.498,79.406c0.02,0.232,0.077,0.453,0.17,0.66
		c0.093,0.205,0.217,0.385,0.37,0.535c0.153,0.148,0.33,0.268,0.53,0.354c0.2,0.086,0.417,0.131,0.65,0.131
		c0.353,0,0.658-0.082,0.915-0.246c0.257-0.162,0.452-0.352,0.585-0.564l0.51,0.42c-0.28,0.354-0.588,0.607-0.925,0.76
		c-0.337,0.154-0.698,0.23-1.085,0.23c-0.347,0-0.668-0.062-0.965-0.186s-0.552-0.295-0.765-0.514
		c-0.213-0.221-0.382-0.48-0.505-0.781c-0.123-0.299-0.185-0.627-0.185-0.979c0-0.355,0.06-0.682,0.18-0.98
		c0.12-0.301,0.287-0.561,0.5-0.781c0.213-0.219,0.463-0.391,0.75-0.514c0.287-0.125,0.597-0.186,0.93-0.186
		c0.353,0,0.67,0.062,0.95,0.189c0.28,0.127,0.515,0.295,0.705,0.506c0.19,0.209,0.335,0.455,0.435,0.74
		c0.1,0.283,0.15,0.584,0.15,0.904v0.301H108.498L108.498,79.406z"/>
	<path fill="#4F384A" class="text-dark" d="M113.728,76.887c0.013,0.125,0.022,0.25,0.025,0.375c0.003,0.123,0.005,0.248,0.005,0.375h0.02
		c0.073-0.127,0.167-0.244,0.28-0.352c0.113-0.105,0.24-0.199,0.38-0.273c0.14-0.078,0.288-0.139,0.445-0.182
		c0.157-0.043,0.312-0.064,0.465-0.064c0.6,0,1.043,0.158,1.33,0.475c0.287,0.316,0.43,0.77,0.43,1.355v2.971h-0.66v-2.59
		c0-0.521-0.09-0.92-0.27-1.195c-0.18-0.277-0.513-0.416-1-0.416c-0.033,0-0.127,0.014-0.28,0.041
		c-0.153,0.025-0.315,0.1-0.485,0.219c-0.17,0.121-0.322,0.301-0.455,0.541s-0.2,0.572-0.2,1v2.4h-0.66v-3.65
		c0-0.127-0.005-0.287-0.015-0.48c-0.01-0.193-0.022-0.377-0.035-0.549H113.728L113.728,76.887z"/>
	<path fill="#4F384A" class="text-dark" d="M120.578,77.486h-1.35v2.76c0,0.172,0.017,0.314,0.05,0.424c0.033,0.111,0.08,0.195,0.14,0.256
		s0.132,0.102,0.215,0.125s0.175,0.035,0.275,0.035c0.113,0,0.23-0.018,0.35-0.051c0.12-0.033,0.23-0.076,0.33-0.129l0.03,0.609
		c-0.247,0.113-0.543,0.17-0.89,0.17c-0.127,0-0.258-0.018-0.395-0.049c-0.137-0.035-0.262-0.098-0.375-0.191
		c-0.113-0.094-0.207-0.219-0.28-0.379c-0.073-0.16-0.11-0.371-0.11-0.631v-2.949h-0.99v-0.6h0.99v-1.32h0.66v1.32h1.35V77.486
		L120.578,77.486z"/>
	<path fill="#4F384A" class="text-dark" d="M123.638,79.236c-0.167,0-0.375,0.008-0.625,0.025c-0.25,0.016-0.49,0.055-0.72,0.119
		c-0.23,0.062-0.427,0.16-0.59,0.295c-0.163,0.133-0.245,0.316-0.245,0.551c0,0.152,0.032,0.285,0.095,0.395
		c0.063,0.109,0.148,0.199,0.255,0.27s0.225,0.121,0.355,0.15s0.262,0.045,0.395,0.045c0.24,0,0.448-0.041,0.625-0.119
		c0.177-0.08,0.325-0.189,0.445-0.326s0.208-0.297,0.265-0.48s0.085-0.379,0.085-0.584v-0.34H123.638L123.638,79.236z
		 M123.978,78.695v-0.119c0-0.807-0.4-1.211-1.2-1.211c-0.547,0-1.023,0.184-1.43,0.551l-0.4-0.471c0.44-0.453,1.1-0.68,1.98-0.68
		c0.227,0,0.445,0.033,0.655,0.1s0.392,0.168,0.545,0.305s0.277,0.309,0.37,0.516c0.093,0.207,0.14,0.453,0.14,0.74v2.09
		c0,0.18,0.008,0.369,0.025,0.564c0.017,0.197,0.035,0.359,0.055,0.486h-0.64c-0.02-0.115-0.035-0.238-0.045-0.371
		c-0.01-0.133-0.015-0.264-0.015-0.389h-0.02c-0.193,0.312-0.422,0.537-0.685,0.674s-0.585,0.205-0.965,0.205
		c-0.207,0-0.407-0.029-0.6-0.084c-0.193-0.059-0.365-0.145-0.515-0.26c-0.15-0.117-0.27-0.262-0.36-0.432s-0.135-0.369-0.135-0.594
		c0-0.381,0.098-0.68,0.295-0.895c0.197-0.219,0.443-0.381,0.74-0.486c0.297-0.107,0.613-0.174,0.95-0.199
		c0.337-0.027,0.645-0.041,0.925-0.041H123.978L123.978,78.695z"/>
	<polygon fill="#4F384A" class="text-dark" points="126.478,81.566 125.818,81.566 125.818,74.006 126.478,74.006 126.478,81.566 	"/>
	<path fill="#4F384A" class="text-dark" d="M136.208,78.025c0-0.406-0.067-0.795-0.2-1.164c-0.133-0.371-0.325-0.695-0.575-0.975
		c-0.25-0.281-0.555-0.504-0.915-0.67c-0.36-0.168-0.767-0.25-1.22-0.25c-0.453,0-0.86,0.082-1.22,0.25
		c-0.36,0.166-0.665,0.389-0.915,0.67c-0.25,0.279-0.442,0.604-0.575,0.975c-0.133,0.369-0.2,0.758-0.2,1.164s0.067,0.795,0.2,1.166
		c0.133,0.369,0.325,0.695,0.575,0.975s0.555,0.502,0.915,0.67c0.36,0.166,0.767,0.25,1.22,0.25c0.453,0,0.86-0.084,1.22-0.25
		c0.36-0.168,0.665-0.391,0.915-0.67s0.442-0.605,0.575-0.975C136.141,78.82,136.208,78.432,136.208,78.025L136.208,78.025z
		 M136.988,78.025c0,0.541-0.093,1.037-0.28,1.49s-0.445,0.846-0.775,1.176s-0.72,0.588-1.17,0.775
		c-0.45,0.186-0.938,0.279-1.465,0.279c-0.527,0-1.015-0.094-1.465-0.279c-0.45-0.188-0.84-0.445-1.17-0.775
		s-0.588-0.723-0.775-1.176c-0.187-0.453-0.28-0.949-0.28-1.49c0-0.539,0.093-1.037,0.28-1.49c0.187-0.453,0.445-0.844,0.775-1.174
		s0.72-0.59,1.17-0.775c0.45-0.188,0.938-0.279,1.465-0.279c0.527,0,1.015,0.092,1.465,0.279c0.45,0.186,0.84,0.445,1.17,0.775
		s0.588,0.721,0.775,1.174S136.988,77.486,136.988,78.025L136.988,78.025z"/>
	<path fill="#4F384A" class="text-dark" d="M137.758,78.346c0-0.207-0.005-0.416-0.015-0.629c-0.01-0.215-0.018-0.49-0.025-0.83h0.65v0.869h0.02
		c0.047-0.127,0.113-0.248,0.2-0.365s0.192-0.223,0.315-0.314c0.123-0.094,0.267-0.17,0.43-0.225
		c0.163-0.059,0.348-0.086,0.555-0.086c0.187,0,0.35,0.02,0.49,0.061l-0.13,0.65c-0.087-0.035-0.213-0.051-0.38-0.051
		c-0.253,0-0.47,0.049-0.65,0.145c-0.18,0.096-0.33,0.221-0.45,0.371s-0.208,0.311-0.265,0.484s-0.085,0.34-0.085,0.5v2.641h-0.66
		V78.346L137.758,78.346z"/>
	<path fill="#4F384A" class="text-dark" d="M140.808,79.166c0,0.246,0.045,0.479,0.135,0.695c0.09,0.215,0.213,0.406,0.37,0.57
		c0.157,0.162,0.34,0.293,0.55,0.389s0.438,0.146,0.685,0.146c0.24,0,0.468-0.045,0.685-0.131c0.217-0.088,0.408-0.209,0.575-0.365
		s0.295-0.346,0.385-0.564c0.09-0.221,0.132-0.467,0.125-0.74c0-0.248-0.04-0.479-0.12-0.695c-0.08-0.217-0.197-0.406-0.35-0.57
		c-0.153-0.164-0.34-0.293-0.56-0.389c-0.22-0.098-0.467-0.146-0.74-0.146c-0.247,0-0.475,0.049-0.685,0.146
		c-0.21,0.096-0.393,0.225-0.55,0.389s-0.28,0.354-0.37,0.57C140.853,78.688,140.808,78.918,140.808,79.166L140.808,79.166z
		 M140.688,82.506c0.193,0.26,0.445,0.469,0.755,0.625s0.655,0.234,1.035,0.234c0.333,0,0.617-0.049,0.85-0.145
		c0.233-0.098,0.422-0.229,0.565-0.395c0.143-0.168,0.247-0.363,0.31-0.586s0.095-0.461,0.095-0.715v-0.84h-0.02
		c-0.213,0.32-0.473,0.547-0.78,0.68s-0.63,0.201-0.97,0.201c-0.34,0-0.658-0.061-0.955-0.18c-0.297-0.121-0.555-0.285-0.775-0.496
		c-0.22-0.209-0.393-0.461-0.52-0.754c-0.127-0.295-0.19-0.611-0.19-0.951s0.06-0.656,0.18-0.949c0.12-0.295,0.285-0.551,0.495-0.77
		c0.21-0.221,0.46-0.393,0.75-0.516c0.29-0.125,0.608-0.186,0.955-0.186c0.14,0,0.288,0.014,0.445,0.041
		c0.157,0.025,0.313,0.072,0.47,0.139c0.157,0.066,0.312,0.158,0.465,0.275c0.153,0.115,0.297,0.266,0.43,0.445h0.02v-0.779h0.66
		v4.639c0,0.254-0.032,0.523-0.095,0.811c-0.063,0.285-0.187,0.551-0.37,0.789c-0.183,0.24-0.438,0.441-0.765,0.602
		s-0.753,0.238-1.28,0.238c-0.467,0-0.883-0.076-1.25-0.229c-0.367-0.154-0.7-0.391-1-0.711L140.688,82.506L140.688,82.506z"/>
	<path fill="#4F384A" class="text-dark" d="M148.598,79.236c-0.167,0-0.375,0.008-0.625,0.025c-0.25,0.016-0.49,0.055-0.72,0.119
		c-0.23,0.062-0.427,0.16-0.59,0.295c-0.163,0.133-0.245,0.316-0.245,0.551c0,0.152,0.032,0.285,0.095,0.395s0.148,0.199,0.255,0.27
		s0.225,0.121,0.355,0.15s0.262,0.045,0.395,0.045c0.24,0,0.448-0.041,0.625-0.119c0.177-0.08,0.325-0.189,0.445-0.326
		s0.208-0.297,0.265-0.48s0.085-0.379,0.085-0.584v-0.34H148.598L148.598,79.236z M148.938,78.695v-0.119
		c0-0.807-0.4-1.211-1.2-1.211c-0.547,0-1.023,0.184-1.43,0.551l-0.4-0.471c0.44-0.453,1.1-0.68,1.98-0.68
		c0.227,0,0.445,0.033,0.655,0.1s0.392,0.168,0.545,0.305c0.153,0.137,0.277,0.309,0.37,0.516c0.093,0.207,0.14,0.453,0.14,0.74
		v2.09c0,0.18,0.008,0.369,0.025,0.564c0.017,0.197,0.035,0.359,0.055,0.486h-0.64c-0.02-0.115-0.035-0.238-0.045-0.371
		c-0.01-0.133-0.015-0.264-0.015-0.389h-0.02c-0.193,0.312-0.422,0.537-0.685,0.674s-0.585,0.205-0.965,0.205
		c-0.207,0-0.407-0.029-0.6-0.084c-0.193-0.059-0.365-0.145-0.515-0.26c-0.15-0.117-0.27-0.262-0.36-0.432s-0.135-0.369-0.135-0.594
		c0-0.381,0.098-0.68,0.295-0.895c0.197-0.219,0.443-0.381,0.74-0.486c0.297-0.107,0.613-0.174,0.95-0.199
		c0.337-0.027,0.645-0.041,0.925-0.041H148.938L148.938,78.695z"/>
	<path fill="#4F384A" class="text-dark" d="M151.258,76.887c0.013,0.125,0.022,0.25,0.025,0.375c0.003,0.123,0.005,0.248,0.005,0.375h0.02
		c0.073-0.127,0.167-0.244,0.28-0.352c0.113-0.105,0.24-0.199,0.38-0.273c0.14-0.078,0.288-0.139,0.445-0.182
		c0.157-0.043,0.312-0.064,0.465-0.064c0.6,0,1.043,0.158,1.33,0.475s0.43,0.77,0.43,1.355v2.971h-0.66v-2.59
		c0-0.521-0.09-0.92-0.27-1.195c-0.18-0.277-0.513-0.416-1-0.416c-0.033,0-0.127,0.014-0.28,0.041
		c-0.153,0.025-0.315,0.1-0.485,0.219c-0.17,0.121-0.322,0.301-0.455,0.541c-0.133,0.24-0.2,0.572-0.2,1v2.4h-0.66v-3.65
		c0-0.127-0.005-0.287-0.015-0.48c-0.01-0.193-0.022-0.377-0.035-0.549H151.258L151.258,76.887z"/>
	<path fill="#4F384A" class="text-dark" d="M156.648,75.086c0,0.141-0.05,0.256-0.15,0.346s-0.21,0.135-0.33,0.135s-0.23-0.045-0.33-0.135
		s-0.15-0.205-0.15-0.346s0.05-0.256,0.15-0.346s0.21-0.135,0.33-0.135s0.23,0.045,0.33,0.135S156.648,74.945,156.648,75.086
		L156.648,75.086z M156.498,81.566h-0.66v-4.68h0.66V81.566L156.498,81.566z"/>
	<polygon fill="#4F384A" class="text-dark" points="160.798,77.365 158.058,80.967 160.898,80.967 160.898,81.566 157.098,81.566 157.098,81.086 
		159.838,77.486 157.238,77.486 157.238,76.887 160.798,76.887 160.798,77.365 	"/>
	<path fill="#4F384A" class="text-dark" d="M164.008,79.236c-0.167,0-0.375,0.008-0.625,0.025c-0.25,0.016-0.49,0.055-0.72,0.119
		c-0.23,0.062-0.427,0.16-0.59,0.295c-0.163,0.133-0.245,0.316-0.245,0.551c0,0.152,0.032,0.285,0.095,0.395s0.148,0.199,0.255,0.27
		c0.107,0.07,0.225,0.121,0.355,0.15c0.13,0.029,0.262,0.045,0.395,0.045c0.24,0,0.448-0.041,0.625-0.119
		c0.177-0.08,0.325-0.189,0.445-0.326s0.208-0.297,0.265-0.48c0.057-0.184,0.085-0.379,0.085-0.584v-0.34H164.008L164.008,79.236z
		 M164.348,78.695v-0.119c0-0.807-0.4-1.211-1.2-1.211c-0.547,0-1.023,0.184-1.43,0.551l-0.4-0.471c0.44-0.453,1.1-0.68,1.98-0.68
		c0.227,0,0.445,0.033,0.655,0.1s0.392,0.168,0.545,0.305s0.277,0.309,0.37,0.516c0.093,0.207,0.14,0.453,0.14,0.74v2.09
		c0,0.18,0.008,0.369,0.025,0.564c0.017,0.197,0.035,0.359,0.055,0.486h-0.64c-0.02-0.115-0.035-0.238-0.045-0.371
		c-0.01-0.133-0.015-0.264-0.015-0.389h-0.02c-0.193,0.312-0.422,0.537-0.685,0.674c-0.263,0.137-0.585,0.205-0.965,0.205
		c-0.207,0-0.407-0.029-0.6-0.084c-0.193-0.059-0.365-0.145-0.515-0.26c-0.15-0.117-0.27-0.262-0.36-0.432
		c-0.09-0.17-0.135-0.369-0.135-0.594c0-0.381,0.098-0.68,0.295-0.895c0.197-0.219,0.443-0.381,0.74-0.486
		c0.297-0.107,0.613-0.174,0.95-0.199c0.337-0.027,0.645-0.041,0.925-0.041H164.348L164.348,78.695z"/>
	<path fill="#4F384A" class="text-dark" d="M168.458,77.486h-1.35v2.76c0,0.172,0.017,0.314,0.05,0.424c0.033,0.111,0.08,0.195,0.14,0.256
		s0.132,0.102,0.215,0.125s0.175,0.035,0.275,0.035c0.113,0,0.23-0.018,0.35-0.051c0.12-0.033,0.229-0.076,0.33-0.129l0.03,0.609
		c-0.247,0.113-0.543,0.17-0.89,0.17c-0.127,0-0.258-0.018-0.395-0.049c-0.137-0.035-0.262-0.098-0.375-0.191
		c-0.113-0.094-0.207-0.219-0.28-0.379c-0.073-0.16-0.11-0.371-0.11-0.631v-2.949h-0.99v-0.6h0.99v-1.32h0.66v1.32h1.35V77.486
		L168.458,77.486z"/>
	<path fill="#4F384A" class="text-dark" d="M169.818,75.086c0,0.141-0.05,0.256-0.15,0.346s-0.21,0.135-0.33,0.135s-0.23-0.045-0.33-0.135
		s-0.15-0.205-0.15-0.346s0.05-0.256,0.15-0.346s0.21-0.135,0.33-0.135s0.23,0.045,0.33,0.135S169.818,74.945,169.818,75.086
		L169.818,75.086z M169.668,81.566h-0.66v-4.68h0.66V81.566L169.668,81.566z"/>
	<path fill="#4F384A" class="text-dark" d="M174.768,79.227c0-0.26-0.042-0.504-0.125-0.73s-0.202-0.424-0.355-0.59
		c-0.153-0.168-0.338-0.299-0.555-0.395c-0.217-0.098-0.462-0.146-0.735-0.146s-0.518,0.049-0.735,0.146
		c-0.217,0.096-0.4,0.227-0.55,0.395c-0.15,0.166-0.267,0.363-0.35,0.59s-0.125,0.471-0.125,0.73s0.042,0.502,0.125,0.729
		s0.2,0.424,0.35,0.59s0.333,0.299,0.55,0.396c0.217,0.096,0.462,0.145,0.735,0.145s0.518-0.049,0.735-0.145
		c0.217-0.098,0.402-0.23,0.555-0.396c0.153-0.166,0.272-0.363,0.355-0.59S174.768,79.486,174.768,79.227L174.768,79.227z
		 M175.488,79.227c0,0.352-0.062,0.68-0.185,0.979c-0.123,0.301-0.295,0.561-0.515,0.781c-0.22,0.219-0.482,0.391-0.785,0.514
		c-0.303,0.123-0.638,0.186-1.005,0.186c-0.36,0-0.692-0.062-0.995-0.186c-0.303-0.123-0.565-0.295-0.785-0.514
		c-0.22-0.221-0.392-0.48-0.515-0.781c-0.123-0.299-0.185-0.627-0.185-0.979c0-0.355,0.062-0.682,0.185-0.98
		c0.123-0.301,0.295-0.561,0.515-0.779c0.22-0.221,0.482-0.393,0.785-0.516c0.303-0.125,0.635-0.186,0.995-0.186
		c0.367,0,0.702,0.061,1.005,0.186c0.303,0.123,0.565,0.295,0.785,0.516c0.22,0.219,0.392,0.479,0.515,0.779
		C175.426,78.545,175.488,78.871,175.488,79.227L175.488,79.227z"/>
	<path fill="#4F384A" class="text-dark" d="M176.818,76.887c0.013,0.125,0.022,0.25,0.025,0.375c0.003,0.123,0.005,0.248,0.005,0.375h0.02
		c0.073-0.127,0.167-0.244,0.28-0.352c0.113-0.105,0.24-0.199,0.38-0.273c0.14-0.078,0.288-0.139,0.445-0.182
		c0.157-0.043,0.312-0.064,0.465-0.064c0.6,0,1.043,0.158,1.33,0.475s0.43,0.77,0.43,1.355v2.971h-0.66v-2.59
		c0-0.521-0.09-0.92-0.27-1.195c-0.18-0.277-0.513-0.416-1-0.416c-0.033,0-0.127,0.014-0.28,0.041
		c-0.153,0.025-0.315,0.1-0.485,0.219c-0.17,0.121-0.322,0.301-0.455,0.541c-0.133,0.24-0.2,0.572-0.2,1v2.4h-0.66v-3.65
		c0-0.127-0.005-0.287-0.015-0.48c-0.01-0.193-0.022-0.377-0.035-0.549H176.818L176.818,76.887z"/>
	
		<line fill="none" stroke="#F5B756" class="public-sector line" stroke-width="0.5" stroke-linejoin="round" stroke-miterlimit="10" x1="105.15" y1="18.132" x2="105.15" y2="0"/>
	<polygon fill-rule="evenodd" clip-rule="evenodd" fill="#F5B756" class="public-sector line" points="105.15,19.661 105.936,17.398 105.15,18.001 
		104.364,17.398 105.15,19.661 	"/>
	
		<line fill="none" stroke="#815B9C" class="ngo line" stroke-width="0.5" stroke-linejoin="round" stroke-miterlimit="10" x1="37.685" y1="64.531" x2="37.685" y2="82.713"/>
	<polygon fill-rule="evenodd" clip-rule="evenodd" fill="#815B9C" class="ngo line" points="37.685,63.004 36.9,65.266 37.685,64.662 38.471,65.266 
		37.685,63.004 	"/>
	
		<line fill="none" stroke="#5FC0B9" class="financial-instituion line" stroke-width="0.5" stroke-linejoin="round" stroke-miterlimit="10" x1="8.831" y1="18.132" x2="8.831" y2="0"/>
	<polygon fill-rule="evenodd" clip-rule="evenodd" fill="#5FC0B9" class="financial-instituion line" points="8.831,19.661 9.616,17.398 8.831,18.001 8.045,17.398 
		8.831,19.661 	"/>
	<polygon fill="#2B7872" stroke="#FFFFFF" stroke-width="0.25" stroke-linejoin="round" stroke-miterlimit="10" points="
		59.83,62.324 119.535,62.324 119.535,20.325 59.83,20.325 59.83,62.324 	"/>
	<polygon fill="#0C2A27" stroke="#FFFFFF" stroke-width="0.25" stroke-linejoin="round" stroke-miterlimit="10" points="
		272.529,62.324 433.125,62.324 433.125,20.325 272.529,20.325 272.529,62.324 	"/>
	<polygon fill="#FFFFFF" class="text-light" points="285.451,38.695 284.031,39.945 283.182,38.965 285.49,37.015 286.891,37.015 286.891,44.096 
		285.451,44.096 285.451,38.695 	"/>
	<path fill="#FFFFFF" class="text-light" d="M291.041,41.564c-0.08,0.021-0.16,0.037-0.24,0.051c-0.08,0.013-0.162,0.02-0.25,0.02
		c-0.332,0-0.637-0.061-0.91-0.18c-0.273-0.12-0.506-0.283-0.699-0.49s-0.344-0.452-0.451-0.735c-0.105-0.283-0.16-0.585-0.16-0.905
		c0-0.367,0.07-0.698,0.205-0.995c0.139-0.297,0.324-0.552,0.561-0.765s0.516-0.378,0.836-0.495s0.666-0.175,1.039-0.175
		c0.367,0,0.713,0.058,1.035,0.175c0.324,0.117,0.604,0.282,0.84,0.495s0.424,0.468,0.561,0.765
		c0.137,0.297,0.205,0.628,0.205,0.995c0,0.253-0.023,0.485-0.07,0.695s-0.107,0.408-0.186,0.595
		c-0.076,0.187-0.166,0.365-0.27,0.536c-0.104,0.17-0.211,0.344-0.324,0.524l-1.551,2.421h-1.83L291.041,41.564L291.041,41.564z
		 M289.83,39.385c0,0.32,0.105,0.585,0.316,0.795c0.209,0.21,0.484,0.315,0.824,0.315s0.615-0.105,0.826-0.315
		c0.209-0.21,0.314-0.475,0.314-0.795c0-0.32-0.105-0.585-0.314-0.795c-0.211-0.21-0.486-0.315-0.826-0.315
		s-0.615,0.105-0.824,0.315C289.936,38.8,289.83,39.065,289.83,39.385L289.83,39.385z"/>
	<path fill="#FFFFFF" class="text-light" d="M297.371,40.145h1.16c0.32,0,0.592-0.033,0.814-0.1c0.225-0.067,0.402-0.155,0.535-0.265
		c0.135-0.11,0.23-0.24,0.291-0.39c0.059-0.15,0.09-0.312,0.09-0.485c0-0.167-0.031-0.325-0.09-0.475
		c-0.061-0.15-0.156-0.282-0.291-0.395c-0.133-0.113-0.311-0.202-0.535-0.265c-0.223-0.063-0.494-0.095-0.814-0.095h-1.16V40.145
		L297.371,40.145z M296.65,37.015h2.061c0.721,0,1.289,0.157,1.705,0.47s0.625,0.787,0.625,1.42s-0.209,1.108-0.625,1.425
		c-0.416,0.317-0.984,0.475-1.705,0.475h-1.34v3.291h-0.721V37.015L296.65,37.015z"/>
	<path fill="#FFFFFF" class="text-light" d="M301.721,40.875c0-0.207-0.004-0.417-0.016-0.63c-0.01-0.213-0.018-0.49-0.023-0.83h0.648v0.87h0.021
		c0.047-0.127,0.113-0.248,0.199-0.365c0.088-0.117,0.191-0.222,0.314-0.315c0.125-0.093,0.268-0.168,0.432-0.225
		s0.348-0.085,0.555-0.085c0.186,0,0.35,0.02,0.49,0.06l-0.131,0.65c-0.086-0.033-0.213-0.05-0.381-0.05
		c-0.252,0-0.469,0.048-0.648,0.145c-0.18,0.097-0.33,0.22-0.451,0.37c-0.119,0.15-0.207,0.312-0.264,0.485
		c-0.057,0.173-0.086,0.34-0.086,0.5v2.641h-0.66V40.875L301.721,40.875z"/>
	<path fill="#FFFFFF" class="text-light" d="M305.432,37.615c0,0.14-0.051,0.255-0.15,0.345c-0.1,0.09-0.211,0.135-0.33,0.135
		c-0.121,0-0.23-0.045-0.33-0.135c-0.1-0.09-0.15-0.205-0.15-0.345c0-0.14,0.051-0.255,0.15-0.345c0.1-0.09,0.209-0.135,0.33-0.135
		c0.119,0,0.23,0.045,0.33,0.135C305.381,37.36,305.432,37.475,305.432,37.615L305.432,37.615z M305.281,44.096h-0.66v-4.681h0.66
		V44.096L305.281,44.096z"/>
	<polygon fill="#FFFFFF" class="text-light" points="308.432,44.096 307.691,44.096 305.791,39.415 306.58,39.415 308.07,43.355 308.092,43.355 
		309.58,39.415 310.33,39.415 308.432,44.096 	"/>
	<path fill="#FFFFFF" class="text-light" d="M313.352,41.765c-0.166,0-0.375,0.009-0.625,0.025s-0.49,0.057-0.721,0.12
		c-0.23,0.062-0.426,0.162-0.59,0.295c-0.162,0.133-0.244,0.316-0.244,0.549c0,0.154,0.031,0.285,0.094,0.396
		c0.064,0.109,0.148,0.199,0.256,0.27s0.225,0.119,0.355,0.15c0.129,0.029,0.262,0.045,0.395,0.045c0.24,0,0.449-0.041,0.625-0.121
		s0.324-0.188,0.445-0.324c0.119-0.137,0.209-0.297,0.264-0.48c0.057-0.184,0.086-0.377,0.086-0.584v-0.341H313.352L313.352,41.765z
		 M313.691,41.225v-0.119c0-0.808-0.4-1.21-1.201-1.21c-0.545,0-1.021,0.183-1.43,0.55l-0.4-0.47c0.441-0.453,1.102-0.68,1.98-0.68
		c0.227,0,0.445,0.033,0.656,0.1c0.209,0.067,0.391,0.168,0.545,0.305c0.152,0.137,0.275,0.308,0.369,0.515s0.141,0.453,0.141,0.74
		v2.09c0,0.18,0.008,0.367,0.025,0.564c0.016,0.197,0.033,0.359,0.055,0.486h-0.641c-0.02-0.113-0.035-0.238-0.045-0.371
		s-0.016-0.264-0.016-0.391h-0.02c-0.193,0.314-0.422,0.539-0.686,0.676c-0.262,0.137-0.584,0.205-0.965,0.205
		c-0.205,0-0.406-0.027-0.6-0.086c-0.193-0.057-0.365-0.143-0.516-0.26c-0.148-0.117-0.27-0.26-0.359-0.43s-0.135-0.367-0.135-0.594
		c0-0.381,0.1-0.68,0.295-0.896c0.197-0.217,0.443-0.377,0.74-0.484s0.613-0.173,0.949-0.2c0.338-0.026,0.645-0.04,0.926-0.04
		H313.691L313.691,41.225z"/>
	<path fill="#FFFFFF" class="text-light" d="M317.801,40.015h-1.35v2.761c0,0.172,0.018,0.314,0.051,0.424c0.033,0.111,0.078,0.195,0.139,0.256
		s0.133,0.102,0.215,0.125c0.084,0.023,0.176,0.035,0.275,0.035c0.113,0,0.23-0.018,0.35-0.051c0.121-0.033,0.23-0.076,0.33-0.129
		l0.031,0.609c-0.246,0.113-0.543,0.17-0.891,0.17c-0.127,0-0.258-0.018-0.395-0.051c-0.137-0.031-0.262-0.096-0.375-0.189
		c-0.113-0.092-0.207-0.221-0.281-0.379c-0.072-0.16-0.109-0.371-0.109-0.631v-2.95h-0.99v-0.6h0.99v-1.32h0.66v1.32h1.35V40.015
		L317.801,40.015z"/>
	<path fill="#FFFFFF" class="text-light" d="M321.842,41.395c0-0.447-0.135-0.808-0.4-1.084c-0.266-0.277-0.641-0.415-1.121-0.415
		c-0.213,0-0.42,0.042-0.619,0.125s-0.375,0.195-0.525,0.335c-0.15,0.14-0.27,0.3-0.359,0.48c-0.09,0.181-0.135,0.366-0.135,0.56
		H321.842L321.842,41.395z M318.66,41.936c0.021,0.232,0.078,0.453,0.17,0.66c0.096,0.207,0.219,0.385,0.371,0.533
		c0.154,0.15,0.33,0.27,0.529,0.355c0.201,0.088,0.418,0.131,0.65,0.131c0.354,0,0.658-0.082,0.916-0.246
		c0.256-0.162,0.451-0.352,0.584-0.564l0.51,0.42c-0.279,0.354-0.588,0.607-0.924,0.76c-0.336,0.154-0.699,0.23-1.086,0.23
		c-0.346,0-0.668-0.062-0.965-0.186s-0.551-0.295-0.766-0.514c-0.213-0.221-0.381-0.48-0.504-0.781
		c-0.123-0.299-0.186-0.627-0.186-0.979s0.061-0.681,0.18-0.98c0.121-0.3,0.287-0.56,0.5-0.78c0.215-0.22,0.465-0.392,0.75-0.515
		c0.287-0.123,0.598-0.185,0.93-0.185c0.355,0,0.67,0.063,0.951,0.19c0.279,0.127,0.514,0.295,0.705,0.505
		c0.189,0.21,0.334,0.457,0.434,0.74c0.102,0.283,0.15,0.584,0.15,0.905v0.3L318.66,41.936L318.66,41.936z"/>
	<path fill="#FFFFFF" class="text-light" d="M329.131,38.185c-0.312-0.46-0.77-0.69-1.369-0.69c-0.188,0-0.371,0.025-0.551,0.075
		s-0.342,0.127-0.484,0.23c-0.145,0.103-0.258,0.237-0.346,0.4c-0.086,0.163-0.129,0.355-0.129,0.575c0,0.32,0.09,0.568,0.27,0.745
		c0.18,0.177,0.404,0.322,0.67,0.435c0.266,0.113,0.559,0.215,0.875,0.305c0.316,0.09,0.609,0.21,0.875,0.36
		c0.266,0.15,0.49,0.348,0.67,0.595s0.27,0.583,0.27,1.01c0,0.32-0.068,0.607-0.205,0.865s-0.316,0.473-0.539,0.645
		c-0.225,0.174-0.475,0.307-0.75,0.4c-0.277,0.094-0.557,0.141-0.836,0.141c-0.434,0-0.846-0.082-1.234-0.246
		c-0.391-0.162-0.721-0.432-0.996-0.805l0.65-0.471c0.154,0.262,0.367,0.469,0.641,0.625c0.273,0.158,0.596,0.236,0.969,0.236
		c0.182,0,0.361-0.029,0.541-0.086s0.342-0.139,0.484-0.25c0.145-0.109,0.262-0.244,0.355-0.404s0.141-0.344,0.141-0.551
		c0-0.246-0.051-0.451-0.156-0.614c-0.102-0.163-0.24-0.3-0.41-0.41s-0.361-0.202-0.58-0.274c-0.215-0.074-0.439-0.147-0.67-0.221
		c-0.229-0.073-0.453-0.157-0.67-0.25c-0.215-0.093-0.41-0.212-0.58-0.355c-0.17-0.143-0.305-0.323-0.408-0.54
		c-0.104-0.217-0.156-0.488-0.156-0.815c0-0.34,0.064-0.637,0.195-0.89c0.131-0.253,0.305-0.463,0.52-0.63
		c0.217-0.167,0.463-0.29,0.736-0.37c0.273-0.08,0.553-0.12,0.84-0.12c0.398,0,0.764,0.063,1.09,0.19s0.629,0.35,0.91,0.67
		L329.131,38.185L329.131,38.185z"/>
	<path fill="#FFFFFF" class="text-light" d="M334.24,41.395c0-0.447-0.133-0.808-0.398-1.084c-0.268-0.277-0.641-0.415-1.121-0.415
		c-0.213,0-0.42,0.042-0.619,0.125c-0.201,0.083-0.375,0.195-0.525,0.335c-0.15,0.14-0.27,0.3-0.359,0.48
		c-0.09,0.181-0.137,0.366-0.137,0.56H334.24L334.24,41.395z M331.061,41.936c0.02,0.232,0.078,0.453,0.17,0.66
		c0.094,0.207,0.217,0.385,0.371,0.533c0.154,0.15,0.33,0.27,0.529,0.355c0.199,0.088,0.418,0.131,0.65,0.131
		c0.354,0,0.658-0.082,0.914-0.246c0.258-0.162,0.453-0.352,0.586-0.564l0.51,0.42c-0.279,0.354-0.588,0.607-0.926,0.76
		c-0.336,0.154-0.697,0.23-1.084,0.23c-0.346,0-0.668-0.062-0.965-0.186s-0.551-0.295-0.766-0.514
		c-0.213-0.221-0.381-0.48-0.504-0.781c-0.123-0.299-0.186-0.627-0.186-0.979s0.061-0.681,0.18-0.98c0.119-0.3,0.287-0.56,0.5-0.78
		c0.215-0.22,0.465-0.392,0.75-0.515c0.287-0.123,0.598-0.185,0.93-0.185c0.354,0,0.67,0.063,0.951,0.19
		c0.279,0.127,0.514,0.295,0.705,0.505c0.189,0.21,0.334,0.457,0.434,0.74c0.1,0.283,0.15,0.584,0.15,0.905v0.3L331.061,41.936
		L331.061,41.936z"/>
	<path fill="#FFFFFF" class="text-light" d="M339.07,40.515c-0.111-0.173-0.27-0.32-0.475-0.44c-0.203-0.12-0.436-0.18-0.695-0.18
		c-0.271-0.007-0.518,0.037-0.734,0.13c-0.217,0.093-0.4,0.223-0.555,0.39c-0.152,0.167-0.27,0.365-0.35,0.595
		c-0.08,0.23-0.121,0.479-0.121,0.745s0.041,0.515,0.121,0.745s0.197,0.428,0.35,0.596c0.154,0.166,0.338,0.297,0.555,0.389
		c0.217,0.094,0.463,0.137,0.734,0.131c0.26,0,0.492-0.061,0.695-0.18c0.205-0.121,0.363-0.268,0.475-0.441l0.541,0.41
		c-0.232,0.273-0.496,0.475-0.791,0.605c-0.293,0.131-0.6,0.197-0.92,0.205c-0.379,0.008-0.723-0.053-1.029-0.176
		s-0.568-0.295-0.785-0.514c-0.217-0.221-0.381-0.482-0.494-0.785s-0.17-0.633-0.17-0.985s0.057-0.683,0.17-0.985
		c0.113-0.303,0.277-0.565,0.494-0.785c0.217-0.22,0.479-0.392,0.785-0.515s0.65-0.182,1.029-0.175
		c0.32,0.007,0.627,0.075,0.92,0.205c0.295,0.13,0.559,0.332,0.791,0.605L339.07,40.515L339.07,40.515z"/>
	<path fill="#FFFFFF" class="text-light" d="M342.4,40.015h-1.35v2.761c0,0.172,0.018,0.314,0.051,0.424c0.033,0.111,0.08,0.195,0.139,0.256
		c0.061,0.061,0.133,0.102,0.215,0.125c0.084,0.023,0.176,0.035,0.275,0.035c0.115,0,0.23-0.018,0.35-0.051
		c0.121-0.033,0.23-0.076,0.33-0.129l0.031,0.609c-0.246,0.113-0.543,0.17-0.891,0.17c-0.125,0-0.258-0.018-0.395-0.051
		c-0.137-0.031-0.262-0.096-0.375-0.189c-0.113-0.092-0.207-0.221-0.279-0.379c-0.074-0.16-0.111-0.371-0.111-0.631v-2.95h-0.99
		v-0.6h0.99v-1.32h0.66v1.32h1.35V40.015L342.4,40.015z"/>
	<path fill="#FFFFFF" class="text-light" d="M346.811,41.755c0-0.261-0.041-0.503-0.125-0.729c-0.082-0.228-0.201-0.423-0.355-0.59
		c-0.152-0.167-0.338-0.298-0.555-0.395c-0.215-0.097-0.461-0.145-0.734-0.145s-0.518,0.048-0.734,0.145
		c-0.217,0.097-0.4,0.228-0.551,0.395s-0.266,0.363-0.35,0.59c-0.084,0.227-0.125,0.469-0.125,0.729s0.041,0.503,0.125,0.729
		s0.199,0.424,0.35,0.59c0.15,0.168,0.334,0.299,0.551,0.396c0.217,0.096,0.461,0.145,0.734,0.145s0.52-0.049,0.734-0.145
		c0.217-0.098,0.402-0.229,0.555-0.396c0.154-0.166,0.273-0.363,0.355-0.59C346.77,42.258,346.811,42.016,346.811,41.755
		L346.811,41.755z M347.531,41.755c0,0.353-0.061,0.681-0.186,0.979c-0.123,0.301-0.295,0.561-0.516,0.781
		c-0.219,0.219-0.48,0.391-0.783,0.514c-0.305,0.123-0.639,0.186-1.006,0.186c-0.359,0-0.691-0.062-0.994-0.186
		c-0.305-0.123-0.566-0.295-0.785-0.514c-0.221-0.221-0.393-0.48-0.516-0.781c-0.123-0.299-0.186-0.627-0.186-0.979
		s0.062-0.681,0.186-0.98c0.123-0.3,0.295-0.56,0.516-0.78c0.219-0.22,0.48-0.392,0.785-0.515c0.303-0.123,0.635-0.185,0.994-0.185
		c0.367,0,0.701,0.062,1.006,0.185c0.303,0.123,0.564,0.295,0.783,0.515c0.221,0.22,0.393,0.48,0.516,0.78
		C347.471,41.074,347.531,41.402,347.531,41.755L347.531,41.755z"/>
	<path fill="#FFFFFF" class="text-light" d="M348.301,40.875c0-0.207-0.004-0.417-0.016-0.63c-0.01-0.213-0.018-0.49-0.023-0.83h0.648v0.87h0.021
		c0.047-0.127,0.113-0.248,0.199-0.365c0.088-0.117,0.191-0.222,0.314-0.315c0.125-0.093,0.268-0.168,0.432-0.225
		c0.162-0.057,0.348-0.085,0.555-0.085c0.186,0,0.35,0.02,0.49,0.06l-0.131,0.65c-0.086-0.033-0.213-0.05-0.381-0.05
		c-0.252,0-0.469,0.048-0.648,0.145c-0.182,0.097-0.33,0.22-0.451,0.37c-0.119,0.15-0.207,0.312-0.264,0.485
		c-0.057,0.173-0.086,0.34-0.086,0.5v2.641h-0.66V40.875L348.301,40.875z"/>
</g>
</svg>
