<svg xmlns="http://www.w3.org/2000/svg" width="432.5" height="203.47" viewBox="0 0 432.5 203.474" class="figure figure6"><path fill="#0A1A1E" class="energy" stroke="#FFF" stroke-width=".5" stroke-linejoin="round" stroke-miterlimit="10" d="M224.07 72.9h208.18v-37H224.07v37z"/><path fill="#103239" class="water" stroke="#FFF" stroke-width=".5" stroke-linejoin="round" stroke-miterlimit="10" d="M129.63 72.9h94.44v-37h-94.44v37z"/><path fill="#17505C" class="health" stroke="#FFF" stroke-width=".5" stroke-linejoin="round" stroke-miterlimit="10" d="M66.9 72.9h62.72v-37H66.9v37z"/><path fill="#216A79" class="sanitation" stroke="#FFF" stroke-width=".5" stroke-linejoin="round" stroke-miterlimit="10" d="M31.74 72.9h35.34v-37H31.74v37z"/><path fill="#347D8C" class="solid-waste" stroke="#FFF" stroke-width=".5" stroke-linejoin="round" stroke-miterlimit="10" d="M7.77 72.9h23.97v-37H7.77v37z"/><path fill="#60ABBB" class="telecom" stroke="#FFF" stroke-width=".5" stroke-linejoin="round" stroke-miterlimit="10" d="M.25 72.9h3.82v-37H.25v37z"/><path fill="#4191A1" class="education" stroke="#FFF" stroke-width=".5" stroke-linejoin="round" stroke-miterlimit="10" d="M4 72.9h3.82v-37H4v37z"/><path fill="#301114" class="africa" stroke="#FFF" stroke-width=".5" stroke-linejoin="round" stroke-miterlimit="10" d="M188.53 185.93h243.72v-37H188.53v37z"/><path fill="#4C161D" class="south-asia" stroke="#FFF" stroke-width=".5" stroke-linejoin="round" stroke-miterlimit="10" d="M106.32 185.93h82.2v-37h-82.2v37z"/><path fill="#7E1429" class="east-asia" stroke="#FFF" stroke-width=".5" stroke-linejoin="round" stroke-miterlimit="10" d="M62.98 185.93h43.34v-37H62.98v37z"/><path fill="#A11C30" class="middle-east" stroke="#FFF" stroke-width=".5" stroke-linejoin="round" stroke-miterlimit="10" d="M32.03 185.93h30.95v-37H32.03v37z"/><path fill="#D21F3A" class="latin-america" stroke="#FFF" stroke-width=".5" stroke-linejoin="round" stroke-miterlimit="10" d="M3.9 185.93h28.13v-37H3.9v37z"/><path fill="#EF3A5A" class="europe" stroke="#FFF" stroke-width=".5" stroke-linejoin="round" stroke-miterlimit="10" d="M.25 185.93h3.7v-37H.24v37z"/><path fill="#FFF" class="text-light" d="M236.43 56.23h-2.48v-1l2.32-3.53h1.3v3.52h.74v1h-.72v1.14h-1.15v-1.13zm0-2.96h-.02l-1.25 1.95h1.27v-1.95zM239.83 53.93h.4c.1 0 .2 0 .32-.02.1 0 .2-.04.3-.08.08-.05.15-.1.2-.2.05-.08.08-.2.08-.32 0-.17-.07-.3-.2-.42-.14-.12-.3-.17-.5-.17s-.35.06-.47.16-.2.23-.24.38l-1.32-.28c.07-.24.16-.45.3-.62.12-.18.27-.32.45-.42.17-.1.37-.2.58-.24.22-.05.45-.08.7-.08.24 0 .48.03.7.1.24.06.45.15.62.28.18.13.32.3.42.5.1.2.16.43.16.7 0 .3-.08.58-.25.8-.16.23-.4.38-.72.44v.02c.17.03.32.08.45.16.15.08.25.17.35.3.1.1.16.24.2.4.05.14.08.3.08.46 0 .3-.06.53-.17.75-.1.22-.25.4-.44.54-.18.14-.4.25-.65.32-.24.07-.5.1-.78.1-.52 0-.96-.12-1.32-.35-.37-.23-.6-.6-.73-1.1l1.27-.3c.04.2.13.36.26.48s.32.18.58.18c.26 0 .45-.07.58-.2.12-.14.2-.32.2-.53 0-.16-.05-.3-.1-.37-.08-.1-.17-.16-.27-.2-.1-.04-.23-.07-.36-.08h-.67v-1.05zM246.5 55.87c0-.22.04-.43.12-.62s.2-.36.34-.5.3-.26.5-.34c.2-.07.4-.12.6-.12s.44.04.63.13c.18.1.35.2.5.35.13.14.24.3.33.5s.12.4.12.62c0 .22-.04.42-.12.62-.1.18-.2.35-.34.5-.15.14-.32.25-.5.34-.2.08-.4.12-.63.12s-.42-.04-.6-.12c-.2-.1-.37-.2-.5-.34s-.27-.32-.35-.5c-.08-.2-.12-.4-.12-.63zm2.33 0c0-.22-.07-.4-.22-.55-.13-.15-.3-.22-.53-.22s-.4.07-.54.22-.22.33-.22.55c0 .22.1.4.23.55.15.15.33.22.54.22s.4-.07.54-.22c.16-.15.23-.34.23-.55zm-6.36-2.68c0-.23.04-.44.13-.63.08-.2.2-.36.33-.5.15-.15.3-.26.5-.34.2-.08.4-.13.62-.13s.42.04.62.13c.2.08.36.2.5.34s.25.3.33.5c.1.2.13.4.13.62 0 .2-.04.4-.13.6-.08.2-.2.36-.33.5s-.3.27-.5.35c-.2.08-.4.12-.62.12s-.42-.04-.62-.12c-.2-.08-.35-.2-.5-.34-.14-.14-.25-.3-.33-.5-.1-.2-.13-.4-.13-.6zm2.34 0c0-.23-.06-.4-.2-.56-.16-.15-.34-.22-.55-.22s-.4.07-.54.22-.2.33-.2.55c0 .2.06.38.2.53.16.15.34.23.55.23s.4-.08.54-.23c.14-.15.2-.33.2-.54zm2.55-1.76l.68.38-3.3 5.8-.6-.35 3.22-5.83zM252.46 56.84h3.03v.52h-3.62V51.7h3.5v.53h-2.92v1.93h2.74v.52h-2.74v2.16M256.54 53.62c0 .1 0 .2.02.3v.3h.02c.06-.1.13-.2.22-.28.1-.1.2-.16.3-.22.12-.06.24-.1.36-.14.13-.04.25-.06.37-.06.48 0 .84.13 1.07.38.23.26.34.62.34 1.1v2.36h-.53V55.3c0-.42-.06-.74-.2-.96-.15-.23-.4-.34-.8-.34-.03 0-.1 0-.23.04-.12.02-.25.08-.38.17-.15.1-.27.25-.38.44-.1.2-.16.46-.16.8v1.92h-.53v-2.92-.38l-.03-.44h.54zM263 55.2c0-.35-.1-.64-.33-.86-.2-.23-.5-.34-.9-.34-.16 0-.33.04-.5.1-.15.07-.3.16-.4.27s-.22.24-.3.4-.1.28-.1.43H263zm-2.55.44c.02.18.06.36.14.52.06.17.16.3.28.43.13.1.27.2.43.28.17.06.34.1.53.1.28 0 .52-.07.73-.2.2-.13.36-.28.47-.45l.4.34c-.22.28-.47.48-.74.6-.27.13-.56.2-.87.2-.28 0-.54-.06-.77-.16-.24-.1-.44-.22-.62-.4-.17-.18-.3-.38-.4-.62-.1-.24-.15-.5-.15-.8 0-.27.04-.53.14-.77.1-.23.23-.44.4-.62.17-.17.37-.3.6-.4.23-.1.47-.16.74-.16.28 0 .54.05.76.16.22.1.4.23.56.4.16.17.27.36.35.6.08.22.12.46.12.72v.24h-3.12zM264.2 54.8c0-.18-.02-.35-.03-.52 0-.17 0-.4-.02-.66h.52v.7h.02c.03-.1.08-.2.15-.3.07-.1.15-.17.25-.25.1-.07.22-.13.35-.18.13-.05.28-.08.44-.08.14 0 .27.02.38.05l-.1.52c-.07-.03-.17-.05-.3-.05-.2 0-.38.04-.53.12-.14.08-.26.17-.36.3-.1.1-.17.24-.22.38-.04.14-.06.27-.06.4v2.1h-.53V54.8zM266.63 55.44c0 .2.03.4.1.56.07.17.17.32.3.45.13.13.27.24.44.32.17.07.35.1.55.1.2 0 .37-.02.55-.1.17-.06.32-.16.46-.28.13-.14.23-.3.3-.47.08-.17.1-.37.1-.6 0-.2-.03-.37-.1-.54-.06-.2-.15-.34-.27-.47-.13-.13-.27-.23-.45-.3-.17-.1-.36-.13-.58-.13-.2 0-.38.04-.55.12-.17.08-.3.18-.44.3-.12.14-.22.3-.3.47-.07.16-.1.35-.1.54zm-.1 2.68c.15.2.35.37.6.5.25.12.53.18.83.18.27 0 .5-.03.68-.1.2-.1.34-.2.45-.33.1-.13.2-.3.24-.47.05-.18.08-.37.08-.57v-.67h-.02c-.17.26-.38.44-.62.54-.25.1-.5.16-.78.16-.27 0-.53-.04-.76-.14-.24-.1-.45-.23-.62-.4-.18-.16-.32-.37-.42-.6-.1-.24-.15-.5-.15-.76s.05-.53.14-.76c.1-.24.22-.44.4-.62.16-.17.36-.3.6-.4.22-.1.48-.16.76-.16.1 0 .23 0 .35.04.14.02.26.05.4.1.1.06.24.13.36.23.12.08.24.2.34.34h.02v-.62h.53v3.7c0 .2-.03.43-.08.66-.05.23-.15.44-.3.63-.14.2-.35.36-.6.5-.27.12-.6.18-1.03.18-.37 0-.7-.06-1-.18-.3-.12-.56-.3-.8-.57l.4-.4zM272.12 56.72l1.15-3.1h.64l-1.86 4.72c-.12.3-.26.52-.43.7-.17.16-.42.24-.74.24h-.24c-.1 0-.17-.03-.25-.05l.06-.52c.1.07.24.1.4.1.18 0 .33-.06.44-.17.1-.12.2-.3.28-.5l.27-.72-1.54-3.78h.67l1.17 3.1zM138.48 56.3l2.2-1.97c.1-.1.22-.2.33-.34.13-.14.18-.3.18-.46 0-.2-.07-.34-.2-.45-.14-.12-.3-.18-.5-.18-.22 0-.4.07-.52.2-.12.15-.2.32-.2.52l-1.2-.08c0-.3.07-.55.17-.77.1-.22.25-.4.43-.55.17-.14.38-.25.62-.32s.5-.1.77-.1c.26 0 .5.03.72.1.22.07.42.18.58.32.17.14.3.32.4.53.1.2.13.46.13.74 0 .18-.02.35-.05.5-.04.14-.1.28-.16.4-.07.12-.15.23-.24.33l-.3.3-1.7 1.47h2.5v1.06h-3.95V56.3zM145.1 56.44h-2.5v-1l2.33-3.53h1.3v3.53h.74v1h-.73v1.15h-1.15v-1.14zm0-2.96h-.03l-1.26 1.96h1.3v-1.96zM150.82 56.08c0-.22.04-.42.13-.6.08-.2.2-.37.33-.52.14-.14.3-.25.5-.34.2-.08.4-.12.62-.12.22 0 .42.04.6.12.2.1.37.2.5.34.16.15.27.32.35.5.08.2.12.4.12.62 0 .22-.04.43-.12.62-.08.2-.2.37-.34.5-.13.15-.3.27-.5.35-.18.08-.38.13-.6.13-.22 0-.43-.05-.62-.13-.2-.08-.36-.2-.5-.34-.14-.13-.25-.3-.33-.5-.1-.2-.13-.4-.13-.62zm2.34 0c0-.2-.08-.4-.22-.54-.15-.15-.33-.22-.54-.22-.22 0-.4.07-.54.22-.15.15-.22.33-.22.54 0 .22.07.4.22.56.14.14.32.22.54.22.2 0 .4-.08.54-.23.14-.15.22-.33.22-.55zm-6.36-2.68c0-.22.04-.42.12-.6.08-.2.2-.37.34-.52.14-.14.3-.25.5-.34.2-.08.4-.12.6-.12.23 0 .44.04.63.12.18.1.35.2.5.34.13.15.24.32.33.5.08.2.12.4.12.62 0 .22-.04.43-.12.62-.1.2-.2.36-.34.5-.15.15-.32.26-.5.34-.2.1-.4.13-.63.13-.2 0-.42-.05-.6-.14-.2-.08-.37-.2-.5-.34-.15-.14-.27-.3-.35-.5-.08-.2-.12-.4-.12-.62zm2.33 0c0-.2-.07-.4-.22-.54-.13-.15-.3-.22-.53-.22-.2 0-.4.07-.54.22s-.22.33-.22.54c0 .22.1.4.23.55.15.15.33.22.54.22.22 0 .4-.07.54-.22.16-.15.23-.33.23-.55zm2.55-1.74l.67.38-3.3 5.8-.6-.35 3.23-5.84zM157.44 56.76l1.44-4.84h.7l1.4 4.84h.03l1.35-4.84h.64l-1.68 5.66h-.67l-1.43-4.85-1.44 4.85h-.67l-1.66-5.66h.64l1.36 4.84M165 55.72c-.14 0-.3 0-.5.02-.2 0-.4.04-.58.1-.18.04-.34.12-.47.23-.13.1-.2.25-.2.44 0 .13.03.23.08.32.05.1.12.16.2.22.1.06.18.1.3.12s.2.04.3.04c.2 0 .36-.04.5-.1.14-.06.26-.15.36-.26.1-.1.16-.24.2-.38.05-.15.07-.3.07-.47v-.28H165zm.27-.44v-.1c0-.64-.32-.96-.96-.96-.43 0-.8.15-1.13.44l-.32-.38c.35-.36.88-.54 1.58-.54.18 0 .36.03.52.08.17.05.32.13.44.24.1.1.2.25.3.42.06.16.1.36.1.6v1.66c0 .14 0 .3.02.45 0 .15.03.28.04.38h-.5c-.03-.1-.04-.2-.05-.3v-.3c-.17.24-.35.42-.56.53-.2.12-.47.18-.77.18-.17 0-.33-.03-.48-.07-.17-.04-.3-.1-.43-.2-.12-.1-.2-.2-.28-.34-.1-.14-.12-.3-.12-.48 0-.3.08-.54.23-.72.17-.17.37-.3.6-.38.24-.1.5-.14.77-.16.27-.03.5-.04.74-.04h.27zM168.56 54.31h-1.08v2.22c0 .14 0 .25.04.34.02.1.06.16.1.2.06.05.1.1.18.1.07.03.14.04.22.04.1 0 .2-.02.28-.05.1-.02.2-.06.27-.1l.02.5c-.2.08-.45.13-.72.13-.1 0-.2-.02-.32-.04-.1-.03-.2-.08-.3-.16-.1-.07-.16-.17-.22-.3-.06-.13-.1-.3-.1-.5v-2.36h-.78v-.48h.8v-1.06h.52v1.06h1.08v.49zM171.8 55.42c0-.36-.12-.65-.33-.87-.2-.22-.5-.33-.9-.33-.17 0-.33.03-.5.1-.15.06-.3.15-.4.27-.13.1-.23.23-.3.37-.07.14-.1.3-.1.45h2.52zm-2.55.43c0 .2.06.36.13.53.08.16.18.3.3.43s.26.22.42.3c.16.06.34.1.52.1.28 0 .53-.07.73-.2.2-.13.37-.28.47-.45l.4.33c-.2.3-.46.5-.73.6-.28.13-.57.2-.88.2-.28 0-.53-.05-.77-.15-.24-.1-.44-.24-.6-.4-.18-.2-.32-.4-.42-.64-.1-.25-.14-.5-.14-.8 0-.28.03-.54.13-.78s.23-.44.4-.62.37-.3.6-.4c.23-.1.48-.16.74-.16.3 0 .54.05.76.15.23.1.42.23.57.4s.27.36.35.6c.08.2.12.46.12.7v.25h-3.12zM172.98 55v-.5c-.02-.17-.02-.4-.03-.66h.52v.7h.02c.02-.1.08-.2.15-.3.06-.1.15-.18.25-.25.1-.1.2-.15.34-.2.13-.04.28-.06.45-.06.13 0 .27 0 .38.05l-.1.5c-.08-.02-.18-.03-.3-.03-.2 0-.4.03-.53.1-.14.1-.26.2-.36.3-.1.13-.18.26-.22.4-.05.13-.07.27-.07.4v2.1H173V55zM75.94 53.26l-1.13 1-.67-.78 1.84-1.56h1.13v5.66h-1.16v-4.32M80.27 53.94l.2-.04.2-.02c.26 0 .5.05.72.15.2.1.4.22.55.4.16.15.28.35.36.58.1.23.14.48.14.73 0 .3-.06.56-.17.8-.1.23-.25.44-.44.6-.2.18-.42.3-.68.4-.25.1-.53.15-.82.15-.3 0-.58-.05-.84-.14-.26-.1-.48-.23-.67-.4-.2-.17-.34-.38-.45-.6-.1-.25-.16-.52-.16-.8 0-.2 0-.4.05-.57.04-.16.1-.32.15-.47l.2-.43c.1-.13.18-.27.27-.42l1.23-1.93h1.47l-1.33 2.02zm.97 1.74c0-.25-.08-.46-.25-.63s-.4-.25-.67-.25-.5.08-.66.25-.25.38-.25.63.08.47.25.64.4.25.66.25.5-.08.66-.25.24-.38.24-.64zM86.38 56.08c0-.22.04-.42.12-.6.08-.2.2-.37.33-.52s.3-.25.5-.34c.2-.08.4-.12.62-.12.22 0 .42.04.62.12.2.1.36.2.5.34s.25.32.33.5c.1.2.13.4.13.62 0 .22-.04.43-.13.62-.08.2-.2.37-.33.5s-.3.27-.5.35c-.2.08-.4.13-.62.13-.22 0-.42-.05-.62-.13s-.35-.2-.5-.34-.25-.3-.33-.5c-.08-.2-.13-.4-.13-.62zm2.33 0c0-.2-.06-.4-.2-.54-.16-.15-.34-.22-.55-.22-.2 0-.4.07-.54.22s-.2.33-.2.54c0 .22.06.4.2.56.16.14.34.22.55.22.2 0 .4-.08.54-.23.14-.15.2-.33.2-.55zm-6.35-2.68c0-.22.04-.42.13-.6s.2-.37.33-.52.32-.25.5-.34c.2-.08.4-.12.63-.12.22 0 .42.04.6.12.2.1.37.2.5.34s.27.32.35.5.12.4.12.62c0 .22-.04.43-.12.62s-.2.36-.34.5-.3.26-.5.34c-.2.1-.4.13-.6.13-.23 0-.44-.05-.63-.14-.18-.08-.35-.2-.5-.34s-.24-.3-.33-.5-.12-.4-.12-.62zm2.34 0c0-.2-.1-.4-.23-.54-.15-.15-.33-.22-.54-.22-.22 0-.4.07-.54.22-.16.15-.23.33-.23.54 0 .22.07.4.22.55.13.15.3.22.53.22.2 0 .4-.07.54-.22s.22-.33.22-.55zm2.53-1.74l.67.38-3.3 5.8-.6-.35 3.23-5.84zM91.76 51.92h.57v2.45h3.1v-2.45H96v5.66h-.58V54.9h-3.1l.02 2.68h-.58v-5.66M99.86 55.42c0-.36-.1-.65-.32-.87-.22-.22-.52-.33-.9-.33-.17 0-.34.03-.5.1-.16.06-.3.15-.42.27-.12.1-.2.23-.28.37-.08.14-.1.3-.1.45h2.52zm-2.55.43c.03.2.07.36.15.53.07.16.17.3.3.43s.26.22.42.3c.16.06.33.1.52.1.27 0 .5-.07.72-.2.2-.13.36-.28.47-.45l.4.33c-.23.3-.48.5-.74.6-.27.13-.56.2-.87.2-.3 0-.55-.05-.78-.15-.24-.1-.45-.24-.62-.4-.17-.2-.3-.4-.4-.64-.1-.25-.15-.5-.15-.8 0-.28.05-.54.15-.78.1-.24.22-.44.4-.62.17-.18.37-.3.6-.4.22-.1.47-.16.74-.16.28 0 .54.05.76.15.22.1.4.23.56.4.16.16.27.36.35.6.1.2.13.46.13.7v.25H97.3zM103.12 55.72c-.13 0-.3 0-.5.02-.2 0-.4.04-.58.1-.18.04-.34.12-.47.23-.13.1-.2.25-.2.44 0 .13.03.23.08.32.05.1.12.16.2.22.1.06.18.1.3.12s.2.04.3.04c.2 0 .36-.04.5-.1s.27-.15.36-.26c.1-.1.18-.24.22-.38.05-.15.07-.3.07-.47v-.28h-.28zm.27-.44v-.1c0-.64-.33-.96-.97-.96-.44 0-.82.15-1.14.44l-.33-.38c.35-.36.88-.54 1.58-.54.18 0 .36.03.53.08.16.05.3.13.43.24.13.1.23.25.3.42.08.16.12.36.12.6v1.66c0 .14 0 .3.02.45 0 .15.03.28.04.38h-.5c-.02-.1-.04-.2-.04-.3l-.02-.3c-.17.24-.35.42-.56.53-.2.12-.47.18-.77.18-.18 0-.34-.03-.5-.07-.15-.04-.28-.1-.4-.2-.13-.1-.22-.2-.3-.34-.07-.14-.1-.3-.1-.48 0-.3.08-.54.23-.72.16-.17.36-.3.6-.38.23-.1.5-.14.76-.16.26-.03.5-.04.73-.04h.26zM105.4 57.58h-.54v-6.05h.53v6.05M108.2 54.31h-1.08v2.22c0 .14 0 .25.04.34.03.1.06.16.1.2.06.05.12.1.18.1.07.03.14.04.22.04.1 0 .2-.02.28-.05.1-.02.2-.06.27-.1l.03.5c-.2.08-.43.13-.7.13-.1 0-.22-.02-.33-.04-.1-.03-.2-.08-.3-.16-.1-.07-.16-.17-.22-.3-.06-.13-.1-.3-.1-.5v-2.36h-.78v-.48h.8v-1.06h.52v1.06h1.08v.49zM108.52 51.53h.53v2.9c.07-.1.15-.2.24-.27.08-.1.18-.16.3-.22.1-.07.22-.1.35-.15.12-.04.25-.06.37-.06.48 0 .83.13 1.06.38.23.25.35.6.35 1.08v2.38h-.53V55.5c0-.4-.07-.73-.22-.95-.14-.22-.4-.33-.8-.33-.02 0-.1 0-.22.03-.12.02-.25.08-.4.18-.13.1-.25.24-.35.43-.1.2-.15.46-.15.8v1.92h-.53v-6.05z"/><path fill="#4F384A" class="text-dark" d="M63.3 85.97c-.07 0-.14.02-.2.04-.07.02-.13.02-.2.02-.27 0-.5-.05-.73-.14-.22-.1-.4-.23-.56-.4-.15-.16-.27-.36-.35-.58-.1-.23-.13-.47-.13-.73 0-.3.06-.56.16-.8.1-.23.26-.43.45-.6.2-.18.42-.3.67-.4.26-.1.53-.14.83-.14.3 0 .57.05.83.14.26.1.48.22.67.4.2.17.34.37.45.6.1.24.16.5.16.8 0 .2 0 .4-.05.56l-.16.48c-.06.15-.13.3-.22.43-.08.14-.16.28-.26.42L63.42 88h-1.46l1.33-2.03zm-.98-1.75c0 .26.08.47.25.64.17.17.4.25.66.25s.5-.07.66-.24.24-.38.24-.64c0-.25-.08-.47-.25-.63s-.4-.27-.67-.27-.5.1-.66.26c-.16.15-.25.37-.25.62zM69.73 86.5c0-.23.04-.43.12-.62.1-.2.2-.36.34-.5.13-.15.3-.26.5-.35.18-.08.4-.12.6-.12.22 0 .43.05.62.13.2.1.36.2.5.34.14.15.25.32.34.5.08.2.12.4.12.62 0 .2-.04.42-.12.6-.1.2-.2.38-.34.52-.14.15-.3.26-.5.34-.2.08-.4.13-.62.13-.2 0-.42-.06-.6-.14-.2-.08-.37-.2-.5-.34-.15-.14-.26-.3-.35-.5-.08-.2-.12-.4-.12-.63zm2.33 0c0-.22-.07-.4-.22-.55-.14-.15-.32-.22-.54-.22-.2 0-.4.07-.54.22s-.22.33-.22.54c0 .2.08.4.22.55.15.15.33.22.54.22.22 0 .4-.07.54-.22.15-.15.22-.34.22-.56zm-6.36-2.7c0-.2.05-.4.13-.6.08-.2.2-.36.33-.5.15-.15.3-.27.5-.35.2-.08.4-.12.62-.12.22 0 .42.04.62.12.2.1.36.2.5.34s.25.3.33.5c.1.2.13.4.13.6 0 .23-.04.44-.13.63-.08.2-.2.36-.33.5-.14.15-.3.26-.5.34-.2.1-.4.13-.62.13-.22 0-.42-.05-.62-.13s-.35-.2-.5-.34c-.14-.14-.25-.3-.33-.5-.08-.2-.13-.4-.13-.62zm2.34 0c0-.2-.07-.38-.22-.53-.14-.15-.32-.22-.54-.22-.2 0-.4.07-.54.22-.15.15-.22.33-.22.54 0 .23.07.4.22.56.15.15.33.22.54.22.2 0 .4-.07.54-.22.15-.15.22-.33.22-.55zm2.54-1.73l.68.38-3.3 5.8-.62-.35 3.24-5.83zM77.8 83.26c-.26-.37-.62-.55-1.1-.55-.15 0-.3.03-.44.07s-.28.1-.4.18c-.1.1-.2.2-.27.32-.08.13-.1.3-.1.46 0 .26.06.46.2.6.15.14.33.26.54.35.22.1.45.17.7.24.26.07.5.17.7.3.22.1.4.27.54.47.14.18.2.45.2.8 0 .25-.04.48-.15.7-.1.2-.25.36-.43.5s-.38.25-.6.32c-.22.08-.45.1-.67.1-.35 0-.68-.05-1-.18-.3-.13-.57-.35-.8-.65l.53-.38c.13.2.3.37.52.5.22.12.47.2.77.2.15 0 .3-.04.43-.08.15-.05.28-.1.4-.2.1-.1.2-.2.28-.33.07-.1.1-.26.1-.43 0-.2-.03-.36-.12-.5-.08-.12-.2-.23-.32-.32-.14-.08-.3-.16-.47-.22-.17-.06-.35-.1-.53-.17-.2-.06-.37-.13-.54-.2-.17-.08-.33-.17-.46-.3-.14-.1-.25-.25-.33-.42-.1-.17-.14-.4-.14-.65 0-.28.06-.52.16-.72.1-.2.24-.37.42-.5.17-.14.37-.24.58-.3.22-.07.45-.1.68-.1.32 0 .6.05.87.15.26.1.5.28.73.54l-.5.4zM81.1 86.13c-.14 0-.3 0-.5.02-.2 0-.4.04-.58.1-.18.04-.34.12-.47.23-.13.1-.2.25-.2.44 0 .12.03.22.08.3.05.1.12.17.2.23.1.05.18.1.3.12.1.02.2.04.3.04.2 0 .36-.03.5-.1.15-.05.26-.14.36-.25.1-.1.16-.24.2-.4.05-.13.07-.3.07-.45v-.28h-.27zm.27-.44v-.1c0-.65-.32-.97-.96-.97-.43 0-.8.14-1.13.44l-.32-.38c.35-.37.88-.55 1.58-.55.18 0 .36.02.52.08.17.05.32.13.44.24.1.1.2.25.3.4.06.18.1.38.1.6v1.68c0 .14 0 .3.02.45 0 .16.03.3.04.4h-.5c-.03-.1-.04-.2-.05-.3v-.32c-.17.25-.35.43-.56.54-.2.1-.47.16-.78.16-.16 0-.32-.02-.48-.06-.15-.05-.3-.12-.4-.2-.13-.1-.22-.22-.3-.35-.07-.14-.1-.3-.1-.48 0-.3.08-.55.23-.73.17-.17.37-.3.6-.38.24-.1.5-.15.76-.18l.74-.03h.27zM83.22 84.25c.02.1.02.2.02.3v.3h.03c.05-.1.13-.2.22-.28.08-.1.18-.16.3-.22.1-.07.22-.1.35-.15.12-.03.25-.05.37-.05.48 0 .84.13 1.07.38.22.25.33.6.33 1.08V88h-.53V85.9c0-.42-.07-.74-.22-.96-.14-.22-.4-.33-.8-.33-.02 0-.1 0-.22.03-.12.02-.25.08-.4.18-.12.1-.24.24-.35.43-.1.2-.15.46-.15.8V88h-.53v-2.93-.38l-.04-.45h.54zM87.54 82.8c0 .12-.04.2-.12.28s-.17.1-.27.1-.18-.03-.26-.1c-.1-.07-.13-.16-.13-.27 0-.1.04-.2.12-.27.07-.07.16-.1.25-.1.1 0 .2.03.27.1.08.07.12.16.12.28zm-.12 5.2h-.53v-3.75h.52V88zM90.22 84.73h-1.08v2.2c0 .14.02.26.04.34.03.1.07.16.12.2.04.06.1.1.17.1.07.03.14.04.22.04.08 0 .17 0 .27-.03l.26-.1.03.48c-.2.1-.44.14-.72.14-.1 0-.2-.03-.3-.05-.12-.03-.22-.08-.3-.16-.1-.08-.18-.18-.24-.3-.05-.14-.08-.3-.08-.5v-2.37h-.8v-.48h.8V83.2h.52v1.05h1.08v.48zM92.67 86.13c-.13 0-.3 0-.5.02-.2 0-.4.04-.57.1-.2.04-.34.12-.47.23-.13.1-.2.25-.2.44 0 .12.03.22.08.3.06.1.12.17.2.23.1.05.2.1.3.12.1.02.2.04.3.04.2 0 .37-.03.5-.1.15-.05.27-.14.37-.25.1-.1.16-.24.2-.4.05-.13.08-.3.08-.45v-.28h-.28zm.27-.44v-.1c0-.65-.32-.97-.96-.97-.43 0-.8.14-1.14.44l-.32-.38c.35-.37.88-.55 1.6-.55.17 0 .34.02.5.08.18.05.32.13.45.24.12.1.22.25.3.4.07.18.1.38.1.6v1.68c0 .14 0 .3.02.45 0 .16.02.3.04.4h-.52l-.03-.3c-.02-.1-.02-.22-.02-.32h-.02c-.15.25-.34.43-.55.54-.2.1-.46.16-.76.16-.16 0-.32-.02-.48-.06-.15-.05-.3-.12-.4-.2-.13-.1-.23-.22-.3-.35-.07-.14-.1-.3-.1-.48 0-.3.07-.55.23-.73.15-.17.34-.3.58-.38.24-.1.5-.15.76-.18l.74-.03h.26zM96.23 84.73h-1.08v2.2c0 .14.02.26.04.34.02.1.06.16.1.2.05.06.1.1.18.1.06.03.14.04.22.04.1 0 .18 0 .28-.03l.26-.1.03.48c-.2.1-.44.14-.72.14-.1 0-.2-.03-.3-.05-.12-.03-.22-.08-.3-.16-.1-.08-.18-.18-.24-.3-.05-.14-.08-.3-.08-.5v-2.37h-.8v-.48h.8V83.2h.53v1.05h1.08v.48zM97.32 82.8c0 .12-.04.2-.12.28-.08.07-.17.1-.26.1s-.2-.03-.27-.1-.12-.16-.12-.27c0-.1.04-.2.12-.27.08-.07.17-.1.27-.1s.18.03.26.1c.08.07.12.16.12.28zM97.2 88h-.53v-3.75h.53V88zM101.28 86.12c0-.2-.03-.4-.1-.6-.06-.17-.16-.33-.28-.46-.13-.13-.27-.24-.45-.3-.17-.1-.37-.13-.58-.13-.22 0-.42.04-.6.12-.17.07-.3.18-.43.3-.12.15-.22.3-.28.48-.07.18-.1.38-.1.6s.03.4.1.57c.06.18.16.34.28.47.12.14.26.24.44.32.17.07.37.1.6.1.2 0 .4-.03.57-.1.18-.1.33-.2.45-.33s.2-.3.28-.47c.07-.18.1-.37.1-.58zm.58 0c0 .28-.05.54-.15.78-.1.24-.23.45-.4.63-.18.17-.4.3-.63.4-.24.1-.5.16-.8.16-.3 0-.56-.06-.8-.16s-.45-.24-.63-.4c-.18-.2-.3-.4-.4-.64-.1-.24-.16-.5-.16-.78 0-.3.05-.55.15-.8.1-.23.23-.43.4-.6.2-.2.4-.32.64-.42.24-.1.5-.15.8-.15.3 0 .56.05.8.15.24.1.45.23.63.4.17.2.3.4.4.63.1.24.16.5.16.8zM102.92 84.25l.02.3v.3h.02c.06-.1.14-.2.23-.28.08-.1.18-.16.3-.22.1-.07.22-.1.35-.15.12-.03.25-.05.37-.05.48 0 .83.13 1.06.38.23.25.35.6.35 1.08V88h-.53V85.9c0-.42-.08-.74-.22-.96-.14-.22-.4-.33-.8-.33-.02 0-.1 0-.22.03-.13.02-.26.08-.4.18-.13.1-.25.24-.35.43-.1.2-.16.46-.16.8V88h-.52v-2.93c0-.1 0-.23-.02-.38 0-.17 0-.32-.02-.45h.54zM64.54 22.47l.2-.04.2-.02c.26 0 .5.06.72.16.22.1.4.23.56.4.16.15.28.35.36.58s.13.47.13.72c0 .3-.04.56-.15.8-.1.24-.26.44-.45.6s-.4.3-.67.4c-.26.1-.54.15-.83.15-.3 0-.58-.04-.83-.13-.26-.1-.48-.23-.67-.4s-.34-.38-.45-.6c-.1-.25-.16-.52-.16-.8 0-.2 0-.4.04-.56s.1-.32.15-.47.12-.3.2-.43c.1-.13.18-.27.27-.42l1.24-1.93h1.47l-1.33 2.02zm.97 1.74c0-.24-.07-.45-.24-.62s-.4-.25-.66-.25-.5.08-.66.25-.25.38-.25.63c0 .27.07.48.24.65s.4.25.66.25.5-.08.66-.25.25-.38.25-.64zM70.65 24.6c0-.2.04-.4.12-.6s.2-.36.34-.5.32-.26.5-.35.4-.12.62-.12c.22 0 .43.04.62.12s.36.2.5.34.25.3.33.5.13.4.13.6c0 .23-.04.44-.13.63-.08.2-.2.37-.33.5s-.3.27-.5.35-.4.13-.62.13c-.22 0-.42-.04-.6-.12s-.37-.2-.5-.34-.27-.3-.35-.5c-.08-.2-.12-.4-.12-.63zm2.33 0c0-.2-.07-.38-.22-.53-.14-.15-.32-.23-.54-.23-.2 0-.4.08-.54.23-.14.15-.22.33-.22.54 0 .23.08.42.22.56s.33.23.54.23c.22 0 .4-.1.54-.23s.22-.34.22-.56zm-6.36-2.67c0-.2.04-.42.13-.6.08-.2.2-.37.33-.52s.3-.24.5-.33.4-.12.62-.12c.22 0 .42.04.6.12s.37.2.52.34.25.33.33.52c.08.2.12.4.12.6 0 .23-.04.44-.12.63-.08.2-.2.36-.34.5-.13.15-.3.26-.48.34s-.4.12-.62.12c-.22 0-.43-.04-.62-.13s-.36-.2-.5-.35c-.14-.14-.25-.3-.33-.5-.1-.2-.13-.4-.13-.62zm2.34 0c0-.2-.07-.4-.22-.54s-.33-.23-.54-.23c-.2 0-.4.07-.54.22s-.22.32-.22.53.07.4.22.55c.15.15.33.22.54.22.2 0 .4-.07.54-.22s.22-.33.22-.55zm2.54-1.74l.68.37-3.3 5.8-.62-.35 3.24-5.83zM78.7 21.38c-.24-.37-.6-.55-1.1-.55-.13 0-.28.02-.42.06s-.28.1-.4.17c-.1.1-.2.2-.27.32-.06.12-.1.28-.1.45 0 .26.08.46.22.6.15.14.33.26.54.35.2.1.45.17.7.24s.5.17.7.3.4.27.53.47c.14.2.2.47.2.8 0 .27-.04.5-.15.7s-.26.38-.44.52c-.16.14-.36.25-.6.32-.2.08-.43.1-.65.1-.35 0-.68-.05-1-.18s-.57-.35-.8-.65l.53-.36c.13.2.3.37.5.5.23.12.5.18.8.18.13 0 .28-.02.42-.06.15-.05.28-.12.4-.2s.2-.2.27-.33c.08-.13.12-.27.12-.44 0-.2-.05-.37-.14-.5-.08-.13-.2-.24-.33-.33-.13-.1-.3-.16-.46-.22l-.54-.17-.53-.2c-.17-.08-.33-.17-.47-.3-.13-.1-.24-.25-.32-.42s-.12-.4-.12-.65c0-.26.05-.5.16-.7.1-.2.24-.37.4-.5.2-.14.38-.24.6-.3.22-.07.45-.1.67-.1.33 0 .63.05.9.15.25.1.5.28.7.54l-.5.38zM83.1 24.24c0-.2-.04-.4-.1-.6-.07-.17-.17-.33-.3-.46-.1-.13-.26-.24-.43-.32-.18-.07-.37-.1-.6-.1-.2 0-.4.03-.58.1-.18.08-.33.2-.45.32-.12.13-.2.3-.28.47-.07.18-.1.38-.1.6s.03.4.1.57c.07.18.16.34.28.47.12.13.27.23.44.3.16.1.36.12.58.12.22 0 .4-.03.6-.1.16-.1.3-.2.43-.33.13-.14.23-.3.3-.48.06-.18.1-.38.1-.58zm.57 0c0 .28-.05.54-.15.78-.1.24-.23.45-.4.62-.2.18-.4.32-.64.42-.24.1-.5.14-.8.14-.3 0-.55-.04-.8-.14-.24-.1-.45-.24-.62-.42-.18-.17-.32-.38-.42-.62-.1-.24-.15-.5-.15-.78 0-.3.04-.55.14-.8.1-.23.24-.44.4-.6.2-.2.4-.32.64-.42.25-.1.5-.15.8-.15.3 0 .56.05.8.15.25.1.46.23.63.4.2.2.32.4.42.63.1.24.15.5.15.8zM84.88 26.1h-.53v-6.04h.53v6.05M86.52 20.93c0 .1-.04.2-.12.27-.08.07-.17.1-.27.1s-.18-.03-.26-.1c-.08-.07-.12-.16-.12-.27 0-.12.04-.2.12-.28.08-.07.17-.1.27-.1s.18.03.26.1c.08.07.12.16.12.28zm-.12 5.18h-.53v-3.73h.53v3.74zM87.6 24.24c0 .2.02.4.1.58.06.18.15.34.27.47.13.13.28.23.45.3.17.1.37.12.6.12.2 0 .4-.03.58-.1.2-.1.35-.2.48-.33.13-.14.24-.3.3-.48.1-.18.12-.38.12-.58s-.03-.4-.1-.6c-.08-.17-.2-.33-.32-.46-.13-.13-.3-.24-.48-.32-.18-.07-.38-.1-.6-.1-.2 0-.4.03-.58.1-.17.08-.32.2-.45.32-.12.13-.2.3-.28.47-.08.18-.1.38-.1.6zM91 26.1h-.52v-.6h-.02c-.08.1-.18.22-.3.3-.12.1-.24.18-.37.24s-.27.1-.4.13-.27.04-.4.04c-.3 0-.55-.04-.8-.14-.24-.1-.45-.24-.63-.4-.17-.2-.3-.4-.4-.64-.1-.24-.16-.5-.16-.78 0-.3.06-.55.16-.8.1-.23.24-.43.4-.6.2-.2.4-.32.64-.42.25-.1.5-.15.8-.15.13 0 .26 0 .4.04.13.04.26.08.4.14s.24.13.36.22c.12.1.22.2.3.33h.02v-2.94H91v6.05zM95 25.3h.02l1.43-4.86h.7l1.4 4.85h.03l1.34-4.86h.64l-1.67 5.67h-.7l-1.4-4.84h-.02l-1.43 4.85h-.67L93 20.45h.65L95 25.3M102.57 24.25c-.14 0-.3 0-.5.02-.2 0-.4.04-.58.1-.2.04-.35.12-.48.23s-.2.25-.2.44c0 .12.03.23.08.3.05.1.12.17.2.23.1.06.18.1.3.12s.2.03.3.03c.2 0 .36-.04.5-.1.14-.06.26-.15.36-.26.1-.1.17-.24.2-.38s.08-.32.08-.48v-.27h-.27zm.27-.44v-.08c0-.65-.32-.97-.96-.97-.44 0-.82.15-1.14.44l-.32-.4c.35-.35.88-.53 1.58-.53.18 0 .36.03.52.08.17.05.32.13.44.24.12.1.22.24.3.4.07.17.1.37.1.6v1.67c0 .14 0 .3.03.45 0 .16.02.3.03.4h-.5c-.03-.1-.04-.2-.05-.3v-.32h-.02c-.16.25-.34.43-.55.54s-.46.16-.76.16c-.17 0-.33-.02-.5-.06-.14-.05-.28-.12-.4-.2-.12-.1-.2-.22-.3-.36-.06-.13-.1-.3-.1-.47 0-.3.1-.53.24-.7.16-.18.36-.3.6-.4.23-.08.5-.13.75-.16s.52-.03.74-.03h.27zM106.17 23.25c-.08-.15-.18-.27-.32-.36-.13-.1-.3-.15-.48-.15-.1 0-.2 0-.28.03-.1.02-.2.06-.26.1-.08.05-.14.1-.18.17-.05.07-.07.16-.07.26 0 .2.05.3.18.4s.3.14.55.2l.53.13c.26.06.48.18.66.36.17.16.26.4.26.65 0 .2-.05.38-.13.53s-.2.26-.33.36c-.13.1-.3.16-.46.2s-.36.07-.54.07c-.3 0-.56-.05-.8-.16s-.46-.3-.64-.56l.46-.3c.1.16.24.3.4.4.16.1.36.15.58.15.1 0 .2-.02.32-.04s.2-.07.28-.12c.1-.05.15-.12.2-.2.05-.08.08-.17.08-.28 0-.2-.07-.32-.2-.4-.15-.1-.32-.15-.5-.2l-.52-.12c-.07 0-.16-.04-.26-.08s-.22-.1-.32-.17-.2-.17-.27-.3c-.08-.1-.1-.26-.1-.43 0-.2.02-.36.1-.5.08-.15.18-.27.3-.36.14-.1.3-.16.46-.2.15-.05.32-.07.5-.07.26 0 .5.05.73.15s.4.28.52.52l-.48.3zM109.14 22.85h-1.08v2.2c0 .14 0 .26.04.34.02.08.06.15.1.2s.1.08.18.1.14.03.22.03c.1 0 .18-.02.28-.04.1-.04.18-.07.26-.12l.03.5c-.2.08-.44.13-.72.13-.1 0-.2 0-.3-.03-.12-.03-.22-.08-.3-.16-.1-.06-.18-.16-.23-.3-.06-.12-.1-.3-.1-.5v-2.35h-.78v-.48h.8V21.3h.5v1.07h1.1v.48zM112.37 23.95c0-.36-.1-.65-.32-.87s-.5-.33-.9-.33c-.17 0-.33.03-.5.1-.15.07-.3.16-.4.27-.13.1-.23.24-.3.38-.07.15-.1.3-.1.45h2.52zm-2.55.43c.02.2.06.36.14.53s.17.32.3.44c.12.12.26.2.42.28.16.07.33.1.52.1.28 0 .53-.06.73-.2.2-.12.36-.27.47-.44l.4.33c-.22.3-.46.5-.73.62s-.56.18-.87.18c-.28 0-.54-.04-.77-.14-.24-.1-.44-.24-.62-.42s-.3-.38-.4-.62c-.1-.24-.14-.5-.14-.78 0-.3.05-.55.15-.8.1-.23.24-.44.4-.6.18-.2.38-.32.6-.42s.48-.15.75-.15c.28 0 .54.05.76.15.24.1.42.24.58.4s.26.37.34.6c.08.22.12.46.12.72v.24h-3.12zM118.3 25.05l1.92-4.6h.88v5.66h-.57v-4.9h-.02l-2.04 4.9h-.3l-2.05-4.9v4.9h-.58v-5.66h.88l1.9 4.6M124.17 24.25c-.13 0-.3 0-.5.02-.2 0-.4.04-.57.1-.18.04-.34.12-.47.23s-.2.25-.2.44c0 .12.03.23.08.3.06.1.13.17.2.23.1.06.2.1.3.12s.2.03.3.03c.2 0 .37-.04.5-.1s.27-.15.37-.26.16-.24.2-.38.08-.32.08-.48v-.27h-.28zm.28-.44v-.08c0-.65-.32-.97-.96-.97-.45 0-.83.15-1.16.44l-.32-.4c.36-.35.88-.53 1.6-.53.17 0 .34.03.5.08.18.05.32.13.45.24.12.1.22.24.3.4.07.17.1.37.1.6v1.67c0 .14 0 .3.03.45 0 .16.02.3.04.4h-.5c-.03-.1-.04-.2-.05-.3-.02-.1-.02-.22-.02-.32h-.02c-.15.25-.33.43-.54.54s-.47.16-.78.16c-.16 0-.32-.02-.48-.06-.15-.05-.3-.12-.4-.2-.13-.1-.23-.22-.3-.36-.07-.13-.1-.3-.1-.47 0-.3.07-.53.23-.7.15-.18.35-.3.58-.4.24-.08.5-.13.76-.16s.52-.03.74-.03h.27zM126.3 22.37l.02.3v.3h.02c.06-.1.14-.2.23-.28.1-.1.2-.17.3-.23.1-.06.23-.1.36-.15.12-.03.25-.05.37-.05.48 0 .83.13 1.06.38s.35.62.35 1.08v2.38h-.52v-2.06c0-.42-.07-.74-.22-.96s-.4-.33-.8-.33c-.02 0-.1 0-.22.03-.12.02-.25.08-.4.18-.13.1-.25.24-.35.43-.12.18-.17.45-.17.8v1.9h-.53v-2.9-.4l-.04-.43h.54zM131.97 24.25c-.13 0-.3 0-.5.02-.2 0-.4.04-.57.1-.2.04-.34.12-.47.23-.13.1-.2.25-.2.44 0 .12.03.23.08.3.06.1.13.17.2.23.1.06.2.1.3.12s.2.03.3.03c.2 0 .37-.04.5-.1.15-.06.27-.15.37-.26.1-.1.16-.24.2-.38.05-.16.08-.32.08-.48v-.27h-.28zm.28-.44v-.08c0-.65-.32-.97-.96-.97-.45 0-.83.15-1.16.44l-.32-.4c.36-.35.88-.53 1.6-.53.17 0 .34.03.5.08.18.05.32.13.45.24.12.1.22.24.3.4.07.17.1.37.1.6v1.67c0 .14 0 .3.02.45 0 .16.02.3.04.4h-.5c-.03-.1-.04-.2-.05-.3l-.02-.32h-.02c-.15.25-.33.43-.54.54s-.47.16-.78.16c-.16 0-.32-.02-.48-.06-.15-.05-.3-.12-.4-.2-.13-.1-.22-.22-.3-.36-.07-.13-.1-.3-.1-.47 0-.3.07-.53.23-.7.15-.18.35-.3.58-.4s.5-.13.76-.16.52-.03.74-.03h.27zM133.98 24.2c0 .2.04.37.1.55.08.17.18.32.3.45.13.13.28.24.45.3.16.1.35.13.54.13.2 0 .38-.04.55-.1.18-.07.33-.17.46-.3.14-.12.24-.27.3-.45.08-.18.12-.37.1-.6 0-.2-.02-.37-.1-.55-.05-.17-.14-.32-.27-.45-.1-.13-.26-.24-.43-.32-.18-.07-.38-.1-.6-.1-.2 0-.38.03-.54.1-.17.08-.32.2-.44.32-.14.13-.24.28-.3.45-.08.18-.12.36-.12.56zm-.1 2.66c.16.2.36.38.6.5.26.13.54.2.84.2.27 0 .5-.05.68-.13s.34-.18.45-.3c.12-.15.2-.3.25-.48.05-.18.08-.37.08-.57v-.67h-.02c-.17.26-.38.44-.62.55-.25.1-.5.16-.78.16s-.53-.04-.77-.13c-.24-.1-.45-.23-.62-.4-.18-.17-.32-.37-.42-.6-.1-.24-.15-.5-.15-.76s.06-.52.15-.75c.1-.24.23-.44.4-.62s.37-.3.6-.4.48-.16.76-.16c.12 0 .24 0 .37.03.12.02.25.06.37.1l.38.23c.12.1.23.22.34.36h.02v-.63h.52v3.7c0 .2-.02.43-.07.66-.05.22-.15.44-.3.63-.15.2-.35.35-.6.48-.27.13-.6.2-1.03.2-.38 0-.7-.07-1-.2s-.56-.3-.8-.56l.4-.42zM141 23.95c0-.36-.1-.65-.32-.87-.2-.22-.5-.33-.9-.33-.17 0-.33.03-.5.1-.15.07-.3.16-.4.27-.13.1-.23.24-.3.38-.07.15-.1.3-.1.45H141zm-2.54.43c0 .2.06.36.13.53.07.17.16.32.3.44.1.12.25.2.4.28s.34.1.53.1c.28 0 .53-.06.73-.2.2-.12.36-.27.47-.44l.4.33c-.22.3-.46.5-.73.62-.27.12-.56.18-.87.18-.28 0-.53-.04-.77-.14s-.44-.24-.6-.42c-.18-.17-.32-.38-.42-.62-.1-.24-.14-.5-.14-.78 0-.3.04-.55.14-.8.1-.23.23-.44.4-.6.17-.2.37-.32.6-.42s.48-.15.74-.15c.3 0 .54.05.76.15s.42.24.57.4.28.37.36.6.12.46.12.72v.24h-3.13zM142.13 23.2v-.42l-.04-.42h.56v.57h.02c.13-.22.3-.38.53-.5s.46-.16.7-.16c.1 0 .2 0 .3.03.13.02.24.06.34.12s.2.13.3.23c.1.1.18.24.24.4.1-.24.27-.43.5-.57s.48-.2.73-.2c.5 0 .85.12 1.07.37s.35.6.35 1.08v2.38h-.53v-2.17c0-.38-.08-.67-.2-.88-.14-.2-.4-.3-.75-.3-.2 0-.37.04-.5.12-.13.07-.24.18-.32.3-.1.13-.15.28-.18.44s-.06.34-.06.52v2h-.54v-2.2c0-.37-.06-.66-.2-.87-.13-.2-.38-.3-.74-.3-.03 0-.1 0-.22.03-.12.02-.23.08-.36.18s-.23.24-.33.43-.14.45-.14.8v1.9h-.52v-2.9zM151.46 23.95c0-.36-.1-.65-.32-.87s-.5-.33-.9-.33c-.16 0-.33.03-.5.1s-.3.16-.4.27c-.13.1-.22.24-.3.38-.07.15-.1.3-.1.45h2.52zm-2.54.43c.02.2.06.36.14.53.07.17.17.32.3.44.1.12.25.2.4.28.18.07.35.1.54.1.28 0 .52-.06.73-.2.2-.12.36-.27.47-.44l.4.33c-.22.3-.47.5-.74.62s-.56.18-.87.18c-.28 0-.54-.04-.78-.14s-.44-.24-.6-.42-.3-.38-.4-.62c-.1-.24-.16-.5-.16-.78 0-.3.05-.55.14-.8.1-.23.23-.44.4-.6.17-.2.37-.32.6-.42s.48-.15.75-.15c.28 0 .53.05.76.15.23.1.42.24.57.4.15.17.27.37.35.6s.12.46.12.72v.24h-3.12zM153.1 22.37l.02.3v.3h.02c.06-.1.14-.2.23-.28.1-.1.2-.17.3-.23.1-.06.23-.1.36-.15.12-.03.25-.05.37-.05.48 0 .83.13 1.06.38s.35.62.35 1.08v2.38h-.52v-2.06c0-.42-.07-.74-.22-.96s-.4-.33-.8-.33c-.02 0-.1 0-.22.03-.12.02-.25.08-.4.18-.13.1-.25.24-.35.43-.12.18-.17.45-.17.8v1.9h-.53v-2.9-.4l-.04-.43h.54zM158.58 22.85h-1.08v2.2c0 .14.02.26.04.34s.07.15.1.2c.06.05.12.08.2.1.05.02.13.03.2.03.1 0 .2-.02.3-.04.08-.04.17-.07.25-.12v.5c-.18.08-.42.13-.7.13-.1 0-.2 0-.3-.03s-.22-.08-.3-.16c-.1-.06-.18-.16-.24-.3s-.1-.3-.1-.5v-2.35h-.78v-.48h.8V21.3h.52v1.07h1.08v.48zM10.9 83.67l-1.13 1-.68-.78 1.84-1.57h1.12V88H10.9v-4.33M17 86.5c0-.23.05-.43.13-.62.08-.2.2-.36.33-.5.15-.15.3-.26.5-.35.2-.08.4-.12.62-.12.22 0 .42.05.62.13.2.1.36.2.5.34.14.15.25.32.33.5.1.2.13.4.13.62 0 .2-.04.42-.13.6-.08.2-.2.38-.33.52-.14.15-.3.26-.5.34-.2.08-.4.13-.62.13-.22 0-.42-.06-.62-.14-.2-.08-.35-.2-.5-.34-.14-.14-.25-.3-.33-.5-.08-.2-.13-.4-.13-.63zm2.34 0c0-.22-.07-.4-.22-.55-.14-.15-.32-.22-.54-.22-.2 0-.4.07-.54.22s-.22.33-.22.54c0 .2.08.4.22.55.15.15.33.22.54.22.22 0 .4-.07.54-.22.15-.15.22-.34.22-.56zm-6.36-2.7c0-.2.04-.4.12-.6.1-.2.2-.36.34-.5.14-.15.3-.27.5-.35.2-.08.4-.12.62-.12.22 0 .42.04.6.12.2.1.37.2.5.34.15.14.27.3.35.5.1.2.13.4.13.6 0 .23-.04.44-.12.63-.07.2-.18.36-.33.5-.14.15-.3.26-.5.34-.2.1-.4.13-.6.13-.23 0-.44-.05-.63-.13-.2-.08-.36-.2-.5-.34s-.25-.3-.33-.5c-.08-.2-.12-.4-.12-.62zm2.34 0c0-.2-.08-.38-.22-.53-.15-.15-.33-.22-.54-.22-.22 0-.4.07-.54.22-.15.15-.22.33-.22.54 0 .23.07.4.22.56.14.15.32.22.54.22.2 0 .4-.07.54-.22s.22-.33.22-.55zm2.54-1.73l.67.38-3.3 5.8-.6-.35 3.23-5.83zM24.2 88h-.57v-5.15h-1.9v-.52h4.37v.52h-1.9V88M28.4 85.83c0-.36-.1-.65-.3-.87-.22-.22-.52-.33-.9-.33-.17 0-.34.03-.5.1-.16.07-.3.16-.42.27-.12.1-.22.24-.3.38-.06.15-.1.3-.1.45h2.53zm-2.53.43c0 .2.06.36.13.53.08.16.18.3.3.42s.26.2.42.28c.16.07.34.1.52.1.3 0 .53-.06.74-.2.2-.12.36-.27.46-.44l.4.33c-.2.28-.46.48-.73.6-.26.12-.55.2-.86.2-.27 0-.53-.06-.77-.16-.23-.1-.44-.24-.6-.4-.18-.2-.3-.4-.4-.64-.1-.24-.16-.5-.16-.78s.06-.55.15-.8c.1-.23.23-.43.4-.6.17-.2.37-.32.6-.42.23-.1.48-.15.75-.15.28 0 .53.05.76.15.22.1.4.24.56.4s.27.37.35.6c.08.22.12.47.12.72v.24h-3.13zM30.2 88h-.53v-6.06h.53V88M33.98 85.83c0-.36-.1-.65-.32-.87-.2-.22-.5-.33-.9-.33-.16 0-.33.03-.5.1-.15.07-.3.16-.4.27-.13.1-.23.24-.3.38-.07.15-.1.3-.1.45h2.52zm-2.54.43c0 .2.06.36.13.53.08.16.18.3.3.42s.26.2.42.28c.15.07.33.1.5.1.3 0 .54-.06.75-.2.2-.12.36-.27.46-.44l.42.33c-.22.28-.47.48-.74.6s-.56.2-.87.2c-.26 0-.52-.06-.76-.16s-.44-.24-.6-.4c-.18-.2-.32-.4-.4-.64-.1-.24-.16-.5-.16-.78s.05-.55.14-.8c.1-.23.23-.43.4-.6.17-.2.37-.32.6-.42.23-.1.48-.15.74-.15.3 0 .54.05.77.15.22.1.4.24.56.4s.26.37.34.6c.08.22.12.47.12.72v.24h-3.12zM37.84 85.13c-.1-.14-.2-.26-.38-.36-.16-.1-.34-.14-.55-.14-.2 0-.4.03-.58.1-.17.08-.32.18-.44.3-.13.15-.22.3-.28.5s-.1.37-.1.6c0 .2.03.4.1.58s.15.35.28.5c.12.12.27.23.44.3.17.07.37.1.6.1.2 0 .38-.04.54-.14.17-.1.3-.2.38-.35l.44.34c-.2.2-.4.38-.64.48-.23.1-.47.16-.73.16-.3 0-.57-.04-.8-.14-.26-.1-.47-.23-.64-.4-.18-.18-.3-.4-.4-.64-.1-.24-.13-.5-.13-.78 0-.3.04-.55.13-.8.1-.23.22-.44.4-.62.17-.18.38-.3.63-.4.23-.1.5-.16.8-.15.27 0 .5.06.75.16.23.12.44.28.63.5l-.44.33zM41.78 86.12c0-.2-.03-.4-.1-.6-.07-.17-.16-.33-.28-.46-.13-.13-.27-.24-.45-.3-.17-.1-.37-.13-.6-.13-.2 0-.4.04-.57.12-.18.07-.32.18-.44.3-.12.15-.22.3-.28.48-.07.18-.1.38-.1.6s.03.4.1.57c.06.18.16.34.28.47.12.14.26.24.44.32.17.07.37.1.58.1.22 0 .42-.03.6-.1.17-.1.3-.2.44-.33.12-.13.2-.3.28-.47.07-.18.1-.37.1-.58zm.58 0c0 .28-.05.54-.15.78-.1.24-.23.45-.4.63-.18.17-.4.3-.63.4-.24.1-.5.16-.8.16-.3 0-.56-.06-.8-.16s-.45-.24-.63-.4c-.18-.2-.3-.4-.4-.64-.1-.24-.16-.5-.16-.78 0-.3.05-.55.15-.8.1-.23.23-.43.4-.6.2-.2.4-.32.64-.42.24-.1.5-.15.8-.15.3 0 .56.05.8.15.24.1.45.23.63.4.17.2.3.4.4.63.1.24.16.5.16.8zM42.92 85.08c0-.14 0-.28-.02-.42 0-.14 0-.28-.02-.4h.56v.55h.02c.13-.2.3-.37.53-.48.22-.1.44-.17.67-.17.1 0 .2 0 .32.03.1.02.22.06.32.12.1.05.2.13.3.23.1.1.18.24.24.4.1-.24.28-.43.5-.57.24-.14.48-.2.73-.2.47 0 .83.12 1.06.37.23.25.34.6.34 1.08V88h-.53v-2.2c0-.37-.06-.66-.2-.87-.13-.2-.38-.3-.74-.3-.2 0-.36.04-.5.12-.13.07-.24.18-.32.3-.07.13-.13.28-.17.44-.04.15-.06.32-.06.5v2h-.53v-2.2c0-.37-.06-.66-.2-.87-.13-.2-.38-.3-.74-.3-.03 0-.1 0-.22.03-.1.02-.23.08-.36.18-.12.1-.23.24-.33.43-.1.2-.16.46-.16.8V88h-.52v-2.92zM7.7 21.8l-1.13 1-.68-.8 1.84-1.55h1.12v5.66H7.7v-4.3M13.8 24.6c0-.2.05-.4.13-.6.08-.2.2-.36.33-.5.15-.15.3-.26.5-.35.2-.08.4-.12.62-.12.22 0 .42.04.62.12s.36.2.5.34.25.3.33.5c.1.2.13.4.13.6 0 .23-.05.44-.13.63-.08.2-.2.37-.33.5-.14.15-.3.27-.5.35s-.4.13-.62.13c-.22 0-.42-.04-.62-.12-.2-.08-.35-.2-.5-.34-.14-.14-.25-.3-.33-.5-.08-.2-.13-.4-.13-.63zm2.34 0c0-.2-.07-.38-.22-.53-.15-.15-.33-.23-.54-.23-.2 0-.4.08-.54.23-.15.15-.22.33-.22.54 0 .23.07.42.22.56.15.15.33.23.54.23.2 0 .4-.1.54-.23.15-.15.22-.34.22-.56zm-6.36-2.67c0-.2.04-.42.12-.6.1-.2.2-.37.34-.52.14-.13.3-.24.5-.33.2-.08.4-.12.62-.12.22 0 .42.04.6.12s.37.2.5.34c.15.16.27.33.35.52.1.2.13.4.13.6 0 .23-.04.44-.12.63-.07.2-.2.36-.33.5-.14.15-.3.26-.5.34-.2.08-.4.12-.6.12-.23 0-.44-.04-.63-.13-.2-.1-.36-.2-.5-.35-.14-.14-.25-.3-.34-.5-.08-.2-.12-.4-.12-.62zm2.34 0c0-.2-.08-.4-.22-.54-.15-.16-.33-.23-.54-.23-.22 0-.4.07-.54.22-.15.14-.22.32-.22.53s.07.4.22.55c.14.15.32.22.54.22.2 0 .4-.07.54-.22s.22-.33.22-.55zm2.54-1.74l.67.37-3.3 5.8-.6-.35 3.23-5.83zM19.76 25.58h3.04v.53h-3.6v-5.66h3.5v.53h-2.94v1.93h2.75v.53h-2.74v2.15M23.66 24.24c0 .2.03.4.1.58.07.18.16.34.28.47.13.13.28.23.45.3.16.1.36.12.58.12.2 0 .4-.03.6-.1.18-.1.34-.2.47-.33.13-.14.24-.3.3-.48.1-.18.12-.38.12-.58s-.04-.4-.1-.6c-.08-.17-.2-.33-.32-.46-.13-.13-.3-.24-.48-.32-.18-.07-.38-.1-.6-.1-.2 0-.4.03-.58.1-.2.08-.33.2-.46.32-.12.13-.2.3-.28.47-.07.18-.1.38-.1.6zm3.42 1.87h-.53v-.6h-.02c-.08.1-.18.22-.3.3-.12.1-.24.18-.37.24s-.26.1-.4.13c-.13.02-.26.04-.38.04-.3 0-.56-.04-.8-.14-.25-.1-.46-.24-.64-.4-.17-.2-.3-.4-.4-.64-.1-.24-.16-.5-.16-.78 0-.3.05-.55.15-.8.1-.23.24-.43.4-.6.2-.2.4-.32.64-.42.25-.1.5-.15.8-.15.13 0 .26 0 .4.04.13.04.26.08.4.14s.24.13.36.22c.12.1.22.2.3.33h.02v-2.94h.53v6.05zM30.53 26.1l-.02-.3v-.3c-.07.1-.14.2-.23.3-.1.07-.2.15-.3.2-.12.07-.24.12-.36.15-.12.04-.24.06-.36.06-.48 0-.84-.12-1.07-.38-.23-.25-.34-.6-.34-1.08v-2.37h.53v2.07c0 .2 0 .4.04.55.04.15.1.28.17.4.08.1.18.18.3.24.14.06.3.08.5.08.03 0 .1 0 .23-.03.12-.03.25-.1.38-.18.14-.1.26-.24.37-.44.1-.2.16-.45.16-.8v-1.92h.54V25.67l.04.44h-.55zM34.6 23.25c-.1-.14-.2-.26-.38-.36-.16-.1-.34-.15-.55-.15-.22 0-.42.03-.6.1-.16.08-.3.18-.43.32-.13.13-.22.3-.28.47s-.1.38-.1.6c0 .2.03.4.1.6s.15.34.28.47c.12.14.27.25.44.32.17.08.37.1.6.1.2 0 .38-.04.54-.14.17-.1.3-.2.38-.35l.44.33c-.2.22-.4.38-.64.48-.23.1-.48.16-.73.17-.3 0-.58-.03-.83-.13-.24-.1-.45-.24-.62-.42-.18-.17-.3-.38-.4-.62-.1-.25-.14-.5-.14-.8 0-.27.05-.54.14-.78.1-.24.22-.45.4-.63.17-.17.38-.3.62-.4.25-.1.52-.15.83-.15.25 0 .5.06.73.16.24.1.45.27.64.5l-.44.32zM37.46 24.25c-.13 0-.3 0-.5.02-.2 0-.4.04-.58.1-.18.04-.34.12-.47.23-.12.1-.18.25-.18.44 0 .12.02.23.07.3.04.1.1.17.2.23.08.06.18.1.28.12s.2.03.32.03c.2 0 .36-.04.5-.1.14-.06.26-.15.35-.26.1-.1.17-.24.2-.38.06-.16.08-.32.08-.48v-.27h-.27zm.27-.44v-.08c0-.65-.32-.97-.96-.97-.44 0-.82.15-1.14.44l-.32-.4c.36-.35.9-.53 1.6-.53.17 0 .35.03.52.08.16.05.3.13.43.24.13.1.22.24.3.4.07.17.1.37.1.6v1.67l.03.45c0 .16.03.3.04.4h-.5c-.02-.1-.04-.2-.04-.3l-.02-.32c-.17.25-.35.43-.56.54-.2.1-.47.16-.77.16-.17 0-.33-.02-.48-.06-.16-.05-.3-.12-.4-.2-.13-.1-.23-.22-.3-.36-.07-.13-.1-.3-.1-.47 0-.3.07-.53.23-.7.15-.18.35-.3.6-.4.23-.08.48-.13.75-.16l.74-.03h.26zM41.02 22.85h-1.08v2.2c0 .14 0 .26.04.34.03.08.06.15.1.2.06.05.12.08.18.1.07.02.14.03.22.03.1 0 .2-.02.28-.04.1-.04.2-.07.27-.12l.02.5c-.2.08-.43.13-.7.13-.1 0-.22 0-.33-.03-.1-.03-.2-.08-.3-.16-.1-.06-.16-.16-.22-.3-.06-.12-.1-.3-.1-.5v-2.35h-.78v-.48h.8V21.3h.52v1.07h1.08v.48zM42.1 20.93c0 .1-.03.2-.1.27-.1.07-.18.1-.28.1-.1 0-.18-.03-.26-.1-.08-.07-.12-.16-.12-.27 0-.12.04-.2.12-.28.08-.07.17-.1.26-.1.1 0 .2.03.27.1s.1.16.1.28zM42 26.1h-.54v-3.73H42v3.74zM46.07 24.24c0-.2-.04-.4-.1-.6-.07-.17-.16-.33-.3-.46-.1-.13-.26-.24-.43-.32-.17-.07-.37-.1-.6-.1-.2 0-.4.03-.58.1-.17.08-.32.2-.44.32-.12.13-.2.3-.28.47-.06.18-.1.38-.1.6s.04.4.1.57c.07.18.16.34.28.47.12.13.27.23.44.3.18.1.37.12.6.12.2 0 .4-.03.58-.1.17-.1.32-.2.44-.33.13-.14.22-.3.3-.48.05-.18.1-.38.1-.58zm.57 0c0 .28-.05.54-.14.78-.1.24-.24.45-.42.62s-.38.32-.62.42c-.25.1-.5.14-.8.14-.3 0-.56-.04-.8-.14-.25-.1-.46-.24-.63-.42-.18-.17-.32-.38-.4-.62-.1-.24-.16-.5-.16-.78 0-.3.05-.55.15-.8.1-.23.23-.44.4-.6.18-.2.4-.32.64-.42.24-.1.5-.15.8-.15.3 0 .55.05.8.15.24.1.45.23.62.4.18.2.32.4.42.63.1.24.14.5.14.8zM47.7 22.37l.03.3v.3h.02c.06-.1.13-.2.22-.28.1-.1.2-.17.3-.23l.36-.15c.13-.03.25-.05.37-.05.48 0 .84.13 1.07.38.23.25.34.62.34 1.08v2.38h-.52v-2.06c0-.42-.07-.74-.2-.96s-.42-.33-.8-.33c-.04 0-.1 0-.24.03-.12.02-.25.08-.38.18-.14.1-.26.24-.37.43-.1.18-.17.45-.17.8v1.9h-.53v-2.9-.4l-.04-.43h.55z"/><path fill="none" stroke="#60ABBB" class="telecom line" stroke-width=".5" stroke-linejoin="round" stroke-miterlimit="10" d="M2.72 33.9V20.05"/><path fill-rule="evenodd" clip-rule="evenodd" fill="#60ABBB" class="telecom line" d="M2.72 35.42l.78-2.26-.78.6-.8-.6.8 2.26"/><path fill="none" stroke="#EF3A5A" class="europe" stroke-width=".5" stroke-linejoin="round" stroke-miterlimit="10" d="M2.3 146.74V132"/><path fill-rule="evenodd" clip-rule="evenodd" fill="#EF3A5A" class="line europe" d="M2.3 148.27l.8-2.27-.8.6-.77-.6.78 2.27"/><path fill="none" stroke="#A11C30" class="line middle-east" stroke-width=".5" stroke-linejoin="round" stroke-miterlimit="10" d="M47.5 146.74v-3.4h47.55v-11.5"/><path fill-rule="evenodd" clip-rule="evenodd" fill="#A11C30" class="line middle-east" d="M47.5 148.27l.8-2.27-.8.6-.78-.6.78 2.27"/><path fill="none" stroke="#4191A1" class="line education" stroke-width=".5" stroke-linejoin="round" stroke-miterlimit="10" d="M6.1 74.72V88.9"/><path fill-rule="evenodd" clip-rule="evenodd" fill="#4191A1" class="line education" d="M6.1 73.2l-.8 2.26.8-.6.78.6-.8-2.27"/><path fill="none" stroke="#D21F3A" class="line latin-america" stroke-width=".5" stroke-linejoin="round" stroke-miterlimit="10" d="M17.96 188.16v15.16"/><path fill-rule="evenodd" clip-rule="evenodd" fill="#D21F3A" class="line latin-america" d="M17.96 186.63l-.78 2.26.8-.6.77.6-.8-2.27"/><path fill="none" stroke="#7E1429" class="line east-asia" stroke-width=".5" stroke-linejoin="round" stroke-miterlimit="10" d="M84.65 188.16v4.15l55.2.06v11.1"/><path fill-rule="evenodd" clip-rule="evenodd" fill="#7E1429" class="line east-asia" d="M84.65 186.63l-.8 2.26.8-.6.78.6-.78-2.27"/><path fill="none" stroke="#347D8C" class="line solid-waste" stroke-width=".5" stroke-linejoin="round" stroke-miterlimit="10" d="M20.3 33.9v-3.43h38.5v-10.4"/><path fill-rule="evenodd" clip-rule="evenodd" fill="#347D8C" class="line solid-waste" d="M20.3 35.42l.8-2.26-.8.6-.78-.6.8 2.26"/><path fill="none" stroke="#216A79" class="line sanitation" stroke-linejoin="round" stroke-miterlimit="10" d="M49.5 74.83v2.94h7.4V88.9"/><path fill-rule="evenodd" clip-rule="evenodd" fill="#216A79" class="line sanitation" d="M8 48.7l67.57.8-.6.78.6-.8-2.26 NaN"/><path fill="#8E9AA6" class="text-title" d="M1.96 6.6h1.4c.28 0 .53-.03.76-.08.23-.05.43-.13.6-.24.17-.1.3-.25.4-.42.1-.17.15-.37.15-.6 0-.47-.15-.8-.46-1.04-.3-.23-.75-.34-1.34-.34h-1.5V6.6zm0-3.32h1.48c.18 0 .36-.02.53-.07.17-.03.33-.1.47-.2.14-.1.25-.23.34-.39.1-.14.13-.33.13-.56 0-.07 0-.18-.03-.3-.03-.14-.1-.28-.2-.4-.1-.14-.27-.26-.47-.35C4 .9 3.72.83 3.37.83h-1.4v2.44zM1.23.18h2.15c.3 0 .6.03.87.1s.53.15.74.3c.2.13.4.3.5.54.14.23.2.5.2.84 0 .4-.1.72-.32 1-.22.27-.54.46-.95.55v.03c.5.04.9.22 1.2.53.3.3.44.72.44 1.24 0 .1-.03.28-.1.5-.05.22-.17.44-.35.66-.2.2-.45.4-.8.56-.35.16-.8.24-1.4.24h-2.2V.18zM9.46 7.26h-.73V4.2L6.03.2h.9L9.1 3.52 11.25.18h.9L9.46 4.2v3.06M18.18 1.7c-.13-.2-.3-.33-.54-.42-.23-.1-.47-.14-.72-.14-.15 0-.3.02-.43.05-.15.02-.28.08-.4.15-.1.07-.2.17-.26.3-.07.1-.1.24-.1.4 0 .24.08.42.25.55.16.13.37.24.62.33.26.1.53.18.83.27.3.1.57.2.83.36s.46.36.63.6c.18.26.26.6.26 1.02 0 .38-.07.7-.2 1-.15.28-.35.5-.6.7-.23.2-.5.33-.83.42-.32.1-.65.14-1 .14-.46 0-.9-.07-1.3-.22s-.78-.4-1.07-.74l.96-.92c.16.23.37.42.62.55.26.14.53.2.8.2.16 0 .3-.02.46-.06.15-.04.3-.1.4-.18.13-.08.23-.18.3-.3.08-.13.12-.27.12-.43 0-.26-.1-.46-.26-.6-.17-.14-.38-.26-.63-.35-.25-.1-.53-.2-.83-.28-.3-.1-.57-.2-.82-.35s-.47-.35-.64-.6c-.17-.25-.25-.6-.25-1 0-.38.07-.7.22-.96.15-.28.35-.5.6-.67.25-.18.53-.3.85-.4.32-.1.65-.13.98-.13.38 0 .75.06 1.1.17.37.1.7.3.97.56l-.94.97zM20 .18h4.77v1.14h-3.5v1.74h3.32V4.2h-3.33v1.92h3.7v1.14h-4.98V.18M30.67 1.84c-.26-.28-.52-.47-.77-.56-.25-.1-.5-.14-.75-.14-.37 0-.7.07-1 .2-.32.13-.58.3-.8.54-.2.23-.38.5-.5.8-.12.3-.18.64-.18 1 0 .37.06.72.18 1.04.12.32.3.6.5.83.22.23.48.42.8.55.3.13.63.2 1 .2.3 0 .58-.07.85-.2.28-.14.54-.36.77-.66l1.06.74c-.32.44-.72.76-1.2.96-.46.2-.96.3-1.5.3-.55 0-1.06-.1-1.52-.27-.46-.17-.86-.42-1.2-.75-.33-.32-.6-.7-.8-1.16-.18-.45-.28-.96-.28-1.5 0-.58.1-1.1.3-1.55s.44-.85.78-1.18c.34-.33.74-.58 1.2-.76.47-.17.98-.26 1.54-.26.5 0 .94.1 1.36.26.42.17.8.45 1.17.86l-1 .72zM34.18 1.32h-2.2V.18h5.7v1.14h-2.2v5.94h-1.3V1.32M37.35 3.75c0-.57.1-1.08.3-1.54.18-.46.44-.85.78-1.18.34-.33.74-.58 1.2-.76C40.1.1 40.6 0 41.17 0s1.08.07 1.55.24c.47.18.87.42 1.2.75.35.32.62.7.8 1.17.2.46.3.97.3 1.54 0 .56-.1 1.07-.3 1.52-.18.45-.45.84-.8 1.17-.33.32-.73.57-1.2.75-.47.2-1 .28-1.55.3-.56 0-1.07-.1-1.54-.28-.46-.17-.86-.42-1.2-.75-.34-.32-.6-.7-.8-1.16-.18-.45-.28-.96-.28-1.5zm1.35-.08c0 .38.06.73.18 1.05.12.32.28.6.5.83.22.23.48.42.78.55.3.13.65.2 1.02.2s.7-.07 1.02-.2c.3-.13.57-.32.78-.55.22-.23.4-.5.5-.83.13-.32.2-.67.2-1.05 0-.35-.07-.68-.2-1-.1-.3-.28-.57-.5-.8-.2-.23-.47-.4-.78-.54-.3-.13-.65-.2-1.02-.2s-.7.07-1.02.2c-.3.13-.56.3-.78.54-.2.23-.38.5-.5.8-.12.32-.18.65-.18 1zM45.73.18h2.5c.36 0 .7.03 1 .1.34.06.62.17.88.32s.46.36.6.62c.16.26.23.6.23 1 0 .5-.14.93-.43 1.28s-.7.56-1.24.63l1.92 3.13h-1.56l-1.67-3H47v3h-1.27V.18zm2.28 3c.2 0 .38 0 .56-.02.2-.02.36-.06.5-.12.16-.07.3-.16.38-.3.1-.12.15-.3.15-.54-.02-.2-.06-.37-.15-.5-.1-.13-.2-.22-.35-.28s-.3-.1-.47-.13c-.17-.03-.34-.04-.5-.04H47v1.92h1zM1.96 116.5h1.4c.28 0 .53-.02.76-.07.23-.05.43-.14.6-.24.17-.12.3-.26.4-.43.1-.17.15-.37.15-.6 0-.47-.15-.8-.46-1.04-.3-.23-.74-.34-1.34-.34h-1.5v2.7zm0-3.3h1.48c.18 0 .36-.03.53-.08.17-.04.33-.1.47-.2.14-.1.25-.24.34-.4.1-.15.13-.34.13-.57 0-.07 0-.18-.03-.3-.03-.14-.1-.28-.2-.4-.1-.14-.27-.26-.47-.36-.2-.1-.48-.15-.83-.15h-1.4v2.44zm-.73-3.1h2.15c.3 0 .6.02.87.08.28.06.53.16.74.3.2.14.4.32.5.55.14.23.2.5.2.84 0 .4-.1.72-.32 1-.22.27-.54.46-.95.55v.02c.5.04.9.22 1.2.53.3.3.44.72.44 1.24 0 .13-.03.3-.1.5-.05.23-.17.45-.35.67-.2.2-.45.4-.8.56-.35.16-.8.24-1.4.24h-2.2v-7.08zM9.46 117.17h-.73v-3.05l-2.7-4.03h.9l2.17 3.33 2.15-3.34h.9l-2.7 4.02v3.05M14.64 110.1h2.5c.36 0 .7.02 1.02.1.32.05.6.16.86.3.25.16.45.37.6.63.15.26.23.6.23 1 0 .5-.15.93-.44 1.28-.28.36-.7.57-1.23.64l1.92 3.13h-1.56l-1.67-3h-.94v3h-1.3v-7.08zm2.3 3l.54-.03c.18-.02.35-.06.5-.12.16-.07.28-.16.38-.3.1-.12.14-.3.14-.54 0-.2-.04-.36-.13-.5-.1-.12-.2-.2-.35-.27-.14-.07-.3-.1-.47-.13l-.5-.03h-1.12v1.92h1zM20.56 110.1h4.8v1.13h-3.5v1.74h3.3v1.14h-3.3v1.93h3.67v1.14h-4.97v-7.08M32.7 116.65c-.9.47-1.9.7-3 .7-.55 0-1.06-.1-1.52-.27-.47-.17-.87-.42-1.2-.75-.34-.32-.6-.7-.8-1.16-.2-.45-.28-.96-.28-1.5 0-.58.1-1.1.28-1.56.2-.45.46-.84.8-1.17.33-.33.73-.58 1.2-.76.46-.17.97-.26 1.53-.26s1.08.07 1.56.2c.5.13.92.36 1.3.7l-.95.94c-.22-.22-.5-.4-.83-.5s-.68-.2-1.05-.2-.7.07-1 .2c-.3.13-.58.3-.8.54-.2.23-.38.5-.5.8-.12.3-.18.64-.18 1 0 .38.06.73.18 1.05.12.32.3.6.5.83.22.23.48.4.8.55.3.14.63.2 1 .2.33 0 .64-.02.93-.08.3-.06.54-.16.77-.28v-1.67h-1.48v-1.14h2.76v3.62zM33.68 110.1h1.3v7.07h-1.3v-7.08M35.65 113.66c0-.56.1-1.08.3-1.54.17-.47.44-.86.78-1.2.33-.32.73-.57 1.2-.75.47-.17.98-.26 1.54-.26s1.08.08 1.55.25c.46.17.87.42 1.2.75.35.33.62.72.8 1.18s.3.97.3 1.54c0 .55-.1 1.06-.3 1.5-.2.46-.45.85-.8 1.18-.33.33-.73.58-1.2.77-.47.18-1 .27-1.56.28-.55 0-1.06-.1-1.53-.27s-.87-.42-1.2-.75c-.34-.32-.6-.7-.8-1.16-.2-.45-.28-.96-.28-1.5zm1.35-.08c0 .38.06.73.17 1.05.12.32.3.6.5.83.23.23.5.42.8.55.3.14.63.2 1 .2s.72-.06 1.03-.2c.3-.12.56-.3.78-.54.22-.23.4-.5.5-.83.13-.32.18-.67.18-1.05 0-.35-.05-.68-.17-1-.13-.3-.3-.56-.52-.8-.22-.22-.48-.4-.78-.54-.3-.13-.65-.2-1.02-.2s-.72.07-1.02.2c-.3.13-.56.32-.78.54-.22.23-.4.5-.5.8-.13.32-.18.65-.18 1zM44.02 110.1h1.7l3.5 5.25h.03v-5.26h1.28v7.07H48.9l-3.57-5.43h-.02v5.43h-1.27v-7.08"/><path fill="#4F384A" class="text-dark" d="M144.55 198.4l-1.14 1-.67-.78 1.85-1.56h1.12v5.67h-1.15v-4.32M148.88 198.4l-1.13 1-.68-.78 1.85-1.56h1.12v5.67h-1.16v-4.32M154.98 201.23c0-.22.04-.42.13-.6.1-.2.2-.37.34-.52.14-.13.3-.25.5-.33.2-.08.4-.12.62-.12.22 0 .42.04.6.12.2.08.37.2.5.34.16.16.27.32.35.5.1.2.13.4.13.63 0 .22-.04.43-.12.62-.07.2-.18.37-.33.5-.14.15-.3.27-.5.35-.2.08-.4.12-.6.12-.23 0-.44-.04-.63-.12-.2-.08-.36-.2-.5-.34-.14-.15-.25-.3-.33-.5-.08-.2-.12-.4-.12-.63zm2.34 0c0-.2-.08-.4-.22-.54-.15-.16-.33-.24-.54-.24-.22 0-.4.08-.54.23-.15.14-.22.32-.22.53 0 .22.07.4.22.55.14.15.32.23.54.23.2 0 .4-.07.54-.22s.22-.33.22-.55zm-6.36-2.68c0-.22.04-.42.12-.6.08-.2.2-.37.34-.52.14-.14.3-.26.5-.34.2-.1.4-.13.6-.13.23 0 .44.04.63.12.2.07.36.2.5.33.14.15.25.3.34.5.07.2.1.4.1.62 0 .22-.03.43-.1.62-.1.2-.2.36-.35.5-.14.15-.3.26-.5.34-.2.1-.4.14-.62.14-.2 0-.42-.05-.6-.13-.2-.07-.37-.18-.5-.33-.15-.14-.27-.3-.35-.5-.08-.2-.12-.4-.12-.62zm2.33 0c0-.2-.08-.4-.23-.54-.14-.14-.32-.22-.54-.22-.2 0-.4.08-.54.23-.15.16-.23.34-.23.55 0 .2.08.4.22.55.14.14.32.22.53.22.22 0 .4-.07.54-.22.15-.16.22-.34.22-.55zm2.54-1.74l.67.38-3.3 5.8-.6-.34 3.24-5.83zM160.94 202.2h3.03v.53h-3.6v-5.67h3.5v.53h-2.93v1.92h2.75v.53h-2.76v2.15M166.65 200.86c-.14 0-.3 0-.5.02s-.4.05-.58.1c-.18.05-.34.13-.47.24-.13.1-.2.25-.2.43 0 .13.03.23.08.32.05.1.12.16.2.22.1.04.18.08.3.1s.2.04.3.04c.2 0 .36-.03.5-.1.14-.06.26-.14.36-.25.1-.12.16-.25.2-.4.05-.14.08-.3.08-.47v-.27h-.27zm.27-.43v-.1c0-.64-.32-.96-.96-.96-.44 0-.82.14-1.15.44l-.3-.37c.34-.36.87-.54 1.58-.54.18 0 .35 0 .52.07.17.05.32.13.44.24.12.12.22.26.3.42.07.17.1.36.1.6v1.67c0 .13 0 .28.02.44l.05.4h-.5l-.04-.3v-.32h-.03c-.15.25-.33.43-.54.54-.22.1-.48.16-.8.16-.15 0-.3-.02-.47-.06-.15-.05-.3-.12-.4-.2-.13-.1-.22-.22-.3-.36-.07-.13-.1-.3-.1-.47 0-.3.07-.55.23-.72.16-.16.36-.3.6-.38.23-.08.48-.14.75-.16l.75-.03h.27zM170.25 199.87c-.08-.15-.18-.28-.32-.37-.13-.1-.3-.13-.5-.13-.08 0-.17 0-.26.03-.1.02-.18.05-.25.1-.08.05-.14.1-.18.17-.05.07-.07.16-.07.26 0 .17.06.3.18.38.13.1.3.16.55.22l.54.13c.26.06.48.17.65.35.17.18.25.4.25.67 0 .2-.04.38-.12.53-.08.14-.2.26-.33.36-.14.1-.3.16-.47.2-.17.04-.35.06-.53.06-.3 0-.56-.05-.8-.16-.26-.1-.47-.3-.64-.56l.45-.32c.12.17.25.3.42.4.16.1.35.16.58.16.1 0 .2 0 .32-.03.1-.02.2-.06.28-.1.08-.06.15-.12.2-.2.05-.08.08-.18.08-.28 0-.2-.07-.32-.2-.4-.15-.1-.32-.15-.52-.2l-.5-.12-.27-.08c-.12-.04-.22-.1-.33-.17-.1-.07-.2-.17-.27-.3-.07-.1-.1-.26-.1-.43 0-.2.03-.36.1-.5.1-.15.2-.27.32-.36.13-.1.28-.16.44-.2.17-.05.34-.07.52-.07.26 0 .5.04.72.14s.4.27.52.52l-.47.3zM173.2 199.46h-1.07v2.2c0 .15.02.26.04.35.03.1.07.17.1.22.06.04.12.08.2.1l.2.02c.1 0 .2 0 .3-.04.08-.02.17-.06.25-.1l.02.5c-.2.08-.43.12-.7.12-.1 0-.2 0-.32-.04-.1-.02-.2-.07-.3-.15-.1-.07-.17-.17-.23-.3-.07-.13-.1-.3-.1-.5v-2.37h-.8v-.48h.8v-1.05h.53v1.05h1.08v.48zM176.3 200.7h2.45l-1.23-2.96-1.23 2.97zm-.85 2.03h-.67l2.47-5.67h.56l2.47 5.67h-.67l-.63-1.5h-2.9l-.62 1.5zM182.43 199.87c-.08-.15-.2-.28-.32-.37-.12-.1-.3-.13-.48-.13-.1 0-.18 0-.27.03-.1.02-.18.05-.26.1-.08.05-.14.1-.2.17-.03.07-.06.16-.06.26 0 .17.07.3.2.38.1.1.3.16.54.22l.54.13c.26.06.48.17.65.35.17.18.26.4.26.67 0 .2-.04.38-.13.53-.08.14-.2.26-.32.36-.14.1-.3.16-.47.2-.17.04-.35.06-.53.06-.3 0-.55-.05-.8-.16s-.46-.3-.64-.56l.46-.32c.1.17.23.3.4.4.16.1.35.16.57.16.1 0 .22 0 .32-.03.1-.02.2-.06.28-.1.08-.06.15-.12.2-.2.05-.08.07-.18.07-.28 0-.2-.07-.32-.2-.4-.14-.1-.3-.15-.5-.2l-.52-.12-.26-.08c-.1-.04-.22-.1-.32-.17s-.2-.17-.27-.3c-.07-.1-.1-.26-.1-.43 0-.2.03-.36.1-.5.08-.15.2-.27.32-.36.13-.1.28-.16.44-.2.17-.05.34-.07.5-.07.27 0 .52.04.74.14.22.1.4.27.52.52l-.47.3zM184.22 197.54c0 .12-.04.2-.12.28s-.17.1-.26.1c-.1 0-.2-.03-.27-.1-.08-.07-.12-.16-.12-.28 0-.1.04-.2.12-.27.08-.07.17-.1.27-.1s.18.03.26.1.12.16.12.27zm-.12 5.2h-.53v-3.76h.53v3.75zM187.1 200.86c-.13 0-.3 0-.5.02s-.4.05-.57.1c-.2.05-.35.13-.48.24-.13.1-.2.25-.2.43 0 .13.03.23.08.32.05.1.12.16.2.22.1.04.2.08.3.1s.2.04.3.04c.2 0 .37-.03.5-.1.15-.06.27-.14.36-.25.1-.12.16-.25.2-.4.05-.14.07-.3.07-.47v-.27h-.27zm.27-.43v-.1c0-.64-.32-.96-.96-.96-.42 0-.8.14-1.13.44l-.32-.37c.35-.36.88-.54 1.58-.54.18 0 .36 0 .53.07.16.05.3.13.43.24.12.12.2.26.3.42.06.17.1.36.1.6v1.67c0 .13 0 .28.02.44l.05.4h-.52l-.03-.3v-.32h-.03c-.16.25-.35.43-.56.54-.2.1-.47.16-.77.16-.17 0-.33-.02-.48-.06-.16-.05-.3-.12-.42-.2-.12-.1-.22-.22-.3-.36-.06-.13-.1-.3-.1-.47 0-.3.08-.55.24-.72.15-.16.35-.3.6-.38.23-.08.48-.14.75-.16l.74-.03h.27zM192 199.94c-.18.1-.34.2-.47.3-.13.1-.24.2-.32.3-.07.1-.12.2-.16.33-.04.12-.06.25-.06.4 0 .15.03.3.1.43s.15.25.25.34c.1.1.23.17.37.22.14.06.3.08.44.08.16 0 .3-.02.42-.06.13-.04.24-.1.35-.18.12-.07.22-.16.32-.26s.2-.2.28-.33l-1.5-1.56zm1.2-1.75c0-.23-.1-.4-.24-.55s-.34-.2-.56-.2c-.24 0-.44.07-.6.22-.16.15-.24.35-.24.6 0 .1.02.2.06.3l.16.3c.07.1.13.18.2.25.06.08.12.14.17.18l.34-.2c.12-.07.23-.14.33-.23s.2-.18.26-.3c.06-.1.1-.23.1-.38zm1 3.22l1.28 1.3h-.82l-.8-.82c-.23.3-.48.54-.75.7-.26.2-.58.27-.97.27-.23 0-.46-.03-.67-.1s-.4-.18-.57-.32c-.17-.14-.3-.3-.4-.5s-.14-.44-.14-.7c0-.2.03-.4.1-.56.07-.18.16-.33.28-.47.12-.14.26-.26.42-.37.15-.1.3-.2.48-.27-.17-.2-.32-.4-.46-.62-.13-.22-.2-.46-.2-.72 0-.22.04-.4.1-.57.08-.18.18-.32.3-.43.14-.12.3-.2.46-.26.17-.05.35-.08.56-.08.18 0 .36.03.52.1.17.04.32.12.44.23.13.1.22.24.3.4.07.15.1.33.1.54 0 .18-.03.35-.1.5-.08.14-.18.27-.3.4-.12.1-.25.22-.4.3-.15.1-.3.2-.44.26l1.3 1.35.78-1.34h.65l-1.04 1.76zM199.54 199.46h-1.08v2.2c0 .15 0 .26.04.35.03.1.06.17.1.22.06.04.12.08.18.1l.22.02c.1 0 .2 0 .28-.04.1-.02.2-.06.27-.1l.02.5c-.2.08-.43.12-.7.12-.1 0-.22 0-.33-.04-.1-.02-.2-.07-.3-.15-.1-.07-.16-.17-.22-.3-.06-.13-.1-.3-.1-.5v-2.37h-.78v-.48h.8v-1.05h.52v1.05h1.08v.48zM199.86 196.68h.53v2.9c.06-.1.14-.2.23-.28.1-.08.2-.16.3-.22.1-.06.23-.1.36-.14.1-.04.24-.05.36-.05.48 0 .84.1 1.06.37.23.25.35.6.35 1.08v2.38h-.53v-2.07c0-.42-.07-.74-.22-.96-.14-.22-.4-.33-.8-.33-.02 0-.1 0-.22.03-.12.02-.25.08-.4.18-.12.1-.24.24-.35.43-.1.2-.16.47-.16.8v1.93h-.54v-6.05zM206.82 200.57c0-.36-.1-.65-.32-.87-.2-.22-.5-.33-.9-.33-.16 0-.33.03-.5.1-.15.06-.3.15-.4.27s-.23.24-.3.38c-.07.14-.1.3-.1.45h2.52zm-2.54.43c0 .2.06.36.13.53.1.16.2.3.3.42.13.12.27.22.43.3.16.06.34.1.52.1.3 0 .53-.07.73-.2.2-.13.37-.3.47-.46l.4.33c-.2.28-.46.5-.73.6-.27.13-.56.2-.87.2-.27 0-.53-.06-.77-.15-.24-.1-.44-.24-.6-.42-.18-.17-.32-.38-.42-.62-.1-.24-.14-.5-.14-.78 0-.3.04-.55.14-.8.1-.23.23-.44.4-.6.17-.2.37-.32.6-.42.23-.1.48-.15.74-.15.3 0 .54.04.76.14.23.1.42.24.57.4.15.17.27.37.35.6s.12.47.12.72v.24h-3.12zM210.55 199.57h.93c.25 0 .47-.03.65-.08.18-.07.32-.14.43-.23.1-.08.18-.2.23-.3s.06-.26.06-.4c0-.13-.02-.26-.07-.38s-.14-.23-.24-.32c-.1-.1-.25-.16-.43-.2-.18-.07-.4-.1-.65-.1h-.93v2zm-.58-2.5h1.65c.58 0 1.03.12 1.37.37.32.25.5.63.5 1.13 0 .5-.18.9-.5 1.15-.35.25-.8.38-1.38.38h-1.07v2.63h-.58v-5.67zM216.1 200.86c-.13 0-.3 0-.5.02s-.4.05-.57.1c-.2.05-.35.13-.48.24-.13.1-.2.25-.2.43 0 .13.03.23.08.32.05.1.12.16.2.22.1.04.2.08.3.1s.2.04.3.04c.2 0 .37-.03.5-.1.15-.06.27-.14.36-.25.1-.12.16-.25.2-.4.05-.14.07-.3.07-.47v-.27h-.27zm.27-.43v-.1c0-.64-.32-.96-.96-.96-.42 0-.8.14-1.13.44l-.32-.37c.35-.36.88-.54 1.58-.54.18 0 .36 0 .53.07.16.05.3.13.43.24.12.12.2.26.3.42.06.17.1.36.1.6v1.67c0 .13 0 .28.02.44l.05.4h-.52l-.03-.3v-.32h-.03c-.17.25-.35.43-.56.54-.2.1-.47.16-.77.16-.17 0-.33-.02-.48-.06-.17-.05-.3-.12-.42-.2-.12-.1-.22-.22-.3-.36-.06-.13-.1-.3-.1-.47 0-.3.08-.55.24-.72.15-.16.35-.3.6-.38.23-.08.48-.14.75-.16l.74-.03h.27zM220.45 199.86c-.1-.14-.2-.25-.38-.35-.16-.1-.35-.13-.55-.13-.22 0-.42.02-.6.1-.16.07-.3.18-.43.3-.14.15-.23.3-.3.5-.06.17-.1.37-.1.6 0 .2.04.4.1.58.07.2.16.34.3.48.1.13.26.23.43.3.17.08.37.12.6.1.2 0 .38-.03.54-.13.17-.1.3-.2.38-.35l.44.33c-.2.2-.4.38-.65.48-.23.1-.48.16-.73.16-.3 0-.58-.04-.83-.14s-.46-.23-.63-.4-.3-.4-.4-.64c-.1-.24-.14-.5-.14-.8 0-.27.05-.53.14-.77.1-.25.22-.46.4-.63s.38-.3.62-.4c.24-.1.5-.16.82-.15.25 0 .5.05.73.15.24.1.45.27.63.48l-.43.33zM221.95 197.54c0 .12-.04.2-.12.28s-.17.1-.27.1-.18-.03-.26-.1-.12-.16-.12-.28c0-.1.04-.2.12-.27s.17-.1.27-.1.18.03.26.1.12.16.12.27zm-.12 5.2h-.53v-3.76h.53v3.75zM225.84 197.54c0 .12-.04.2-.12.28s-.16.1-.26.1-.18-.03-.26-.1-.12-.16-.12-.28c0-.1.04-.2.12-.27s.16-.1.26-.1.18.03.26.1.13.16.13.27zm-.12 5.2h-.52v-3.76h.53v3.75zm-1.28-3.28h-.88v3.27h-.53v-3.27h-.8v-.48h.8v-1.02c0-.5.1-.85.34-1.06.23-.2.54-.32.9-.32.1 0 .16 0 .24.02.1 0 .17.02.24.04l-.1.48-.2-.04-.2-.02c-.15 0-.26.03-.36.08-.1.04-.16.1-.2.2s-.08.2-.1.3c-.02.13-.02.25-.02.38v.96h.9v.48h-.02zM229.32 199.86c-.1-.14-.2-.25-.38-.35-.16-.1-.34-.13-.55-.13-.23 0-.43.02-.6.1-.17.07-.32.18-.44.3-.13.15-.22.3-.28.5-.07.17-.1.37-.1.6 0 .2.03.4.1.58.06.2.15.34.28.48.12.13.27.23.44.3.17.08.37.12.6.1.2 0 .38-.03.54-.13.17-.1.3-.2.38-.35l.44.33c-.2.2-.4.38-.64.48-.23.1-.48.16-.73.16-.32 0-.6-.04-.83-.14-.25-.1-.46-.23-.63-.4-.18-.2-.3-.4-.4-.64-.1-.24-.13-.5-.13-.8 0-.27.05-.53.14-.77.1-.25.22-.46.4-.63.17-.18.38-.3.63-.4s.52-.16.82-.15c.24 0 .5.05.72.15.24.1.45.27.64.48l-.44.33z"/><path fill="#FFF" class="text-light" d="M114.45 167.96l2.2-1.98c.1-.1.22-.2.33-.34.12-.13.17-.28.17-.45 0-.2-.07-.35-.2-.46-.15-.1-.3-.17-.5-.17-.22 0-.4.08-.52.2-.12.15-.2.32-.2.53l-1.2-.1c0-.3.07-.54.17-.76s.25-.4.43-.54c.17-.14.38-.25.62-.32.23-.07.5-.1.77-.1.26 0 .5.03.72.1.22.07.42.18.58.32.17.14.3.32.4.53.08.22.13.46.13.75 0 .18-.02.34-.05.5s-.1.27-.16.4c-.07.1-.15.22-.24.32l-.3.3-1.7 1.47h2.5v1.06h-3.95v-1.27zM120.7 164.9l-1.14 1-.68-.77 1.85-1.56h1.12v5.66h-1.16v-4.32M126.8 167.74c0-.22.03-.43.1-.62.1-.2.2-.36.35-.5.14-.15.3-.26.5-.34.2-.1.4-.13.62-.13.22 0 .42.04.6.13.2.08.37.2.5.34.15.14.27.3.35.5.08.2.12.4.12.6 0 .23-.04.44-.12.64-.08.2-.2.36-.34.5-.14.15-.3.26-.5.34-.2.1-.4.13-.6.13-.23 0-.44-.04-.63-.13-.2-.08-.36-.2-.5-.34s-.25-.3-.34-.5c-.07-.2-.1-.4-.1-.63zm2.33 0c0-.22-.08-.4-.22-.55-.14-.16-.32-.23-.53-.23-.22 0-.4.07-.54.22-.15.14-.22.32-.22.54 0 .2.08.4.23.55.14.14.32.2.54.2.2 0 .4-.06.54-.2.15-.16.23-.35.23-.56zm-6.36-2.68c0-.22.04-.43.12-.62s.2-.36.33-.5.3-.26.5-.34c.2-.1.4-.13.6-.13.23 0 .44.04.63.13.2.08.36.2.5.34s.25.3.33.5c.08.2.12.4.12.62 0 .22-.04.42-.13.6-.1.2-.2.37-.34.52-.14.14-.3.25-.5.34-.2.08-.4.12-.62.12-.22 0-.42-.04-.6-.12-.2-.1-.37-.2-.5-.34-.15-.15-.27-.32-.35-.5-.1-.2-.13-.4-.13-.62zm2.33 0c0-.22-.07-.4-.22-.55s-.32-.2-.54-.2c-.2 0-.4.06-.54.2-.14.16-.22.34-.22.56 0 .2.08.4.22.54.15.15.33.22.54.22.22 0 .4-.07.54-.22.15-.15.22-.33.22-.54zm2.55-1.75l.67.4-3.3 5.8-.6-.36 3.23-5.83zM135.8 160.92c-.26-.37-.63-.55-1.1-.55-.15 0-.3.02-.44.06s-.28.1-.4.18c-.1.1-.2.2-.27.33-.08.13-.1.3-.1.46 0 .25.06.45.2.6.15.13.33.25.54.34.2.1.45.17.7.24.25.07.5.17.7.3.2.1.4.27.53.46.15.2.22.47.22.8 0 .27-.06.5-.17.7-.1.2-.26.38-.44.52s-.38.25-.6.32c-.23.08-.45.1-.67.1-.35 0-.68-.05-1-.18-.3-.13-.57-.35-.8-.65l.53-.37c.13.2.3.37.52.5.2.12.47.18.77.18.15 0 .3-.02.43-.06.15-.05.28-.12.4-.2.1-.1.2-.2.28-.33.07-.13.1-.27.1-.44 0-.2-.03-.36-.12-.5-.08-.12-.2-.23-.32-.32-.14-.08-.3-.15-.47-.2-.17-.07-.35-.12-.53-.18l-.54-.2c-.17-.08-.33-.17-.47-.3-.12-.1-.23-.25-.3-.42-.1-.17-.14-.4-.14-.65 0-.27.05-.5.16-.7.1-.2.24-.38.4-.52.2-.13.38-.23.6-.3.22-.06.45-.1.67-.1.32 0 .6.06.87.16.26.1.5.27.73.53l-.5.4zM140.18 163.78c0-.2-.04-.4-.1-.6-.07-.17-.17-.33-.3-.46-.1-.13-.26-.24-.43-.32-.18-.07-.37-.1-.6-.1-.2 0-.4.03-.58.1-.17.08-.32.2-.44.32-.12.13-.2.3-.28.47-.07.17-.1.37-.1.58s.03.4.1.58c.07.18.16.34.28.47s.27.24.44.32c.17.08.37.1.6.1.2 0 .4-.02.58-.1.17-.08.32-.18.44-.32s.2-.3.28-.47c.06-.18.1-.38.1-.6v.02zm.57 0c0 .28-.05.54-.15.78s-.23.45-.4.62c-.18.18-.4.32-.64.4s-.5.16-.8.16c-.3 0-.55-.05-.8-.15-.24-.1-.45-.24-.62-.42-.18-.17-.32-.38-.42-.62-.1-.24-.14-.5-.14-.8 0-.27.04-.53.14-.77.1-.25.24-.46.42-.63.17-.18.38-.3.62-.4.25-.1.5-.16.8-.16.3 0 .56.06.8.16.25.1.46.23.63.4.17.18.3.4.4.63.1.23.15.5.15.78zM144 165.65v-.3-.3h-.03c-.05.1-.13.2-.22.28l-.3.22c-.1.06-.23.1-.36.14-.13.03-.26.04-.38.04-.48 0-.84-.12-1.07-.38-.22-.25-.34-.6-.34-1.08v-2.38h.54v2.07c0 .2 0 .4.05.56.02.16.07.3.15.4.08.1.18.2.3.25.14.05.3.08.5.08.03 0 .1 0 .23-.03.12-.02.25-.08.4-.18.12-.1.24-.24.35-.43.1-.2.16-.46.16-.8v-1.92h.52v3.32l.04.43H144zM147.3 162.38h-1.1v2.2c0 .15.03.26.05.35.03.1.07.16.12.2.04.05.1.1.17.1.07.03.14.03.22.03.1 0 .18 0 .28-.04.1-.02.18-.06.26-.1l.03.5c-.2.08-.44.12-.72.12-.1 0-.2 0-.3-.04-.1-.02-.2-.07-.3-.15-.1-.07-.17-.17-.23-.3-.05-.13-.08-.3-.08-.5v-2.37h-.8v-.48h.8v-1.05h.5v1.05h1.1v.48zM147.62 159.6h.52v2.9h.02c.06-.1.13-.2.22-.28l.3-.22s.24-.1.36-.14c.13-.04.25-.05.37-.05.5 0 .85.13 1.08.4.23.24.34.6.34 1.07v2.38h-.53v-2.08c0-.4-.08-.73-.22-.95-.15-.22-.4-.33-.8-.33l-.23.02c-.12.02-.25.08-.38.18-.14.1-.26.24-.37.43-.1.2-.16.46-.16.8v1.92h-.53v-6.05h.02zM154.42 163.63h2.46l-1.23-2.97-1.23 2.97zm-.84 2.02h-.67l2.47-5.67h.56l2.47 5.67h-.67l-.63-1.5h-2.9l-.62 1.5zM160.56 162.8c-.08-.16-.2-.3-.32-.38-.13-.1-.3-.13-.5-.13-.08 0-.17 0-.27.02s-.17.06-.25.1c-.07.05-.13.1-.18.17s-.07.15-.07.25c0 .17.07.3.2.38s.3.15.54.2l.55.14c.26.06.48.18.65.35s.26.4.26.67c0 .2-.04.37-.13.5-.08.16-.2.28-.32.37-.13.1-.3.17-.46.2-.18.05-.36.07-.54.07-.3 0-.55-.05-.8-.16-.25-.1-.46-.3-.64-.57l.46-.3c.1.18.24.3.4.4.17.1.36.16.58.16.1 0 .22 0 .32-.03s.2-.07.3-.12c.07-.04.14-.1.2-.18.04-.08.06-.17.06-.28 0-.2-.07-.32-.2-.4-.14-.1-.3-.15-.5-.2l-.52-.12-.26-.08c-.1-.04-.22-.1-.32-.17s-.2-.17-.27-.3c-.06-.1-.1-.26-.1-.43 0-.2.04-.36.1-.5.1-.15.2-.27.33-.36.13-.1.28-.16.44-.2s.34-.07.5-.07c.27 0 .52.06.74.16.23.1.4.27.53.52l-.47.3zM162.35 160.46c0 .1-.04.2-.12.28-.08.07-.17.1-.26.1-.1 0-.2-.03-.27-.1-.08-.07-.12-.17-.12-.28 0-.1.04-.2.12-.27s.17-.12.27-.12.18.04.26.1.12.17.12.28zm-.12 5.2h-.53v-3.76h.53v3.75zM165.23 163.78c-.13 0-.3 0-.5.02s-.4.05-.57.1c-.2.05-.35.13-.48.24-.13.1-.2.25-.2.43 0 .13.03.23.08.32s.12.15.2.2.2.1.3.13.2.03.3.03c.2 0 .37-.03.5-.1.15-.06.27-.14.36-.25.1-.1.17-.23.2-.38.06-.14.08-.3.08-.47v-.27h-.27zm.27-.43v-.1c0-.64-.32-.96-.96-.96-.43 0-.82.13-1.14.43l-.32-.38c.35-.36.88-.54 1.58-.54.18 0 .36.03.53.1.15.04.3.12.42.23s.22.25.3.4c.07.18.1.38.1.6v1.68l.03.46c0 .16.03.3.04.4h-.52l-.03-.3-.02-.32c-.17.25-.35.43-.56.54-.2.1-.47.16-.77.16-.17 0-.33-.02-.48-.07-.16-.04-.3-.1-.4-.2-.13-.1-.23-.2-.3-.35-.07-.13-.1-.3-.1-.47 0-.3.07-.55.23-.72.15-.17.35-.3.6-.4.23-.07.48-.13.75-.15l.74-.03h.26zM133.7 170.5h1c.27 0 .48-.04.66-.1.18-.05.32-.12.43-.2s.17-.2.22-.32.07-.25.07-.4c0-.12-.03-.25-.08-.37s-.12-.2-.23-.3c-.12-.1-.26-.16-.44-.2-.18-.06-.4-.1-.65-.1h-1v2zm0 3.15h-.6v-5.67h1.76c.57 0 1.03.13 1.36.38.33.25.5.63.5 1.13 0 .4-.12.72-.37 1-.25.26-.6.42-1.08.46l1.63 2.7h-.7l-1.55-2.64h-.96v2.63zM140.18 171.5c0-.37-.1-.66-.32-.88-.22-.22-.52-.33-.9-.33-.17 0-.34.02-.5.1-.16.05-.3.14-.42.26-.12.1-.2.24-.28.38-.08.14-.1.3-.1.45h2.52zm-2.55.42c.02.2.06.36.14.53.07.16.17.3.3.43.12.1.26.2.42.28.15.07.32.1.5.1.3 0 .53-.06.74-.2.2-.12.36-.27.47-.45l.42.35c-.23.28-.48.5-.75.6-.26.13-.55.2-.86.2-.27 0-.53-.06-.77-.15-.23-.1-.44-.24-.6-.42s-.3-.38-.4-.62c-.1-.24-.16-.5-.16-.78 0-.3.05-.55.15-.8.1-.23.22-.43.4-.6.17-.2.37-.32.6-.42.22-.1.47-.15.74-.15.28 0 .53.06.76.16.22.1.4.24.56.4.15.17.27.37.35.6.08.22.12.47.12.72v.24h-3.12zM141.7 171.73c0 .2.03.38.1.55.07.18.17.33.3.46.12.13.27.23.44.3.17.1.35.13.55.13.18 0 .36-.04.53-.1.18-.07.33-.17.46-.3.13-.12.23-.27.3-.45.07-.18.1-.37.1-.6 0-.2-.03-.37-.1-.55-.06-.17-.15-.32-.27-.45-.13-.13-.28-.24-.45-.32-.18-.07-.37-.1-.6-.1-.2 0-.37.03-.54.1-.17.08-.32.2-.44.32-.13.13-.23.28-.3.45-.07.18-.1.36-.1.56zm-.1 2.67c.15.2.35.37.6.5.25.12.53.2.83.2.27 0 .5-.05.68-.13.2-.08.35-.18.46-.32.12-.13.2-.28.25-.46.06-.2.1-.38.1-.6v-.66h-.03c-.17.26-.38.44-.62.55-.25.1-.5.15-.78.15s-.53-.05-.76-.15c-.23-.1-.44-.23-.6-.4s-.33-.36-.43-.6-.15-.5-.15-.76c0-.27.05-.52.14-.76.1-.23.23-.44.4-.6.17-.2.37-.33.6-.43.23-.1.5-.14.76-.14.1 0 .23.02.36.04s.25.06.37.1c.13.06.25.14.38.23s.23.2.34.36h.02v-.63h.5v3.7c0 .22 0 .43-.06.66-.05.23-.15.44-.3.63s-.35.35-.6.47c-.27.13-.6.2-1.03.2-.37 0-.7-.07-1-.2-.3-.1-.55-.3-.8-.56l.4-.4zM146.57 168.46c0 .1-.04.2-.12.28-.08.07-.17.1-.27.1s-.18-.03-.26-.1c-.08-.07-.12-.17-.12-.28 0-.1.04-.2.12-.27s.17-.12.26-.12c.1 0 .2.04.27.1.08.08.12.17.12.28zm-.12 5.2h-.53v-3.76h.53v3.75zM150.53 171.78c0-.2-.04-.4-.1-.6-.07-.17-.16-.33-.3-.46-.1-.13-.26-.24-.43-.32-.17-.07-.37-.1-.6-.1-.2 0-.4.03-.58.1-.17.08-.32.2-.44.32-.12.13-.2.3-.28.47-.06.17-.1.37-.1.58s.04.4.1.58c.07.18.16.34.28.47s.27.24.44.32c.18.08.37.1.6.1.2 0 .4-.02.58-.1.17-.08.32-.18.44-.32s.22-.3.3-.47c.05-.18.1-.38.1-.6v.02zm.57 0c0 .28-.05.54-.14.78s-.24.45-.42.62-.38.32-.62.4c-.25.1-.52.16-.8.16-.3 0-.56-.05-.8-.15-.25-.1-.46-.24-.63-.42s-.33-.38-.42-.62-.15-.5-.15-.8c0-.27.05-.53.15-.77.1-.25.23-.46.4-.63.18-.18.4-.3.64-.4.24-.1.5-.16.8-.16.28 0 .55.06.8.16.24.1.45.23.62.4.18.18.32.4.42.63.1.23.14.5.14.78zM152.17 169.9c0 .1 0 .2.02.3v.3c.07-.1.14-.2.23-.28l.3-.22c.12-.06.24-.1.36-.14.12-.04.24-.05.36-.05.48 0 .84.13 1.07.4.23.24.34.6.34 1.07v2.38h-.53v-2.08c0-.4-.07-.73-.2-.95-.16-.22-.42-.33-.8-.33l-.24.02c-.12.02-.25.08-.4.18-.12.1-.24.24-.35.43-.1.2-.16.46-.16.8v1.92h-.54v-2.92-.4l-.04-.43h.55zM202.7 165.04h-2.26l-.02.87c.12-.03.3-.05.5-.05.3 0 .55.04.8.13.23.08.44.2.6.37.2.16.32.36.42.6.1.22.14.48.14.77 0 .32-.05.6-.16.86-.1.25-.26.46-.45.63s-.42.32-.7.4c-.25.1-.54.14-.85.14-.5 0-.9-.12-1.23-.36-.34-.24-.57-.6-.7-1.08l1.27-.3c.03.2.1.38.25.5.14.13.3.2.52.2.26 0 .46-.1.6-.25.17-.16.24-.36.24-.6 0-.2-.04-.35-.1-.47s-.2-.22-.32-.3c-.12-.06-.26-.1-.42-.13-.15-.03-.3-.04-.46-.04-.2 0-.4.03-.6.06-.2.04-.4.1-.58.15l.07-3.1h3.42v1.04zM203.28 168.38l2.2-1.98c.1-.1.23-.22.34-.35.1-.12.17-.27.17-.44 0-.18-.08-.33-.22-.44-.14-.1-.3-.17-.5-.17s-.4.06-.5.2c-.14.14-.2.3-.23.5l-1.2-.08c.02-.3.08-.54.2-.76s.24-.4.4-.54c.2-.14.4-.25.63-.32.24-.08.5-.1.77-.1.26 0 .5.02.72.1.23.07.42.18.6.32.15.14.28.3.38.53.1.2.14.46.14.74 0 .17-.03.34-.07.48s-.1.28-.16.4-.14.23-.23.33c-.1.12-.2.2-.3.3l-1.72 1.5h2.5v1.05h-3.94v-1.27zM211.3 168.15c0-.22.03-.42.1-.6.1-.2.2-.37.35-.52.14-.14.3-.26.5-.34.2-.1.4-.13.62-.13.22 0 .42.04.6.12.2.07.37.2.5.33.15.15.27.3.35.5.08.2.12.4.12.62 0 .22-.04.43-.12.62-.08.2-.2.37-.34.5-.14.15-.3.27-.5.35-.2.08-.4.12-.6.12-.23 0-.44-.04-.63-.12-.2-.08-.36-.2-.5-.34s-.25-.3-.34-.5c-.07-.2-.1-.4-.1-.63zm2.33 0c0-.2-.08-.4-.22-.54s-.32-.22-.53-.22c-.22 0-.4.08-.54.23-.15.16-.22.34-.22.55 0 .22.08.4.23.55.14.15.32.23.54.23.2 0 .4-.08.54-.23.15-.14.23-.33.23-.55zm-6.36-2.68c0-.22.04-.42.12-.6s.18-.37.33-.52.3-.25.5-.34c.2-.07.4-.1.6-.1.23 0 .44.03.63.1.2.1.36.2.5.35s.25.3.33.5.12.4.12.62c0 .22-.04.43-.13.62-.1.18-.2.35-.34.5-.14.14-.3.25-.5.33-.2.1-.4.13-.62.13-.22 0-.42-.04-.6-.13-.2-.08-.37-.2-.5-.34-.16-.15-.27-.32-.35-.5-.1-.2-.13-.4-.13-.63zm2.33 0c0-.2-.07-.4-.22-.54s-.32-.23-.54-.23c-.2 0-.4.08-.54.23-.14.15-.22.33-.22.54 0 .22.08.4.22.55.15.15.33.22.54.22.22 0 .4-.07.54-.22.15-.15.22-.33.22-.55zm2.55-1.74l.67.37-3.3 5.8-.6-.34 3.23-5.83zM217.42 167.63h2.45l-1.22-2.97-1.23 2.97zm-.84 2.02h-.67l2.47-5.67h.56l2.46 5.67h-.68l-.62-1.5h-2.9l-.62 1.5zM223.3 166.38h-.88v3.27h-.52v-3.27h-.8v-.48h.8v-1.02c0-.5.1-.85.34-1.06.23-.2.53-.32.9-.32.1 0 .16 0 .24.02.08 0 .16.02.23.04l-.1.48-.18-.04-.2-.02c-.16 0-.28.03-.37.08s-.16.1-.2.2-.08.2-.1.3c-.02.13-.02.25-.02.38v.96h.88v.48zM223.6 167.07c0-.16 0-.33-.02-.5 0-.17 0-.4-.02-.67h.52v.7h.02c.03-.1.1-.2.16-.3.07-.1.15-.17.25-.24.1-.08.22-.14.35-.18.14-.05.28-.07.45-.07.15 0 .28.02.4.05l-.1.53c-.08-.03-.18-.04-.32-.04-.2 0-.37.03-.52.1-.14.1-.26.2-.36.3-.1.13-.16.26-.2.4-.06.14-.08.27-.08.4v2.1h-.53v-2.57zM226.56 164.46c0 .1-.04.2-.12.28-.08.07-.16.1-.26.1s-.2-.03-.27-.1-.1-.17-.1-.28c0-.1.03-.2.1-.27s.18-.12.28-.12c.1 0 .18.04.26.1.08.08.12.17.12.28zm-.12 5.2h-.53v-3.76h.54v3.75zM230.04 166.78c-.1-.14-.2-.25-.38-.35s-.35-.14-.55-.14c-.2-.02-.4.02-.58.1-.18.06-.32.17-.45.3-.12.14-.2.3-.28.48-.07.18-.1.38-.1.6 0 .2.03.4.1.6.06.18.15.34.27.47.13.13.27.24.45.3.17.1.37.12.6.1.2 0 .38-.03.54-.13.17-.1.3-.2.38-.35l.43.33c-.18.2-.4.38-.63.48-.23.1-.48.16-.73.16-.3 0-.57-.04-.82-.14-.24-.1-.45-.23-.63-.4s-.3-.4-.4-.64c-.08-.24-.13-.5-.13-.8 0-.27.05-.53.14-.77.1-.26.22-.47.4-.64s.38-.3.62-.4c.25-.1.52-.16.83-.15.26 0 .5.07.74.17s.45.27.63.48l-.43.33zM232.9 167.78c-.14 0-.3 0-.5.02s-.4.05-.58.1c-.18.05-.34.13-.47.24-.13.1-.2.25-.2.43 0 .13.03.23.08.32.05.08.12.15.2.2s.18.1.3.13l.3.03c.2 0 .36-.03.5-.1.14-.06.26-.14.36-.25.08-.1.15-.23.2-.38.04-.14.07-.3.07-.47v-.27h-.27zm.27-.43v-.1c0-.64-.32-.96-.96-.96-.43 0-.8.13-1.13.43l-.32-.38c.35-.36.88-.54 1.58-.54.18 0 .35.03.52.1.17.04.32.12.44.23s.2.25.3.4c.06.18.1.38.1.6v1.68c0 .15 0 .3.02.46 0 .16.03.3.04.4h-.5c-.03-.1-.04-.2-.05-.3v-.32c-.17.25-.35.43-.56.54-.2.1-.47.16-.77.16-.17 0-.33-.02-.48-.06-.17-.05-.3-.12-.43-.2-.12-.1-.2-.22-.28-.36-.08-.13-.12-.3-.12-.47 0-.3.08-.55.23-.72.17-.17.37-.3.6-.4.24-.07.5-.13.77-.15l.74-.03h.27z"/><path fill="#4F384A" class="text-dark" d="M24.48 198.17h-2.8v-1.1h4.14v1.05l-2.26 4.6h-1.4l2.32-4.55M30.26 201.23c0-.22.04-.42.13-.6.07-.2.18-.37.32-.52.14-.13.3-.25.5-.33.2-.08.4-.12.62-.12.22 0 .42.04.6.12.2.08.37.2.5.34.16.16.27.32.35.5.07.2.1.4.1.63 0 .22-.03.43-.1.62-.1.2-.2.37-.35.5-.14.15-.3.27-.5.35-.2.08-.4.12-.6.12-.23 0-.44-.04-.63-.12-.2-.08-.36-.2-.5-.34-.14-.15-.25-.3-.33-.5-.1-.2-.14-.4-.14-.63zm2.34 0c0-.2-.08-.4-.22-.54-.15-.16-.33-.24-.54-.24-.22 0-.4.08-.54.23-.15.14-.22.32-.22.53 0 .22.07.4.22.55.14.15.32.23.54.23.2 0 .4-.07.54-.22s.22-.33.22-.55zm-6.36-2.68c0-.22.04-.42.12-.6.08-.2.2-.37.34-.52.14-.14.3-.26.5-.34.2-.1.4-.13.6-.13.23 0 .44.04.63.12.2.07.36.2.5.33.14.15.25.3.34.5.08.2.12.4.12.62 0 .22-.05.43-.13.62-.1.2-.2.36-.34.5-.14.15-.3.26-.5.34-.2.1-.4.14-.62.14-.2 0-.4-.05-.6-.13-.2-.07-.36-.18-.5-.33-.14-.14-.26-.3-.34-.5-.08-.2-.12-.4-.12-.62zm2.33 0c0-.2-.07-.4-.22-.54-.14-.14-.32-.22-.54-.22-.2 0-.38.08-.53.23-.14.16-.22.34-.22.55 0 .2.08.4.22.55.15.14.33.22.54.22.23 0 .4-.07.55-.22.15-.16.22-.34.22-.55zm2.55-1.74l.67.38-3.3 5.8-.62-.34 3.24-5.83zM36.22 202.2h2.64v.53h-3.2v-5.67h.56v5.14M41.18 200.86c-.13 0-.3 0-.5.02s-.4.05-.57.1c-.18.05-.34.13-.47.24-.13.1-.2.25-.2.43 0 .13.03.23.08.32.06.1.13.16.22.22.08.04.18.08.28.1s.2.04.32.04c.2 0 .36-.03.5-.1.14-.06.26-.14.35-.25.1-.12.17-.25.22-.4.03-.14.05-.3.05-.47v-.27h-.27zm.27-.43v-.1c0-.64-.32-.96-.96-.96-.44 0-.83.14-1.15.44l-.32-.37c.35-.36.88-.54 1.58-.54.2 0 .37 0 .54.07.17.05.3.13.43.24.13.12.23.26.3.42.07.17.1.36.1.6v1.67l.03.44.05.4h-.52l-.03-.3v-.32h-.03c-.15.25-.34.43-.55.54-.2.1-.47.16-.77.16-.17 0-.33-.02-.48-.06-.15-.05-.3-.12-.4-.2-.13-.1-.23-.22-.3-.36-.07-.13-.1-.3-.1-.47 0-.3.07-.55.23-.72.16-.16.35-.3.6-.38.23-.08.48-.14.75-.16l.74-.03h.25zM44.74 199.46h-1.08v2.2c0 .15.02.26.04.35.03.1.07.17.1.22s.12.08.2.1l.2.02c.1 0 .2 0 .3-.04.08-.02.17-.06.25-.1l.02.5c-.2.08-.43.12-.7.12-.1 0-.22 0-.32-.04-.1-.02-.2-.07-.3-.15-.1-.07-.17-.17-.23-.3-.06-.13-.1-.3-.1-.5v-2.37h-.78v-.48h.8v-1.05h.52v1.05h1.08v.48zM45.83 197.54c0 .12-.04.2-.12.28s-.16.1-.25.1c-.1 0-.2-.03-.27-.1-.08-.07-.12-.16-.12-.28 0-.1.04-.2.12-.27s.17-.1.27-.1.18.03.26.1.13.16.13.27zm-.12 5.2h-.52v-3.76h.53v3.75zM47.1 198.98v.6h.03c.05-.1.13-.2.22-.28.1-.08.2-.16.3-.22.12-.06.23-.1.36-.14.13-.04.26-.05.38-.05.48 0 .84.1 1.07.37.22.25.34.6.34 1.08v2.38h-.54v-2.07c0-.42-.07-.74-.2-.96s-.43-.33-.8-.33c-.04 0-.12 0-.24.03-.12.02-.25.08-.4.18-.12.1-.24.24-.35.43-.1.2-.16.47-.16.8v1.93h-.52v-2.92-.38l-.04-.44h.55zM53.4 200.7h2.45l-1.23-2.96-1.23 2.97zm-.85 2.03h-.67l2.46-5.67h.56l2.47 5.67h-.68l-.63-1.5h-2.9l-.62 1.5zM57.54 199.8v-.4l-.04-.42h.57v.57h.02c.1-.22.3-.38.52-.5.22-.1.45-.16.67-.16.1 0 .2 0 .32.02l.33.1c.1.07.2.15.3.25.1.1.17.23.24.4.1-.25.26-.44.5-.57.23-.14.47-.2.72-.2.48 0 .83.1 1.06.37.23.25.35.6.35 1.08v2.38h-.53v-2.2c0-.37-.07-.66-.2-.86-.14-.2-.38-.3-.75-.3-.2 0-.36.03-.5.1-.13.1-.23.2-.32.32-.08.12-.14.26-.18.43-.03.16-.05.33-.05.5v2h-.53v-2.2c0-.37-.07-.66-.2-.86-.13-.2-.38-.3-.74-.3-.04 0-.1 0-.22.03-.1.02-.23.08-.35.17-.12.1-.23.24-.33.44s-.15.46-.15.8v1.93h-.53v-2.92zM66.87 200.57c0-.36-.1-.65-.32-.87-.2-.22-.5-.33-.9-.33-.17 0-.33.03-.5.1-.15.06-.3.15-.4.27-.13.1-.23.24-.3.38-.07.14-.1.3-.1.45h2.52zm-2.54.43c0 .2.06.36.13.53.08.16.17.3.3.42.12.12.26.22.42.3.16.06.33.1.52.1.28 0 .53-.07.73-.2.2-.13.36-.3.47-.46l.4.33c-.2.28-.46.5-.73.6-.27.13-.56.2-.87.2-.28 0-.53-.06-.77-.15-.24-.1-.44-.24-.6-.42-.18-.17-.32-.38-.42-.62-.08-.24-.13-.5-.13-.78 0-.3.04-.55.14-.8.1-.23.24-.44.4-.6.18-.2.38-.32.6-.42.24-.1.5-.15.75-.15.3 0 .54.04.76.14s.43.24.58.4.27.37.35.6c.08.22.12.47.12.72v.24h-3.12zM68.06 200.15v-.5c-.02-.17-.03-.4-.03-.67h.52v.7h.02c.03-.1.1-.2.16-.3.06-.1.15-.17.25-.24.1-.08.2-.14.34-.2.13-.03.28-.05.45-.05.14 0 .28 0 .4.03l-.12.52c-.07-.02-.17-.03-.3-.03-.2 0-.38.03-.52.1-.14.1-.26.2-.36.3-.1.13-.17.26-.2.4-.06.13-.08.27-.08.4v2.1h-.54v-2.57zM71.03 197.54c0 .12-.04.2-.12.28-.07.07-.16.1-.25.1s-.2-.03-.27-.1-.12-.16-.12-.28c0-.1.04-.2.12-.27s.17-.1.27-.1.18.03.26.1c.1.07.13.16.13.27zm-.12 5.2h-.52v-3.76h.53v3.75zM74.5 199.86c-.08-.14-.2-.25-.37-.35-.16-.1-.35-.13-.56-.13-.2 0-.4.02-.58.1-.2.07-.34.18-.46.3-.12.15-.2.3-.28.5-.06.17-.1.37-.1.6 0 .2.04.4.1.58.07.2.16.34.28.48.12.13.27.23.45.3.16.08.36.12.57.1.2 0 .4-.03.56-.13.16-.1.3-.2.38-.35l.44.33c-.18.2-.4.38-.63.48-.22.1-.47.16-.73.16-.3 0-.57-.04-.82-.14s-.46-.23-.63-.4c-.17-.2-.3-.4-.4-.64-.08-.24-.13-.5-.13-.8 0-.27.04-.53.13-.77.1-.25.22-.46.4-.63.17-.18.37-.3.62-.4.24-.1.52-.16.82-.15.26 0 .5.05.74.15.24.1.46.27.64.48l-.43.33zM77.37 200.86c-.14 0-.3 0-.5.02s-.4.05-.58.1c-.2.05-.35.13-.48.24-.13.1-.2.25-.2.43 0 .13.03.23.08.32.05.1.12.16.2.22.1.04.18.08.3.1s.2.04.3.04c.2 0 .36-.03.5-.1.14-.06.26-.14.36-.25s.16-.25.2-.4c.06-.14.08-.3.08-.47v-.27h-.27zm.27-.43v-.1c0-.64-.32-.96-.96-.96-.44 0-.82.14-1.15.44l-.32-.37c.37-.36.9-.54 1.6-.54.18 0 .35 0 .52.07.17.05.32.13.44.24.12.12.22.26.3.42.07.17.1.36.1.6v1.67c0 .13 0 .28.03.44 0 .15 0 .28.03.4h-.5c-.03-.1-.04-.2-.05-.3v-.32h-.03c-.15.25-.33.43-.54.54-.2.1-.46.16-.77.16-.16 0-.32-.02-.48-.06-.15-.05-.3-.12-.4-.2-.13-.1-.22-.22-.3-.36-.07-.13-.1-.3-.1-.47 0-.3.07-.55.23-.72.16-.16.36-.3.6-.38.23-.08.48-.14.75-.16l.74-.03h.27zM82.27 199.94c-.2.1-.35.2-.48.3-.14.1-.24.2-.32.3-.08.1-.14.2-.18.33-.04.12-.05.25-.05.4 0 .15.03.3.1.43s.14.25.25.34c.1.1.23.17.37.22.13.06.28.08.44.08.16 0 .3-.02.43-.06.12-.04.24-.1.35-.18.1-.07.2-.16.3-.26.1-.1.2-.2.3-.33l-1.5-1.56zm1.18-1.75c0-.23-.07-.4-.22-.55s-.34-.2-.56-.2c-.24 0-.44.07-.6.22-.17.15-.25.35-.25.6 0 .1.02.2.07.3.03.1.1.2.15.3.06.1.13.18.2.25l.16.18.36-.2c.12-.07.23-.14.34-.23s.2-.18.25-.3c.07-.1.1-.23.1-.38zm1.02 3.22l1.27 1.3h-.8l-.8-.82c-.25.3-.5.54-.77.7-.26.2-.6.27-.97.27-.24 0-.46-.03-.68-.1-.2-.08-.4-.18-.57-.32-.16-.14-.3-.3-.38-.5-.1-.2-.15-.44-.15-.7 0-.2.04-.4.1-.56.08-.18.17-.33.3-.47.1-.14.25-.26.4-.37.16-.1.32-.2.5-.27-.18-.2-.33-.4-.47-.62-.14-.22-.2-.46-.2-.72 0-.22.03-.4.1-.57.08-.18.18-.32.3-.43.13-.12.28-.2.45-.26.17-.05.36-.08.56-.08.2 0 .36.03.53.1.16.04.3.12.43.23.12.1.22.24.3.4.06.15.1.33.1.54 0 .18-.04.35-.1.5-.1.14-.18.27-.3.4s-.26.22-.4.3c-.16.1-.3.2-.45.26l1.3 1.35.78-1.34h.65l-1.03 1.76zM89.8 199.46h-1.07v2.2c0 .15 0 .26.04.35.02.1.06.17.1.22s.1.08.18.1l.22.02c.1 0 .18 0 .28-.04.1-.02.18-.06.26-.1l.04.5c-.2.08-.44.12-.7.12-.12 0-.22 0-.33-.04-.1-.02-.2-.07-.3-.15-.08-.07-.16-.17-.2-.3-.07-.13-.1-.3-.1-.5v-2.37h-.8v-.48h.8v-1.05h.53v1.05h1.08v.48zM90.13 196.68h.52v2.9h.02c.06-.1.13-.2.22-.28.08-.08.2-.16.3-.22.1-.06.23-.1.35-.14.13-.04.25-.05.38-.05.48 0 .83.1 1.06.37.22.25.33.6.33 1.08v2.38h-.52v-2.07c0-.42-.07-.74-.2-.96s-.42-.33-.8-.33c-.04 0-.1 0-.23.03-.13.02-.26.08-.4.18-.13.1-.25.24-.36.43-.1.2-.15.47-.15.8v1.93h-.52v-6.05zM97.1 200.57c0-.36-.12-.65-.33-.87-.22-.22-.52-.33-.9-.33-.17 0-.34.03-.5.1-.16.06-.3.15-.42.27s-.2.24-.28.38c-.08.14-.1.3-.1.45h2.52zm-2.56.43c.02.2.06.36.14.53.07.16.17.3.3.42.12.12.26.22.42.3s.33.1.52.1c.28 0 .52-.07.73-.2.2-.13.36-.3.47-.46l.4.33c-.22.28-.46.5-.73.6-.28.13-.57.2-.88.2-.28 0-.54-.06-.77-.15-.24-.1-.45-.24-.62-.42-.17-.17-.3-.38-.4-.62-.1-.24-.15-.5-.15-.78 0-.3.05-.55.15-.8s.23-.44.4-.6c.17-.2.37-.32.6-.42.23-.1.47-.15.74-.15.28 0 .54.04.76.14s.4.24.56.4c.15.17.26.37.34.6s.12.47.12.72v.24h-3.12zM104.9 201.83c-.1.15-.2.28-.35.4-.15.14-.3.25-.5.34-.17.1-.37.17-.58.22-.2.04-.43.07-.66.07-.42 0-.8-.07-1.17-.22-.36-.15-.67-.36-.93-.62-.27-.27-.47-.58-.62-.94-.15-.38-.23-.77-.23-1.2s.08-.83.23-1.2c.15-.36.35-.67.62-.94.26-.26.57-.47.93-.62.36-.15.75-.22 1.18-.22.36 0 .7.07 1.06.2.35.15.66.38.9.7l-.5.37c-.06-.1-.14-.2-.24-.28-.1-.1-.22-.17-.35-.24-.13-.07-.27-.12-.42-.17-.15-.03-.3-.05-.44-.05-.36 0-.68.07-.97.2-.3.13-.53.3-.73.54-.2.2-.36.47-.46.77-.1.3-.16.6-.16.93 0 .32.05.63.16.93.1.3.26.56.46.78.2.23.44.4.73.55.3.13.6.2.98.2.16 0 .3-.02.45-.04.15-.02.3-.07.43-.13.14-.06.28-.15.4-.26.13-.1.24-.24.35-.4l.47.33zM107.4 200.86c-.13 0-.3 0-.5.02s-.4.05-.57.1c-.18.05-.34.13-.47.24-.13.1-.2.25-.2.43 0 .13.03.23.08.32.05.1.12.16.2.22.1.04.18.08.3.1s.2.04.3.04c.2 0 .36-.03.5-.1.14-.06.26-.14.36-.25s.16-.25.2-.4c.06-.14.08-.3.08-.47v-.27h-.27zm.28-.43v-.1c0-.64-.32-.96-.96-.96-.44 0-.82.14-1.15.44l-.32-.37c.36-.36.88-.54 1.6-.54.17 0 .34 0 .5.07.18.05.33.13.45.24.12.12.22.26.3.42.07.17.1.36.1.6v1.67c0 .13 0 .28.03.44 0 .15.02.28.04.4h-.5c-.03-.1-.04-.2-.05-.3v-.32h-.03c-.16.25-.34.43-.55.54-.22.1-.47.16-.78.16-.16 0-.32-.02-.48-.06-.16-.05-.3-.12-.42-.2-.12-.1-.2-.22-.3-.36-.06-.13-.1-.3-.1-.47 0-.3.08-.55.24-.72.16-.16.36-.3.6-.38.23-.08.48-.14.75-.16l.74-.03h.28zM109.1 200.15l-.03-.5c0-.17 0-.4-.02-.67h.52v.7h.02c.03-.1.08-.2.15-.3.07-.1.15-.17.25-.24.1-.08.2-.14.35-.2.13-.03.27-.05.44-.05.14 0 .27 0 .38.03l-.1.52c-.07-.02-.17-.03-.3-.03-.2 0-.38.03-.53.1-.14.1-.26.2-.36.3s-.17.26-.22.4c-.04.13-.07.27-.07.4v2.1h-.5v-2.57zM112.05 197.54c0 .12-.04.2-.12.28s-.16.1-.26.1-.18-.03-.26-.1c-.07-.07-.1-.16-.1-.28 0-.1.03-.2.1-.27.1-.07.17-.1.27-.1s.18.03.26.1.12.16.12.27zm-.12 5.2h-.52v-3.76h.53v3.75zM116.22 200.85c0-.2-.03-.4-.1-.58-.07-.18-.16-.34-.28-.47-.13-.14-.27-.24-.45-.32-.18-.08-.38-.1-.6-.1-.2 0-.4.02-.6.1-.18.08-.33.2-.47.32-.13.13-.23.3-.3.47-.08.18-.12.38-.12.58s.05.4.12.6c.08.17.18.33.3.46.15.14.3.25.5.33.17.07.37.1.6.1.2 0 .4-.03.57-.1.17-.08.3-.2.44-.32.12-.12.2-.28.28-.46.07-.18.1-.38.1-.6zm-3.4-4.17h.5v2.93h.03c.1-.12.2-.23.3-.32.12-.1.24-.17.37-.22.13-.06.26-.1.4-.13.13-.03.26-.04.4-.04.28 0 .55.04.8.14.23.1.44.23.62.4.17.18.3.4.4.63.1.24.16.5.16.8 0 .27-.05.53-.15.77-.1.24-.24.45-.4.62-.2.18-.4.32-.64.42-.23.1-.5.14-.8.14-.12 0-.25 0-.38-.04-.14-.02-.27-.07-.4-.13s-.25-.13-.37-.22c-.1-.1-.2-.2-.3-.33h-.02v.63h-.52v-6.05zM120.7 200.85c0-.2-.02-.4-.1-.58-.06-.18-.15-.34-.27-.47-.13-.14-.28-.24-.45-.32-.17-.08-.37-.1-.6-.1-.2 0-.4.02-.6.1-.17.08-.33.2-.46.32-.13.13-.24.3-.3.47-.08.18-.12.38-.12.58s.04.4.1.6c.08.17.2.33.32.46.14.14.3.25.47.33.17.07.37.1.6.1.2 0 .4-.03.58-.1.17-.08.32-.2.45-.32.12-.12.2-.28.28-.46.08-.18.1-.38.1-.6zm-3.4-4.17h.52v2.93h.02c.08-.12.18-.23.3-.32.12-.1.24-.17.37-.22.14-.06.27-.1.4-.13.14-.03.27-.04.4-.04.3 0 .56.04.8.14s.45.23.63.4c.17.18.3.4.4.63.1.24.16.5.16.8 0 .27-.06.53-.16.77s-.24.45-.4.62c-.2.18-.4.32-.64.42-.24.1-.5.14-.8.14-.13 0-.26 0-.4-.04-.13-.02-.26-.07-.4-.13-.12-.05-.24-.13-.36-.22-.12-.1-.22-.2-.3-.33h-.02v.63h-.53v-6.05zM124.7 200.57c0-.36-.1-.65-.33-.87-.2-.22-.5-.33-.9-.33-.16 0-.33.03-.5.1-.15.06-.3.15-.4.27s-.22.24-.3.38c-.07.14-.1.3-.1.45h2.52zm-2.55.43c.02.2.06.36.14.53.06.16.16.3.28.42.12.12.27.22.43.3.17.06.34.1.53.1.28 0 .52-.07.73-.2.2-.13.36-.3.47-.46l.4.33c-.22.28-.47.5-.74.6-.28.13-.56.2-.87.2-.28 0-.54-.06-.78-.15-.23-.1-.44-.24-.6-.42-.18-.17-.3-.38-.4-.62-.1-.24-.16-.5-.16-.78 0-.3.04-.55.13-.8.1-.23.23-.44.4-.6.17-.2.37-.32.6-.42.23-.1.48-.15.75-.15.28 0 .53.04.76.14.22.1.4.24.56.4.15.17.27.37.35.6s.12.47.12.72v.24h-3.12zM127.96 200.86c-.14 0-.3 0-.5.02s-.4.05-.58.1c-.18.05-.34.13-.47.24-.12.1-.2.25-.2.43 0 .13.04.23.1.32.04.1.1.16.2.22.08.04.17.08.28.1s.2.04.3.04c.2 0 .37-.03.5-.1.16-.06.27-.14.37-.25.1-.12.17-.25.2-.4.06-.14.08-.3.08-.47v-.27h-.27zm.27-.43v-.1c0-.64-.32-.96-.96-.96-.44 0-.82.14-1.14.44l-.32-.37c.36-.36.9-.54 1.6-.54.17 0 .35 0 .5.07.18.05.33.13.45.24.12.12.22.26.3.42.07.17.1.36.1.6v1.67c0 .13 0 .28.03.44 0 .15.03.28.04.4h-.5c-.03-.1-.04-.2-.05-.3v-.32h-.02c-.16.25-.34.43-.55.54-.2.1-.47.16-.77.16-.17 0-.33-.02-.48-.06-.16-.05-.3-.12-.42-.2-.12-.1-.2-.22-.28-.36-.08-.13-.1-.3-.1-.47 0-.3.07-.55.22-.72.16-.16.36-.3.6-.38.23-.08.5-.14.76-.16l.74-.03h.26zM130.1 198.98v.6h.03c.05-.1.13-.2.22-.28.1-.08.2-.16.3-.22.12-.06.23-.1.36-.14.13-.04.26-.05.38-.05.48 0 .84.1 1.07.37.23.25.34.6.34 1.08v2.38h-.54v-2.07c0-.42-.07-.74-.2-.96s-.43-.33-.8-.33c-.04 0-.12 0-.24.03-.12.02-.25.08-.4.18-.12.1-.24.24-.35.43-.1.2-.16.47-.16.8v1.93h-.52v-2.92-.38l-.04-.44h.55zM6.6 133.68l-1.15 1-.68-.8 1.85-1.55h1.12V138H6.6v-4.32M12.68 136.5c0-.22.04-.42.13-.6.1-.2.2-.38.34-.52s.3-.26.5-.34c.2-.08.4-.12.62-.12.22 0 .42.04.6.12.2.08.37.2.5.34.16.15.27.3.35.5.1.2.13.4.13.62 0 .22-.04.43-.12.62s-.18.36-.33.5c-.14.15-.3.27-.5.35-.2.08-.4.12-.6.12-.23 0-.44-.05-.63-.13-.2-.08-.36-.2-.5-.34-.14-.15-.25-.32-.33-.5s-.12-.4-.12-.63zm2.34 0c0-.2-.07-.4-.22-.54-.15-.15-.33-.23-.54-.23-.22 0-.4.08-.54.23-.15.14-.22.33-.22.54 0 .22.07.4.22.55.14.15.32.23.54.23.2 0 .4-.08.54-.23.14-.15.22-.33.22-.55zm-6.36-2.68c0-.22.04-.42.12-.62.1-.2.2-.36.34-.5s.3-.26.5-.34c.2-.08.4-.12.6-.12.23 0 .44.04.63.12.2.08.36.2.5.34s.25.3.34.5c.07.2.1.4.1.62 0 .22-.03.42-.1.62s-.2.36-.35.5c-.14.14-.3.26-.5.34-.2.08-.4.12-.62.12-.22 0-.42-.04-.6-.12-.2-.08-.37-.2-.5-.34-.15-.14-.27-.3-.35-.5s-.12-.4-.12-.62zm2.33 0c0-.2-.08-.4-.23-.54s-.32-.23-.54-.23-.4.08-.54.23-.23.33-.23.54c0 .2.08.4.22.54s.32.23.53.23.4-.1.54-.24.22-.33.22-.54zm2.54-1.74l.67.37-3.3 5.8-.6-.34 3.24-5.82zM18.64 137.47h3.03v.53h-3.6v-5.67h3.5v.53h-2.93v1.93h2.75v.52h-2.76v2.15M24.92 138l-.02-.3v-.3h-.02c-.06.1-.13.2-.22.28l-.3.22c-.12.06-.24.1-.36.14s-.25.05-.37.05c-.48 0-.84-.13-1.07-.4-.23-.24-.34-.6-.34-1.07v-2.38h.53v2.07c0 .2 0 .4.04.56.03.16.08.3.16.4s.18.2.3.25.3.08.5.08l.23-.02s.24-.08.37-.18c.14-.1.26-.24.37-.43.1-.2.16-.46.16-.8v-1.92h.53v3.32l.04.42h-.55zM26.32 135.42v-.5c-.02-.17-.03-.4-.03-.67h.5v.7h.03c.03-.1.1-.2.16-.3s.14-.17.24-.25c.1-.07.2-.13.34-.18.13-.04.28-.06.45-.06.14 0 .28 0 .4.04l-.12.52c-.06-.02-.16-.04-.3-.04-.2 0-.37.04-.5.12-.15.08-.27.18-.37.3-.1.12-.17.25-.2.38-.06.14-.08.28-.08.4V138h-.53v-2.58zM31.6 136.13c0-.2-.05-.4-.1-.6-.08-.17-.18-.33-.3-.46-.12-.14-.27-.24-.44-.32-.18-.08-.37-.1-.6-.1-.2 0-.4.02-.58.1-.17.08-.32.18-.44.32-.12.13-.2.3-.28.47-.07.18-.1.38-.1.6s.03.4.1.57c.07.2.16.35.28.48.12.13.27.24.44.32s.37.1.6.1c.2 0 .4-.03.58-.1.17-.08.32-.2.44-.32.12-.13.22-.3.3-.47.05-.17.1-.37.1-.57zm.56 0c0 .28-.05.54-.15.78-.1.25-.22.46-.4.63-.17.18-.38.3-.63.4-.24.1-.5.16-.8.16-.3 0-.55-.06-.8-.16s-.45-.23-.62-.4c-.18-.18-.32-.4-.42-.63-.1-.23-.14-.5-.14-.78s.04-.54.13-.78c.1-.24.24-.45.42-.62.17-.18.38-.32.62-.4.25-.1.5-.16.8-.16.3 0 .56.05.8.15.25.1.46.24.63.42.18.17.3.38.4.62.1.24.16.5.16.78zM36.14 136.13c0-.2-.04-.4-.1-.6-.07-.17-.16-.33-.3-.46-.1-.14-.26-.24-.43-.32-.16-.08-.36-.1-.58-.1-.22 0-.42.02-.6.1s-.34.18-.47.32c-.13.13-.24.3-.3.47-.1.18-.12.38-.12.6s.03.4.1.57c.08.2.2.35.32.48.13.13.3.24.47.32s.38.1.6.1c.22 0 .42-.03.6-.1s.3-.2.43-.32c.13-.13.22-.3.3-.47.05-.17.1-.37.1-.57zm-3.42-1.88h.53v.63h.02c.08-.13.18-.24.3-.33.12-.1.24-.17.37-.23s.26-.1.4-.12c.13-.03.26-.04.38-.04.3 0 .56.05.8.14.25.1.46.24.63.42.18.17.32.38.42.62.1.24.14.5.14.78s-.03.55-.13.8c-.1.23-.24.43-.42.6-.17.2-.38.32-.62.42-.25.1-.5.15-.8.15-.13 0-.26-.02-.4-.05-.13-.03-.26-.07-.4-.13-.12-.06-.24-.13-.36-.22-.12-.1-.22-.2-.3-.33h-.02v2.93h-.53v-6.05zM40.12 135.84c0-.36-.1-.65-.32-.87-.2-.22-.5-.33-.9-.33-.16 0-.33.03-.5.1-.15.06-.3.15-.4.27-.13.12-.23.25-.3.4-.07.13-.1.28-.1.44h2.52zm-2.54.43c0 .18.06.36.13.53.1.16.2.3.3.42.13.12.27.22.43.3.16.06.34.1.52.1.3 0 .53-.07.74-.2s.35-.28.45-.45l.4.33c-.2.28-.46.5-.73.6-.27.13-.56.2-.87.2-.27 0-.53-.06-.77-.15-.23-.1-.44-.24-.6-.42-.18-.17-.3-.38-.4-.62-.1-.23-.16-.5-.16-.77 0-.3.05-.55.14-.8.1-.23.23-.43.4-.6s.37-.32.6-.42c.23-.1.48-.14.75-.14.3 0 .54.05.77.15.22.1.4.25.56.42s.27.36.35.6c.08.2.12.46.12.7v.25h-3.12zM44.54 135.2l-.48.3c-.13.1-.23.2-.3.3-.1.1-.15.22-.2.34-.03.12-.05.25-.05.4 0 .15.05.3.1.43.07.14.16.25.27.34.1.1.22.18.36.23.14.06.3.08.44.08.16 0 .3 0 .42-.05.12-.04.24-.1.35-.18.1-.07.2-.16.3-.26.1-.1.2-.2.28-.32l-1.5-1.57zm1.18-1.74c0-.22-.07-.4-.23-.54s-.34-.2-.56-.2c-.24 0-.44.07-.6.22s-.25.35-.25.6c0 .1 0 .2.06.3.04.1.1.2.16.3.06.1.12.18.2.25.06.07.1.13.16.17.1-.07.22-.13.35-.2s.23-.14.34-.23c.1-.08.2-.18.25-.3s.1-.24.1-.38zm1.02 3.22L48 138h-.8l-.8-.83c-.24.3-.5.54-.76.7-.27.2-.6.27-.97.27-.24 0-.46-.03-.68-.1-.23-.08-.42-.18-.58-.32-.16-.14-.3-.3-.4-.5-.08-.2-.13-.44-.13-.7 0-.2.03-.4.1-.56.06-.17.16-.33.28-.46.12-.14.25-.26.4-.37.16-.1.33-.2.5-.28-.17-.18-.33-.38-.46-.6-.14-.22-.2-.46-.2-.72 0-.22.03-.4.1-.57.07-.17.17-.3.3-.42s.28-.2.45-.26.36-.1.56-.1c.2 0 .36.04.53.1s.3.13.43.24c.12.1.22.24.3.4.06.15.1.34.1.54s-.04.36-.1.5l-.3.4s-.26.23-.4.32c-.16.1-.3.18-.45.25l1.3 1.35.78-1.35h.65l-1.04 1.75zM55 137.1c-.1.15-.22.28-.36.4-.14.14-.3.25-.5.34-.17.1-.36.17-.57.22-.22.05-.44.08-.67.08-.42 0-.8-.07-1.17-.22-.36-.15-.68-.36-.94-.62-.27-.27-.48-.58-.63-.94-.15-.37-.22-.76-.22-1.2 0-.43.07-.82.22-1.2.15-.35.36-.66.62-.93.25-.26.57-.47.93-.62s.75-.2 1.17-.2c.35 0 .7.06 1.05.2.36.14.66.37.9.7l-.5.36c-.06-.1-.14-.18-.24-.27-.1-.1-.2-.18-.33-.25s-.28-.13-.42-.17c-.15-.04-.3-.06-.45-.06-.37 0-.7.06-.98.2-.3.13-.53.3-.73.53-.2.23-.36.5-.47.78s-.16.6-.16.94.05.63.16.93.26.55.46.78c.2.22.43.4.72.53s.6.2.98.2c.15 0 .3 0 .44-.03.15-.02.3-.07.43-.13s.28-.15.4-.26c.13-.1.24-.25.35-.4l.47.32zM58.28 135.84c0-.36-.1-.65-.32-.87-.2-.22-.5-.33-.9-.33-.17 0-.33.03-.5.1-.15.06-.3.15-.4.27-.13.12-.23.25-.3.4-.07.13-.1.28-.1.44h2.52zm-2.54.43c0 .18.06.36.13.53.08.16.18.3.3.42s.26.22.42.3c.15.06.33.1.5.1.3 0 .54-.07.75-.2.2-.13.36-.28.46-.45l.42.33c-.22.28-.47.5-.74.6-.27.13-.56.2-.87.2-.26 0-.52-.06-.76-.15-.23-.1-.44-.24-.6-.42-.18-.17-.3-.38-.4-.62-.1-.23-.16-.5-.16-.77 0-.3.05-.55.14-.8.1-.23.23-.43.4-.6.17-.2.37-.32.6-.42.23-.1.48-.14.75-.14.28 0 .53.05.76.15.22.1.4.25.56.42.14.16.26.36.34.6.08.2.12.46.12.7v.25h-3.12zM59.92 134.25l.02.3v.3h.02c.06-.1.13-.2.23-.28.08-.08.18-.16.3-.22.1-.06.22-.1.35-.14.12-.03.24-.04.37-.04.48 0 .83.12 1.06.38s.35.6.35 1.08V138h-.53v-2.07c0-.42-.07-.74-.22-.96-.14-.22-.4-.33-.8-.33-.02 0-.1 0-.22.03-.12.02-.25.08-.4.18-.13.1-.25.24-.35.43-.1.2-.15.46-.15.8V138h-.53v-2.92-.4l-.04-.43h.54zM65.4 134.73h-1.08v2.2c0 .15.02.26.04.35.03.1.07.16.1.2.06.05.12.1.2.1.05.02.13.03.2.03.1 0 .2 0 .3-.03l.25-.1.03.48c-.2.1-.43.14-.7.14-.1 0-.22-.02-.32-.05-.1-.03-.2-.08-.3-.15-.08-.07-.16-.18-.22-.3-.06-.13-.1-.3-.1-.5v-2.37H63v-.48h.8v-1.05h.52v1.05h1.08v.48zM65.78 135.42v-.5c-.02-.17-.03-.4-.03-.67h.52v.7c.05-.1.1-.2.17-.3.07-.1.16-.17.25-.25.1-.07.2-.13.34-.18.13-.04.28-.06.44-.06.15 0 .28 0 .4.04l-.1.52c-.08-.02-.18-.04-.3-.04-.22 0-.4.04-.53.12-.15.08-.27.18-.36.3-.1.12-.18.25-.23.38-.04.14-.06.28-.06.4V138h-.52v-2.58zM70.1 136.13c-.13 0-.3 0-.5.02s-.4.05-.57.1c-.18.05-.34.13-.47.24-.13.1-.2.24-.2.43 0 .12.03.22.08.3s.12.17.2.23c.1.05.18.1.3.12l.3.03c.2 0 .36-.02.5-.08.14-.07.26-.15.36-.26.1-.1.17-.24.2-.4s.08-.3.08-.46v-.27h-.27zm.28-.43v-.1c0-.64-.32-.96-.96-.96-.44 0-.82.14-1.15.44l-.32-.38c.36-.36.88-.55 1.6-.55.17 0 .34.03.5.08.18.06.33.14.45.25.12.1.22.24.3.4.07.18.1.37.1.6v1.68c0 .14 0 .3.03.45 0 .16.02.3.04.4h-.5c-.03-.1-.04-.2-.05-.3v-.3h-.03c-.16.24-.34.42-.55.53-.2.1-.47.16-.78.16-.16 0-.32-.03-.48-.08-.16-.04-.3-.1-.42-.2s-.2-.2-.3-.35c-.06-.14-.1-.3-.1-.48 0-.3.08-.55.24-.72.16-.18.36-.3.6-.4.23-.08.48-.13.75-.15l.74-.03h.28zM72.38 138h-.53v-6.05h.53V138M76 135.98h2.47L77.24 133 76 135.98zm-.83 2.02h-.67l2.46-5.67h.56L80 138h-.7l-.6-1.5h-2.9l-.63 1.5zM82.15 135.14c-.08-.15-.2-.28-.32-.37-.14-.1-.3-.13-.5-.13-.08 0-.17 0-.27.03-.1.02-.17.05-.25.1-.06.04-.12.1-.17.17-.04.07-.07.16-.07.26 0 .17.06.3.2.38.1.08.3.15.54.2l.53.14c.27.06.48.17.66.35.16.18.25.4.25.67 0 .2-.04.38-.13.52-.08.15-.2.27-.33.36-.14.1-.3.16-.47.2-.18.05-.36.07-.54.07-.3 0-.57-.06-.8-.17-.26-.1-.47-.3-.65-.57l.46-.3c.1.16.25.3.4.4.17.1.37.15.6.15.1 0 .2 0 .3-.03.12-.02.2-.06.3-.1.08-.06.14-.12.2-.2.05-.08.07-.18.07-.28 0-.2-.07-.33-.2-.42-.15-.08-.3-.14-.5-.2l-.52-.1-.26-.1c-.12-.03-.23-.1-.33-.16-.1-.07-.2-.17-.27-.3-.08-.1-.1-.26-.1-.44 0-.2.03-.35.1-.5.08-.14.18-.26.3-.35.15-.1.3-.16.46-.2.16-.05.33-.07.5-.07.27 0 .5.05.74.15.22.1.4.28.52.53l-.47.3zM83.94 132.8c0 .12-.04.22-.12.3-.08.06-.17.1-.27.1s-.18-.04-.26-.1c-.1-.08-.13-.18-.13-.3s.04-.2.12-.26c.07-.07.16-.1.25-.1.1 0 .2.03.27.1.08.07.12.16.12.27zm-.12 5.2h-.53v-3.75h.52V138zM86.82 136.13c-.13 0-.3 0-.5.02s-.4.05-.58.1c-.18.05-.34.13-.47.24s-.2.24-.2.43c0 .12.03.22.08.3.05.1.12.17.2.23.1.05.18.1.3.12l.3.03c.2 0 .36-.02.5-.08.15-.07.26-.15.36-.26.1-.1.18-.24.22-.4s.07-.3.07-.46v-.27h-.28zm.27-.43v-.1c0-.64-.33-.96-.97-.96-.44 0-.82.14-1.14.44l-.33-.38c.35-.36.88-.55 1.58-.55.18 0 .36.03.52.08.17.06.32.14.44.25.13.1.23.24.3.4.08.18.12.37.12.6v1.68c0 .14 0 .3.02.45 0 .16.03.3.04.4h-.5c-.03-.1-.04-.2-.05-.3v-.3h-.02c-.15.24-.33.42-.54.53-.2.1-.47.16-.77.16-.18 0-.34-.03-.5-.08-.15-.04-.3-.1-.4-.2-.13-.1-.22-.2-.3-.35s-.1-.3-.1-.48c0-.3.08-.55.23-.72.16-.18.36-.3.6-.4.23-.08.5-.13.76-.15l.73-.03h.26zM98.3 133.8c0-.27.06-.5.15-.7.1-.18.24-.34.4-.47.2-.14.4-.23.62-.3.22-.06.47-.1.73-.1s.5.04.74.1c.23.07.43.16.6.3.17.13.3.3.4.48s.16.43.16.7c0 .3-.1.57-.25.8-.17.2-.4.36-.7.45v.02c.33.1.6.25.77.5.18.23.27.52.27.87 0 .28-.06.52-.17.72-.1.2-.26.4-.44.52s-.4.24-.65.3c-.24.08-.5.1-.75.1-.26 0-.5-.02-.75-.1-.24-.06-.45-.16-.64-.3s-.32-.3-.43-.52c-.1-.2-.16-.44-.16-.72 0-.35.1-.64.28-.88.18-.24.45-.4.8-.5-.32-.1-.55-.25-.72-.47-.17-.23-.25-.5-.25-.8zm1.2.16c0 .18.07.33.2.45.13.13.3.2.5.2s.38-.06.5-.2c.13-.1.2-.26.2-.43 0-.18-.07-.32-.2-.44-.12-.13-.3-.2-.5-.2s-.37.07-.5.2c-.13.12-.2.26-.2.44zm-.1 2.32c0 .2.08.36.23.5s.33.2.57.2c.24 0 .43-.06.58-.2s.2-.3.2-.5-.06-.38-.2-.52c-.15-.13-.34-.2-.58-.2-.24 0-.43.07-.57.2-.15.14-.22.3-.22.52zM106.47 136.5c0-.22.05-.42.13-.6.08-.2.2-.38.33-.52.14-.14.3-.26.5-.34.2-.08.4-.12.62-.12.22 0 .42.04.62.12.2.08.35.2.5.34.14.15.25.3.33.5.08.2.13.4.13.62 0 .22-.05.43-.13.62s-.2.36-.33.5c-.15.15-.3.27-.5.35-.2.08-.4.12-.62.12-.22 0-.42-.05-.62-.13s-.36-.2-.5-.34c-.14-.15-.25-.32-.33-.5s-.13-.4-.13-.63zm2.34 0c0-.2-.06-.4-.2-.54-.16-.15-.34-.23-.55-.23-.2 0-.4.08-.54.23-.14.14-.2.33-.2.54 0 .22.06.4.2.55.16.15.34.23.55.23.2 0 .4-.08.54-.23.14-.15.2-.33.2-.55zm-6.35-2.68c0-.22.04-.42.12-.62.1-.2.2-.36.34-.5.15-.14.32-.26.5-.34.2-.08.4-.12.63-.12.2 0 .42.04.6.12.2.08.37.2.5.34.15.14.27.3.35.5.08.2.12.4.12.62 0 .22-.04.42-.12.62s-.2.36-.34.5-.3.26-.5.34c-.2.08-.4.12-.6.12-.23 0-.44-.04-.63-.12-.18-.08-.35-.2-.5-.34-.13-.14-.24-.3-.33-.5s-.12-.4-.12-.62zm2.34 0c0-.2-.1-.4-.23-.54s-.33-.23-.54-.23-.4.08-.54.23-.23.33-.23.54c0 .2.07.4.22.54s.3.23.53.23.4-.1.54-.24.22-.33.22-.54zm2.53-1.74l.67.37-3.3 5.8-.6-.34 3.23-5.82zM114.65 136.94l1.9-4.6h.9V138h-.58v-4.9h-.02l-2.05 4.9h-.3l-2.05-4.9h-.02v4.9h-.57v-5.67h.88l1.9 4.6M119.15 132.8c0 .12-.04.22-.12.3-.08.06-.16.1-.26.1s-.18-.04-.26-.1c-.07-.08-.1-.18-.1-.3s.03-.2.1-.26c.1-.07.17-.1.27-.1s.18.03.26.1c.08.07.12.16.12.27zm-.12 5.2h-.52v-3.75h.53V138zM120.23 136.13c0 .2.03.4.1.58.06.2.16.35.28.48.13.13.28.24.45.32.18.07.37.1.6.1.2 0 .4-.03.6-.1.17-.08.33-.2.46-.32.15-.13.25-.3.33-.47.07-.17.1-.37.1-.57s-.03-.4-.1-.6c-.08-.17-.18-.33-.32-.46-.12-.14-.28-.24-.46-.32-.2-.08-.38-.1-.6-.1-.22 0-.4.02-.6.1-.16.08-.3.18-.43.32-.1.13-.2.3-.27.47-.07.18-.1.38-.1.6zm3.4 1.87h-.52v-.63c-.1.13-.2.24-.3.33s-.25.17-.37.23c-.13.05-.26.1-.4.12-.14.03-.27.04-.4.04-.28 0-.55-.06-.8-.16-.24-.1-.44-.23-.62-.4-.17-.18-.3-.4-.4-.63-.1-.23-.15-.5-.15-.77 0-.3.05-.55.15-.8.1-.23.23-.44.4-.6.2-.2.4-.33.64-.42.24-.1.5-.14.8-.14.12 0 .25 0 .4.04.13.02.26.07.4.13.1.05.24.13.35.22.1.1.2.2.3.33v-2.93h.54V138zM124.7 136.13c0 .2.05.4.1.58.08.2.17.35.3.48.12.13.27.24.44.32s.37.1.6.1c.2 0 .4-.03.6-.1s.33-.2.46-.32c.13-.13.24-.3.3-.47.1-.17.13-.37.13-.57s-.04-.4-.12-.6c-.06-.17-.17-.33-.3-.46-.13-.14-.3-.24-.47-.32-.2-.08-.4-.1-.6-.1-.22 0-.4.02-.6.1-.16.08-.3.18-.43.32-.12.13-.22.3-.3.47-.05.18-.1.38-.1.6zm3.43 1.87h-.53v-.63c-.1.13-.2.24-.32.33-.12.1-.24.17-.37.23-.1.05-.25.1-.38.12-.14.03-.27.04-.4.04-.28 0-.55-.06-.8-.16-.24-.1-.45-.23-.62-.4-.18-.18-.32-.4-.4-.63-.1-.23-.16-.5-.16-.77 0-.3.05-.55.15-.8.08-.23.22-.44.4-.6.17-.2.38-.33.63-.42.24-.1.5-.14.8-.14.12 0 .25 0 .4.04.12.02.26.07.38.13s.26.13.38.22c.12.1.22.2.3.33h.02v-2.93h.53V138zM129.53 138H129v-6.05h.53V138M133.3 135.84c0-.36-.1-.65-.3-.87-.22-.22-.52-.33-.9-.33-.17 0-.34.03-.5.1s-.3.15-.42.27c-.12.12-.2.25-.3.4-.06.13-.1.28-.1.44h2.53zm-2.53.43c.02.18.06.36.14.53.08.16.18.3.3.42s.27.22.43.3c.16.06.33.1.52.1.28 0 .52-.07.73-.2s.36-.28.47-.45l.4.33c-.22.28-.47.5-.74.6-.26.13-.55.2-.85.2-.28 0-.54-.06-.78-.15s-.44-.24-.6-.42c-.18-.17-.3-.38-.4-.62-.1-.23-.16-.5-.16-.77 0-.3.06-.55.15-.8.1-.23.23-.43.4-.6s.38-.32.6-.42c.23-.1.48-.14.75-.14.28 0 .53.05.76.15.22.1.4.25.56.42.15.16.27.36.35.6.08.2.12.46.12.7v.25h-3.13zM137.04 137.47h3.03v.53h-3.6v-5.67h3.5v.53h-2.93v1.93h2.75v.52h-2.76v2.15M142.75 136.13c-.14 0-.3 0-.5.02s-.4.05-.58.1-.34.13-.47.24c-.13.1-.2.24-.2.43 0 .12.03.22.08.3.05.1.12.17.2.23.1.05.18.1.3.12l.3.03c.2 0 .36-.02.5-.08.14-.07.26-.15.36-.26.1-.1.16-.24.2-.4.05-.13.08-.3.08-.46v-.27h-.27zm.27-.43v-.1c0-.64-.32-.96-.96-.96-.44 0-.82.14-1.15.44l-.3-.38c.35-.36.87-.55 1.58-.55.18 0 .35.03.52.08.17.06.32.14.44.25.12.1.22.24.3.4.07.18.1.37.1.6v1.68c0 .14 0 .3.03.45 0 .16.02.3.04.4h-.5l-.04-.3v-.3h-.03c-.15.24-.33.42-.54.53-.22.1-.48.16-.8.16-.15 0-.3-.03-.47-.08-.15-.04-.3-.1-.4-.2-.13-.1-.22-.2-.3-.35-.07-.14-.1-.3-.1-.48 0-.3.08-.55.23-.72.16-.18.36-.3.6-.4.23-.08.5-.13.75-.15l.75-.03h.27zM146.35 135.14c-.08-.15-.18-.28-.32-.37-.13-.1-.3-.13-.48-.13-.1 0-.2 0-.28.03-.1.02-.18.05-.25.1-.08.04-.14.1-.18.17-.05.07-.07.16-.07.26 0 .17.06.3.18.38.13.08.3.15.56.2l.54.14c.26.06.48.17.65.35.17.18.25.4.25.67 0 .2-.04.38-.12.52-.08.15-.2.27-.33.36-.13.1-.3.16-.47.2-.17.05-.35.07-.53.07-.3 0-.56-.06-.8-.17-.25-.1-.47-.3-.64-.57l.45-.3c.12.16.25.3.42.4.16.1.35.15.58.15.1 0 .2 0 .32-.03.1-.02.2-.06.28-.1.08-.06.15-.12.2-.2.05-.08.08-.18.08-.28 0-.2-.07-.33-.2-.42-.15-.08-.32-.14-.5-.2l-.53-.1-.26-.1c-.12-.03-.22-.1-.33-.16-.1-.07-.2-.17-.26-.3-.07-.1-.1-.26-.1-.44 0-.2.03-.35.1-.5.1-.14.2-.26.32-.35.13-.1.28-.16.45-.2.16-.05.33-.07.5-.07.27 0 .5.05.74.15.23.1.4.28.53.53l-.48.3zM149.3 134.73h-1.07v2.2c0 .15.02.26.04.35s.07.16.12.2c.03.05.1.1.16.1.06.02.14.03.22.03.1 0 .18 0 .28-.03.1-.02.18-.06.26-.1l.03.48c-.2.1-.44.14-.72.14-.1 0-.2-.02-.3-.05-.12-.03-.22-.08-.3-.15-.1-.07-.18-.18-.24-.3s-.1-.3-.1-.5v-2.37h-.8v-.48h.8v-1.05h.53v1.05h1.08v.48zM152.9 135.2l-.46.3c-.13.1-.24.2-.32.3-.08.1-.14.22-.17.34-.04.12-.06.25-.06.4 0 .15.02.3.1.43.05.14.13.25.24.34.1.1.23.18.37.23.15.06.3.08.45.08.15 0 .3 0 .42-.05.12-.04.24-.1.35-.18.1-.07.2-.16.3-.26l.3-.32-1.5-1.57zm1.2-1.74c0-.22-.08-.4-.23-.54-.15-.14-.34-.2-.56-.2-.23 0-.43.07-.6.22s-.23.35-.23.6c0 .1.02.2.06.3l.16.3c.05.1.12.18.2.25.05.07.1.13.16.17l.34-.2s.24-.14.34-.23c.1-.08.2-.18.26-.3s.1-.24.1-.38zm1 3.22l1.3 1.32h-.83l-.8-.83c-.24.3-.5.54-.75.7-.27.2-.6.27-.98.27-.23 0-.46-.03-.67-.1-.22-.08-.4-.18-.57-.32-.17-.14-.3-.3-.4-.5-.1-.2-.13-.44-.13-.7 0-.2.03-.4.1-.56.07-.17.16-.33.28-.46.12-.14.26-.26.42-.37.15-.1.3-.2.48-.28-.17-.18-.32-.38-.46-.6-.14-.22-.2-.46-.2-.72 0-.22.03-.4.1-.57.07-.17.17-.3.3-.42s.27-.2.45-.26.35-.1.56-.1c.2 0 .37.04.53.1s.3.13.44.24c.12.1.22.24.3.4.07.15.1.34.1.54s-.03.36-.1.5c-.08.15-.18.28-.3.4s-.26.23-.4.32c-.15.1-.3.18-.44.25l1.3 1.35.78-1.35h.65l-1.04 1.75zM162.8 137.13h.02v-4.8h.57V138h-.73l-3.37-4.85h-.02V138h-.57v-5.67h.73l3.37 4.8M167.55 136.13c0-.2-.04-.4-.1-.6-.07-.17-.16-.33-.3-.46-.1-.14-.26-.24-.43-.32-.17-.08-.37-.1-.6-.1-.2 0-.4.02-.58.1-.17.08-.32.18-.44.32-.12.13-.2.3-.28.47-.06.18-.1.38-.1.6s.04.4.1.57c.07.2.16.35.28.48.12.13.27.24.44.32s.37.1.6.1c.2 0 .4-.03.58-.1.17-.08.32-.2.44-.32.13-.13.22-.3.3-.47.05-.17.1-.37.1-.57zm.57 0c0 .28-.05.54-.15.78-.1.25-.23.46-.4.63-.18.18-.4.3-.64.4-.24.1-.5.16-.8.16-.3 0-.55-.06-.8-.16s-.45-.23-.62-.4c-.17-.18-.3-.4-.4-.63-.1-.23-.15-.5-.15-.78s.05-.54.14-.78c.1-.24.23-.45.4-.62.18-.18.4-.32.63-.4.25-.1.5-.16.8-.16.3 0 .56.05.8.15.25.1.46.24.63.42.18.17.32.38.4.62.1.24.16.5.16.78zM168.74 135.42v-.5c-.02-.17-.03-.4-.03-.67h.53v.7c.05-.1.1-.2.17-.3.07-.1.15-.17.25-.25.1-.07.22-.13.35-.18.13-.04.28-.06.44-.06.15 0 .28 0 .4.04l-.1.52c-.08-.02-.18-.04-.3-.04-.22 0-.4.04-.53.12-.14.08-.26.18-.35.3-.1.12-.17.25-.22.38-.04.14-.06.28-.06.4V138h-.53v-2.58z"/><path fill="#4F384A" class="text-dark" d="M172.87 134.73h-1.08v2.2c0 .15 0 .26.03.35s.07.16.12.2c.04.05.1.1.17.1.06.02.14.03.22.03.1 0 .18 0 .28-.03.1-.02.18-.06.26-.1l.03.48c-.2.1-.43.14-.7.14-.1 0-.2-.02-.32-.05-.1-.03-.2-.08-.3-.15-.1-.07-.17-.18-.23-.3s-.08-.3-.08-.5v-2.37h-.8v-.48h.8v-1.05h.52v1.05h1.07v.48zM173.2 131.95h.52v2.9h.02c.06-.1.13-.2.22-.28.1-.08.2-.16.3-.22.12-.06.24-.1.36-.14.13-.03.25-.04.37-.04.47 0 .83.12 1.06.38.23.25.34.6.34 1.08V138h-.53v-2.08c0-.4-.07-.73-.2-.95-.16-.22-.42-.33-.8-.33-.04 0-.1 0-.24.03-.12.02-.25.08-.38.17-.14.1-.26.24-.37.44-.1.2-.16.45-.16.8V138h-.53v-6.05zM180 135.98h2.46l-1.23-2.98-1.23 2.98zm-.84 2.02h-.67l2.45-5.67h.56L184 138h-.67l-.62-1.5h-2.9l-.62 1.5zM185.9 134.73h-.9V138h-.52v-3.27h-.8v-.48h.8v-1.02c0-.5.12-.85.35-1.06.22-.2.53-.32.9-.32.08 0 .16 0 .24.02.07 0 .15.02.22.04l-.1.5c-.07-.03-.13-.04-.2-.05l-.2-.02c-.15 0-.27.03-.36.07s-.16.12-.2.2-.1.2-.1.32c-.02.1-.03.24-.03.37v.95h.9v.48zM186.18 135.42v-.5c-.02-.17-.03-.4-.03-.67h.52v.7c.05-.1.1-.2.17-.3.07-.1.15-.17.25-.25.1-.07.2-.13.34-.18.13-.04.28-.06.44-.06.15 0 .28 0 .4.04l-.1.52c-.08-.02-.18-.04-.3-.04-.22 0-.4.04-.53.12-.15.08-.27.18-.36.3-.1.12-.18.25-.23.38-.04.14-.06.28-.06.4V138h-.52v-2.58zM189.15 132.8c0 .12-.04.22-.12.3-.08.06-.17.1-.27.1s-.18-.04-.26-.1c-.08-.08-.12-.18-.12-.3s.04-.2.12-.26c.08-.07.17-.1.26-.1.1 0 .2.03.27.1.08.07.12.16.12.27zm-.12 5.2h-.53v-3.75h.53V138zM192.63 135.13c-.1-.14-.22-.25-.38-.35-.17-.1-.35-.14-.56-.14-.23 0-.42.03-.6.1s-.32.18-.44.3c-.12.15-.22.3-.28.5-.07.17-.1.37-.1.6 0 .2.03.4.1.58.06.2.16.34.28.48.12.13.27.23.44.3.18.08.37.12.6.1.2 0 .38-.03.55-.13.16-.1.3-.2.38-.35l.43.32c-.2.22-.4.38-.63.5-.24.1-.48.15-.74.15-.3 0-.6-.05-.83-.15-.25-.1-.46-.23-.63-.4-.18-.2-.3-.4-.4-.64-.1-.23-.13-.5-.13-.78s.05-.54.14-.78c.1-.25.23-.46.4-.63.17-.17.38-.3.63-.4.24-.1.52-.15.82-.14.25 0 .5.06.73.16.23.1.44.27.63.48l-.43.33zM195.48 136.13c-.13 0-.3 0-.5.02s-.4.05-.57.1c-.18.05-.33.13-.47.24-.13.1-.2.24-.2.43 0 .12.03.22.08.3.06.1.13.17.22.23.08.05.18.1.28.12.1.02.2.03.32.03.2 0 .36-.02.5-.08.14-.07.26-.15.35-.26.1-.1.17-.24.22-.4s.05-.3.05-.46v-.27h-.27zm.27-.43v-.1c0-.64-.32-.96-.96-.96-.44 0-.83.14-1.15.44l-.32-.38c.35-.36.88-.55 1.58-.55.2 0 .37.03.54.08.17.06.3.14.43.25.13.1.22.24.3.4.07.18.1.37.1.6v1.68l.03.45c0 .16.03.3.05.4h-.52l-.03-.3v-.3h-.03c-.15.24-.34.42-.55.53-.2.1-.47.16-.77.16-.16 0-.32-.03-.48-.08-.15-.04-.3-.1-.4-.2-.13-.1-.23-.2-.3-.35s-.1-.3-.1-.48c0-.3.07-.55.23-.72.15-.18.35-.3.6-.4.23-.08.48-.13.75-.15l.74-.03h.25z"/></svg>