<svg viewBox="0 0 433 100" xmlns="http://www.w3.org/2000/svg" class="figure-4 figure"><path fill="#145954" class="government" d="M119.4 28.3h153v42h-153z"/><path fill="#3d9791" class="ngo" d="M17 28.3h42.7v42H17z"/><path fill="#5dc0ba" class="financial-institution" d="M0 28.3h17v42H0z"/><text x="1208.26" y="236.14" class="text light" transform="matrix(.24 0 0 .24 -159.56 -4.6)">1<tspan x="1228.8px 1249.34px" y="236.14px 236.14px">8</tspan></text><text x="1256.55" y="236.14" class="text light" transform="matrix(.24 0 0 .24 -159.56 -4.6)">G<tspan x="1280.8px 1301.76px 1319.59px 1338.8px 1351.8px 1373.13px 1406.21px 1425.42px 1446.76px" y="236.14px 236.14px 236.14px 236.14px 236.14px 236.14px 236.14px 236.14px 236.14px">overnment</tspan></text><text x="1208.26" y="236.14" class="text dark" transform="matrix(.24 0 0 .24 -181.45 -41.14)">7</text><text x="1231.3" y="236.14" class="text dark" transform="matrix(.24 0 0 .24 -181.45 -41.14)"></text><text x="1238.51" y="236.14" class="text dark" transform="matrix(.24 0 0 .24 -181.45 -41.14)">P<tspan x="1261.05px 1282.26px 1303.92px 1313.09px 1321.88px 1339.42px 1346.38px 1367.17px 1386.38px 1403.92px 1416.13px 1437.26px" y="236.14px 236.14px 236.14px 236.14px 236.14px 236.14px 236.14px 236.14px 236.14px 236.14px 236.14px 236.14px">ublic Sector</tspan></text><text x="1208.26" y="236.14" class="text dark" transform="matrix(.24 0 0 .24 100.25 -40.46)">T<tspan x="1226.38px 1247.51px 1259.38px 1279.26px 1288.42px 1297.34px" y="236.14px 236.14px 236.14px 236.14px 236.14px 236.14px">otal:</tspan></text><text x="1304.3" y="236.14" class="text dark" transform="matrix(.24 0 0 .24 100.25 -40.46)">5<tspan x="1324.84" y="236.14">1</tspan></text><text x="1208.26" y="236.14" class="text dark" transform="matrix(.24 0 0 .24 -278.29 -41.14)">2</text><text x="1228.8" y="236.14" class="text dark" transform="matrix(.24 0 0 .24 -278.29 -41.14)"><tspan x="1235.76px 1254.88px 1263.67px 1285.01px 1304.88px 1326.21px 1343.76px 1352.55px 1372.42px 1381.59px 1388.55px 1398.05px 1419.38px 1435.38px 1448.01px 1456.8px 1469.17px 1490.38px 1503.01px 1511.8px 1532.92px" y="236.14px 236.14px 236.14px 236.14px 236.14px 236.14px 236.14px 236.14px 236.14px 236.14px 236.14px 236.14px 236.14px 236.14px 236.14px 236.14px 236.14px 236.14px 236.14px 236.14px 236.14px">Financial Institution</tspan></text><text x="1208.26" y="236.14" class="text dark" transform="matrix(.24 0 0 .24 -249.26 32.87)">5</text><text x="1228.8" y="236.14" class="text dark" transform="matrix(.24 0 0 .24 -249.26 32.87)"><tspan x="1235.76px 1261.26px 1282.38px 1303.71px 1315.21px 1339.46px 1360.42px 1378.26px 1397.46px 1410.46px 1431.8px 1464.88px 1484.09px 1505.42px 1517.3px 1537.17px 1546.34px 1553.3px 1579.51px 1592.09px 1610.96px 1630.84px 1652.17px 1660.96px 1676.26px 1696.13px 1708.76px 1717.55px 1738.67px" y="236.14px 236.14px 236.14px 236.14px 236.14px 236.14px 236.14px 236.14px 236.14px 236.14px 236.14px 236.14px 236.14px 236.14px 236.14px 236.14px 236.14px 236.14px 236.14px 236.14px 236.14px 236.14px 236.14px 236.14px 236.14px 236.14px 236.14px 236.14px 236.14px">Non-Governmental Organization</tspan></text><path d="M37.8 72.83V90.7h-.5V72.82l-.52.4.78-2.25.8 2.26-.55-.4z" fill="#3f9890" class="ngo line"/><path d="M8.96 25.8l.53-.42-.8 2.26-.78-2.26.54.4V8h.5v17.8z" fill="#5dc0ba" class="financial-institution line"/><path d="M106.05 25.8l.53-.42-.78 2.26-.8-2.26.55.4V8h.5v17.8z" fill="#287872" class="public-sector line"/><path fill="#277872" class="public-sector" d="M59.7 28.3h59.7v42H59.7z"/><path fill="#072a27" class="private-sector" d="M272.4 28.3H433v42H272.4z"/><path fill="#fff" class="border line" d="M16.8 28.3h.5v42h-.5zM59.44 28.3h.5v42h-.5zM119.3 28.3h.5v42h-.5zM272.4 28.3h.43v42h-.43z"/><g><text x="1208.26" y="236.14" class="text light" transform="matrix(.24 0 0 .24 -7.54 -4.6)">1<tspan x="1228.8" y="236.14">9</tspan></text><text x="1249.34" y="236.14" class="text light" transform="matrix(.24 0 0 .24 -7.54 -4.6)"><tspan x="1256.3px 1278.84px 1291.84px 1300.63px 1317.8px 1337.67px 1349.88px 1369.09px 1376.05px 1396.84px 1416.05px 1433.59px 1445.8px 1466.92px" y="236.14px 236.14px 236.14px 236.14px 236.14px 236.14px 236.14px 236.14px 236.14px 236.14px 236.14px 236.14px 236.14px 236.14px">Private Sector</tspan></text></g></svg>